<?xml version="1.0" encoding="UTF-8"?>
<svg id="svg31" width="1e3" height="600" version="1.1" xmlns="http://www.w3.org/2000/svg" xmlns:cc="http://creativecommons.org/ns#" xmlns:dc="http://purl.org/dc/elements/1.1/" xmlns:rdf="http://www.w3.org/1999/02/22-rdf-syntax-ns#" xmlns:xlink="http://www.w3.org/1999/xlink">
 <metadata id="metadata2">
  <rdf:RDF>
   <cc:Work rdf:about="">
    <dc:format>image/svg+xml</dc:format>
    <dc:type rdf:resource="http://purl.org/dc/dcmitype/StillImage"/>
   </cc:Work>
  </rdf:RDF>
 </metadata>
 <rect id="rect4" width="1e3" height="600" fill="#0000fe" fill-rule="evenodd" style="fill:#005aa3"/>
 <g id="g314" transform="matrix(.999979 0 0 .999979 .00548093 .0112993)">
  <path id="path6" d="m508.005 299.995a158.003 158.003 0 1 1-316.007 0 158.003 158.003 0 1 1 316.007 0z" fill="#ffffff" fill-rule="evenodd" style="stroke-width:2.02906"/>
  <path id="path10" d="m498.005 299.976a148.003 147.984 0 1 1-296.006 0 148.003 147.984 0 1 1 296.006 0z" fill="#fe0000" fill-rule="evenodd" stroke="#000000" stroke-width="2.9998" style="fill:#e62323"/>
  <use id="use1054" transform="rotate(120 350 300)" width="100%" height="100%" xlink:href="#sunRays"/>
  <path id="sunRays" d="m350 300q57.6 38.4 144 0-86.4-38.4-144 0t-144 0q86.4-38.4 144 0" fill="#FF0" stroke="#000000" stroke-width="3" style="fill:#ffdd00"/>
  <use id="use1038" transform="rotate(60 350 300)" width="100%" height="100%" xlink:href="#sunRays"/>
  <path id="path21" d="m430.003 299.995c0 44.184-35.8179 80.0009-80.0009 80.0009-44.184 0-80.0009-35.8179-80.0009-80.0009 0-44.184 35.8179-80.0009 80.0009-80.0009 44.184 0 80.0009 35.8179 80.0009 80.0009zm9.00015 0c0 49.1545-39.8474 89.0018-89.0018 89.0018-49.1545 0-89.0018-39.8474-89.0018-89.0018 0-49.1545 39.8474-89.0018 89.0018-89.0018 49.1545 0 89.0018 39.8474 89.0018 89.0018z" fill="#ffffff" fill-rule="evenodd" style="stroke-width:1.02739"/>
  <path id="path23" d="m379.002 299.995a29.0006 29.0006 0 1 1-58.0012 0 29.0006 29.0006 0 1 1 58.0012 0z" fill="#ffffff" fill-rule="evenodd" style="stroke-width:.372423"/>
  <path id="path25" d="m372.002 299.995a22.0005 22.0005 0 1 1-44.0009 0 22.0005 22.0005 0 1 1 44.0009 0z" fill="#0000fe" fill-rule="evenodd" style="fill:#005aa3;stroke-width:.282528"/>
  <path id="path27" d="m430.003 299.995c0 44.1839-35.8177 80.0016-80.0016 80.0016s-80.0016-35.8177-80.0016-80.0016 35.8177-80.0016 80.0016-80.0016 80.0016 35.8177 80.0016 80.0016z" fill="none" stroke="#000000" stroke-width="3.00006"/>
 </g>
</svg>
