<svg width="301" height="54" viewBox="0 0 301 54" fill="none" xmlns="http://www.w3.org/2000/svg">
<g clip-path="url(#clip0_462_558)">
<path d="M14.2837 3.19531C22.2191 3.19531 27.6152 8.62726 27.6152 15.9764H20.3146C20.3146 12.4616 18.0927 10.2249 14.2837 10.2249C10.4747 10.2249 8.25282 12.4616 8.25282 14.6983C8.25282 21.7279 28.8849 17.8935 28.8849 32.5918C28.8849 38.3432 23.1714 44.0947 14.2837 44.0947C5.39608 44.0947 0 38.6628 0 30.9941H7.61799C7.61799 34.5089 10.1573 37.0651 14.2837 37.0651C18.7276 37.0651 20.9495 34.8284 20.9495 32.2722C20.9495 24.9231 0.317416 28.7574 0.317416 14.7582C0.317416 8.62726 5.71349 3.19531 14.2837 3.19531Z" fill="#231F20"/>
<path d="M62.8485 29.0768C62.8485 37.7041 56.5001 44.0946 49.1996 44.0946C44.4383 44.0946 41.5816 41.2188 41.5816 41.2188V53.9999H34.281V14.3786H39.6771L40.9467 17.2543C40.9467 17.2543 44.1209 14.0591 49.1996 14.0591C56.5001 14.0591 62.8485 20.4496 62.8485 29.0768ZM48.2473 37.065C52.3737 37.065 55.5479 33.8697 55.5479 29.0768C55.5479 24.2839 52.3737 21.0887 48.2473 21.0887C44.1209 21.0887 40.9467 24.2839 40.9467 29.0768C40.9467 33.8697 44.1209 37.065 48.2473 37.065Z" fill="#231F20"/>
<path d="M84.1153 14.3786V22.0472C84.1153 22.0472 83.1631 21.7277 81.576 21.7277C78.0844 21.7277 75.5451 24.2839 75.5451 28.1183V43.7751H68.2445V14.3786H73.6406L74.9102 17.5739C74.9102 17.5739 77.4496 14.0591 81.8934 14.0591C83.1631 14.0591 84.1153 14.3786 84.1153 14.3786Z" fill="#231F20"/>
<path d="M112.048 25.5621V43.7751H106.652L105.382 40.8994C105.382 40.8994 102.208 44.0947 97.1295 44.0947C90.7811 44.0947 87.2896 40.5799 87.2896 35.787C87.2896 30.0355 91.416 25.8817 104.747 25.8817C104.747 22.6864 102.843 20.7692 99.9862 20.7692C96.1772 20.7692 95.5424 23.9645 95.5424 23.9645H88.2418C88.8766 18.5325 93.3205 14.0592 100.621 14.0592C107.287 14.0592 112.048 18.8521 112.048 25.5621ZM100.621 11.503C97.1295 11.503 94.5901 8.94675 94.5901 5.75148C94.5901 2.55621 97.1295 0 100.621 0C104.113 0 106.652 2.55621 106.652 5.75148C106.652 8.94675 104.113 11.503 100.621 11.503ZM104.747 32.2722V30.9941C96.1772 30.9941 94.5901 32.5917 94.5901 35.1479C94.5901 36.7456 96.1772 38.3432 98.3991 38.3432C102.208 38.3432 104.747 35.787 104.747 32.2722ZM100.621 3.51479C99.3514 3.51479 98.3991 4.47337 98.3991 5.75148C98.3991 7.02959 99.3514 7.98817 100.621 7.98817C101.891 7.98817 102.843 7.02959 102.843 5.75148C102.843 4.47337 101.891 3.51479 100.621 3.51479Z" fill="#231F20"/>
<path d="M136.172 43.7752L126.014 30.3551V43.7752H118.714V3.51489H126.014V26.5208L134.902 14.3788H143.155L132.68 28.438L144.424 43.7752H136.172Z" fill="#231F20"/>
<path d="M163.152 14.3786V22.0472C163.152 22.0472 162.2 21.7277 160.613 21.7277C157.121 21.7277 154.582 24.2839 154.582 28.1183V43.7751H147.281V14.3786H152.677L153.947 17.5739C153.947 17.5739 156.486 14.0591 160.93 14.0591C162.2 14.0591 163.152 14.3786 163.152 14.3786Z" fill="#231F20"/>
<path d="M191.085 25.5621V43.7751H185.689L184.419 40.8994C184.419 40.8994 181.245 44.0947 176.166 44.0947C169.818 44.0947 166.326 40.5799 166.326 35.787C166.326 30.0355 170.453 25.8817 183.784 25.8817C183.784 22.6864 181.88 20.7692 179.023 20.7692C175.214 20.7692 174.579 23.9645 174.579 23.9645H167.278C167.913 18.5325 172.357 14.0592 179.658 14.0592C186.323 14.0592 191.085 18.8521 191.085 25.5621ZM179.658 11.503C176.166 11.503 173.627 8.94675 173.627 5.75148C173.627 2.55621 176.166 0 179.658 0C183.149 0 185.689 2.55621 185.689 5.75148C185.689 8.94675 183.149 11.503 179.658 11.503ZM183.784 32.2722V30.9941C175.214 30.9941 173.627 32.5917 173.627 35.1479C173.627 36.7456 175.214 38.3432 177.436 38.3432C181.245 38.3432 183.784 35.787 183.784 32.2722ZM179.658 3.51479C178.388 3.51479 177.436 4.47337 177.436 5.75148C177.436 7.02959 178.388 7.98817 179.658 7.98817C180.927 7.98817 181.88 7.02959 181.88 5.75148C181.88 4.47337 180.927 3.51479 179.658 3.51479Z" fill="#231F20"/>
<path d="M196.163 29.077C196.163 20.4498 202.512 14.0593 209.812 14.0593C214.573 14.0593 217.43 16.935 217.43 16.935V3.51489H224.731V43.7752H219.335L218.065 40.8995C218.065 40.8995 214.891 44.0948 209.812 44.0948C202.512 44.0948 196.163 37.7042 196.163 29.077ZM210.764 21.0889C206.638 21.0889 203.464 24.2841 203.464 29.077C203.464 33.8699 206.638 37.0652 210.764 37.0652C214.891 37.0652 218.065 33.8699 218.065 29.077C218.065 24.2841 214.891 21.0889 210.764 21.0889Z" fill="#231F20"/>
<path d="M257.742 34.8283C256.155 39.3017 251.394 44.0946 244.728 44.0946C236.793 44.0946 230.127 37.3845 230.127 29.0768C230.127 20.7691 236.793 14.0591 244.728 14.0591C252.663 14.0591 258.694 20.1301 258.694 29.0768C258.694 30.3549 258.377 31.9526 258.377 31.9526H238.062C238.697 34.8283 240.919 37.065 244.728 37.065C248.537 37.065 250.124 34.8283 250.124 34.8283H257.742ZM237.745 26.8401H251.711C251.076 23.6449 248.537 21.0887 244.728 21.0887C240.919 21.0887 238.38 23.6449 237.745 26.8401Z" fill="#231F20"/>
<path d="M267.265 7.34912H273.613V14.3787H279.961V21.0888H273.613V33.2308C273.613 35.787 275.2 37.3846 277.739 37.3846C279.009 37.3846 279.644 37.0651 279.644 37.0651V43.4556C279.644 43.4556 278.057 44.0947 276.152 44.0947C270.439 44.0947 266.312 39.9408 266.312 33.5503V21.0888H261.869V15.0178H263.773C265.995 15.0178 267.265 13.7397 267.265 11.503V7.34912Z" fill="#231F20"/>
<path d="M294.92 18.0432C296.546 18.0432 297.965 18.6523 299.175 19.8805C300.395 21.1087 301 22.5365 301 24.1641C301 25.7917 300.395 27.2296 299.175 28.4478C297.955 29.676 296.536 30.2851 294.92 30.2851C293.303 30.2851 291.874 29.676 290.664 28.4478C289.444 27.2196 288.839 25.7917 288.839 24.1641C288.839 22.5365 289.444 21.0987 290.664 19.8805C291.884 18.6523 293.303 18.0432 294.92 18.0432ZM294.92 0.0698242C296.546 0.0698242 297.965 0.678922 299.175 1.9071C300.395 3.13528 301 4.56317 301 6.19076C301 7.81834 300.395 9.25621 299.175 10.4744C297.955 11.7026 296.536 12.3117 294.92 12.3117C293.303 12.3117 291.874 11.7026 290.664 10.4744C289.444 9.24623 288.839 7.81834 288.839 6.19076C288.839 4.56317 289.444 3.1253 290.664 1.9071C291.884 0.678922 293.303 0.0698242 294.92 0.0698242Z" fill="#FFF500"/>
</g>
<defs>
<clipPath id="clip0_462_558">
<rect width="301" height="54" fill="white"/>
</clipPath>
</defs>
</svg>
