<?xml version="1.0" encoding="UTF-8"?><svg id="Layer_1" xmlns="http://www.w3.org/2000/svg" viewBox="0 0 320 80"><defs><style>.cls-1{fill:#14417b;}.cls-1,.cls-2{stroke-width:0px;}.cls-2{fill:#69b9fe;}</style></defs><path class="cls-1" d="m95.44,35.18h-7.37v-5.19h20.99v5.19h-7.46v22.12h-6.16v-22.12Z"/><path class="cls-1" d="m113.59,49.36c.2,2.55,2.71,3.77,5.59,3.77,2.11,0,3.81-.28,5.47-.85l.81,4.17c-2.03.85-4.5,1.26-7.17,1.26-6.73,0-10.58-3.89-10.58-10.09,0-5.02,3.16-10.58,10.01-10.58,6.4,0,8.83,4.98,8.83,9.89,0,1.05-.12,1.99-.2,2.43h-12.76Zm7.25-4.21c0-1.5-.65-4.01-3.44-4.01-2.63,0-3.69,2.39-3.85,4.01h7.29Z"/><path class="cls-1" d="m130.25,44.02c0-2.92-.04-4.82-.16-6.52h5.27l.24,3.69h.16c1.01-2.92,3.4-4.13,5.35-4.13.57,0,.85.04,1.3.12v5.79c-.49-.08-.97-.16-1.66-.16-2.27,0-3.81,1.17-4.21,3.12-.08.41-.12.85-.12,1.38v10.01h-6.16v-13.29Z"/><path class="cls-1" d="m145.64,43.81c0-2.47-.08-4.54-.16-6.32h5.23l.24,2.72h.12c.85-1.3,2.63-3.16,6-3.16,2.59,0,4.58,1.34,5.43,3.4h.08c.77-1.05,1.62-1.86,2.59-2.43,1.09-.61,2.31-.97,3.77-.97,3.81,0,6.69,2.67,6.69,8.59v11.67h-6v-10.74c0-2.88-.93-4.54-2.92-4.54-1.46,0-2.43.97-2.88,2.15-.12.45-.2,1.05-.2,1.54v11.59h-6v-11.1c0-2.47-.89-4.17-2.88-4.17-1.58,0-2.51,1.22-2.88,2.19-.2.49-.24,1.05-.24,1.58v11.51h-6v-13.49Z"/><path class="cls-1" d="m180.98,44.1c0-2.51-.04-4.54-.16-6.4h3.2l.2,3.36h.08c1.42-2.43,3.77-3.81,6.93-3.81,4.78,0,8.35,4.01,8.35,9.97,0,7.05-4.34,10.54-8.91,10.54-2.63,0-4.86-1.13-6.04-3.08h-.08v10.66h-3.57v-21.23Zm3.57,5.23c0,.49.04,1.01.16,1.46.61,2.47,2.8,4.17,5.31,4.17,3.77,0,5.96-3.08,5.96-7.58,0-3.93-2.03-7.29-5.79-7.29-2.43,0-4.74,1.7-5.43,4.42-.08.45-.2.97-.2,1.42v3.4Z"/><path class="cls-1" d="m212.01,57.75c-5.27,0-9.4-3.89-9.4-10.09,0-6.56,4.34-10.41,9.73-10.41s9.44,4.09,9.44,10.05c0,7.29-5.07,10.45-9.73,10.45h-.04Zm.16-2.67c3.4,0,5.96-3.2,5.96-7.66,0-3.32-1.66-7.5-5.88-7.5s-6,3.89-6,7.62c0,4.3,2.43,7.54,5.88,7.54h.04Z"/><path class="cls-1" d="m226.28,43.81c0-2.31-.04-4.3-.16-6.12h3.12l.16,3.85h.12c.89-2.63,3.08-4.3,5.47-4.3.36,0,.65.04.97.08v3.36c-.36-.04-.73-.08-1.22-.08-2.51,0-4.3,1.9-4.78,4.54-.08.53-.12,1.09-.12,1.66v10.49h-3.57v-13.49Z"/><path class="cls-1" d="m244.79,32.99v4.7h5.11v2.72h-5.11v10.54c0,2.43.69,3.81,2.67,3.81.97,0,1.54-.08,2.07-.24l.16,2.71c-.69.24-1.78.49-3.16.49-1.66,0-3-.57-3.85-1.5-.97-1.09-1.38-2.84-1.38-5.15v-10.66h-3.04v-2.72h3.04v-3.61l3.48-1.09Z"/><path class="cls-1" d="m267.73,52.61c0,1.7.08,3.36.28,4.7h-3.2l-.32-2.47h-.12c-1.05,1.54-3.2,2.92-6,2.92-3.97,0-6-2.8-6-5.63,0-4.74,4.21-7.33,11.79-7.29v-.41c0-1.62-.45-4.58-4.46-4.54-1.86,0-3.77.53-5.15,1.46l-.81-2.39c1.62-1.01,4.01-1.7,6.48-1.7,6.04,0,7.5,4.09,7.5,8.02v7.33Zm-3.48-5.31c-3.89-.08-8.31.61-8.31,4.42,0,2.35,1.54,3.4,3.32,3.4,2.59,0,4.25-1.62,4.82-3.28.12-.36.16-.77.16-1.13v-3.4Z"/><path class="cls-1" d="m273.44,28.54h3.57v28.77h-3.57v-28.77Z"/><path class="cls-1" d="m285.03,48.15c.08,4.78,3.12,6.77,6.69,6.77,2.55,0,4.13-.45,5.43-1.01l.65,2.55c-1.26.57-3.44,1.26-6.56,1.26-6,0-9.64-4.01-9.64-9.89s3.53-10.58,9.24-10.58c6.4,0,8.06,5.63,8.06,9.24,0,.73-.04,1.26-.12,1.66h-13.74Zm10.41-2.55c.04-2.27-.93-5.79-4.9-5.79-3.65,0-5.19,3.32-5.47,5.79h10.37Z"/><path class="cls-1" d="m303.31,43c0-2.07-.04-3.69-.16-5.31h3.16l.2,3.2h.08c.97-1.82,3.24-3.65,6.48-3.65,2.71,0,6.93,1.62,6.93,8.35v11.71h-3.57v-11.31c0-3.16-1.18-5.84-4.54-5.84-2.31,0-4.13,1.66-4.78,3.65-.16.45-.24,1.09-.24,1.66v11.83h-3.57v-14.3Z"/><path class="cls-2" d="m63.07,22.8c0,2.51-.43,4.92-1.22,7.16-1.08,3.06-2.83,5.81-5.08,8.06-3.89,3.89-9.27,6.3-15.21,6.3h-17.81V1.28h17.81c9.36,0,17.33,5.98,20.29,14.33.8,2.25,1.23,4.67,1.23,7.19Z"/><path class="cls-1" d="m63.07,22.8c0-2.52-.43-4.94-1.23-7.19H0v14.34h23.75v48.77h14.19V29.95h23.92c.79-2.24,1.22-4.65,1.22-7.16Z"/></svg>