<?xml version="1.0" encoding="UTF-8"?><svg id="Layer_1" xmlns="http://www.w3.org/2000/svg" viewBox="0 0 1161.69 317.22"><defs><style>.cls-1{fill:#14417b;stroke-width:0px;}</style></defs><path class="cls-1" d="m112.23,107.73h-31.86v-22.41h90.69v22.41h-32.21v95.59h-26.61v-95.59Z"/><path class="cls-1" d="m190.66,169c.88,11.03,11.73,16.28,24.16,16.28,9.1,0,16.46-1.23,23.63-3.68l3.5,18.03c-8.75,3.68-19.43,5.43-30.99,5.43-29.06,0-45.69-16.81-45.69-43.59,0-21.71,13.66-45.69,43.24-45.69,27.66,0,38.16,21.53,38.16,42.72,0,4.55-.53,8.58-.88,10.5h-55.15Zm31.34-18.21c0-6.48-2.8-17.33-14.88-17.33-11.38,0-15.93,10.33-16.63,17.33h31.51Z"/><path class="cls-1" d="m262.61,145.89c0-12.6-.17-20.83-.7-28.19h22.76l1.05,15.93h.7c4.38-12.6,14.71-17.86,23.11-17.86,2.45,0,3.68.17,5.6.52v25.03c-2.1-.35-4.2-.7-7.18-.7-9.8,0-16.46,5.08-18.21,13.48-.35,1.75-.53,3.68-.53,5.95v43.24h-26.61v-57.42Z"/><path class="cls-1" d="m329.13,145.02c0-10.68-.35-19.61-.7-27.31h22.58l1.05,11.73h.53c3.68-5.6,11.38-13.66,25.91-13.66,11.2,0,19.78,5.78,23.46,14.71h.35c3.33-4.55,7-8.05,11.2-10.5,4.73-2.63,9.98-4.2,16.28-4.2,16.46,0,28.89,11.55,28.89,37.11v50.42h-25.91v-46.39c0-12.43-4.03-19.61-12.6-19.61-6.3,0-10.5,4.2-12.43,9.28-.53,1.93-.88,4.55-.88,6.65v50.07h-25.91v-47.97c0-10.68-3.85-18.03-12.43-18.03-6.83,0-10.85,5.25-12.43,9.45-.88,2.1-1.05,4.55-1.05,6.83v49.72h-25.91v-58.3Z"/><path class="cls-1" d="m481.79,146.24c0-10.86-.18-19.61-.7-27.66h13.83l.88,14.53h.35c6.13-10.5,16.28-16.46,29.94-16.46,20.66,0,36.06,17.33,36.06,43.07,0,30.46-18.73,45.52-38.51,45.52-11.38,0-21.01-4.9-26.09-13.3h-.35v46.04h-15.41v-91.73Zm15.41,22.58c0,2.1.17,4.38.7,6.3,2.63,10.68,12.08,18.03,22.93,18.03,16.28,0,25.74-13.3,25.74-32.74,0-16.98-8.75-31.51-25.03-31.51-10.5,0-20.48,7.35-23.46,19.08-.35,1.92-.88,4.2-.88,6.13v14.71Z"/><path class="cls-1" d="m615.89,205.24c-22.76,0-40.62-16.81-40.62-43.59,0-28.36,18.73-44.99,42.02-44.99s40.79,17.68,40.79,43.42c0,31.51-21.88,45.17-42.02,45.17h-.17Zm.7-11.55c14.71,0,25.74-13.83,25.74-33.09,0-14.36-7.18-32.39-25.39-32.39s-25.91,16.81-25.91,32.91c0,18.56,10.5,32.56,25.39,32.56h.17Z"/><path class="cls-1" d="m677.51,145.02c0-9.98-.18-18.56-.7-26.44h13.48l.7,16.63h.53c3.85-11.38,13.3-18.56,23.63-18.56,1.58,0,2.8.17,4.2.35v14.53c-1.58-.17-3.15-.35-5.25-.35-10.85,0-18.56,8.23-20.66,19.61-.35,2.28-.53,4.73-.53,7.18v45.34h-15.41v-58.3Z"/><path class="cls-1" d="m757.51,98.27v20.31h22.06v11.73h-22.06v45.52c0,10.51,2.98,16.46,11.55,16.46,4.2,0,6.65-.35,8.93-1.05l.7,11.73c-2.98,1.05-7.7,2.1-13.66,2.1-7.18,0-12.96-2.45-16.63-6.48-4.2-4.73-5.95-12.25-5.95-22.23v-46.04h-13.13v-11.73h13.13v-15.58l15.06-4.73Z"/><path class="cls-1" d="m856.6,183.01c0,7.35.35,14.53,1.23,20.31h-13.83l-1.4-10.68h-.53c-4.55,6.65-13.83,12.6-25.91,12.6-17.16,0-25.91-12.08-25.91-24.33,0-20.48,18.21-31.69,50.95-31.51v-1.75c0-7-1.93-19.78-19.26-19.61-8.05,0-16.28,2.28-22.23,6.3l-3.5-10.33c7-4.38,17.33-7.35,28.01-7.35,26.09,0,32.39,17.68,32.39,34.66v31.69Zm-15.06-22.93c-16.81-.35-35.89,2.63-35.89,19.08,0,10.15,6.65,14.71,14.36,14.71,11.2,0,18.38-7,20.83-14.18.53-1.57.7-3.33.7-4.9v-14.71Z"/><path class="cls-1" d="m881.28,79.02h15.41v124.3h-15.41v-124.3Z"/><path class="cls-1" d="m931.35,163.75c.35,20.66,13.48,29.24,28.89,29.24,11.03,0,17.86-1.92,23.46-4.38l2.8,11.03c-5.43,2.45-14.88,5.43-28.36,5.43-25.91,0-41.67-17.33-41.67-42.72s15.23-45.69,39.92-45.69c27.66,0,34.84,24.33,34.84,39.92,0,3.15-.18,5.43-.53,7.18h-59.35Zm44.99-11.03c.17-9.8-4.03-25.04-21.18-25.04-15.76,0-22.41,14.36-23.63,25.04h44.82Z"/><path class="cls-1" d="m1010.3,141.52c0-8.93-.18-15.93-.7-22.94h13.66l.88,13.83h.35c4.2-7.88,14.01-15.76,28.01-15.76,11.73,0,29.94,7,29.94,36.06v50.59h-15.41v-48.84c0-13.66-5.08-25.21-19.61-25.21-9.98,0-17.86,7.18-20.66,15.76-.7,1.92-1.05,4.73-1.05,7.18v51.12h-15.41v-61.8Z"/></svg>