<?xml version="1.0" encoding="UTF-8" standalone="no"?>
<!-- Created with Inkscape (http://www.inkscape.org/) -->

<svg
   width="256"
   height="256"
   viewBox="0 0 67.733332 67.733336"
   version="1.1"
   id="svg8"
   inkscape:version="1.3 (0e150ed6c4, 2023-07-21)"
   sodipodi:docname="logo2.svg"
   inkscape:export-filename="..\public\logo.png"
   inkscape:export-xdpi="384.00003"
   inkscape:export-ydpi="384.00003"
   xml:space="preserve"
   xmlns:inkscape="http://www.inkscape.org/namespaces/inkscape"
   xmlns:sodipodi="http://sodipodi.sourceforge.net/DTD/sodipodi-0.dtd"
   xmlns:xlink="http://www.w3.org/1999/xlink"
   xmlns="http://www.w3.org/2000/svg"
   xmlns:svg="http://www.w3.org/2000/svg"
   xmlns:rdf="http://www.w3.org/1999/02/22-rdf-syntax-ns#"
   xmlns:cc="http://creativecommons.org/ns#"
   xmlns:dc="http://purl.org/dc/elements/1.1/"><defs
     id="defs2"><linearGradient
       inkscape:collect="always"
       id="linearGradient4545"><stop
         style="stop-color:#560027;stop-opacity:1;"
         offset="0"
         id="stop4541" /><stop
         style="stop-color:#560027;stop-opacity:0;"
         offset="1"
         id="stop4543" /></linearGradient><linearGradient
       inkscape:collect="always"
       xlink:href="#linearGradient4545"
       id="linearGradient4547"
       x1="9.9130554"
       y1="277.94998"
       x2="28.186945"
       y2="277.94998"
       gradientUnits="userSpaceOnUse" /></defs><sodipodi:namedview
     id="base"
     pagecolor="#560027"
     bordercolor="#666666"
     borderopacity="1.0"
     inkscape:pageopacity="1"
     inkscape:pageshadow="2"
     inkscape:zoom="2.8284271"
     inkscape:cx="178.72124"
     inkscape:cy="122.50625"
     inkscape:document-units="mm"
     inkscape:current-layer="layer1"
     showgrid="false"
     units="px"
     inkscape:window-width="2560"
     inkscape:window-height="1377"
     inkscape:window-x="1912"
     inkscape:window-y="-8"
     inkscape:window-maximized="1"
     inkscape:pagecheckerboard="false"
     inkscape:showpageshadow="2"
     inkscape:deskcolor="#d1d1d1"
     inkscape:export-bgcolor="#560027ff"><inkscape:grid
       id="grid1"
       units="px"
       originx="0"
       originy="0"
       spacingx="0.26458333"
       spacingy="0.26458334"
       empcolor="#0099e5"
       empopacity="0.30196078"
       color="#0099e5"
       opacity="0.14901961"
       empspacing="5"
       dotted="false"
       gridanglex="30"
       gridanglez="30"
       visible="false" /></sodipodi:namedview><metadata
     id="metadata5"><rdf:RDF><cc:Work
         rdf:about=""><dc:format>image/svg+xml</dc:format><dc:type
           rdf:resource="http://purl.org/dc/dcmitype/StillImage" /></cc:Work></rdf:RDF></metadata><g
     inkscape:label="Layer 1"
     inkscape:groupmode="layer"
     id="layer1"
     transform="translate(0,-280.06665)"><text
       xml:space="preserve"
       style="font-style:normal;font-weight:normal;font-size:6.35px;line-height:1.25;font-family:sans-serif;letter-spacing:0px;word-spacing:0px;fill:#ffffff;fill-opacity:1;stroke:none;stroke-width:0.535779"
       x="8.0729666"
       y="314.39899"
       id="text3715"><tspan
         sodipodi:role="line"
         x="8.0729666"
         y="314.39899"
         style="font-style:normal;font-variant:normal;font-weight:normal;font-stretch:normal;font-size:6.35px;font-family:'Inria Serif';-inkscape-font-specification:'Inria Serif';fill:#ffffff;fill-opacity:1;stroke-width:0.535779"
         id="tspan21">ordbøkene.no</tspan></text><g
       transform="matrix(0.00767288,0,0,-0.00767287,35.983082,323.80202)"
       id="g12"><path
         id="path14"
         style="fill:#ffffff;fill-opacity:1;fill-rule:nonzero;stroke:none"
         d="m 143.988,508.766 c 79.996,0 134.391,-54.399 134.391,-127.993 h -73.594 c 0,35.2 -22.398,57.594 -60.797,57.594 -38.39,0 -60.7927,-22.394 -60.7927,-44.797 0,-70.39 207.9887,-31.996 207.9887,-179.183 0,-57.602 -57.598,-115.1917 -147.196,-115.1917 C 54.3945,99.1953 0,153.59 0,230.383 h 76.7969 c 0,-35.195 25.5981,-60.793 67.1911,-60.793 44.801,0 67.2,22.398 67.2,47.992 0,73.594 -207.98487,35.199 -207.98487,175.348 0,61.437 54.39457,115.836 140.78487,115.836" /><path
         id="path16"
         style="fill:#ffffff;fill-opacity:1;fill-rule:nonzero;stroke:none"
         d="m 486.383,169.59 c 41.597,0 73.594,31.996 73.594,79.988 0,48 -31.997,79.996 -73.594,79.996 -41.598,0 -73.594,-31.996 -73.594,-79.996 0,-47.992 31.996,-79.988 73.594,-79.988 z m 147.191,79.988 c 0,-86.39 -64,-150.3827 -137.594,-150.3827 -47.996,0 -76.792,28.7927 -76.792,28.7927 V 0 H 345.59 v 396.773 h 54.398 l 12.801,-28.8 c 0,0 31.996,32 83.191,32 73.594,0 137.594,-63.996 137.594,-150.395" /><path
         id="path18"
         style="fill:#ffffff;fill-opacity:1;fill-rule:nonzero;stroke:none"
         d="m 847.973,396.773 v -76.796 c 0,0 -9.598,3.203 -25.594,3.203 -35.199,0 -60.797,-25.602 -60.797,-64 V 102.395 h -73.598 v 294.378 h 54.399 l 12.797,-31.996 c 0,0 25.601,35.196 70.394,35.196 12.801,0 22.399,-3.2 22.399,-3.2" /><path
         id="path20"
         style="fill:#ffffff;fill-opacity:1;fill-rule:nonzero;stroke:none"
         d="m 1014.38,505.563 c -12.8,0 -22.4,-9.602 -22.4,-22.399 0,-12.797 9.6,-22.398 22.4,-22.398 12.8,0 22.4,9.601 22.4,22.398 0,12.797 -9.6,22.399 -22.4,22.399 z m 41.6,-287.981 v 12.801 c -86.394,0 -102.394,-15.996 -102.394,-41.598 0,-15.996 16,-32 38.394,-32 38.4,0 64,25.602 64,60.797 z m -41.6,207.988 c -35.196,0 -60.794,25.598 -60.794,57.594 0,31.996 25.598,57.598 60.794,57.598 35.2,0 60.8,-25.602 60.8,-57.598 0,-31.996 -25.6,-57.594 -60.8,-57.594 z m 115.2,-140.789 V 102.395 h -54.4 l -12.8,28.796 c 0,0 -32,-31.9957 -83.196,-31.9957 -63.993,0 -99.196,35.1957 -99.196,83.1917 0,57.593 41.598,99.195 175.992,99.195 0,31.996 -19.2,51.191 -48,51.191 -38.394,0 -44.796,-31.996 -44.796,-31.996 H 889.59 c 6.402,54.399 51.195,99.196 124.79,99.196 67.2,0 115.2,-48 115.2,-115.192" /><path
         id="path22"
         style="fill:#ffffff;fill-opacity:1;fill-rule:nonzero;stroke:none"
         d="M 1372.77,102.395 1270.38,236.781 V 102.395 h -73.6 v 403.168 h 73.6 V 275.18 l 89.59,121.593 h 83.19 L 1337.57,255.98 1455.97,102.395 h -83.2" /><path
         id="path24"
         style="fill:#ffffff;fill-opacity:1;fill-rule:nonzero;stroke:none"
         d="m 1644.78,396.773 v -76.796 c 0,0 -9.6,3.203 -25.6,3.203 -35.19,0 -60.8,-25.602 -60.8,-64 V 102.395 h -73.59 v 294.378 h 54.39 l 12.81,-31.996 c 0,0 25.59,35.196 70.39,35.196 12.8,0 22.4,-3.2 22.4,-3.2" /><path
         id="path26"
         style="fill:#ffffff;fill-opacity:1;fill-rule:nonzero;stroke:none"
         d="m 1811.19,505.563 c -12.8,0 -22.4,-9.602 -22.4,-22.399 0,-12.797 9.6,-22.398 22.4,-22.398 12.8,0 22.4,9.601 22.4,22.398 0,12.797 -9.6,22.399 -22.4,22.399 z m 41.6,-287.981 v 12.801 c -86.4,0 -102.39,-15.996 -102.39,-41.598 0,-15.996 15.99,-32 38.39,-32 38.39,0 64,25.602 64,60.797 z m -41.6,207.988 c -35.2,0 -60.79,25.598 -60.79,57.594 0,31.996 25.59,57.598 60.79,57.598 35.19,0 60.8,-25.602 60.8,-57.598 0,-31.996 -25.61,-57.594 -60.8,-57.594 z M 1926.38,284.781 V 102.395 h -54.39 l -12.81,28.796 c 0,0 -32,-31.9957 -83.19,-31.9957 -63.99,0 -99.19,35.1957 -99.19,83.1917 0,57.593 41.59,99.195 175.99,99.195 0,31.996 -19.2,51.191 -48,51.191 -38.4,0 -44.79,-31.996 -44.79,-31.996 h -73.6 c 6.4,54.399 51.19,99.196 124.79,99.196 67.19,0 115.19,-48 115.19,-115.192" /><path
         id="path28"
         style="fill:#ffffff;fill-opacity:1;fill-rule:nonzero;stroke:none"
         d="m 2124.78,329.574 c -41.59,0 -73.59,-31.996 -73.59,-79.996 0,-47.992 32,-79.988 73.59,-79.988 41.6,0 73.59,31.996 73.59,79.988 0,48 -31.99,79.996 -73.59,79.996 z m -147.19,-79.996 c 0,86.399 64,150.395 137.59,150.395 48,0 76.8,-28.801 76.8,-28.801 v 134.391 h 73.59 V 102.395 h -54.39 l -12.81,28.796 c 0,0 -31.99,-31.9957 -83.19,-31.9957 -73.59,0 -137.59,63.9927 -137.59,150.3827" /><path
         id="path30"
         style="fill:#ffffff;fill-opacity:1;fill-rule:nonzero;stroke:none"
         d="m 2396.78,271.984 h 140.79 c -6.4,31.996 -32,57.59 -70.4,57.59 -38.4,0 -63.99,-25.594 -70.39,-57.59 z m 201.58,-79.996 c -15.99,-44.8 -63.99,-92.7927 -131.19,-92.7927 -79.99,0 -147.18,67.1917 -147.18,150.3827 0,83.195 67.19,150.395 147.18,150.395 76.8,0 140.79,-60.797 140.79,-150.395 0,-12.797 -3.2,-28.793 -3.2,-28.793 h -204.78 c 6.4,-28.797 28.79,-51.195 67.19,-51.195 38.4,0 54.4,22.398 54.4,22.398 h 76.79" /><path
         id="path32"
         style="fill:#ffffff;fill-opacity:1;fill-rule:nonzero;stroke:none"
         d="m 2694.38,467.168 h 63.99 v -70.395 h 64 v -67.199 h -64 v -121.59 c 0,-25.597 16,-41.597 41.6,-41.597 12.8,0 19.2,3.203 19.2,3.203 v -64 c 0,0 -16,-6.3947 -35.2,-6.3947 -57.6,0 -99.19,41.5937 -99.19,105.5897 v 124.789 h -44.79 v 60.797 h 19.19 c 22.4,0 35.2,12.797 35.2,35.199 v 41.598" /><path
         id="path34"
         style="fill:#f1dc4e;fill-opacity:1;fill-rule:nonzero;stroke:none"
         d="m 2973.19,540.039 c 16.36,0 30.66,-6.117 42.93,-18.398 12.27,-12.282 18.41,-26.602 18.41,-42.938 0,-16.375 -6.14,-30.68 -18.41,-42.93 -12.27,-12.281 -26.57,-18.402 -42.93,-18.402 -16.35,0 -30.67,6.121 -42.94,18.402 -12.28,12.25 -18.41,26.555 -18.41,42.93 0,16.336 6.13,30.656 18.41,42.938 12.27,12.281 26.59,18.398 42.94,18.398 z m 0,-179.945 c 16.36,0 30.66,-6.125 42.93,-18.403 12.27,-12.246 18.41,-26.558 18.41,-42.941 0,-16.34 -6.14,-30.648 -18.41,-42.93 -12.27,-12.281 -26.57,-18.398 -42.93,-18.398 -16.35,0 -30.67,6.117 -42.94,18.398 -12.28,12.282 -18.41,26.59 -18.41,42.93 0,16.383 6.13,30.695 18.41,42.941 12.27,12.278 26.59,18.403 42.94,18.403 v 0" /></g><g
       id="g10"
       transform="matrix(0.00355621,0,0,-0.00355621,7.5114367,325.75223)"><g
         id="g1"><path
           d="m 4927.05,1025.89 -0.72,-0.05 c -14.81,-0.87 -26.57,-1.34 -46.22,-1.34 -15.87,0 -30.72,0.37 -53,1.34 l -0.46,0.02 -0.43,-0.16 c -2.2,-0.83 -3.77,-2.98 -4.28,-5.91 -0.52,-2.94 0.11,-6.92 2.71,-9.15 l 0.52,-0.44 8.31,-0.99 c 16.03,-2 23.9,-4.4 26.28,-7.97 5.58,-8.799 8.66,-41.451 8.66,-91.939 V 813 c 0,-6.051 0,-12.27 -0.62,-15.512 -16.4,16.871 -33.55,36.071 -55.05,60.16 l -61,68.454 -0.41,0.449 c -44.69,50.097 -70.3,83.029 -76.11,97.869 l -0.67,1.68 -1.77,-0.28 c -5.46,-0.84 -12.89,-1.32 -20.37,-1.32 -7.88,0 -31.87,0 -50.69,1.34 l -0.61,0.05 -0.55,-0.28 c -2.08,-1.04 -3.48,-3.14 -3.93,-5.93 -0.53,-3.34 0.44,-6.93 2.44,-8.92 l 0.56,-0.55 8.4,-1 c 12.28,-1.53 21.48,-5.04 26.52,-10.081 8.68,-9.508 9.32,-18.008 9.32,-30.879 V 834.129 c 0.03,-23.68 0.08,-72.938 -5.66,-87.688 -1.71,-3.769 -7.79,-6.371 -17.99,-7.691 l -12.94,-1.449 -0.56,-0.551 c -1.75,-1.75 -2.64,-4.609 -2.38,-7.629 0.24,-3.043 1.55,-5.601 3.56,-7.039 l 0.65,-0.461 0.79,0.051 c 15.28,0.859 27.24,1.34 46.68,1.34 15.78,0 31,-0.391 52.55,-1.34 l 0.77,-0.043 0.63,0.453 c 1.86,1.316 3.09,3.438 3.48,5.969 0.47,2.988 -0.29,6.07 -2.09,8.449 l -0.6,0.801 -14.98,1.449 c -11.37,0.91 -19.08,3.602 -21.17,7.422 -5.03,8.879 -7.8,41.566 -7.8,92.027 v 98.102 c 0,9.23 0.18,19.179 1.37,25.449 6.84,-7.52 19.81,-22.852 31.39,-36.539 7.38,-8.731 14.23,-16.82 18.65,-21.891 l 104.4,-118.8 c 34.7,-39.489 51.35,-59.11 57.45,-67.758 l 0.67,-0.953 h 1.17 c 5.33,0 9.32,2.429 10.68,6.492 l 0.16,0.469 -0.06,0.5 c -0.61,5.269 -1.34,23.179 -1.34,78.492 l -0.01,113.566 c -0.08,23.16 -0.23,71.344 6.52,85.662 0.92,1.84 6.93,5.64 23.52,8.23 l 7.04,1.01 0.53,0.53 c 1.9,1.91 2.86,5.05 2.51,8.2 -0.34,2.85 -1.71,5.23 -3.81,6.55 z M 4503.54,792.531 c -3.01,0.821 -6.08,0.399 -8.18,-1.09 l -0.7,-0.832 c -10.7,-21.41 -22.88,-38.16 -30.95,-42.64 -9.84,-4.93 -23.6,-6.508 -56.59,-6.508 -39.82,0 -48.16,5 -52.8,9.641 -6.65,7.058 -7.95,21.937 -7.95,45.257 v 63.442 c 0,9.898 0,9.898 12.61,9.898 h 26.1 c 16.33,0 27.71,-0.359 34.1,-2.179 7.8,-1.95 10.56,-7.571 12.31,-15.43 l 4.05,-17.539 0.46,-0.942 c 1.99,-2.39 5.95,-2.961 8.68,-2.73 3.13,0.281 5.58,1.551 6.7,3.5 l 0.29,0.519 v 0.602 c 0,4.422 -0.34,10.09 -0.74,16.648 -0.5,8.223 -1.06,17.532 -1.06,26.551 0,9.461 0.56,19.11 1.05,27.629 0.41,6.961 0.75,12.973 0.75,17.82 v 0.602 l -0.29,0.52 c -1.12,1.949 -3.57,3.23 -6.7,3.5 -2.67,0.25 -6.69,-0.34 -8.68,-2.731 l -4.08,-19.449 c -2.18,-10.918 -5.1,-12.649 -9.31,-14.059 -4.93,-1.64 -18.61,-2.582 -37.53,-2.582 h -26.1 c -12.61,0 -12.61,0 -12.61,10.352 v 90 c 0,15.739 0,15.739 11.26,15.739 h 32.39 c 19.79,0 33.91,-0.43 43.11,-2.63 21.2,-5.301 25.63,-19.269 31.76,-38.621 l 0.84,-2.629 0.41,-0.75 c 1.42,-1.711 4.04,-2.582 7.13,-2.422 2.71,0.153 6.15,1.141 7.73,3.512 l 0.44,0.66 -0.59,6.5 c -1.8,20.031 -4.26,47.47 -6.81,54.69 l -0.67,1.93 -1.99,-0.5 c -5.13,-1.28 -33.13,-1.28 -60.21,-1.28 h -84.6 c -17.31,0 -32.17,0.37 -52.98,1.34 l -0.59,0.03 -0.53,-0.26 c -2.49,-1.24 -3.56,-4.81 -3.74,-7.73 -0.1,-1.64 -0.05,-5.64 2.6,-7.4 l 8.18,-1.27 c 24.64,-2.92 25.47,-8.11 25.47,-54.46 v -162 c 0,-47.379 -2.18,-51.918 -25.86,-54 l -15.65,-1.43 -0.58,-0.57 c -2.24,-2.25 -2.57,-6.031 -2.11,-8.82 0.47,-2.93 1.79,-5.129 3.6,-6.032 l 0.5,-0.25 0.58,0.012 c 27.04,0.918 41.88,1.352 61.11,1.352 h 40.5 c 39.7,0 80.26,-0.461 120.55,-1.352 l 1.44,-0.031 0.64,1.301 c 5.99,12.449 17.25,47.23 20.43,63.082 l 0.14,0.699 -0.29,0.66 c -1.09,2.457 -3.44,4.34 -6.44,5.16 z m -343.38,56.059 -0.68,-0.039 c -15.14,-0.922 -30.25,-1.34 -47.55,-1.34 -27.99,0 -51.99,0.5 -64.19,1.34 l -0.55,0.027 -0.5,-0.207 c -2.74,-1.172 -3.81,-4.582 -3.9,-7.383 -0.1,-3.687 1.34,-6.726 3.78,-7.949 l 20.55,-2.469 c 26.49,-2.992 27.26,-4.148 27.26,-41.41 v -18 c 0,-13.75 -2.11,-21.59 -4.15,-24.43 -3.89,-6.031 -18.44,-12.468 -47.6,-12.468 -81.89,0 -132.76,58.269 -132.76,152.09 0,93.886 63.7,127.348 123.31,127.348 51.13,0 78.91,-19.188 90.06,-62.22 l 0.16,-0.589 0.43,-0.43 c 2.41,-2.41 6.92,-2.762 10.07,-2.082 2.94,0.641 5,2.141 5.78,4.23 l 0.2,0.539 -0.08,0.582 c -4.52,30.219 -6.73,51.45 -6.73,64.92 v 2.65 l -2.62,-0.43 c -4.48,-0.75 -16.7,1.83 -24.75,3.54 l -2.26,0.48 c -6.79,1.59 -30.99,6.81 -57.67,6.81 -62.71,0 -109.91,-17.45 -144.27,-53.36 -26.51,-28.219 -41.11,-66.641 -41.11,-108.192 0,-40.359 14.54,-76.218 42.04,-103.718 32.69,-33.11 80.71,-50.621 138.85,-50.621 26.98,0 60.57,6.339 81.12,11.769 7.04,1.852 15.84,3.981 21.47,3.981 h 0.74 l 0.61,0.453 c 1.33,1 2.17,2.558 2.3,4.269 0.12,1.699 -0.48,3.391 -1.61,4.52 l -0.77,0.5 c -6.48,2.519 -9.37,11.73 -9.37,29.859 v 25.199 c 0,23.223 0.71,33.582 17.39,35.563 l 7.86,0.988 0.52,0.43 c 2.09,1.801 3.2,4.98 2.88,8.308 -0.28,2.981 -1.65,5.454 -3.69,6.614 z m -569.29,41.359 c 0,-6.32 0,-12.289 0.91,-13.488 0.86,-0.449 6.91,-1.359 29.25,-1.359 14.04,0 31.85,1.277 44.99,11.238 14.53,11.308 21.61,28.988 21.61,54.012 0,30.929 -18.27,67.048 -69.76,67.048 -27,0 -27,-1.38 -27,-12.15 z m 211.56,-163.34 c 0.33,-2.211 -0.53,-4.429 -2.25,-5.8 l -0.7,-0.387 c -4.52,-1.5 -12,-2.363 -20.51,-2.363 -41.22,0 -64.3,14.011 -94.98,57.652 -5.92,8.418 -13.45,20.328 -21.41,32.937 -7.76,12.293 -15.8,25 -22.71,35.032 -6.08,8.91 -12.4,13.422 -30.09,13.422 -18.91,0 -18.91,0 -18.91,-7.653 V 792.75 c 0,-48.191 1.17,-50.719 25.06,-54.012 l 10.1,-1.449 0.49,-0.41 c 1.88,-1.559 2.76,-4.629 2.34,-8.199 -0.38,-3.282 -1.76,-5.821 -3.67,-6.782 l -0.52,-0.257 -0.59,0.031 c -21.82,0.957 -36.81,1.34 -53.45,1.34 -17.62,0 -33.36,-0.383 -56.15,-1.34 l -0.58,-0.031 -0.52,0.257 c -1.73,0.864 -2.98,2.801 -3.51,5.454 -0.57,2.75 -0.36,6.628 1.9,9.269 l 0.57,0.668 12.12,1.461 c 23.62,2.84 25.02,5.871 25.02,54 v 161.551 c 0,43.73 -1.67,48.439 -17.82,50.419 l -15.44,2.19 c -2.22,1.6 -3.48,4.86 -3.21,8.32 0.25,3.12 1.73,5.66 3.96,6.78 l 0.82,0.23 c 27.58,2.46 59.54,3.61 100.54,3.61 25.16,0 53.89,-1.64 76.22,-13.77 17.55,-9.15 38.52,-27.869 38.52,-64.978 0,-49.473 -42.76,-71.141 -57,-76.973 -0.45,-1.039 -0.2,-3.219 2.66,-7.777 34.12,-55.032 58.82,-93.043 89.98,-119.172 7.79,-6.86 18.63,-11.25 29.78,-12.078 l 0.67,-0.153 c 1.75,-0.699 2.97,-2.328 3.27,-4.34 z m -393.96,65.922 c -3.01,0.821 -6.08,0.399 -8.18,-1.09 l -0.7,-0.832 c -10.7,-21.41 -22.88,-38.16 -30.95,-42.64 -9.84,-4.93 -23.6,-6.508 -56.59,-6.508 -39.82,0 -48.16,5 -52.8,9.641 -6.64,7.058 -7.95,21.937 -7.95,45.257 v 63.442 c 0,9.898 0,9.898 12.61,9.898 h 26.1 c 16.33,0 27.73,-0.359 34.1,-2.179 7.81,-1.95 10.56,-7.571 12.31,-15.43 l 4.05,-17.539 0.46,-0.942 c 1.98,-2.39 5.93,-2.961 8.68,-2.73 3.14,0.281 5.58,1.551 6.7,3.5 l 0.29,0.519 v 0.602 c 0,4.422 -0.34,10.09 -0.74,16.648 -0.5,8.223 -1.06,17.532 -1.06,26.551 0,9.461 0.56,19.11 1.05,27.629 0.41,6.961 0.75,12.973 0.75,17.82 v 0.602 l -0.29,0.52 c -1.12,1.949 -3.56,3.23 -6.7,3.5 -2.69,0.25 -6.69,-0.34 -8.68,-2.731 l -4.08,-19.449 c -2.18,-10.918 -5.1,-12.649 -9.31,-14.059 -4.93,-1.64 -18.61,-2.582 -37.53,-2.582 h -26.1 c -12.61,0 -12.61,0 -12.61,10.352 v 90 c 0,15.739 0,15.739 11.26,15.739 h 32.39 c 19.79,0 33.91,-0.43 43.11,-2.63 21.2,-5.301 25.63,-19.269 31.77,-38.621 l 0.83,-2.629 0.42,-0.75 c 1.41,-1.711 4.05,-2.582 7.12,-2.422 2.71,0.153 6.15,1.141 7.73,3.512 l 0.44,0.66 -0.59,6.5 c -1.79,20.031 -4.25,47.47 -6.8,54.69 l -0.68,1.93 -1.99,-0.5 c -5.13,-1.28 -33.12,-1.28 -60.2,-1.28 h -84.6 c -17.33,0 -32.19,0.37 -52.99,1.34 l -0.59,0.03 -0.53,-0.26 c -2.49,-1.24 -3.56,-4.81 -3.74,-7.73 -0.09,-1.64 -0.04,-5.64 2.6,-7.4 l 8.19,-1.27 c 24.63,-2.92 25.46,-8.11 25.46,-54.46 v -162 c 0,-47.379 -2.17,-51.918 -25.86,-54 l -15.65,-1.43 -0.58,-0.57 c -2.24,-2.25 -2.56,-6.031 -2.11,-8.82 0.47,-2.93 1.79,-5.129 3.6,-6.032 l 0.51,-0.25 0.57,0.012 c 27.03,0.918 41.88,1.352 61.12,1.352 H 3272 c 39.7,0 80.26,-0.461 120.55,-1.352 l 1.45,-0.031 0.63,1.301 c 5.99,12.449 17.26,47.23 20.43,63.082 l 0.14,0.699 -0.29,0.66 c -1.09,2.457 -3.44,4.34 -6.44,5.16 z m -403.94,156.367 c 0,54.282 -49.6,58.502 -64.8,58.502 -9.39,0 -16.04,-0.85 -19.8,-2.51 -3.26,-1 -4.96,-1.89 -4.96,-9.64 v -91.352 c 0,-4.75 0.07,-7.726 1.35,-8.957 2.01,-1.929 9.11,-1.793 19.72,-1.39 49.28,1.929 68.49,17.449 68.49,55.347 z m 21.59,-148.046 c 0,27.898 -11.34,74.699 -87.29,74.699 -23.86,0 -23.86,-2.571 -23.86,-9.449 v -66.59 c 0,-16 0.93,-38.332 8.91,-47.582 6.77,-8.192 17.2,-11.821 33.85,-11.821 25.54,0 68.39,7.891 68.39,60.743 z m 45.45,10.359 c 0,-56.91 -44.44,-89.551 -121.94,-89.551 -5.96,0 -13.88,0.281 -22.26,0.578 -10.06,0.364 -21.46,0.774 -31.74,0.774 -13.44,0 -24.88,-0.422 -35.94,-0.821 -5.24,-0.191 -10.43,-0.382 -15.75,-0.531 l -0.56,-0.012 -0.51,0.25 c -1.8,0.903 -3.11,3.102 -3.59,6.032 -0.45,2.789 -0.14,6.57 2.11,8.82 l 0.51,0.512 8.81,1.468 c 21.8,3.7 22.88,6.219 22.88,54.02 v 171 c 0,33.129 -1.61,39.77 -20,41.41 l -15.04,1.4 -0.51,0.38 c -2.37,1.78 -3.65,4.96 -3.35,8.31 0.28,3.08 1.83,5.6 4.14,6.76 l 0.8,0.23 c 26.24,2.43 57.96,3.61 96.95,3.61 23.97,0 54.34,-1.46 76.62,-12.85 22.84,-11.15 35.42,-31.84 35.42,-58.25 0,-35.922 -22.85,-52.102 -45.7,-62.988 0.5,-1.422 2.1,-2.391 6.51,-3.203 21.5,-3.977 62.14,-25.27 62.14,-77.348 z m -553.32,197.989 11.84,0.95 0.48,0.32 c 1.87,1.24 2.82,3.93 2.62,7.39 -0.19,2.93 -1.26,6.5 -3.75,7.75 l -0.52,0.26 -0.58,-0.03 c -21.31,-0.85 -37.25,-1.34 -55.71,-1.34 -19.31,0 -34.79,0.47 -56.61,1.34 l -0.58,0.03 -0.52,-0.26 c -2.49,-1.24 -3.56,-4.81 -3.74,-7.73 -0.09,-1.64 -0.05,-5.64 2.6,-7.4 l 0.49,-0.33 11.83,-0.95 c 24.56,-2.08 25.39,-7.41 25.39,-55.348 V 793.66 c 0,-47.5 -0.72,-51.98 -25.48,-54.91 l -12.02,-1.461 -0.55,-0.539 c -2.25,-2.25 -2.56,-6.031 -2.11,-8.82 0.48,-2.93 1.79,-5.129 3.59,-6.032 l 0.52,-0.257 0.58,0.031 c 21.86,0.859 37.35,1.34 56.61,1.34 18.5,0 33.85,-0.481 55.71,-1.34 l 0.58,-0.031 0.52,0.257 c 2.49,1.243 3.56,4.813 3.75,7.743 0.2,3.461 -0.75,6.148 -2.62,7.39 l -12.23,1.719 c -24.75,2.93 -25.47,7.41 -25.47,54.91 v 160.192 c 0,47.938 0.83,53.268 25.38,55.348 z m 4297.67,544.53 -0.38,0.77 c -1.66,3.34 -8.12,3.57 -10.95,2.44 l -0.73,-0.29 -0.39,-0.68 c -6.06,-10.51 -8.85,-11.47 -33.15,-11.47 h -184.06 c -0.23,0 -0.47,0 -0.7,0 -20.54,0 -31.37,0.65 -33.52,12.11 l -0.12,0.69 -0.49,0.49 c -2.3,2.3 -9.34,1.64 -11.39,0.28 l -0.8,-0.53 -0.17,-0.95 c -3.13,-17.91 -9.79,-46.41 -17,-66.69 l -0.32,-0.9 0.43,-0.86 c 1.24,-2.49 4.01,-4.51 7.23,-5.27 2.94,-0.69 5.78,-0.21 7.83,1.33 l 0.48,0.35 0.23,0.55 c 4.63,10.53 9,20.47 19.71,30.29 10.2,9.39 32.94,10.66 53.83,10.66 h 24.74 c 11.25,0 11.25,0 11.25,-12.15 v -201.15 c 0,-47.38 -2.18,-51.92 -25.83,-54 l -16.2,-1.35 -1,-0.33 c -2.32,-1.44 -3.6,-4.43 -3.42,-7.98 0.12,-2.67 1.14,-5.96 3.6,-7.19 l 0.51,-0.25 0.56,0.01 c 27.57,0.86 44.07,1.35 62.49,1.35 17.48,0 32.28,-0.42 58.86,-1.35 l 0.58,-0.02 0.51,0.26 c 2.48,1.24 3.55,4.8 3.74,7.72 0.1,1.64 0.05,5.64 -2.6,7.41 l -15.46,1.72 c -24.13,2.08 -24.94,7.29 -24.94,54 v 201.64 c 0,5.69 -0.01,9.45 1.08,10.55 1.04,1.03 4.37,1.11 9.72,1.11 h 31.95 c 24.39,0 41.02,-3.54 50.87,-10.82 4.58,-3.35 8.35,-14.77 10.34,-31.3 l 0.08,-0.66 0.43,-0.51 c 2.04,-2.46 5.95,-3 8.74,-2.65 3.18,0.36 5.62,1.82 6.7,3.98 l 0.29,0.58 -0.06,0.65 c -1.3,12.99 1.81,49.47 6.68,67.59 z m -380.1,-241.2 c -3,0.81 -6.07,0.41 -8.17,-1.09 l -0.7,-0.83 c -10.71,-21.41 -22.89,-38.16 -30.95,-42.64 -9.85,-4.93 -23.61,-6.51 -56.59,-6.51 -39.83,0 -48.17,5 -52.81,9.64 -6.65,7.06 -7.95,21.94 -7.95,45.26 v 63.44 c 0,9.9 0,9.9 12.61,9.9 h 26.11 c 16.32,0 27.71,-0.36 34.1,-2.18 7.8,-1.95 10.55,-7.57 12.3,-15.43 l 4.05,-17.54 0.46,-0.94 c 2,-2.4 5.93,-2.97 8.68,-2.73 3.14,0.28 5.58,1.55 6.7,3.51 l 0.3,0.51 v 0.6 c 0,4.42 -0.34,10.09 -0.75,16.65 -0.49,8.22 -1.06,17.53 -1.06,26.55 0,9.46 0.57,19.11 1.05,27.63 0.42,6.96 0.76,12.97 0.76,17.82 v 0.6 l -0.3,0.52 c -1.12,1.95 -3.56,3.23 -6.7,3.5 -2.69,0.25 -6.68,-0.33 -8.68,-2.73 l -4.08,-19.45 c -2.18,-10.91 -5.1,-12.65 -9.31,-14.05 -4.93,-1.65 -18.61,-2.59 -37.52,-2.59 h -26.11 c -12.61,0 -12.61,0 -12.61,10.35 v 90 c 0,15.75 0,15.75 11.26,15.75 h 32.4 c 19.78,0 33.9,-0.44 43.1,-2.64 21.2,-5.3 25.64,-19.27 31.77,-38.62 l 0.84,-2.63 0.41,-0.75 c 1.42,-1.71 4.04,-2.61 7.13,-2.42 2.7,0.15 6.14,1.14 7.72,3.51 l 0.44,0.66 -0.58,6.5 c -1.8,20.03 -4.26,47.47 -6.81,54.69 l -0.67,1.93 -2,-0.5 c -5.12,-1.28 -33.12,-1.28 -60.2,-1.28 h -84.6 c -17.32,0 -32.18,0.38 -52.99,1.34 l -0.58,0.04 -0.53,-0.27 c -2.49,-1.25 -3.57,-4.81 -3.74,-7.73 -0.1,-1.64 -0.05,-5.64 2.6,-7.4 l 8.18,-1.27 c 24.64,-2.92 25.47,-8.11 25.47,-54.46 v -162 c 0,-47.38 -2.18,-51.92 -25.86,-54 l -15.66,-1.43 -0.57,-0.57 c -2.25,-2.25 -2.57,-6.03 -2.11,-8.82 0.47,-2.93 1.79,-5.13 3.59,-6.03 l 0.51,-0.25 0.58,0.01 c 27.04,0.92 41.87,1.35 61.11,1.35 h 40.5 c 39.69,0 80.25,-0.46 120.54,-1.35 l 1.45,-0.03 0.63,1.3 c 5.99,12.45 17.26,47.23 20.43,63.08 l 0.14,0.7 -0.28,0.66 c -1.1,2.46 -3.45,4.34 -6.45,5.16 z m -348.62,244.41 -0.73,-0.29 -0.39,-0.68 c -6.06,-10.51 -8.85,-11.47 -33.15,-11.47 h -184.06 c -0.24,0 -0.47,0 -0.7,0 -20.54,0 -31.37,0.65 -33.52,12.11 l -0.13,0.69 -0.48,0.49 c -2.3,2.3 -9.34,1.64 -11.39,0.28 l -0.8,-0.53 -0.17,-0.95 c -3.13,-17.91 -9.79,-46.41 -17,-66.69 l -0.32,-0.9 0.43,-0.86 c 1.24,-2.49 4.01,-4.51 7.22,-5.27 2.95,-0.69 5.79,-0.21 7.84,1.33 l 0.47,0.35 0.24,0.55 c 4.63,10.53 8.99,20.47 19.71,30.29 10.2,9.39 32.93,10.66 53.82,10.66 h 24.75 c 11.25,0 11.25,0 11.25,-12.15 v -201.15 c 0,-47.38 -2.18,-51.92 -25.84,-54 l -16.19,-1.35 -1.01,-0.33 c -2.31,-1.44 -3.59,-4.43 -3.42,-7.98 0.13,-2.67 1.15,-5.96 3.61,-7.19 l 0.51,-0.25 0.56,0.01 c 27.57,0.86 44.06,1.35 62.48,1.35 17.48,0 32.29,-0.42 58.87,-1.35 l 0.58,-0.02 0.5,0.26 c 2.48,1.24 3.56,4.8 3.74,7.72 0.11,1.64 0.05,5.64 -2.59,7.41 l -15.46,1.72 c -24.13,2.08 -24.94,7.29 -24.94,54 v 201.64 c 0,5.69 -0.01,9.45 1.08,10.55 1.04,1.03 4.37,1.11 9.72,1.11 h 31.95 c 24.38,0 41.02,-3.54 50.87,-10.82 4.58,-3.35 8.35,-14.77 10.34,-31.3 l 0.08,-0.66 0.43,-0.51 c 2.04,-2.46 5.98,-3 8.74,-2.65 3.17,0.36 5.61,1.82 6.7,3.98 l 0.29,0.58 -0.07,0.65 c -1.3,12.99 1.82,49.47 6.69,67.59 l 0.22,0.82 -0.38,0.77 c -1.66,3.34 -8.11,3.57 -10.95,2.44 z m -368.76,-244.41 c -3.01,0.81 -6.07,0.41 -8.17,-1.09 l -0.71,-0.83 c -10.7,-21.41 -22.88,-38.16 -30.94,-42.64 -9.85,-4.93 -23.61,-6.51 -56.6,-6.51 -39.82,0 -48.16,5 -52.8,9.64 -6.65,7.06 -7.95,21.94 -7.95,45.26 v 63.44 c 0,9.9 0,9.9 12.61,9.9 h 26.1 c 16.33,0 27.72,-0.36 34.1,-2.18 7.81,-1.95 10.56,-7.57 12.31,-15.43 l 4.05,-17.54 0.46,-0.94 c 1.98,-2.4 5.92,-2.97 8.68,-2.73 3.14,0.28 5.58,1.55 6.7,3.51 l 0.29,0.51 v 0.6 c 0,4.42 -0.34,10.09 -0.74,16.65 -0.5,8.22 -1.06,17.53 -1.06,26.55 0,9.46 0.56,19.11 1.05,27.63 0.41,6.96 0.75,12.97 0.75,17.82 v 0.6 l -0.29,0.52 c -1.12,1.95 -3.56,3.23 -6.7,3.5 -2.71,0.25 -6.69,-0.33 -8.68,-2.73 l -4.08,-19.45 c -2.18,-10.91 -5.1,-12.65 -9.31,-14.05 -4.93,-1.65 -18.61,-2.59 -37.53,-2.59 h -26.1 c -12.61,0 -12.61,0 -12.61,10.35 v 90 c 0,15.75 0,15.75 11.26,15.75 h 32.39 c 19.79,0 33.91,-0.44 43.11,-2.64 21.2,-5.3 25.63,-19.27 31.77,-38.62 l 0.84,-2.63 0.41,-0.75 c 1.42,-1.71 4.06,-2.61 7.13,-2.42 2.7,0.15 6.14,1.14 7.72,3.51 l 0.44,0.66 -0.59,6.5 c -1.79,20.03 -4.25,47.47 -6.8,54.69 l -0.68,1.93 -1.99,-0.5 c -5.13,-1.28 -33.12,-1.28 -60.2,-1.28 h -84.6 c -17.32,0 -32.18,0.38 -52.99,1.34 l -0.59,0.04 -0.53,-0.27 c -2.49,-1.25 -3.56,-4.81 -3.74,-7.73 -0.09,-1.64 -0.04,-5.64 2.6,-7.4 l 8.19,-1.27 c 24.63,-2.92 25.46,-8.11 25.46,-54.46 v -162 c 0,-47.38 -2.17,-51.92 -25.85,-54 l -15.66,-1.43 -0.58,-0.57 c -2.24,-2.25 -2.56,-6.03 -2.1,-8.82 0.46,-2.93 1.78,-5.13 3.59,-6.03 l 0.51,-0.25 0.57,0.01 c 27.04,0.92 41.88,1.35 61.12,1.35 h 40.49 c 39.7,0 80.26,-0.46 120.55,-1.35 l 1.45,-0.03 0.63,1.3 c 5.99,12.45 17.26,47.23 20.43,63.08 l 0.14,0.7 -0.29,0.66 c -1.09,2.46 -3.44,4.34 -6.44,5.16 z m -348.62,244.41 -0.74,-0.29 -0.39,-0.68 c -6.05,-10.51 -8.84,-11.47 -33.14,-11.47 h -184.06 c -20.79,-0.02 -32.04,0.52 -34.22,12.11 l -0.13,0.69 -0.49,0.49 c -2.29,2.3 -9.33,1.64 -11.38,0.28 l -0.81,-0.53 -0.16,-0.95 c -3.14,-17.91 -9.8,-46.41 -17,-66.69 l -0.33,-0.9 0.43,-0.86 c 1.24,-2.49 4.02,-4.51 7.23,-5.27 2.94,-0.69 5.79,-0.21 7.83,1.33 l 0.48,0.35 0.24,0.55 c 4.62,10.53 8.99,20.47 19.7,30.29 10.21,9.39 32.94,10.66 53.83,10.66 h 24.75 c 11.25,0 11.25,0 11.25,-12.15 v -201.15 c 0,-47.38 -2.18,-51.92 -25.84,-54 l -16.19,-1.35 -1.01,-0.33 c -2.31,-1.44 -3.59,-4.43 -3.42,-7.98 0.13,-2.67 1.14,-5.96 3.61,-7.19 l 0.5,-0.25 0.57,0.01 c 27.57,0.86 44.06,1.35 62.48,1.35 17.48,0 32.29,-0.42 58.87,-1.35 l 0.57,-0.02 0.51,0.26 c 2.48,1.24 3.56,4.8 3.74,7.72 0.11,1.64 0.05,5.64 -2.6,7.41 l -15.46,1.72 c -24.13,2.08 -24.94,7.29 -24.94,54 v 201.64 c 0,5.69 -0.01,9.45 1.09,10.55 1.03,1.03 4.36,1.11 9.71,1.11 h 31.96 c 24.38,0 41.01,-3.54 50.87,-10.82 4.58,-3.35 8.35,-14.77 10.34,-31.3 l 0.08,-0.66 0.43,-0.51 c 2.04,-2.46 5.98,-3 8.74,-2.65 3.17,0.36 5.61,1.82 6.7,3.98 l 0.29,0.58 -0.07,0.65 c -1.3,12.99 1.82,49.47 6.69,67.59 l 0.21,0.82 -0.38,0.77 c -1.66,3.34 -8.1,3.57 -10.94,2.44 z m -392.29,-27.74 11.84,0.95 0.48,0.32 c 1.87,1.24 2.82,3.93 2.61,7.39 -0.18,2.93 -1.26,6.5 -3.75,7.75 l -0.51,0.26 -0.58,-0.03 c -21.31,-0.85 -37.26,-1.34 -55.71,-1.34 -19.31,0 -34.79,0.47 -56.62,1.34 l -0.57,0.03 -0.52,-0.26 c -2.49,-1.25 -3.56,-4.81 -3.74,-7.73 -0.1,-1.64 -0.05,-5.64 2.6,-7.4 l 0.49,-0.33 11.82,-0.95 c 24.56,-2.07 25.39,-7.41 25.39,-55.35 v -160.19 c 0,-47.5 -0.71,-51.98 -25.47,-54.91 l -12.03,-1.46 -0.54,-0.54 c -2.25,-2.25 -2.56,-6.03 -2.11,-8.82 0.48,-2.93 1.78,-5.13 3.59,-6.03 l 0.52,-0.26 0.57,0.03 c 21.87,0.86 37.36,1.34 56.62,1.34 18.49,0 33.84,-0.48 55.71,-1.34 l 0.58,-0.03 0.51,0.26 c 2.49,1.24 3.57,4.81 3.75,7.74 0.21,3.46 -0.74,6.15 -2.61,7.39 l -12.23,1.72 c -24.76,2.93 -25.47,7.41 -25.47,54.91 v 160.19 c 0,47.94 0.83,53.28 25.38,55.35 z m -212.71,-207.9 c 0,35.56 -18.74,64.44 -57.31,88.31 l -35.99,22.5 c -13.9,8.64 -37.2,27.06 -37.2,53.44 0,14.34 5,47.7 51.31,47.7 40.5,0 52.82,-26.29 59.02,-49.19 l 0.44,-0.85 c 1.35,-1.62 3.76,-2.41 6.59,-2.26 2.96,0.16 6.66,1.4 8.26,3.81 l 0.37,0.56 v 0.68 c 0,17.97 -3.84,43.99 -8.23,55.69 l -0.54,1.46 h -1.57 c -3.2,0 -9.28,0.81 -15.16,2.62 -10.65,2.87 -27.39,5.93 -42.44,5.93 -56.25,0 -94.04,-32.01 -94.04,-79.65 0,-38.45 26.97,-64.34 49.61,-79.28 l 42.76,-27.91 c 31.53,-20.29 35.87,-41.36 35.87,-61.11 0,-24.63 -16.7,-49.49 -53.99,-49.49 -46.29,0 -66.46,35.58 -75.24,65.43 l -0.29,0.61 c -1.08,1.64 -3.1,2.56 -5.68,2.61 -2.92,0 -6.85,-1.14 -8.82,-3.89 l -0.46,-0.64 0.04,-0.77 c 0.86,-20.24 6.59,-53.29 12.42,-63.98 l 0.31,-0.55 0.54,-0.32 c 10.95,-6.33 34.77,-16.95 71.32,-16.95 58.67,0 98.1,34.36 98.1,85.49 z m -480.1,193.95 v -105.3 c 0,-6.32 0,-12.29 0.91,-13.5 0.86,-0.44 6.91,-1.35 29.24,-1.35 14.05,0 31.86,1.28 45,11.24 14.53,11.31 21.61,28.99 21.61,54.01 0,30.93 -18.28,67.05 -69.76,67.05 -27,0 -27,-1.38 -27,-12.15 z m -20.25,-272.24 c -17.61,0 -33.35,-0.38 -56.14,-1.34 l -0.58,-0.03 -0.52,0.26 c -1.73,0.86 -2.98,2.8 -3.52,5.45 -0.56,2.75 -0.35,6.63 1.91,9.27 l 0.56,0.67 12.13,1.46 c 23.62,2.84 25.02,5.87 25.02,54 v 161.55 c 0,43.73 -1.67,48.44 -17.82,50.42 l -15.44,2.19 c -2.23,1.6 -3.49,4.86 -3.21,8.32 0.25,3.13 1.73,5.66 3.96,6.78 l 0.81,0.22 c 27.59,2.47 59.54,3.62 100.55,3.62 25.16,0 53.89,-1.64 76.22,-13.78 17.55,-9.14 38.52,-27.86 38.52,-64.97 0,-49.47 -42.76,-71.14 -57.01,-76.97 -0.45,-1.04 -0.19,-3.22 2.67,-7.78 34.12,-55.03 58.82,-93.04 89.98,-119.17 7.78,-6.86 18.62,-11.25 29.78,-12.08 l 0.67,-0.15 c 1.75,-0.7 2.97,-2.33 3.27,-4.34 0.32,-2.21 -0.54,-4.43 -2.25,-5.8 l -0.7,-0.39 c -4.52,-1.5 -12,-2.36 -20.52,-2.36 -41.22,0 -64.29,14.01 -94.98,57.65 -5.91,8.42 -13.44,20.33 -21.4,32.94 -7.77,12.29 -15.8,25 -22.71,35.03 -6.08,8.91 -12.4,13.43 -30.1,13.43 -18.9,0 -18.9,0 -18.9,-7.66 v -56.7 c 0,-48.19 1.17,-50.72 25.06,-54.01 l 10.09,-1.45 0.49,-0.41 c 1.89,-1.56 2.77,-4.63 2.35,-8.2 -0.38,-3.28 -1.76,-5.82 -3.67,-6.78 l -0.52,-0.26 -0.59,0.03 c -21.82,0.96 -36.81,1.34 -53.46,1.34 z m -401.31,-1.11 0.5,-0.25 0.58,0.01 c 27.03,0.92 41.88,1.35 61.11,1.35 h 40.5 c 39.7,0 80.26,-0.46 120.55,-1.35 l 1.44,-0.03 0.64,1.3 c 5.98,12.45 17.25,47.23 20.43,63.08 l 0.13,0.7 -0.28,0.66 c -1.09,2.46 -3.45,4.34 -6.44,5.16 -3,0.81 -6.08,0.41 -8.18,-1.09 l -0.7,-0.83 c -10.7,-21.41 -22.88,-38.16 -30.95,-42.64 -9.84,-4.93 -23.6,-6.51 -56.59,-6.51 -39.82,0 -48.16,5 -52.8,9.64 -6.64,7.06 -7.95,21.94 -7.95,45.26 v 63.44 c 0,9.9 0,9.9 12.61,9.9 h 26.1 c 16.33,0 27.72,-0.36 34.1,-2.18 7.8,-1.95 10.56,-7.57 12.31,-15.43 l 4.05,-17.54 0.46,-0.94 c 1.98,-2.4 5.91,-2.97 8.68,-2.73 3.13,0.28 5.58,1.55 6.7,3.51 l 0.29,0.51 v 0.6 c 0,4.42 -0.34,10.09 -0.74,16.65 -0.5,8.22 -1.07,17.53 -1.07,26.55 0,9.46 0.57,19.11 1.06,27.63 0.41,6.96 0.75,12.97 0.75,17.82 v 0.6 l -0.29,0.52 c -1.12,1.95 -3.57,3.23 -6.7,3.5 -2.72,0.25 -6.69,-0.33 -8.68,-2.73 l -4.08,-19.45 c -2.18,-10.91 -5.1,-12.65 -9.31,-14.05 -4.93,-1.65 -18.61,-2.59 -37.53,-2.59 h -26.1 c -12.61,0 -12.61,0 -12.61,10.35 v 90 c 0,15.75 0,15.75 11.26,15.75 h 32.39 c 19.79,0 33.91,-0.44 43.11,-2.64 21.2,-5.3 25.63,-19.27 31.76,-38.62 l 0.83,-2.63 0.42,-0.75 c 1.43,-1.71 4.08,-2.61 7.13,-2.42 2.71,0.15 6.15,1.14 7.73,3.51 l 0.44,0.66 -0.59,6.5 c -1.8,20.03 -4.26,47.47 -6.81,54.69 l -0.67,1.93 -1.99,-0.5 c -5.13,-1.28 -33.13,-1.28 -60.21,-1.28 h -84.6 c -17.32,0 -32.18,0.38 -52.98,1.34 l -0.59,0.04 -0.53,-0.27 c -2.49,-1.25 -3.56,-4.81 -3.74,-7.73 -0.1,-1.64 -0.05,-5.64 2.6,-7.4 l 8.18,-1.27 c 24.64,-2.92 25.47,-8.11 25.47,-54.46 v -162 c 0,-47.38 -2.18,-51.92 -25.86,-54 l -15.65,-1.43 -0.58,-0.57 c -2.24,-2.25 -2.57,-6.03 -2.11,-8.82 0.47,-2.93 1.79,-5.13 3.6,-6.03 z m -267.49,-3.06 0.29,-1.1 1.05,-0.42 c 2.51,-1 5.06,-1.51 7.58,-1.51 2.33,0 4.53,0.62 6.2,1.73 l 0.66,0.43 0.23,0.75 c 7.88,24.53 29.46,77.55 46.72,117.23 l 24.31,55.34 c 21.28,48.25 38.18,82.99 50.24,103.22 5.98,9.65 12.26,13.91 21.63,14.69 l 14.36,0.96 0.59,0.6 c 2,1.99 2.51,5.77 2.13,8.63 -0.39,2.91 -1.63,5.09 -3.49,6.16 l -0.59,0.33 -0.67,-0.04 c -15.13,-0.91 -28.96,-1.34 -43.52,-1.34 -17.7,0 -34.7,0.48 -46.64,1.34 l -0.67,0.05 -0.6,-0.34 c -2.14,-1.22 -3.65,-3.93 -3.94,-7.07 -0.31,-3.21 0.7,-6.14 2.69,-7.84 l 0.53,-0.45 8.78,-0.98 c 18.04,-2.06 18.26,-6.14 18.26,-6.32 0,-3.02 -0.45,-7.66 -3.9,-16.72 -7.95,-20.1 -29.37,-71.54 -41.81,-100.72 -3.24,-7.45 -7.31,-17.09 -11.79,-27.74 -9.02,-21.38 -20.09,-47.62 -29.3,-67.58 -21.63,49.58 -41.61,99.54 -61.87,150.62 -13.41,32.9 -21.07,56.82 -22.29,62.18 0.48,1.88 3.48,4.22 19.16,6.28 l 7.4,0.99 0.51,0.44 c 1.98,1.7 3,4.63 2.7,7.82 -0.31,3.15 -1.81,5.87 -3.94,7.09 l -0.57,0.33 -0.66,-0.04 c -20.06,-0.95 -35.8,-1.34 -54.34,-1.34 -18.8,0 -33.19,0.41 -46.65,1.34 l -0.73,0.05 -0.61,-0.38 c -2.3,-1.44 -3.8,-4.13 -4.04,-7.21 -0.22,-3.07 0.84,-5.92 2.87,-7.66 l 0.52,-0.45 8.77,-0.98 c 18.01,-2.09 24.45,-10.7 34.64,-35.5 l 79.19,-195.3 c 6.48,-15.98 15.29,-39.29 20.61,-59.57 z m -351.93,19.91 -12.02,-1.46 -0.55,-0.54 c -2.24,-2.25 -2.55,-6.03 -2.11,-8.82 0.48,-2.93 1.79,-5.13 3.6,-6.03 l 0.52,-0.26 0.57,0.03 c 21.87,0.86 37.36,1.34 56.61,1.34 18.5,0 33.85,-0.48 55.72,-1.34 l 0.57,-0.03 0.52,0.26 c 2.49,1.24 3.56,4.81 3.75,7.74 0.2,3.46 -0.74,6.15 -2.62,7.39 l -12.22,1.72 c -24.76,2.93 -25.47,7.41 -25.47,54.91 v 160.19 c 0,47.94 0.83,53.28 25.38,55.35 l 11.83,0.95 0.48,0.32 c 1.88,1.24 2.82,3.93 2.62,7.39 -0.19,2.93 -1.26,6.5 -3.75,7.75 l -0.52,0.26 -0.57,-0.03 c -21.31,-0.85 -37.26,-1.34 -55.72,-1.34 -19.3,0 -34.78,0.47 -56.61,1.34 l -0.57,0.03 -0.52,-0.26 c -2.49,-1.25 -3.57,-4.81 -3.74,-7.73 -0.1,-1.64 -0.05,-5.64 2.6,-7.4 l 0.48,-0.33 11.83,-0.95 c 24.56,-2.07 25.39,-7.41 25.39,-55.35 v -160.19 c 0,-47.5 -0.71,-51.98 -25.48,-54.91 z m -124.91,287.14 -0.72,-0.05 c -14.82,-0.87 -26.57,-1.34 -46.22,-1.34 -15.87,0 -30.73,0.38 -53,1.34 l -0.46,0.02 -0.43,-0.16 c -2.21,-0.82 -3.77,-2.98 -4.29,-5.91 -0.51,-2.94 0.12,-6.92 2.72,-9.15 l 0.52,-0.44 8.31,-0.99 c 16.03,-2 23.9,-4.4 26.28,-7.97 5.58,-8.8 8.66,-41.45 8.66,-91.94 V 1333 c 0,-6.05 0,-12.27 -0.62,-15.51 -16.4,16.87 -33.55,36.07 -55.06,60.16 l -60.99,68.45 -0.41,0.45 c -44.69,50.1 -70.31,83.02 -76.12,97.87 l -0.66,1.68 -1.78,-0.28 c -5.46,-0.84 -12.88,-1.32 -20.36,-1.32 -7.88,0 -31.87,0 -50.69,1.34 l -0.62,0.05 -0.54,-0.28 c -2.08,-1.04 -3.48,-3.15 -3.93,-5.93 -0.54,-3.34 0.44,-6.93 2.44,-8.92 l 0.56,-0.56 8.4,-0.99 c 12.28,-1.53 21.48,-5.04 26.52,-10.08 8.68,-9.51 9.32,-18.01 9.32,-30.88 v -134.12 c 0.03,-23.68 0.07,-72.94 -5.66,-87.69 -1.72,-3.77 -7.79,-6.37 -18,-7.69 l -12.94,-1.45 -0.55,-0.55 c -1.75,-1.75 -2.64,-4.61 -2.39,-7.63 0.25,-3.04 1.56,-5.6 3.57,-7.04 l 0.64,-0.46 0.79,0.05 c 15.29,0.86 27.25,1.34 46.68,1.34 15.79,0 31.01,-0.39 52.55,-1.34 l 0.77,-0.04 0.64,0.45 c 1.86,1.32 3.09,3.44 3.48,5.97 0.46,2.99 -0.3,6.07 -2.09,8.45 l -0.6,0.8 -14.98,1.45 c -11.38,0.91 -19.08,3.6 -21.17,7.42 -5.03,8.88 -7.8,41.57 -7.8,92.03 v 98.1 c 0,9.23 0.18,19.18 1.36,25.45 6.85,-7.52 19.82,-22.85 31.4,-36.54 7.38,-8.73 14.23,-16.82 18.65,-21.89 l 104.4,-118.8 c 34.69,-39.49 51.34,-59.11 57.45,-67.76 l 0.67,-0.95 h 1.16 c 5.34,0 9.33,2.43 10.69,6.49 l 0.15,0.47 -0.06,0.5 c -0.6,5.27 -1.33,23.18 -1.33,78.49 l -0.01,113.57 c -0.08,23.15 -0.24,71.35 6.52,85.65 0.92,1.85 6.92,5.65 23.52,8.24 l 7.04,1.01 0.52,0.53 c 1.91,1.91 2.87,5.05 2.51,8.2 -0.33,2.85 -1.7,5.24 -3.8,6.55 z m -432.12,-0.38 c 1.91,-1.2 3.18,-3.21 3.58,-5.69 0.47,-3.01 -0.37,-6.34 -2.14,-8.46 l -0.61,-0.72 -11.74,-0.98 c -10.41,-0.84 -18.32,-4.48 -20.63,-9.5 -6.11,-14.37 -6.11,-66.03 -6.11,-90.86 v -50.85 c 0,-50.25 -10.49,-85.93 -32.1,-109.07 -18.92,-20.7 -52.5,-33.57 -87.58,-33.57 -37.23,0 -66.04,8.51 -85.62,25.29 -24.8,20.6 -35.88,53.88 -35.88,107.9 v 106.2 c 0,46.38 -0.92,52.39 -24.94,54.46 l -11.81,0.94 -0.48,0.32 c -1.87,1.24 -2.83,3.85 -2.62,7.16 0.18,2.82 1.25,6.28 3.75,7.53 l 0.52,0.26 0.57,-0.03 c 21.83,-0.87 37.16,-1.34 55.72,-1.34 18.73,0 33.86,0.47 55.25,1.34 l 0.58,0.03 0.51,-0.26 c 2.5,-1.25 3.58,-4.71 3.75,-7.53 0.21,-3.31 -0.75,-5.92 -2.61,-7.16 l -1.06,-0.36 -10.8,-0.9 c -24,-2.07 -24.93,-8.08 -24.93,-54.46 V 1378 c 0,-80.43 28.31,-117.89 89.1,-117.89 72.52,0 87.74,63.87 87.74,117.44 v 51.75 c 0,49.96 -2.93,82.64 -8.25,92.04 -2.62,4.49 -9.99,7.45 -20.72,8.32 l -12.18,0.97 -0.6,0.7 c -1.73,2.01 -2.48,4.9 -2.06,7.94 0.37,2.74 1.62,5 3.41,6.2 l 0.63,0.41 0.74,-0.04 c 17.19,-0.9 33.94,-1.34 51.18,-1.34 19.27,0 31.43,0.47 47.12,1.34 l 0.72,0.04 0.6,-0.37"
           style="fill:#ffffff;fill-opacity:1;fill-rule:nonzero;stroke:none"
           id="path12-0" /><path
           d="m 1121.09,1967.21 c -460.664,0 -835.438,-374.78 -835.438,-835.44 0,-460.661 374.774,-835.43 835.438,-835.43 460.66,0 835.44,374.769 835.44,835.43 0,460.66 -374.78,835.44 -835.44,835.44 z m 0,-1687.921 c -470.059,0 -852.481,382.43 -852.481,852.481 0,470.06 382.422,852.48 852.481,852.48 470.06,0 852.48,-382.42 852.48,-852.48 0,-470.051 -382.42,-852.481 -852.48,-852.481 z M 1460,794.828 c -27.37,20.223 -61.37,29.641 -95.23,26.274 l -42.61,31.359 c -8.58,6.309 -17.84,11.309 -27.54,15.109 0,-5.871 -0.59,-12.371 -1.71,-19.8 6.3,-2.848 12.36,-6.329 18,-10.598 l 28.44,-20.934 c -15.51,-4.488 -30.21,-11.617 -43.52,-21.418 l -71.19,-52.39 c -9.27,6.98 -70.28,51.82 -81.06,59.761 0.16,0.11 0.36,0.27 0.53,0.387 -1.16,0.781 -1.89,1.274 -1.89,1.274 -1.66,2.886 -4.19,9.898 -5.2,17.078 l -9.44,-6.961 -16.04,11.801 c -0.21,-7.801 -2.89,-15.348 -4.9,-19.938 l 4.93,-3.633 v -0.008 l 16.01,-11.781 v 0 0 c 6.5,-4.789 77.12,-56.711 81.08,-59.738 h -0.01 l 15.93,-11.844 h 0.01 l 10.37,-7.699 32.26,-23.981 c 0.74,0.801 -25.32,-18.507 -25.72,-18.777 -5.56,4.109 -46.06,33.899 -50.41,37.098 -30.51,22.84 -73.8,27.32 -108.19,10.801 v 0 c -3.34,-1.559 -6.62,-3.27 -9.8,-5.168 l -42.66,31.386 c -27.48,18.473 -81.971,66.742 -114.643,73.75 l 28.445,20.934 c 3.692,2.719 7.551,5.09 11.492,7.238 -1.242,7.551 -2.027,14.18 -2.23,20.129 -7.145,-3.34 -14.031,-7.32 -20.508,-12.078 l -42.609,-31.359 c -33.871,3.367 -67.86,-6.051 -95.227,-26.282 l -84.797,-62.398 c 4.422,-4.613 8.895,-9.184 13.465,-13.641 l 82.578,60.77 c 26.121,19.148 57.891,26.437 89.199,21.828 v 0 c 18.567,-2.879 36.598,-10.16 52.469,-21.828 l 108.566,-79.903 -42.74,-31.457 -23.443,17.25 c -40.613,31.071 -99.441,25.739 -136.992,-7.691 -9.274,-6.82 -31.363,-23.078 -40.852,-30.07 5.688,-3.7 11.383,-7.391 17.203,-10.899 8.567,6.309 26.247,19.321 34.723,25.559 v 0 c 31.629,28.101 80.039,33.711 114.672,7.82 L 1136.74,554.469 c 3.67,0.101 7.34,0.172 11.01,0.281 v 0 c 6.59,0.23 13.15,0.57 19.68,1.02 -5.89,4.23 -119.45,87.402 -137.53,100.64 10.37,7.219 49.2,37.61 60.2,42.168 v 0 c 3.02,1.442 6.08,2.742 9.21,3.82 v 0 c 26.91,9.09 57.52,4.563 80.53,-12.207 0,0 115.91,-85.312 140.03,-103.062 v 0 c 0.79,0.281 1.6,0.531 2.39,0.812 v 0 c 6.32,2.258 12.56,4.7 18.77,7.18 -23.45,17.258 -59.81,44.02 -83.52,61.469 l 18.43,13.57 c 27.15,20.379 65.79,22.309 95.14,5.512 v 0 c 11.84,-6.524 42.71,-30.871 54.25,-38.891 v 0 c 5.82,3.508 11.52,7.199 17.21,10.899 -11.57,8.332 -44.81,33.371 -56.08,40.992 v 0 c -29.29,19.699 -68.92,23.039 -101.11,8.648 l -44.78,33.282 66.51,48.949 c 15.87,11.668 33.9,18.949 52.47,21.828 v 0 c 31.21,4.723 63.67,-2.949 89.2,-21.828 l 82.57,-60.77 c 4.58,4.457 9.05,9.028 13.47,13.641 z M 925.418,1249.85 c 0,0 -0.438,1.02 -1.758,1.39 -1.32,0.36 -6.222,-1.32 -6.222,-1.32 0,0 -2.735,-2.54 -5.883,-5.98 -3.149,-3.44 -9.59,-9.3 -14.051,-12.52 -4.469,-3.22 -6.301,-6.95 -3.738,-12.07 2.566,-5.13 6.961,-5.27 7.617,-4.76 0,0 5.637,4.68 12.293,14.64 6.66,9.95 11.742,20.62 11.742,20.62 z m 57.234,-335.17 c -39.691,115.47 -54.382,286.93 -56.011,304.61 0,0 0.597,2.12 -1.942,1.42 -2.535,-0.69 -9.14,-11.92 -13.672,-16.67 -4.531,-4.75 21.254,-195.91 62.293,-289.099 2.563,-2 6.078,-2.652 9.332,-0.261 z m 73.268,706.12 c 5.54,14.08 17.38,15.41 25.94,11.38 4.51,-2.13 7.14,-1.82 8.94,2.33 -1.45,6.09 -13.12,16.38 -27.86,12.14 -15.02,-4.33 -17.54,-21.85 -14.72,-27.43 3.72,-1.42 6.5,-1.47 7.7,1.58 z M 906.836,1301.82 c 4.133,1.14 27.293,13.69 36.852,26.67 9.562,12.99 23.039,51.88 23.75,57.59 0.714,5.71 -4.141,3.71 -5.989,1.14 -1.859,-2.57 -10.859,-23.15 -22.133,-37.56 -11.269,-14.42 -39.902,-30 -39.902,-30 -1.43,-3.28 0.57,-13.41 7.422,-17.84 z m 21.269,57.99 c 5.04,2.44 4.731,4.89 4.731,4.89 0,0 -4.125,27.18 -4.426,30.69 -0.156,1.82 -0.476,4.3 -1.215,5.46 -0.906,-0.57 -3.336,-1.78 -4.121,-2.6 -3.101,-6.1 -3.715,-19.11 -4.285,-24.84 -0.613,-6.11 0.914,-15.43 0.914,-15.43 0.61,-0.46 3.36,-0.61 8.402,1.83 z m 180.095,273.36 c 3.55,4.49 8.77,7.48 15.99,7.48 7.22,0 12.43,-2.99 15.98,-7.48 2.07,-2.6 6.17,-3.36 7.22,2.2 -1.86,12.99 -14.11,18.25 -23.2,18.25 -9.09,0 -21.35,-5.26 -23.21,-18.25 1.05,-5.56 5.15,-4.8 7.22,-2.2 z m -170.044,5.7 c 3.246,-2.94 5.746,-4.67 9.992,-6.24 6.61,-2.46 12.137,-3.46 21.383,-3.46 5.121,0 11.492,-0.49 16.242,-2.84 2.188,-1.08 5.774,-6.72 8.684,-10.8 2.289,-3.2 -0.371,-6.67 -1.172,-5.94 -4.902,4.47 -9.617,8.18 -29.355,8.07 -19.489,-0.12 -26.207,15.85 -26.754,16.91 -0.77,1.48 -0.805,4.05 0.98,4.3 z m 5.352,-26.4 c 14.472,-10.55 32.203,-10.79 36.469,-10.79 5.683,0 11.894,-1.34 15.597,-6.79 3.352,-4.93 7.766,-12.78 10.656,-10.32 3.17,2.71 -2.77,10.57 -3.67,12.58 -0.9,2.03 -1.31,4.04 0.19,5.26 3.13,2.57 15.56,-10.45 17.69,-7.98 2.13,2.47 -19.52,19.32 -16.01,24.37 2.68,3.84 9.5,1.65 17.73,-6.21 11.99,-11.45 21.77,-12.59 24.44,-10.22 1.68,1.5 -10.97,9.47 -20.11,17.95 -7.32,6.8 -15.71,16.41 -34.783,18.77 -19.074,2.36 -26.828,-0.48 -37.141,2.07 -6.367,1.58 -14.746,6.36 -18.41,13.81 -4.672,9.5 -4.343,11.81 -6.336,8.82 -1.59,-2.39 -4.379,-11.67 -4.043,-19.75 0.34,-8.08 3.254,-21.02 17.731,-31.57 z m 129.332,8.24 c -10.84,-4.01 -12.12,-17.87 -8.86,-23.4 4.66,-2.21 7.37,-1.1 8.38,2.99 1.96,8 9.17,10.67 15.93,6.92 2.8,-1.55 6.46,-0.22 7.01,4.25 -2.15,5.75 -12.09,13.08 -22.46,9.24 z m 117.54,-454.98 c 14.95,2.73 18.63,16.2 12.29,28.88 -6.49,12.99 -10.04,11.22 -19.7,38.23 -1.91,5.36 -5.47,4.23 -5.47,4.23 0,0 -2.75,-12.55 1.55,-26.57 3.58,-11.68 9.3,-17.13 4.66,-19.36 -4.64,-2.22 -14.69,8.85 -18.85,18.42 -4.15,9.56 -7.23,25.85 -7.23,25.85 0,0 -5.04,-0.89 -5.8,-6.62 -1.2,-9.1 1.67,-69.8 38.55,-63.06 z m -35.34,-15.6 c -1.61,36.11 -11.53,34.93 -11.53,34.93 0,0 -1.44,-3.07 -1.14,-6.67 0.22,-2.64 3.24,-11.85 3.24,-20.65 0,-11.01 -4.38,-23.43 -7.2,-21.56 -1.67,1.11 -1.37,6.75 -1.28,11.61 0.12,6.18 0.25,11.32 -2.69,11.32 -3.19,0 -1.41,-7.86 -2.55,-20.38 -1.25,-13.74 -7.33,-21.82 -12.42,-17.68 0,0 3.23,5.32 3.02,19.11 -0.18,12.81 -2.35,25.84 -7.36,25.4 -7.43,-0.64 -1.76,-11.71 -4.9,-12.98 -3.13,-1.27 -5.96,1.38 -5.86,10.19 0.1,8.81 4.35,25.24 4.57,27.87 0.3,3.61 -2.33,7.01 -2.33,7.01 0,0 -11.69,-11.41 -13.31,-47.52 -1.03,-23.03 10.08,-51.38 30.87,-51.38 20.79,0 31.9,28.35 30.87,51.38 z m 18.91,-112.74 c 21.68,8.9 1.77,45.05 -6.13,51.09 -5.51,4.21 -9.42,10.05 -9.42,10.05 0,0 -3.89,0.78 -5.57,-2.33 0.24,-16.16 14.81,-30.1 10.41,-31.95 -7.57,-3.18 -20.1,25.84 -20.1,25.84 0,0 -6.4,0.06 -7.06,-13.16 -0.66,-13.22 14.54,-49.11 37.87,-39.54 z m 75.66,-117.37 c 30.48,72.921 52.38,290.76 52.84,318.93 0.19,11.4 -13.74,25.77 -27.6,59.81 -0.14,0.34 -3.83,3.29 -3.77,2.28 9.64,-140.82 -30.1,-357.181 -30.79,-360.731 -1.9,-9.797 8.15,-23.079 9.32,-20.289 z m -83.11,712.16 c 8.56,4.03 20.4,2.7 25.94,-11.38 1.2,-3.05 3.98,-3 7.7,-1.58 2.82,5.58 0.3,23.1 -14.72,27.43 -14.74,4.24 -26.41,-6.05 -27.86,-12.14 1.8,-4.15 4.44,-4.46 8.94,-2.33 z m -6.42,-24.96 c 6.75,3.75 13.96,1.08 15.92,-6.92 1.01,-4.09 3.72,-5.2 8.38,-2.99 3.88,4.94 1.98,19.39 -8.86,23.4 -10.38,3.84 -20.31,-3.49 -22.46,-9.24 0.55,-4.47 4.22,-5.8 7.02,-4.25 z m 93.81,8.31 c 2.91,4.08 6.49,9.72 8.68,10.8 4.75,2.35 11.12,2.84 16.24,2.84 9.25,0 14.78,1 21.39,3.46 4.24,1.57 6.74,3.3 9.99,6.24 1.78,-0.25 1.75,-2.82 0.98,-4.3 -0.55,-1.06 -7.27,-17.03 -26.75,-16.91 -19.74,0.11 -24.46,-3.6 -29.36,-8.07 -0.8,-0.73 -3.46,2.74 -1.17,5.94 z m -27.72,-2.94 c 8.23,7.86 15.05,10.05 17.73,6.21 3.51,-5.05 -18.14,-21.9 -16.01,-24.37 2.13,-2.47 14.56,10.55 17.69,7.98 1.49,-1.22 1.09,-3.23 0.19,-5.26 -0.9,-2.01 -6.84,-9.87 -3.67,-12.58 2.89,-2.46 7.3,5.39 10.66,10.32 3.7,5.45 9.91,6.79 15.59,6.79 4.27,0 22,0.24 36.47,10.79 14.48,10.55 17.39,23.49 17.73,31.57 0.34,8.08 -2.45,17.36 -4.04,19.75 -2,2.99 -1.66,0.68 -6.34,-8.82 -3.66,-7.45 -12.04,-12.23 -18.41,-13.81 -10.31,-2.55 -18.06,0.29 -37.14,-2.07 -19.07,-2.36 -27.46,-11.97 -34.78,-18.77 -9.14,-8.48 -21.79,-16.45 -20.11,-17.95 2.67,-2.37 12.45,-1.23 24.44,10.22 z m 108.78,-349.51 c 0,0 4.05,-2.02 6.19,2.41 2.14,4.42 1.39,17.67 1.39,17.67 0,0 -27.76,11.04 -40.32,26.46 -8.87,10.88 -11.53,19.37 -12.53,22.93 -1,3.58 -4.28,6.29 -4.42,2.58 -0.15,-3.72 0.96,-37.79 19.48,-55.56 10.42,-9.98 30.21,-16.49 30.21,-16.49 z m -15.01,132.31 c -0.3,-3.51 -4.43,-30.69 -4.43,-30.69 0,0 -0.31,-2.45 4.73,-4.89 5.05,-2.44 7.8,-2.29 8.4,-1.83 0,0 1.53,9.32 0.92,15.43 -0.57,5.73 -1.19,18.74 -4.29,24.84 -0.78,0.82 -3.21,2.03 -4.12,2.6 -0.74,-1.16 -1.05,-3.64 -1.21,-5.46 z m -93.27,-481.402 c -9.1,2.992 -17.85,2.801 -22.32,-0.738 9.32,-19.18 5.82,-35.539 5.82,-35.539 0,0 12.32,1.809 12.54,-3.551 0.17,-3.84 -4.08,-6.531 -8.73,-6.781 -4.66,-0.238 -6.78,-4.078 -6.78,-4.078 0,0 -2.09,-4.621 -3.97,-18.871 6.37,6.558 25.03,12.351 37.87,-5.059 5.53,21.277 0.37,66.09 -14.43,74.617 z m -5.4,-77.777 c -9.87,3.211 -14.81,-4.473 -14.81,-4.473 0,0 4.62,-6.527 4.9,-18.047 0.29,-12.113 -6.35,-18.582 -6.35,-18.582 l -0.11,-1.211 c 4.3,0.551 25.86,8.622 25.93,28.364 0.01,2.797 0.31,10.738 -9.56,13.949 z m -33.01,74.019 c 0,0 -5.62,-0.949 -8.44,-1.8 -2.63,-0.782 -2.45,-0.231 -12.79,-16.168 -11.55,-17.801 -18.33,-26.551 -11.92,-53.821 9.42,10.039 24.64,10.348 33.49,-1.371 0,0 2.93,13.821 3.22,23.032 -3.51,4.968 -7.64,6.82 -14.59,8.757 -6.3,1.762 -5.53,10.211 4.42,8.481 7.39,-1.289 12.8,-5.391 12.8,-5.391 0,0 2.04,5.891 1.89,19.59 -0.13,13.699 -8.08,18.691 -8.08,18.691 z m -91.75,318.56 c -0.76,5.73 -5.8,6.62 -5.8,6.62 0,0 -3.08,-16.29 -7.23,-25.85 -4.16,-9.57 -14.21,-20.64 -18.85,-18.42 -4.64,2.23 1.08,7.68 4.66,19.36 4.3,14.02 1.55,26.57 1.55,26.57 0,0 -3.56,1.13 -5.47,-4.23 -9.66,-27.01 -13.21,-25.24 -19.7,-38.23 -6.34,-12.68 -2.66,-26.15 12.29,-28.88 36.88,-6.74 39.75,53.96 38.55,63.06 z m 96.46,-255.571 c -1.35,-6.25 -6.06,-11.348 -12.69,-18.84 -6.64,-7.5 -24.42,-17.399 -32.98,-31.059 -8.55,-13.648 -5.28,-30.851 -5.28,-30.851 5.19,1.34 4.29,12.371 19.7,24.222 16.25,12.5 17.4,7.789 29.03,18.649 13.13,12.269 7.89,35.281 7.69,37.59 -0.19,2.308 -4.13,6.539 -5.47,0.289 z M 1180.24,821.66 c 0.57,5.629 -5.41,13.469 -14.68,9.531 -6.27,-2.66 -7.99,-11.589 -5.17,-17.55 3.38,-7.141 14.4,-17.582 24.28,-20.411 l 0.77,0.508 c 0,0 -7.4,5.953 -5.2,27.922 z m 170.61,409.76 c -4.47,3.22 -10.91,9.08 -14.06,12.52 -3.14,3.44 -5.89,5.98 -5.89,5.98 0,0 -4.9,1.68 -6.22,1.32 -1.31,-0.37 -1.75,-1.39 -1.75,-1.39 0,0 5.08,-10.67 11.74,-20.62 6.66,-9.96 12.29,-14.64 12.29,-14.64 0.66,-0.51 5.06,-0.37 7.62,4.76 2.56,5.12 0.73,8.85 -3.73,12.07 z m -27.21,-10.71 c -2.54,0.7 -1.93,-1.42 -1.93,-1.42 -1.63,-17.68 -16.33,-189.14 -56.02,-304.61 3.25,-2.391 7.12,0.14 9.67,2.14 40.43,83.82 66.49,282.47 61.95,287.22 -4.53,4.75 -11.13,15.98 -13.67,16.67 z m -67.17,-375.339 c 0,0 2.35,-14.562 -2.13,-24.941 -3.37,-7.821 -10.29,-12.84 -11.09,-13.078 l 0.13,-0.403 c 2.91,-0.808 10.19,-0.629 17.5,4.949 6.93,5.293 12.49,16.59 10.7,26.051 -2.35,8.039 -15.11,7.422 -15.11,7.422 z m -6.68,57.02 c 2.84,-7.903 4.43,-13.153 5.96,-22.34 0,0 8.35,1.34 7.83,-4.102 -0.46,-4.769 -4.8,-4.89 -6.88,-4.89 0.05,-5.161 0.85,-6.579 0.29,-13.418 0,0 12.01,2.679 20.29,-6.832 4.12,10.91 3.28,28.382 -1.82,38.421 -4.91,9.661 -12.96,12.418 -25.67,13.161 z m -146.08,59.539 c -4.69,2.48 -16.25,8.859 -25.23,22.761 -12.18,18.819 -10.33,30.909 -10.33,30.909 l -1.24,0.97 c 0,0 -6.04,-5.6 -5.27,-21.398 0.83,-17.211 5.85,-30.75 23.6,-43.391 20.45,-14.562 25.92,-25.23 25.92,-25.23 0,0 0.41,-3.172 1.93,-0.41 1.51,2.757 1.51,6.75 0.55,18.058 -0.97,11.301 -5.24,15.25 -9.93,17.731 z m -69.56,-94.551 c -4.66,0.25 -8.9,2.941 -8.74,6.781 0.23,5.36 12.55,3.551 12.55,3.551 0,0 -3.49,16.359 5.81,35.539 -4.46,3.539 -13.21,3.73 -22.3,0.738 -14.82,-8.527 -19.97,-53.34 -14.44,-74.617 12.84,17.41 31.49,11.617 37.87,5.059 -1.87,14.25 -3.97,18.871 -3.97,18.871 0,0 -2.12,3.84 -6.78,4.078 z m 2.62,-53.688 c 0.28,11.52 4.9,18.047 4.9,18.047 0,0 -4.94,7.684 -14.81,4.473 -9.87,-3.211 -9.57,-11.152 -9.56,-13.949 0.07,-19.742 21.63,-27.813 25.94,-28.364 l -0.12,1.211 c 0,0 -6.65,6.469 -6.35,18.582 z m 126.35,138.09 c 17.75,12.641 22.77,26.18 23.6,43.391 0.77,15.798 -5.27,21.398 -5.27,21.398 l -1.24,-0.97 c 0,0 1.84,-12.09 -10.33,-30.909 -8.99,-13.902 -20.55,-20.281 -25.24,-22.761 -4.68,-2.481 -8.96,-6.43 -9.92,-17.731 -0.97,-11.308 -0.97,-15.301 0.55,-18.058 1.52,-2.762 1.93,0.41 1.93,0.41 0,0 5.47,10.668 25.92,25.23 z m -80.55,-120.59 c -9.27,3.938 -15.25,-3.902 -14.68,-9.531 2.2,-21.969 -5.21,-27.922 -5.21,-27.922 l 0.78,-0.508 c 9.88,2.829 20.9,13.27 24.28,20.411 2.82,5.961 1.1,14.89 -5.17,17.55 z M 993.781,820.43 c -4.476,10.379 -2.129,24.941 -2.129,24.941 0,0 -12.75,0.617 -15.097,-7.422 -1.801,-9.461 3.765,-20.758 10.691,-26.051 7.317,-5.578 14.584,-5.757 17.504,-4.949 l 0.13,0.403 c -0.8,0.238 -7.724,5.257 -11.099,13.078 z m 74.529,88 c -2.82,0.851 -8.44,1.8 -8.44,1.8 0,0 -7.95,-4.992 -8.09,-18.691 -0.14,-13.699 1.89,-19.59 1.89,-19.59 0,0 5.41,4.102 12.81,5.391 9.95,1.73 10.72,-6.719 4.41,-8.481 -6.94,-1.937 -11.07,-3.789 -14.59,-8.757 0.3,-9.211 3.23,-23.032 3.23,-23.032 8.85,11.719 24.07,11.41 33.48,1.371 6.42,27.27 -0.36,36.02 -11.91,53.821 -10.34,15.937 -10.16,15.386 -12.79,16.168 z m 79.43,93.28 c 1.2,8.73 -1.09,20.19 -5.05,29.19 -3.96,9 -11.46,14.33 -11.46,14.33 0,0 -3.23,-4.52 -3.28,-11.51 1.86,-5.12 7.69,-9.07 9.16,-18.33 1.13,-7.09 -2.02,-16.812 -10.59,-19.55 -2.16,-0.692 -3.32,0.422 -5.34,1.969 1.32,2.681 7.21,5.931 4.02,20.031 -4.86,0 -3.23,-13.24 -8.92,-13.52 -1.82,-0.08 -4.09,1.24 -4.53,4.19 2.35,3.43 7.13,13.82 6.83,25.44 -0.17,6.99 -1.46,11.28 -1.46,11.28 0,0 -7.05,-6.86 -11.01,-15.86 -3.96,-9.01 -6.71,-18.93 -5.5,-27.66 1.5,-10.921 11.67,-20.198 23.56,-20.198 11.9,0 22.07,9.277 23.57,20.198 z M 991.137,857.641 c -0.559,6.839 0.234,8.257 0.285,13.418 -2.074,0 -6.414,0.121 -6.863,4.89 -0.528,5.442 7.824,4.102 7.824,4.102 1.523,9.187 3.113,14.437 5.961,22.34 -12.715,-0.743 -20.766,-3.5 -25.676,-13.161 -5.105,-10.039 -5.938,-27.511 -1.816,-38.421 8.277,9.511 20.285,6.832 20.285,6.832 z m 76.933,96.738 c -6.63,7.492 -11.34,12.59 -12.69,18.84 -1.35,6.25 -5.29,2.019 -5.48,-0.289 -0.19,-2.301 -5.44,-25.321 7.69,-37.59 11.63,-10.86 12.78,-6.149 29.03,-18.649 15.41,-11.851 14.52,-22.882 19.71,-24.222 0,0 3.27,17.203 -5.28,30.851 -8.56,13.66 -26.34,23.559 -32.98,31.059 z m 6.31,83.011 c 23.34,-9.57 38.53,26.32 37.87,39.54 -0.66,13.22 -7.06,13.16 -7.06,13.16 0,0 -12.53,-29.02 -20.1,-25.84 -4.39,1.85 10.18,15.79 10.41,31.95 -1.67,3.11 -5.56,2.33 -5.56,2.33 0,0 -3.91,-5.84 -9.42,-10.05 -7.9,-6.04 -27.82,-42.19 -6.14,-51.09 z m 224.26,537.34 c 1.9,4.3 -0.52,7.44 -2.47,11.65 -0.96,2.07 -8.65,5.07 -12.46,6.34 -3.34,1.12 -21.14,-3.97 -24.09,-6.68 -3.59,-3.31 -4.15,-8.3 -8.16,-16.33 -4.02,-8.03 -9.35,-14.07 -10.87,-16.22 -2.73,-3.85 8.68,-8.58 12.72,-6.39 6.16,3.33 11.16,7.79 15.82,11.96 4.65,4.17 7.11,-3.41 5.9,-6.7 -1.2,-3.29 -4.26,-7.73 -11.11,-12.9 -5,-3.78 -4.49,-5.07 -3.18,-8.28 1.5,-3.69 3.94,-10.87 4.93,-16.09 0.74,-3.95 2.62,-5.58 5.38,-4.98 24.82,5.44 35.68,-1.59 36.04,-5.05 0.4,-3.93 -9.51,-1.99 -19.43,-3.46 -13.55,-2 -12.55,-3.22 -14.76,-5.55 -6.48,-6.78 -6.59,-21.98 -5.83,-23.51 1.36,-2.74 4.63,-4.15 12.13,-9.73 7.41,-5.52 7.04,-7.31 7.36,-13.86 0.3,-6.28 -3.63,-7.52 -7.41,-1.16 -3.38,5.67 -13.63,13.96 -19,15.08 -5.38,1.13 -9.94,-5.09 -9.94,-5.09 0,0 -1.46,-1.65 2.85,-5.95 9.23,-9.2 11.68,-20.82 8.89,-22.07 -2.03,-0.91 -2.82,3.04 -8.75,11.26 -6.26,8.69 -11.62,10.01 -11.62,10.01 0,0 -4.9,-0.73 -10.68,-2.49 -5.78,-1.77 -10.13,-4.9 -10.13,-4.9 0,0 4.95,-35.35 -1.02,-36.36 -4.47,-0.76 -7.23,33.87 -12.37,34.27 -5.13,0.41 -7.38,-10.19 -10.51,-9.63 -3.13,0.57 -0.06,13.93 -3.13,14.94 -9.32,3.03 -14.09,7.85 -18.9,13.16 -4.91,5.4 -9.44,1.53 -9.44,1.53 0,0 -0.4,-17.83 2.17,-16.94 2.57,0.88 2,5.62 6.1,2.97 4.09,-2.65 -3.77,-16.3 -6.42,-20.23 -2.65,-3.94 -2.57,-8.35 3.69,-5.14 6.26,3.21 7.63,15.57 10.67,8.51 3.06,-7.07 -1.84,-15.66 -6.66,-20.07 -4.81,-4.42 -10.35,-5.29 -10.35,-5.29 0,0 -2.75,-7.95 1.92,-11.93 7.01,-5.97 13.33,-6.49 13.33,-6.49 0,0 13.07,14.11 13.88,29.51 2.41,1.37 3.72,-0.9 4.32,-4.75 1.38,-8.9 -1.62,-27.54 2.9,-29.07 2.46,-0.83 10.91,-1.1 17.42,-0.72 5.46,0.31 6.97,2.72 8.26,6.89 1.29,4.17 -0.32,10.13 1.39,10.45 2.99,0.57 5.62,-2.97 6.98,-7.55 1.36,-4.57 3.15,-5.24 7.93,-4.95 3.03,0.17 6.54,1.57 12.74,5.29 8.13,4.89 -4.69,28.32 -7.5,32.66 -2.81,4.33 0.32,6.18 5.7,0.8 5.37,-5.38 10.99,-17.42 13.16,-21.84 2.17,-4.41 4.82,-4.33 9.79,-0.23 4.98,4.09 12.04,5.37 15.26,12.44 3.21,7.06 1.44,9.87 -0.81,13.65 -2.24,3.77 -1.6,5.05 0.49,5.05 2.08,0 4.81,-4.17 4.81,-4.17 0,0 3.32,-0.63 5.28,2.09 7.08,9.78 8.26,26.75 7.96,30.43 -0.43,5.25 -9.71,7.42 -15.33,8.53 -5.62,1.13 -5.86,9.42 -1.12,9.18 4.73,-0.24 7.99,-0.59 13.82,-1.54 6.7,-1.09 8.05,16.5 8.54,31.13 0.48,14.21 -2.09,25.12 -4.62,26.53 -1.87,1.05 -8.72,-2.99 -13.48,-3.39 -2.64,-0.22 -4.84,3.7 -4.84,5.56 0,2.8 -0.95,1.28 12.65,9.15 4.28,2.48 3.1,10.12 0.5,14.29 -2.04,3.27 -6.3,-1.2 -9.03,-3.36 -2.73,-2.17 -7.3,-5.52 -8.75,-4.96 -1.44,0.56 -3.33,7.45 -2.63,9.07 1.48,3.4 10.61,5.98 13.12,11.62 z m -237.73,-288.62 c 0.12,4.05 -2.25,3.72 -2.25,3.72 0,0 -8.91,-12.4 -16.35,-20.41 -7.44,-8.01 -11.5,-11.84 -16.91,-11.73 -5.41,0.12 4.62,9.25 7.89,18.38 3.27,9.13 3.04,14.21 3.04,14.21 0,0 -3.04,2.36 -6.09,-3.16 -3.04,-5.52 -11.38,-13.08 -23.11,-21.42 -9.314,-6.63 -12.63,-23.34 -1.13,-32.47 7.29,-5.78 21.65,-4.63 35.75,10.26 14.09,14.88 19.05,38.56 19.16,42.62 z m -74.933,86.94 c -3.672,-3.59 -23.454,-36.67 -6.555,-44.31 17.402,-7.87 32.268,26.21 34.008,36.08 1.41,7.97 -4.1,6.13 -4.1,6.13 0,0 -12.857,-20.72 -17.756,-18.45 -4.793,2.23 1.309,21.77 1.309,21.77 -1.481,2.8 -5.238,0.4 -6.906,-1.22 z m 29.313,-39.7 c -1.91,1.69 -8.23,-6.76 -8.23,-6.76 0,0 -0.79,-6.43 -3.84,-11.51 -3.04,-5.07 -12.509,-19.73 -4.841,-24.46 7.671,-4.74 17.251,-2.34 26.271,13.42 9.36,16.34 9.24,40.47 8.34,42.95 -0.9,2.48 -3.38,1.58 -3.83,-1.24 -0.45,-2.82 -2.48,-13.08 -8.34,-25.37 -5.87,-12.29 -9.13,-9.92 -9.13,-9.92 0,0 0.78,3.5 2.81,10.04 2.03,6.54 0.79,12.85 0.79,12.85 z m -17.235,-170.22 c 18.125,-8.04 32.595,15.62 35.645,30.5 2.6,12.64 -5.36,15.63 -5.36,15.63 0,0 -4.15,-9.65 -7.57,-15.48 -4.08,-6.97 -9.8,-14.34 -13.62,-13.11 -3.81,1.23 3.57,10.24 4.87,21.29 0.5,4.2 1.14,11.12 -2.43,12.23 -4.61,-2.44 -9.77,-9.48 -13.457,-17.64 -5.758,-12.74 -8.168,-28.94 1.922,-33.42 z m 91.265,194.17 c 0.35,4.06 -4.03,4.04 -4.03,4.04 0,0 -11.72,-30.57 -23.02,-26.57 -5.42,1.91 4.09,24.35 4.09,24.35 0,0 -1.99,0.31 -4.94,-1.74 -4.51,-3.13 -11.03,-10.17 -14.38,-19.7 -5.07,-14.43 0.07,-20.92 5.87,-23.68 8.79,-4.17 33.52,8.52 36.41,43.3 z m 9.06,64.14 c 2.65,-12.34 11.63,-38.89 25.79,-48.75 14.16,9.86 23.13,36.41 25.78,48.75 3.09,14.37 7.89,44.97 -0.77,52.08 -8.65,7.12 -16.78,8.12 -17.16,6.5 -1.92,-8.07 -1.99,-22.15 -1.99,-47.04 0,-15.82 -3.82,-28.77 -5.86,-28.77 -2.04,0 -5.86,12.95 -5.86,28.77 0,24.89 -0.07,38.97 -1.99,47.04 -0.39,1.62 -8.51,0.62 -17.16,-6.5 -8.66,-7.11 -3.87,-37.71 -0.78,-52.08 z m 63.49,119.95 c 7.91,-1.67 17.65,-7.09 19.81,-1.46 2.08,5.43 -7.97,9.28 -13.48,10.42 -7.51,1.56 -13.97,-0.42 -18.7,-2.35 -2.18,-0.89 -5.08,-4.64 -0.1,-5.22 4.98,-0.57 7.7,-0.39 12.47,-1.39 z m -25.46,-0.59 c -1.66,-0.89 -1.23,-2.41 -0.13,-3.93 5.9,-8.24 13.99,-17.86 21.42,-12.63 2.47,1.73 0.7,7.16 -7.76,12.22 -2.73,1.64 -10.19,6.14 -13.53,4.34 z m 87.68,-403.44 c -11.95,12.99 -19.02,20.16 -19.02,20.16 0,0 -2.39,0.94 -3.12,-0.94 0,0 5.67,-20.09 8.27,-24.14 2.6,-4.06 7.22,-12.59 6.85,-13.61 -0.36,-1 -2.78,-3.21 -5.17,-0.93 -2.39,2.29 -7.66,12.18 -11.3,15.61 -3.41,3.21 -10.2,13.46 -13.95,15.5 0,0 -1.24,0 -1.59,-0.2 -2.43,-3.95 -0.68,-29.49 14.81,-45.97 13.69,-14.55 27.52,-18.46 35.45,-13.09 14.13,9.56 9.63,24.93 -11.23,47.61 z m -106.37,378.33 c 4.7,1.9 1.42,12.07 6.45,12.07 5.03,0 1.75,-10.17 6.45,-12.07 3.01,-1.22 5.51,1.33 5.3,4.6 -0.11,1.61 -2.66,17.43 -11.75,17.43 -9.1,0 -11.65,-15.82 -11.75,-17.43 -0.21,-3.27 2.29,-5.82 5.3,-4.6 z m 101.56,-507.18 c 0,0 -7.47,-42.201 -7.47,-52.561 0,-10.371 2.91,-16.769 7.47,-16.769 4.57,0 7.47,6.582 7.47,16.679 0,11.582 -3.84,44.781 -5.23,52.651 z m 7.69,50.69 c -6.42,8.44 -16.47,14.92 -18.37,16.19 -3.98,2.64 -4.88,1.12 -5.64,0.29 0,0 17.16,-25.4 11.92,-29.32 -5.24,-3.91 -20.25,19.44 -20.25,19.44 -1.82,-2.04 -2.04,-3.32 -0.72,-7.17 0.38,-1.11 4.08,-10.97 10.83,-19.24 7.28,-8.91 17.88,-15.28 24.93,-8.23 7.1,7.09 4.31,18.83 -2.7,28.04 z m 82.06,290.46 c -11.27,14.41 -20.27,34.99 -22.13,37.56 -1.86,2.57 -6.7,4.57 -5.99,-1.14 0.71,-5.71 14.18,-44.6 23.75,-57.59 9.56,-12.98 32.71,-25.53 36.85,-26.67 6.85,4.43 8.85,14.56 7.42,17.84 0,0 -28.63,15.58 -39.9,30 z M 1008.05,940.309 c -0.69,3.55 -40.417,219.911 -30.788,360.731 0.066,1.01 -3.629,-1.94 -3.77,-2.28 -13.859,-34.04 -27.785,-48.41 -27.597,-59.81 0.46,-28.17 22.359,-246.009 52.839,-318.93 1.168,-2.79 11.226,10.492 9.316,20.289 z m -51.784,475.561 c 3.211,-7.07 10.281,-8.35 15.257,-12.44 4.977,-4.1 7.625,-4.18 9.793,0.23 2.164,4.42 7.786,16.46 13.164,21.84 5.379,5.38 8.51,3.53 5.7,-0.8 -2.809,-4.34 -15.637,-27.77 -7.5,-32.66 6.203,-3.72 9.71,-5.12 12.74,-5.29 4.78,-0.29 6.56,0.38 7.93,4.95 1.36,4.58 3.98,8.12 6.98,7.55 1.7,-0.32 0.1,-6.28 1.38,-10.45 1.29,-4.17 2.81,-6.58 8.26,-6.89 6.52,-0.38 14.97,-0.11 17.43,0.72 4.51,1.53 1.52,20.17 2.9,29.07 0.59,3.85 1.91,6.12 4.31,4.75 0.81,-15.4 13.88,-29.51 13.88,-29.51 0,0 6.33,0.52 13.34,6.49 4.66,3.98 1.91,11.93 1.91,11.93 0,0 -5.53,0.87 -10.35,5.29 -4.81,4.41 -9.71,13 -6.66,20.07 3.05,7.06 4.42,-5.3 10.68,-8.51 6.26,-3.21 6.34,1.2 3.69,5.14 -2.65,3.93 -10.51,17.58 -6.42,20.23 4.09,2.65 3.53,-2.09 6.1,-2.97 2.57,-0.89 2.16,16.94 2.16,16.94 0,0 -4.53,3.88 -9.44,-1.53 -4.81,-5.31 -9.57,-10.13 -18.89,-13.16 -3.07,-1.01 0,-14.37 -3.13,-14.93 -3.13,-0.57 -5.38,10.03 -10.51,9.62 -5.14,-0.4 -7.9,-35.03 -12.37,-34.27 -5.97,1.01 -1.03,36.36 -1.03,36.36 0,0 -4.35,3.13 -10.13,4.9 -5.78,1.76 -10.67,2.49 -10.67,2.49 0,0 -5.36,-1.32 -11.625,-10.01 -5.93,-8.22 -6.719,-12.17 -8.747,-11.26 -2.789,1.25 -0.339,12.87 8.887,22.08 4.309,4.29 2.852,5.94 2.852,5.94 0,0 -4.559,6.22 -9.942,5.09 -5.375,-1.12 -15.625,-9.41 -18.996,-15.08 -3.785,-6.36 -7.715,-5.12 -7.414,1.16 0.317,6.55 -0.043,8.34 7.367,13.86 7.493,5.58 10.762,6.99 12.118,9.73 0.761,1.53 0.652,16.73 -5.817,23.51 -2.219,2.33 -1.215,3.55 -14.773,5.55 -9.914,1.47 -19.832,-0.47 -19.418,3.46 0.355,3.46 11.211,10.49 36.043,5.05 2.75,-0.6 4.629,1.03 5.375,4.98 0.988,5.22 3.418,12.4 4.925,16.09 1.317,3.21 1.821,4.5 -3.183,8.28 -6.844,5.17 -9.902,9.61 -11.109,12.9 -1.208,3.29 1.25,10.87 5.91,6.7 4.656,-4.17 9.656,-8.63 15.816,-11.96 4.027,-2.19 15.451,2.54 12.721,6.39 -1.52,2.15 -6.86,8.19 -10.873,16.22 -4.016,8.03 -4.567,13.02 -8.168,16.33 -2.946,2.71 -20.75,7.8 -24.086,6.68 -3.805,-1.27 -11.496,-4.27 -12.457,-6.34 -1.946,-4.21 -4.371,-7.35 -2.465,-11.65 2.504,-5.64 11.633,-8.22 13.113,-11.62 0.699,-1.62 -1.187,-8.51 -2.633,-9.07 -1.445,-0.56 -6.019,2.79 -8.746,4.96 -2.734,2.16 -6.992,6.63 -9.027,3.36 -2.598,-4.17 -3.785,-11.81 0.496,-14.29 13.594,-7.87 12.652,-6.35 12.652,-9.15 0,-1.86 -2.199,-5.78 -4.839,-5.55 -4.758,0.39 -11.61,4.43 -13.489,3.38 -2.527,-1.41 -5.09,-12.32 -4.617,-26.53 0.488,-14.63 1.844,-32.22 8.539,-31.13 5.836,0.95 9.09,1.3 13.824,1.54 4.743,0.24 4.504,-8.05 -1.113,-9.18 -5.625,-1.11 -14.902,-3.28 -15.332,-8.53 -0.301,-3.68 0.875,-20.64 7.953,-30.43 1.969,-2.72 5.281,-2.09 5.281,-2.09 0,0 2.731,4.17 4.821,4.17 2.082,0 2.726,-1.28 0.476,-5.05 -2.246,-3.78 -4.011,-6.59 -0.804,-13.65 z m 2.398,-83.32 c -1,-3.56 -3.656,-12.05 -12.527,-22.93 -12.559,-15.42 -40.321,-26.45 -40.321,-26.45 0,0 -0.746,-13.26 1.391,-17.68 2.145,-4.43 6.191,-2.41 6.191,-2.41 0,0 19.79,6.51 30.204,16.49 18.527,17.77 19.628,51.84 19.488,55.56 -0.145,3.71 -3.43,1 -4.426,-2.58 z m 62.916,-376.691 c 0,-10.097 2.91,-16.679 7.47,-16.679 4.57,0 7.47,6.398 7.47,16.769 0,10.36 -7.47,52.561 -7.47,52.561 h -2.23 c -1.39,-7.87 -5.24,-41.069 -5.24,-52.651 z m 41.69,192.951 c -0.34,0.2 -1.59,0.2 -1.59,0.2 -3.74,-2.04 -10.53,-12.29 -13.94,-15.5 -3.64,-3.43 -8.92,-13.32 -11.3,-15.61 -2.4,-2.28 -4.82,-0.07 -5.18,0.93 -0.36,1.02 4.26,9.55 6.86,13.61 2.59,4.05 8.27,24.14 8.27,24.14 -0.73,1.88 -3.12,0.94 -3.12,0.94 0,0 -7.07,-7.17 -19.03,-20.16 -20.86,-22.68 -25.357,-38.05 -11.22,-47.61 7.93,-5.37 21.76,-1.46 35.44,13.09 15.5,16.48 17.25,42.02 14.81,45.97 z m -19.67,-109.42 c 6.75,8.27 10.44,18.13 10.82,19.24 1.33,3.85 1.11,5.13 -0.71,7.17 0,0 -15.01,-23.35 -20.25,-19.44 -5.24,3.92 11.91,29.32 11.91,29.32 -0.76,0.83 -1.66,2.35 -5.63,-0.29 -1.9,-1.27 -11.95,-7.75 -18.38,-16.19 -7.01,-9.21 -9.8,-20.95 -2.7,-28.04 7.05,-7.05 17.65,-0.68 24.94,8.23 z m 183.93,280.99 c -5.86,12.29 -7.89,22.55 -8.34,25.37 -0.45,2.82 -2.94,3.72 -3.84,1.24 -0.9,-2.48 -1.01,-26.61 8.35,-42.95 9.01,-15.76 18.6,-18.16 26.27,-13.42 7.66,4.73 -1.81,19.39 -4.85,24.46 -3.04,5.08 -3.83,11.51 -3.83,11.51 0,0 -6.32,8.45 -8.24,6.76 0,0 -1.24,-6.31 0.79,-12.85 2.03,-6.55 2.82,-10.04 2.82,-10.04 0,0 -3.27,-2.37 -9.13,9.92 z m -103.36,284.75 c -9.38,0 -15.12,-8.73 -13.97,-15.62 1.15,-6.89 2.9,-8.77 4.27,-10.45 0.87,-1.06 3.35,0.07 2.86,1.6 -0.47,1.54 -1.57,11.23 6.84,11.23 8.41,0 7.32,-9.69 6.84,-11.23 -0.48,-1.53 2,-2.66 2.86,-1.6 1.37,1.68 3.12,3.56 4.27,10.45 1.15,6.89 -4.59,15.62 -13.97,15.62 z m 44.75,-47.03 c 7.73,0.77 9.86,1.01 23,-3.28 14.91,-4.87 20.7,-0.69 22.18,0.23 1.48,0.93 4.95,7.16 -0.46,7.17 -11.98,0.01 -19.2,4 -27.73,4.85 -8.53,0.85 -16.63,-1.99 -19.98,-3.85 -2.95,-1.64 -2.18,-5.64 2.99,-5.12 z m 35.48,27.09 c -16.06,0.68 -21.66,-5.95 -23.06,-7.91 -1.27,-1.78 -0.42,-3.23 1.28,-2.97 1.7,0.26 13.25,5.03 32.88,-2.97 8.84,-3.61 15.29,-2.32 16.45,-0.34 5.2,8.8 -20.92,13.9 -27.55,14.19 z m -120.29,9.35 c -10.46,-6.13 -7.18,-17.64 -2.21,-21.47 3.5,-2.69 6.71,-0.3 6.88,1.71 -4.13,8.76 8.3,13.51 11.53,6.81 2.19,-1.16 4.51,1.32 3.93,4.95 -1.29,8.14 -11.88,12.82 -20.13,8 z m 40.08,34.14 c -10.57,0 -19.82,-9.07 -20.56,-16.07 1.58,-2.23 3.64,-5.17 7.57,-2.23 2.93,2.18 6.43,5.77 12.99,5.77 6.56,0 10.05,-3.59 12.98,-5.77 3.92,-2.94 5.99,0 7.57,2.23 -0.74,7 -9.99,16.07 -20.55,16.07 z m -80.25,-43.49 c -6.64,-0.29 -32.75,-5.39 -27.56,-14.19 1.17,-1.98 7.62,-3.27 16.46,0.34 19.63,8 31.18,3.23 32.88,2.97 1.7,-0.26 2.54,1.19 1.27,2.97 -1.4,1.96 -7,8.59 -23.05,7.91 z m 18.48,-18.12 c -8.52,-0.85 -15.75,-4.84 -27.72,-4.85 -5.42,-0.01 -1.95,-6.24 -0.47,-7.17 1.49,-0.92 7.27,-5.1 22.18,-0.23 13.15,4.29 15.27,4.05 23.01,3.28 5.17,-0.52 5.93,3.48 2.98,5.12 -3.35,1.86 -11.45,4.7 -19.98,3.85 z m 164.04,-92.54 c -13.23,-5.9 -28.18,0.35 -34.41,14.34 -3.76,8.43 -0.77,14.38 1.55,9.18 5.12,-11.5 17.41,-16.63 28.28,-11.78 10.88,4.84 14.33,18.36 9.21,29.86 -1.27,2.84 4.05,0.4 6.58,-5.26 6.23,-13.99 2.03,-30.44 -11.21,-36.34 z m -27.78,64.48 c -21.18,-7.17 -29.07,-31.53 -21.84,-52.91 7.23,-21.39 29.04,-32.35 50.22,-25.19 21.18,7.16 30.29,30.96 23.05,52.34 -7.23,21.39 -30.26,32.92 -51.43,25.76 z m -34.48,55.55 c -8.26,4.79 -18.84,0.07 -20.09,-8.08 -0.56,-3.63 1.77,-6.1 3.96,-4.94 3.19,6.72 15.65,2.02 11.56,-6.75 0.17,-2.01 3.39,-4.39 6.88,-1.68 4.95,3.85 8.18,15.37 -2.31,21.45 z M 1195.43,1314 c 5.81,2.76 10.94,9.25 5.87,23.68 -3.35,9.53 -9.87,16.57 -14.37,19.7 -2.96,2.05 -4.94,1.74 -4.94,1.74 0,0 9.5,-22.44 4.09,-24.35 -11.31,-4 -23.01,26.56 -23.01,26.56 0,0 -4.39,0.03 -4.05,-4.03 2.9,-34.78 27.62,-47.47 36.41,-43.3 z m -71.26,-84.8 v 0 c 21.59,0 29.58,16.46 33.73,33.34 6.3,25.71 -1.81,65.62 -4.51,71.14 -2.72,5.53 -6.66,2.03 -6.66,2.03 0,0 5.88,-27.33 1.83,-43.71 -2.7,-10.95 -7.89,-14.77 -9.21,-8.31 -2.92,14.35 -1.78,27.45 -1.53,33.31 0.25,5.44 -3.55,11.16 -4.49,8.59 -3.95,-10.69 -10.32,-37.14 -5.89,-56.28 0.62,-2.68 1.57,-5.57 2.14,-8.15 0.62,-2.75 0.8,-5.17 -0.4,-6.66 -2.75,-3.42 -10.31,4.2 -12.18,10.93 -4.81,17.33 -0.12,34.3 -2.21,43.89 -0.58,2.68 -4.41,1.35 -4.45,-1.41 -0.12,-7.18 0.13,-14.31 -3.74,-14.54 -3.42,-0.21 -6,5.69 -7.02,15.13 -1.54,14.2 2.04,27.21 2.04,27.21 0,0 -3.95,3.5 -6.66,-2.03 -2.7,-5.52 -10.82,-45.43 -4.51,-71.14 4.15,-16.88 12.14,-33.34 33.72,-33.34 z m -33.53,295.04 c 7.43,-5.23 15.51,4.39 21.42,12.63 1.09,1.52 1.52,3.04 -0.14,3.93 -3.33,1.8 -10.8,-2.7 -13.53,-4.34 -8.46,-5.06 -10.22,-10.49 -7.75,-12.22 z m 8.2,23.76 c -4.74,1.93 -11.2,3.91 -18.71,2.35 -5.5,-1.14 -15.56,-4.99 -13.48,-10.42 2.17,-5.63 11.9,-0.21 19.82,1.46 4.76,1 7.49,0.82 12.46,1.39 4.99,0.58 2.09,4.33 -0.09,5.22 z m 151.44,-384.87 c 10.09,4.48 7.68,20.68 1.93,33.42 -3.69,8.16 -8.85,15.2 -13.46,17.64 -3.58,-1.11 -2.93,-8.03 -2.44,-12.23 1.31,-11.05 8.69,-20.06 4.88,-21.29 -3.82,-1.23 -9.54,6.14 -13.62,13.11 -3.43,5.83 -7.57,15.48 -7.57,15.48 0,0 -7.96,-2.99 -5.37,-15.63 3.06,-14.88 17.53,-38.54 35.65,-30.5 z m -7.94,70.1 c 11.5,9.13 8.19,25.84 -1.13,32.47 -11.72,8.34 -20.07,15.9 -23.11,21.42 -3.04,5.52 -6.09,3.16 -6.09,3.16 0,0 -0.22,-5.08 3.05,-14.21 3.26,-9.13 13.3,-18.26 7.89,-18.38 -5.41,-0.11 -9.48,3.72 -16.92,11.73 -7.44,8.01 -16.34,20.41 -16.34,20.41 0,0 -2.37,0.33 -2.26,-3.72 0.11,-4.06 5.07,-27.74 19.17,-42.62 14.09,-14.89 28.46,-16.04 35.74,-10.26 z m 26.59,95.51 c 16.89,7.64 -2.89,40.72 -6.56,44.31 -1.67,1.62 -5.42,4.02 -6.91,1.22 0,0 6.1,-19.54 1.31,-21.77 -4.9,-2.27 -17.75,18.45 -17.75,18.45 0,0 -5.52,1.84 -4.11,-6.13 1.75,-9.88 16.61,-43.95 34.02,-36.08 z m -251.67,187.39 c -5.12,-11.5 -1.67,-25.02 9.2,-29.86 10.88,-4.85 23.16,0.28 28.28,11.78 2.32,5.2 5.32,-0.75 1.56,-9.18 -6.24,-13.99 -21.19,-20.24 -34.42,-14.34 -13.23,5.9 -17.43,22.35 -11.2,36.34 2.52,5.66 7.84,8.1 6.58,5.26 z m -19.03,-2.88 c -7.226,-21.38 1.88,-45.18 23.05,-52.34 21.18,-7.16 42.99,3.8 50.22,25.19 7.24,21.38 -0.66,45.74 -21.83,52.91 -21.18,7.16 -44.21,-4.37 -51.44,-25.76 z M 1878.4,880.66 c -6.69,-20.488 -17.25,-31.34 -21.45,-35.101 -6.31,-1.18 -24.67,1.312 -36.29,4.562 -1.31,1.777 -0.6,5.59 1.19,6.09 13.62,-0.402 40.78,1.789 50.03,30.078 6.69,20.492 -3.46,34.871 -18.09,39.652 -10.74,3.5 -23.41,5.207 -40.67,-8.851 l -22.7,-18.231 c -12.03,-9.57 -30.55,-19.168 -50.54,-12.64 -23.17,7.562 -36.06,31.742 -25.7,63.453 2.46,7.558 6.8,15.859 10.57,21.637 2.01,2.851 3.62,6.113 4.25,8.062 6.58,0.277 20.94,-1.98 31.19,-5.332 1.15,-1.449 0.6,-5.59 -1.26,-6.328 -12.74,0.648 -30.74,-0.762 -38.38,-24.172 -7.81,-23.898 6.37,-34.199 17.59,-37.859 14.14,-4.621 28.21,3.742 36.76,10.929 l 18.57,15.532 c 14.53,12.257 33.61,22.757 56.78,15.187 26.82,-8.758 38.5,-34.969 28.15,-66.668 z M 1670.64,761.27 c -22.73,14.949 -26.65,16.921 -36.05,4.968 l -3.95,-5.078 c -1.7,-0.719 -5.28,2.25 -5.08,3.961 7.48,10.438 12.49,17.59 18.41,26.598 5.64,8.57 10.22,16.011 16.84,27 1.49,0.863 5.63,-1.25 5.65,-3.098 l -3.1,-5.641 c -7.25,-13.351 -3.88,-16.179 18.84,-31.128 l 76.33,-50.204 c 22.73,-14.937 26.01,-16.488 35.83,-4.82 l 4.17,4.934 c 1.7,0.718 5.28,-2.242 5.07,-3.942 -7.47,-10.441 -12.48,-17.59 -18.12,-26.172 -5.92,-9 -10.5,-16.437 -17.13,-27.437 -1.48,-0.871 -5.19,0.961 -5.64,3.09 l 2.89,5.789 c 6.82,13.629 4.1,16.039 -18.63,30.98 z m -22.32,-226.5 c -16.11,-14.321 -30.7,-18.372 -36.22,-19.5 -6.05,2.171 -20.65,13.57 -29.04,22.242 -0.24,2.199 2.3,5.136 4.09,4.668 11.57,-7.219 36.14,-19.032 58.38,0.75 16.11,14.32 14.59,31.859 4.36,43.359 -7.5,8.441 -17.58,16.301 -39.59,12.871 l -28.79,-4.308 c -15.21,-2.204 -36.05,-1.161 -50.03,14.57 -16.19,18.219 -15.13,45.598 9.8,67.758 5.94,5.281 13.87,10.269 20.04,13.359 3.18,1.449 6.21,3.449 7.74,4.82 5.81,-3.07 17.09,-12.269 24.25,-20.328 0.26,-1.832 -2.3,-5.133 -4.28,-4.832 -10.68,6.981 -26.94,14.84 -45.35,-1.519 -18.79,-16.711 -11.73,-32.758 -3.89,-41.578 9.88,-11.122 26.25,-10.993 37.27,-9.09 l 23.86,4.047 c 18.73,3.261 40.51,2.711 56.71,-15.5 18.74,-21.098 15.62,-49.629 -9.31,-71.789 z m -180.61,-69.782 c 2.87,-7.148 14.24,-35.476 17.44,-41.379 0.09,-1.621 -0.85,-3.39 -3.47,-4.437 -4.49,2.898 -14.74,8.457 -44.91,23.719 l -80.48,40.679 c -9.39,4.801 -33.42,17.821 -40.52,21.051 l -0.47,-0.191 c 0.19,-3.231 2.15,-8.809 5.01,-15.95 l 20.85,-51.91 c 4.49,-11.191 17.15,-42.039 24.07,-47.558 2.48,-2.051 7.81,-1.571 13.95,0.347 l 7.68,2.25 c 2.19,-1.328 3.09,-4.289 1.91,-6.14 -10.91,-3.828 -19.34,-6.938 -28.14,-10.481 -10,-4.008 -16.34,-6.828 -24.49,-10.648 -2.14,0.519 -3.71,3.762 -2.86,5.762 l 6.15,3.296 c 5.18,2.911 8.42,5.872 8.56,8.961 -0.11,9.911 -12.01,38.86 -16.6,50.289 l -27.62,68.813 c -2.67,6.668 -4.92,11.57 -12.12,15.039 -4.67,2 -11.06,1.371 -17.06,-0.211 l -4.24,-1.148 c -1.99,0.859 -3.43,4.429 -1.91,6.148 10.29,3.301 22.91,8.371 27.2,10.09 3.8,1.519 7.75,3.391 10.66,5.109 9.63,-10.238 50.35,-30.386 61.74,-36.039 l 33.51,-16.679 c 23.79,-11.739 40.82,-20.391 56.59,-27.321 l 0.48,0.18 c 0.47,1.582 -1.06,5.391 -3.06,10.391 l -20.46,50.949 c -4.49,11.191 -17.16,42.051 -24.55,47.371 -2.28,1.582 -6.67,1.48 -16.67,-1.16 l -4.24,-1.149 c -2.24,0.758 -3.54,4.668 -1.91,6.149 11.14,3.922 19.33,6.929 28.38,10.558 10.24,4.114 16.33,6.832 24.23,10.563 2.39,-0.43 3.73,-3.762 2.87,-5.762 l -3.14,-1.82 c -7.14,-4.25 -11.14,-8.059 -11.33,-10.348 -0.6,-10.199 11.73,-39.531 16.13,-50.48 z m -377.47,6.793 c -0.44,26.68 -1.01,30.52 -16.17,32.071 l -4.11,0.437 c -1.56,1 -1.12,5.633 0.4,6.43 11.04,-0.34 19.77,-0.457 30.29,-0.289 l 48.21,0.789 c 16.41,0.261 31.54,0.511 34.61,1.332 1.61,-4.34 3.45,-22.781 4.65,-34.051 -0.99,-1.551 -5.08,-2.129 -6.39,-0.609 -4.05,11.988 -6.51,20.929 -19.89,24.039 -5.4,1.199 -13.62,1.332 -24.9,1.14 l -18.47,-0.3 c -7.69,-0.129 -7.69,-0.641 -7.53,-10.379 l 0.83,-51.301 c 0.12,-7.18 0.89,-7.168 8.58,-7.039 l 14.88,0.238 c 10.78,0.172 18.71,0.82 21.77,1.891 3.06,1.082 4.84,2.648 6.02,9.082 l 1.88,10.547 c 1.26,1.562 5.61,1.632 6.67,-0.168 0.1,-6.161 -0.77,-16.172 -0.61,-25.922 0.15,-9.231 1.33,-18.957 1.42,-24.59 -0.99,-1.809 -5.35,-1.879 -6.65,-0.359 l -2.47,9.96 c -1.11,4.598 -2.96,8.418 -8.11,9.622 -3.61,0.968 -9.77,1.128 -19.77,0.957 l -14.88,-0.239 c -7.69,-0.121 -8.46,-0.39 -8.35,-7.058 l 0.58,-36.16 c 0.22,-13.602 1.13,-22.301 5.31,-26.602 3.13,-3.02 8.55,-5.762 31.13,-5.391 19.75,0.321 27.16,1.461 32.77,4.379 4.57,2.633 11.35,11.731 17.8,25.172 1.77,1.309 5.38,0.602 6.44,-1.691 -1.65,-9.008 -7.74,-28.86 -10.96,-35.84 -23.09,0.141 -45.92,0.031 -68.74,-0.34 l -23.09,-0.379 c -11.03,-0.18 -19.74,-0.582 -34.87,-1.34 -1.55,0.75 -2.13,4.852 -0.61,6.41 l 8.44,0.911 c 14.6,1.519 15.82,5.379 15.39,32.32 z M 962.465,381.57 c -3.07,-9.789 -3.442,-16.129 0.43,-19.218 0.503,-0.973 0.043,-2.43 -1.168,-2.864 -2.93,0.922 -7.653,1.321 -12.68,1.551 -14.047,0.633 -32.594,3.211 -45.813,7.352 -29.136,9.121 -53.281,25.55 -66.16,50.55 -10.09,19.278 -11.871,41.071 -5.125,62.618 6.508,20.8 19.957,39.711 40.196,51.121 21.761,12 49.597,15.922 86.562,4.351 13.961,-4.371 26.09,-11.121 29.945,-13.41 4.348,-2.43 11.388,-6.519 14.478,-6.949 -2.52,-8.082 -5.04,-21.274 -7.431,-36.652 -1.351,-1.731 -5.836,-0.59 -6.84,1.339 1.418,28.582 -14.336,42.653 -39.3,50.469 -47.493,14.871 -78.879,-12.398 -90.375,-49.117 -14.704,-47.012 -2.039,-91.563 47.16,-106.961 15.176,-4.75 25.23,-4.398 29.226,-1.078 1.758,1.328 4.364,5.348 6.821,13.18 l 3.058,9.789 c 6.438,20.57 6.164,22.269 -8.476,28.73 l -10.383,4.598 c -1.66,1.59 -0.031,5.922 1.906,6.101 6.953,-2.711 20.336,-7.172 34.781,-11.691 9.543,-2.988 17.946,-5.348 26.18,-7.367 1.406,-1.524 0.504,-5.274 -1.672,-6.203 l -4.066,0.742 c -10.668,1.988 -13.059,-4.789 -16.965,-17.27 z M 695.41,582.09 c -2.691,-3.75 -4.336,-6.051 -4.305,-7.328 0.176,-1.071 3.004,-3.731 13.649,-11.352 7.508,-5.371 16.027,-10.211 25.363,-9.949 8.774,0.348 18.797,4.211 28.953,18.398 11.797,16.481 12.778,39.45 -10.386,56.02 -12.93,9.262 -14.157,8.871 -18.336,3.031 z m 4.246,42.082 c 14.18,19.816 16.098,23.816 8.285,30.976 l -6.082,5.614 c -0.711,2.09 1.68,5.429 3.954,5.07 12.425,-7.32 27.265,-16.992 47.71,-31.633 12.938,-9.258 24.5,-19.109 30.36,-31.199 6.285,-12.379 6.863,-27 -3.582,-41.602 -14.188,-19.82 -37.61,-19.468 -51.028,-16.168 -1.937,-0.511 -2.378,-3.339 -2.535,-5.761 -2.574,-38.86 -3.465,-63.457 2.211,-85.508 1.301,-5.66 4.883,-11.691 10.215,-16.141 0.746,-1.172 -0.242,-2.992 -1.887,-3.07 -2.32,0.719 -5.961,2.691 -9.925,5.531 -17.731,12.688 -24.633,25.52 -24.368,57.188 0.106,11.609 1.852,32.121 2.102,46.14 0.164,6.832 -1.688,11.313 -10.031,17.282 -9.387,6.718 -9.957,6.808 -13.094,2.429 l -18.809,-26.289 c -15.683,-21.902 -17.058,-24.711 -6.148,-35.043 l 3.93,-3.758 c 0.507,-1.941 -2.45,-5.191 -4.153,-4.921 -9.082,7.14 -16.039,12.429 -24.383,18.402 -8.757,6.269 -16.418,11.437 -26.523,18.039 -0.801,1.52 1.02,4.949 3.32,5.52 l 5.66,-3.11 c 13.153,-7.199 15.504,-4.789 31.188,17.121 z M 570.574,770.289 c 21.34,16.02 24.114,18.742 16.453,31.922 l -2.05,3.598 c -0.11,1.839 3.898,4.203 5.437,3.441 6.215,-9.129 11.242,-16.262 17.563,-24.668 l 28.964,-38.57 c 9.864,-13.133 18.954,-25.242 21.414,-27.242 -2.566,-3.848 -16.414,-16.168 -24.816,-23.77 -1.848,-0.102 -4.726,2.871 -4.262,4.82 7.325,10.321 13.125,17.559 7.778,30.231 -2.215,5.078 -6.934,11.801 -13.707,20.82 l -11.098,14.77 c -4.621,6.16 -5.031,5.847 -12.824,-0.012 L 558.383,734.82 c -5.738,-4.308 -5.281,-4.929 -0.649,-11.082 l 8.934,-11.898 c 6.465,-8.621 11.66,-14.668 14.32,-16.52 2.672,-1.84 4.981,-2.351 10.883,0.469 l 9.641,4.68 c 2.004,-0.098 4.621,-3.59 3.801,-5.489 -4.926,-3.699 -13.54,-8.89 -21.336,-14.742 -7.379,-5.547 -14.563,-12.226 -19.082,-15.609 -2.051,-0.258 -4.668,3.23 -4.204,5.18 l 6.614,7.851 c 3.078,3.602 5.074,7.352 3.019,12.219 -1.34,3.492 -4.832,8.57 -10.844,16.57 l -8.937,11.891 c -4.617,6.16 -5.281,6.621 -10.621,2.621 L 510.996,699.23 c -10.875,-8.171 -17.383,-14.019 -18.402,-19.921 -0.621,-4.309 0.355,-10.309 13.922,-28.368 11.863,-15.8 17.144,-21.132 22.797,-23.953 4.824,-2.148 16.164,-2.289 30.832,0.383 2.109,-0.672 3.656,-4 2.418,-6.211 -8.262,-3.949 -27.911,-10.691 -35.446,-12.18 -13.457,18.77 -26.965,37.192 -40.679,55.45 l -13.864,18.461 c -6.625,8.82 -12.07,15.64 -21.566,27.437 -0.313,1.692 2.66,4.57 4.82,4.262 l 5.695,-6.309 c 9.809,-10.922 13.657,-9.633 35.196,6.539 z M 468.949,916.871 c -6.738,-2.48 -7.129,-2.891 -2.129,-15 9.989,-24.199 22.09,-34.781 44.711,-26.461 23.598,8.68 26.043,29.531 19.313,47.82 -1.946,5.301 -3.758,8.739 -5.512,10.551 -1.613,2.141 -3.164,2.66 -7.5,1.071 z m -55.847,-20.543 c -8.668,-3.187 -20.77,-8.18 -24.379,-14.699 -3.864,-6.617 -2.414,-14.277 0.25,-21.5 7.879,-21.43 23.523,-34.258 47.609,-25.399 19.012,6.989 37.621,24.758 23.543,63.051 -4.785,13 -6.574,13.43 -11.398,11.66 z m 80.617,52.063 c 17.812,6.55 22.035,9.199 19.008,20.379 l -2.106,7.968 c 0.731,2.461 4.438,3.551 6.102,1.981 5.992,-12.559 12.738,-28.66 20.965,-51.059 5.578,-15.16 9.691,-30.051 8.136,-42.922 -1.25,-12.218 -7.961,-23.699 -23.371,-29.367 -17.328,-6.371 -29.957,0.461 -42.008,12.43 -2.41,-0.891 -2.425,-3.082 -1.937,-5.903 2.383,-13.886 -2.574,-37.578 -28.336,-47.046 -27.926,-10.27 -54.32,3.527 -70.262,46.878 -2.566,6.981 -6.176,19.04 -9.902,29.149 -3.895,10.59 -7.387,18.601 -10.906,27.422 0.195,1.699 3.871,3.597 5.843,2.687 l 2.325,-4.066 c 6.847,-11.961 9.675,-11.473 34.957,-2.172 z M 1733.58,1227.44 c -3.1,21.33 1.54,35.75 3.63,40.99 5.15,3.86 22.69,9.78 34.56,12.03 1.95,-1.01 3.01,-4.75 1.64,-5.98 -12.4,-5.7 -35.76,-19.73 -31.47,-49.19 3.11,-21.33 18.58,-29.71 33.82,-27.49 11.17,1.63 23.29,5.73 32.52,26 l 12.23,26.42 c 6.53,13.91 18.86,30.75 39.68,33.78 24.13,3.52 46.41,-12.43 51.22,-45.43 1.16,-7.88 0.96,-17.24 0.14,-24.1 -0.54,-3.45 -0.52,-7.08 -0.23,-9.11 -5.76,-3.17 -19.64,-7.53 -30.31,-9.08 -1.67,0.79 -3.03,4.74 -1.69,6.23 11.71,5.08 27.22,14.34 23.67,38.72 -3.63,24.88 -20.91,27.81 -32.59,26.11 -14.73,-2.14 -23.62,-15.89 -28.09,-26.13 l -9.74,-22.17 c -7.57,-17.44 -20.01,-35.33 -44.13,-38.84 -27.93,-4.07 -50.05,14.23 -54.86,47.24 z m 11.78,235.75 c -6.2,-0.73 -6.33,-1.08 -3.18,-7.53 l 13.79,-28.38 c 3.25,-6.69 4.39,-6.71 9.61,-1.6 l 31.55,30.73 c 4.64,4.54 9.86,9.64 11.96,12.37 l -0.23,0.46 c -1.48,0.14 -8.14,-0.25 -16.29,-1.08 z m 1.66,-55.66 c 4.29,4.08 4.54,5.35 1.18,12.26 l -16.93,34.84 c -2.81,5.77 -4.17,6.82 -9.8,6.07 l -28.15,-3.69 c -12.07,-1.59 -19.08,-3 -21.62,-4.23 -2.76,-1.35 -3.58,-3.17 -1.36,-8.93 l 3.01,-7.95 c -0.37,-2.18 -4.06,-3.97 -5.99,-2.35 -2.45,6.22 -5.93,13.38 -10.97,24.33 -3.7,7.61 -8.2,15.7 -11.46,21.82 0.25,1.83 3.72,4.09 5.55,3.26 l 4.4,-7.28 c 3.15,-5.31 8.15,-9.15 18.02,-8.35 12.63,1.01 30.77,1.84 61.32,4.71 l 73.72,6.73 c 9.87,0.81 14.93,1.55 18.28,4.04 4.31,-4.75 10.37,-6.65 14.61,-7.73 0.66,-1.39 0.99,-3.23 -0.4,-4.47 -8.69,-7.94 -17.52,-16.79 -25.98,-25.18 l -77.38,-76.67 c -16.6,-16.33 -18.59,-21.02 -14.93,-31.5 l 2.34,-6.56 c -0.37,-2.18 -4.29,-3.51 -5.77,-2.84 -4.14,9.69 -7.83,17.88 -12.88,28.27 -5.38,11.07 -10.1,19.61 -13.58,26.21 0.03,2.3 3.61,4.32 5.54,3.27 l 3.94,-6.36 c 2.83,-4.62 5.77,-7.18 8.08,-6.06 2.54,1.24 6.13,4.41 10.77,8.95 z m -134.28,167.75 c -19.68,-18.39 -22.15,-21.39 -12.93,-33.14 l 5.05,-6.52 c 0.3,-1.83 -3.43,-4.6 -5.04,-4.01 -9.61,11.04 -15.37,17.59 -22.38,25.09 -7,7.5 -13.31,13.88 -24.9,25.53 -0.49,1.65 2.35,5 4.69,4.38 l 6.87,-6.22 c 10.91,-9.82 14.6,-8.12 34.28,10.26 l 83.81,78.28 c 5.81,5.42 6,5.6 0.74,11.22 l -9.63,10.31 c -7.53,8.07 -17.54,18.02 -26.22,18.68 -8.33,0.65 -14.2,-1.33 -20.82,-3.64 -2.53,0.45 -4.04,3.95 -3.24,6.1 11.23,4.88 25.86,13.28 34.59,18.97 0.9,-0.22 3.36,-2.48 3.32,-3.57 -4.95,-6.73 1.02,-12.74 9.08,-21.36 l 70.91,-75.93 c 9.46,-10.12 11.41,-11.46 18.91,-9.72 1.25,-0.58 2.99,-2.82 2.59,-3.9 -9.61,-5.11 -26.03,-17.98 -31.12,-23.8 -2.2,-0.65 -5.17,2.53 -4.93,4.52 4.16,4.94 9.87,12.73 9.31,17.47 -0.84,7.29 -6,15.82 -15.63,26.13 l -12.43,13.31 c -5.25,5.62 -5.27,5.26 -11.45,-0.52 z m -101.54,201.17 c 14.36,23.1 16.23,27.08 4.05,36.16 l -5.18,3.82 c -0.76,1.68 2.11,5.34 3.83,5.15 10.62,-7.2 17.89,-12.03 27.04,-17.72 8.72,-5.42 16.26,-9.81 27.42,-16.12 0.9,-1.47 -1.1,-5.66 -2.95,-5.72 l -5.71,2.95 c -13.53,6.91 -16.27,3.47 -30.64,-19.62 l -48.22,-77.56 c -14.36,-23.1 -15.82,-26.42 -3.91,-35.94 l 5.04,-4.04 c 0.76,-1.68 -2.11,-5.33 -3.82,-5.17 -10.62,7.21 -17.9,12.03 -26.61,17.45 -9.16,5.69 -16.7,10.07 -27.86,16.41 -0.9,1.47 0.83,5.23 2.95,5.72 l 5.86,-2.73 c 13.8,-6.47 16.13,-3.69 30.49,19.4 z m -206.33,-54.07 c -20.56,6.48 -31.52,16.94 -35.32,21.1 -1.24,6.31 1.06,24.68 4.21,36.34 1.76,1.32 5.58,0.66 6.1,-1.12 -0.28,-13.64 2.19,-40.78 30.58,-49.74 20.56,-6.49 34.83,3.81 39.46,18.49 3.41,10.76 4.98,23.45 -9.25,40.59 l -18.46,22.5 c -9.69,11.94 -19.48,30.36 -13.15,50.42 7.34,23.25 31.39,36.38 63.2,26.34 7.58,-2.39 15.94,-6.64 21.75,-10.36 2.87,-1.98 6.15,-3.55 8.11,-4.17 0.34,-6.57 -1.78,-20.96 -5.02,-31.24 -1.45,-1.16 -5.59,-0.66 -6.35,1.19 0.52,12.75 -1.06,30.74 -24.55,38.16 -23.99,7.56 -34.14,-6.72 -37.69,-17.98 -4.48,-14.19 4.02,-28.17 11.3,-36.66 l 15.72,-18.41 c 12.4,-14.4 23.09,-33.38 15.76,-56.63 -8.5,-26.91 -34.59,-38.86 -66.4,-28.82 z m -202.96,125.3 c -0.07,-4.62 -0.13,-7.43 0.63,-8.47 0.76,-0.79 4.6,-1.36 17.68,-1.57 9.23,-0.16 18.99,0.72 26.52,6.24 7.02,5.27 13.06,14.15 13.34,31.59 0.33,20.26 -11.92,39.7 -40.39,40.16 -15.91,0.26 -16.69,-0.75 -16.81,-7.93 z m -20.44,37.02 c 0.4,24.37 -0.29,28.74 -10.8,30.19 l -8.18,1.16 c -1.78,1.31 -1.72,5.41 0.36,6.41 14.38,1.04 32.08,1.53 57.22,1.12 15.9,-0.26 31.02,-1.78 42.71,-8.39 12.21,-6.61 21,-18.3 20.7,-36.25 -0.39,-24.37 -19.84,-37.39 -32.75,-42.31 -1.31,-1.52 -0.06,-4.11 1.18,-6.18 19.99,-33.41 33.24,-54.15 50.45,-69.06 4.29,-3.92 10.66,-6.84 17.57,-7.47 1.28,-0.53 1.5,-2.58 0.21,-3.59 -2.32,-0.73 -6.44,-1.18 -11.31,-1.1 -21.8,0.36 -34.77,6.98 -52.57,33.18 -6.51,9.59 -16.74,27.46 -24.5,39.13 -3.76,5.71 -7.82,8.34 -18.08,8.51 -11.54,0.18 -12.06,-0.07 -12.15,-5.45 l -0.51,-32.32 c -0.45,-26.93 0.02,-30.01 14.86,-32.31 l 5.37,-0.85 c 1.52,-1.31 0.94,-5.66 -0.62,-6.41 -11.52,0.7 -20.24,1.1 -30.5,1.27 -10.77,0.17 -20.01,0.07 -32.08,-0.25 -1.52,0.79 -1.97,4.65 -0.4,6.42 l 6.42,0.66 c 14.9,1.56 15.48,4.88 15.91,31.82 z m -213.173,-43.89 c -7.633,25.57 -9.223,29.11 -24.238,26.5 l -4.079,-0.68 c -1.773,0.54 -2.601,5.11 -1.343,6.29 10.711,2.67 19.14,4.92 29.226,7.92 l 46.215,13.8 c 15.735,4.7 30.242,9.03 32.973,10.65 2.719,-3.74 9.48,-21 13.699,-31.52 -0.551,-1.77 -4.336,-3.44 -6.008,-2.33 -7.133,10.45 -11.918,18.4 -25.652,17.77 -5.535,-0.31 -13.473,-2.41 -24.285,-5.64 l -17.703,-5.28 c -7.375,-2.2 -7.235,-2.7 -4.438,-12.04 l 14.676,-49.16 c 2.055,-6.89 2.797,-6.67 10.164,-4.47 l 14.262,4.26 c 10.328,3.08 17.797,5.85 20.461,7.71 2.656,1.87 3.933,3.85 3.328,10.37 l -1.043,10.66 c 0.793,1.84 4.965,3.09 6.465,1.65 1.761,-5.9 3.64,-15.78 6.429,-25.12 2.649,-8.85 6.418,-17.9 8.032,-23.29 -0.473,-2.02 -4.653,-3.27 -6.317,-2.16 l -5.074,8.93 c -2.309,4.13 -5.133,7.3 -10.414,7.07 -3.738,-0.05 -9.707,-1.56 -19.293,-4.43 l -14.262,-4.25 c -7.375,-2.2 -8.043,-2.67 -6.133,-9.06 l 10.348,-34.67 c 3.891,-13.03 7.125,-21.16 12.309,-24.17 3.832,-2.07 9.796,-3.23 31.433,3.23 18.93,5.65 25.766,8.76 30.363,13.08 3.692,3.78 7.762,14.37 10.344,29.05 1.348,1.75 5.018,2.04 6.658,0.12 0.84,-9.12 0.35,-29.88 -0.87,-37.47 -22.268,-6.12 -44.225,-12.41 -66.104,-18.94 l -22.121,-6.6 c -10.578,-3.16 -18.864,-5.9 -33.211,-10.72 -1.703,0.29 -3.367,4.08 -2.332,6 l 7.894,3.16 c 13.641,5.41 13.774,9.47 6.067,35.28 z M 666,1745.8 c -12.656,9.01 -18.789,11.52 -28.805,6.72 l -4.179,-2.03 c -2.348,0.34 -4.039,3.51 -2.989,5.73 6.567,3.54 13.649,7.7 22.981,13.58 9.558,6.02 17.015,11.03 25.863,17.18 2.063,0.09 4.547,-2.89 3.844,-5.16 l -2.973,-2.48 c -7.566,-6.29 -8.484,-8.68 -7.605,-10.56 1.804,-1.9 12.886,-11.29 30.011,-23.55 25.864,-18.88 51.582,-37.55 78.036,-55.45 -2.301,18.57 -7.282,46.67 -9.543,61.33 -3.012,18.73 -8.27,49.69 -10.469,61.34 -1.129,5.66 -2.418,8.18 -3.379,9.7 -0.961,1.52 -4.227,1.89 -12.367,-2.03 l -4.188,-2.03 c -2.34,0.34 -3.953,3.87 -2.98,5.73 6.351,3.4 14.734,8.38 22.98,13.59 7.16,4.51 13.762,8.97 20.649,13.89 2.062,0.09 4.25,-3.39 3.851,-5.16 l -6.234,-4.54 c -4.934,-3.71 -6.547,-8.37 -6.504,-14.71 0.355,-14.03 2.977,-36.95 7.168,-65.25 l 5.113,-34.09 c 3.907,-25.44 9.578,-57.05 13.137,-70.89 -0.371,-0.84 -1.102,-1.61 -1.969,-2.15 -1.094,-0.69 -2.308,-1.15 -3.668,-1.4 -8.136,7.61 -18.754,15.78 -28.183,22.57 z m -86.75,-96.04 c -19.453,19 -22.93,21.69 -34.426,11.75 l -4.844,-4.23 c -1.812,-0.39 -4.765,3.21 -4.234,4.85 9.328,8.82 15.609,14.88 23.141,22.58 7.168,7.35 13.078,13.76 21.676,23.31 1.625,0.56 5.289,-2.3 4.945,-4.12 l -4.11,-4.95 c -9.664,-11.72 -6.902,-15.14 12.551,-34.14 l 65.348,-63.82 c 19.453,-19 22.383,-21.15 34.242,-11.57 l 5.035,4.05 c 1.809,0.39 4.75,-3.21 4.235,-4.85 -9.336,-8.82 -15.618,-14.88 -22.786,-22.23 -7.531,-7.7 -13.441,-14.12 -22.035,-23.66 -1.629,-0.55 -4.922,1.95 -4.949,4.12 l 3.934,5.13 c 9.293,12.08 7.074,14.96 -12.383,33.96 z m -2.395,-133.68 c 6.723,-3.74 33.426,-18.55 39.625,-21.11 1.106,-1.2 1.481,-3.17 0.106,-5.63 -5.305,-0.58 -16.762,-2.73 -49.805,-9.92 l -88.109,-19.19 c -10.313,-2.19 -37.18,-7.25 -44.723,-9.21 l -0.254,-0.46 c 2.2,-2.38 7.235,-5.47 13.965,-9.21 l 48.906,-27.14 c 10.539,-5.85 39.832,-21.8 48.68,-21.73 3.211,-0.02 7.051,3.72 10.609,9.08 l 4.532,6.58 c 2.539,0.35 5.113,-1.37 5.363,-3.57 -6.051,-9.84 -10.637,-17.57 -15.238,-25.87 -5.231,-9.42 -8.364,-15.6 -12.278,-23.7 -1.992,-0.95 -5.254,0.57 -5.859,2.66 l 2.691,6.44 c 2.192,5.53 2.84,9.86 0.993,12.36 -6.332,7.62 -33.836,22.58 -44.598,28.56 l -64.836,35.97 c -6.281,3.49 -11.117,5.88 -18.895,4.03 -4.878,-1.4 -9.437,-5.91 -13.097,-10.92 l -2.57,-3.57 c -2.086,-0.6 -5.458,1.27 -5.352,3.56 5.902,9.05 12.5,20.94 14.734,24.97 1.996,3.59 3.891,7.53 5.059,10.7 13.93,-1.86 58.23,8.19 70.644,10.98 l 36.528,8.19 c 25.859,5.9 44.515,9.92 61.144,14.49 l 0.246,0.45 c -0.628,1.52 -4.211,3.51 -8.929,6.12 l -48.008,26.64 c -10.543,5.85 -39.828,21.81 -48.926,21.28 -2.765,-0.22 -6.101,-3.06 -12.207,-11.42 l -2.566,-3.56 c -2.211,-0.82 -5.68,1.39 -5.364,3.53 6.188,10.07 10.637,17.57 15.372,26.1 5.347,9.64 8.359,15.6 12.148,23.51 2.113,1.17 5.25,-0.57 5.859,-2.66 l -1.304,-3.39 c -2.856,-7.81 -3.551,-13.29 -2.254,-15.18 5.961,-8.3 34.027,-23.28 44.343,-29.01 z M 418.746,1314.46 c -15.683,2.68 -44.848,7.14 -53.172,4.14 -3.336,-1.25 -5.879,-5.5 -7.469,-11.74 l -1.593,-6.23 c -2.028,-1.22 -5.231,-0.15 -5.977,1.54 2.149,9.52 3.996,18.83 5.684,28.7 1.816,10.62 2.726,17.49 3.785,26.68 1.605,1.81 4.851,1 6.156,-0.53 l -0.531,-6.15 c -0.578,-6.41 0.871,-11.6 3.902,-13.68 7.739,-4.97 36.824,-9.94 50.985,-12.37 l 28.582,-4.88 c 22,-3.76 44.664,-11.28 57.418,-28.03 10.023,-12.91 13.402,-32.75 10.199,-51.46 -2.981,-17.45 -9.254,-34.34 -21.992,-44.91 -13.418,-11.51 -32.961,-14.67 -63.055,-9.53 l -59.68,10.2 c -26.304,4.5 -30.691,4.73 -34.465,-9.72 l -1.589,-6.24 c -1.266,-1.34 -5.473,-0.1 -5.977,1.55 2.664,12.55 4.387,21.11 6.117,31.22 1.77,10.37 2.946,18.76 4.567,31.24 1.011,1.38 5.398,1.16 6.152,-0.53 l -0.531,-6.16 c -1.242,-14.88 2.965,-16.12 29.261,-20.62 l 54.629,-9.33 c 40.723,-6.97 69.692,1.1 76.301,39.79 6.27,36.67 -20.183,55.5 -58.629,62.08 l -29.078,4.97"
           style="fill:#ffffff;fill-opacity:1;fill-rule:nonzero;stroke:none"
           id="path14-3" /></g></g></g></svg>
