<?xml version="1.0" encoding="UTF-8" standalone="no"?>
<!DOCTYPE svg PUBLIC "-//W3C//DTD SVG 1.1//EN" "http://www.w3.org/Graphics/SVG/1.1/DTD/svg11.dtd">
<svg width="100%" height="100%" viewBox="0 0 456 106" version="1.1" xmlns="http://www.w3.org/2000/svg" xmlns:xlink="http://www.w3.org/1999/xlink" xml:space="preserve" xmlns:serif="http://www.serif.com/" style="fill-rule:evenodd;clip-rule:evenodd;stroke-linejoin:round;stroke-miterlimit:2;">
	<g transform="matrix(1,0,0,1,-1006.69,-526.372)">
		<g id="Layer-1" serif:id="Layer 1" transform="matrix(4.16667,0,0,4.16667,0,0)">
			<g transform="matrix(1,0,0,-1,0,-581.383)">
				<path d="M303.116,-708.158C303.898,-708.158 304.557,-708.3 305.011,-708.497L305.011,-709.768C304.174,-709.43 303.658,-709.342 303.116,-709.342C302.039,-709.342 301.665,-710.364 301.665,-711.636C301.665,-712.909 302.039,-713.932 303.116,-713.932C303.658,-713.932 304.174,-713.842 305.011,-713.504L305.011,-714.777C304.557,-714.972 303.898,-715.115 303.116,-715.115C301.061,-715.115 300.402,-713.531 300.402,-711.636C300.402,-709.742 301.061,-708.158 303.116,-708.158Z" style="fill:rgb(35,31,32);fill-rule:nonzero;" />
			</g>
			<g transform="matrix(1,0,0,-1,0,-581.384)">
				<path d="M310.018,-714.973L310.018,-712.117L307.704,-712.117L307.704,-714.973L306.477,-714.973L306.477,-708.301L307.704,-708.301L307.704,-710.934L310.018,-710.934L310.018,-708.301L311.245,-708.301L311.245,-714.973L310.018,-714.973Z" style="fill:rgb(35,31,32);fill-rule:nonzero;" />
			</g>
			<g transform="matrix(1,0,0,-1,0,-581.384)">
				<path d="M314.073,-711.157L315.177,-711.157C315.96,-711.157 316.076,-710.783 316.076,-710.312C316.076,-709.849 315.96,-709.484 315.177,-709.484L314.073,-709.484L314.073,-711.157ZM314.073,-714.973L312.847,-714.973L312.847,-708.301L315.061,-708.301C316.823,-708.301 317.374,-709.075 317.374,-710.312C317.374,-711.157 317.134,-711.771 316.396,-712.099C316.529,-712.384 316.697,-712.678 316.858,-712.972C317.178,-713.576 317.633,-714.448 317.908,-714.973L316.423,-714.973L315.133,-712.339L314.073,-712.339L314.073,-714.973Z" style="fill:rgb(35,31,32);fill-rule:nonzero;" />
			</g>
			<g transform="matrix(1,0,0,-1,0,-575.876)">
				<path d="M319.374,-708.158C319.775,-708.158 320.104,-708.487 320.104,-708.887C320.104,-709.288 319.775,-709.608 319.374,-709.608C318.976,-709.608 318.654,-709.288 318.654,-708.887C318.654,-708.487 318.976,-708.158 319.374,-708.158Z" style="fill:rgb(35,31,32);fill-rule:nonzero;" />
			</g>
			<g transform="matrix(1,0,0,-1,0,-563.948)">
				<path d="M304.084,-705.409L303.195,-705.409L301.7,-701.994L301.744,-706.255L300.536,-706.255L300.536,-699.583L301.888,-699.583L303.641,-703.666L305.392,-699.583L306.744,-699.583L306.744,-706.255L305.535,-706.255L305.58,-701.967L304.084,-705.409Z" style="fill:rgb(35,31,32);fill-rule:nonzero;" />
			</g>
			<g transform="matrix(0,-1,1,0,1011.97,448.024)">
				<rect x="305.717" y="-703.537" width="6.672" height="1.236" style="fill:rgb(35,31,32);" />
			</g>
			<g transform="matrix(1,0,0,-1,0,-563.948)">
				<path d="M313.941,-699.44C314.724,-699.44 315.383,-699.583 315.836,-699.779L315.836,-701.051C314.999,-700.713 314.483,-700.624 313.941,-700.624C312.864,-700.624 312.49,-701.647 312.49,-702.919C312.49,-704.19 312.864,-705.214 313.941,-705.214C314.483,-705.214 314.999,-705.125 315.836,-704.787L315.836,-706.06C315.383,-706.255 314.724,-706.397 313.941,-706.397C311.887,-706.397 311.228,-704.813 311.228,-702.919C311.228,-701.024 311.887,-699.44 313.941,-699.44Z" style="fill:rgb(35,31,32);fill-rule:nonzero;" />
			</g>
			<g transform="matrix(1,0,0,-1,0,-563.948)">
				<path d="M320.843,-706.255L320.843,-703.399L318.53,-703.399L318.53,-706.255L317.302,-706.255L317.302,-699.583L318.53,-699.583L318.53,-702.216L320.843,-702.216L320.843,-699.583L322.07,-699.583L322.07,-706.255L320.843,-706.255Z" style="fill:rgb(35,31,32);fill-rule:nonzero;" />
			</g>
			<g transform="matrix(1,0,0,-1,0,-563.948)">
				<path d="M327.55,-703.399L324.898,-703.399L324.898,-705.071L327.825,-705.071L327.825,-706.255L323.673,-706.255L323.673,-699.583L327.825,-699.583L327.825,-700.767L324.898,-700.767L324.898,-702.216L327.55,-702.216L327.55,-703.399Z" style="fill:rgb(35,31,32);fill-rule:nonzero;" />
			</g>
			<g transform="matrix(1,0,0,-1,0,-563.948)">
				<path d="M330.512,-705.071L333.287,-705.071L333.287,-706.255L329.293,-706.255L329.293,-699.583L330.512,-699.583L330.512,-705.071Z" style="fill:rgb(35,31,32);fill-rule:nonzero;" />
			</g>
			<g transform="matrix(1,0,0,-1,0,-563.948)">
				<path d="M338.997,-704.19C338.997,-705.169 338.49,-706.397 336.417,-706.397C335.83,-706.397 334.817,-706.184 334.399,-705.97L334.399,-704.733C334.674,-704.894 335.467,-705.214 336.427,-705.214C337.442,-705.214 337.734,-704.743 337.734,-704.19C337.734,-703.64 337.433,-703.497 336.633,-703.399C335.004,-703.195 334.399,-702.697 334.399,-701.496C334.399,-700.669 334.79,-699.44 336.764,-699.44C337.539,-699.44 338.197,-699.619 338.668,-699.833L338.668,-701.104C337.813,-700.704 337.316,-700.624 336.764,-700.624C335.84,-700.624 335.645,-701.051 335.645,-701.504C335.645,-702.047 336.063,-702.119 336.828,-702.216C338.26,-702.403 338.997,-702.848 338.997,-704.19Z" style="fill:rgb(35,31,32);fill-rule:nonzero;" />
			</g>
			<g transform="matrix(1,0,0,-1,0,-563.948)">
				<path d="M344.301,-703.399L341.649,-703.399L341.649,-705.071L344.576,-705.071L344.576,-706.255L340.421,-706.255L340.421,-699.583L344.576,-699.583L344.576,-700.767L341.649,-700.767L341.649,-702.216L344.301,-702.216L344.301,-703.399Z" style="fill:rgb(35,31,32);fill-rule:nonzero;" />
			</g>
			<g transform="matrix(1,0,0,-1,0,-563.948)">
				<path d="M349.922,-706.255L347.226,-702.074L347.243,-706.255L346.042,-706.255L346.042,-699.583L347.003,-699.583L349.699,-703.764L349.682,-699.583L350.882,-699.583L350.882,-706.255L349.922,-706.255Z" style="fill:rgb(35,31,32);fill-rule:nonzero;" />
			</g>
			<g transform="matrix(0,-1,1,0,995.445,448.931)">
				<rect x="297.907" y="-694.82" width="6.672" height="1.236" style="fill:rgb(35,31,32);" />
			</g>
			<g transform="matrix(1,0,0,-1,0,-546.515)">
				<path d="M307.43,-697.538L304.733,-693.357L304.751,-697.538L303.55,-697.538L303.55,-690.866L304.511,-690.866L307.207,-695.048L307.189,-690.866L308.391,-690.866L308.391,-697.538L307.43,-697.538Z" style="fill:rgb(35,31,32);fill-rule:nonzero;" />
			</g>
			<g transform="matrix(1,0,0,-1,0,-546.515)">
				<path d="M314.412,-695.475C314.412,-696.453 313.904,-697.681 311.832,-697.681C311.245,-697.681 310.232,-697.468 309.813,-697.253L309.813,-696.018C310.089,-696.177 310.881,-696.497 311.842,-696.497C312.856,-696.497 313.149,-696.026 313.149,-695.475C313.149,-694.923 312.847,-694.78 312.047,-694.683C310.418,-694.479 309.813,-693.979 309.813,-692.779C309.813,-691.952 310.205,-690.724 312.179,-690.724C312.953,-690.724 313.612,-690.902 314.083,-691.116L314.083,-692.388C313.229,-691.987 312.73,-691.907 312.179,-691.907C311.255,-691.907 311.06,-692.335 311.06,-692.788C311.06,-693.331 311.478,-693.401 312.243,-693.5C313.674,-693.687 314.412,-694.132 314.412,-695.475Z" style="fill:rgb(35,31,32);fill-rule:nonzero;" />
			</g>
			<g transform="matrix(1,0,0,-1,0,-546.515)">
				<path d="M318.166,-692.05L318.166,-697.538L316.928,-697.538L316.928,-692.05L315.257,-692.05L315.257,-690.866L319.837,-690.866L319.837,-692.05L318.166,-692.05Z" style="fill:rgb(35,31,32);fill-rule:nonzero;" />
			</g>
			<g transform="matrix(0,-1,1,0,1016.04,469.523)">
				<rect x="318.5" y="-694.821" width="6.672" height="1.237" style="fill:rgb(35,31,32);" />
			</g>
			<g transform="matrix(1,0,0,-1,0,-546.515)">
				<path d="M326.74,-692.05L326.74,-697.538L325.503,-697.538L325.503,-692.05L323.831,-692.05L323.831,-690.866L328.412,-690.866L328.412,-692.05L326.74,-692.05Z" style="fill:rgb(35,31,32);fill-rule:nonzero;" />
			</g>
			<g transform="matrix(1,0,0,-1,0,-546.372)">
				<path d="M333.357,-695.128L333.357,-690.724L334.585,-690.724L334.585,-695.233C334.585,-697.218 332.958,-697.538 332.121,-697.538C331.284,-697.538 329.657,-697.218 329.657,-695.233L329.657,-690.724L330.886,-690.724L330.886,-695.128C330.886,-696.248 331.693,-696.346 332.121,-696.346C332.548,-696.346 333.357,-696.248 333.357,-695.128Z" style="fill:rgb(35,31,32);fill-rule:nonzero;" />
			</g>
			<g transform="matrix(1,0,0,-1,0,-546.515)">
				<path d="M338.74,-692.05L338.74,-697.538L337.504,-697.538L337.504,-692.05L335.83,-692.05L335.83,-690.866L340.413,-690.866L340.413,-692.05L338.74,-692.05Z" style="fill:rgb(35,31,32);fill-rule:nonzero;" />
			</g>
			<g transform="matrix(1,0,0,-1,0,-546.515)">
				<path d="M345.581,-694.683L342.93,-694.683L342.93,-696.355L345.856,-696.355L345.856,-697.538L341.701,-697.538L341.701,-690.866L345.856,-690.866L345.856,-692.05L342.93,-692.05L342.93,-693.5L345.581,-693.5L345.581,-694.683Z" style="fill:rgb(35,31,32);fill-rule:nonzero;" />
			</g>
			<g transform="matrix(1,0,0,-1,0,-563.899)">
				<path d="M251.565,-690.229C254.336,-690.229 256.915,-690.519 258.688,-691.293L258.688,-696.996C255.304,-695.612 253.338,-695.515 251.565,-695.515C248.309,-695.515 247.182,-698.448 247.182,-702.895C247.182,-707.343 248.309,-710.275 251.565,-710.275C253.338,-710.275 255.304,-710.178 258.688,-708.792L258.688,-714.497C256.915,-715.271 254.336,-715.561 251.565,-715.561C244.024,-715.561 241.606,-710.403 241.606,-702.895C241.606,-695.385 244.024,-690.229 251.565,-690.229Z" style="fill:rgb(35,31,32);fill-rule:nonzero;" />
			</g>
			<g transform="matrix(1,0,0,-1,0,-563.9)">
				<path d="M275.641,-712.08L271.771,-712.08L267.648,-702.638L267.809,-714.981L262.394,-714.981L262.394,-690.809L268.066,-690.809L273.704,-703.959L279.347,-690.809L285.021,-690.809L285.021,-714.981L279.604,-714.981L279.767,-702.606L275.641,-712.08Z" style="fill:rgb(35,31,32);fill-rule:nonzero;" />
			</g>
			<g transform="matrix(0,-1,1,0,995.182,431.282)">
				<rect x="280.201" y="-705.651" width="24.173" height="5.512" style="fill:rgb(35,31,32);" />
			</g>
		</g>
	</g>
</svg>
