<?xml version="1.0" encoding="UTF-8" standalone="no"?><!DOCTYPE svg PUBLIC "-//W3C//DTD SVG 1.1//EN" "http://www.w3.org/Graphics/SVG/1.1/DTD/svg11.dtd"><svg width="100%" height="100%" viewBox="0 0 3337 1520" version="1.1" xmlns="http://www.w3.org/2000/svg" xmlns:xlink="http://www.w3.org/1999/xlink" xml:space="preserve" xmlns:serif="http://www.serif.com/" style="fill-rule:evenodd;clip-rule:evenodd;stroke-linejoin:round;stroke-miterlimit:2;"><g><path d="M2354.21,966.146c-83.375,-0 -138.699,62.092 -138.699,138.7c-0,76.6 56.675,138.7 138.699,138.7c82.017,-0 138.701,-62.1 138.701,-138.7c-0,-76.608 -56.684,-138.7 -138.701,-138.7Zm0,39.833c59.934,0 98.859,44.354 98.859,98.867c-0,54.512 -38.925,98.858 -98.859,98.858c-59.933,0 -98.866,-44.346 -98.866,-98.858c-0,-54.513 37.579,-98.867 98.866,-98.867Z" style="fill:#231f20;fill-rule:nonzero;"/><path d="M1192.85,1010.34l0,-35.517c0,-1.196 -0.971,-2.163 -2.158,-2.163l-172.642,0c-1.192,0 -2.158,0.967 -2.158,2.163l-0,259.95c-0,1.196 0.966,2.162 2.158,2.162l35.521,0c1.196,0 2.158,-0.966 2.158,-2.162l0,-86.554c0,-0.796 0.646,-1.446 1.446,-1.446l104.163,-0c1.187,-0 2.154,-0.962 2.154,-2.154l-0,-35.525c-0,-1.188 -0.967,-2.154 -2.154,-2.154l-104.163,-0c-0.8,-0 -1.446,-0.646 -1.446,-1.442l0,-91.562c0,-0.792 0.646,-1.438 1.446,-1.438l133.517,0c1.187,0 2.158,-0.971 2.158,-2.158Z" style="fill:#231f20;fill-rule:nonzero;"/><path d="M1547.05,1236.94l-35.512,0c-1.201,0 -2.163,-0.962 -2.163,-2.158l0,-259.871c0,-1.191 0.962,-2.154 2.163,-2.154l35.512,0c1.196,0 2.163,0.963 2.163,2.154l-0,259.871c-0,1.196 -0.967,2.158 -2.163,2.158Z" style="fill:#231f20;fill-rule:nonzero;"/><path d="M1785.9,972.662l-177.746,0c-1.196,0 -2.162,0.971 -2.162,2.159l-0,35.521c-0,1.191 0.966,2.158 2.162,2.158l67.338,0c0.795,0 1.441,0.646 1.441,1.442l0,220.837c0,1.196 0.967,2.158 2.158,2.158l35.521,0c1.192,0 2.159,-0.962 2.159,-2.158l-0,-220.837c-0,-0.796 0.645,-1.442 1.441,-1.442l67.688,0c1.192,0 2.158,-0.967 2.158,-2.158l0,-35.521c0,-1.188 -0.966,-2.159 -2.158,-2.159Z" style="fill:#231f20;fill-rule:nonzero;"/><path d="M2008.53,972.662l-177.746,0c-1.196,0 -2.166,0.971 -2.166,2.159l-0,35.521c-0,1.191 0.97,2.158 2.166,2.158l67.338,0c0.791,0 1.441,0.646 1.441,1.442l0,220.837c0,1.196 0.967,2.158 2.155,2.158l35.525,0c1.191,0 2.158,-0.962 2.158,-2.158l-0,-220.837c-0,-0.796 0.642,-1.442 1.441,-1.442l67.688,0c1.192,0 2.154,-0.967 2.154,-2.158l0,-35.521c0,-1.188 -0.962,-2.159 -2.154,-2.159Z" style="fill:#231f20;fill-rule:nonzero;"/><path d="M2926.46,1197.1l-60.238,0c-0.796,0 -1.442,-0.646 -1.442,-1.442l0,-181.633c0,-0.792 0.646,-1.437 1.442,-1.437l60.238,-0c56.291,-0 92.258,41.383 92.258,92.254c-0,50.871 -35.967,92.258 -92.258,92.258Zm-0,-224.35l-0,-0.088l-99.359,0c-1.192,0 -2.158,0.967 -2.158,2.163l-0,259.954c-0,1.192 0.966,2.158 2.158,2.158l99.359,0c78.375,0 132.095,-59.141 132.095,-132.095c0,-72.95 -53.72,-132.092 -132.095,-132.092Z" style="fill:#231f20;fill-rule:nonzero;"/><path d="M1290.7,1012.5l62.513,0c25.9,0 47.391,20.683 47.646,46.575c0.254,26.154 -20.946,47.509 -47.042,47.509l-63.117,-0c-0.796,-0 -1.446,-0.642 -1.446,-1.438l0,-91.208c0,-0.796 0.65,-1.438 1.446,-1.438Zm110.059,224.433l41.962,0c1.704,0 2.738,-1.874 1.829,-3.312l-58.716,-93.292c32.316,-12.816 55.12,-44.462 54.862,-81.408c-0.333,-47.871 -39.804,-86.263 -87.675,-86.263l-101.442,0c-1.196,0 -2.162,0.971 -2.162,2.159l-0,259.958c-0,1.196 0.966,2.158 2.162,2.158l35.517,0c1.192,0 2.158,-0.962 2.158,-2.158l0,-86.912c0,-0.792 0.65,-1.438 1.446,-1.438l50.704,0c0.738,0 1.43,0.379 1.825,1.013l55.7,88.487c0.392,0.625 1.084,1.008 1.83,1.008Z" style="fill:#231f20;fill-rule:nonzero;"/><path d="M2601.45,1012.5l62.517,0c25.9,0 47.395,20.683 47.641,46.575c0.254,26.154 -20.946,47.509 -47.041,47.509l-63.117,-0c-0.796,-0 -1.442,-0.642 -1.442,-1.438l0,-91.208c0,-0.796 0.646,-1.438 1.442,-1.438Zm110.058,224.433l41.967,0c1.7,0 2.733,-1.874 1.829,-3.312l-58.721,-93.292c32.325,-12.816 55.121,-44.462 54.863,-81.408c-0.333,-47.871 -39.8,-86.263 -87.675,-86.263l-101.438,0c-1.196,0 -2.162,0.971 -2.162,2.159l-0,259.958c-0,1.196 0.966,2.158 2.162,2.158l35.517,0c1.196,0 2.158,-0.962 2.158,-2.158l0,-86.912c0,-0.792 0.646,-1.438 1.442,-1.438l50.704,0c0.742,0 1.434,0.379 1.829,1.013l55.696,88.487c0.396,0.625 1.088,1.008 1.829,1.008Z" style="fill:#231f20;fill-rule:nonzero;"/><path d="M564.204,1236.94c0,-0 -0.171,-899.8 0.133,-899.675c9.225,3.908 157.321,69.691 184.005,266.391c-0,0 20.516,62.954 -7.821,404.671l-56.05,17.421c-11.729,4.004 -34.088,11.808 -38.971,55.204l-16.725,155.988l-64.571,-0Z" style="fill:#0071a5;"/><path d="M532.883,1236.94l0,-1003.87c0,-0 -272.054,249.692 -249.654,821.263l113.763,31.491c17.121,4.683 37.821,13.088 41.32,50.363l10.405,100.75l84.166,-0Z" style="fill:#0071a5;"/></g></svg>