<?xml version="1.0" encoding="UTF-8" standalone="no"?><!DOCTYPE svg PUBLIC "-//W3C//DTD SVG 1.1//EN" "http://www.w3.org/Graphics/SVG/1.1/DTD/svg11.dtd"><svg width="100%" height="100%" viewBox="0 0 4167 4167" version="1.1" xmlns="http://www.w3.org/2000/svg" xmlns:xlink="http://www.w3.org/1999/xlink" xml:space="preserve" xmlns:serif="http://www.serif.com/" style="fill-rule:evenodd;clip-rule:evenodd;stroke-linejoin:round;stroke-miterlimit:2;"><g><path d="M2526.28,3295.72c-116.502,0 -193.813,86.771 -193.813,193.811c0,107.042 79.199,193.819 193.813,193.819c114.62,-0 193.817,-86.777 193.817,-193.819c-0,-107.04 -79.197,-193.811 -193.817,-193.811Zm-0,55.666c83.748,0 138.151,61.971 138.151,138.145c-0,76.176 -54.404,138.146 -138.151,138.146c-83.749,-0 -138.145,-61.97 -138.145,-138.146c-0,-76.174 52.509,-138.145 138.145,-138.145Z" style="fill:#231f20;fill-rule:nonzero;"/><path d="M903.435,3357.49l0,-49.632c0,-1.666 -1.352,-3.017 -3.017,-3.017l-241.241,-0c-1.661,-0 -3.013,1.351 -3.013,3.017l-0,363.255c-0,1.665 1.352,3.012 3.013,3.012l49.637,-0c1.665,-0 3.017,-1.347 3.017,-3.012l0,-120.96c0,-1.111 0.904,-2.015 2.015,-2.015l145.55,0c1.667,0 3.019,-1.346 3.019,-3.013l0,-49.63c0,-1.667 -1.352,-3.019 -3.019,-3.019l-145.55,0c-1.111,0 -2.015,-0.908 -2.015,-2.014l0,-127.939c0,-1.112 0.904,-2.021 2.015,-2.021l186.572,-0c1.665,-0 3.017,-1.347 3.017,-3.012Z" style="fill:#231f20;fill-rule:nonzero;"/><path d="M1398.38,3674.13l-49.632,-0c-1.665,-0 -3.017,-1.347 -3.017,-3.012l0,-363.133c0,-1.665 1.352,-3.017 3.017,-3.017l49.632,-0c1.667,-0 3.019,1.352 3.019,3.017l-0,363.133c-0,1.665 -1.352,3.012 -3.019,3.012Z" style="fill:#231f20;fill-rule:nonzero;"/><path d="M1732.12,3304.84l-248.377,-0c-1.667,-0 -3.019,1.35 -3.019,3.011l0,49.637c0,1.666 1.352,3.012 3.019,3.012l94.101,0c1.106,0 2.009,0.909 2.009,2.022l0,308.589c0,1.666 1.352,3.012 3.019,3.012l49.63,0c1.667,0 3.019,-1.346 3.019,-3.012l-0,-308.589c-0,-1.113 0.903,-2.022 2.015,-2.022l94.584,0c1.667,0 3.019,-1.346 3.019,-3.012l0,-49.637c0,-1.661 -1.352,-3.011 -3.019,-3.011Z" style="fill:#231f20;fill-rule:nonzero;"/><path d="M2043.23,3304.84l-248.378,-0c-1.673,-0 -3.018,1.35 -3.018,3.011l0,49.637c0,1.666 1.345,3.012 3.018,3.012l94.095,0c1.113,0 2.016,0.909 2.016,2.022l0,308.589c0,1.666 1.352,3.012 3.018,3.012l49.631,0c1.661,0 3.018,-1.346 3.018,-3.012l-0,-308.589c-0,-1.113 0.903,-2.022 2.016,-2.022l94.584,0c1.666,0 3.012,-1.346 3.012,-3.012l0,-49.637c0,-1.661 -1.346,-3.011 -3.012,-3.011Z" style="fill:#231f20;fill-rule:nonzero;"/><path d="M3325.93,3618.46l-84.173,0c-1.113,0 -2.016,-0.907 -2.016,-2.014l-0,-253.808c-0,-1.113 0.903,-2.017 2.016,-2.017l84.173,0c78.656,0 128.917,57.841 128.917,128.917c0,71.089 -50.261,128.922 -128.917,128.922Zm0,-313.505l0,-0.116l-138.838,-0c-1.667,-0 -3.019,1.345 -3.019,3.017l0,363.249c0,1.665 1.352,3.018 3.019,3.018l138.838,-0c109.517,-0 184.578,-82.641 184.578,-184.585c-0,-101.936 -75.061,-184.583 -184.578,-184.583Z" style="fill:#231f20;fill-rule:nonzero;"/><path d="M1040.16,3360.51l87.355,0c36.196,0 66.223,28.897 66.578,65.088c0.349,36.547 -29.275,66.386 -65.74,66.386l-88.193,0c-1.113,0 -2.01,-0.897 -2.01,-2.009l-0,-127.456c-0,-1.106 0.897,-2.009 2.01,-2.009Zm153.793,313.623l58.644,-0c2.372,-0 3.816,-2.622 2.552,-4.631l-82.052,-130.363c45.163,-17.908 77.024,-62.133 76.663,-113.757c-0.465,-66.894 -55.614,-120.538 -122.514,-120.538l-141.751,-0c-1.667,-0 -3.019,1.35 -3.019,3.017l0,363.255c0,1.665 1.352,3.017 3.019,3.017l49.632,-0c1.672,-0 3.023,-1.352 3.023,-3.017l-0,-121.449c-0,-1.112 0.897,-2.009 2.01,-2.009l70.848,-0c1.038,-0 2.006,0.529 2.559,1.409l77.828,123.651c0.554,0.879 1.515,1.415 2.558,1.415Z" style="fill:#231f20;fill-rule:nonzero;"/><path d="M2871.77,3360.51l87.349,0c36.198,0 66.225,28.897 66.585,65.088c0.344,36.547 -29.281,66.386 -65.746,66.386l-88.188,0c-1.118,0 -2.014,-0.897 -2.014,-2.009l-0,-127.456c-0,-1.106 0.896,-2.009 2.014,-2.009Zm153.783,313.623l58.656,-0c2.364,-0 3.81,-2.622 2.546,-4.631l-82.053,-130.363c45.157,-17.908 77.025,-62.133 76.663,-113.757c-0.466,-66.894 -55.62,-120.538 -122.514,-120.538l-141.751,-0c-1.666,-0 -3.018,1.35 -3.018,3.017l0,363.255c0,1.665 1.352,3.017 3.018,3.017l49.637,-0c1.672,-0 3.019,-1.352 3.019,-3.017l-0,-121.449c-0,-1.112 0.896,-2.009 2.014,-2.009l70.845,-0c1.043,-0 2.01,0.529 2.557,1.409l77.83,123.651c0.546,0.879 1.519,1.415 2.551,1.415Z" style="fill:#231f20;fill-rule:nonzero;"/><path d="M2127.07,2919.91c0,-0 -0.426,-2184.02 0.32,-2183.71c22.389,9.489 381.85,169.15 446.606,646.593c0,-0 49.812,152.803 -18.981,982.227l-136.036,42.296c-28.482,9.718 -82.735,28.653 -94.591,133.98l-40.594,378.617l-156.724,-0Z" style="fill:#0071a5;"/><path d="M2051.05,2919.91l-0,-2436.6c-0,-0 -660.337,606.046 -605.969,1993.39l276.126,76.443c41.551,11.366 91.801,31.758 100.29,122.245l25.254,244.527l204.299,0Z" style="fill:#0071a5;"/></g></svg>