<?xml version="1.0" encoding="UTF-8"?>
<svg width="494px" height="142px" viewBox="0 0 494 142" version="1.1" xmlns="http://www.w3.org/2000/svg" xmlns:xlink="http://www.w3.org/1999/xlink">
    <!-- Generator: Sketch 64 (93537) - https://sketch.com -->
    <title>Slice 1</title>
    <desc>Created with Sketch.</desc>
    <g id="Page-1" stroke="none" stroke-width="1" fill="none" fill-rule="evenodd">
        <g id="HVL_logo_En_rgb-(1)" fill-rule="nonzero">
            <g id="Group" fill="#00AFBA">
                <polygon id="Path" points="22 0.1 0.5 0.1 36.5 62.5 47.3 43.8"></polygon>
                <polygon id="Path" points="107.6 0.1 64.8 74.3 54.1 92.9 82.3 141.9 164.1 0.1"></polygon>
            </g>
            <g id="Group" transform="translate(199.000000, 19.000000)" fill="#004357">
                <path d="M16.3,5.9 C14.5,12.7 12.6,19.6 10.8,26.4 L6,26.4 L0.8,0.1 L5.1,0.1 C6.3,6.8 7.5,13.3 8.7,20 L13.7,0.1 L19.1,0.1 L24.1,20.1 L28.4,0.1 L32.7,0.1 L26.9,26.4 L22,26.4 L16.3,5.9 Z" id="Path"></path>
                <path d="M47.6,19.9 C48.8,20.2 50.1,20.6 51.3,21 C50.4,23.7 47.9,26.9 42.7,26.9 C37.5,26.9 33.8,22.9 33.8,17.1 C33.8,11.3 37.2,7.3 42.5,7.3 C47.7,7.3 51,10.8 51,16.5 C51,17.1 51,17.7 50.9,18.3 L37.9,18.3 C38,21.1 39.9,23.5 42.6,23.5 C44.7,23.4 46.7,22.5 47.6,19.9 Z M46.8,15.2 C46.7,12.4 45.3,10.6 42.6,10.6 C39.9,10.6 38.4,12.8 38.3,15.2 L46.8,15.2 Z" id="Shape"></path>
                <path d="M54.4,20.9 C55.7,20.6 57.1,20.4 58.4,20.2 C58.7,21.7 59.6,23.5 62.6,23.5 C63.3,23.5 66.6,23.2 66.6,20.8 C66.6,16.3 55,20.9 55,12.8 C55,9.6 58.2,7.2 62.3,7.2 C66.3,7.2 69.8,8.9 70.3,13.1 C69,13.3 67.6,13.6 66.3,13.8 C66,11.4 64.6,10.6 62.3,10.6 C60.3,10.6 59,11.6 59,12.8 C59,14.3 60.4,14.7 62.7,15 C67,15.4 70.6,16.4 70.6,20.8 C70.6,24.8 67.1,26.9 62.6,26.9 C57.7,26.8 54.9,24.3 54.4,20.9 Z" id="Path"></path>
                <path d="M73.2,10.6 L73.2,7.5 L76.5,7.5 L76.5,2 L80.5,2 L80.5,7.5 L84.4,7.5 L84.4,10.6 L80.5,10.6 L80.5,21.3 C80.5,22.8 80.9,23.2 82.3,23.2 C82.9,23.2 83.5,23.1 84.1,23.1 L84.1,26.4 L81.7,26.5 C81.6,26.5 81.4,26.5 81.2,26.5 C77.6,26.5 76.5,24.6 76.5,21 L76.5,10.5 L73.2,10.5 L73.2,10.6 Z" id="Path"></path>
                <path d="M101.4,19.9 C102.6,20.2 103.9,20.6 105.1,21 C104.2,23.7 101.7,26.9 96.5,26.9 C91.3,26.9 87.6,22.9 87.6,17.1 C87.6,11.3 91,7.3 96.3,7.3 C101.5,7.3 104.8,10.8 104.8,16.5 C104.8,17.1 104.8,17.7 104.7,18.3 L91.7,18.3 C91.8,21.1 93.7,23.5 96.4,23.5 C98.5,23.4 100.4,22.5 101.4,19.9 Z M100.5,15.2 C100.4,12.4 99,10.6 96.3,10.6 C93.6,10.6 92.1,12.8 92,15.2 L100.5,15.2 Z" id="Shape"></path>
                <path d="M120,7.3 L120,10.8 L117.9,10.8 C115.1,10.8 113.9,12.6 113.9,16.4 L113.9,26.5 L109.9,26.5 L109.9,7.6 L113.6,7.6 L114,9.7 C114.7,8.6 116,7.3 118.4,7.3 C118.8,7.2 119.5,7.2 120,7.3 Z" id="Path"></path>
                <path d="M136.1,16.2 C136.1,12.3 134.8,10.6 131.8,10.6 C129,10.6 127.6,12.4 127.6,16.2 L127.6,26.5 L123.6,26.5 L123.6,7.6 L127.3,7.6 L127.7,9.7 C128.3,8.5 130.4,7.3 132.7,7.3 C138.1,7.3 140.2,10.3 140.2,16.3 L140.2,26.6 L136.2,26.6 L136.2,16.2 L136.1,16.2 Z" id="Path"></path>
                <polygon id="Path" points="154 0.1 158.1 0.1 170.2 19.1 170.2 0.1 174.4 0.1 174.4 26.4 170.3 26.4 158.2 7.4 158.2 26.4 154 26.4"></polygon>
                <path d="M187.3,26.8 C181.8,26.8 178.5,22.8 178.5,17 C178.5,11.2 181.8,7.2 187.3,7.2 C192.7,7.2 196,11.2 196,17 C196.1,22.8 192.7,26.8 187.3,26.8 Z M187.3,10.6 C184.4,10.6 182.5,12.9 182.5,17 C182.5,21.1 184.4,23.4 187.3,23.4 C190.2,23.4 192.1,21.1 192.1,17 C192.1,12.9 190.2,10.6 187.3,10.6 Z" id="Shape"></path>
                <path d="M210.8,7.3 L210.8,10.8 L208.7,10.8 C205.9,10.8 204.7,12.6 204.7,16.4 L204.7,26.5 L200.7,26.5 L200.7,7.6 L204.4,7.6 L204.8,9.7 C205.5,8.6 206.8,7.3 209.2,7.3 C209.5,7.2 210.3,7.2 210.8,7.3 Z" id="Path"></path>
                <polygon id="Path" points="225.8 12.5 221.5 26.4 216.9 26.4 212.6 7.5 216.8 7.5 219.4 21.1 223.5 7.5 227.9 7.5 232.3 21.1 235.1 7.5 239.3 7.5 234.8 26.4 230.2 26.4"></polygon>
                <path d="M246.6,14 C245.3,13.8 243.9,13.5 242.6,13.3 C243,9.1 246.4,7.2 250.4,7.2 C255.7,7.2 258.5,9.8 258.5,15 L258.5,21.6 C258.5,22.7 258.7,23.4 259.5,23.4 C259.8,23.4 260.3,23.3 260.5,23.3 L260.5,26.6 C259.3,26.9 258.6,26.9 258.1,26.9 C256.2,26.9 255.1,25.7 254.8,24.2 C254.1,25.1 252.1,26.9 248.9,27 C244.5,27 241.9,24.6 241.9,21 C241.9,18 244.6,15.4 249.6,15.4 L254.5,15.4 L254.5,14 C254.5,12.5 253.9,10.6 250.4,10.6 C248.1,10.6 246.6,11.8 246.6,14 Z M254.5,19.1 L254.5,18.2 L250,18.2 C246.7,18.2 246,19.9 246,20.8 C246,22.1 246.9,23.4 249.3,23.4 C252.6,23.4 254.5,21.2 254.5,19.1 Z" id="Shape"></path>
                <path d="M274.9,7.5 L279.1,7.5 C277,13.3 274.8,19 272.6,24.8 L269.3,33.8 L265.4,33.8 L268.1,26.4 L261.1,7.5 L265.3,7.5 C266.9,12.2 268.5,16.8 270.2,21.5 L274.9,7.5 Z" id="Path"></path>
                <path d="M22.5,38.4 L22.5,55.9 C22.5,61.8 18.1,65.1 12.6,65.1 C7.2,65.1 2.7,61.8 2.7,55.9 L2.7,38.4 L6.9,38.4 L6.9,55.9 C6.9,59.3 9.4,61.6 12.7,61.6 C15.9,61.6 18.4,59.3 18.4,55.9 L18.4,38.4 L22.5,38.4 Z" id="Path"></path>
                <path d="M40.5,54.4 C40.5,50.5 39.2,48.8 36.2,48.8 C33.4,48.8 32,50.6 32,54.4 L32,64.7 L28,64.7 L28,45.8 L31.7,45.8 L32.1,47.9 C32.7,46.7 34.8,45.5 37.1,45.5 C42.5,45.5 44.6,48.5 44.6,54.5 L44.6,64.8 L40.6,64.8 L40.6,54.4 L40.5,54.4 Z" id="Path"></path>
                <path d="M49.6,38.4 L54.2,38.4 L54.2,42.9 L49.6,42.9 L49.6,38.4 Z M53.9,45.8 L53.9,64.7 L49.9,64.7 L49.9,45.8 L53.9,45.8 Z" id="Shape"></path>
                <polygon id="Path" points="70.8 45.8 75 45.8 68 64.7 64 64.7 56.9 45.8 61.1 45.8 65.9 59.8"></polygon>
                <path d="M90.5,58.1 C91.7,58.4 93,58.8 94.2,59.2 C93.3,61.9 90.8,65.1 85.6,65.1 C80.4,65.1 76.7,61.1 76.7,55.3 C76.7,49.5 80.1,45.5 85.4,45.5 C90.6,45.5 93.9,49 93.9,54.7 C93.9,55.3 93.9,55.9 93.8,56.5 L80.8,56.5 C80.9,59.3 82.8,61.7 85.5,61.7 C87.6,61.6 89.6,60.7 90.5,58.1 Z M89.7,53.4 C89.6,50.6 88.2,48.8 85.5,48.8 C82.8,48.8 81.3,51 81.2,53.4 L89.7,53.4 Z" id="Shape"></path>
                <path d="M109,45.5 L109,49 L106.9,49 C104.1,49 102.9,50.8 102.9,54.6 L102.9,64.7 L98.9,64.7 L98.9,45.8 L102.6,45.8 L103,47.9 C103.7,46.8 105,45.5 107.4,45.5 C107.7,45.4 108.5,45.4 109,45.5 Z" id="Path"></path>
                <path d="M110.9,59.1 C112.2,58.8 113.6,58.6 114.9,58.4 C115.2,59.9 116.1,61.7 119.1,61.7 C119.8,61.7 123.1,61.4 123.1,59 C123.1,54.5 111.5,59.2 111.5,51 C111.5,47.8 114.7,45.4 118.8,45.4 C122.8,45.4 126.3,47.1 126.8,51.3 C125.5,51.5 124.1,51.8 122.8,52 C122.5,49.6 121.1,48.8 118.8,48.8 C116.8,48.8 115.5,49.8 115.5,51 C115.5,52.5 116.9,52.9 119.2,53.2 C123.5,53.6 127.1,54.6 127.1,59 C127.1,63 123.6,65.1 119.1,65.1 C114.2,65 111.4,62.5 110.9,59.1 Z" id="Path"></path>
                <path d="M131.8,38.4 L136.4,38.4 L136.4,42.9 L131.8,42.9 L131.8,38.4 Z M136.1,45.8 L136.1,64.7 L132.1,64.7 L132.1,45.8 L136.1,45.8 Z" id="Shape"></path>
                <path d="M140.3,48.8 L140.3,45.7 L143.6,45.7 L143.6,40.2 L147.6,40.2 L147.6,45.7 L151.5,45.7 L151.5,48.8 L147.6,48.8 L147.6,59.5 C147.6,61 148,61.4 149.4,61.4 C150,61.4 150.6,61.3 151.2,61.3 L151.2,64.6 L148.8,64.7 C148.7,64.7 148.5,64.7 148.3,64.7 C144.7,64.7 143.6,62.8 143.6,59.2 L143.6,48.7 L140.3,48.7 L140.3,48.8 Z" id="Path"></path>
                <path d="M167.8,45.8 L172,45.8 C169.9,51.6 167.7,57.4 165.5,63.1 L162.2,72.1 L158.3,72.1 L161,64.7 L154,45.8 L158.2,45.8 C159.8,50.5 161.4,55.1 163.1,59.8 L167.8,45.8 Z" id="Path"></path>
                <path d="M190.1,65 C184.6,65 181.3,61 181.3,55.2 C181.3,49.4 184.6,45.4 190.1,45.4 C195.5,45.4 198.8,49.4 198.8,55.2 C198.8,61 195.5,65 190.1,65 Z M190.1,48.8 C187.2,48.8 185.3,51.1 185.3,55.2 C185.3,59.3 187.2,61.6 190.1,61.6 C193,61.6 194.9,59.3 194.9,55.2 C194.9,51.1 193,48.8 190.1,48.8 Z" id="Shape"></path>
                <path d="M204.5,45.8 L204.5,43.5 C204.5,40.4 205.9,38.4 209.7,38.4 L212.5,38.4 L212.5,41.8 L210.2,41.8 C209.1,41.8 208.6,42.5 208.6,43.7 L208.6,45.8 L212.2,45.8 L212.2,48.9 L208.6,48.9 L208.6,64.7 L204.6,64.7 L204.6,48.9 L201.3,48.9 L201.3,45.8 L204.5,45.8 Z" id="Path"></path>
                <path d="M17.5,97.5 L6.8,97.5 L4.9,102.8 L0.6,102.8 L10.1,76.5 L14.1,76.5 L23.6,102.8 L19.3,102.8 L17.5,97.5 Z M8.1,94 L16.4,94 L12.3,82.2 L8.1,94 Z" id="Shape"></path>
                <path d="M27.2,84 L30.9,84 L31.3,86.4 C32,85.4 34.1,83.6 36.8,83.6 C41.5,83.6 44.9,87.6 44.9,93.4 C44.9,99.2 41.9,103.2 36.8,103.2 C34.3,103.2 32.1,101.7 31.3,100.5 L31.3,110.2 L27.2,110.2 L27.2,84 L27.2,84 Z M36,87 C33,87 31.3,89.3 31.3,93.4 C31.3,97.5 33,99.8 36,99.8 C38.9,99.8 40.8,97.5 40.8,93.4 C40.8,89.3 38.9,87 36,87 Z" id="Shape"></path>
                <path d="M49.4,84 L53.1,84 L53.5,86.4 C54.2,85.4 56.3,83.6 59,83.6 C63.7,83.6 67.1,87.6 67.1,93.4 C67.1,99.2 64.1,103.2 59,103.2 C56.5,103.2 54.3,101.7 53.5,100.5 L53.5,110.2 L49.4,110.2 L49.4,84 L49.4,84 Z M58.1,87 C55.1,87 53.4,89.3 53.4,93.4 C53.4,97.5 55.1,99.8 58.1,99.8 C61,99.8 62.9,97.5 62.9,93.4 C62.9,89.3 61,87 58.1,87 Z" id="Shape"></path>
                <polygon id="Path" points="75.6 76.6 75.6 102.9 71.6 102.9 71.6 76.6"></polygon>
                <path d="M80.9,76.6 L85.5,76.6 L85.5,81.1 L80.9,81.1 L80.9,76.6 Z M85.2,84 L85.2,102.9 L81.2,102.9 L81.2,84 L85.2,84 Z" id="Shape"></path>
                <path d="M103.6,96.3 C104.8,96.6 106.1,97 107.3,97.4 C106.4,100.1 103.9,103.3 98.7,103.3 C93.5,103.3 89.8,99.3 89.8,93.5 C89.8,87.7 93.2,83.7 98.5,83.7 C103.7,83.7 107,87.2 107,92.9 C107,93.5 107,94.1 106.9,94.7 L93.9,94.7 C94,97.5 95.9,99.9 98.6,99.9 C100.7,99.9 102.6,98.9 103.6,96.3 Z M102.7,91.6 C102.6,88.8 101.2,87 98.5,87 C95.8,87 94.3,89.2 94.2,91.6 L102.7,91.6 Z" id="Shape"></path>
                <path d="M128.4,102.9 L124.7,102.9 L124.3,100.5 C123.6,101.5 121.5,103.2 118.8,103.2 C114.1,103.2 110.6,99.2 110.6,93.4 C110.6,87.6 113.7,83.6 118.8,83.6 C121.3,83.6 123.5,85.2 124.3,86.3 L124.3,76.6 L128.4,76.6 L128.4,102.9 L128.4,102.9 Z M119.7,99.9 C122.6,99.9 124.4,97.6 124.4,93.5 C124.4,89.4 122.6,87.1 119.7,87.1 C116.8,87.1 114.8,89.4 114.8,93.5 C114.8,97.6 116.8,99.9 119.7,99.9 Z" id="Shape"></path>
                <path d="M145.4,93.9 C145.4,96.4 147.2,99.8 151.7,99.8 C154.8,99.8 157.5,98.3 157.5,95.4 C157.5,92.1 154.5,91.4 151.7,91.2 C147.4,90.8 142,89.4 142,83.9 C142,78.5 147.1,76.3 151.5,76.3 C156.2,76.3 160.9,79.1 161.1,84 L157.1,84.7 C156.8,81.3 154.1,79.9 151.5,79.9 C148.9,79.9 146.1,81 146.1,84 C146.1,85.8 147.6,87.3 151.9,87.8 C156.2,88.3 161.7,89.3 161.7,95.5 C161.7,100.2 157.6,103.4 151.7,103.4 C144.3,103.4 141.4,98.7 141.2,94.8 L145.4,93.9 Z" id="Path"></path>
                <path d="M178,96.2 C179.3,96.4 180.7,96.7 182,96.9 C181.4,100 178.7,103.2 173.7,103.2 C168.2,103.2 164.8,99.2 164.8,93.4 C164.8,87.6 168.3,83.6 173.7,83.6 C178.7,83.6 181.1,86.7 181.9,89.9 C180.6,90.2 179.2,90.4 177.9,90.6 C177.3,88.2 175.7,87 173.8,87 C170.6,87 168.9,89.6 168.9,93.4 C168.9,97.2 170.6,99.8 173.8,99.8 C175.9,99.9 177.4,98.6 178,96.2 Z" id="Path"></path>
                <path d="M186.2,76.6 L190.8,76.6 L190.8,81.1 L186.2,81.1 L186.2,76.6 Z M190.5,84 L190.5,102.9 L186.5,102.9 L186.5,84 L190.5,84 Z" id="Shape"></path>
                <path d="M208.9,96.3 C210.1,96.6 211.4,97 212.6,97.4 C211.7,100.1 209.2,103.3 204,103.3 C198.8,103.3 195.1,99.3 195.1,93.5 C195.1,87.7 198.5,83.7 203.8,83.7 C209,83.7 212.3,87.2 212.3,92.9 C212.3,93.5 212.3,94.1 212.2,94.7 L199.2,94.7 C199.3,97.5 201.2,99.9 203.9,99.9 C206,99.9 207.9,98.9 208.9,96.3 Z M208,91.6 C207.9,88.8 206.5,87 203.8,87 C201.1,87 199.6,89.2 199.5,91.6 L208,91.6 Z" id="Shape"></path>
                <path d="M229.7,92.6 C229.7,88.7 228.4,87 225.4,87 C222.6,87 221.2,88.8 221.2,92.6 L221.2,102.9 L217.2,102.9 L217.2,84 L220.9,84 L221.3,86.1 C221.9,84.9 224,83.7 226.3,83.7 C231.7,83.7 233.8,86.7 233.8,92.7 L233.8,103 L229.8,103 L229.8,92.6 L229.7,92.6 Z" id="Path"></path>
                <path d="M250.8,96.2 C252.1,96.4 253.5,96.7 254.8,96.9 C254.2,100 251.5,103.2 246.5,103.2 C241,103.2 237.6,99.2 237.6,93.4 C237.6,87.6 241.1,83.6 246.5,83.6 C251.5,83.6 253.9,86.7 254.7,89.9 C253.4,90.2 252,90.4 250.7,90.6 C250.1,88.2 248.5,87 246.6,87 C243.4,87 241.7,89.6 241.7,93.4 C241.7,97.2 243.4,99.8 246.6,99.8 C248.7,99.9 250.2,98.6 250.8,96.2 Z" id="Path"></path>
                <path d="M271.8,96.3 C273,96.6 274.3,97 275.5,97.4 C274.6,100.1 272.1,103.3 266.9,103.3 C261.7,103.3 258,99.3 258,93.5 C258,87.7 261.4,83.7 266.7,83.7 C271.9,83.7 275.2,87.2 275.2,92.9 C275.2,93.5 275.2,94.1 275.1,94.7 L262.1,94.7 C262.2,97.5 264.1,99.9 266.8,99.9 C268.9,99.9 270.9,98.9 271.8,96.3 Z M271,91.6 C270.9,88.8 269.5,87 266.8,87 C264.1,87 262.6,89.2 262.5,91.6 L271,91.6 Z" id="Shape"></path>
                <path d="M278.4,97.3 C279.7,97 281.1,96.8 282.4,96.6 C282.7,98.1 283.6,99.9 286.6,99.9 C287.3,99.9 290.6,99.6 290.6,97.2 C290.6,92.7 279,97.4 279,89.2 C279,86 282.2,83.6 286.3,83.6 C290.3,83.6 293.8,85.3 294.3,89.5 C293,89.7 291.6,90 290.3,90.2 C290,87.8 288.6,87 286.3,87 C284.3,87 283,88 283,89.2 C283,90.7 284.4,91.1 286.7,91.4 C291,91.8 294.6,92.8 294.6,97.2 C294.6,101.2 291.1,103.3 286.6,103.3 C281.7,103.3 278.9,100.7 278.4,97.3 Z" id="Path"></path>
            </g>
        </g>
    </g>
</svg>