<?xml version="1.0" encoding="UTF-8" standalone="no"?>
<!DOCTYPE svg PUBLIC "-//W3C//DTD SVG 1.1//EN" "http://www.w3.org/Graphics/SVG/1.1/DTD/svg11.dtd">
<svg width="100%" height="100%" viewBox="0 0 310 60" version="1.1" xmlns="http://www.w3.org/2000/svg" xmlns:xlink="http://www.w3.org/1999/xlink" xml:space="preserve" xmlns:serif="http://www.serif.com/" style="fill-rule:evenodd;clip-rule:evenodd;stroke-linejoin:round;stroke-miterlimit:2;">
    <g transform="matrix(1,0,0,1,0.003,0.0110677)">
        <g id="Group_163" transform="matrix(1,0,0,1,-3.396,-2.2)">
            <g id="Group_161" transform="matrix(1,0,0,1,113.502,10.951)">
                <g id="Path_301" transform="matrix(1,0,0,1,-141.8,-13.261)">
                    <path d="M151.346,28.377L143.391,16.444L143.391,28.377L141.8,28.377L141.8,13.5L143.312,13.5L151.267,25.433L151.267,13.5L152.858,13.5L152.858,28.456L151.346,28.456L151.346,28.377Z" style="fill:rgb(102,102,102);fill-rule:nonzero;"/>
                </g>
                <g id="Path_302" transform="matrix(1,0,0,1,-145.542,-14.386)">
                    <path d="M167.26,28.467C165.63,30.048 163.003,30.048 161.373,28.467C160.415,27.313 159.956,25.823 160.1,24.33C159.968,22.838 160.425,21.353 161.373,20.193C163.003,18.612 165.63,18.612 167.26,20.193C168.218,21.347 168.677,22.837 168.533,24.33C168.69,25.824 168.23,27.319 167.26,28.467ZM166.146,21.148C165.635,20.658 164.944,20.398 164.237,20.432C163.553,20.399 162.887,20.659 162.407,21.148C161.74,22.068 161.429,23.199 161.532,24.33C161.532,25.444 161.612,26.796 162.407,27.512C162.895,27.988 163.556,28.247 164.237,28.228C164.942,28.247 165.627,27.99 166.146,27.512C166.862,26.796 166.946,25.444 166.946,24.33C167.141,23.204 166.85,22.048 166.146,21.148Z" style="fill:rgb(102,102,102);fill-rule:nonzero;"/>
                </g>
                <g id="Path_303" transform="matrix(1,0,0,1,-148.547,-14.427)">
                    <path d="M180.528,21.189C180.093,20.684 179.442,20.418 178.778,20.473C177.411,20.493 176.298,21.623 176.298,22.99C176.298,23.079 176.303,23.168 176.312,23.257L176.312,29.621L174.8,29.621L174.8,19.28L176.312,19.28L176.312,20.553C176.978,19.65 178.056,19.141 179.176,19.201C180.096,19.153 180.994,19.501 181.642,20.156L180.528,21.189Z" style="fill:rgb(102,102,102);fill-rule:nonzero;"/>
                </g>
                <g id="Path_304" transform="matrix(1,0,0,1,-150.367,-14.447)">
                    <path d="M195.235,29.562L193.8,29.562L191.1,21.607L188.4,29.642L186.968,29.642L183.7,19.3L185.371,19.3L187.758,27.574L190.458,19.3L191.731,19.3L194.431,27.574L196.818,19.3L198.5,19.3L195.235,29.562Z" style="fill:rgb(102,102,102);fill-rule:nonzero;"/>
                </g>
                <g id="Path_305" transform="matrix(1,0,0,1,-154.538,-14.427)">
                    <path d="M205.612,24.848C205.612,27.076 206.646,28.428 208.635,28.428C209.674,28.492 210.683,28.047 211.335,27.235L212.369,28.11C211.43,29.18 210.052,29.766 208.63,29.701C205.93,29.701 204.095,28.03 204.095,24.45C204.095,21.109 205.686,19.199 208.311,19.199C210.936,19.199 212.527,21.108 212.527,24.211L212.527,24.927L205.606,24.927L205.612,24.848ZM210.703,21.984C210.289,21.044 209.343,20.445 208.316,20.472C207.298,20.478 206.369,21.066 205.929,21.984C205.717,22.543 205.61,23.136 205.611,23.734L211.1,23.734C211.079,23.131 210.944,22.537 210.7,21.984L210.703,21.984Z" style="fill:rgb(102,102,102);fill-rule:nonzero;"/>
                </g>
                <g id="Path_306" transform="matrix(1,0,0,1,-157.4,-14.427)">
                    <path d="M221.919,34.315C220.614,34.38 219.341,33.889 218.419,32.963L219.374,32.008C220.007,32.693 220.908,33.07 221.84,33.042C223.829,33.042 224.704,31.61 224.704,29.86L224.704,28.269C224.03,29.162 222.958,29.668 221.84,29.621C220.922,29.655 220.03,29.309 219.374,28.666C218.402,27.456 217.944,25.91 218.101,24.366C217.944,22.822 218.402,21.276 219.374,20.066C220.073,19.448 220.989,19.133 221.92,19.191C223.047,19.091 224.145,19.609 224.784,20.543L224.784,19.359L226.296,19.359L226.296,30.019C226.297,30.052 226.297,30.086 226.297,30.119C226.297,32.423 224.401,34.319 222.097,34.319C222.038,34.319 221.978,34.318 221.919,34.315ZM222.158,20.473C219.93,20.473 219.612,22.382 219.612,24.292C219.612,26.202 219.93,28.111 222.158,28.111C224.386,28.111 224.7,26.2 224.7,24.291C224.7,22.382 224.385,20.473 222.157,20.473L222.158,20.473Z" style="fill:rgb(102,102,102);fill-rule:nonzero;"/>
                </g>
                <g id="Path_307" transform="matrix(1,0,0,1,-160.427,-13.261)">
                    <path d="M232.9,15.171L232.9,13.5L234.571,13.5L234.571,15.171L232.9,15.171ZM232.98,28.377L232.98,18.035L234.492,18.035L234.492,28.377L232.98,28.377Z" style="fill:rgb(102,102,102);fill-rule:nonzero;"/>
                </g>
                <g id="Path_308" transform="matrix(1,0,0,1,-161.612,-14.447)">
                    <path d="M245.383,29.562L245.383,28.607C244.632,29.419 243.541,29.832 242.44,29.721C241.367,29.852 240.289,29.502 239.497,28.766C238.978,28.203 238.692,27.463 238.697,26.698C238.697,24.868 239.97,23.755 242.277,23.755L245.377,23.755L245.377,22.8C245.377,21.288 244.661,20.572 242.752,20.572C241.723,20.437 240.702,20.901 240.127,21.765L239.093,20.81C239.965,19.705 241.354,19.131 242.752,19.298C245.536,19.298 246.889,20.491 246.889,22.719L246.889,29.719L245.377,29.719L245.383,29.562ZM245.383,24.868L242.519,24.868C241.007,24.868 240.212,25.504 240.212,26.698C240.212,27.892 240.928,28.448 242.599,28.448C243.434,28.544 244.272,28.284 244.906,27.732C245.303,27.239 245.502,26.614 245.463,25.982L245.463,24.869L245.383,24.868Z" style="fill:rgb(102,102,102);fill-rule:nonzero;"/>
                </g>
                <g id="Path_309" transform="matrix(1,0,0,1,-164.659,-14.386)">
                    <path d="M260.2,29.5L260.2,23.137C260.2,21.307 259.245,20.353 257.654,20.353C256.063,20.353 255.108,21.308 255.108,23.137L255.108,29.5L253.6,29.5L253.6,19.159L255.112,19.159L255.112,20.273C255.82,19.433 256.877,18.963 257.975,19C258.943,18.946 259.893,19.291 260.6,19.955C261.324,20.726 261.698,21.763 261.634,22.819L261.634,29.419L260.2,29.419L260.2,29.5Z" style="fill:rgb(102,102,102);fill-rule:nonzero;"/>
                </g>
                <g id="Path_310" transform="matrix(1,0,0,1,-168.932,-13.2)">
                    <path d="M279.751,28.474C278.317,28.476 276.94,27.903 275.932,26.883C274.5,25.451 274.5,24.019 274.5,20.837C274.5,17.655 274.5,16.223 275.932,14.791C276.94,13.771 278.317,13.198 279.751,13.2C282.359,13.108 284.628,15.062 284.922,17.655L283.251,17.655C282.997,15.895 281.449,14.588 279.671,14.632C278.721,14.635 277.808,15.006 277.125,15.666C276.17,16.621 276.091,17.655 276.091,20.757C276.091,23.859 276.171,24.894 277.125,25.848C277.808,26.508 278.721,26.879 279.671,26.882C281.441,26.901 282.973,25.607 283.251,23.859L284.842,23.859C284.681,26.508 282.403,28.573 279.751,28.474Z" style="fill:rgb(102,102,102);fill-rule:nonzero;"/>
                </g>
                <g id="Path_311" transform="matrix(1,0,0,1,-172.306,-14.427)">
                    <path d="M292.512,24.848C292.512,27.076 293.546,28.428 295.535,28.428C296.574,28.492 297.583,28.047 298.235,27.235L299.269,28.11C298.33,29.18 296.952,29.766 295.53,29.701C292.83,29.701 290.995,28.03 290.995,24.45C290.995,21.109 292.586,19.199 295.211,19.199C297.836,19.199 299.427,21.108 299.427,24.211L299.427,24.927L292.506,24.927L292.512,24.848ZM297.683,21.984C297.269,21.044 296.323,20.445 295.296,20.472C294.278,20.478 293.349,21.066 292.909,21.984C292.697,22.543 292.59,23.136 292.591,23.734L298.08,23.734C297.982,23.143 297.85,22.559 297.682,21.984L297.683,21.984Z" style="fill:rgb(102,102,102);fill-rule:nonzero;"/>
                </g>
                <g id="Path_312" transform="matrix(1,0,0,1,-175.311,-14.386)">
                    <path d="M312.3,29.5L312.3,23.137C312.3,21.307 311.345,20.353 309.754,20.353C308.163,20.353 307.208,21.308 307.208,23.137L307.208,29.5L305.7,29.5L305.7,19.159L307.212,19.159L307.212,20.273C307.92,19.433 308.977,18.963 310.075,19C311.043,18.946 311.993,19.291 312.7,19.955C313.424,20.726 313.798,21.763 313.734,22.819L313.734,29.419L312.3,29.419L312.3,29.5Z" style="fill:rgb(102,102,102);fill-rule:nonzero;"/>
                </g>
                <g id="Path_313" transform="matrix(1,0,0,1,-178.072,-13.609)">
                    <path d="M323.1,28.724C323.07,28.725 323.04,28.726 323.01,28.726C321.613,28.726 320.464,27.576 320.464,26.18C320.464,26.1 320.467,26.02 320.475,25.94L320.475,19.575L319.2,19.575L319.2,18.462L320.473,18.462L320.473,15.2L321.985,15.2L321.985,18.462L324.213,18.462L324.213,19.576L321.985,19.576L321.985,25.86C321.976,25.924 321.971,25.989 321.971,26.054C321.971,26.78 322.568,27.378 323.295,27.378C323.336,27.378 323.376,27.376 323.417,27.372L324.217,27.372L324.217,28.645L323.1,28.645L323.1,28.724Z" style="fill:rgb(102,102,102);fill-rule:nonzero;"/>
                </g>
                <g id="Path_314" transform="matrix(1,0,0,1,-180.137,-14.427)">
                    <path d="M335.028,21.189C334.593,20.684 333.942,20.418 333.278,20.473C331.911,20.493 330.798,21.623 330.798,22.99C330.798,23.079 330.803,23.168 330.812,23.257L330.812,29.621L329.3,29.621L329.3,19.28L330.812,19.28L330.812,20.553C331.478,19.65 332.556,19.141 333.676,19.201C334.596,19.153 335.494,19.501 336.142,20.156L335.028,21.189Z" style="fill:rgb(102,102,102);fill-rule:nonzero;"/>
                </g>
                <g id="Path_315" transform="matrix(1,0,0,1,-182.059,-14.427)">
                    <path d="M340.212,24.848C340.212,27.076 341.246,28.428 343.235,28.428C344.274,28.492 345.283,28.047 345.935,27.235L346.969,28.11C346.03,29.18 344.652,29.766 343.23,29.701C340.53,29.701 338.695,28.03 338.695,24.45C338.695,21.109 340.286,19.199 342.911,19.199C345.536,19.199 347.127,21.108 347.127,24.211L347.127,24.927L340.206,24.927L340.212,24.848ZM345.383,21.984C344.969,21.046 344.025,20.447 343,20.473C341.982,20.479 341.053,21.067 340.613,21.985C340.401,22.544 340.294,23.137 340.295,23.735L345.784,23.735C345.724,23.137 345.59,22.549 345.383,21.984Z" style="fill:rgb(102,102,102);fill-rule:nonzero;"/>
                </g>
                <g id="Path_316" transform="matrix(1,0,0,1,-186.148,-13.241)">
                    <path d="M361.564,19.287L361.564,28.356L360.052,28.356L360.052,19.287L358.7,19.287L358.7,18.173L360.052,18.173L360.052,16.184C360.044,16.104 360.041,16.024 360.041,15.944C360.041,14.548 361.19,13.398 362.587,13.398C362.617,13.398 362.647,13.399 362.677,13.4L363.791,13.4L363.791,14.673L363,14.673C362.045,14.673 361.648,15.23 361.648,16.185L361.648,18.094L363.876,18.094L363.876,19.208L361.569,19.208L361.564,19.287Z" style="fill:rgb(102,102,102);fill-rule:nonzero;"/>
                </g>
                <g id="Path_317" transform="matrix(1,0,0,1,-187.865,-14.386)">
                    <path d="M374.26,28.467C372.63,30.048 370.003,30.048 368.373,28.467C367.415,27.313 366.956,25.823 367.1,24.33C366.968,22.838 367.425,21.353 368.373,20.193C370.003,18.612 372.63,18.612 374.26,20.193C375.218,21.347 375.677,22.837 375.533,24.33C375.453,26 375.294,27.433 374.26,28.467ZM373.146,21.148C372.635,20.658 371.944,20.398 371.237,20.432C370.556,20.413 369.895,20.672 369.407,21.148C368.74,22.068 368.429,23.199 368.532,24.33C368.532,25.444 368.612,26.796 369.407,27.512C369.895,27.988 370.556,28.247 371.237,28.228C371.942,28.247 372.627,27.99 373.146,27.512C373.862,26.796 373.946,25.444 373.946,24.33C373.946,23.216 373.942,21.943 373.146,21.148Z" style="fill:rgb(102,102,102);fill-rule:nonzero;"/>
                </g>
                <g id="Path_318" transform="matrix(1,0,0,1,-190.851,-14.427)">
                    <path d="M387.428,21.189C386.993,20.684 386.342,20.418 385.678,20.473C384.311,20.493 383.198,21.623 383.198,22.99C383.198,23.079 383.203,23.168 383.212,23.257L383.212,29.621L381.7,29.621L381.7,19.28L383.212,19.28L383.212,20.553C383.878,19.65 384.956,19.141 386.076,19.201C386.996,19.153 387.894,19.501 388.542,20.156L387.428,21.189Z" style="fill:rgb(102,102,102);fill-rule:nonzero;"/>
                </g>
                <g id="Path_319" transform="matrix(1,0,0,1,-141.8,-20.234)">
                    <path d="M150.471,62.556L150.471,55.635L143.391,55.635L143.391,62.477L141.8,62.477L141.8,47.6L143.391,47.6L143.391,54.283L150.471,54.283L150.471,47.6L152.062,47.6L152.062,62.556L150.471,62.556Z" style="fill:rgb(102,102,102);fill-rule:nonzero;"/>
                </g>
                <g id="Path_320" transform="matrix(1,0,0,1,-145.46,-21.419)">
                    <path d="M166.3,63.742L166.3,62.549C165.57,63.405 164.481,63.876 163.357,63.822C162.387,63.891 161.431,63.543 160.732,62.867C160.008,62.094 159.635,61.057 159.7,60L159.7,53.4L161.212,53.4L161.212,59.764C161.212,61.594 162.167,62.548 163.758,62.548C165.349,62.548 166.304,61.593 166.304,59.764L166.304,53.4L167.816,53.4L167.816,63.742L166.3,63.742Z" style="fill:rgb(102,102,102);fill-rule:nonzero;"/>
                </g>
                <g id="Path_321" transform="matrix(1,0,0,1,-148.527,-21.338)">
                    <path d="M187.906,63.581L187.906,57.216C187.906,55.386 186.951,54.432 185.36,54.432C185.303,54.428 185.246,54.426 185.189,54.426C183.883,54.426 182.808,55.501 182.808,56.807C182.808,56.864 182.81,56.921 182.814,56.978L182.814,63.5L181.3,63.5L181.3,57.137C181.3,55.307 180.345,54.353 178.754,54.353C177.163,54.353 176.208,55.308 176.208,57.137L176.208,63.5L174.7,63.5L174.7,53.159L176.212,53.159L176.212,54.273C176.942,53.417 178.031,52.946 179.155,53C180.465,52.906 181.714,53.593 182.337,54.75C183.113,53.634 184.398,52.976 185.758,53C186.728,52.931 187.684,53.279 188.383,53.955C189.13,54.717 189.533,55.753 189.497,56.819L189.497,63.419L187.906,63.419L187.906,63.581Z" style="fill:rgb(102,102,102);fill-rule:nonzero;"/>
                </g>
                <g id="Path_322" transform="matrix(1,0,0,1,-153.025,-21.419)">
                    <path d="M203.383,63.662L203.383,62.707C202.632,63.519 201.541,63.932 200.44,63.821C199.367,63.952 198.289,63.602 197.497,62.866C196.978,62.303 196.692,61.563 196.697,60.798C196.697,58.968 197.97,57.855 200.277,57.855L203.377,57.855L203.377,56.9C203.377,55.388 202.661,54.672 200.752,54.672C199.723,54.537 198.702,55.001 198.127,55.865L197.093,54.91C197.965,53.805 199.354,53.231 200.752,53.398C203.536,53.398 204.889,54.591 204.889,56.819L204.889,63.819L203.377,63.819L203.383,63.662ZM203.383,58.968L200.519,58.968C198.928,58.968 198.212,59.604 198.212,60.798C198.212,61.992 198.928,62.548 200.599,62.548C201.434,62.644 202.272,62.384 202.906,61.832C203.303,61.339 203.502,60.714 203.463,60.082L203.463,58.969L203.383,58.968Z" style="fill:rgb(102,102,102);fill-rule:nonzero;"/>
                </g>
                <g id="Path_323" transform="matrix(1,0,0,1,-156.071,-21.358)">
                    <path d="M218.2,63.6L218.2,57.237C218.2,55.407 217.245,54.453 215.654,54.453C214.063,54.453 213.108,55.408 213.108,57.237L213.108,63.6L211.6,63.6L211.6,53.259L213.112,53.259L213.112,54.373C213.82,53.532 214.877,53.063 215.976,53.1C216.944,53.046 217.894,53.391 218.601,54.055C219.325,54.826 219.699,55.863 219.635,56.919L219.635,63.519L218.2,63.519L218.2,63.6Z" style="fill:rgb(102,102,102);fill-rule:nonzero;"/>
                </g>
                <g id="Path_324" transform="matrix(1,0,0,1,-159.077,-20.234)">
                    <path d="M226.3,49.271L226.3,47.6L227.971,47.6L227.971,49.271L226.3,49.271ZM226.38,62.477L226.38,52.135L227.892,52.135L227.892,62.477L226.38,62.477Z" style="fill:rgb(102,102,102);fill-rule:nonzero;"/>
                </g>
                <g id="Path_325" transform="matrix(1,0,0,1,-160.222,-20.581)">
                    <path d="M235.8,62.824C235.77,62.825 235.74,62.826 235.71,62.826C234.313,62.826 233.164,61.676 233.164,60.28C233.164,60.2 233.167,60.12 233.175,60.04L233.175,53.675L231.9,53.675L231.9,52.562L233.173,52.562L233.173,49.3L234.685,49.3L234.685,52.562L236.913,52.562L236.913,53.676L234.685,53.676L234.685,59.96C234.676,60.024 234.671,60.089 234.671,60.154C234.671,60.88 235.268,61.478 235.995,61.478C236.036,61.478 236.076,61.476 236.117,61.472L236.917,61.472L236.917,62.745L235.8,62.745L235.8,62.824Z" style="fill:rgb(102,102,102);fill-rule:nonzero;"/>
                </g>
                <g id="Path_326" transform="matrix(1,0,0,1,-162.001,-21.419)">
                    <path d="M247.283,63.662L247.283,62.707C246.532,63.519 245.441,63.932 244.34,63.821C243.267,63.952 242.189,63.602 241.397,62.866C240.878,62.303 240.592,61.563 240.597,60.798C240.597,58.968 241.87,57.855 244.177,57.855L247.277,57.855L247.277,56.9C247.277,55.388 246.561,54.672 244.652,54.672C243.623,54.537 242.602,55.001 242.027,55.865L241,54.912C241.872,53.807 243.261,53.233 244.659,53.4C247.443,53.4 248.796,54.593 248.796,56.821L248.796,63.821L247.284,63.821L247.283,63.662ZM247.283,58.968L244.419,58.968C242.907,58.968 242.112,59.604 242.112,60.798C242.112,61.992 242.828,62.548 244.499,62.548C245.334,62.644 246.172,62.384 246.806,61.832C247.203,61.339 247.402,60.714 247.363,60.082L247.363,58.969L247.283,58.968Z" style="fill:rgb(102,102,102);fill-rule:nonzero;"/>
                </g>
                <g id="Path_327" transform="matrix(1,0,0,1,-165.068,-21.399)">
                    <path d="M261.328,55.289C260.893,54.784 260.242,54.518 259.578,54.573C258.211,54.593 257.098,55.723 257.098,57.09C257.098,57.179 257.103,57.268 257.112,57.357L257.112,63.721L255.6,63.721L255.6,53.38L257.112,53.38L257.112,54.653C257.778,53.75 258.856,53.241 259.976,53.301C260.896,53.253 261.794,53.601 262.442,54.256L261.328,55.289Z" style="fill:rgb(102,102,102);fill-rule:nonzero;"/>
                </g>
                <g id="Path_328" transform="matrix(1,0,0,1,-167.296,-20.234)">
                    <path d="M266.5,49.271L266.5,47.6L268.171,47.6L268.171,49.271L266.5,49.271ZM266.58,62.477L266.58,52.135L268.092,52.135L268.092,62.477L266.58,62.477Z" style="fill:rgb(102,102,102);fill-rule:nonzero;"/>
                </g>
                <g id="Path_329" transform="matrix(1,0,0,1,-168.462,-21.419)">
                    <path d="M278.883,63.662L278.883,62.707C278.132,63.519 277.041,63.932 275.94,63.821C274.868,63.952 273.791,63.602 273,62.867C272.481,62.304 272.195,61.564 272.2,60.799C272.2,58.969 273.473,57.856 275.78,57.856L278.88,57.856L278.88,56.9C278.88,55.388 278.164,54.672 276.255,54.672C275.226,54.537 274.205,55.001 273.63,55.865L272.596,54.91C273.468,53.805 274.857,53.231 276.255,53.398C279.039,53.398 280.392,54.591 280.392,56.819L280.392,63.819L278.88,63.819L278.883,63.662ZM278.883,58.968L276.019,58.968C274.507,58.968 273.712,59.604 273.712,60.798C273.712,61.992 274.428,62.548 276.099,62.548C276.934,62.644 277.772,62.384 278.406,61.832C278.803,61.339 279.002,60.714 278.963,60.082L278.963,58.969L278.883,58.968Z" style="fill:rgb(102,102,102);fill-rule:nonzero;"/>
                </g>
                <g id="Path_330" transform="matrix(1,0,0,1,-171.508,-21.358)">
                    <path d="M293.7,63.6L293.7,57.237C293.7,55.407 292.745,54.453 291.154,54.453C289.563,54.453 288.608,55.408 288.608,57.237L288.608,63.6L287.1,63.6L287.1,53.259L288.612,53.259L288.612,54.373C289.32,53.532 290.377,53.063 291.476,53.1C292.444,53.046 293.394,53.391 294.101,54.055C294.825,54.826 295.199,55.863 295.135,56.919L295.135,63.519L293.7,63.519L293.7,63.6Z" style="fill:rgb(102,102,102);fill-rule:nonzero;"/>
                </g>
                <g id="Path_331" transform="matrix(1,0,0,1,-175.639,-20.213)">
                    <path d="M312.391,62.615C310.482,62.757 308.608,62.024 307.3,60.626L308.414,59.512C309.443,60.654 310.936,61.269 312.471,61.183C314.619,61.183 315.971,60.149 315.971,58.399C316.02,57.713 315.757,57.04 315.255,56.569C314.686,56.123 313.989,55.871 313.266,55.853L311.516,55.614C310.504,55.505 309.54,55.119 308.732,54.5C307.973,53.779 307.565,52.761 307.618,51.716C307.618,49.17 309.448,47.5 312.391,47.5C314.044,47.404 315.664,48.011 316.846,49.171L315.812,50.2C314.876,49.305 313.605,48.842 312.312,48.927C310.323,48.927 309.13,50.041 309.13,51.711C309.106,52.355 309.335,52.983 309.766,53.461C310.345,53.901 311.032,54.178 311.755,54.261L313.426,54.5C314.411,54.559 315.354,54.92 316.126,55.534C316.952,56.287 317.416,57.359 317.399,58.477C317.483,61.024 315.494,62.615 312.391,62.615Z" style="fill:rgb(102,102,102);fill-rule:nonzero;"/>
                </g>
                <g id="Path_332" transform="matrix(1,0,0,1,-178.787,-20.581)">
                    <path d="M326.6,62.824C326.57,62.825 326.54,62.826 326.51,62.826C325.113,62.826 323.964,61.676 323.964,60.28C323.964,60.2 323.967,60.12 323.975,60.04L323.975,53.675L322.7,53.675L322.7,52.562L323.973,52.562L323.973,49.3L325.485,49.3L325.485,52.562L327.713,52.562L327.713,53.676L325.485,53.676L325.485,59.96C325.476,60.024 325.471,60.089 325.471,60.154C325.471,60.88 326.068,61.478 326.795,61.478C326.836,61.478 326.876,61.476 326.917,61.472L327.717,61.472L327.717,62.745L326.6,62.745L326.6,62.824Z" style="fill:rgb(102,102,102);fill-rule:nonzero;"/>
                </g>
                <g id="Path_333" transform="matrix(1,0,0,1,-180.811,-21.419)">
                    <path d="M339.2,63.742L339.2,62.549C338.47,63.405 337.381,63.876 336.257,63.822C335.287,63.891 334.331,63.543 333.632,62.867C332.908,62.094 332.535,61.057 332.6,60L332.6,53.4L334.112,53.4L334.112,59.764C334.112,61.594 335.067,62.548 336.658,62.548C338.249,62.548 339.204,61.593 339.204,59.764L339.204,53.4L340.716,53.4L340.716,63.742L339.2,63.742Z" style="fill:rgb(102,102,102);fill-rule:nonzero;"/>
                </g>
                <g id="Path_334" transform="matrix(1,0,0,1,-183.715,-20.234)">
                    <path d="M353.562,62.556L353.562,61.2C352.88,62.126 351.766,62.638 350.619,62.552C349.69,62.595 348.779,62.282 348.073,61.677C347.039,60.643 346.8,58.893 346.8,57.302C346.8,55.711 347.039,53.961 348.073,52.927C348.772,52.309 349.688,51.994 350.619,52.052C351.766,51.966 352.88,52.478 353.562,53.404L353.562,47.6L355.074,47.6L355.074,62.556L353.562,62.556ZM350.937,53.408C348.71,53.408 348.312,55.317 348.312,57.386C348.312,59.455 348.63,61.364 350.937,61.364C353.244,61.364 353.483,59.455 353.483,57.386C353.483,55.317 353.164,53.407 350.937,53.407L350.937,53.408Z" style="fill:rgb(102,102,102);fill-rule:nonzero;"/>
                </g>
                <g id="Path_335" transform="matrix(1,0,0,1,-186.782,-20.234)">
                    <path d="M361.8,49.271L361.8,47.6L363.471,47.6L363.471,49.271L361.8,49.271ZM361.88,62.477L361.88,52.135L363.392,52.135L363.392,62.477L361.88,62.477Z" style="fill:rgb(102,102,102);fill-rule:nonzero;"/>
                </g>
                <g id="Path_336" transform="matrix(1,0,0,1,-188.029,-21.399)">
                    <path d="M369.412,58.948C369.412,61.176 370.446,62.528 372.435,62.528C373.474,62.592 374.483,62.147 375.135,61.335L376.169,62.21C375.23,63.28 373.852,63.866 372.43,63.801C369.73,63.801 367.895,62.13 367.895,58.55C367.895,55.209 369.486,53.299 372.111,53.299C374.736,53.299 376.327,55.208 376.327,58.311L376.327,59.027L369.406,59.027L369.412,58.948ZM374.503,56.084C374.089,55.144 373.143,54.545 372.116,54.572C371.098,54.578 370.169,55.166 369.729,56.084C369.517,56.643 369.41,57.236 369.411,57.834L374.9,57.834C374.879,57.231 374.744,56.637 374.5,56.084L374.503,56.084Z" style="fill:rgb(102,102,102);fill-rule:nonzero;"/>
                </g>
                <g id="Path_337" transform="matrix(1,0,0,1,-190.769,-21.358)">
                    <path d="M385.516,63.76C383.961,63.874 382.428,63.324 381.3,62.248L382.334,61.214C383.17,62.055 384.333,62.491 385.516,62.407C387.187,62.407 388.3,61.771 388.3,60.577C388.3,59.702 387.743,59.145 386.55,59.065L384.879,58.906C382.89,58.747 381.779,57.872 381.779,56.122C381.779,54.213 383.37,53.099 385.598,53.099C386.935,53.027 388.257,53.421 389.337,54.213L388.382,55.168C387.57,54.598 386.589,54.316 385.598,54.368C384.086,54.368 383.291,55.004 383.291,56.039C383.291,56.914 383.768,57.471 385.121,57.551L386.792,57.71C388.622,57.869 389.815,58.585 389.815,60.494C389.733,62.567 388.062,63.76 385.516,63.76Z" style="fill:rgb(102,102,102);fill-rule:nonzero;"/>
                </g>
            </g>
            <g id="Path_338" transform="matrix(1,0,0,1,-15.192,-1.922)">
                <path d="M87.485,11.6L85.891,11.6C85.5,11.6 85.178,11.922 85.178,12.313L85.178,16.616L80.643,16.616L80.723,12.316C80.728,12.127 80.638,11.948 80.484,11.839C80.364,11.698 80.192,11.612 80.007,11.6L78.413,11.6C78.022,11.6 77.7,11.922 77.7,12.313L77.7,24.332C77.7,24.723 78.022,25.045 78.413,25.045L80.01,25.045C80.401,25.045 80.723,24.723 80.723,24.332L80.723,19.4L85.1,19.4L85.1,24.335C85.1,24.726 85.422,25.048 85.813,25.048L87.41,25.048C87.801,25.048 88.123,24.726 88.123,24.335L88.123,12.316C88.129,12.28 88.133,12.244 88.133,12.208C88.133,11.874 87.858,11.599 87.524,11.599C87.511,11.599 87.498,11.599 87.485,11.6Z" style="fill:rgb(239,127,36);fill-rule:nonzero;"/>
            </g>
            <g id="Path_339" transform="matrix(1,0,0,1,0,-3.12)">
                <path d="M25.8,21.306C23.339,18.845 19.998,17.462 16.519,17.462C9.318,17.462 3.393,23.387 3.393,30.587C3.393,37.788 9.318,43.713 16.519,43.713C19.998,43.713 23.339,42.33 25.8,39.869C28.261,37.408 29.645,34.067 29.645,30.587C29.645,27.108 28.261,23.767 25.8,21.306ZM22.731,36.744C22.701,36.923 22.58,37.074 22.413,37.144L20.5,37.144C20.492,37.145 20.483,37.145 20.475,37.145C20.269,37.145 20.099,36.975 20.099,36.769C20.099,36.761 20.099,36.752 20.1,36.744L20.1,28.63C20.1,26.243 18.748,24.414 16.2,24.414C14.45,24.414 12.938,25.528 12.938,28.233L12.938,36.745C12.939,36.753 12.939,36.762 12.939,36.77C12.939,36.976 12.769,37.146 12.563,37.146C12.555,37.146 12.546,37.146 12.538,37.145L10.639,37.145C10.631,37.146 10.622,37.146 10.614,37.146C10.408,37.146 10.238,36.976 10.238,36.77C10.238,36.762 10.238,36.753 10.239,36.745L10.239,28.311C10.239,23.22 13.339,22.026 16.126,22.026C19.626,22.026 22.726,23.14 22.726,28.311L22.731,36.744Z" style="fill:rgb(239,127,36);fill-rule:nonzero;"/>
            </g>
            <g id="Ellipse_32" transform="matrix(0.315483,-0.948931,0.948931,0.315483,54.199,23.038)">
                <circle cx="10.899" cy="10.899" r="10.899" style="fill:none;"/>
            </g>
            <g id="Path_340" transform="matrix(1,0,0,1,-7.28,0)">
                <path d="M74.64,2.2C66.446,2.2 60.877,9.6 60.957,16.52C60.957,23.12 59.445,28.692 51.331,29.965C46.08,30.76 39,36.488 39,45.716C39,51.683 43.535,61.547 54.831,61.547C66.127,61.547 71.696,51.047 70.742,44.047C69.867,37.364 72.492,32.353 79.095,30.205C86.971,27.58 89.357,21.295 89.357,15.567C88.923,7.892 82.322,1.896 74.64,2.2ZM54.274,53.989C52.674,54.033 51.088,53.678 49.66,52.955C49.51,52.879 49.417,52.723 49.421,52.555L49.421,52.4L49.978,50.57C50.142,50.4 50.389,50.338 50.614,50.411L50.694,50.411C51.804,50.986 53.025,51.312 54.274,51.366C56.263,51.366 57.456,50.491 57.456,48.979C57.456,47.627 56.656,46.831 54.356,45.956C51.333,44.842 49.742,43.092 49.742,40.944C49.742,37.921 52.208,35.773 55.788,35.773C57.163,35.762 58.523,36.061 59.766,36.648C59.961,36.724 60.089,36.915 60.084,37.125L60.084,37.284L59.6,38.715C59.489,38.997 59.168,39.14 58.884,39.033L58.804,39.033C57.866,38.561 56.831,38.316 55.781,38.317C53.951,38.317 53.081,39.431 53.081,40.545C53.081,41.897 54.036,42.454 56.263,43.329C59.525,44.522 60.877,46.113 60.798,48.739C60.8,51.921 58.252,53.989 54.274,53.989ZM81.46,25.1C79.638,26.36 77.475,27.036 75.259,27.036C69.28,27.036 64.359,22.115 64.359,16.136C64.359,10.156 69.28,5.236 75.259,5.236C78.834,5.236 82.189,6.994 84.223,9.934C85.484,11.756 86.159,13.92 86.159,16.136C86.159,19.711 84.4,23.066 81.46,25.1Z" style="fill:rgb(239,127,36);fill-rule:nonzero;"/>
            </g>
            <g id="Path_341" transform="matrix(1,0,0,1,-7.586,-1.104)">
                <path d="M49.012,10.7C49.911,10.674 50.805,10.837 51.637,11.177C51.734,11.233 51.844,11.26 51.955,11.257C52.303,11.231 52.61,11.017 52.755,10.7L53.155,9.348C53.279,8.934 53.073,8.488 52.678,8.314C51.507,7.863 50.266,7.621 49.012,7.6C48.881,7.594 48.749,7.59 48.618,7.59C44.161,7.59 40.494,11.258 40.494,15.714C40.494,15.821 40.496,15.927 40.5,16.033C40.5,20.886 43.682,24.147 48.455,24.147C49.902,24.194 51.342,23.921 52.671,23.347C52.961,23.229 53.151,22.944 53.148,22.631L53.148,22.472L52.83,21.12C52.764,20.764 52.451,20.504 52.089,20.504C51.988,20.504 51.889,20.524 51.796,20.563L51.716,20.563C50.833,20.927 49.887,21.116 48.932,21.12C46.068,21.12 44.159,19.052 44.159,15.949C44.159,12.771 46.069,10.7 49.012,10.7Z" style="fill:rgb(239,127,36);fill-rule:nonzero;"/>
            </g>
            <g id="Group_162" transform="matrix(1,0,0,1,96,2.757)">
                <rect id="Rectangle_205" x="0" y="0" width="1.591" height="58.154" style="fill:rgb(102,102,102);"/>
            </g>
        </g>
    </g>
</svg>
