<?xml version="1.0" encoding="utf-8"?>
<!-- Generator: Adobe Illustrator 14.0.0, SVG Export Plug-In . SVG Version: 6.00 Build 43363)  -->
<!DOCTYPE svg PUBLIC "-//W3C//DTD SVG 1.1//EN" "http://www.w3.org/Graphics/SVG/1.1/DTD/svg11.dtd">
<svg version="1.1" id="UiBlogo_grayscale" xmlns="http://www.w3.org/2000/svg" xmlns:xlink="http://www.w3.org/1999/xlink" x="0px"
	 y="0px" width="439.37px" height="99.213px" viewBox="0 0 439.37 99.213" enable-background="new 0 0 439.37 99.213"
	 xml:space="preserve">
<rect fill="none" width="439.37" height="99.213"/>
<g>
	<path d="M20.524,42.076c-0.641-0.11-1.832-0.295-2.172-0.174c-0.137,0.052-0.24,0.226-0.307,0.48l-0.064,0.254
		c-0.083,0.05-0.214,0.006-0.245-0.063c0.088-0.39,0.166-0.77,0.236-1.173c0.074-0.433,0.112-0.715,0.156-1.09
		c0.065-0.074,0.199-0.041,0.251,0.021l-0.021,0.252c-0.024,0.263,0.035,0.475,0.158,0.561c0.316,0.204,1.504,0.408,2.083,0.509
		l1.167,0.203c0.9,0.153,1.826,0.463,2.346,1.149c0.408,0.528,0.545,1.34,0.412,2.104c-0.123,0.714-0.381,1.402-0.902,1.834
		c-0.549,0.469-1.348,0.598-2.578,0.386l-2.439-0.424c-1.075-0.187-1.255-0.195-1.41,0.395l-0.064,0.255
		c-0.053,0.056-0.225,0.004-0.246-0.063c0.11-0.514,0.181-0.863,0.252-1.277c0.074-0.424,0.122-0.767,0.188-1.275
		c0.043-0.057,0.221-0.047,0.252,0.021l-0.021,0.253c-0.052,0.607,0.119,0.658,1.193,0.844l2.233,0.387
		c1.664,0.289,2.849-0.04,3.122-1.621c0.26-1.498-0.819-2.271-2.392-2.542L20.524,42.076z"/>
	<path d="M27.051,33.732c0.276,0.154,1.365,0.763,1.619,0.868c0.044,0.048,0.06,0.129,0.003,0.23
		c-0.217,0.022-0.686,0.108-2.038,0.398l-3.604,0.774c-0.421,0.088-1.521,0.292-1.829,0.37l-0.011,0.02
		c0.09,0.098,0.295,0.224,0.569,0.377l1.996,1.117c0.431,0.239,1.626,0.895,1.987,0.893c0.132,0.002,0.29-0.15,0.435-0.368
		l0.186-0.27c0.105-0.014,0.209,0.057,0.219,0.146c-0.248,0.402-0.436,0.717-0.626,1.058c-0.214,0.384-0.343,0.636-0.504,0.966
		c-0.082,0.039-0.215-0.023-0.239-0.109l0.111-0.261c0.09-0.228,0.118-0.405,0.042-0.507c-0.257-0.313-1.379-0.928-1.82-1.173
		l-2.646-1.479c-0.255-0.144-0.453-0.241-0.772-0.167c-0.199,0.057-0.386,0.24-0.536,0.445l-0.105,0.146
		c-0.086,0.023-0.224-0.053-0.219-0.146c0.243-0.369,0.514-0.854,0.605-1.019c0.083-0.146,0.16-0.308,0.208-0.436
		c0.569,0.076,2.381-0.329,2.888-0.441l1.496-0.331c1.058-0.238,1.82-0.399,2.501-0.584l0.01-0.019
		c-0.025-0.063-0.171-0.144-0.364-0.251l-1.959-1.096c-0.43-0.24-1.625-0.896-1.997-0.875c-0.113,0.009-0.25,0.125-0.5,0.466
		l-0.105,0.145c-0.09,0.033-0.233-0.058-0.219-0.146c0.254-0.41,0.436-0.717,0.631-1.064c0.219-0.395,0.343-0.637,0.499-0.959
		c0.087-0.047,0.215,0.024,0.239,0.11l-0.054,0.138c-0.118,0.319-0.146,0.543-0.094,0.62c0.243,0.34,1.389,0.955,1.81,1.191
		L27.051,33.732z"/>
	<path d="M27.02,28.409c-0.8-0.771-0.943-0.881-1.41-0.472l-0.198,0.174c-0.074,0.016-0.195-0.13-0.174-0.197
		c0.378-0.362,0.633-0.611,0.941-0.93c0.291-0.301,0.531-0.565,0.879-0.956c0.066-0.024,0.217,0.092,0.205,0.167l-0.168,0.202
		c-0.392,0.481-0.277,0.622,0.522,1.394l2.687,2.592c0.799,0.772,0.921,0.859,1.403,0.464l0.205-0.166
		c0.074-0.016,0.194,0.131,0.174,0.197c-0.38,0.363-0.635,0.612-0.925,0.914c-0.306,0.317-0.547,0.582-0.896,0.973
		c-0.067,0.023-0.201-0.077-0.203-0.167l0.16-0.211c0.376-0.495,0.286-0.613-0.515-1.385L27.02,28.409z"/>
	<path d="M30.74,24.312c-0.517-0.368-0.767-0.472-1.176-0.275l-0.172,0.084c-0.095-0.015-0.164-0.145-0.121-0.234
		c0.269-0.144,0.557-0.313,0.939-0.555c0.39-0.246,0.694-0.45,1.056-0.704c0.085-0.003,0.186,0.119,0.157,0.211l-0.121,0.103
		c-0.31,0.256-0.347,0.355-0.311,0.432c0.074,0.077,0.527,0.461,1.227,0.962c1.057,0.771,2.109,1.535,3.189,2.268
		c-0.094-0.76-0.296-1.908-0.39-2.507c-0.124-0.766-0.338-2.03-0.427-2.508c-0.046-0.23-0.099-0.334-0.14-0.396
		c-0.038-0.063-0.171-0.078-0.505,0.082l-0.17,0.083c-0.096-0.014-0.162-0.158-0.123-0.233c0.26-0.138,0.603-0.342,0.94-0.555
		c0.293-0.185,0.563-0.367,0.844-0.569c0.083-0.004,0.174,0.14,0.157,0.211l-0.255,0.187c-0.203,0.151-0.268,0.341-0.266,0.601
		c0.014,0.574,0.122,1.51,0.292,2.668l0.209,1.392c0.16,1.041,0.391,2.332,0.536,2.897c-0.015,0.035-0.045,0.066-0.081,0.089
		c-0.043,0.028-0.093,0.047-0.149,0.057c-0.333-0.311-0.766-0.646-1.152-0.923L30.74,24.312z"/>
	<path d="M39.503,20.248c-0.296-1.05-0.36-1.196-0.974-1.099l-0.168,0.026c-0.073-0.023-0.104-0.211-0.051-0.257
		c0.44-0.104,0.786-0.19,1.199-0.308l1.897-0.536c0.646-0.184,1.241-0.352,1.354-0.417c0.109,0.155,0.375,0.865,0.542,1.297
		c-0.024,0.073-0.18,0.139-0.248,0.092c-0.286-0.431-0.476-0.758-1.039-0.741c-0.225,0.009-0.551,0.09-0.996,0.216l-0.727,0.205
		c-0.302,0.086-0.296,0.106-0.188,0.49l0.57,2.019c0.08,0.282,0.111,0.273,0.414,0.188l0.586-0.165
		c0.423-0.12,0.73-0.229,0.839-0.304c0.111-0.074,0.163-0.155,0.142-0.422l-0.036-0.436c0.034-0.075,0.205-0.124,0.266-0.064
		c0.068,0.241,0.14,0.646,0.248,1.03c0.104,0.363,0.251,0.735,0.314,0.957c-0.021,0.082-0.192,0.131-0.26,0.086l-0.201-0.369
		c-0.093-0.169-0.206-0.302-0.422-0.295c-0.152,0-0.397,0.06-0.792,0.17l-0.584,0.166c-0.303,0.084-0.331,0.104-0.257,0.365
		l0.402,1.423c0.152,0.536,0.279,0.869,0.488,0.996c0.156,0.087,0.4,0.138,1.288-0.113c0.778-0.22,1.059-0.342,1.249-0.517
		c0.153-0.152,0.327-0.583,0.439-1.181c0.056-0.071,0.206-0.081,0.273-0.001c0.029,0.373-0.003,1.221-0.057,1.53
		c-0.915,0.237-1.815,0.481-2.713,0.736l-0.91,0.256c-0.434,0.122-0.774,0.229-1.362,0.418c-0.069-0.014-0.136-0.169-0.093-0.247
		l0.325-0.125c0.561-0.213,0.568-0.378,0.269-1.438L39.503,20.248z"/>
	<path d="M47.774,18.61c0.006-0.996-0.024-1.175-0.454-1.23l-0.334-0.044c-0.073-0.053-0.073-0.221,0.012-0.261
		c0.587-0.05,1.311-0.076,2.34-0.069c0.65,0.004,1.267,0.061,1.748,0.325c0.503,0.266,0.866,0.741,0.861,1.476
		c-0.006,0.996-0.797,1.535-1.323,1.741c-0.052,0.063,0,0.168,0.052,0.252c0.829,1.359,1.379,2.201,2.089,2.804
		c0.178,0.158,0.438,0.276,0.722,0.299c0.053,0.021,0.062,0.105,0.01,0.146c-0.095,0.031-0.262,0.052-0.462,0.051
		c-0.891-0.007-1.425-0.271-2.163-1.337c-0.269-0.39-0.695-1.115-1.017-1.59c-0.155-0.232-0.323-0.338-0.742-0.341
		c-0.473-0.003-0.493,0.008-0.495,0.228l-0.009,1.321c-0.007,1.102,0.014,1.228,0.622,1.315l0.219,0.032
		c0.063,0.054,0.041,0.231-0.021,0.263c-0.473-0.024-0.829-0.037-1.248-0.04c-0.441-0.002-0.819,0.005-1.313,0.024
		c-0.062-0.033-0.082-0.19-0.019-0.264l0.263-0.029c0.608-0.069,0.63-0.205,0.637-1.307L47.774,18.61z M48.625,20.115
		c-0.001,0.189-0.001,0.305,0.03,0.347c0.031,0.032,0.188,0.054,0.723,0.058c0.377,0.002,0.775-0.036,1.083-0.266
		c0.284-0.218,0.528-0.584,0.533-1.297c0.006-0.829-0.504-1.619-1.667-1.627c-0.65-0.004-0.683,0.038-0.685,0.332L48.625,20.115z"/>
	<path d="M57.084,25.242c-0.841-0.264-1.289-0.691-1.443-0.862c-0.051-0.257,0.043-1.009,0.171-1.484
		c0.072-0.054,0.229-0.027,0.25,0.045c-0.012,0.558,0.088,1.667,1.249,2.033c0.84,0.267,1.423-0.155,1.614-0.755
		c0.138-0.439,0.203-0.959-0.378-1.659l-0.755-0.921c-0.396-0.487-0.795-1.241-0.536-2.061c0.3-0.95,1.284-1.487,2.583-1.076
		c0.311,0.098,0.651,0.271,0.89,0.424c0.117,0.081,0.25,0.146,0.331,0.172c0.013,0.268-0.073,0.855-0.206,1.275
		c-0.059,0.047-0.228,0.027-0.258-0.049c0.021-0.521-0.044-1.257-1.004-1.56c-0.98-0.31-1.396,0.274-1.542,0.734
		c-0.182,0.579,0.165,1.151,0.462,1.499l0.642,0.753c0.507,0.588,0.943,1.364,0.644,2.314
		C59.451,25.165,58.383,25.653,57.084,25.242z"/>
	<path d="M65.404,22.955c0.581-0.947,0.656-1.11,0.156-1.479l-0.213-0.154c-0.031-0.069,0.084-0.22,0.155-0.212
		c0.437,0.29,0.735,0.485,1.111,0.716c0.357,0.219,0.667,0.396,1.125,0.652c0.037,0.06-0.044,0.232-0.119,0.234l-0.234-0.119
		c-0.555-0.278-0.667-0.137-1.247,0.812l-1.951,3.183c-0.58,0.948-0.64,1.084-0.15,1.47l0.207,0.165
		c0.032,0.067-0.084,0.219-0.155,0.212c-0.436-0.292-0.735-0.486-1.092-0.707c-0.376-0.229-0.686-0.407-1.143-0.663
		c-0.038-0.06,0.032-0.213,0.119-0.233l0.239,0.109c0.565,0.261,0.661,0.146,1.241-0.801L65.404,22.955z"/>
	<path d="M69.872,31.428c-0.809,0.747-0.91,0.87-0.535,1.353l0.204,0.268c0.012,0.074-0.14,0.188-0.206,0.163
		c-0.391-0.454-0.625-0.723-0.91-1.031s-0.542-0.57-1.012-1.049c-0.021-0.068,0.096-0.204,0.193-0.179l0.279,0.256
		c0.444,0.404,0.595,0.336,1.404-0.412l3.443-3.182c0.238-0.221,0.247-0.228,0.033-0.459l-0.392-0.423
		c-0.306-0.332-0.713-0.74-1.068-0.771c-0.341-0.027-0.582,0.052-0.852,0.146c-0.104-0.02-0.165-0.163-0.131-0.25
		c0.459-0.196,1.06-0.537,1.417-0.769c0.037,0.009,0.137,0.102,0.136,0.146c-0.204,0.274,0.038,0.521,0.366,0.876l2.883,3.119
		c0.385,0.415,0.464,0.47,0.771,0.401c0.05,0.023,0.122,0.115,0.105,0.159c-0.394,0.207-1.068,0.729-1.278,0.967
		c-0.091,0.026-0.211-0.104-0.2-0.186c0.171-0.201,0.406-0.52,0.383-0.712c-0.032-0.299-0.242-0.648-0.632-1.072l-0.506-0.547
		c-0.213-0.23-0.213-0.217-0.468,0.019L69.872,31.428z"/>
	<path d="M75.417,38.486c0.177-0.166,0.188-0.217,0.052-0.502l-0.679-1.431c-0.112-0.235-0.168-0.279-0.398-0.251l-1.153,0.14
		c-0.493,0.061-0.78,0.115-0.885,0.165c-0.113,0.054-0.147,0.128-0.06,0.366l0.12,0.325c-0.015,0.088-0.168,0.16-0.245,0.093
		c-0.099-0.255-0.238-0.549-0.439-0.998c-0.149-0.313-0.33-0.645-0.46-0.897c0.011-0.073,0.153-0.164,0.228-0.131l0.176,0.299
		c0.127,0.22,0.33,0.378,0.735,0.35c0.517-0.036,1.259-0.064,2.508-0.169l3.017-0.248c0.405-0.03,0.611-0.058,0.749-0.158
		c0.175,0.195,0.422,0.276,0.594,0.321c0.027,0.058,0.04,0.132-0.018,0.183c-0.359,0.321-0.722,0.681-1.072,1.019l-3.193,3.106
		c-0.685,0.661-0.768,0.852-0.622,1.281l0.093,0.271c-0.017,0.09-0.176,0.142-0.237,0.112c-0.166-0.398-0.313-0.733-0.516-1.16
		c-0.216-0.455-0.406-0.807-0.545-1.077c0.001-0.091,0.149-0.175,0.228-0.131l0.16,0.261c0.113,0.19,0.232,0.297,0.327,0.252
		c0.104-0.051,0.252-0.178,0.444-0.362L75.417,38.486z M75.37,36.209c-0.254,0.027-0.259,0.042-0.133,0.306l0.554,1.166
		c0.13,0.275,0.177,0.275,0.392,0.069l1.302-1.244c0.192-0.184,0.407-0.391,0.494-0.502l-0.009-0.018
		c-0.061-0.007-0.333,0.006-0.667,0.037L75.37,36.209z"/>
	<path d="M74.777,45.627c-0.128-0.87,0.06-1.461,0.144-1.676c0.211-0.158,0.927-0.401,1.411-0.494
		c0.081,0.04,0.124,0.193,0.068,0.244c-0.506,0.233-1.46,0.81-1.281,2.013c0.128,0.872,0.762,1.213,1.385,1.122
		c0.456-0.069,0.951-0.237,1.327-1.067l0.497-1.08c0.266-0.57,0.768-1.259,1.62-1.385c0.985-0.146,1.897,0.504,2.097,1.852
		c0.048,0.323,0.041,0.705,0.008,0.985c-0.021,0.142-0.021,0.289-0.008,0.374c-0.236,0.128-0.803,0.308-1.238,0.372
		c-0.068-0.032-0.124-0.194-0.069-0.255c0.478-0.208,1.11-0.588,0.963-1.584c-0.151-1.017-0.857-1.135-1.335-1.063
		c-0.602,0.089-0.963,0.65-1.146,1.069l-0.396,0.908c-0.309,0.713-0.814,1.445-1.801,1.591
		C75.882,47.722,74.977,46.977,74.777,45.627z"/>
	<path d="M23.64,57.258c0.729-0.27,0.9-0.377,0.776-0.834L24.33,56.1c0.03-0.104,0.181-0.146,0.249-0.082
		c0.247,0.514,0.524,1.17,0.862,2.086c0.229,0.619,0.397,1.227,0.335,1.754c-0.05,0.498-0.324,0.969-0.953,1.203
		c-0.708,0.262-1.226-0.018-1.72-0.504c-0.098,0.035-0.098,0.125-0.079,0.24c0.099,0.566-0.103,1.535-1.154,1.926
		c-1.142,0.422-2.221-0.141-2.876-1.912c-0.106-0.285-0.255-0.777-0.407-1.191c-0.16-0.43-0.304-0.76-0.448-1.119
		c0.007-0.068,0.157-0.148,0.238-0.109l0.095,0.164c0.281,0.488,0.396,0.469,1.429,0.086L23.64,57.258z M20.348,59.395
		c-0.353,0.131-0.848,0.334-0.996,0.602c-0.157,0.271-0.097,0.584,0.012,0.879c0.324,0.875,0.966,1.4,1.949,1.037
		c0.777-0.289,1.538-1.018,0.958-2.582c-0.196-0.531-0.27-0.549-0.467-0.475L20.348,59.395z M22.631,58.549
		c-0.275,0.102-0.292,0.121-0.087,0.613c0.411,0.988,0.906,1.422,1.832,1.08c0.963-0.357,1.063-1.211,0.785-1.959
		c-0.08-0.215-0.153-0.354-0.226-0.43c-0.065-0.088-0.13-0.107-0.306-0.041L22.631,58.549z"/>
	<path d="M26.799,64.551c0.873-0.656,0.985-0.768,0.673-1.305L27.389,63.1c-0.005-0.078,0.16-0.174,0.221-0.143
		c0.255,0.373,0.46,0.666,0.718,1.008l1.184,1.578c0.404,0.537,0.774,1.031,0.875,1.113c-0.104,0.156-0.671,0.662-1.015,0.971
		c-0.076,0.006-0.193-0.115-0.174-0.195c0.299-0.422,0.536-0.719,0.317-1.234c-0.089-0.209-0.284-0.484-0.56-0.854l-0.453-0.604
		c-0.189-0.252-0.208-0.238-0.525,0L26.301,66c-0.234,0.176-0.216,0.201-0.026,0.453l0.364,0.486c0.265,0.354,0.477,0.6,0.586,0.676
		c0.11,0.074,0.204,0.096,0.445-0.02l0.393-0.191c0.083,0.004,0.189,0.146,0.156,0.225c-0.201,0.152-0.554,0.363-0.873,0.602
		c-0.301,0.227-0.596,0.5-0.779,0.639c-0.084,0.01-0.19-0.133-0.173-0.213l0.271-0.32c0.126-0.146,0.207-0.299,0.124-0.498
		c-0.055-0.143-0.198-0.352-0.443-0.678l-0.364-0.488c-0.19-0.25-0.217-0.268-0.436-0.105l-1.181,0.887
		c-0.446,0.334-0.711,0.574-0.753,0.816c-0.026,0.176,0.014,0.42,0.569,1.158c0.483,0.646,0.7,0.865,0.931,0.98
		c0.198,0.088,0.66,0.094,1.26-0.016c0.085,0.027,0.15,0.162,0.1,0.254c-0.338,0.162-1.141,0.438-1.451,0.496
		c-0.55-0.766-1.102-1.52-1.663-2.264l-0.566-0.756c-0.27-0.361-0.494-0.641-0.882-1.123c-0.012-0.068,0.11-0.188,0.198-0.174
		l0.233,0.258c0.4,0.445,0.558,0.395,1.438-0.268L26.799,64.551z"/>
	<path d="M31.904,70.383c0.59-0.803,0.668-0.965,0.353-1.262l-0.247-0.232c-0.027-0.086,0.072-0.221,0.165-0.203
		c0.505,0.305,1.107,0.705,1.937,1.313c0.524,0.383,0.993,0.791,1.227,1.289c0.252,0.51,0.269,1.107-0.164,1.697
		c-0.588,0.805-1.546,0.781-2.093,0.641c-0.08,0.02-0.099,0.137-0.106,0.234c-0.122,1.586-0.169,2.592,0.052,3.496
		c0.051,0.23,0.195,0.479,0.411,0.664c0.03,0.049-0.011,0.121-0.078,0.125c-0.095-0.031-0.243-0.113-0.405-0.232
		c-0.719-0.525-0.996-1.053-0.971-2.348c0.01-0.475,0.089-1.313,0.106-1.885c0.01-0.277-0.064-0.461-0.402-0.709
		c-0.381-0.279-0.404-0.283-0.534-0.105l-0.781,1.064c-0.65,0.889-0.708,1.004-0.267,1.43l0.16,0.158
		c0.02,0.078-0.103,0.209-0.172,0.197c-0.369-0.295-0.65-0.516-0.988-0.762c-0.355-0.26-0.667-0.475-1.077-0.748
		c-0.032-0.064,0.044-0.203,0.138-0.225l0.23,0.129c0.535,0.299,0.632,0.201,1.283-0.686L31.904,70.383z M31.712,72.104
		c-0.112,0.152-0.18,0.246-0.179,0.297c0.007,0.043,0.122,0.152,0.552,0.471c0.305,0.223,0.65,0.424,1.033,0.418
		c0.358-0.012,0.771-0.164,1.192-0.74c0.488-0.67,0.538-1.607-0.4-2.293c-0.525-0.385-0.575-0.371-0.748-0.135L31.712,72.104z"/>
	<path d="M42.531,80.436c-0.131,0.398-0.15,0.656,0.007,0.785c0.019,0.041,0,0.102-0.05,0.117c-0.119-0.041-0.312-0.059-0.517-0.072
		c-0.574-0.033-1.332-0.146-1.87-0.322c-1.186-0.391-2.164-1.074-2.677-2.104c-0.401-0.797-0.462-1.688-0.175-2.563
		c0.277-0.85,0.837-1.613,1.671-2.068c0.896-0.479,2.037-0.623,3.542-0.131c0.568,0.186,1.06,0.469,1.217,0.564
		c0.176,0.1,0.462,0.271,0.588,0.291c-0.108,0.328-0.218,0.867-0.324,1.496c-0.057,0.068-0.24,0.021-0.279-0.061
		c0.074-1.166-0.563-1.75-1.579-2.084c-1.934-0.633-3.232,0.465-3.723,1.957c-0.626,1.916-0.133,3.742,1.87,4.4
		c0.618,0.203,1.029,0.193,1.194,0.059c0.073-0.051,0.182-0.217,0.286-0.535l0.131-0.398c0.275-0.836,0.263-0.906-0.331-1.178
		l-0.423-0.193c-0.067-0.066,0.002-0.242,0.082-0.25c0.282,0.113,0.828,0.305,1.416,0.498c0.388,0.125,0.73,0.229,1.066,0.316
		c0.056,0.063,0.018,0.215-0.073,0.252l-0.164-0.033c-0.436-0.088-0.537,0.189-0.704,0.699L42.531,80.436z"/>
	<path d="M47.832,76.814c0.002-1.09-0.018-1.248-0.637-1.322l-0.167-0.021c-0.064-0.043-0.043-0.23,0.021-0.262
		c0.45,0.021,0.808,0.033,1.236,0.033l1.972,0.006c0.671,0,1.291,0.002,1.416-0.029c0.063,0.18,0.124,0.934,0.166,1.395
		c-0.043,0.063-0.21,0.084-0.262,0.021c-0.157-0.494-0.25-0.861-0.795-0.998c-0.22-0.053-0.556-0.064-1.017-0.064l-0.755-0.004
		c-0.314,0-0.314,0.021-0.317,0.42l-0.004,2.098c-0.001,0.293,0.031,0.293,0.347,0.293l0.607,0.004c0.441,0,0.766-0.02,0.891-0.063
		c0.126-0.041,0.2-0.105,0.252-0.367l0.085-0.428c0.053-0.064,0.231-0.063,0.273,0.008c-0.001,0.254-0.044,0.664-0.044,1.061
		c-0.001,0.379,0.04,0.777,0.04,1.008c-0.042,0.074-0.221,0.072-0.274,0.01l-0.093-0.41c-0.042-0.188-0.114-0.346-0.324-0.398
		c-0.148-0.041-0.399-0.055-0.808-0.055l-0.61-0.002c-0.314,0-0.345,0.01-0.345,0.283l-0.003,1.48
		c-0.001,0.555,0.03,0.912,0.196,1.09c0.126,0.127,0.347,0.24,1.27,0.244c0.808,0.002,1.112-0.039,1.343-0.156
		c0.188-0.104,0.472-0.469,0.746-1.014c0.074-0.053,0.22-0.021,0.262,0.074c-0.074,0.365-0.338,1.174-0.474,1.457
		c-0.944-0.023-1.877-0.035-2.811-0.039l-0.944-0.002c-0.452,0-0.808,0.01-1.427,0.029c-0.063-0.031-0.083-0.201-0.021-0.262
		l0.346-0.031c0.598-0.051,0.651-0.207,0.654-1.311L47.832,76.814z"/>
	<path d="M62.175,75.102c-0.168-0.451-0.642-1.662-0.607-2.078c0.011-0.094,0.178-0.246,0.474-0.412l0.13-0.07
		c0.037-0.08-0.014-0.219-0.111-0.24c-0.328,0.146-0.579,0.25-1.001,0.408c-0.374,0.141-0.711,0.254-1.171,0.402
		c-0.068,0.059-0.018,0.221,0.073,0.254l0.174-0.043c0.412-0.098,0.591-0.098,0.683-0.029c0.296,0.223,0.782,1.498,0.955,1.959
		l0.784,2.104c0.077,0.207,0.136,0.365,0.114,0.43l-0.019,0.006c-0.638-0.299-1.324-0.672-2.286-1.174L59.015,75.9
		c-0.461-0.244-2.103-1.107-2.487-1.537c-0.12,0.07-0.285,0.141-0.442,0.199c-0.176,0.066-0.696,0.262-1.121,0.385
		c-0.063,0.068-0.008,0.217,0.073,0.252l0.174-0.043c0.247-0.057,0.507-0.076,0.698,0.01c0.291,0.148,0.376,0.354,0.479,0.627
		l1.059,2.84c0.176,0.473,0.632,1.666,0.628,2.072c-0.01,0.125-0.146,0.244-0.36,0.359l-0.255,0.125
		c-0.036,0.082,0.024,0.217,0.112,0.242c0.336-0.15,0.598-0.258,1.01-0.412c0.364-0.137,0.712-0.254,1.162-0.398
		c0.05-0.076,0.016-0.197-0.073-0.254l-0.315,0.084c-0.252,0.072-0.472,0.086-0.572,0c-0.276-0.232-0.762-1.508-0.934-1.969
		l-0.799-2.141c-0.111-0.297-0.185-0.525-0.189-0.658l0.02-0.008c0.287,0.139,1.255,0.695,1.634,0.902l3.248,1.744
		c1.217,0.656,1.63,0.893,1.81,1.016c0.108-0.041,0.149-0.113,0.146-0.178c-0.124-0.244-0.56-1.414-0.67-1.709L62.175,75.102z"/>
	<path d="M70.412,74.871c-0.676,0.564-1.278,0.713-1.504,0.752c-0.245-0.098-0.826-0.58-1.159-0.945
		c-0.007-0.09,0.1-0.207,0.173-0.186c0.463,0.311,1.453,0.822,2.387,0.043c0.675-0.564,0.636-1.283,0.232-1.768
		c-0.295-0.352-0.698-0.688-1.602-0.574l-1.182,0.139c-0.624,0.072-1.474,0.002-2.026-0.658c-0.638-0.764-0.561-1.881,0.486-2.756
		c0.249-0.209,0.579-0.402,0.836-0.521c0.131-0.055,0.257-0.133,0.321-0.186c0.233,0.131,0.683,0.521,0.966,0.859
		c0.007,0.078-0.101,0.209-0.181,0.193c-0.428-0.299-1.083-0.641-1.855,0.006c-0.789,0.658-0.521,1.322-0.211,1.693
		c0.389,0.467,1.059,0.48,1.511,0.418l0.98-0.135c0.77-0.109,1.658-0.061,2.297,0.705C71.622,72.834,71.458,73.996,70.412,74.871z"
		/>
	<path d="M71.563,65.725c-0.906-0.645-1.063-0.729-1.465-0.254L69.93,65.67c-0.071,0.025-0.213-0.1-0.201-0.17
		c0.32-0.414,0.536-0.699,0.791-1.057c0.244-0.344,0.442-0.639,0.729-1.078c0.062-0.035,0.229,0.059,0.227,0.133l-0.136,0.229
		c-0.315,0.533-0.182,0.654,0.723,1.299l3.043,2.164c0.905,0.645,1.037,0.713,1.455,0.25l0.179-0.195
		c0.07-0.025,0.212,0.1,0.201,0.17c-0.321,0.416-0.537,0.699-0.78,1.043c-0.255,0.357-0.454,0.654-0.741,1.094
		c-0.062,0.033-0.211-0.047-0.225-0.135l0.126-0.232c0.299-0.547,0.192-0.65-0.714-1.293L71.563,65.725z"/>
	<path d="M80.183,61.305c-0.31,0.824-0.761,1.248-0.938,1.395c-0.261,0.037-1.005-0.098-1.475-0.25
		c-0.05-0.076-0.014-0.23,0.06-0.248c0.555,0.041,1.668,0,2.096-1.141c0.31-0.824-0.08-1.43-0.668-1.65
		c-0.433-0.162-0.947-0.252-1.677,0.291l-0.959,0.703c-0.508,0.369-1.283,0.73-2.088,0.428c-0.932-0.352-1.416-1.359-0.937-2.637
		c0.114-0.305,0.306-0.637,0.47-0.865c0.087-0.113,0.159-0.244,0.188-0.322c0.268,0.002,0.852,0.119,1.264,0.271
		c0.044,0.063,0.015,0.23-0.062,0.258c-0.52-0.049-1.258-0.023-1.611,0.92c-0.361,0.961,0.2,1.406,0.651,1.576
		c0.57,0.215,1.159-0.102,1.521-0.381l0.786-0.602c0.616-0.475,1.414-0.871,2.346-0.521C80.23,58.936,80.661,60.027,80.183,61.305z"
		/>
	<path d="M49.607,14.173c-19.57,0-35.433,15.863-35.433,35.433c0,19.57,15.863,35.433,35.433,35.433s35.433-15.863,35.433-35.433
		C85.041,30.037,69.177,14.173,49.607,14.173z M49.607,83.973c-18.979,0-34.366-15.387-34.366-34.367
		c0-18.979,15.387-34.363,34.366-34.363s34.364,15.385,34.364,34.363C83.971,68.586,68.586,83.973,49.607,83.973z"/>
	<path d="M57.956,66.791c-0.705,0.539-1.177,1.346-1.477,2.014c0.65,0.471,2.175,1.158,4.738,1.596
		c1.122-0.625,1.996-1.189,3.001-1.971c-0.915-0.23-1.801-0.723-2.355-1.039C60.731,66.744,59.328,65.742,57.956,66.791z"/>
	<path d="M41.409,62.086c-0.867-0.238-1.333-0.229-2.622,0.189c-2.234,0.727-5.676,4.576-5.676,4.576
		c1.034,0.988,2.161,1.881,3.361,2.672c0.958-1.248,3.537-4.129,5.907-4.129c1.298,0,1.967,0.545,3.049,1.205
		c0.085-0.135,0.183-0.27,0.288-0.408C43.772,65.229,41.409,62.086,41.409,62.086z"/>
	<path d="M48.95,65.457c-1.051,0.139-1.82,1.037-2.33,1.916c2,1.354,3.777,2.953,6.383,3.729c2.029,0.604,2.808,0.832,4.878,0.865
		c0.915-0.34,1.798-0.742,2.658-1.184c-1.277-0.154-2.958-0.777-4.402-1.449C53.795,68.244,51.091,65.178,48.95,65.457z"/>
	<path d="M42.84,66.672c-2.975,0-4.151,2.488-5.121,3.602c3.504,2.021,7.553,3.197,11.888,3.197c2.279,0,4.476-0.34,6.564-0.936
		c-1.336-0.08-2.96-0.422-4.426-0.998C48.479,70.248,44.972,66.672,42.84,66.672z"/>
	<path d="M64.065,64.646c-1.977-2.521-3.537-2.988-4.299-2.797c-0.762,0.189-0.591,0.768-1.505,1.848
		c-0.833,0.984-2.742,2.072-3.113,2.34c0.308,0.326,0.734,0.813,0.841,0.928c0.946-0.875,2.153-1.707,3.34-1.707
		c2.12,0,2.715,1.678,5.516,2.68c0.598-0.486,1.179-0.994,1.722-1.543C66.566,66.395,65.232,66.137,64.065,64.646z"/>
	<path d="M59.442,44.083c-0.07-0.106,0.006-0.288-0.086-0.388c-0.088-0.429-0.269-0.817-0.262-1.291
		c-0.059-0.279,0.234-0.407,0.408-0.531c0.11-0.262,0.102-0.56-0.024-0.814c-0.088-0.42-0.675-0.491-0.674-0.951
		c-0.018-0.348-0.248-0.6-0.186-0.98c-0.155-0.505-0.15-1.056-0.188-1.594c-0.136-0.581-0.124-1.167-0.194-1.782
		c-0.097-0.724-0.192-1.445-0.361-2.132c-0.086-0.619-0.288-1.19-0.6-1.707c-0.048-0.384-0.427-0.677-0.232-1.105
		c0.342-0.477,0.623-0.996,0.813-1.544c0.168-0.316,0.142-0.707,0.22-1.06c-0.025-0.303,0.078-0.617-0.027-0.889
		c-0.052-0.043-0.103,0.012-0.139,0.033c-0.149,0.503-0.698,0.713-1.066,1.02c-0.55,0.231-1.241,0.141-1.863,0.212
		c-0.415-0.025-0.744,0.37-1.152,0.132c-0.205-0.15-0.444-0.21-0.655-0.329c-0.482-0.031-0.971,0.007-1.409-0.033
		c-0.695,0.035-1.227-0.355-1.922-0.319c-0.86-0.033-1.603,0.402-2.502,0.326c-0.799-0.205-1.583,0.101-2.226,0.432
		c-0.246-0.046-0.496-0.187-0.755-0.231c-0.698-0.273-1.558,0.21-2.146-0.343c-0.267-0.288-0.462-0.614-0.453-1.008
		c-0.108,0.063-0.164,0.205-0.19,0.324c-0.155,0.278-0.279,0.593-0.319,0.929c-0.076,0.424,0.041,0.882,0.135,1.284
		c0.065,0.717,0.564,1.281,0.454,2.041c-0.123,0.343-0.276,0.682-0.376,1.041c-0.293,0.35-0.227,0.836-0.31,1.263
		c-0.265,0.8-0.063,1.624-0.023,2.46c-0.298,0.958-0.437,1.97-0.547,2.996c-0.084,0.67-0.039,1.394-0.304,1.996
		c-0.359,0.357-0.667,0.725-0.555,1.253c0.038,0.274,0.186,0.491,0.318,0.717c0.075,0.541,0.054,1.061,0.018,1.594
		c0.043,0.437-0.405,0.569-0.476,0.941c-0.092,0.366,0.174,0.609,0.405,0.848c0.141,0.233,0.076,0.56,0.15,0.824
		c0.064,0.674,0.195,1.336,0.26,1.986c0.178,0.975,0.275,1.994,0.481,2.927c0.219,1.15,0.49,2.277,0.805,3.381
		c0.35,0.795,0.539,1.664,0.846,2.479c0.22,0.674,0.616,1.262,0.61,2.035c0.036,0.086,0.041,0.158,0.057,0.238
		c0.041,0.467-0.357,0.838-0.319,1.326c0,0,1.462,2.553,3.194,3.662c0.705-0.795,1.691-1.521,2.958-1.502
		c2.096,0.031,4.016,2.148,6.041,3.654c0.143-0.16,0.303-0.33,0.472-0.504c-0.662-0.936-3.559-4.289-5.998-4.678
		c0,0,0.188-0.482-0.038-0.705c-0.186-0.266-0.162-0.471-0.238-0.781c-0.012-0.146-0.071-0.352,0.038-0.473
		c0.365,0.078,0.524,0.473,0.696,0.75c0.026,0.016,0.056,0.025,0.083,0.021c0.029-0.006,0.055-0.021,0.072-0.059
		c0.049-0.363,0.45-0.59,0.727-0.762c0.057-0.031,0.147-0.012,0.171,0.063c0.064,0.398-0.031,0.912,0.26,1.229
		c0.093,0.125-0.021,0.246-0.086,0.344c-0.031,0.254-0.246,0.24-0.246,0.24c1.813,0.854,2.811,1.906,3.837,3.123
		c0.684-0.473,3.154-2.063,3.12-3.719c-0.012-0.547-0.297-0.48-0.431-0.773c-0.229-0.193-0.4-0.449-0.534-0.703
		c-0.267-0.533-0.479-1.127-0.372-1.789c0.186-0.48,0.206-1.029,0.415-1.502c0.269-0.898,0.472-1.832,0.748-2.729
		c0.327-1.24,0.66-2.475,0.829-3.775c0.179-0.429,0.165-0.924,0.255-1.387c0.179-0.442,0.088-0.99,0.2-1.46
		c0.056-0.364,0-0.77,0.16-1.086c0.055-0.181-0.012-0.407,0.095-0.566c-0.038-0.289,0.274-0.238,0.34-0.484
		c0.242-0.088,0.256-0.356,0.362-0.545C60.062,44.731,59.683,44.433,59.442,44.083z M58.264,40.579
		c0.161,0.079,0.411,0.072,0.462,0.274c0.243,0.076,0.199,0.343,0.348,0.488c0.011,0.129,0.007,0.281-0.105,0.336
		c-0.361,0.05-0.7-0.19-0.92-0.448C57.965,40.999,58.165,40.772,58.264,40.579z M56.172,45.453c-0.049,0.607-0.014,1.25-0.088,1.848
		c-0.066,0.069-0.002,0.191-0.037,0.274c-0.118,0.614-0.024,1.255-0.139,1.87l-0.077,0.004c-0.226-0.252-0.692-0.352-0.68-0.75
		c0.255-1.038,0.229-2.21,0.301-3.299c0.131-0.897,0.103-1.855,0.045-2.768c0.021-0.026,0.013-0.076,0.058-0.079
		c0.282,0.091,0.412,0.382,0.66,0.541C56.247,43.892,56.11,44.64,56.172,45.453z M42.514,37.589
		c-0.273-0.007-0.275-0.331-0.356-0.517c-0.073-0.119-0.077-0.265-0.074-0.414c0.097-0.103,0.138-0.187,0.135-0.322
		c-0.1-0.073-0.273-0.021-0.309-0.188c0.001-0.22-0.068-0.498,0.156-0.61c0.231-0.119,0.55-0.045,0.757-0.209
		c0.029-0.041-0.019-0.101-0.063-0.098c-0.281-0.015-0.488,0.111-0.729,0.166c-0.092-0.042-0.08-0.136-0.119-0.202
		c-0.005-0.657-0.107-1.281,0.133-1.849c-0.042-0.119-0.084-0.269,0.019-0.364c0.263-0.052,0.427,0.353,0.68,0.253L42.744,33.2
		c-0.202-0.176-0.352-0.383-0.617-0.414c-0.142-0.2-0.044-0.46,0.011-0.665c0.059-0.076,0.107-0.186,0.223-0.121
		c0.216,0.1,0.318,0.278,0.541,0.386c0.06-0.048,0.094-0.124,0.07-0.186c-0.212-0.271-0.751-0.346-0.514-0.793
		c0.047-0.16,0.139-0.382,0.305-0.425c0.213,0.063,0.325,0.308,0.52,0.432l0.051-0.031c-0.172-0.169-0.268-0.386-0.216-0.638
		c0.141-0.124,0.274,0.066,0.405,0.116l0.213,0.055c0.207,0.114,0.468,0.236,0.477,0.515c0.174,0.253,0.227,0.553,0.469,0.771
		c0.065,0.174,0.205,0.274,0.3,0.438c-0.065,0.069-0.164,0.074-0.248,0.036c-0.239-0.15-0.339-0.427-0.504-0.634
		c-0.061-0.028-0.089,0.05-0.111,0.078c0.075,0.227,0.127,0.465,0.292,0.65l0.005,0.157c-0.347,0.033-0.652-0.273-0.864-0.548
		c-0.046-0.035-0.115-0.064-0.175-0.023c-0.097,0.055-0.018,0.159-0.007,0.233c0.166,0.26,0.312,0.588,0.625,0.722
		c0.062,0.05,0.096,0.162,0.038,0.233c-0.041,0.159-0.194,0.104-0.3,0.076c-0.194-0.174-0.419-0.357-0.591-0.526l-0.098,0.002
		c-0.019,0.155,0.151,0.253,0.223,0.379c0.16,0.27,0.643,0.27,0.534,0.65c-0.036,0.069-0.018,0.167-0.107,0.2
		c-0.509-0.069-1.195-0.253-1.614,0.162c-0.013,0.055,0.027,0.121,0.087,0.119c0.461-0.031,0.893,0.033,1.255,0.271
		c0.079,0.081,0.173,0.184,0.138,0.298c-0.074,0.047-0.18,0.035-0.255,0.083c-0.146,0.134-0.318,0.207-0.473,0.341
		c0,0.028,0.008,0.06,0.04,0.073c0.232-0.09,0.455-0.209,0.694-0.31c0.082-0.017,0.158,0.02,0.191,0.093
		c-0.005,0.122-0.139,0.134-0.221,0.195c-0.175,0.213-0.511,0.349-0.518,0.629l0.076-0.002c0.331-0.048,0.483-0.529,0.849-0.44
		c0.053,0.05,0.125,0.147,0.06,0.217c-0.431,0.262-0.998,0.514-1.057,1.091c0.008,0.038-0.013,0.083,0.018,0.104
		c0.122,0.005,0.109-0.134,0.183-0.195c0.354-0.298,0.684-0.639,1.152-0.669c0.045,0.014,0.106,0.021,0.146,0.071
		c-0.007,0.24-0.352,0.381-0.352,0.639c-0.055,0.19-0.117,0.381-0.209,0.564c0.009,0.047,0.07,0.06,0.099,0.028
		c0.217-0.348,0.406-0.844,0.833-0.97c-0.003,0.122,0.13,0.026,0.185,0.076c0.228,0.041,0.458,0.131,0.643,0.27
		c-0.039,0.477-0.218,1.058,0.03,1.481c0.087-0.079,0.008-0.222,0.05-0.319c0.02-0.357,0.238-0.636,0.28-0.986
		c0.036-0.104,0.156-0.131,0.248-0.103c0.19,0.076,0.198,0.31,0.382,0.403c0.146-0.148-0.042-0.355,0.029-0.546
		c0.064-0.116,0.224-0.104,0.338-0.069c0.046,0.036,0.1,0.048,0.161,0.041c0.057-0.063,0.041-0.155,0.038-0.236
		c0.243-0.188,0.321-0.586,0.656-0.505l0.071,0.081c-0.008,0.236-0.031,0.47-0.078,0.691c-0.091-0.005-0.142-0.2-0.261-0.122
		c-0.088,0.081-0.047,0.184-0.007,0.274c0.104,0.207,0.194,0.424,0.306,0.624c0.01,0.062,0.073,0.143,0.006,0.197
		c-0.257,0.017-0.371-0.252-0.511-0.4c-0.093-0.064-0.157,0.034-0.17,0.112c-0.05,0.341,0.183,0.598,0.439,0.803
		c0.099-0.005,0.161,0.055,0.231,0.121c-0.027,0.122-0.138,0.208-0.021,0.317l0.127,0.179c-0.141,0.123-0.326-0.013-0.479-0.055
		c-0.346-0.215-0.644-0.569-0.717-0.968c-0.024-0.047-0.093-0.06-0.13-0.026c-0.113,0.26,0.031,0.52,0.151,0.727
		c0.169,0.117,0.349,0.301,0.302,0.522c-0.058,0.085-0.193,0.126-0.3,0.09c-0.286-0.238-0.312-0.596-0.346-0.948
		c-0.038-0.014-0.077-0.052-0.114-0.012c-0.063,0.155-0.057,0.357-0.052,0.524c-0.041,0.15,0.056,0.362-0.061,0.485
		c-0.179,0.103-0.43,0.02-0.625,0.094c-0.237-0.091-0.215-0.387-0.224-0.629c-0.04-0.067-0.106-0.013-0.143,0.019
		c-0.223,0.122-0.179,0.596-0.545,0.45c-0.231-0.138-0.491-0.229-0.671-0.457c-0.122-0.283,0.19-0.445,0.19-0.693
		c0.077-0.207,0.323-0.35,0.362-0.571c-0.146-0.079-0.255,0.114-0.373,0.2c-0.195,0.278-0.361,0.586-0.487,0.876
		c-0.028,0.076-0.104,0.117-0.187,0.104c-0.342-0.3-0.997-0.469-0.893-1.048c0.073-0.106,0.137-0.214,0.18-0.338
		C42.68,37.342,42.633,37.549,42.514,37.589z M49.517,38.664c0.038,0.029,0.066,0.029,0.112,0.01c0.114-0.25,0.083-0.56,0.119-0.848
		c0.047-0.69,0.124-1.374,0.226-2.049c0.05-0.093,0.029-0.25,0.167-0.262c0.205,0.045,0.455,0.069,0.552,0.286
		c0.081,0.919,0.002,1.857-0.252,2.691c-0.124,0.419-0.41,0.735-0.624,1.122c-0.117,0.131-0.147,0.366-0.359,0.395
		c-0.598-0.843-0.977-1.793-1.008-2.896c0.01-0.407-0.248-0.96,0.105-1.266c0.262-0.098,0.474-0.361,0.769-0.338l0.041,0.112
		C49.462,36.616,49.2,37.69,49.517,38.664z M52.117,41.551c-0.499-0.248-0.96-0.734-1.015-1.291c0.03-0.063,0.105-0.064,0.144-0.043
		l0.498,0.469c0.362,0.231,0.838,0.467,1.015,0.894c0.028,0.143,0.056,0.346-0.069,0.434c-0.167,0.207-0.406,0.321-0.68,0.26
		c-0.501-0.06-0.958-0.453-1.192-0.908c-0.084-0.338-0.097-0.707,0.038-1.021c0.167-0.005,0.074,0.188,0.152,0.267
		c0.247,0.417,0.587,0.958,1.098,1.086C52.157,41.651,52.147,41.603,52.117,41.551z M51.9,36.866
		c-0.103,0.103-0.213,0.202-0.34,0.252c-0.066-0.171,0.058-0.35,0.145-0.502c0.006-0.046,0.042-0.086,0.025-0.144
		c-0.07-0.076-0.228-0.025-0.215-0.169c-0.018-0.073,0.018-0.138,0.045-0.19l0.159-0.005c0.249,0.212,0.529,0.46,0.77,0.682
		c0.021,0.217,0.012,0.407-0.088,0.607c-0.016,0.233-0.178,0.412-0.238,0.626c0.025,0.053,0.085,0.064,0.128,0.033
		c0.227-0.293,0.33-0.646,0.579-0.917c0.277-0.062,0.598,0.021,0.891-0.04c0.214,0.114,0.074,0.419,0.213,0.581
		c0.042,0.143-0.012,0.341,0.119,0.429c0.195-0.028,0.151-0.27,0.216-0.4c0.075-0.267,0.031-0.476,0.007-0.757
		c-0.047-0.05-0.011-0.112-0.005-0.172c0.065-0.064,0.177-0.098,0.255-0.038c0.17,0.101,0.32,0.353,0.498,0.477
		c0.053-0.048,0.027-0.139,0.01-0.188c-0.036-0.226-0.267-0.371-0.319-0.581c0.005-0.083,0.101-0.133,0.171-0.088
		c0.229,0.083,0.146,0.357,0.333,0.488c0.083-0.026,0.041-0.146,0.025-0.198c-0.083-0.202-0.18-0.395-0.195-0.628
		c0.051-0.107,0.151-0.02,0.228-0.021c0.262,0.119,0.536,0.224,0.776,0.407c0.287,0.24,0.336,0.616,0.428,0.924
		c-0.059,0.305,0.172,0.674-0.103,0.886c-0.223,0.076-0.376,0.314-0.608,0.367c-0.1-0.088-0.083-0.231-0.154-0.326
		c-0.18-0.207-0.271-0.674-0.645-0.572c-0.145,0.148,0.078,0.317,0.128,0.472c0.023,0.288,0.335,0.603,0.071,0.86
		c-0.307-0.147-0.406,0.31-0.712,0.181c-0.337-0.103-0.643,0.496-0.906,0.043c0.025-0.417-0.026-0.831-0.075-1.263
		c-0.05-0.126-0.086-0.312-0.23-0.353c-0.149,0.114-0.029,0.341-0.084,0.493c-0.025,0.386-0.129,0.751-0.3,1.082
		c-0.087,0.093-0.199,0.171-0.336,0.123c-0.031-0.014-0.055-0.042-0.077-0.066c-0.021-0.202,0.055-0.424,0.109-0.621
		c-0.032-0.053-0.106-0.036-0.144-0.013c-0.22,0.255-0.494,0.672-0.912,0.603c-0.054-0.052-0.146-0.078-0.164-0.138
		c0.122-0.217,0.404-0.391,0.382-0.641c-0.198-0.01-0.319,0.222-0.506,0.257C51.147,37.963,51.9,37.599,52,36.909
		C51.969,36.887,51.946,36.851,51.9,36.866z M51.895,33.585c0.305-0.434,0.794-0.521,1.258-0.643
		c0.53,0.031,1.069,0.066,1.423,0.531c0.356,0.497,0.529,1.233,0.297,1.829c-0.313,0.639-0.929,1.071-1.647,1.086
		c-0.277,0.076-0.538-0.073-0.791-0.167c-0.391-0.176-0.531-0.571-0.746-0.883C51.513,34.739,51.631,34.093,51.895,33.585z
		 M57.107,41.56c0.036-0.045,0.104-0.1,0.17-0.133c0.175-0.005,0.319,0.05,0.463,0.114c0.112,0.195,0.16,0.495,0.06,0.702
		c-0.282,0.122-0.523-0.038-0.717-0.214C57.002,41.861,57.172,41.725,57.107,41.56z M57.326,41.224
		c-0.342-0.063-0.57-0.383-0.783-0.649c-0.062-0.293-0.303-0.496-0.312-0.806c-0.034-0.181-0.094-0.414-0.031-0.576h0.03
		c0.248,0.455,0.624,0.851,0.968,1.265c0.124,0.109,0.32,0.147,0.387,0.305C57.552,40.939,57.504,41.144,57.326,41.224z
		 M54.93,47.419c-0.345,0.086-0.507-0.302-0.792-0.438c-0.32-0.384-0.644-0.819-0.646-1.342c0.021-0.045,0.075-0.057,0.121-0.05
		c0.242,0.274,0.435,0.677,0.81,0.793c0.054,0.005,0.114-0.012,0.126-0.073c-0.054-0.301-0.261-0.596-0.17-0.9
		c0.22,0.031,0.348,0.283,0.554,0.346c0.141,0.147,0.087,0.352,0.061,0.528C54.93,46.648,55.048,47.075,54.93,47.419z
		 M54.826,53.908c0.042-0.848,0.206-1.662,0.196-2.502c0.102-0.131,0.297-0.166,0.479-0.174c0.033,0.123,0.002,0.32,0.043,0.463
		c0.025,0.814-0.141,1.613-0.07,2.451c-0.012,0.34-0.124,0.654-0.112,1.008c-0.056,0.207-0.063,0.439-0.094,0.652
		c0.013,0.697-0.173,1.307-0.29,1.945c-0.103,0.139-0.07,0.434-0.274,0.422c-0.249-0.188-0.106-0.486-0.09-0.729
		c0.077-0.199,0.017-0.453,0.093-0.66C54.624,55.783,54.931,54.918,54.826,53.908z M54.598,59.748
		c0.17,0.357,0.251,0.756,0.345,1.139c0.005,0.195,0.077,0.359-0.054,0.5c-0.472-0.068-0.904,0.135-1.266,0.387
		c-0.113,0.033-0.197-0.033-0.259-0.098c-0.065-0.172-0.019-0.379-0.017-0.561c0.098-0.221-0.025-0.549,0.19-0.693
		c0.104-0.092,0.314-0.078,0.324-0.266c-0.185-0.131-0.519,0.037-0.626-0.225c-0.213-0.287-0.435-0.621-0.444-0.99
		c0.315-0.305,0.804-0.402,1.23-0.281c0.116,0.057,0.254,0.121,0.317,0.248C54.474,59.17,54.492,59.479,54.598,59.748z
		 M53.866,62.074c0.068-0.32,0.421-0.301,0.638-0.438c0.083-0.01,0.181-0.004,0.199,0.094c-0.094,0.615-0.175,1.246-0.59,1.74
		c-0.044,0.055-0.095,0.102-0.172,0.09c-0.054-0.037-0.042-0.119-0.021-0.166C54.145,63.01,54.075,62.451,53.866,62.074z
		 M52.922,63.127c-0.387-0.102-0.86-0.443-0.948-0.863c-0.041-0.098-0.104-0.209-0.053-0.316c0.189-0.203,0.498-0.244,0.771-0.25
		l0.085,0.096C52.722,62.219,52.58,62.787,52.922,63.127z M52.252,61.447c-0.25-0.021-0.385,0.244-0.612,0.223
		c-0.148-0.17-0.066-0.445-0.162-0.631c-0.104-0.662,0.012-1.369,0.565-1.779c0.105-0.061,0.218-0.014,0.318,0.021
		c0.203,0.205,0.294,0.482,0.438,0.729c0.09,0.188,0.245,0.34,0.261,0.568c0.113,0.289,0.033,0.625-0.021,0.906
		C52.792,61.521,52.53,61.318,52.252,61.447z M47.704,62.412c0.163-0.141,0.447-0.266,0.662-0.135
		c0.179,0.16,0.165,0.428,0.17,0.637c-0.207,0.424-0.598,0.76-1.016,0.922c-0.038-0.004-0.083-0.033-0.1-0.072
		c-0.01-0.309,0.166-0.539,0.141-0.85C47.472,62.711,47.611,62.564,47.704,62.412z M48.458,62.023
		c-0.196-0.002-0.366-0.082-0.533-0.16c-0.206-0.037-0.237,0.205-0.409,0.256c-0.052,0.039-0.088,0.115-0.156,0.125
		c-0.081-0.178-0.064-0.404-0.093-0.617c-0.113-0.223-0.046-0.49,0.069-0.689c0.156-0.109,0.286-0.334,0.537-0.258
		c0.065-0.063,0.094-0.148,0.075-0.238c-0.094-0.123-0.259-0.098-0.387-0.07c-0.172,0.08-0.325,0.234-0.466,0.354
		c-0.189-0.266-0.177-0.621-0.209-0.953c0.02-0.318,0.084-0.684,0.359-0.828c0.247,0.121,0.586,0.088,0.716,0.395
		c0.372,0.541,0.841,1.049,0.898,1.729c0.036,0.4,0.086,0.842-0.123,1.174C48.628,62.176,48.588,62.078,48.458,62.023z
		 M47.321,58.191c-0.615-0.336-0.725-0.992-0.638-1.627c0.012-0.107,0.021-0.26,0.15-0.293c0.124,0.088,0.09,0.244,0.169,0.35
		c0.343,0.604,1.027,0.953,1.451,1.49c0.407,0.238,0.566,0.711,0.596,1.178c0.064,0.133,0.031,0.309-0.018,0.432
		c-0.044,0.016-0.069-0.037-0.1-0.059C48.624,59.016,48.008,58.422,47.321,58.191z M44.429,40.791
		c0.218-0.052,0.294-0.267,0.464-0.386c0.162-0.161,0.291-0.386,0.474-0.571c0.098-0.02,0.189,0.017,0.215,0.107
		c0.031,0.285-0.113,0.5-0.167,0.752c-0.285,0.612-0.651,1.206-1.366,1.317c-0.204,0.029-0.373-0.057-0.491-0.204
		c-0.008-0.263-0.136-0.486-0.098-0.743c0.037-0.531,0.387-0.937,0.678-1.367c0.08-0.086,0.274-0.198,0.346-0.041
		c-0.073,0.334-0.146,0.662-0.143,1.024C44.366,40.714,44.383,40.762,44.429,40.791z M45.939,44.502
		c0.399-0.301,0.695-0.753,0.987-1.117c0.028-0.034,0.09,0.012,0.1,0.047c-0.001,0.734-0.429,1.347-0.873,1.925
		c-0.27,0.334-0.756,0.508-1.204,0.422c-0.335-0.05-0.353-0.412-0.481-0.644c-0.015-0.278,0.106-0.51,0.236-0.727
		c0.385-0.267,0.913-0.562,1.119-1.007c0.044-0.063,0.132-0.117,0.188-0.051c-0.016,0.491-0.292,0.879-0.468,1.309
		C45.681,44.721,45.813,44.574,45.939,44.502z M47.034,41.763c0.381-0.117,0.583-0.448,0.794-0.741
		c0.001-0.212,0.209-0.316,0.287-0.503c0.045-0.021,0.046,0.031,0.069,0.046c0,0.748-0.32,1.424-0.917,1.894
		c-0.119,0.088-0.293,0.086-0.43,0.066c-0.185-0.114-0.467-0.184-0.46-0.447c0.017-0.453,0.117-0.889,0.526-1.134
		c0.131-0.141,0.18-0.301,0.352-0.351c-0.044,0.265-0.111,0.555-0.163,0.836C47.125,41.565,46.939,41.653,47.034,41.763z
		 M48.931,48.68c0.023,0.03,0.047,0.066,0.093,0.05c0.085-0.131,0.012-0.324,0.131-0.419c0.05-0.055,0.15-0.041,0.209-0.021
		c0.257,0.242,0.134,0.647,0.174,0.947c-0.014,0.349-0.117,0.653-0.243,0.953c0.062,0.096,0.164,0.017,0.241-0.007
		c0.252-0.372,0.238-0.849,0.324-1.289c0.026-0.09,0.002-0.212,0.076-0.273c0.06-0.017,0.105,0.05,0.114,0.095
		c0.01,0.303-0.05,0.607-0.026,0.894l0.055,0.028c0.307-0.364,0.138-0.934,0.321-1.362c0.083-0.238,0.015-0.524,0.091-0.76
		c0.16,0.01,0.16,0.245,0.2,0.379c-0.017,0.181,0.107,0.3,0.157,0.442c0.115,1.022,0.384,2.37-0.588,3.011
		c-0.343,0.184-0.76,0.143-1.091-0.02c-0.307-0.143-0.359-0.452-0.519-0.688c-0.184-0.576-0.445-1.203-0.274-1.86
		c0.117-0.621,0.165-1.267,0.505-1.806c0.062,0.051,0.019,0.172,0.021,0.255C48.888,47.722,48.774,48.201,48.931,48.68z
		 M51.837,46.61c-0.136-0.238-0.106-0.55-0.167-0.826c0.031-0.205,0.166,0.033,0.213,0.09c0.214,0.591,1.073,0.741,1.123,1.389
		c0.087,0.165,0.088,0.422-0.029,0.577c-0.212,0.217-0.535,0.326-0.868,0.267c-0.491-0.195-0.806-0.672-1.151-1.053
		c-0.024-0.281-0.257-0.515-0.136-0.798c0.089-0.012,0.16,0.071,0.214,0.121c0.251,0.326,0.57,0.581,0.901,0.819
		c0.06,0,0.136,0.005,0.157-0.064C52.171,46.901,51.881,46.805,51.837,46.61z M51.338,52.424c-0.105-0.223-0.396-0.367-0.419-0.621
		c-0.011-0.09-0.061-0.248,0.06-0.299c0.452,0.184,0.87,0.51,1.207,0.91c0.136,0.254,0.148,0.66-0.05,0.877
		c-0.011,0.129-0.061,0.26-0.187,0.332c-0.126,0.064-0.299,0.086-0.46,0.059c-0.536-0.293-0.826-0.873-0.92-1.463h0.061
		c0.241,0.174,0.278,0.656,0.659,0.539C51.377,52.686,51.371,52.537,51.338,52.424z M52.214,51.305
		c-0.337-0.391-0.592-0.822-0.57-1.375c0.03-0.038,0.065-0.062,0.112-0.048c0.07,0.089,0.065,0.217,0.137,0.313
		c0.112,0.195,0.159,0.531,0.463,0.531c0.08-0.048,0.041-0.16,0.021-0.227c0-0.288-0.226-0.545-0.084-0.846h0.046
		c0.381,0.396,0.855,0.813,0.713,1.415c-0.032,0.168-0.204,0.262-0.344,0.32C52.55,51.41,52.36,51.383,52.214,51.305z
		 M47.093,50.676c0.263-0.271,0.458-0.62,0.675-0.913c0.075-0.033,0.078,0.043,0.117,0.079c0.098,0.753-0.313,1.445-0.922,1.812
		c-0.156,0.082-0.358,0.107-0.541,0.084c-0.118-0.117-0.175-0.26-0.285-0.377c-0.062-0.564,0.057-1.135,0.461-1.517
		c0.162-0.164,0.179-0.361,0.356-0.502c0.231,0.128,0.113,0.495,0.136,0.729c0,0.271-0.237,0.445-0.251,0.71
		C46.925,50.885,47.011,50.723,47.093,50.676z M47.638,51.904c0.144-0.254,0.435-0.396,0.586-0.658
		c0.096-0.027,0.174,0.029,0.221,0.09c-0.001,0.482-0.283,0.861-0.537,1.264c0.148,0.115,0.247-0.121,0.414-0.08
		c0.311-0.242,0.306-0.637,0.532-0.924c0.089-0.027,0.152,0.07,0.186,0.139c0.321,0.664-0.137,1.26-0.447,1.752
		c-0.194,0.359-0.621,0.238-0.936,0.283c-0.176-0.037-0.366-0.07-0.424-0.273C47.116,52.889,47.503,52.43,47.638,51.904z
		 M48.512,46.122c-0.045,0.281-0.143,0.533-0.188,0.814l-0.087,0.101c0.084,0.073-0.01,0.219-0.021,0.319
		c-0.119,0.569-0.597,1.017-1.153,1.138c-0.198-0.03-0.388-0.085-0.55-0.202c-0.256-0.229-0.193-0.646-0.173-0.957
		c0.201-0.639,0.592-1.21,0.953-1.772c0.037-0.031,0.134-0.096,0.143-0.005c0.079,0.564-0.035,1.089-0.201,1.579
		c-0.042,0.114,0.014,0.24,0.13,0.298c0.202-0.066,0.248-0.316,0.402-0.443l-0.002-0.083c0.237-0.4,0.467-0.808,0.559-1.263
		c0.029-0.062,0.089-0.05,0.143-0.052C48.599,45.734,48.499,45.941,48.512,46.122z M45.489,43.03
		c-0.221,0.241-0.479,0.437-0.822,0.364c-0.083-0.025-0.191-0.062-0.216-0.152c-0.093-0.557,0.396-0.888,0.473-1.374
		c0.102-0.109,0.18-0.278,0.324-0.283c0.07,0.338-0.071,0.638-0.146,0.95c0.107,0.057,0.193-0.126,0.266-0.205
		c0.222-0.414,0.353-0.872,0.46-1.336c0.042-0.093,0.134-0.026,0.144,0.04C46.079,41.787,45.849,42.444,45.489,43.03z
		 M44.372,46.689l0.529-0.515c0.06-0.003,0.127-0.005,0.145,0.062c0.078,0.331-0.087,0.652-0.199,0.945
		c0.012,0.144-0.143,0.284-0.033,0.403c0.158-0.021,0.258-0.208,0.361-0.317c0.226-0.29,0.413-0.616,0.708-0.836
		c0.03,0,0.061,0.008,0.076,0.036c-0.038,0.483-0.275,0.893-0.467,1.321c-0.238,0.37-0.621,0.723-1.099,0.639l-0.117-0.109
		C44.237,47.789,44.052,47.143,44.372,46.689z M46.059,52.744c0.088-0.072,0.131-0.188,0.227-0.213
		c0.006,0.188-0.17,0.346-0.232,0.535c-0.07,0.209-0.216,0.387-0.194,0.627c0.087,0.109,0.19,0.023,0.271-0.023
		c0.237-0.172,0.375-0.395,0.572-0.607c0.031,0.021,0.018,0.076,0.019,0.115c-0.037,0.016-0.028,0.055-0.027,0.09
		c-0.207,0.422-0.431,0.98-0.958,1.104c-0.18,0.049-0.355,0.012-0.48-0.129c-0.131-0.336-0.03-0.748,0.174-1.01
		C45.668,53.064,45.788,52.813,46.059,52.744z M45.984,56.57c0.05,0.424,0.132,0.875-0.091,1.236
		c-0.064,0.102-0.191,0.18-0.299,0.107c-0.153-0.055-0.172-0.236-0.186-0.381c-0.027-0.432-0.076-0.783,0.063-1.172
		c0.076-0.252,0.136-0.529,0.166-0.801c0.046-0.205,0.063-0.424,0.139-0.613c0.058,0.133,0.041,0.299,0.098,0.434
		C45.961,55.771,45.807,56.213,45.984,56.57z M45.262,59.568c0.098-0.246,0.188-0.492,0.425-0.658
		c0.106-0.246,0.397-0.131,0.582-0.236c0.163,0.139,0.572-0.131,0.521,0.203c-0.207,0.4-0.359,0.859-0.247,1.338
		c-0.107,0.225-0.569-0.049-0.474,0.332c0.151,0.27,0.479,0.092,0.623,0.352c0.063,0.332,0.104,0.68,0.151,1.018
		c-0.013,0.053-0.082,0.041-0.105,0.018c-0.256-0.189-0.6-0.354-0.92-0.178c-0.193,0.105-0.315,0.322-0.478,0.477
		c-0.097,0.055-0.123-0.078-0.148-0.141C44.972,61.275,45.065,60.344,45.262,59.568z M47.75,56.977
		c-0.22-0.311-0.3-0.688-0.476-1.021c-0.048-0.354-0.098-0.721-0.001-1.059c0.035-0.09,0.04-0.211,0.136-0.275l0.038,0.037
		c-0.029,0.779,0.501,1.314,0.934,1.885c0.327,0.33,0.958,0.432,0.907,1.018c0,0.254,0.175,0.545,0.008,0.775
		c-0.075,0.006-0.055-0.051-0.101-0.088C48.808,57.693,48.24,57.416,47.75,56.977z M49.26,56.045
		c-0.361-0.42-0.731-0.93-0.506-1.504c0.026-0.387,0.174-0.762,0.499-1.004c0.065-0.094,0.016-0.258,0.15-0.293
		c0.063,0.09-0.041,0.152-0.053,0.221c0.064,0.391,0.286,0.975-0.075,1.303c-0.005,0.066-0.002,0.158,0.067,0.186
		c0.381,0.104,0.306-0.393,0.529-0.527c0.039,0.309-0.188,0.564-0.393,0.783c0.033,0.104,0.162,0.107,0.247,0.164
		c0.219-0.021,0.28-0.271,0.374-0.426c0.1-0.455,0.054-0.945-0.206-1.318c0.018-0.129-0.064-0.338,0.054-0.455
		c0.251,0.025,0.373,0.301,0.506,0.471c0.179,0.434,0.263,0.967,0.111,1.432c0.06,0.461-0.353,0.57-0.617,0.865
		C49.751,56.045,49.482,56.166,49.26,56.045z M50.321,56.969c0.032-0.191,0.18-0.309,0.274-0.455
		c0.16-0.453,0.443-0.877,0.663-1.281c0.168-0.232,0.098-0.547,0.219-0.795c0.136,0.035,0.135,0.223,0.199,0.328
		c0.053,0.533,0.062,1.086-0.129,1.539c-0.33,0.559-0.752,1.072-1.039,1.648c-0.118,0.102-0.098,0.26-0.162,0.391
		C50.099,57.926,50.136,57.389,50.321,56.969z M50.645,58.941c0.061-0.473,0.374-0.852,0.552-1.266c0.363-0.471,0.597-1,0.785-1.543
		c0.026-0.115-0.068-0.209,0.021-0.303c0.196,0.295,0.269,0.701,0.229,1.096c0.016,1.029-1.079,1.553-1.226,2.518
		c-0.117,0.104-0.204,0.256-0.276,0.371C50.578,59.576,50.659,59.227,50.645,58.941z M52.973,56.932
		c0.036-0.584,0.215-1.113,0.236-1.701c-0.025-0.092,0.099-0.238,0.127-0.066c0.107,0.557-0.012,1.16,0.163,1.688
		c-0.025,0.389,0.071,0.869-0.269,1.092c-0.142,0.088-0.25-0.055-0.278-0.168C52.816,57.479,53.043,57.238,52.973,56.932z
		 M53.842,53.479c-0.079,0.148-0.236,0.174-0.373,0.141c-0.559-0.188-0.781-0.83-0.941-1.348c0.135-0.041,0.171,0.162,0.293,0.203
		c0.222,0.055,0.31,0.473,0.555,0.348c-0.039-0.258-0.308-0.408-0.353-0.656c-0.032-0.104-0.135-0.215-0.078-0.322
		c0.144,0.025,0.099,0.238,0.265,0.264c0.327,0.074,0.587,0.391,0.723,0.682C54.048,53.02,53.974,53.287,53.842,53.479z
		 M52.686,44.757c-0.394-0.284-0.491-0.734-0.61-1.16c0.012-0.146-0.054-0.317,0.032-0.434c0.067-0.017,0.07,0.081,0.118,0.126
		c0.233,0.229,0.365,0.593,0.68,0.743c0.061,0.058,0.064,0.141,0.149,0.19c0.078,0.046,0.166-0.012,0.201-0.088
		c-0.003-0.136-0.128-0.262-0.214-0.381c-0.079-0.322-0.424-0.546-0.339-0.927c0.141-0.131,0.239,0.138,0.376,0.192
		c0.427,0.148,0.994,0.372,1.064,0.898c0.021,0.281,0.048,0.665-0.24,0.855C53.547,44.981,53.047,44.935,52.686,44.757z
		 M53.889,41.792c0.108,0.057,0.187,0.184,0.295,0.248c0.216,0.183,0.391,0.457,0.279,0.762c-0.071,0.131-0.089,0.298-0.231,0.386
		c-0.279,0.008-0.469-0.312-0.664-0.457c-0.171-0.184-0.299-0.407-0.231-0.682c0.027-0.083,0.111-0.04,0.157-0.019
		c0.168,0.055,0.298,0.362,0.475,0.227C53.965,42.091,53.817,41.951,53.889,41.792z M54.158,41.58
		c-0.301-0.453-0.565-0.92-0.634-1.47c0.013-0.038,0.065-0.048,0.098-0.02c0.235,0.313,0.536,0.779,0.984,0.774
		c0.131-0.141-0.062-0.286-0.098-0.436c-0.026-0.167-0.146-0.336-0.075-0.508c0.143-0.03,0.141,0.141,0.241,0.2
		c0.293,0.188,0.595,0.434,0.666,0.781c0.002,0.339-0.039,0.741-0.311,0.953C54.726,41.858,54.406,41.792,54.158,41.58z
		 M50.969,45.393c-0.341,0.44-0.86,0.788-1.451,0.762c-0.288-0.06-0.586-0.141-0.791-0.393c0.038-0.25-0.281-0.331-0.229-0.591
		c-0.181-0.5-0.431-0.993-0.336-1.601c-0.071-0.624,0.061-1.286,0.217-1.872c0.057-0.093,0.175-0.445,0.318-0.207
		c0.002,0.56-0.155,1.124,0.064,1.646c0.07,0.038,0.117,0.116,0.208,0.107c0.162-0.147-0.012-0.407,0.126-0.577
		c0.082-0.057,0.131,0.041,0.163,0.101c0.093,0.579,0,1.284,0.28,1.798c0.056,0.096,0.173,0.177,0.276,0.136
		c0.097-0.057,0.05-0.116,0.055-0.204c-0.304-0.786-0.297-1.83,0.02-2.597c0.06-0.017,0.069,0.028,0.1,0.066
		c0.061,0.526-0.074,1.053,0.107,1.546c0.225-0.06,0.202-0.316,0.272-0.483c0.144-0.55-0.024-1.088,0.148-1.622
		c0.061,0.005,0.049,0.081,0.094,0.109C51.003,42.708,51.81,44.164,50.969,45.393z M48.593,34.048
		c-0.026-0.112,0.054-0.268-0.07-0.336c-0.119,0.04-0.262,0.066-0.367,0.109c-0.038-0.01-0.07-0.069-0.079-0.112
		c0.006-0.023,0.013-0.048,0.012-0.086c0.237-0.149,0.475-0.31,0.736-0.414c0.05-0.093,0.183-0.238,0.27-0.091
		c-0.026,0.379-0.259,0.682-0.431,1.003C48.596,34.148,48.632,34.069,48.593,34.048z M47.878,33.152
		c-0.195,0.021-0.436,0.064-0.592-0.08c0.055-0.177,0.299-0.122,0.441-0.187c0.277-0.062,0.45,0.152,0.679,0.205
		c0.008,0.023,0.024,0.045,0.018,0.076C48.259,33.233,48.075,33.13,47.878,33.152z M48.53,31.573
		c-0.129-0.005-0.118-0.157-0.211-0.222c-0.07-0.059-0.133-0.138-0.246-0.106c-0.14,0.119-0.171,0.31-0.258,0.455l0.003,0.128
		c-0.172,0.029-0.24-0.204-0.357-0.307c-0.069-0.308,0.151-0.526,0.326-0.743c0.211-0.015,0.455,0.068,0.581,0.255
		C48.436,31.204,48.583,31.344,48.53,31.573z M47.664,32.243c-0.06,0.257,0.257,0.24,0.397,0.343l0.046,0.06
		c-0.049,0.107-0.185,0.119-0.284,0.091c-0.267-0.074-0.606-0.051-0.844,0.071c-0.129,0.019-0.25,0-0.343-0.081
		c0.024-0.212,0.308-0.079,0.449-0.141c0.105-0.058,0.217-0.093,0.312-0.177c-0.257-0.25-0.65-0.019-0.976-0.033
		c-0.209,0.06-0.488,0.129-0.658-0.023c-0.01-0.045,0.042-0.083,0.08-0.103c0.319,0.074,0.493-0.188,0.773-0.195
		c0.245-0.114,0.536-0.031,0.772,0.021C47.472,32.15,47.586,32.154,47.664,32.243z M46.942,31.705
		c-0.521-0.008-0.937,0.262-1.452,0.219c-0.032-0.045-0.114-0.021-0.131-0.088c-0.025-0.074,0.074-0.055,0.111-0.086
		c0.138-0.179,0.382-0.096,0.537-0.236c0.143-0.012,0.311,0.02,0.397-0.109c0.331-0.026,0.651,0.048,0.855,0.276l0.001,0.066
		C47.149,31.804,47.049,31.716,46.942,31.705z M45.604,33.119c0.554-0.176,1.155-0.026,1.575,0.339
		c0.357,0.548,0.493,1.308,0.248,1.943c-0.161,0.436-0.525,0.9-1.023,0.945c-0.588,0.267-1.195-0.04-1.66-0.419
		c-0.344-0.376-0.647-0.896-0.428-1.408C44.432,33.867,44.951,33.291,45.604,33.119z M43.699,42.849
		c0.03-0.007,0.045,0.017,0.061,0.031c-0.041,1.188,0.008,2.306,0.09,3.52c0.078,1.063,0.111,2.196,0.166,3.237
		c-0.032,0.198-0.248,0.326-0.295,0.517c-0.117,0.132-0.218,0.301-0.367,0.351c-0.153-0.321-0.082-0.731-0.161-1.084
		c-0.061-1.746-0.296-3.551-0.261-5.376c0.069-0.229,0.237-0.421,0.299-0.65C43.383,43.202,43.583,43.038,43.699,42.849z
		 M44.239,49.93l0.05-0.091c0.281-0.214,0.544-0.492,0.756-0.74c0.045-0.017,0.083,0.005,0.114,0.04
		c-0.127,0.526-0.248,1.044-0.575,1.484c-0.013,0.062,0.011,0.114,0.064,0.126c0.204-0.255,0.392-0.548,0.666-0.753
		c0.168-0.192,0.266-0.438,0.497-0.56c0.119,0.165-0.003,0.357-0.006,0.529c-0.052,0.788-0.445,1.534-1.184,1.86
		c-0.25,0-0.403,0.229-0.669,0.133c-0.206-0.047-0.43-0.217-0.511-0.402C43.368,50.91,43.806,50.383,44.239,49.93z M43.843,52.246
		l0.331-0.064c0.038,0.014,0.068,0.027,0.099,0.064c0.088,0.883,0.116,1.813,0.242,2.723c0.034,0.656,0.119,1.236,0.185,1.887
		c0.058,0.428,0.027,0.904,0.212,1.283c0.17,0.367-0.102,0.641-0.229,0.938c-0.333-0.027-0.027-0.428-0.221-0.59
		c-0.285-1.17-0.629-2.311-0.697-3.57c-0.079-0.58-0.126-1.174-0.152-1.773c-0.106-0.299-0.026-0.625-0.111-0.941
		C43.619,52.1,43.722,52.248,43.843,52.246z M43.57,60.797c0.026-0.402,0.053-0.803,0.323-1.113
		c0.008-0.211,0.243-0.229,0.367-0.346c0.204,0.004,0.449-0.17,0.613-0.002c0.003,0.143,0.202,0.219,0.139,0.381
		c-0.106,0.238-0.237,0.416-0.451,0.574c-0.106,0.018-0.268-0.107-0.316,0.053c0.045,0.273,0.411,0.096,0.486,0.326
		c0.006,0.236,0.106,0.498,0.006,0.721c-0.219,0.02-0.528,0.029-0.743,0.148c-0.105,0.064-0.208,0.15-0.337,0.117
		C43.431,61.459,43.511,61.07,43.57,60.797z M44.072,61.785c0.201-0.082,0.436-0.088,0.642-0.02
		c-0.03,0.244-0.107,0.473-0.091,0.736c0.039,0.301,0.178,0.615,0.491,0.734v0.016c-0.225,0.051-0.403-0.123-0.603-0.186
		c-0.262-0.166-0.301-0.463-0.423-0.707C44.077,62.172,43.873,61.949,44.072,61.785z M46.051,61.99
		c0.205,0.021,0.448,0.021,0.553,0.232c-0.024,0.242-0.148,0.434-0.11,0.689c0.048,0.264,0.031,0.553,0.181,0.766l0.005,0.098
		c-0.191-0.016-0.355-0.191-0.51-0.34c-0.288-0.285-0.593-0.594-0.574-1.002C45.666,62.229,45.88,62.1,46.051,61.99z M55.454,61.775
		c-0.055-0.035-0.033-0.129-0.02-0.176c0.188-0.291,0.543-0.061,0.811-0.164l0.046,0.025c0.055,0.324-0.287,0.531-0.354,0.828
		c-0.051,0.078-0.078,0.154-0.089,0.244c-0.161,0.203-0.299,0.402-0.514,0.553l-0.099,0.002
		C55.291,62.65,55.657,62.283,55.454,61.775z M56.409,61.082c-0.065,0.055-0.138,0.141-0.231,0.092
		c-0.285-0.145-0.521,0.082-0.799,0.082c-0.098-0.223-0.173-0.469-0.151-0.727c0.169-0.186,0.369-0.32,0.53-0.5
		c0.006-0.053-0.011-0.113-0.071-0.119c-0.205-0.047-0.441,0.391-0.587,0.078c-0.121-0.244-0.243-0.492-0.296-0.777
		c0.185-0.141,0.364,0.043,0.532,0.098l0.29,0.076c0.526,0.104,0.528,0.664,0.765,1.012C56.396,60.623,56.69,60.902,56.409,61.082z
		 M55.275,50.971c-0.616,0.117-1.191-0.152-1.599-0.609c-0.189-0.306-0.38-0.607-0.43-0.977c0.037-0.055,0.105-0.086,0.159-0.053
		c0.318,0.293,0.675,0.563,1.063,0.702l0.058-0.076c0.07,0.036,0.104,0.155,0.193,0.107c0-0.045,0.089-0.064,0.035-0.1
		c-0.481-0.4-0.782-0.877-0.926-1.432c-0.028-0.104,0.094-0.107,0.163-0.081c0.508,0.31,1.01,0.667,1.484,1.074
		c0.182,0.267,0.418,0.564,0.269,0.924C55.705,50.695,55.53,50.918,55.275,50.971z M55.619,41.184
		c0.021-0.055,0.098-0.036,0.127-0.021c0.218,0.167,0.309,0.414,0.48,0.612c0.379,0.286,0.726,0.715,1.183,0.843
		c0.142,0.193,0.375,0.155,0.545,0.286c-0.033,0.184-0.133,0.367-0.32,0.427c-0.551,0.023-0.88-0.374-1.254-0.751
		C55.961,42.192,55.786,41.691,55.619,41.184z M57.912,40.293c-0.12,0.05-0.28,0.002-0.387-0.071
		c-0.415-0.184-0.238-0.644-0.317-0.979c-0.024-0.265-0.071-0.581,0.074-0.796c0.068-0.019,0.116,0.064,0.146,0.101
		C57.634,39.107,57.938,39.628,57.912,40.293z M57.526,36.417c-0.049,0.086-0.111,0.051-0.18,0.036
		c-0.142-0.207-0.41-0.313-0.462-0.56c-0.042-0.098-0.161-0.055-0.222-0.038c-0.014,0.038-0.065,0.062-0.033,0.107
		c0.305,0.353,0.357,0.812,0.662,1.167c-0.017,0.233-0.201,0.397-0.3,0.553c-0.031,0.014-0.068,0.017-0.099,0.017
		c-0.164-0.139-0.162-0.349-0.289-0.505c0.004-0.144-0.068-0.263-0.139-0.382c0.071-0.402-0.261-0.619-0.413-0.924
		c-0.202-0.159-0.465-0.159-0.647-0.384c-0.011-0.081-0.013-0.164,0.054-0.229c0.257-0.262,0.606,0.074,0.898-0.071
		c0.131,0.081,0.286-0.038,0.431,0.019c0.201,0.122,0.388,0.289,0.629,0.298c0.162,0.114,0.245,0.317,0.189,0.524
		C57.58,36.167,57.515,36.282,57.526,36.417z M57.014,32.745c-0.02,0.112-0.113,0.253-0.004,0.355
		c0.125,0.103,0.293,0.149,0.342,0.323c0.042,0.096,0.022,0.195-0.089,0.229c-0.341,0.019-0.632,0.147-0.849,0.44
		c0.001,0.053-0.004,0.114,0.057,0.143c0.234,0.015,0.233-0.303,0.45-0.338c0.16,0.017,0.33-0.141,0.462,0
		c-0.047,0.184,0.204,0.267,0.209,0.447c-0.082,0.306,0.051,0.687-0.123,0.955c-0.377,0.013-0.7-0.438-1.085-0.123
		c-0.25-0.038-0.465-0.155-0.744-0.122c-0.193-0.147-0.261-0.402-0.224-0.646c0.07-0.176,0.276-0.121,0.379-0.252
		c0.113-0.012,0.251,0.076,0.347-0.026c-0.043-0.164-0.29-0.088-0.418-0.101c-0.113,0.051-0.23,0.136-0.36,0.11
		c-0.132-0.081-0.113-0.246-0.094-0.369c0.175-0.412,0.651-0.472,1.04-0.561c0.023-0.023,0.059-0.055,0.044-0.093
		c-0.439-0.257-0.853,0.079-1.193,0.303c-0.053,0.023-0.106-0.021-0.11-0.071c0.077-0.291,0.21-0.622,0.54-0.72
		c0.021-0.047,0.097-0.071,0.072-0.131c-0.116-0.081-0.218,0.028-0.331,0.038c-0.148,0.141-0.333,0.27-0.518,0.357
		c0.015-0.243,0.251-0.438,0.35-0.669c-0.017-0.029-0.017-0.06-0.056-0.081c-0.328,0.169-0.545,0.469-0.857,0.667
		c-0.089,0.033-0.204,0.021-0.271-0.036c-0.056-0.045-0.043-0.126-0.022-0.181c0.243-0.258,0.459-0.581,0.579-0.91
		c0.201-0.564,0.9-0.481,1.273-0.884c0.184,0.055,0.423-0.066,0.51,0.129c-0.073,0.09-0.177,0.109-0.281,0.149
		c-0.244,0.188-0.612,0.276-0.701,0.627c0.156,0.116,0.223-0.15,0.35-0.2c0.087-0.062,0.192-0.155,0.313-0.107
		c0.157,0.177,0.348-0.26,0.448,0.071c-0.063,0.16-0.257,0.217-0.391,0.313c-0.146,0.134-0.286,0.326-0.347,0.524
		c0.048,0.098,0.137,0.004,0.205,0.009c0.206-0.171,0.402-0.426,0.675-0.419C56.917,32.052,57.034,32.405,57.014,32.745z
		 M53.519,29.787c0.234-0.262,0.588-0.235,0.849-0.427c0.682-0.192,1.444,0.064,2.022-0.361l0.732-0.505
		c0.273-0.01,0.401-0.284,0.616-0.398c0.075-0.023,0.153,0.02,0.162,0.089c-0.073,0.343-0.245,0.647-0.272,0.995
		c-0.068,0.533-0.647,0.609-0.964,0.915c-0.229,0.152-0.524,0.152-0.777,0.242c-0.591,0.003-1.111,0.306-1.414,0.784
		c0.097,0.157-0.075,0.26-0.187,0.324c-0.134,0.085-0.346,0.062-0.424,0.217c0.062,0.063,0.206,0.045,0.186,0.176
		c-0.31,0.258-0.829,0.048-1.147,0.283c-0.044,0.038-0.119,0.064-0.125,0.131c0.085,0.067,0.271-0.014,0.261,0.137
		c-0.228,0.219-0.578,0.147-0.838,0.283c-0.019,0.06,0.049,0.088,0.086,0.095c0.121,0.003,0.225-0.083,0.346-0.04
		c-0.003,0.114-0.147,0.103-0.213,0.164c-0.261,0.122-0.621,0.033-0.841,0.229c0.109,0.103,0.305,0.053,0.383,0.172
		c-0.29,0.181-0.66,0.179-0.939,0.376c-0.224,0.15,0.087,0.662-0.312,0.524c-0.237-0.177-0.337-0.438-0.384-0.71
		c0.073-0.107-0.049-0.374,0.149-0.343c0.192,0.1,0.168,0.312,0.33,0.404c0.128,0.013,0.191-0.133,0.264-0.212
		c-0.182-0.31,0.28-0.316,0.401-0.523c-0.038-0.258,0.257-0.222,0.391-0.314c0.263-0.076,0.541-0.131,0.787-0.236
		c-0.001-0.045-0.053-0.035-0.077-0.06c-0.044,0.024-0.098,0.02-0.143,0.02c-0.031-0.021-0.039-0.043-0.032-0.081
		c0.284-0.379,0.785-0.288,1.182-0.429c-0.026-0.104-0.178-0.107-0.098-0.238c0.264-0.229,0.761-0.114,0.875-0.526
		c0.006-0.083,0.123-0.193,0.009-0.25c-0.187,0.098-0.34,0.283-0.518,0.396c-0.17,0.186-0.377,0.288-0.595,0.357
		c0.02-0.122,0.093-0.184,0.181-0.279c0.347-0.326,0.545-0.74,0.685-1.152c-0.026-0.084-0.124-0.043-0.175-0.033
		c-0.317,0.312-0.688,0.519-1.028,0.771c-0.083,0.002-0.158,0.057-0.242,0.023c-0.073-0.174,0.166-0.233,0.232-0.361
		C53.13,30.239,53.297,29.992,53.519,29.787z M50.234,31.571c-0.101-0.112-0.084-0.3-0.097-0.46
		c-0.046-0.035-0.062-0.043-0.13-0.033c-0.125,0.109-0.219,0.265-0.191,0.436c-0.037,0.031-0.067,0.033-0.098-0.009
		c-0.069-0.271-0.01-0.577,0.119-0.822c0.072-0.086,0.183-0.188,0.297-0.152c0.138,0.079,0.211,0.227,0.321,0.346
		C50.395,31.111,50.426,31.399,50.234,31.571z M51.251,31.18c-0.107-0.093-0.194,0.053-0.284,0.093
		c-0.132,0.134-0.174,0.27-0.291,0.41c-0.06,0.023-0.093-0.043-0.115-0.081c-0.001-0.279,0.09-0.524,0.204-0.753
		c0.115-0.157,0.351-0.155,0.451-0.355c0.112-0.071,0.373-0.161,0.387,0.072c0.006,0.226,0.104,0.421,0.208,0.598
		c-0.032,0.212-0.156,0.391-0.241,0.583c-0.044,0.046-0.111,0.094-0.171,0.072C51.445,31.583,51.303,31.399,51.251,31.18z
		 M51.488,28.898c0.007-0.264,0.303-0.229,0.466-0.3c0.34-0.033,0.674,0.033,0.857,0.338c0.056,0.119,0.112,0.222,0.139,0.351
		c-0.163,0.116-0.125,0.357-0.304,0.469c-0.275-0.088-0.194-0.447-0.403-0.621c-0.287-0.195-0.549,0.114-0.811,0.197
		C51.33,29.199,51.46,29.043,51.488,28.898z M51.849,29.492c0.069,0,0.137-0.005,0.176,0.062c-0.003,0.357,0.475,0.729,0.062,1.034
		c-0.288-0.02-0.222-0.339-0.332-0.518c-0.219-0.174-0.36,0.162-0.586,0.146c-0.098,0.017-0.17-0.078-0.119-0.169
		C51.099,29.651,51.55,29.606,51.849,29.492z M49.7,28.876c0.162-0.366,0.606-0.426,0.978-0.429c0.177,0.16,0.237,0.362,0.378,0.531
		c0.042,0.126-0.046,0.26-0.096,0.36c-0.105,0.009-0.163-0.172-0.278-0.22c-0.191-0.086-0.406-0.154-0.631-0.095
		c-0.121,0.025-0.206,0.164-0.329,0.123C49.668,29.082,49.68,28.96,49.7,28.876z M50.135,29.36c0.238-0.098,0.309,0.241,0.442,0.372
		c0.049,0.129,0.27,0.195,0.17,0.374c-0.051,0.069-0.069,0.229-0.192,0.171c-0.185-0.106-0.284-0.393-0.516-0.278
		c-0.104,0.086-0.16,0.224-0.294,0.25c-0.125-0.103-0.055-0.293-0.082-0.442C49.818,29.641,49.935,29.517,50.135,29.36z
		 M49.608,33.297c0.168-0.1,0.403,0.076,0.53-0.119l0.045,0.015c0.044,0.227,0.186,0.498,0.053,0.731
		c-0.005,0.133,0.088,0.242,0.062,0.359c-0.142-0.023-0.117-0.181-0.2-0.26c-0.048-0.081-0.079-0.152-0.162-0.188
		c-0.192,0.029-0.105,0.47-0.348,0.248c-0.064-0.154,0.105-0.424-0.112-0.5c-0.136,0.152-0.153,0.338-0.252,0.498
		c-0.074-0.043-0.167-0.129-0.176-0.233c0.329-0.122-0.053-0.503,0.307-0.617C49.45,33.176,49.541,33.241,49.608,33.297z
		 M49.415,31.311c-0.129-0.005-0.073-0.141-0.135-0.207c-0.046-0.06-0.096-0.186-0.193-0.139c-0.103,0.117-0.127,0.284-0.086,0.434
		l-0.044,0.038c-0.157-0.19-0.262-0.421-0.247-0.664c0.018-0.167,0.165-0.314,0.305-0.396c0.137,0.005,0.224,0.124,0.346,0.164
		C49.519,30.756,49.491,31.073,49.415,31.311z M48.666,30.091c-0.036,0.101-0.107,0.2-0.204,0.265
		c-0.098,0.01-0.154-0.064-0.193-0.138c-0.063-0.074-0.028-0.182-0.039-0.272c0.138-0.202,0.198-0.467,0.415-0.586
		c0.249-0.009,0.378,0.298,0.642,0.253c0.086,0.064,0.066,0.179,0.078,0.283C49.135,30.101,48.806,29.76,48.666,30.091z
		 M48.695,28.446c0.15-0.02,0.271,0.007,0.374,0.103c0.138,0.131,0.131,0.336,0.272,0.469c0.002,0.088,0.012,0.195-0.077,0.243
		c-0.354,0.058-0.412-0.405-0.76-0.316c-0.124,0.145-0.345,0.267-0.4,0.464c-0.052,0.048-0.103,0.109-0.171,0.064
		c-0.079-0.078-0.15-0.159-0.174-0.265C47.928,28.817,48.226,28.443,48.695,28.446z M47.904,30.02
		c0.043,0.104,0.076,0.255,0.043,0.354c-0.222-0.023-0.483,0.021-0.583,0.274c-0.086,0.141-0.119,0.312-0.26,0.424
		c-0.128-0.071-0.209-0.229-0.267-0.362c0.121-0.247,0.198-0.497,0.333-0.729c0.028-0.038,0.066-0.078,0.109-0.086
		C47.495,29.925,47.681,30.08,47.904,30.02z M46.556,28.808c0.219,0.007,0.438,0.009,0.61,0.154
		c0.117,0.103,0.152,0.319,0.343,0.343c0.069,0.029,0.072,0.112,0.072,0.157c-0.088,0.101-0.21,0.015-0.317,0.026
		c-0.227,0.007-0.529-0.281-0.655,0.064c-0.064,0.107-0.104,0.291-0.248,0.303c-0.133-0.131-0.222-0.296-0.188-0.479
		C46.311,29.177,46.356,28.949,46.556,28.808z M41.451,28.879c-0.04-0.271,0.021-0.538,0.036-0.803
		c0.044-0.033,0.073-0.101,0.125-0.103c0.286-0.076,0.219,0.257,0.353,0.374c0.144,0.276,0.364,0.564,0.684,0.639
		c0.568,0.025,1.23-0.091,1.75,0.104c0.442,0.086,0.799,0.429,1.142,0.76c0.09,0.005,0.133-0.079,0.239-0.053
		c0.104,0.141,0.392,0.2,0.316,0.422c0.326,0.036,0.427,0.405,0.668,0.586c-0.229,0.202,0.477,0.508-0.062,0.469
		c-0.407-0.221-0.767,0.107-1.168,0.127c-0.099-0.026-0.219-0.017-0.305-0.098l0.035-0.084c0.245-0.174,0.513-0.302,0.837-0.326
		c0.075-0.048,0.025-0.205,0.17-0.149c0.054,0.06,0.111,0.169,0.208,0.152c0.03-0.015,0.013-0.053,0.013-0.084
		c-0.184-0.048-0.228-0.267-0.425-0.305c-0.151,0.005-0.319-0.021-0.399-0.176c-0.068-0.255-0.351-0.377-0.559-0.467
		c-0.1-0.064-0.215-0.146-0.343-0.096c-0.059,0.053-0.125,0.124-0.069,0.205c0.19,0.298,0.434,0.569,0.661,0.843v0.028
		c-0.28-0.014-0.456-0.371-0.743-0.34c-0.037,0.04-0.065,0.106-0.026,0.159c0.112,0.179,0.353,0.397,0.193,0.601
		c-0.196,0.021-0.293-0.195-0.395-0.322c-0.024-0.271-0.298-0.345-0.505-0.429c-0.213-0.078-0.444,0.034-0.673-0.012
		c-0.199-0.071-0.427,0.105-0.576-0.081C41.959,30.215,41.5,29.555,41.451,28.879z M41.283,40.045
		c0.109-0.359,0.036-0.788,0.269-1.098c0.176,0.047,0.062,0.264,0.126,0.414c0.1,0.321,0.104,0.705,0.159,1.029
		c-0.1,0.169-0.295,0.298-0.49,0.271C41.228,40.5,41.28,40.241,41.283,40.045z M42.962,39.476c0.05-0.083,0.2-0.119,0.226,0.007
		c-0.004,0.319-0.133,0.596-0.231,0.87c-0.274,0.424-0.35,0.94-0.746,1.308c-0.209,0.128-0.381,0.419-0.662,0.383
		c-0.128-0.224-0.31-0.445-0.293-0.709C41.883,40.81,42.59,40.184,42.962,39.476z M41.792,43.225
		c-0.119,0.055-0.244,0.165-0.367,0.124c-0.03-0.233-0.108-0.586,0.137-0.722c0.126-0.088,0.314-0.343,0.415-0.081
		C42.021,42.794,42.029,43.068,41.792,43.225z M42.165,43.08c0.267-0.431,0.704-0.717,0.856-1.188
		c0.038-0.033,0.087-0.141,0.143-0.057c-0.051,0.824-0.393,1.553-0.879,2.203c-0.233,0.316-0.609,0.381-0.929,0.541
		c-0.106,0.012-0.199-0.086-0.239-0.174c-0.049-0.098-0.098-0.217-0.063-0.331C41.454,43.797,41.875,43.468,42.165,43.08z
		 M40.052,42.702c0.045-0.268,0.112-0.548,0.38-0.7c0.142-0.081,0.304-0.205,0.465-0.16l0.168,0.314
		c0.042,0.422-0.408,0.526-0.65,0.753c-0.083,0.01-0.087,0.131-0.171,0.071C40.12,42.925,40.086,42.804,40.052,42.702z
		 M40.35,46.603c-0.113,0.04-0.176-0.055-0.261-0.091c-0.124-0.133-0.213-0.305-0.158-0.503c0.061-0.25,0.37-0.252,0.462-0.497
		c0.35-0.162,0.535-0.546,0.823-0.789c0.144,0.026,0.298-0.145,0.4,0.005C41.297,45.417,40.908,46.034,40.35,46.603z M42.059,55.994
		c-0.386-1.303-0.75-2.621-0.95-4.016c-0.233-1.165-0.269-2.419-0.479-3.591c0.06-0.546-0.033-1.094-0.05-1.646
		c0.124-0.169,0.317-0.267,0.472-0.399c0.038-0.003,0.069,0.014,0.093,0.05c-0.019,0.907,0.203,1.741,0.162,2.642
		c0.081,0.654,0.169,1.369,0.25,2.026c-0.024,0.682,0.124,1.355,0.145,2.059c0.077,0.756,0.248,1.475,0.31,2.246
		c0.028,0.209,0.102,0.404,0.079,0.631H42.059z M42.421,55c-0.108-0.617-0.107-1.307-0.23-1.893
		c-0.157-1.191-0.173-2.467-0.254-3.666c-0.07-0.341-0.113-0.724-0.131-1.101c-0.107-0.776-0.071-1.586-0.244-2.344
		c-0.068-0.467,0.087-0.857,0.25-1.238c0.11-0.096,0.271-0.298,0.396-0.157c0.069,0.783,0.017,1.564,0.07,2.363
		c0.079,0.348,0.081,0.664,0.092,1.033c0.076,1.276,0.113,2.499,0.271,3.736c0.232,1.709,0.398,3.447,0.556,5.191
		c0.071,0.631,0.188,1.24,0.283,1.867c-0.015,0.029-0.074,0.07-0.113,0.031C42.908,57.615,42.62,56.33,42.421,55z M56.515,55.387
		c-0.185,0.889-0.294,1.801-0.571,2.654c-0.027,0.297-0.08,0.578-0.23,0.824c-0.032,0.002-0.061-0.006-0.086-0.027
		c-0.041-0.656,0.252-1.186,0.301-1.801c0.061-0.516,0.068-1.045,0.174-1.541c0.055-0.695,0.08-1.348,0.15-2.035
		c0.07-0.225,0.1-0.457,0.124-0.709c-0.055-0.535,0.121-0.984,0.082-1.514c0.075-0.532,0.18-1.072,0.156-1.623
		c0.053-0.969,0.237-1.891,0.237-2.889c0.098-0.281-0.042-0.662,0.079-0.938c-0.04-0.265-0.018-0.543,0.014-0.803
		c0.105-0.246-0.16-0.736,0.248-0.756c0.146,0.086,0.316,0.195,0.426,0.319c0.016,0.31-0.08,0.615-0.055,0.948
		c0,0.52-0.128,1.024-0.082,1.551c-0.014,0.75-0.046,1.498-0.136,2.227c-0.119,0.867-0.182,1.754-0.339,2.596
		C56.938,53.084,56.653,54.211,56.515,55.387z M58.673,45.893c-0.133,0.555-0.002,1.148-0.107,1.71
		c0.022,0.521-0.175,0.958-0.154,1.473c-0.029,0.793-0.279,1.505-0.309,2.297c-0.136,0.777-0.339,1.539-0.474,2.314
		c-0.208,0.904-0.482,1.783-0.836,2.633c-0.022,0.018-0.06,0.018-0.076-0.014c0.111-0.84,0.252-1.67,0.386-2.506
		c0.235-1.027,0.376-2.088,0.563-3.129c0.105-0.791,0.065-1.637,0.245-2.392c0.14-0.965,0.185-1.956,0.346-2.906
		c0.147-0.086,0.282,0.076,0.432,0.086C58.666,45.612,58.706,45.731,58.673,45.893z M59.256,45.412
		c-0.45-0.357-1.004-0.697-1.315-1.207c-0.125-0.134-0.235-0.296-0.174-0.493c0.067-0.071,0.14-0.157,0.24-0.107
		c0.243,0.038,0.288,0.286,0.551,0.271c0.093,0.05,0.051,0.188,0.136,0.253c0.249,0.181,0.515,0.469,0.74,0.667
		c0.064,0.133,0.157,0.242,0.14,0.412C59.486,45.291,59.416,45.476,59.256,45.412z"/>
	<path d="M42.14,29.113c0.25,0.154,0.538,0.186,0.822,0.245c0.261,0.06,0.578-0.031,0.791,0.172
		c0.092,0.136,0.333,0.247,0.257,0.457l-0.058,0.045c-0.564-0.285-1.342-0.014-1.815-0.526c-0.187-0.048-0.297-0.243-0.346-0.412
		c-0.008-0.06,0.012-0.128,0.048-0.159C41.957,28.946,42.035,29.07,42.14,29.113z"/>
	<path d="M57.354,29.015c-0.041,0.149-0.149,0.285-0.256,0.414c-0.54,0.343-1.21,0.517-1.871,0.437
		c-0.037-0.013-0.038-0.064-0.018-0.089c0.419-0.143,0.876-0.192,1.256-0.426c0.277-0.148,0.562-0.31,0.872-0.351L57.354,29.015z"/>
	<path d="M45.228,33.915c-0.072-0.033-0.783,1.079-0.072,1.693c0.941,0.813,2.008-0.558,1.779-0.889
		c-0.129-0.05-0.407,0.789-1.196,0.61C44.791,35.115,45.301,33.948,45.228,33.915z"/>
	<path d="M52.473,35.356c0.025,0.278,1.131,0.831,1.652,0.05c0.704-1.058-0.306-1.677-0.636-1.448
		c-0.051,0.126,0.61,0.407,0.28,1.117C53.409,35.851,52.459,35.203,52.473,35.356z"/>
	<path d="M111.272,43.548c0,3.151-1.141,5.515-4.147,5.515c-3.171,0-4.209-2.198-4.209-5.535V39.05c0-2.157,0.043-2.51,1.245-2.613
		l0.498-0.042c0.125-0.082,0.083-0.435-0.042-0.496c-1.016,0.04-1.701,0.062-2.55,0.062c-0.83,0-1.535-0.021-2.571-0.062
		c-0.124,0.062-0.166,0.414-0.041,0.496l0.517,0.042c1.203,0.104,1.245,0.456,1.245,2.613v4.892c0,2.468,0.518,3.98,1.617,4.893
		c1.016,0.871,2.446,1.142,3.876,1.142c1.534,0,3.068-0.54,3.96-1.514c1.161-1.245,1.452-3.151,1.452-4.956v-2.343
		c0-1.161,0-3.545,0.291-4.229c0.124-0.27,0.517-0.456,1.036-0.498l0.498-0.042c0.102-0.124,0.124-0.393-0.042-0.496
		c-0.747,0.04-1.306,0.062-2.177,0.062c-0.809,0-1.576-0.021-2.364-0.062c-0.124,0.082-0.166,0.351-0.041,0.496l0.518,0.042
		c0.518,0.042,0.892,0.187,1.038,0.436c0.351,0.622,0.393,3.006,0.393,4.291V43.548z M131.113,41.164
		c0-0.954-0.042-3.523,0.31-4.271c0.083-0.166,0.498-0.331,1.162-0.435l0.29-0.042c0.125-0.125,0.125-0.414-0.042-0.518
		c-0.705,0.04-1.243,0.062-2.135,0.062c-0.787,0-1.492-0.021-2.446-0.062c-0.166,0.062-0.187,0.393-0.042,0.518l0.353,0.042
		c0.829,0.104,1.161,0.228,1.286,0.414c0.393,0.622,0.415,3.317,0.415,4.291v4.438c0,0.435,0,0.768-0.083,0.871h-0.042
		c-0.974-0.996-1.99-2.157-3.422-3.753l-2.01-2.261c-0.684-0.767-3.13-3.504-3.544-4.56c-0.271,0.04-0.623,0.062-0.956,0.062
		c-0.373,0-1.472,0-2.341-0.062c-0.167,0.082-0.167,0.393-0.043,0.518l0.353,0.042c0.498,0.062,0.996,0.207,1.287,0.496
		c0.436,0.478,0.456,0.913,0.456,1.494v5.991c0,0.994,0.02,3.524-0.271,4.271c-0.103,0.228-0.435,0.353-0.912,0.415l-0.56,0.062
		c-0.124,0.125-0.102,0.415,0.043,0.519c0.724-0.041,1.284-0.063,2.156-0.063c0.767,0,1.492,0.021,2.425,0.063
		c0.145-0.104,0.167-0.353,0.043-0.519l-0.643-0.062c-0.52-0.042-0.934-0.166-1.058-0.395c-0.353-0.621-0.374-3.316-0.374-4.291
		v-4.52c0-0.623,0.021-1.1,0.104-1.348h0.041c0.436,0.456,1.846,2.156,2.406,2.798l4.809,5.474c1.804,2.053,2.406,2.779,2.655,3.132
		c0.228,0,0.351-0.104,0.394-0.229c-0.062-0.538-0.062-3.006-0.062-3.627V41.164z M139.302,46.492c0,2.197-0.043,2.488-1.265,2.634
		l-0.518,0.062c-0.124,0.125-0.083,0.456,0.042,0.519c1.037-0.041,1.742-0.063,2.611-0.063c0.829,0,1.534,0.021,2.572,0.063
		c0.124-0.063,0.165-0.435,0.041-0.519l-0.519-0.062C141.043,48.98,141,48.689,141,46.492v-7.38c0-2.197,0.043-2.55,1.265-2.653
		l0.519-0.042c0.124-0.083,0.083-0.456-0.041-0.518c-1.039,0.04-1.744,0.062-2.572,0.062c-0.87,0-1.575-0.021-2.611-0.062
		c-0.125,0.062-0.166,0.435-0.042,0.518l0.518,0.042c1.222,0.104,1.265,0.456,1.265,2.653V46.492z M152.486,47.156
		c0.352,0.87,0.726,1.886,0.955,2.757c0.102,0.042,0.207,0.063,0.31,0.063c0.083,0,0.167-0.021,0.229-0.063
		c0.353-1.099,1.327-3.503,2.156-5.41l1.12-2.55c0.934-2.115,1.743-3.795,2.322-4.769c0.269-0.437,0.581-0.686,1.079-0.726
		l0.622-0.042c0.104-0.104,0.104-0.436-0.041-0.518c-0.686,0.04-1.327,0.062-2.013,0.062c-0.786,0-1.575-0.021-2.156-0.062
		c-0.146,0.082-0.186,0.393-0.041,0.518l0.372,0.042c0.727,0.082,0.934,0.248,0.934,0.393c0,0.146-0.021,0.374-0.186,0.809
		c-0.353,0.893-1.327,3.235-1.929,4.646c-0.477,1.098-1.349,3.233-1.989,4.602c-1.039-2.363-1.991-4.747-2.944-7.153
		c-0.643-1.575-0.996-2.695-1.039-2.902c0.021-0.165,0.188-0.289,0.974-0.393l0.312-0.042c0.146-0.125,0.105-0.436-0.041-0.518
		c-0.872,0.04-1.598,0.062-2.51,0.062c-0.891,0-1.553-0.021-2.156-0.062c-0.165,0.104-0.186,0.393-0.041,0.518l0.372,0.042
		c0.893,0.104,1.203,0.538,1.682,1.699L152.486,47.156z M166.543,46.534c0,2.177-0.104,2.488-1.286,2.592l-0.684,0.062
		c-0.124,0.125-0.083,0.456,0.041,0.519c1.224-0.041,1.929-0.063,2.82-0.063h1.865c1.846,0,3.692,0.021,5.557,0.063
		c0.269-0.56,0.788-2.156,0.934-2.881c-0.083-0.188-0.374-0.249-0.519-0.146c-0.539,1.078-1.098,1.803-1.472,2.01
		c-0.455,0.229-1.058,0.313-2.653,0.313c-1.825,0-2.261-0.229-2.508-0.478c-0.331-0.353-0.396-1.058-0.396-2.155v-2.924
		c0-0.539,0.064-0.561,0.686-0.561h1.203c0.807,0,1.305,0.021,1.596,0.104c0.415,0.104,0.56,0.414,0.643,0.788l0.186,0.809
		c0.102,0.124,0.455,0.124,0.538-0.021c0-0.456-0.083-1.243-0.083-1.99c0-0.788,0.083-1.596,0.083-2.094
		c-0.083-0.146-0.436-0.146-0.538-0.021l-0.167,0.851c-0.103,0.519-0.248,0.644-0.498,0.726c-0.248,0.083-0.891,0.125-1.76,0.125
		h-1.203c-0.622,0-0.686,0-0.686-0.581v-4.146c0-0.788,0-0.83,0.624-0.83h1.491c0.912,0,1.577,0.021,2.013,0.125
		c1.077,0.27,1.262,0.995,1.574,1.971c0.105,0.123,0.436,0.082,0.52-0.042c-0.083-0.912-0.207-2.406-0.333-2.757
		c-0.248,0.062-1.472,0.062-2.799,0.062h-3.896c-0.851,0-1.556-0.021-2.446-0.062c-0.124,0.062-0.167,0.435-0.043,0.518l0.333,0.042
		c1.222,0.144,1.265,0.456,1.265,2.611V46.534z M181.759,46.534c0,2.177-0.041,2.446-1.244,2.592l-0.517,0.062
		c-0.126,0.146-0.083,0.456,0.041,0.519c0.974-0.041,1.72-0.063,2.591-0.063c0.829,0,1.534,0.021,2.468,0.063
		c0.124-0.063,0.164-0.415,0.041-0.519l-0.436-0.062c-1.201-0.166-1.243-0.415-1.243-2.592V43.92c0-0.435,0.042-0.454,0.974-0.454
		c0.829,0,1.162,0.207,1.472,0.663c0.644,0.933,1.494,2.362,2.032,3.13c1.472,2.094,2.53,2.612,4.292,2.612
		c0.393,0,0.727-0.041,0.912-0.104c0.104-0.083,0.083-0.249-0.021-0.29c-0.56-0.042-1.076-0.27-1.429-0.581
		c-1.41-1.182-2.511-2.84-4.168-5.515c-0.103-0.165-0.208-0.373-0.103-0.498c1.036-0.414,2.591-1.492,2.591-3.462
		c0-1.451-0.727-2.384-1.722-2.902c-0.953-0.518-2.177-0.621-3.46-0.621c-2.032,0-3.463,0.062-4.624,0.165
		c-0.167,0.082-0.167,0.415-0.021,0.519l0.662,0.083c0.851,0.104,0.913,0.456,0.913,2.425V46.534z M183.46,37.204
		c0-0.58,0.062-0.663,1.348-0.663c2.301,0,3.318,1.556,3.318,3.193c0,1.41-0.479,2.135-1.039,2.571
		c-0.6,0.456-1.389,0.538-2.134,0.538c-1.058,0-1.37-0.042-1.432-0.104c-0.062-0.082-0.062-0.312-0.062-0.684V37.204z
		 M204.649,46.139c0-1.97-1.286-3.171-2.592-3.979l-1.66-1.037c-0.767-0.477-1.762-1.348-1.762-2.55
		c0-0.954,0.436-2.302,2.467-2.302c1.991,0,2.552,1.348,2.82,2.343c0.103,0.124,0.437,0.063,0.52-0.062
		c0-0.871-0.188-2.032-0.374-2.529c-0.167,0-0.457-0.042-0.727-0.124c-0.538-0.146-1.284-0.271-1.927-0.271
		c-2.696,0-4.23,1.597-4.23,3.565c0,1.701,1.203,2.882,2.239,3.567l1.97,1.285c1.513,0.974,1.7,1.989,1.7,2.901
		c0,1.245-0.85,2.385-2.591,2.385c-2.406,0-3.256-2.032-3.566-3.089c-0.083-0.124-0.395-0.083-0.497,0.062
		c0.04,0.976,0.31,2.447,0.56,2.903c0.393,0.228,1.491,0.768,3.234,0.768C202.927,49.976,204.649,48.42,204.649,46.139z
		 M211.49,46.492c0,2.197-0.043,2.488-1.265,2.634l-0.52,0.062c-0.124,0.125-0.083,0.456,0.043,0.519
		c1.036-0.041,1.741-0.063,2.611-0.063c0.832,0,1.537,0.021,2.572,0.063c0.123-0.063,0.164-0.435,0.041-0.519l-0.518-0.062
		c-1.225-0.146-1.264-0.437-1.264-2.634v-7.38c0-2.197,0.039-2.55,1.264-2.653l0.518-0.042c0.123-0.083,0.082-0.456-0.041-0.518
		c-1.035,0.04-1.74,0.062-2.572,0.062c-0.87,0-1.575-0.021-2.611-0.062c-0.126,0.062-0.167,0.435-0.043,0.518l0.52,0.042
		c1.222,0.104,1.265,0.456,1.265,2.653V46.492z M226.582,37.307c0-0.684-0.02-0.705,0.602-0.705h1.473
		c1.141,0,1.928,0.167,2.404,0.52c0.313,0.228,0.457,0.994,0.52,1.513c0.104,0.125,0.457,0.125,0.537-0.041
		c-0.061-0.622,0.084-2.302,0.313-3.15c-0.041-0.084-0.27-0.104-0.373-0.063c-0.311,0.539-0.498,0.581-1.619,0.581h-8.396
		c-0.951,0-1.635,0.021-1.762-0.643c-0.063-0.063-0.332-0.042-0.393,0c-0.146,0.828-0.457,2.156-0.789,3.089
		c0.084,0.166,0.373,0.27,0.541,0.146c0.227-0.519,0.434-0.975,0.932-1.431c0.52-0.478,1.66-0.52,2.551-0.52h1.141
		c0.621,0,0.621,0.021,0.621,0.664v9.268c0,2.177-0.104,2.488-1.285,2.592l-0.746,0.062c-0.166,0.104-0.127,0.456,0,0.519
		c1.326-0.041,2.051-0.063,2.883-0.063c0.828,0,1.533,0.021,2.715,0.063c0.123-0.063,0.164-0.435,0.041-0.519l-0.662-0.062
		c-1.203-0.104-1.246-0.415-1.246-2.592V37.307z M238.4,46.534c0,2.177-0.104,2.488-1.285,2.592l-0.684,0.062
		c-0.127,0.125-0.084,0.456,0.041,0.519c1.223-0.041,1.928-0.063,2.818-0.063h1.865c1.848,0,3.693,0.021,5.559,0.063
		c0.268-0.56,0.787-2.156,0.934-2.881c-0.084-0.188-0.375-0.249-0.52-0.146c-0.539,1.078-1.098,1.803-1.473,2.01
		c-0.457,0.229-1.057,0.313-2.652,0.313c-1.826,0-2.262-0.229-2.51-0.478c-0.332-0.353-0.395-1.058-0.395-2.155v-2.924
		c0-0.539,0.063-0.561,0.686-0.561h1.201c0.809,0,1.307,0.021,1.598,0.104c0.414,0.104,0.561,0.414,0.641,0.788l0.188,0.809
		c0.104,0.124,0.455,0.124,0.539-0.021c0-0.456-0.084-1.243-0.084-1.99c0-0.788,0.084-1.596,0.084-2.094
		c-0.084-0.146-0.436-0.146-0.539-0.021l-0.166,0.851c-0.102,0.519-0.248,0.644-0.498,0.726c-0.248,0.083-0.891,0.125-1.762,0.125
		h-1.201c-0.623,0-0.686,0-0.686-0.581v-4.146c0-0.788,0-0.83,0.621-0.83h1.494c0.912,0,1.576,0.021,2.01,0.125
		c1.08,0.27,1.266,0.995,1.576,1.971c0.104,0.123,0.438,0.082,0.518-0.042c-0.08-0.912-0.207-2.406-0.33-2.757
		c-0.248,0.062-1.473,0.062-2.799,0.062h-3.898c-0.85,0-1.555-0.021-2.445-0.062c-0.127,0.062-0.166,0.435-0.043,0.518l0.334,0.042
		c1.221,0.144,1.264,0.456,1.264,2.611V46.534z M258.592,37.307c0-0.684-0.018-0.705,0.604-0.705h1.473
		c1.137,0,1.926,0.167,2.402,0.52c0.313,0.228,0.457,0.994,0.52,1.513c0.102,0.125,0.455,0.125,0.539-0.041
		c-0.063-0.622,0.082-2.302,0.311-3.15c-0.043-0.084-0.27-0.104-0.373-0.063c-0.311,0.539-0.498,0.581-1.617,0.581h-8.396
		c-0.953,0-1.639,0.021-1.764-0.643c-0.061-0.063-0.33-0.042-0.393,0c-0.145,0.828-0.457,2.156-0.787,3.089
		c0.082,0.166,0.373,0.27,0.537,0.146c0.229-0.519,0.436-0.975,0.934-1.431c0.52-0.478,1.658-0.52,2.551-0.52h1.139
		c0.625,0,0.625,0.021,0.625,0.664v9.268c0,2.177-0.105,2.488-1.287,2.592l-0.744,0.062c-0.168,0.104-0.127,0.456,0,0.519
		c1.326-0.041,2.051-0.063,2.879-0.063c0.832,0,1.533,0.021,2.717,0.063c0.125-0.063,0.166-0.435,0.041-0.519l-0.664-0.062
		c-1.201-0.104-1.244-0.415-1.244-2.592V37.307z M270.408,46.534c0,2.177-0.102,2.488-1.283,2.592l-0.684,0.062
		c-0.127,0.125-0.084,0.456,0.041,0.519c1.221-0.041,1.926-0.063,2.82-0.063h1.865c1.846,0,3.689,0.021,5.557,0.063
		c0.27-0.56,0.787-2.156,0.932-2.881c-0.082-0.188-0.373-0.249-0.518-0.146c-0.539,1.078-1.098,1.803-1.473,2.01
		c-0.457,0.229-1.057,0.313-2.652,0.313c-1.824,0-2.262-0.229-2.508-0.478c-0.334-0.353-0.396-1.058-0.396-2.155v-2.924
		c0-0.539,0.063-0.561,0.684-0.561h1.203c0.811,0,1.309,0.021,1.596,0.104c0.418,0.104,0.561,0.414,0.643,0.788l0.189,0.809
		c0.102,0.124,0.455,0.124,0.537-0.021c0-0.456-0.082-1.243-0.082-1.99c0-0.788,0.082-1.596,0.082-2.094
		c-0.082-0.146-0.436-0.146-0.537-0.021l-0.168,0.851c-0.104,0.519-0.246,0.644-0.498,0.726c-0.246,0.083-0.891,0.125-1.762,0.125
		h-1.203c-0.621,0-0.684,0-0.684-0.581v-4.146c0-0.788,0-0.83,0.621-0.83h1.494c0.912,0,1.574,0.021,2.01,0.125
		c1.08,0.27,1.266,0.995,1.578,1.971c0.102,0.123,0.436,0.082,0.516-0.042c-0.08-0.912-0.207-2.406-0.33-2.757
		c-0.248,0.062-1.473,0.062-2.799,0.062h-3.896c-0.852,0-1.557-0.021-2.447-0.062c-0.125,0.062-0.166,0.435-0.043,0.518l0.332,0.042
		c1.225,0.144,1.264,0.456,1.264,2.611V46.534z M290.604,37.307c0-0.684-0.021-0.705,0.602-0.705h1.473
		c1.139,0,1.926,0.167,2.402,0.52c0.313,0.228,0.457,0.994,0.52,1.513c0.104,0.125,0.455,0.125,0.539-0.041
		c-0.063-0.622,0.082-2.302,0.313-3.15c-0.043-0.084-0.27-0.104-0.375-0.063c-0.313,0.539-0.498,0.581-1.617,0.581h-8.396
		c-0.953,0-1.639,0.021-1.762-0.643c-0.063-0.063-0.332-0.042-0.395,0c-0.145,0.828-0.457,2.156-0.787,3.089
		c0.084,0.166,0.373,0.27,0.537,0.146c0.23-0.519,0.438-0.975,0.936-1.431c0.518-0.478,1.656-0.52,2.551-0.52h1.139
		c0.621,0,0.621,0.021,0.621,0.664v9.268c0,2.177-0.104,2.488-1.283,2.592l-0.748,0.062c-0.166,0.104-0.125,0.456,0,0.519
		c1.326-0.041,2.053-0.063,2.881-0.063c0.83,0,1.535,0.021,2.715,0.063c0.127-0.063,0.168-0.435,0.043-0.519l-0.664-0.062
		c-1.199-0.104-1.242-0.415-1.242-2.592V37.307z M310.713,46.492c0,2.197-0.043,2.488-1.264,2.634l-0.52,0.062
		c-0.125,0.125-0.082,0.456,0.043,0.519c1.035-0.041,1.74-0.063,2.609-0.063c0.832,0,1.537,0.021,2.572,0.063
		c0.125-0.063,0.164-0.435,0.041-0.519l-0.518-0.062c-1.223-0.146-1.264-0.437-1.264-2.634v-7.38c0-2.197,0.041-2.55,1.264-2.653
		l0.518-0.042c0.123-0.083,0.084-0.456-0.041-0.518c-1.035,0.04-1.74,0.062-2.572,0.062c-0.869,0-1.574-0.021-2.609-0.062
		c-0.125,0.062-0.168,0.435-0.043,0.518l0.52,0.042c1.221,0.104,1.264,0.456,1.264,2.653V46.492z M329.123,46.534
		c0,2.177-0.041,2.404-1.141,2.592l-0.373,0.062c-0.125,0.125-0.082,0.456,0.041,0.519c0.768-0.021,1.473-0.063,2.385-0.063
		c0.871,0,1.887,0.063,2.486,0.063c3.732,0,5.518-1.616,5.518-4.022c0-2.217-1.66-3.255-2.781-3.462
		c-0.227-0.042-0.393-0.104-0.393-0.311c1.244-0.581,2.115-1.349,2.115-2.841c0-1.326-0.684-2.155-1.576-2.591
		c-0.932-0.477-2.178-0.58-3.482-0.58c-1.928,0-3.338,0.062-4.457,0.165c-0.166,0.082-0.188,0.395-0.021,0.519l0.664,0.062
		c0.932,0.083,1.016,0.478,1.016,2.012V46.534z M330.824,43.154c0-0.414,0.082-0.538,1.201-0.538c3.297,0,4.127,1.906,4.127,3.545
		c0,2.072-1.41,2.902-3.256,2.902c-0.623,0-1.244-0.104-1.637-0.581c-0.396-0.456-0.436-1.513-0.436-2.259V43.154z M330.824,37.204
		c0-0.372,0.082-0.477,0.289-0.538c0.186-0.083,0.498-0.125,0.953-0.125c1.578,0,3.09,0.767,3.09,2.799
		c0,1.949-1.141,2.571-3.256,2.654c-1.059,0.041-1.076,0-1.076-0.581V37.204z M344.777,46.534c0,2.177-0.105,2.488-1.287,2.592
		l-0.684,0.062c-0.127,0.125-0.084,0.456,0.041,0.519c1.225-0.041,1.93-0.063,2.82-0.063h1.865c1.846,0,3.689,0.021,5.557,0.063
		c0.27-0.56,0.787-2.156,0.934-2.881c-0.084-0.188-0.375-0.249-0.52-0.146c-0.539,1.078-1.098,1.803-1.473,2.01
		c-0.457,0.229-1.057,0.313-2.652,0.313c-1.824,0-2.262-0.229-2.508-0.478c-0.334-0.353-0.396-1.058-0.396-2.155v-2.924
		c0-0.539,0.063-0.561,0.684-0.561h1.203c0.811,0,1.309,0.021,1.598,0.104c0.414,0.104,0.561,0.414,0.641,0.788l0.189,0.809
		c0.102,0.124,0.455,0.124,0.537-0.021c0-0.456-0.082-1.243-0.082-1.99c0-0.788,0.082-1.596,0.082-2.094
		c-0.082-0.146-0.436-0.146-0.537-0.021l-0.168,0.851c-0.102,0.519-0.248,0.644-0.498,0.726c-0.246,0.083-0.891,0.125-1.762,0.125
		h-1.203c-0.621,0-0.684,0-0.684-0.581v-4.146c0-0.788,0-0.83,0.621-0.83h1.494c0.912,0,1.576,0.021,2.01,0.125
		c1.08,0.27,1.266,0.995,1.578,1.971c0.102,0.123,0.436,0.082,0.516-0.042c-0.08-0.912-0.207-2.406-0.33-2.757
		c-0.248,0.062-1.473,0.062-2.799,0.062h-3.896c-0.852,0-1.557-0.021-2.447-0.062c-0.125,0.062-0.166,0.435-0.043,0.518l0.334,0.042
		c1.223,0.144,1.266,0.456,1.266,2.611V46.534z M359.992,46.534c0,2.177-0.041,2.446-1.244,2.592l-0.52,0.062
		c-0.123,0.146-0.08,0.456,0.043,0.519c0.975-0.041,1.721-0.063,2.592-0.063c0.83,0,1.535,0.021,2.469,0.063
		c0.123-0.063,0.164-0.415,0.039-0.519l-0.436-0.062c-1.203-0.166-1.242-0.415-1.242-2.592V43.92c0-0.435,0.039-0.454,0.973-0.454
		c0.83,0,1.164,0.207,1.473,0.663c0.643,0.933,1.494,2.362,2.031,3.13c1.473,2.094,2.531,2.612,4.293,2.612
		c0.393,0,0.725-0.041,0.912-0.104c0.104-0.083,0.084-0.249-0.021-0.29c-0.559-0.042-1.078-0.27-1.43-0.581
		c-1.41-1.182-2.51-2.84-4.168-5.515c-0.104-0.165-0.207-0.373-0.104-0.498c1.037-0.414,2.59-1.492,2.59-3.462
		c0-1.451-0.723-2.384-1.719-2.902c-0.953-0.518-2.178-0.621-3.463-0.621c-2.033,0-3.461,0.062-4.623,0.165
		c-0.166,0.082-0.166,0.415-0.02,0.519l0.662,0.083c0.85,0.104,0.912,0.456,0.912,2.425V46.534z M361.693,37.204
		c0-0.58,0.061-0.663,1.348-0.663c2.301,0,3.316,1.556,3.316,3.193c0,1.41-0.477,2.135-1.037,2.571
		c-0.6,0.456-1.389,0.538-2.135,0.538c-1.057,0-1.369-0.042-1.432-0.104c-0.061-0.082-0.061-0.312-0.061-0.684V37.204z
		 M386.51,46.369c0-1.058,0.02-1.639,0.891-1.743l0.332-0.04c0.145-0.125,0.125-0.436-0.02-0.52
		c-0.686,0.042-1.391,0.063-2.199,0.063c-1.225,0-2.363-0.021-2.965-0.063c-0.145,0.063-0.164,0.437,0,0.52l0.912,0.104
		c1.287,0.145,1.348,0.27,1.348,2.011v0.83c0,0.663-0.102,1.036-0.207,1.181c-0.229,0.353-0.996,0.622-2.279,0.622
		c-4.168,0-6.221-3.131-6.221-7.111c0-3.109,1.762-5.972,5.785-5.972c2.115,0,3.668,0.705,4.25,2.944
		c0.123,0.125,0.496,0.104,0.559-0.062c-0.186-1.244-0.309-2.321-0.309-3.006c-0.25,0.041-0.895-0.104-1.287-0.188
		c-0.352-0.082-1.451-0.311-2.635-0.311c-3.129,0-5.182,0.974-6.57,2.426c-1.285,1.368-1.865,3.151-1.865,4.914
		c0,1.824,0.662,3.462,1.906,4.705c1.598,1.617,3.857,2.303,6.322,2.303c1.119,0,2.613-0.249,3.711-0.54
		c0.396-0.104,0.77-0.187,1.018-0.187c0.084-0.063,0.084-0.187,0.021-0.248c-0.375-0.146-0.498-0.644-0.498-1.472V46.369z
		 M394.324,46.534c0,2.177-0.102,2.488-1.285,2.592l-0.684,0.062c-0.125,0.125-0.084,0.456,0.043,0.519
		c1.221-0.041,1.926-0.063,2.816-0.063h1.867c1.844,0,3.691,0.021,5.555,0.063c0.271-0.56,0.789-2.156,0.934-2.881
		c-0.082-0.188-0.373-0.249-0.518-0.146c-0.539,1.078-1.1,1.803-1.473,2.01c-0.455,0.229-1.055,0.313-2.654,0.313
		c-1.824,0-2.258-0.229-2.508-0.478c-0.33-0.353-0.393-1.058-0.393-2.155v-2.924c0-0.539,0.063-0.561,0.684-0.561h1.203
		c0.807,0,1.305,0.021,1.596,0.104c0.414,0.104,0.561,0.414,0.643,0.788l0.186,0.809c0.105,0.124,0.459,0.124,0.541-0.021
		c0-0.456-0.082-1.243-0.082-1.99c0-0.788,0.082-1.596,0.082-2.094c-0.082-0.146-0.436-0.146-0.541-0.021l-0.164,0.851
		c-0.104,0.519-0.25,0.644-0.498,0.726c-0.25,0.083-0.893,0.125-1.762,0.125h-1.203c-0.621,0-0.684,0-0.684-0.581v-4.146
		c0-0.788,0-0.83,0.621-0.83h1.494c0.912,0,1.574,0.021,2.01,0.125c1.08,0.27,1.266,0.995,1.574,1.971
		c0.105,0.123,0.438,0.082,0.52-0.042c-0.082-0.912-0.207-2.406-0.33-2.757c-0.25,0.062-1.473,0.062-2.799,0.062h-3.9
		c-0.85,0-1.553-0.021-2.445-0.062c-0.125,0.062-0.164,0.435-0.041,0.518l0.332,0.042c1.225,0.144,1.264,0.456,1.264,2.611V46.534z
		 M420.697,41.164c0-0.954-0.043-3.523,0.309-4.271c0.084-0.166,0.498-0.331,1.164-0.435l0.287-0.042
		c0.127-0.125,0.127-0.414-0.041-0.518c-0.705,0.04-1.242,0.062-2.133,0.062c-0.789,0-1.494-0.021-2.449-0.062
		c-0.164,0.062-0.186,0.393-0.041,0.518l0.354,0.042c0.828,0.104,1.16,0.228,1.285,0.414c0.395,0.622,0.416,3.317,0.416,4.291v4.438
		c0,0.435,0,0.768-0.084,0.871h-0.041c-0.977-0.996-1.99-2.157-3.422-3.753l-2.012-2.261c-0.684-0.767-3.129-3.504-3.543-4.56
		c-0.271,0.04-0.623,0.062-0.955,0.062c-0.373,0-1.473,0-2.342-0.062c-0.166,0.082-0.166,0.393-0.043,0.518l0.352,0.042
		c0.498,0.062,0.996,0.207,1.287,0.496c0.436,0.478,0.455,0.913,0.455,1.494v5.991c0,0.994,0.021,3.524-0.27,4.271
		c-0.102,0.228-0.436,0.353-0.912,0.415l-0.561,0.062c-0.123,0.125-0.102,0.415,0.043,0.519c0.725-0.041,1.285-0.063,2.156-0.063
		c0.768,0,1.494,0.021,2.426,0.063c0.145-0.104,0.166-0.353,0.041-0.519l-0.643-0.062c-0.52-0.042-0.934-0.166-1.057-0.395
		c-0.354-0.621-0.375-3.316-0.375-4.291v-4.52c0-0.623,0.021-1.1,0.105-1.348h0.041c0.436,0.456,1.846,2.156,2.404,2.798
		l4.811,5.474c1.803,2.053,2.404,2.779,2.652,3.132c0.229,0,0.354-0.104,0.396-0.229c-0.063-0.538-0.063-3.006-0.063-3.627V41.164z"
		/>
	<path d="M101.444,62.662c-0.974,3.143,0.205,4.816,3.311,4.816c1.077,0,2.339-0.395,3.228-1.178
		c1.059-0.922,1.622-2.391,1.999-3.568l0.785-2.512c0.342-1.107,0.683-2.201,0.837-2.594c0.34-0.871,0.478-1.111,1.348-1.264
		l0.393-0.068c0.136-0.086,0.136-0.324,0-0.41c-0.667,0.035-1.282,0.051-1.844,0.051c-0.564,0-0.991-0.016-1.827-0.051
		c-0.138,0.068-0.171,0.291-0.069,0.41l0.479,0.068c0.853,0.119,0.767,0.461,0.648,1.211c-0.068,0.428-0.324,1.539-0.682,2.646
		l-0.785,2.408c-0.684,2.117-1.845,4.234-4.218,4.234c-2.782,0-3.005-1.98-2.22-4.525l1.23-3.943
		c0.53-1.689,0.597-1.895,1.571-2.031l0.478-0.068c0.153-0.086,0.137-0.342,0.018-0.41c-0.837,0.035-1.367,0.051-2.101,0.051
		c-0.734,0-1.28-0.016-1.998-0.051c-0.153,0.068-0.17,0.307-0.068,0.41l0.426,0.068c0.922,0.152,0.889,0.428,0.393,2.031
		L101.444,62.662z M116.007,60.939c0.154-0.393-0.033-0.701-0.443-0.701c-0.855,0-1.896,0.701-2.545,1.588
		c-0.017,0.137,0.068,0.256,0.206,0.256c0.562-0.494,1.16-0.854,1.553-0.854c0.136,0,0.136,0.172,0.051,0.393
		c-0.086,0.24-1.895,5.156-1.98,5.379c-0.154,0.393,0.307,0.445,0.496,0.445c0.152,0,0.221-0.053,0.307-0.207
		c1.007-1.879,1.707-3.209,2.612-4.336c0.939-1.178,1.947-2.031,2.357-2.031c0.255,0,0.272,0.205,0.272,0.408
		c0,0.342-0.223,0.941-0.358,1.248c-0.393,0.854-1.024,2.525-1.384,3.363c-0.357,0.854-0.41,0.973-0.41,1.127
		c0,0.205,0.257,0.428,0.41,0.428c0.939,0,2.289-0.822,2.937-1.914c0-0.137-0.034-0.273-0.273-0.238
		c-0.496,0.598-1.315,1.16-1.604,1.16c-0.121,0-0.103-0.152-0.036-0.324c0.053-0.137,1.282-2.92,1.589-3.773
		c0.136-0.393,0.274-0.922,0.274-1.195c0-0.563-0.291-0.922-0.958-0.922c-1.279,0-2.97,1.879-4.183,3.723l-0.051-0.035
		L116.007,60.939z M122.341,66.828c-0.084,0.189-0.033,0.342,0.069,0.461c0.085,0.104,0.188,0.156,0.274,0.156
		c1.176,0,2.936-1.539,3.191-2.033c0-0.154-0.085-0.273-0.256-0.289c-0.58,0.664-1.485,1.262-1.776,1.262
		c-0.136,0-0.119-0.203-0.051-0.375l2.032-4.85c0.205-0.494,0.205-0.648,0.102-0.75c-0.068-0.068-0.153-0.172-0.272-0.172
		c-0.564,0-1.878,0.633-2.818,1.707c-0.033,0.137,0.069,0.275,0.222,0.291c0.855-0.699,1.298-0.904,1.417-0.904
		c0.12,0,0.12,0.137,0.035,0.324L122.341,66.828z M125.961,56.721c-0.667,0-0.905,0.701-0.905,1.076
		c0,0.291,0.154,0.633,0.598,0.633c0.512,0,0.887-0.529,0.887-1.059C126.542,56.994,126.354,56.721,125.961,56.721z M129.103,64.781
		c-0.257,0.664-0.427,1.262-0.427,1.639c0,0.512,0.342,1.025,0.785,1.025c0.411,0,1.367-0.172,2.664-1.248
		c1.468-1.229,2.749-3.654,2.749-4.898c0-0.428-0.119-1.061-0.666-1.061c-0.324,0-0.598,0.258-0.631,0.615
		c0.119,0.393,0.153,0.803,0.153,1.213c0,0.801-0.477,2.135-1.467,3.26c-0.77,0.871-1.469,1.264-1.862,1.264
		c-0.358,0-0.494-0.324-0.494-0.613c0-0.223,0.084-0.564,0.17-0.803l1.468-3.809c0.238-0.631-0.137-1.127-0.53-1.127
		c-1.006,0-2.151,1.127-2.698,1.896c-0.017,0.137,0.103,0.289,0.256,0.289c0.53-0.58,1.264-1.195,1.587-1.195
		c0.223,0,0.239,0.172,0.12,0.496L129.103,64.781z M140.867,60.238c-0.496,0-1.162,0.137-2.048,0.82
		c-1.862,1.434-2.546,3.518-2.546,4.592c0,0.838,0.36,1.795,1.384,1.795c0.716,0,1.69-0.275,2.731-1.555
		c0.033-0.154-0.069-0.291-0.222-0.291c-0.753,0.648-1.179,0.99-1.793,0.99c-0.46,0-0.819-0.393-0.819-0.973
		c0-0.684,0.119-1.23,0.238-1.52c2.46-0.684,4.148-1.537,4.148-2.834C141.941,60.818,141.548,60.238,140.867,60.238z
		 M140.524,60.768c0.307,0,0.393,0.223,0.393,0.393c0,0.154-0.136,0.666-0.664,1.162c-0.634,0.596-1.163,0.922-2.289,1.264
		c0.204-0.496,0.597-1.281,1.264-1.998C139.842,60.922,140.286,60.768,140.524,60.768z M145.733,60.238
		c-0.822,0-1.47,0.719-2.015,1.641c-0.017,0.203,0.103,0.307,0.271,0.271c0.308-0.41,0.77-0.887,1.212-0.887
		c0.155,0,0.188,0.17,0.138,0.357c-0.462,1.674-1.536,4.695-1.76,5.379c-0.119,0.375,0.376,0.445,0.564,0.445
		c0.136,0,0.222-0.07,0.291-0.207c0.905-1.963,1.86-4.045,2.901-5.377c0.257-0.342,0.445-0.512,0.598-0.512
		c0.172,0,0.274,0.221,0.36,0.666c0.067,0.357,0.341,0.34,0.545,0.084c0.205-0.273,0.36-0.768,0.36-1.023
		c0-0.258-0.086-0.838-0.684-0.838c-0.427,0-0.855,0.377-1.246,0.889c-0.445,0.563-1.281,1.93-1.793,2.885h-0.085l0.733-2.15
		C146.278,61.4,146.585,60.238,145.733,60.238z M153.243,60.238c-0.222,0-0.767,0.137-1.263,0.564
		c-0.733,0.631-1.024,1.127-1.024,1.793c0,0.289,0.152,0.869,0.598,1.586c0.426,0.684,0.631,1.213,0.631,1.504
		c0,0.547-0.41,0.973-0.819,0.973c-0.443,0-0.958-0.426-1.179-0.682c-0.136-0.121-0.324-0.121-0.459,0
		c-0.188,0.205-0.257,0.391-0.257,0.563c0,0.393,0.393,0.906,1.041,0.906c0.65,0,1.281-0.223,1.724-0.617
		c0.634-0.545,0.872-1.178,0.889-1.639c0.036-0.75-0.222-1.178-0.648-1.895c-0.496-0.838-0.581-1.195-0.581-1.555
		c0-0.256,0.205-0.682,0.7-0.682c0.529,0,0.75,0.256,1.041,0.547c0.102,0.135,0.205,0.17,0.324,0.135
		c0.138-0.066,0.307-0.256,0.307-0.527C154.267,60.785,153.876,60.238,153.243,60.238z M155.839,66.828
		c-0.086,0.189-0.033,0.342,0.069,0.461c0.083,0.104,0.186,0.156,0.271,0.156c1.179,0,2.937-1.539,3.194-2.033
		c0-0.154-0.086-0.273-0.257-0.289c-0.581,0.664-1.486,1.262-1.774,1.262c-0.138,0-0.122-0.203-0.052-0.375l2.032-4.85
		c0.205-0.494,0.205-0.648,0.102-0.75c-0.069-0.068-0.152-0.172-0.274-0.172c-0.562,0-1.876,0.633-2.815,1.707
		c-0.036,0.137,0.066,0.275,0.221,0.291c0.853-0.699,1.298-0.904,1.417-0.904s0.119,0.137,0.033,0.324L155.839,66.828z
		 M159.458,56.721c-0.665,0-0.903,0.701-0.903,1.076c0,0.291,0.152,0.633,0.595,0.633c0.512,0,0.889-0.529,0.889-1.059
		C160.039,56.994,159.851,56.721,159.458,56.721z M166.527,61.299c0.222-0.121,0.324-0.463,0.205-0.633h-1.86l0.495-1.674
		c-0.138-0.17-0.479-0.205-0.65-0.102l-0.955,1.689l-1.368,0.238c-0.169,0.068-0.221,0.309-0.186,0.48h1.332l-1.605,4.711
		c-0.171,0.512-0.241,0.752-0.241,0.973c0,0.205,0.224,0.463,0.462,0.463c0.717,0,2.322-1.043,3.277-2.461
		c0.036-0.203-0.067-0.307-0.238-0.307c-0.564,0.648-1.691,1.537-1.946,1.537c-0.138,0-0.222-0.104-0.119-0.428l1.536-4.488H166.527
		z M172.041,60.238c-0.496,0-1.16,0.137-2.048,0.82c-1.86,1.434-2.544,3.518-2.544,4.592c0,0.838,0.359,1.795,1.384,1.795
		c0.717,0,1.689-0.275,2.732-1.555c0.034-0.154-0.069-0.291-0.224-0.291c-0.75,0.648-1.177,0.99-1.792,0.99
		c-0.462,0-0.819-0.393-0.819-0.973c0-0.684,0.119-1.23,0.238-1.52c2.458-0.684,4.149-1.537,4.149-2.834
		C173.118,60.818,172.725,60.238,172.041,60.238z M171.7,60.768c0.308,0,0.393,0.223,0.393,0.393c0,0.154-0.138,0.666-0.667,1.162
		c-0.631,0.596-1.16,0.922-2.287,1.264c0.205-0.496,0.598-1.281,1.263-1.998C171.017,60.922,171.462,60.768,171.7,60.768z
		 M179.435,61.299c0.221-0.121,0.324-0.463,0.205-0.633h-1.86l0.496-1.674c-0.138-0.17-0.479-0.205-0.65-0.102l-0.955,1.689
		l-1.367,0.238c-0.169,0.068-0.222,0.309-0.188,0.48h1.333l-1.605,4.711c-0.172,0.512-0.241,0.752-0.241,0.973
		c0,0.205,0.224,0.463,0.462,0.463c0.717,0,2.322-1.043,3.278-2.461c0.036-0.203-0.067-0.307-0.238-0.307
		c-0.564,0.648-1.691,1.537-1.946,1.537c-0.138,0-0.221-0.104-0.119-0.428l1.537-4.488H179.435z M183.445,60.238
		c-0.221,0-0.767,0.137-1.262,0.564c-0.734,0.631-1.024,1.127-1.024,1.793c0,0.289,0.153,0.869,0.598,1.586
		c0.426,0.684,0.631,1.213,0.631,1.504c0,0.547-0.41,0.973-0.819,0.973c-0.443,0-0.955-0.426-1.179-0.682
		c-0.136-0.121-0.324-0.121-0.46,0c-0.188,0.205-0.257,0.391-0.257,0.563c0,0.393,0.393,0.906,1.043,0.906
		c0.648,0,1.279-0.223,1.722-0.617c0.633-0.545,0.872-1.178,0.888-1.639c0.036-0.75-0.221-1.178-0.647-1.895
		c-0.496-0.838-0.582-1.195-0.582-1.555c0-0.256,0.205-0.682,0.7-0.682c0.529,0,0.75,0.256,1.041,0.547
		c0.103,0.135,0.205,0.17,0.324,0.135c0.138-0.066,0.307-0.256,0.307-0.527C184.47,60.785,184.079,60.238,183.445,60.238z
		 M190.258,57.371c0.257-0.666,0.512-1.316,0.872-2.271l-0.069-0.102c-0.783-0.018-1.724,0.205-2.048,0.324
		c-0.069,0.068-0.086,0.17-0.05,0.238l0.391,0.273c0.241,0.17,0.188,0.461-0.169,1.418l-1.982,5.258
		c-0.496,1.332-0.869,2.561-0.869,3.363c0,0.973,0.443,1.572,1.365,1.572c0.598,0,1.862-0.309,3.26-1.658
		c1.385-1.348,2.204-2.834,2.204-4.012c0-0.871-0.463-1.537-1.47-1.537c-1.279,0-2.423,1.162-3.618,2.971h-0.034L190.258,57.371z
		 M191.437,60.818c0.307,0,0.598,0.154,0.598,0.615c0,0.973-1.265,3.143-2.322,4.338c-0.734,0.818-1.384,1.143-1.639,1.143
		c-0.291,0-0.598-0.221-0.598-0.887c0-0.787,0.529-2.186,1.605-3.416C190.139,61.4,190.975,60.818,191.437,60.818z M195.074,66.828
		c-0.086,0.189-0.035,0.342,0.066,0.461c0.086,0.104,0.188,0.156,0.274,0.156c1.179,0,2.937-1.539,3.191-2.033
		c0-0.154-0.083-0.273-0.255-0.289c-0.581,0.664-1.486,1.262-1.776,1.262c-0.136,0-0.119-0.203-0.05-0.375l2.031-4.85
		c0.205-0.494,0.205-0.648,0.103-0.75c-0.069-0.068-0.155-0.172-0.274-0.172c-0.562,0-1.877,0.633-2.815,1.707
		c-0.035,0.137,0.067,0.275,0.222,0.291c0.853-0.699,1.299-0.904,1.418-0.904s0.119,0.137,0.033,0.324L195.074,66.828z
		 M198.692,56.721c-0.664,0-0.905,0.701-0.905,1.076c0,0.291,0.155,0.633,0.598,0.633c0.513,0,0.889-0.529,0.889-1.059
		C199.273,56.994,199.085,56.721,198.692,56.721z M205.111,57.371c0.258-0.666,0.515-1.316,0.872-2.271l-0.069-0.102
		c-0.783-0.018-1.725,0.205-2.048,0.324c-0.067,0.068-0.086,0.17-0.05,0.238l0.393,0.273c0.238,0.17,0.186,0.461-0.172,1.418
		l-1.981,5.258c-0.493,1.332-0.869,2.561-0.869,3.363c0,0.973,0.442,1.572,1.364,1.572c0.599,0,1.863-0.309,3.261-1.658
		c1.385-1.348,2.204-2.834,2.204-4.012c0-0.871-0.463-1.537-1.468-1.537c-1.281,0-2.425,1.162-3.62,2.971h-0.033L205.111,57.371z
		 M206.291,60.818c0.307,0,0.598,0.154,0.598,0.615c0,0.973-1.263,3.143-2.322,4.338c-0.733,0.818-1.384,1.143-1.639,1.143
		c-0.291,0-0.598-0.221-0.598-0.887c0-0.787,0.528-2.186,1.604-3.416C204.992,61.4,205.831,60.818,206.291,60.818z M213.836,58.035
		c0.615-1.844,0.787-2.32,1.008-2.936l-0.086-0.102c-0.783,0.068-1.844,0.393-2.15,0.512c-0.086,0.051-0.086,0.205,0,0.273
		l0.307,0.137c0.258,0.119,0.426,0.289,0.018,1.484l-2.713,8.076c-0.291,0.871-0.377,1.178-0.377,1.451s0.152,0.514,0.665,0.514
		c1.417,0,2.494-1.418,2.937-2.271c0-0.172-0.104-0.256-0.271-0.24c-0.787,0.889-1.589,1.725-1.965,1.725
		c-0.186,0-0.205-0.17-0.066-0.563L213.836,58.035z M215.203,66.828c-0.086,0.189-0.035,0.342,0.066,0.461
		c0.086,0.104,0.189,0.156,0.273,0.156c1.18,0,2.938-1.539,3.193-2.033c0-0.154-0.084-0.273-0.256-0.289
		c-0.58,0.664-1.486,1.262-1.777,1.262c-0.135,0-0.119-0.203-0.049-0.375l2.031-4.85c0.205-0.494,0.205-0.648,0.102-0.75
		c-0.068-0.068-0.154-0.172-0.273-0.172c-0.563,0-1.877,0.633-2.816,1.707c-0.035,0.137,0.068,0.275,0.223,0.291
		c0.854-0.699,1.297-0.904,1.418-0.904c0.119,0,0.119,0.137,0.033,0.324L215.203,66.828z M218.822,56.721
		c-0.666,0-0.906,0.701-0.906,1.076c0,0.291,0.154,0.633,0.598,0.633c0.512,0,0.889-0.529,0.889-1.059
		C219.402,56.994,219.215,56.721,218.822,56.721z M225.156,60.238c-0.699,0-1.469,0.258-2.357,1.111
		c-1.16,1.107-1.791,2.766-1.859,3.824c-0.104,1.469,0.613,2.271,1.707,2.271c0.459,0,1.381-0.086,2.441-1.18
		c1.262-1.297,1.758-2.938,1.811-3.875C226.965,61.145,226.367,60.238,225.156,60.238z M225.035,60.752
		c0.598,0,0.701,0.598,0.684,1.127c-0.033,0.904-0.836,3.158-1.588,4.164c-0.545,0.734-0.973,0.889-1.348,0.889
		c-0.496,0-0.734-0.494-0.701-1.092c0.053-0.906,0.717-2.938,1.707-4.27C224.285,60.904,224.695,60.752,225.035,60.752z
		 M233.896,61.299c0.225-0.121,0.326-0.463,0.205-0.633h-1.859l0.494-1.674c-0.135-0.17-0.479-0.205-0.646-0.102l-0.959,1.689
		l-1.363,0.238c-0.174,0.068-0.223,0.309-0.189,0.48h1.332l-1.605,4.711c-0.17,0.512-0.238,0.752-0.238,0.973
		c0,0.205,0.221,0.463,0.459,0.463c0.721,0,2.322-1.043,3.281-2.461c0.033-0.203-0.07-0.307-0.24-0.307
		c-0.563,0.648-1.689,1.537-1.947,1.537c-0.135,0-0.221-0.104-0.119-0.428l1.537-4.488H233.896z M239.414,60.238
		c-0.496,0-1.162,0.137-2.049,0.82c-1.863,1.434-2.545,3.518-2.545,4.592c0,0.838,0.357,1.795,1.383,1.795
		c0.717,0,1.691-0.275,2.732-1.555c0.033-0.154-0.07-0.291-0.223-0.291c-0.752,0.648-1.18,0.99-1.793,0.99
		c-0.461,0-0.82-0.393-0.82-0.973c0-0.684,0.119-1.23,0.238-1.52c2.461-0.684,4.15-1.537,4.15-2.834
		C240.488,60.818,240.094,60.238,239.414,60.238z M239.07,60.768c0.307,0,0.393,0.223,0.393,0.393c0,0.154-0.135,0.666-0.664,1.162
		c-0.633,0.596-1.162,0.922-2.289,1.264c0.205-0.496,0.598-1.281,1.266-1.998C238.389,60.922,238.832,60.768,239.07,60.768z
		 M241.736,67c-0.139,0.393,0.357,0.445,0.545,0.445c0.152,0,0.221-0.07,0.291-0.223l0.885-2.17
		c0.209-0.512,0.291-0.596,0.635-0.682c0.307-0.068,0.494,0.119,0.631,0.563c0.152,0.461,0.582,1.451,0.785,1.828
		c0.271,0.477,0.477,0.684,0.785,0.684c0.273,0,1.127-0.342,1.725-1.623c0-0.137-0.068-0.205-0.223-0.205
		c-0.479,0.58-0.803,0.803-1.023,0.803c-0.172,0-0.342-0.188-0.545-0.564c-0.189-0.357-0.496-1.109-0.635-1.604
		c-0.033-0.104-0.066-0.256,0.053-0.326c1.094-0.186,1.93-0.768,2.732-1.502c0.631-0.58,0.699-1.041,0.699-1.246
		c0-0.359-0.24-0.939-1.229-0.939c-0.736,0-1.367,0.309-1.844,0.648c-0.684,0.514-1.248,1.094-1.744,1.76h-0.033l1.758-5.053
		c0.514-1.453,0.701-2.033,0.84-2.512l-0.104-0.084c-0.736,0.135-1.572,0.375-2.084,0.615c-0.086,0.084-0.068,0.186,0.033,0.256
		l0.307,0.152c0.291,0.137,0.275,0.359-0.117,1.553L241.736,67z M247.762,61.418c0,0.357-0.377,0.955-1.094,1.434
		c-1.195,0.785-2.15,1.074-2.51,1.109c-0.221,0.035-0.238-0.086-0.17-0.256c0.223-0.496,0.939-1.332,1.57-1.861
		c0.582-0.494,1.213-0.871,1.656-0.871C247.607,60.973,247.762,61.213,247.762,61.418z M255.119,60.238
		c-0.494,0-1.16,0.137-2.049,0.82c-1.859,1.434-2.543,3.518-2.543,4.592c0,0.838,0.359,1.795,1.385,1.795
		c0.717,0,1.688-0.275,2.73-1.555c0.033-0.154-0.068-0.291-0.223-0.291c-0.75,0.648-1.178,0.99-1.791,0.99
		c-0.463,0-0.82-0.393-0.82-0.973c0-0.684,0.119-1.23,0.238-1.52c2.459-0.684,4.148-1.537,4.148-2.834
		C256.195,60.818,255.803,60.238,255.119,60.238z M254.779,60.768c0.307,0,0.393,0.223,0.393,0.393c0,0.154-0.139,0.666-0.666,1.162
		c-0.633,0.596-1.16,0.922-2.287,1.264c0.205-0.496,0.598-1.281,1.262-1.998C254.096,60.922,254.541,60.768,254.779,60.768z
		 M262.514,61.299c0.221-0.121,0.324-0.463,0.205-0.633h-1.861l0.494-1.674c-0.137-0.17-0.477-0.205-0.648-0.102l-0.955,1.689
		l-1.367,0.238c-0.17,0.068-0.223,0.309-0.189,0.48h1.334l-1.605,4.711c-0.17,0.512-0.24,0.752-0.24,0.973
		c0,0.205,0.225,0.463,0.463,0.463c0.717,0,2.322-1.043,3.277-2.461c0.033-0.203-0.068-0.307-0.238-0.307
		c-0.564,0.648-1.691,1.537-1.945,1.537c-0.139,0-0.225-0.104-0.123-0.428l1.539-4.488H262.514z"/>
</g>
</svg>
