<?xml version="1.0" encoding="UTF-8" standalone="no"?>
<svg version="1.1" id="svg1" width="689.90668" height="373.73334" viewBox="0 0 689.90668 373.73334" sodipodi:docname="UM_PositivMidtstilt_NOR.eps" xmlns:inkscape="http://www.inkscape.org/namespaces/inkscape" xmlns:sodipodi="http://sodipodi.sourceforge.net/DTD/sodipodi-0.dtd" xmlns="http://www.w3.org/2000/svg" xmlns:svg="http://www.w3.org/2000/svg">
	<defs id="defs1" />
	<namedview id="namedview1" pagecolor="#ffffff" bordercolor="#000000" borderopacity="0.25" inkscape:showpageshadow="2" inkscape:pageopacity="0.0" inkscape:pagecheckerboard="0" inkscape:deskcolor="#d1d1d1">
		<page x="0" y="0" inkscape:label="1" id="page1" width="689.90668" height="373.73334" margin="0" bleed="0" />
	</namedview>
	<g id="g1" inkscape:groupmode="layer" inkscape:label="1">
		<g id="group-R5">
			<path id="path2" d="m 3472.97,619.012 -0.4,-0.024 c -10.83,-0.648 -19.45,-1 -33.92,-1 -11.71,0 -22.6,0.282 -38.88,1 l -0.26,0.012 -0.24,-0.09 c -1.49,-0.558 -2.54,-2.031 -2.9,-4.031 -0.36,-2.051 0.08,-4.809 1.86,-6.34 l 0.29,-0.25 5.98,-0.711 c 11.88,-1.476 17.74,-3.289 19.56,-6.027 4.13,-6.52 6.41,-30.551 6.41,-67.653 V 463.27 c 0,-5.122 0,-10 -0.63,-12.168 -12.18,12.488 -24.87,26.699 -40.84,44.589 -4.04,4.508 -8.29,9.27 -12.78,14.289 l -32.02,35.969 -0.39,0.442 c -32.76,36.738 -51.54,60.898 -55.82,71.8 l -0.36,0.93 -1,-0.152 c -4,-0.617 -9.46,-0.981 -14.98,-0.981 -5.78,0 -23.39,0 -37.21,0.992 l -0.34,0.032 -0.3,-0.16 c -1.42,-0.704 -2.36,-2.141 -2.67,-4.051 -0.38,-2.332 0.3,-4.821 1.68,-6.199 l 0.31,-0.313 6.02,-0.711 c 9.1,-1.129 15.93,-3.75 19.71,-7.519 6.45,-7.071 6.92,-13.379 6.92,-22.918 v -98.403 c 0.02,-17.379 0.06,-53.547 -4.18,-64.457 -1.31,-2.902 -5.87,-4.871 -13.51,-5.883 l -9.36,-1.039 -0.31,-0.3 c -1.2,-1.207 -1.81,-3.188 -1.63,-5.297 0.17,-2.102 1.07,-3.871 2.46,-4.852 l 0.35,-0.262 0.44,0.024 c 11.25,0.648 20.04,0.988 34.26,0.988 11.54,0 22.71,-0.289 38.55,-0.988 l 0.43,-0.024 0.35,0.262 c 1.28,0.899 2.13,2.371 2.41,4.121 0.32,2.078 -0.22,4.231 -1.47,5.899 l -0.32,0.429 -10.81,1.051 c -8.48,0.68 -14.26,2.731 -15.85,5.641 -3.72,6.578 -5.77,30.617 -5.77,67.699 v 71.949 c 0,7.18 0.14,14.942 1.17,19.52 4.86,-5.289 14.77,-16.989 23.58,-27.41 5.4,-6.391 10.42,-12.321 13.66,-16.028 l 76.57,-87.14 c 25.48,-28.993 37.69,-43.403 42.16,-49.731 l 0.38,-0.531 h 0.64 c 3.74,0 6.54,1.68 7.46,4.492 l 0.08,0.258 -0.03,0.269 c -0.45,3.891 -0.97,17.043 -0.97,57.622 v 78.878 l -0.01,4.442 c -0.06,17.012 -0.18,52.41 4.83,62.988 0.87,1.762 6,4.453 17.53,6.262 l 5.03,0.719 0.29,0.293 c 1.32,1.308 1.98,3.488 1.74,5.679 -0.23,1.969 -1.17,3.617 -2.61,4.52 z M 3167.82,447.859 c -2.06,0.582 -4.21,0.309 -5.65,-0.73 l -0.4,-0.457 c -7.87,-15.774 -16.87,-28.121 -22.86,-31.461 -7.31,-3.652 -17.44,-4.82 -41.69,-4.82 -29.37,0 -35.56,3.73 -39.03,7.199 -4.97,5.281 -5.93,16.269 -5.93,33.469 v 46.543 c 0,7.589 0.09,7.66 9.65,7.66 h 19.14 c 12.01,0 20.39,-0.274 25.1,-1.614 6.27,-1.57 8.19,-6.5 9.32,-11.617 l 2.97,-12.871 0.26,-0.519 c 1.36,-1.641 4.1,-2.039 6.05,-1.86 2.16,0.188 3.83,1.059 4.58,2.367 l 0.16,0.293 v 0.329 c 0,3.23 -0.25,7.378 -0.53,12.191 -0.37,6.027 -0.78,12.867 -0.78,19.5 0,6.949 0.41,14.027 0.77,20.277 0.29,5.114 0.54,9.512 0.54,13.051 v 0.332 l -0.16,0.289 c -0.75,1.32 -2.42,2.18 -4.58,2.371 -1.95,0.18 -4.69,-0.211 -6.05,-1.863 l -2.91,-14.078 c -1.64,-8.231 -3.86,-9.539 -7.08,-10.61 -3.72,-1.242 -13.54,-1.921 -27.66,-1.921 h -19.14 c -9.65,0 -9.65,0 -9.65,7.992 v 66.008 c 0,11.953 0,11.953 8.65,11.953 h 23.77 c 14.54,0 24.92,-0.332 31.71,-1.942 15.77,-3.941 19.05,-14.289 23.58,-28.621 l 0.61,-1.91 0.23,-0.418 c 0.96,-1.152 2.82,-1.723 4.9,-1.633 1.8,0.102 4.28,0.793 5.36,2.41 l 0.24,0.364 -0.43,4.687 c -1.31,14.653 -3.11,34.711 -4.95,39.949 l -0.38,1.082 -1.11,-0.281 c -3.81,-0.961 -23.45,-0.961 -44.25,-0.961 h -62.05 c -12.76,0 -23.66,0.282 -38.89,1 l -0.32,0.012 -0.3,-0.148 c -1.67,-0.832 -2.4,-3.301 -2.52,-5.332 -0.07,-1.129 -0.04,-3.891 1.73,-5.079 l 5.82,-0.863 c 18.42,-2.187 19.04,-6.027 19.04,-40.34 v -118.82 c 0,-34.727 -1.81,-38.469 -19.33,-40.008 l -11.35,-1.031 -0.32,-0.32 c -1.53,-1.547 -1.75,-4.18 -1.43,-6.129 0.34,-2.02 1.22,-3.52 2.43,-4.129 l 0.28,-0.141 0.31,0.012 c 19.9,0.68 30.8,0.988 44.85,0.988 h 29.7 c 29.05,0 58.8,-0.332 88.43,-0.988 l 0.81,-0.024 0.34,0.731 c 4.4,9.133 12.64,34.59 14.95,46.18 l 0.07,0.39 -0.15,0.36 c -0.76,1.691 -2.38,2.992 -4.47,3.55 z m -246.39,41.11 -0.38,-0.02 c -11.16,-0.679 -22.25,-0.988 -34.92,-0.988 -20.51,0 -38.12,0.367 -47.11,0.98 l -0.3,0.028 -0.28,-0.129 c -1.84,-0.789 -2.55,-3.141 -2.61,-5.07 -0.05,-1.989 0.59,-4.461 2.55,-5.442 l 14.94,-1.777 c 19.58,-2.211 20.34,-3.36 20.34,-30.77 v -13.203 c 0,-10.168 -1.58,-16.008 -3.09,-18.129 -2.93,-4.519 -13.72,-9.34 -35.27,-9.34 -60.3,0 -97.76,42.903 -97.76,111.961 0,69.239 48.94,93.809 90.84,93.809 37.73,0 58.21,-14.168 66.45,-45.938 l 0.08,-0.332 0.25,-0.238 c 1.65,-1.66 4.81,-1.902 7,-1.422 2.03,0.442 3.44,1.461 3.96,2.86 l 0.12,0.3 -0.05,0.321 c -3.28,21.781 -4.94,37.82 -4.94,47.672 v 1.476 l -1.45,-0.238 c -3.39,-0.602 -12.41,1.34 -18.35,2.609 l -1.63,0.34 c -3.53,0.832 -22.13,4.981 -42.2,4.981 -45.89,0 -80.4,-12.758 -105.54,-39.008 -19.37,-20.621 -30.04,-48.703 -30.04,-79.071 0,-29.492 10.63,-55.711 30.73,-75.8 23.89,-24.211 59.01,-37.012 101.55,-37.012 19.73,0 44.33,4.652 59.4,8.621 4.77,1.262 11.61,2.93 15.85,2.93 h 0.42 l 0.33,0.25 c 0.89,0.672 1.45,1.718 1.53,2.859 0.08,1.129 -0.33,2.25 -1.08,2.992 l -0.43,0.278 c -4.99,1.941 -7.12,8.601 -7.12,22.269 v 18.481 c 0,17.293 0.53,24.992 13.11,26.492 l 5.64,0.699 0.29,0.238 c 1.43,1.231 2.19,3.442 1.98,5.75 -0.2,2.063 -1.12,3.75 -2.49,4.543 z m -412.64,107.972 c 0,8.071 0,9.309 20.21,9.309 38.05,0 51.56,-26.699 51.56,-49.57 0,-18.481 -5.25,-31.551 -16.01,-39.942 -9.72,-7.367 -22.87,-8.32 -33.24,-8.32 -16.77,0 -21.16,0.703 -21.78,1.152 -0.74,0.989 -0.74,5.032 -0.74,10.141 z m 153.02,-194.222 -0.37,0.082 c -8.27,0.609 -16.3,3.871 -22.06,8.949 -22.92,19.211 -41.05,47.121 -66.08,87.5 -1.92,3.07 -2.55,5.121 -1.91,6.238 10.24,4.16 41.7,19.934 41.7,56.141 0,27.019 -15.27,40.641 -28.05,47.301 -16.3,8.859 -37.31,10.058 -55.71,10.058 -30.07,0 -53.49,-0.84 -73.71,-2.648 l -0.45,-0.129 c -1.52,-0.75 -2.52,-2.492 -2.69,-4.652 -0.19,-2.387 0.67,-4.649 2.18,-5.731 l 11.15,-1.547 c 12.04,-1.472 13.42,-5.312 13.42,-37.371 V 448.418 c 0,-34.559 -0.52,-37.816 -18.7,-40.02 l -8.74,-1.039 -0.31,-0.371 c -1.57,-1.82 -1.69,-4.617 -1.32,-6.449 0.36,-1.801 1.23,-3.168 2.37,-3.738 l 0.28,-0.141 0.33,0.012 c 16.76,0.707 28.32,0.988 41.2,0.988 14.03,0 25.83,-0.39 39.22,-0.988 l 0.33,-0.012 0.28,0.141 c 1.29,0.648 2.22,2.398 2.48,4.679 0.29,2.481 -0.3,4.59 -1.57,5.661 l -0.27,0.218 -7.29,1.039 c -18.21,2.512 -18.73,5.762 -18.73,40.02 v 41.594 c 0,5.886 0,6.008 14.27,6.008 13.15,0 17.86,-3.379 22.4,-10.02 5.09,-7.391 11,-16.75 16.72,-25.801 5.82,-9.211 11.31,-17.898 15.62,-24.051 22.43,-31.886 39.27,-42.117 69.35,-42.117 6.11,0 11.69,0.637 14.91,1.707 l 0.39,0.211 c 1.16,0.93 1.73,2.422 1.52,3.903 -0.21,1.339 -1.01,2.41 -2.16,2.867 z m -281.03,45.14 c -2.05,0.582 -4.2,0.309 -5.65,-0.73 l -0.4,-0.457 c -7.87,-15.774 -16.87,-28.121 -22.86,-31.461 -7.31,-3.652 -17.44,-4.82 -41.69,-4.82 -29.37,0 -35.56,3.73 -39.04,7.199 -4.96,5.281 -5.92,16.269 -5.92,33.469 v 46.543 c 0,7.589 0.08,7.66 9.64,7.66 h 19.15 c 12.01,0 20.39,-0.274 25.1,-1.614 6.27,-1.57 8.19,-6.5 9.32,-11.617 l 2.97,-12.871 0.26,-0.519 c 1.37,-1.641 4.07,-2.039 6.05,-1.86 2.15,0.188 3.82,1.059 4.58,2.367 l 0.16,0.293 v 0.329 c 0,3.23 -0.25,7.378 -0.53,12.191 -0.38,6.027 -0.79,12.867 -0.79,19.5 0,6.949 0.41,14.027 0.78,20.277 0.29,5.114 0.54,9.512 0.54,13.051 v 0.332 l -0.16,0.289 c -0.76,1.32 -2.43,2.18 -4.58,2.371 -1.96,0.18 -4.68,-0.211 -6.05,-1.863 l -2.91,-14.078 c -1.64,-8.231 -3.87,-9.539 -7.08,-10.61 -3.72,-1.242 -13.54,-1.921 -27.66,-1.921 h -19.15 c -9.64,0 -9.64,0 -9.64,7.992 v 66.008 c 0,11.953 0,11.953 8.65,11.953 h 23.77 c 14.54,0 24.92,-0.332 31.71,-1.942 15.77,-3.941 19.05,-14.289 23.58,-28.621 l 0.61,-1.91 0.23,-0.418 c 0.96,-1.152 2.74,-1.723 4.9,-1.633 1.8,0.102 4.28,0.793 5.35,2.41 l 0.25,0.364 -0.43,4.687 c -1.31,14.653 -3.12,34.711 -4.95,39.949 l -0.38,1.082 -1.11,-0.281 c -3.81,-0.961 -23.45,-0.961 -44.25,-0.961 h -62.05 c -12.77,0 -23.67,0.282 -38.89,1 l -0.32,0.012 -0.3,-0.148 c -1.67,-0.832 -2.4,-3.301 -2.53,-5.332 -0.06,-1.129 -0.04,-3.891 1.74,-5.079 l 5.82,-0.863 c 18.42,-2.187 19.04,-6.027 19.04,-40.34 v -118.82 c 0,-34.727 -1.81,-38.469 -19.33,-40.008 l -11.35,-1.031 -0.32,-0.32 c -1.53,-1.547 -1.75,-4.18 -1.43,-6.129 0.34,-2.02 1.21,-3.52 2.43,-4.129 l 0.28,-0.141 0.31,0.012 c 19.89,0.68 30.8,0.988 44.85,0.988 h 29.7 c 29.05,0 58.8,-0.332 88.43,-0.988 l 0.81,-0.024 0.34,0.731 c 4.4,9.133 12.64,34.59 14.95,46.18 l 0.07,0.39 -0.15,0.36 c -0.76,1.691 -2.38,2.992 -4.47,3.55 z m -355.82,75.219 c -1.05,1.024 -1.1,3.274 -1.1,6.863 v 67 c 0,5.637 1.2,6.629 3.89,7.438 2.79,1.242 7.72,1.871 14.66,1.871 11.24,0 47.93,-3.121 47.93,-43.301 0,-28.078 -14.19,-39.57 -50.61,-41 -8.14,-0.308 -13.16,-0.398 -14.77,1.129 z m 30.66,-113.668 c -12.35,0 -20.09,2.711 -25.13,8.801 -5.95,6.879 -6.63,23.359 -6.63,35.16 v 48.848 c 0,5.332 0,7.332 17.9,7.332 56.05,0 64.42,-34.582 64.42,-55.192 0,-39.109 -31.68,-44.949 -50.56,-44.949 z m 37.85,108.891 c -3.45,0.629 -4.86,1.39 -5.18,2.961 16.75,7.929 33.6,19.687 33.6,45.976 0,19.211 -9.16,34.262 -25.78,42.371 -16.25,8.313 -38.46,9.379 -56,9.379 -28.59,0 -51.85,-0.867 -71.09,-2.648 l -0.43,-0.129 c -1.58,-0.781 -2.63,-2.512 -2.82,-4.633 -0.21,-2.316 0.67,-4.519 2.29,-5.738 l 0.28,-0.211 10.93,-1.02 c 13.73,-1.218 15.03,-6.539 15.03,-30.769 V 448.418 c 0,-35.027 -0.96,-37.277 -17.11,-40.02 l -6.34,-1.058 -0.28,-0.281 c -1.54,-1.539 -1.75,-4.168 -1.44,-6.11 0.33,-2.031 1.21,-3.539 2.42,-4.148 l 0.28,-0.141 0.31,0.012 c 3.9,0.109 7.68,0.246 11.5,0.387 8.14,0.3 16.55,0.601 26.43,0.601 7.55,0 15.92,-0.301 23.29,-0.558 6.14,-0.223 11.95,-0.43 16.32,-0.43 56.59,0 89.04,23.797 89.04,65.277 0,37.942 -29.6,53.449 -45.25,56.352 z m -323.87,89.277 8.58,0.684 0.27,0.179 c 1.78,1.18 1.81,3.938 1.73,5.071 -0.12,2.027 -0.85,4.508 -2.53,5.34 l -0.29,0.148 -0.32,-0.012 c -15.58,-0.629 -27.27,-1 -40.88,-1 -14.22,0 -25.57,0.352 -41.53,1 l -0.32,0.012 -0.29,-0.148 c -1.66,-0.832 -2.4,-3.301 -2.52,-5.321 -0.07,-1.14 -0.05,-3.902 1.72,-5.09 l 0.28,-0.179 8.56,-0.684 c 18.29,-1.547 19,-6.066 19,-41 v -117.5 c 0,-34.617 -0.62,-38.488 -19.04,-40.68 l -8.68,-1.039 -0.31,-0.3 c -1.53,-1.547 -1.75,-4.18 -1.43,-6.129 0.34,-2.02 1.21,-3.52 2.42,-4.129 l 0.29,-0.141 0.32,0.012 c 16.08,0.648 27.46,0.988 41.53,0.988 13.53,0 24.8,-0.34 40.88,-0.988 l 0.32,-0.012 0.29,0.141 c 1.68,0.84 2.41,3.308 2.53,5.347 0.08,1.133 0.05,3.891 -1.73,5.063 l -8.8,1.187 c -18.42,2.192 -19.03,6.063 -19.03,40.68 v 117.5 c 0,34.934 0.7,39.453 18.98,41 z m 917.82,1117.192 c -5.5,6.32 -13.49,4.54 -13.49,4.54 0.37,4.55 -0.16,5.49 -0.19,8.92 1.38,0 4.26,0.09 4.57,3.26 0.34,3.62 -5.21,2.73 -5.21,2.73 -1.01,6.11 -2.07,9.6 -3.96,14.85 8.45,-0.49 13.81,-2.32 17.07,-8.75 3.4,-6.68 3.95,-18.29 1.21,-25.55 z m -10.9,-25.88 c -4.87,-3.71 -9.71,-3.83 -11.64,-3.29 l -0.09,0.27 c 0.53,0.16 5.14,3.5 7.38,8.7 2.98,6.9 1.41,16.58 1.41,16.58 0,0 8.49,0.42 10.05,-4.93 1.19,-6.29 -2.51,-13.81 -7.11,-17.33 z m -38.34,21.64 c 1.24,9.47 2.63,12.55 2.63,12.55 0,0 1.42,2.55 4.51,2.71 3.1,0.17 5.93,1.95 5.81,4.51 -0.15,3.56 -8.34,2.36 -8.34,2.36 0,0 2.33,10.88 -3.87,23.64 2.97,2.35 8.79,2.48 14.84,0.48 9.85,-5.67 13.28,-35.47 9.6,-49.62 -8.54,11.58 -20.94,7.73 -25.18,3.37 z m -5.84,18.3 c 0,0 -3.6,2.72 -8.51,3.58 -6.63,1.15 -7.14,-4.46 -2.94,-5.63 4.62,-1.29 7.37,-2.52 9.7,-5.83 -0.19,-6.13 -2.14,-15.32 -2.14,-15.32 -5.89,7.8 -16.01,7.59 -22.27,0.92 -4.26,18.13 0.24,23.95 7.93,35.79 6.87,10.6 6.75,10.23 8.5,10.75 1.87,0.56 5.61,1.2 5.61,1.2 0,0 5.29,-3.32 5.38,-12.43 0.09,-9.11 -1.26,-13.03 -1.26,-13.03 z m -67.46,-22.28 c -6.26,6.67 -16.38,6.88 -22.27,-0.92 0,0 -1.95,9.19 -2.14,15.32 2.33,3.31 5.08,4.54 9.7,5.83 4.19,1.17 3.68,6.78 -2.94,5.63 -4.91,-0.86 -8.51,-3.58 -8.51,-3.58 0,0 -1.35,3.92 -1.26,13.03 0.09,9.11 5.38,12.43 5.38,12.43 0,0 3.74,-0.64 5.61,-1.2 1.75,-0.52 1.63,-0.15 8.5,-10.75 7.69,-11.84 12.19,-17.66 7.93,-35.79 z m -57.19,0.61 c -3.67,14.15 -0.24,43.95 9.61,49.62 6.04,2 11.86,1.87 14.83,-0.48 -6.19,-12.76 -3.87,-23.64 -3.87,-23.64 0,0 -8.19,1.2 -8.34,-2.36 -0.11,-2.56 2.72,-4.34 5.81,-4.51 3.1,-0.16 4.51,-2.71 4.51,-2.71 0,0 1.4,-3.08 2.64,-12.55 -4.24,4.36 -16.65,8.21 -25.19,-3.37 z m -1.51,-21.56 c -1.94,-0.54 -6.78,-0.42 -11.64,3.29 -4.61,3.52 -8.31,11.04 -7.11,17.33 1.56,5.35 10.04,4.93 10.04,4.93 0,0 -1.56,-9.68 1.42,-16.58 2.24,-5.2 6.85,-8.54 7.38,-8.7 z m -21.33,54.72 c 3.26,6.43 8.61,8.26 17.07,8.75 -1.89,-5.25 -2.95,-8.74 -3.97,-14.85 0,0 -5.55,0.89 -5.2,-2.73 0.3,-3.17 3.19,-3.26 4.57,-3.26 -0.04,-3.43 -0.56,-4.37 -0.19,-8.92 0,0 -7.99,1.78 -13.49,-4.54 -2.74,7.26 -2.19,18.87 1.21,25.55 z m 154.43,-63.4 0.08,0.81 c 0,0 4.42,4.3 4.23,12.35 -0.19,7.66 -3.26,12.01 -3.26,12.01 0,0 3.28,5.11 9.84,2.97 6.57,-2.14 6.37,-7.41 6.36,-9.27 -0.04,-13.13 -14.38,-18.5 -17.25,-18.87 z m -13.45,-0.44 c -6.57,1.88 -13.9,8.83 -16.15,13.57 -1.87,3.96 -0.73,9.9 3.44,11.67 6.17,2.63 10.14,-2.59 9.77,-6.34 -1.47,-14.61 3.46,-18.57 3.46,-18.57 z m -64.46,13.57 c -2.25,-4.74 -9.58,-11.69 -16.14,-13.57 l -0.52,0.33 c 0,0 4.93,3.96 3.46,18.57 -0.38,3.75 3.6,8.97 9.76,6.34 4.17,-1.77 5.32,-7.71 3.44,-11.67 z m -46.84,5.74 c -0.01,1.86 -0.21,7.13 6.35,9.27 6.57,2.14 9.85,-2.97 9.85,-2.97 0,0 -3.07,-4.35 -3.26,-12.01 -0.19,-8.05 4.23,-12.35 4.23,-12.35 l 0.08,-0.81 c -2.87,0.37 -17.21,5.74 -17.25,18.87 z m -79.67,272.1 c 2.96,2.15 7.25,6.04 9.34,8.32 2.1,2.29 3.92,3.98 3.92,3.98 0,0 3.26,1.12 4.13,0.88 0.88,-0.25 1.17,-0.93 1.17,-0.93 0,0 -3.38,-7.09 -7.81,-13.71 -4.42,-6.62 -8.17,-9.73 -8.17,-9.73 -0.44,-0.34 -3.36,-0.25 -5.07,3.16 -1.7,3.41 -0.48,5.89 2.49,8.03 z m 1.27,58.68 c 0,0 19.04,10.36 26.54,19.95 7.49,9.59 13.48,23.27 14.71,24.98 1.23,1.71 4.46,3.04 3.99,-0.76 -0.48,-3.79 -9.44,-29.66 -15.8,-38.29 -6.35,-8.64 -21.76,-16.98 -24.51,-17.74 -4.55,2.94 -5.88,9.68 -4.93,11.86 z m 12.88,35.74 c 0.38,3.82 0.79,12.47 2.85,16.53 0.53,0.55 2.14,1.35 2.74,1.73 0.5,-0.78 0.71,-2.43 0.81,-3.63 0.2,-2.34 2.94,-20.41 2.94,-20.41 0,0 0.21,-1.63 -3.14,-3.25 -3.36,-1.63 -5.18,-1.53 -5.59,-1.22 0,0 -1.01,6.19 -0.61,10.25 z m 12.27,108.64 c 1.25,0.69 5.81,-1.99 8.97,-2.25 1.76,-0.15 3.22,2.45 3.22,3.69 0,1.86 0.63,0.85 -8.41,6.08 -2.85,1.65 -2.06,6.73 -0.33,9.51 1.35,2.17 4.18,-0.8 6,-2.24 1.81,-1.44 4.86,-3.67 5.82,-3.3 0.96,0.38 2.21,4.96 1.75,6.03 -0.99,2.26 -7.06,3.98 -8.72,7.74 -1.27,2.85 0.34,4.94 1.64,7.74 0.64,1.38 5.75,3.37 8.28,4.22 2.22,0.74 14.06,-2.64 16.02,-4.45 2.4,-2.19 2.76,-5.52 5.43,-10.86 2.67,-5.33 6.22,-9.35 7.23,-10.78 1.82,-2.56 -5.78,-5.71 -8.46,-4.26 -4.09,2.23 -7.42,5.18 -10.52,7.96 -3.09,2.78 -4.73,-2.26 -3.93,-4.45 0.81,-2.19 2.84,-5.15 7.39,-8.58 3.33,-2.51 2.99,-3.38 2.12,-5.51 -1,-2.45 -2.62,-7.23 -3.28,-10.7 -0.49,-2.63 -1.74,-3.71 -3.57,-3.31 -16.51,3.62 -23.74,-1.06 -23.97,-3.36 -0.28,-2.62 6.32,-1.33 12.91,-2.3 9.02,-1.33 8.35,-2.15 9.83,-3.69 4.3,-4.52 4.37,-14.62 3.87,-15.64 -0.91,-1.81 -3.08,-2.76 -8.06,-6.47 -4.93,-3.67 -4.69,-4.86 -4.9,-9.22 -0.2,-4.17 2.41,-5 4.93,-0.77 2.24,3.78 9.06,9.29 12.63,10.03 3.58,0.75 6.61,-3.38 6.61,-3.38 0,0 0.97,-1.1 -1.89,-3.96 -6.14,-6.12 -7.77,-13.85 -5.91,-14.68 1.35,-0.6 1.87,2.02 5.81,7.49 4.17,5.78 7.73,6.66 7.73,6.66 0,0 3.26,-0.48 7.1,-1.66 3.84,-1.17 6.74,-3.25 6.74,-3.25 0,0 -3.29,-23.52 0.68,-24.19 2.97,-0.5 4.81,22.53 8.23,22.8 3.41,0.27 4.9,-6.78 6.99,-6.41 2.08,0.38 0.04,9.27 2.08,9.93 6.2,2.02 9.36,5.23 12.56,8.75 3.27,3.6 6.28,1.02 6.28,1.02 0,0 0.27,-11.85 -1.44,-11.27 -1.71,0.59 -1.33,3.74 -4.05,1.98 -2.73,-1.76 2.51,-10.84 4.27,-13.45 1.76,-2.62 1.71,-5.55 -2.46,-3.42 -4.16,2.14 -5.07,10.36 -7.1,5.66 -2.03,-4.7 1.23,-10.41 4.43,-13.34 3.2,-2.94 6.88,-3.52 6.88,-3.52 0,0 1.83,-5.3 -1.27,-7.94 -4.66,-3.97 -8.87,-4.31 -8.87,-4.31 0,0 -8.69,9.38 -9.23,19.62 -1.6,0.91 -2.47,-0.6 -2.87,-3.16 -0.92,-5.91 1.07,-18.31 -1.93,-19.33 -1.63,-0.55 -7.25,-0.73 -11.59,-0.48 -3.62,0.21 -4.63,1.8 -5.49,4.58 -0.85,2.78 0.21,6.74 -0.92,6.95 -1.99,0.38 -3.74,-1.97 -4.64,-5.02 -0.91,-3.04 -2.09,-3.48 -5.28,-3.29 -2.01,0.11 -4.34,1.04 -8.47,3.52 -5.41,3.25 3.12,18.83 4.99,21.72 1.87,2.88 -0.21,4.11 -3.79,0.53 -3.58,-3.58 -7.31,-11.58 -8.75,-14.52 -1.45,-2.94 -3.21,-2.89 -6.52,-0.16 -3.31,2.72 -8.01,3.58 -10.14,8.27 -2.14,4.7 -0.96,6.57 0.53,9.08 1.5,2.51 1.07,3.36 -0.32,3.36 -1.39,0 -3.2,-2.78 -3.2,-2.78 0,0 -2.2,-0.41 -3.51,1.4 -4.71,6.51 -5.49,17.79 -5.29,20.24 0.28,3.49 6.46,4.93 10.2,5.67 3.73,0.75 3.89,6.26 0.74,6.1 -3.15,-0.16 -5.32,-0.39 -9.2,-1.02 -4.45,-0.72 -5.35,10.97 -5.68,20.7 -0.31,9.45 1.39,16.71 3.07,17.65 z m -7.62,71.35 c -0.22,5.37 1.63,11.54 2.69,13.13 1.33,1.99 1.11,0.46 4.21,-5.86 2.44,-4.96 8.01,-8.14 12.25,-9.19 6.85,-1.69 12.01,0.19 24.7,-1.38 12.68,-1.56 18.26,-7.96 23.13,-12.48 6.07,-5.63 14.49,-10.94 13.37,-11.94 -1.77,-1.57 -8.27,-0.81 -16.25,6.8 -5.47,5.23 -10.01,6.69 -11.79,4.13 -2.33,-3.36 12.06,-14.56 10.64,-16.21 -1.41,-1.64 -9.68,7.02 -11.76,5.31 -0.99,-0.81 -0.72,-2.15 -0.12,-3.49 0.59,-1.35 4.54,-6.57 2.43,-8.37 -1.91,-1.64 -4.85,3.58 -7.08,6.86 -2.46,3.62 -6.59,4.52 -10.37,4.52 -2.84,0 -14.63,0.16 -24.26,7.17 -9.62,7.01 -11.56,15.63 -11.79,21 z m 91.22,1.73 c 9.8,2.83 17.56,-4.02 18.53,-8.07 -1.2,-2.76 -2.95,-2.96 -5.95,-1.55 -5.69,2.68 -13.56,1.79 -17.25,-7.57 -0.8,-2.02 -2.65,-1.99 -5.12,-1.05 -1.88,3.71 -0.2,15.36 9.79,18.24 z m 21.52,-23.39 c -0.36,-2.98 -2.8,-3.86 -4.67,-2.83 -4.49,2.49 -9.28,0.71 -10.59,-4.6 -0.67,-2.73 -2.47,-3.46 -5.57,-1.99 -2.17,3.68 -1.32,12.9 5.89,15.56 6.9,2.56 13.51,-2.32 14.94,-6.14 z m 19.21,28.03 c 6.05,0 14.19,-3.5 15.43,-12.14 -0.7,-3.7 -3.43,-3.19 -4.8,-1.46 -2.36,2.98 -5.83,4.97 -10.63,4.97 -4.8,0 -8.27,-1.99 -10.63,-4.97 -1.37,-1.73 -4.1,-2.24 -4.8,1.46 1.23,8.64 9.39,12.14 15.43,12.14 z m 34.14,-21.89 c 7.21,-2.66 8.47,-12.28 5.89,-15.56 -3.1,-1.47 -4.9,-0.74 -5.57,1.99 -1.3,5.31 -6.1,7.09 -10.59,4.6 -1.86,-1.03 -4.3,-0.15 -4.67,2.83 1.43,3.82 8.04,8.7 14.94,6.14 z m 6.58,17.25 c 9.99,-2.88 11.67,-14.53 9.79,-18.24 -2.47,-0.94 -4.32,-0.97 -5.12,1.05 -3.68,9.36 -11.56,10.25 -17.25,7.57 -3,-1.41 -4.75,-1.21 -5.94,1.55 0.96,4.05 8.72,10.9 18.52,8.07 z m 24.22,-17.51 c 4.87,4.52 10.45,10.92 23.13,12.48 12.69,1.57 17.85,-0.31 24.7,1.38 4.24,1.05 9.81,4.23 12.25,9.19 3.11,6.32 2.88,7.85 4.21,5.86 1.06,-1.59 2.91,-7.76 2.69,-13.13 -0.23,-5.37 -2.16,-13.99 -11.79,-21 -9.63,-7.01 -21.42,-7.17 -24.25,-7.17 -3.79,0 -7.91,-0.9 -10.38,-4.52 -2.23,-3.28 -5.16,-8.5 -7.08,-6.86 -2.11,1.8 1.84,7.02 2.44,8.37 0.59,1.34 0.86,2.68 -0.13,3.49 -2.08,1.71 -10.34,-6.95 -11.76,-5.31 -1.42,1.65 12.97,12.85 10.64,16.21 -1.78,2.56 -6.32,1.1 -11.79,-4.13 -7.97,-7.61 -14.48,-8.37 -16.25,-6.8 -1.12,1 7.3,6.31 13.37,11.94 z m 62.44,-73.22 c -0.33,-9.73 -1.23,-21.42 -5.68,-20.7 -3.88,0.63 -6.05,0.86 -9.19,1.02 -3.15,0.16 -3,-5.35 0.74,-6.1 3.74,-0.74 9.91,-2.18 10.19,-5.67 0.2,-2.45 -0.58,-13.74 -5.28,-20.24 -1.31,-1.81 -3.52,-1.4 -3.52,-1.4 0,0 -1.81,2.78 -3.2,2.78 -1.39,0 -1.81,-0.85 -0.32,-3.36 1.49,-2.51 2.67,-4.38 0.53,-9.08 -2.13,-4.69 -6.83,-5.55 -10.14,-8.27 -3.31,-2.73 -5.07,-2.78 -6.51,0.16 -1.45,2.94 -5.18,10.94 -8.76,14.52 -3.58,3.58 -5.66,2.35 -3.79,-0.53 1.87,-2.89 10.4,-18.47 4.99,-21.72 -4.13,-2.48 -6.46,-3.41 -8.47,-3.52 -3.18,-0.19 -4.37,0.25 -5.28,3.29 -0.9,3.05 -2.65,5.4 -4.64,5.02 -1.13,-0.21 -0.06,-4.17 -0.92,-6.95 -0.86,-2.78 -1.86,-4.37 -5.49,-4.58 -4.33,-0.25 -9.96,-0.07 -11.59,0.48 -3,1.02 -1.01,13.42 -1.93,19.33 -0.4,2.56 -1.27,4.07 -2.87,3.16 -0.54,-10.24 -9.23,-19.62 -9.23,-19.62 0,0 -4.21,0.34 -8.87,4.31 -3.1,2.64 -1.27,7.94 -1.27,7.94 0,0 3.68,0.58 6.88,3.52 3.21,2.93 6.46,8.64 4.43,13.34 -2.03,4.7 -2.93,-3.52 -7.1,-5.66 -4.16,-2.13 -4.21,0.8 -2.45,3.42 1.76,2.61 6.99,11.69 4.27,13.45 -2.73,1.76 -2.35,-1.39 -4.06,-1.98 -1.71,-0.58 -1.44,11.27 -1.44,11.27 0,0 3.01,2.58 6.28,-1.02 3.2,-3.52 6.36,-6.73 12.56,-8.75 2.05,-0.66 0,-9.55 2.09,-9.93 2.08,-0.37 3.57,6.68 6.99,6.41 3.42,-0.27 5.25,-23.3 8.22,-22.8 3.98,0.67 0.68,24.19 0.68,24.19 0,0 2.9,2.08 6.74,3.25 3.85,1.18 7.1,1.66 7.1,1.66 0,0 3.56,-0.88 7.73,-6.66 3.94,-5.47 4.47,-8.09 5.82,-7.49 1.85,0.83 0.22,8.56 -5.91,14.68 -2.87,2.86 -1.9,3.96 -1.9,3.96 0,0 3.03,4.13 6.61,3.38 3.57,-0.74 10.39,-6.25 12.64,-10.03 2.51,-4.23 5.12,-3.4 4.92,0.77 -0.21,4.36 0.03,5.55 -4.89,9.22 -4.99,3.71 -7.16,4.66 -8.06,6.47 -0.51,1.02 -0.44,11.12 3.87,15.64 1.47,1.54 0.8,2.36 9.82,3.69 6.59,0.97 13.19,-0.32 12.92,2.3 -0.24,2.3 -7.46,6.98 -23.97,3.36 -1.83,-0.4 -3.09,0.68 -3.58,3.31 -0.66,3.47 -2.28,8.25 -3.28,10.7 -0.87,2.13 -1.21,3 2.12,5.51 4.55,3.43 6.59,6.39 7.39,8.58 0.8,2.19 -0.83,7.23 -3.93,4.45 -3.09,-2.78 -6.42,-5.73 -10.52,-7.96 -2.68,-1.45 -10.27,1.7 -8.46,4.25 1.01,1.44 4.56,5.46 7.23,10.79 2.67,5.34 3.04,8.67 5.43,10.86 1.96,1.81 13.8,5.19 16.02,4.45 2.53,-0.85 7.65,-2.84 8.29,-4.22 1.29,-2.8 2.9,-4.89 1.64,-7.74 -1.67,-3.76 -7.74,-5.48 -8.73,-7.74 -0.46,-1.07 0.79,-5.65 1.75,-6.03 0.96,-0.37 4.01,1.86 5.82,3.3 1.82,1.44 4.65,4.41 6,2.24 1.73,-2.78 2.52,-7.86 -0.33,-9.51 -9.04,-5.23 -8.41,-4.22 -8.41,-6.08 0,-1.24 1.47,-3.84 3.22,-3.7 3.17,0.27 7.72,2.95 8.97,2.26 1.68,-0.94 3.38,-8.2 3.07,-17.65 z m 3.61,-72.73 c 0.6,-0.38 2.22,-1.18 2.74,-1.73 2.06,-4.06 2.47,-12.71 2.85,-16.53 0.41,-4.06 -0.61,-10.25 -0.61,-10.25 -0.4,-0.31 -2.23,-0.41 -5.58,1.22 -3.36,1.62 -3.15,3.25 -3.15,3.25 0,0 2.74,18.07 2.94,20.41 0.11,1.2 0.32,2.85 0.81,3.63 z m 18.47,-54 c 0.95,-2.18 -0.38,-8.92 -4.93,-11.86 -2.75,0.76 -18.15,9.1 -24.51,17.74 -6.36,8.63 -15.32,34.5 -15.79,38.29 -0.48,3.8 2.75,2.47 3.98,0.76 1.23,-1.71 7.22,-15.39 14.72,-24.98 7.49,-9.59 26.53,-19.95 26.53,-19.95 z m 1.28,-58.68 c 2.96,-2.14 4.18,-4.62 2.48,-8.03 -1.7,-3.41 -4.63,-3.5 -5.07,-3.16 0,0 -3.74,3.11 -8.17,9.73 -4.43,6.62 -7.81,13.71 -7.81,13.71 0,0 0.29,0.68 1.17,0.93 0.87,0.24 4.13,-0.88 4.13,-0.88 0,0 1.83,-1.69 3.92,-3.98 2.09,-2.28 6.38,-6.17 9.35,-8.32 z m -50.2,-209.22 c -1.7,-1.33 -4.27,-3.01 -6.43,-1.42 26.39,76.79 36.17,190.81 37.25,202.57 0,0 -0.4,1.41 1.28,0.95 1.69,-0.47 6.08,-7.93 9.1,-11.09 3.01,-3.16 -14.32,-135.27 -41.2,-191.01 z m -56.27,12.32 c -7.73,-7.23 -8.5,-4.09 -19.31,-12.41 -10.24,-7.88 -9.65,-15.21 -13.1,-16.11 0,0 -2.18,11.45 3.51,20.53 5.69,9.07 17.52,15.66 21.93,20.65 4.41,4.98 7.55,8.37 8.44,12.53 0.89,4.15 3.52,1.34 3.64,-0.2 0.13,-1.53 3.62,-16.84 -5.11,-24.99 z m -36.9,-6.12 c -1.01,1.83 -1.01,4.49 -0.36,12.01 0.64,7.51 3.48,10.14 6.6,11.79 3.11,1.65 10.8,5.89 16.78,15.13 8.09,12.52 6.87,20.56 6.87,20.56 l 0.82,0.65 c 0,0 4.02,-3.72 3.51,-14.23 -0.55,-11.45 -3.9,-20.45 -15.7,-28.86 -13.6,-9.68 -17.24,-16.78 -17.24,-16.78 0,0 -0.27,-2.11 -1.28,-0.27 z m -7.38,36.83 c -7.91,0 -14.67,6.16 -15.67,13.42 -0.8,5.81 1.03,12.41 3.66,18.4 2.63,5.98 7.32,10.55 7.32,10.55 0,0 0.86,-2.86 0.97,-7.5 0.2,-7.73 -2.98,-14.64 -4.54,-16.93 0.29,-1.96 1.8,-2.84 3.01,-2.78 3.78,0.18 2.7,8.99 5.94,8.99 2.12,-9.38 -1.8,-11.53 -2.68,-13.31 1.34,-1.04 2.12,-1.78 3.55,-1.32 5.7,1.82 7.8,8.29 7.05,13.01 -0.98,6.15 -4.86,8.77 -6.1,12.18 0.04,4.65 2.19,7.66 2.19,7.66 0,0 4.99,-3.55 7.62,-9.53 2.63,-5.99 4.15,-13.61 3.36,-19.42 -1,-7.26 -7.77,-13.42 -15.68,-13.42 z m -7.37,-36.83 c -1.01,-1.84 -1.28,0.27 -1.28,0.27 0,0 -3.64,7.1 -17.24,16.78 -11.81,8.41 -15.15,17.41 -15.7,28.86 -0.51,10.51 3.51,14.23 3.51,14.23 l 0.82,-0.65 c 0,0 -1.22,-8.04 6.87,-20.56 5.98,-9.24 13.67,-13.48 16.78,-15.13 3.12,-1.65 5.96,-4.28 6.6,-11.79 0.65,-7.52 0.65,-10.18 -0.36,-12.01 z m -4.49,-22.4 c -3.46,0.9 -2.86,8.23 -13.11,16.11 -10.81,8.32 -11.57,5.18 -19.31,12.41 -8.73,8.15 -5.24,23.46 -5.11,24.99 0.12,1.54 2.75,4.35 3.64,0.2 0.9,-4.16 4.03,-7.55 8.44,-12.53 4.41,-4.99 16.24,-11.58 21.93,-20.65 5.69,-9.08 3.52,-20.53 3.52,-20.53 z m -108.22,257.44 c -6.93,-6.64 -20.09,-10.97 -20.09,-10.97 0,0 -2.69,-1.34 -4.12,1.6 -1.42,2.95 -0.92,11.76 -0.92,11.76 0,0 18.46,7.34 26.81,17.59 5.9,7.24 7.67,12.89 8.33,15.26 0.67,2.37 2.85,4.17 2.94,1.71 0.1,-2.47 -0.63,-25.13 -12.95,-36.95 z m 19.87,12.76 c 0.1,0.22 2.55,2.19 2.51,1.52 -6.4,-93.65 20.02,-237.54 20.47,-239.9 1.27,-6.52 -5.41,-15.35 -6.19,-13.49 -20.27,48.49 -34.83,193.36 -35.14,212.1 -0.13,7.58 9.13,17.13 18.35,39.77 z m 61.96,160.39 c -1.38,3.61 5.3,6.17 8.96,6.93 5,1.04 9.29,-0.28 12.44,-1.56 1.45,-0.6 3.38,-3.09 0.07,-3.47 -3.31,-0.39 -5.12,-0.26 -8.29,-0.93 -5.27,-1.11 -11.74,-4.71 -13.18,-0.97 z m -11.3,-0.61 c 14.08,-4.77 19.33,-20.97 14.52,-35.19 -4.8,-14.22 -19.31,-21.52 -33.39,-16.75 -14.09,4.76 -20.14,20.59 -15.33,34.81 4.8,14.22 20.12,21.89 34.2,17.13 z m 10.68,23.47 c -1.13,0.17 -8.81,3.35 -21.87,-1.97 -5.88,-2.4 -10.17,-1.55 -10.94,-0.23 -3.46,5.85 13.91,9.25 18.32,9.44 10.68,0.45 14.4,-3.96 15.33,-5.26 0.85,-1.19 0.29,-2.15 -0.84,-1.98 z m 11.09,-7.37 c 1.97,-1.09 1.46,-3.75 -1.98,-3.41 -5.15,0.52 -6.56,0.68 -15.3,-2.18 -9.92,-3.24 -13.77,-0.46 -14.75,0.16 -0.99,0.61 -3.29,4.76 0.31,4.76 7.96,0.01 12.77,2.66 18.44,3.23 5.66,0.56 11.06,-1.32 13.28,-2.56 z m 14.53,15.5 c 0.38,-2.41 -1.16,-4.06 -2.62,-3.29 -2.14,4.46 -10.42,1.3 -7.67,-4.53 -0.11,-1.33 -2.25,-2.93 -4.57,-1.13 -3.31,2.54 -5.49,10.2 1.47,14.28 5.48,3.2 12.53,0.09 13.39,-5.33 z m 21.89,15.86 c -1.94,1.45 -4.27,3.84 -8.63,3.84 -4.36,0 -6.69,-2.39 -8.64,-3.84 -2.61,-1.95 -3.98,0 -5.03,1.48 0.49,4.66 6.65,10.69 13.67,10.69 7.03,0 13.17,-6.03 13.67,-10.69 -1.05,-1.48 -2.43,-3.43 -5.04,-1.48 z m 19.52,-24.78 c -2.32,-1.81 -4.46,-0.22 -4.58,1.11 2.72,5.83 -5.57,8.96 -7.69,4.49 -1.46,-0.77 -3,0.87 -2.63,3.29 0.83,5.41 7.87,8.56 13.36,5.37 6.98,-4.04 4.83,-11.7 1.54,-14.26 z m 12.9,-4.02 c 5.67,-0.57 10.47,-3.22 18.44,-3.23 3.6,0 1.29,-4.15 0.31,-4.76 -0.99,-0.62 -4.84,-3.4 -14.76,-0.16 -8.73,2.86 -10.15,2.7 -15.29,2.18 -3.44,-0.34 -3.95,2.32 -1.99,3.41 2.23,1.24 7.62,3.12 13.29,2.56 z m 30.62,2.61 c -0.78,-1.32 -5.07,-2.17 -10.94,0.23 -13.06,5.32 -20.74,2.14 -21.87,1.97 -1.13,-0.17 -1.69,0.79 -0.85,1.98 0.93,1.3 4.66,5.71 15.33,5.26 4.41,-0.19 21.79,-3.59 18.33,-9.44 z m -22.13,-21.27 c 14.08,4.76 29.4,-2.91 34.2,-17.13 4.82,-14.22 -1.24,-30.05 -15.33,-34.81 -14.08,-4.77 -28.58,2.53 -33.39,16.75 -4.81,14.22 0.44,30.42 14.52,35.19 z m -24.48,1.58 c -3.17,0.67 -4.98,0.54 -8.29,0.93 -3.32,0.38 -1.39,2.87 0.06,3.47 3.15,1.28 7.45,2.6 12.44,1.56 3.67,-0.76 10.35,-3.32 8.97,-6.93 -1.44,-3.74 -7.92,-0.14 -13.18,0.97 z m 49.51,-225.73 c -0.33,2.79 -0.76,7.4 1.62,8.13 3.06,-1.62 6.49,-6.3 8.95,-11.73 3.82,-8.47 5.43,-19.25 -1.28,-22.22 -12.06,-5.35 -21.68,10.38 -23.71,20.28 -1.73,8.4 3.57,10.39 3.57,10.39 0,0 2.76,-6.41 5.03,-10.29 2.72,-4.64 6.52,-9.54 9.06,-8.72 2.54,0.82 -2.37,6.81 -3.24,14.16 z m -56.19,17.84 c 0.51,3.81 3.86,4.4 3.86,4.4 0,0 2.05,-10.83 4.81,-17.19 2.77,-6.37 9.45,-13.72 12.53,-12.24 3.09,1.47 -0.71,5.1 -3.1,12.86 -2.85,9.33 -1.03,17.68 -1.03,17.68 0,0 2.37,0.75 3.65,-2.82 6.42,-17.96 8.78,-16.78 13.09,-25.42 4.22,-8.43 1.77,-17.39 -8.17,-19.21 -24.52,-4.48 -26.43,35.89 -25.64,41.94 z m -5.77,-92.24 c 0,0 8.33,-19.3 13.36,-17.18 2.93,1.23 -6.76,10.5 -6.92,21.24 1.11,2.07 3.7,1.55 3.7,1.55 0,0 2.6,-3.88 6.27,-6.68 5.25,-4.02 18.49,-28.06 4.08,-33.97 -15.52,-6.37 -25.63,17.5 -25.19,26.29 0.44,8.79 4.7,8.75 4.7,8.75 z m -33.15,39.93 c 1.07,24.01 8.85,31.6 8.85,31.6 0,0 1.75,-2.26 1.55,-4.66 -0.14,-1.75 -2.97,-12.68 -3.04,-18.54 -0.06,-5.85 1.82,-7.62 3.9,-6.77 2.08,0.84 -1.68,8.2 3.25,8.63 3.34,0.29 4.78,-8.37 4.9,-16.89 0.14,-9.17 -2.01,-12.71 -2.01,-12.71 3.39,-2.75 7.43,2.62 8.26,11.76 0.76,8.32 -0.42,13.55 1.7,13.55 1.95,0 1.87,-3.41 1.79,-7.53 -0.06,-3.23 -0.26,-6.98 0.85,-7.72 1.88,-1.24 4.79,7.02 4.79,14.34 0,5.86 -2.01,11.98 -2.16,13.73 -0.2,2.4 0.76,4.44 0.76,4.44 0,0 6.6,0.78 7.67,-23.23 0.68,-15.31 -6.7,-34.17 -20.53,-34.17 -13.83,0 -21.21,18.86 -20.53,34.17 z m -8.5,-41 c 3.66,2.8 6.26,6.68 6.26,6.68 0,0 2.59,0.52 3.7,-1.55 -0.15,-10.74 -9.84,-20.01 -6.92,-21.24 5.03,-2.12 13.37,17.18 13.37,17.18 0,0 4.26,0.04 4.69,-8.75 0.44,-8.79 -9.66,-32.66 -25.18,-26.29 -14.42,5.91 -1.17,29.95 4.08,33.97 z m 9.61,163.07 c 1.79,3.67 4.42,1.35 4.42,1.35 0,0 -2.38,-8.65 -1.36,-18.1 0.69,-6.27 2.4,-10.2 4.68,-10.06 2.57,0.15 2.4,4.89 2.48,9.67 0.03,1.83 2.58,2.72 2.96,0.94 1.39,-6.38 -1.73,-17.67 1.47,-29.19 1.25,-4.48 6.27,-9.55 8.1,-7.27 0.8,0.99 0.68,2.6 0.27,4.43 -0.39,1.71 -1.01,3.63 -1.42,5.42 -2.95,12.73 1.29,30.32 3.91,37.43 0.63,1.71 3.15,-2.1 2.99,-5.72 -0.17,-3.89 -0.93,-12.6 1.02,-22.15 0.87,-4.29 4.32,-1.76 6.12,5.53 2.69,10.89 -1.22,29.07 -1.22,29.07 0,0 2.63,2.32 4.43,-1.35 1.79,-3.67 7.19,-30.22 3,-47.31 -2.76,-11.23 -8.08,-22.18 -22.43,-22.18 v 0 c -14.35,0 -19.67,10.95 -22.42,22.18 -4.2,17.09 1.2,43.64 3,47.31 z m 11.27,137.74 c 1.11,-0.59 0.82,-1.6 0.09,-2.62 -3.92,-5.47 -9.3,-11.87 -14.24,-8.39 -1.64,1.15 -0.47,4.76 5.15,8.12 1.82,1.09 6.79,4.09 9,2.89 z m 17.44,32.39 c -0.76,-4.58 -1.93,-5.83 -2.84,-6.95 -0.58,-0.7 -2.22,0.05 -1.9,1.07 0.31,1.02 1.04,7.46 -4.55,7.46 -5.6,0 -4.87,-6.44 -4.55,-7.46 0.32,-1.02 -1.33,-1.77 -1.9,-1.07 -0.91,1.12 -2.08,2.37 -2.84,6.95 -0.77,4.58 3.05,10.39 9.29,10.39 6.24,0 10.05,-5.81 9.29,-10.39 z m -1.24,-35.01 c -0.73,1.02 -1.01,2.03 0.09,2.62 2.22,1.2 7.18,-1.8 9,-2.89 5.63,-3.36 6.8,-6.97 5.16,-8.12 -4.95,-3.48 -10.32,2.92 -14.25,8.39 z M 2577.79,2170 c 0.06,1.07 1.76,11.59 7.81,11.59 6.05,0 7.74,-10.52 7.81,-11.59 0.14,-2.18 -1.52,-3.87 -3.52,-3.06 -3.13,1.26 -0.95,8.02 -4.29,8.02 -3.35,0 -1.17,-6.76 -4.29,-8.02 -2,-0.81 -3.67,0.88 -3.52,3.06 z m 2.59,-26.79 c 1.27,-5.36 1.32,-14.73 1.32,-31.28 0,-10.52 2.54,-19.13 3.9,-19.13 1.36,0 3.9,8.61 3.9,19.13 0,16.55 0.04,25.92 1.32,31.28 0.26,1.09 5.66,0.42 11.41,-4.32 5.76,-4.72 2.57,-25.07 0.52,-34.63 -1.77,-8.21 -7.73,-25.86 -17.15,-32.42 -9.42,6.56 -15.39,24.21 -17.15,32.42 -2.06,9.56 -5.24,29.91 0.51,34.63 5.76,4.74 11.16,5.41 11.42,4.32 z m -38.81,-209.01 c -9.94,1.82 -12.39,10.78 -8.18,19.21 4.32,8.64 6.68,7.46 13.1,25.42 1.28,3.57 3.64,2.82 3.64,2.82 0,0 1.83,-8.35 -1.03,-17.68 -2.38,-7.76 -6.18,-11.39 -3.1,-12.86 3.09,-1.48 9.77,5.87 12.54,12.24 2.76,6.36 4.81,17.19 4.81,17.19 0,0 3.35,-0.59 3.85,-4.4 0.8,-6.05 -1.11,-46.42 -25.63,-41.94 z m -33.79,9.94 c 2.54,-0.82 6.34,4.08 9.05,8.72 2.28,3.88 5.04,10.29 5.04,10.29 0,0 5.29,-1.99 3.57,-10.39 -2.04,-9.9 -11.66,-25.63 -23.71,-20.28 -6.71,2.97 -5.11,13.75 -1.28,22.22 2.45,5.43 5.88,10.11 8.95,11.73 2.37,-0.73 1.95,-5.34 1.62,-8.13 -0.87,-7.35 -5.78,-13.34 -3.24,-14.16 z m 27.47,-51.76 c -9.1,-9.67 -18.3,-12.27 -23.57,-8.71 -9.4,6.36 -6.41,16.58 7.46,31.66 7.95,8.64 12.66,13.41 12.66,13.41 0,0 1.59,0.63 2.07,-0.62 0,0 -3.77,-13.36 -5.5,-16.06 -1.73,-2.69 -4.8,-8.37 -4.56,-9.04 0.24,-0.67 1.85,-2.14 3.44,-0.63 1.59,1.52 5.1,8.1 7.52,10.38 2.27,2.14 6.78,8.96 9.27,10.32 0,0 0.83,-0.01 1.06,-0.14 1.62,-2.63 0.45,-19.61 -9.85,-30.57 z m -7.94,-97.69 c 0,-6.89 -1.93,-11.15 -4.97,-11.15 -3.03,0 -4.96,4.37 -4.96,11.09 0,7.7 2.55,29.78 3.48,35.01 h 1.48 c 0,0 4.97,-28.06 4.97,-34.95 z m -11.88,50.02 c -4.72,4.72 -2.86,12.52 1.8,18.65 4.27,5.61 10.96,9.92 12.22,10.76 2.64,1.76 3.24,0.75 3.75,0.2 0,0 -11.41,-16.9 -7.93,-19.5 3.49,-2.61 13.47,12.93 13.47,12.93 1.21,-1.36 1.36,-2.21 0.47,-4.77 -0.25,-0.74 -2.7,-7.3 -7.19,-12.79 -4.85,-5.94 -11.9,-10.17 -16.59,-5.48 z m 120.51,47.67 c -10.3,10.96 -11.46,27.94 -9.84,30.57 0.23,0.13 1.05,0.14 1.05,0.14 2.49,-1.36 7.01,-8.18 9.28,-10.32 2.42,-2.28 5.92,-8.86 7.51,-10.38 1.59,-1.51 3.2,-0.04 3.44,0.63 0.25,0.67 -2.83,6.35 -4.55,9.04 -1.73,2.7 -5.5,16.06 -5.5,16.06 0.48,1.25 2.07,0.62 2.07,0.62 0,0 4.7,-4.77 12.65,-13.41 13.88,-15.08 16.87,-25.3 7.47,-31.66 -5.28,-3.56 -14.48,-0.96 -23.58,8.71 z m 17.88,-97.75 c 0,-6.72 -1.93,-11.09 -4.97,-11.09 -3.04,0 -4.97,4.26 -4.97,11.15 0,6.89 4.97,34.95 4.97,34.95 h 1.49 c 0.92,-5.23 3.48,-27.31 3.48,-35.01 z m -14.64,55.56 c -4.49,5.49 -6.95,12.05 -7.2,12.79 -0.88,2.56 -0.73,3.41 0.48,4.77 0,0 9.98,-15.54 13.46,-12.93 3.49,2.6 -7.92,19.5 -7.92,19.5 0.51,0.55 1.1,1.56 3.75,-0.2 1.26,-0.84 7.94,-5.15 12.22,-10.76 4.66,-6.13 6.51,-13.93 1.79,-18.65 -4.69,-4.69 -11.74,-0.46 -16.58,5.48 z m 53.55,196.67 c 0.09,2.46 2.28,0.66 2.94,-1.71 0.66,-2.37 2.43,-8.02 8.33,-15.26 8.35,-10.25 26.82,-17.59 26.82,-17.59 0,0 0.49,-8.81 -0.93,-11.76 -1.42,-2.94 -4.12,-1.6 -4.12,-1.6 0,0 -13.16,4.33 -20.09,10.97 -12.31,11.82 -13.05,34.48 -12.95,36.95 z m 11.43,-63.96 c -0.3,-18.74 -14.87,-163.61 -35.14,-212.1 -0.77,-1.86 -7.46,6.97 -6.19,13.49 0.45,2.36 26.88,146.25 20.47,239.9 -0.04,0.67 2.42,-1.3 2.51,-1.52 9.22,-22.64 18.48,-32.19 18.35,-39.77 z m -31.25,89.99 c 0.99,1.86 3.49,0.27 4.6,-0.81 2.44,-2.39 15.59,-24.39 4.36,-29.47 -11.58,-5.23 -21.46,17.43 -22.63,24 -0.93,5.29 2.74,4.07 2.74,4.07 0,0 8.54,-13.78 11.8,-12.27 3.19,1.48 -0.87,14.48 -0.87,14.48 z m -14.37,-35.76 c -1.35,4.35 -0.53,8.55 -0.53,8.55 1.28,1.12 5.48,-4.5 5.48,-4.5 0,0 0.52,-4.28 2.54,-7.65 2.03,-3.38 8.32,-13.12 3.23,-16.27 -5.1,-3.15 -11.48,-1.56 -17.47,8.92 -6.22,10.87 -6.15,26.92 -5.55,28.57 0.6,1.65 2.25,1.05 2.55,-0.83 0.3,-1.87 1.65,-8.69 5.55,-16.87 3.9,-8.17 6.07,-6.6 6.07,-6.6 0,0 -0.52,2.33 -1.87,6.68 z m -12.5,-29.54 c -2.17,6.07 -2.03,9.44 -2.03,9.44 0,0 2.03,1.58 4.06,-2.1 2.02,-3.67 7.57,-8.7 15.37,-14.25 6.19,-4.4 8.4,-15.52 0.75,-21.59 -4.85,-3.84 -14.4,-3.07 -23.77,6.82 -9.38,9.9 -12.68,25.65 -12.75,28.35 -0.07,2.7 1.5,2.47 1.5,2.47 0,0 5.92,-8.25 10.87,-13.57 4.95,-5.32 7.65,-7.87 11.25,-7.8 3.6,0.08 -3.07,6.15 -5.25,12.23 z m -21.99,55.22 c 0,0 1.32,0.21 3.29,-1.15 2.99,-2.09 7.33,-6.77 9.55,-13.11 3.38,-9.59 -0.04,-13.91 -3.9,-15.74 -5.84,-2.77 -22.29,5.66 -24.21,28.8 -0.23,2.69 2.69,2.67 2.69,2.67 0,0 7.78,-20.32 15.3,-17.66 3.6,1.27 -2.72,16.19 -2.72,16.19 z m -79.62,-16.19 c 7.52,-2.66 15.31,17.67 15.31,17.67 0,0 2.91,0.01 2.69,-2.68 -1.93,-23.14 -18.38,-31.57 -24.22,-28.8 -3.86,1.83 -7.27,6.15 -3.9,15.74 2.22,6.34 6.56,11.02 9.56,13.11 1.96,1.36 3.28,1.15 3.28,1.15 0,0 -6.32,-14.92 -2.72,-16.19 z m -24.52,-51.26 c 3.6,-0.07 6.3,2.48 11.25,7.8 4.95,5.32 10.87,13.57 10.87,13.57 0,0 1.58,0.23 1.5,-2.47 -0.07,-2.7 -3.37,-18.45 -12.74,-28.35 -9.38,-9.89 -18.93,-10.66 -23.78,-6.82 -7.64,6.07 -5.44,17.19 0.76,21.59 7.79,5.55 13.34,10.58 15.37,14.25 2.02,3.68 4.05,2.1 4.05,2.1 0,0 0.15,-3.37 -2.03,-9.44 -2.17,-6.08 -8.85,-12.15 -5.25,-12.23 z m -3.04,41.69 c 3.9,8.18 5.24,15 5.55,16.87 0.29,1.88 1.94,2.48 2.54,0.83 0.6,-1.65 0.68,-17.7 -5.55,-28.57 -5.99,-10.48 -12.37,-12.07 -17.47,-8.92 -5.09,3.15 1.2,12.89 3.23,16.27 2.02,3.37 2.55,7.65 2.55,7.65 0,0 4.2,5.62 5.47,4.5 0,0 0.83,-4.2 -0.52,-8.55 -1.35,-4.35 -1.88,-6.68 -1.88,-6.68 0,0 2.18,-1.57 6.08,6.6 z m -19.45,21.36 c 3.26,-1.51 11.8,12.27 11.8,12.27 0,0 3.67,1.22 2.74,-4.07 -1.17,-6.57 -11.05,-29.23 -22.62,-24 -11.24,5.08 1.91,27.08 4.36,29.47 1.1,1.08 3.6,2.67 4.59,0.81 0,0 -4.06,-13 -0.87,-14.48 z m -53.57,-98.73 c 3.02,3.16 7.41,10.62 9.1,11.09 1.68,0.46 1.29,-0.95 1.29,-0.95 1.08,-11.76 10.85,-125.78 37.24,-202.57 -2.16,-1.59 -4.5,-1.16 -6.2,0.17 -27.29,61.97 -44.44,189.1 -41.43,192.26 z m -14.33,23.28 c -1.97,-3 -6.48,-6.58 -6.6,-12.25 -0.11,-5.67 7.93,-10.33 9.46,-12.92 4.04,-43 26.32,-161.01 47.05,-198.72 -7.64,-10.98 -8.63,-20.52 -5.98,-37.33 -3.39,-1.7 -6.68,-3.68 -9.81,-5.98 l -17.2,-12.66 c 10.05,-3.06 19.58,-7.78 28.24,-14.15 l 73.52,-54.11 c 11.32,6.86 24.18,12.93 37.57,12.93 15.61,0 25.72,-6.86 39.88,-16.42 35.74,-24.11 35.74,-24.11 35.74,-24.11 0,0 17.29,11.41 17.31,11.43 l -105.07,75.36 c 1.36,2.92 3.53,8.45 3.65,14.23 -4.59,9.83 -5.79,24.81 -4.21,27.09 0.89,1.3 5.33,-2.31 8.87,-7.87 2.83,-4.45 3.66,-4.28 3.66,-4.28 0,0 0.83,-0.17 3.66,4.28 3.54,5.56 7.98,9.17 8.87,7.87 1.57,-2.28 0.38,-17.26 -4.21,-27.09 0.12,-5.78 2.39,-12.34 3.76,-14.72 l 43.54,-32.05 10.34,-7.68 c 0,0 33.6,26.52 44.97,35.15 8.56,6.49 18.18,11.08 28.23,14.14 l -17.2,12.66 c -3.13,2.3 -6.42,4.28 -9.81,5.98 2.65,16.81 1.66,26.35 -5.98,37.33 20.73,37.71 43.01,155.72 47.05,198.72 1.53,2.59 9.57,7.25 9.46,12.92 -0.12,5.67 -4.63,9.25 -6.6,12.25 -1.96,3.01 -1.38,4.74 -1.96,13.42 -0.58,8.67 0.46,17.92 0.46,17.92 0,0 6.71,8.44 5.55,17.58 -1.15,9.14 -9.59,15.49 -9.59,15.49 0,0 -2.78,17.93 -5.79,40.83 -3,22.89 -7.75,40.23 -7.75,40.23 0,0 2.56,14.98 1.28,31.69 -1.66,21.57 -13.57,41.46 -12.69,49.36 1.52,13.65 7.2,12.46 10.38,35.98 2.67,19.79 -8.91,33.31 -8.91,33.31 0,0 -3.47,-16.77 -11.68,-20.01 -8.21,-3.24 -11.56,-0.35 -20.82,-0.93 -4.5,-0.28 -11.79,-0.81 -21.39,-5.66 -15.84,9.25 -20.69,8.44 -34.46,7.74 -13.76,-0.69 -14.68,0.23 -26.59,3.13 -1.45,0.35 -7.2,1.75 -12.12,1.6 -4.92,0.15 -10.67,-1.25 -12.12,-1.6 -11.91,-2.9 -12.83,-3.82 -26.59,-3.13 -13.77,0.7 -18.62,1.51 -34.46,-7.74 -9.6,4.85 -16.89,5.38 -21.39,5.66 -9.26,0.58 -12.61,-2.31 -20.82,0.93 -8.21,3.24 -11.68,20.01 -11.68,20.01 0,0 -11.58,-13.52 -8.91,-33.31 3.18,-23.52 8.86,-22.33 10.38,-35.98 0.88,-7.9 -11.03,-27.79 -12.69,-49.36 -1.28,-16.71 1.28,-31.69 1.28,-31.69 0,0 -4.75,-17.34 -7.75,-40.23 -3.01,-22.9 -5.79,-40.83 -5.79,-40.83 0,0 -8.44,-6.35 -9.59,-15.49 -1.16,-9.14 5.55,-17.58 5.55,-17.58 0,0 1.04,-9.25 0.46,-17.92 -0.58,-8.68 0,-10.41 -1.96,-13.42 z m 49.51,251.79 c 13.13,0.08 16.27,-2.39 19.53,-5.36 0.53,-0.49 2.3,1.82 0.78,3.95 -1.94,2.71 -4.32,6.46 -5.78,7.18 -3.16,1.56 -7.4,1.89 -10.8,1.89 -6.15,0 -9.83,0.66 -14.22,2.29 -2.83,1.05 -4.49,2.2 -6.65,4.16 -1.18,-0.17 -1.16,-1.88 -0.65,-2.86 0.37,-0.7 4.83,-11.33 17.79,-11.25 z m 174.6,-95.18 c 8.8,3.92 11.59,14.86 7.45,24.16 -1.68,3.77 -5.22,5.39 -4.38,3.5 3.41,-7.64 1.11,-16.64 -6.12,-19.86 -7.23,-3.22 -15.4,0.19 -18.81,7.84 -1.54,3.45 -3.53,-0.5 -1.03,-6.11 4.14,-9.3 14.09,-13.46 22.89,-9.53 z m 19.02,89.82 c 3.25,2.97 6.39,5.44 19.52,5.36 12.96,-0.08 17.43,10.55 17.79,11.25 0.51,0.98 0.54,2.69 -0.65,2.86 -2.16,-1.96 -3.82,-3.11 -6.65,-4.16 -4.39,-1.63 -8.07,-2.29 -14.22,-2.29 -3.4,0 -7.64,-0.33 -10.8,-1.89 -1.45,-0.72 -3.84,-4.47 -5.77,-7.18 -1.53,-2.13 0.24,-4.44 0.78,-3.95 z m -354.52,-593.42 c 16.98,-16.51 35.52,-31.38 55.23,-44.5 0.17,0.13 2.55,1.88 35.85,26.39 12.57,9.25 27.48,14.14 43.09,14.14 15.61,0 30.51,-4.89 43.09,-14.14 l 14.59,-10.74 25.87,19.04 c 0,0 0,0 -71.44,48.56 -28.78,19.57 -66.21,20.63 -94.24,0 l -53.14,-37.71 c 0.36,-0.35 0.74,-0.69 1.1,-1.04 z m 199.44,503.6 c 8.8,-3.93 18.75,0.23 22.89,9.53 2.5,5.61 0.51,9.56 -1.03,6.11 -3.41,-7.65 -11.58,-11.06 -18.81,-7.84 -7.23,3.22 -9.53,12.22 -6.12,19.86 0.84,1.89 -2.7,0.27 -4.38,-3.5 -4.14,-9.3 -1.35,-20.24 7.45,-24.16 z m 79.72,-611.7 c -7.33,5.05 -31.36,21.65 -110.39,76.21 -21.03,14.52 -47.92,14.15 -69.21,0 -29.04,-19.3 -31.25,-20.77 -31.42,-20.88 63.03,-38.3 137.21,-57.99 211.02,-55.33 z m -46.13,91.78 -29.11,-21.42 c 18.87,-13.89 76.57,-56.48 94.75,-69.29 34.74,2.77 68.79,10.27 101.48,22.15 -7.54,5.15 -30.37,20.77 -99.7,68.19 -21.1,14.43 -46.84,15.52 -67.42,0.37 z m 111.03,26.03 27.19,-20.2 c 9.23,4.12 19.21,6.29 29.52,6.29 15.62,0 26.57,-6.38 40.73,-15.62 31.82,-20.74 37.14,-24.21 38.03,-24.79 20.22,13.39 39.07,28.65 56.37,45.51 l -56.55,37.63 c -28.03,20.62 -65.76,19.99 -94.25,0 -41.04,-28.82 -41.04,-28.82 -41.04,-28.82 z m 22.11,-41.6 -9.06,-7.04 c 4.93,-3.62 52.31,-38.5 55.67,-40.97 19.47,7.77 38.17,17.47 55.89,28.33 -3.76,2.25 -13.63,8.14 -39.55,23.61 -21.94,13.1 -42.37,11.22 -62.95,-3.93 z m -98.77,863.64 c -306.36,0 -555.6,-249.24 -555.6,-555.59 0,-306.36 249.24,-555.6 555.6,-555.6 306.36,0 555.59,249.24 555.59,555.6 0,306.35 -249.23,555.59 -555.59,555.59 z m 0,-1122.52 c -312.61,0 -566.93,254.32 -566.93,566.93 0,312.6 254.32,566.92 566.93,566.92 312.6,0 566.93,-254.32 566.93,-566.92 0,-312.61 -254.33,-566.93 -566.93,-566.93 z m 501.66,399.42 c -4.45,-13.62 -11.47,-20.84 -14.27,-23.34 -4.2,-0.78 -16.4,0.87 -24.13,3.03 -0.87,1.19 -0.4,3.72 0.78,4.05 9.07,-0.26 27.13,1.19 33.28,20.01 4.45,13.62 -2.3,23.19 -12.03,26.36 -7.14,2.34 -15.56,3.47 -27.05,-5.88 l -15.09,-12.13 c -8,-6.36 -20.32,-12.75 -33.62,-8.4 -15.4,5.03 -23.97,21.11 -17.09,42.2 1.65,5.02 4.53,10.54 7.04,14.39 1.33,1.89 2.4,4.06 2.82,5.36 4.37,0.18 13.93,-1.32 20.74,-3.54 0.77,-0.97 0.4,-3.72 -0.83,-4.22 -8.48,0.44 -20.45,-0.5 -25.53,-16.07 -5.19,-15.9 4.24,-22.75 11.7,-25.18 9.4,-3.07 18.76,2.49 24.45,7.27 l 12.34,10.33 c 9.66,8.15 22.36,15.13 37.76,10.1 17.84,-5.82 25.61,-23.26 18.73,-44.34 z m -138.17,-79.39 c -15.12,9.94 -17.73,11.24 -23.97,3.3 l -2.63,-3.38 c -1.13,-0.48 -3.52,1.49 -3.38,2.64 4.97,6.94 8.31,11.69 12.24,17.68 3.76,5.71 6.8,10.65 11.2,17.96 0.99,0.57 3.75,-0.83 3.76,-2.06 l -2.06,-3.75 c -4.82,-8.88 -2.59,-10.76 12.53,-20.7 l 50.76,-33.39 c 15.11,-9.94 17.3,-10.97 23.83,-3.21 l 2.77,3.29 c 1.13,0.47 3.51,-1.5 3.38,-2.63 -4.98,-6.94 -8.31,-11.69 -12.06,-17.4 -3.94,-5.99 -6.98,-10.93 -11.39,-18.25 -0.99,-0.58 -3.46,0.64 -3.75,2.06 l 1.92,3.84 c 4.53,9.07 2.72,10.67 -12.39,20.61 z m -14.84,-150.63 c -10.72,-9.53 -20.42,-12.22 -24.09,-12.98 -4.03,1.45 -13.73,9.03 -19.32,14.8 -0.15,1.46 1.53,3.41 2.72,3.1 7.7,-4.8 24.04,-12.65 38.83,0.5 10.71,9.53 9.7,21.18 2.9,28.84 -4.99,5.61 -11.69,10.84 -26.33,8.55 l -19.14,-2.86 c -10.12,-1.46 -23.98,-0.77 -33.28,9.69 -10.77,12.11 -10.06,30.32 6.52,45.06 3.95,3.52 9.22,6.83 13.33,8.88 2.11,0.97 4.12,2.3 5.15,3.21 3.86,-2.04 11.36,-8.16 16.12,-13.52 0.17,-1.22 -1.53,-3.41 -2.85,-3.21 -7.1,4.64 -17.91,9.87 -30.15,-1.01 -12.5,-11.12 -7.81,-21.79 -2.59,-27.65 6.57,-7.4 17.46,-7.31 24.78,-6.05 l 15.87,2.69 c 12.46,2.17 26.94,1.81 37.71,-10.31 12.47,-14.02 10.39,-33 -6.18,-47.73 z m -120.12,-46.41 c 1.91,-4.76 9.47,-23.6 11.6,-27.52 0.07,-1.08 -0.57,-2.26 -2.31,-2.96 -2.98,1.93 -9.79,5.63 -29.86,15.78 l -53.52,27.05 c -6.25,3.2 -22.23,11.86 -26.95,14 l -0.32,-0.12 c 0.13,-2.15 1.44,-5.86 3.34,-10.61 l 13.86,-34.52 c 2.99,-7.44 11.41,-27.96 16.01,-31.63 1.65,-1.36 5.2,-1.04 9.28,0.23 l 5.1,1.5 c 1.46,-0.89 2.06,-2.85 1.27,-4.09 -7.25,-2.55 -12.85,-4.61 -18.71,-6.96 -6.65,-2.68 -10.87,-4.55 -16.28,-7.09 -1.43,0.35 -2.47,2.5 -1.91,3.83 l 4.09,2.19 c 3.45,1.94 5.6,3.91 5.69,5.97 -0.07,6.59 -7.98,25.84 -11.03,33.44 l -18.37,45.76 c -1.78,4.44 -3.28,7.7 -8.06,10 -3.11,1.33 -7.35,0.91 -11.35,-0.13 l -2.82,-0.77 c -1.33,0.57 -2.28,2.95 -1.27,4.09 6.84,2.19 15.24,5.56 18.09,6.71 2.53,1.01 5.16,2.25 7.09,3.4 6.41,-6.81 33.48,-20.21 41.06,-23.97 l 22.29,-11.09 c 15.82,-7.81 27.14,-13.56 37.63,-18.18 l 0.32,0.13 c 0.31,1.05 -0.7,3.58 -2.04,6.9 l -13.6,33.89 c -2.99,7.44 -11.41,27.97 -16.33,31.51 -1.52,1.04 -4.44,0.98 -11.09,-0.78 l -2.81,-0.76 c -1.5,0.5 -2.35,3.1 -1.28,4.09 7.41,2.6 12.86,4.61 18.88,7.02 6.81,2.74 10.86,4.55 16.12,7.03 1.58,-0.29 2.47,-2.51 1.9,-3.84 l -2.09,-1.21 c -4.75,-2.82 -7.41,-5.36 -7.53,-6.88 -0.4,-6.78 7.8,-26.29 10.72,-33.57 z m -251.03,4.52 c -0.29,17.74 -0.67,20.29 -10.75,21.32 l -2.73,0.3 c -1.04,0.66 -0.75,3.74 0.27,4.27 7.34,-0.23 13.14,-0.3 20.13,-0.19 l 32.07,0.52 c 10.91,0.18 20.98,0.34 23.02,0.89 1.07,-2.89 2.29,-15.15 3.09,-22.65 -0.66,-1.03 -3.39,-1.41 -4.25,-0.4 -2.69,7.97 -4.33,13.91 -13.23,15.99 -3.6,0.79 -9.06,0.87 -16.56,0.75 l -12.28,-0.2 c -5.12,-0.08 -5.11,-0.42 -5.01,-6.9 l 0.55,-34.11 c 0.08,-4.78 0.59,-4.77 5.71,-4.69 l 9.89,0.16 c 7.17,0.12 12.45,0.55 14.48,1.26 2.04,0.71 3.22,1.76 4,6.04 l 1.25,7.01 c 0.84,1.04 3.74,1.08 4.44,-0.11 0.06,-4.1 -0.51,-10.76 -0.4,-17.24 0.1,-6.13 0.88,-12.6 0.94,-16.35 -0.66,-1.2 -3.56,-1.25 -4.43,-0.24 l -1.64,6.62 c -0.73,3.06 -1.97,5.6 -5.39,6.4 -2.4,0.64 -6.5,0.75 -13.15,0.64 l -9.89,-0.16 c -5.12,-0.08 -5.63,-0.26 -5.56,-4.7 l 0.39,-24.04 c 0.15,-9.05 0.75,-14.84 3.53,-17.69 2.08,-2.02 5.69,-3.84 20.7,-3.59 13.14,0.21 18.07,0.97 21.8,2.91 3.04,1.76 7.54,7.8 11.84,16.74 1.18,0.87 3.57,0.4 4.28,-1.12 -1.1,-5.99 -5.15,-19.19 -7.29,-23.83 -15.36,0.09 -30.54,0.01 -45.72,-0.23 l -15.35,-0.26 c -7.34,-0.11 -13.13,-0.38 -23.19,-0.88 -1.03,0.5 -1.42,3.22 -0.41,4.26 l 5.62,0.6 c 9.71,1.01 10.52,3.58 10.23,21.49 z m -84.97,-60 c -2.04,-6.51 -2.29,-10.72 0.28,-12.78 0.34,-0.65 0.03,-1.62 -0.77,-1.91 -1.95,0.61 -5.09,0.88 -8.44,1.04 -9.34,0.42 -21.67,2.13 -30.46,4.89 -19.38,6.06 -35.44,16.99 -44,33.61 -6.71,12.83 -7.89,27.32 -3.41,41.65 4.33,13.83 13.27,26.41 26.73,33.99 14.48,7.98 32.99,10.59 57.57,2.9 9.28,-2.91 17.35,-7.4 19.91,-8.92 2.89,-1.62 7.58,-4.34 9.64,-4.62 -1.68,-5.37 -3.36,-14.15 -4.95,-24.37 -0.9,-1.15 -3.88,-0.4 -4.55,0.88 0.95,19.01 -9.53,28.37 -26.14,33.57 -31.58,9.89 -52.45,-8.25 -60.09,-32.67 -9.79,-31.26 -1.37,-60.89 31.36,-71.13 10.09,-3.16 16.78,-2.93 19.43,-0.72 1.18,0.89 2.9,3.56 4.54,8.77 l 2.03,6.51 c 4.29,13.68 4.1,14.81 -5.63,19.11 l -6.91,3.05 c -1.1,1.06 -0.02,3.94 1.27,4.06 4.62,-1.8 13.52,-4.77 23.13,-7.77 6.35,-1.99 11.93,-3.56 17.41,-4.91 0.93,-1.01 0.33,-3.5 -1.11,-4.12 l -2.71,0.49 c -7.09,1.33 -8.68,-3.18 -11.28,-11.48 z m -177.6,133.35 c -1.79,-2.49 -2.88,-4.02 -2.87,-4.87 0.12,-0.71 2,-2.48 9.08,-7.55 4.99,-3.57 10.66,-6.79 16.87,-6.62 5.83,0.23 12.5,2.81 19.25,12.24 7.85,10.96 8.5,26.23 -6.9,37.26 -8.6,6.16 -9.42,5.89 -12.2,2.01 z m 2.82,27.99 c 9.43,13.18 10.71,15.84 5.51,20.6 l -4.04,3.73 c -0.47,1.4 1.11,3.61 2.62,3.37 8.27,-4.86 18.14,-11.3 31.74,-21.03 8.6,-6.16 16.29,-12.71 20.19,-20.75 4.17,-8.23 4.56,-17.95 -2.39,-27.66 -9.43,-13.19 -25,-12.95 -33.93,-10.76 -1.29,-0.34 -1.59,-2.22 -1.69,-3.83 -1.71,-25.84 -2.3,-42.2 1.47,-56.86 0.87,-3.77 3.25,-7.78 6.8,-10.74 0.49,-0.78 -0.17,-1.99 -1.26,-2.04 -1.54,0.47 -3.96,1.79 -6.6,3.67 -11.79,8.44 -16.38,16.98 -16.2,38.04 0.06,7.72 1.23,21.36 1.4,30.68 0.1,4.54 -1.13,7.52 -6.68,11.5 -6.24,4.46 -6.62,4.52 -8.7,1.61 L 2279,1516.1 c -10.42,-14.57 -11.34,-16.44 -4.09,-23.3 l 2.62,-2.51 c 0.34,-1.29 -1.63,-3.45 -2.76,-3.27 -6.04,4.75 -10.66,8.27 -16.21,12.24 -5.83,4.17 -10.92,7.61 -17.64,12 -0.54,1.01 0.68,3.29 2.2,3.66 l 3.77,-2.06 c 8.74,-4.79 10.31,-3.19 20.74,11.38 z m -85.84,97.17 c 14.19,10.66 16.03,12.47 10.94,21.23 l -1.36,2.39 c -0.08,1.23 2.59,2.8 3.61,2.29 4.13,-6.07 7.48,-10.81 11.68,-16.41 l 19.27,-25.65 c 6.55,-8.73 12.6,-16.78 14.24,-18.11 -1.71,-2.56 -10.92,-10.75 -16.51,-15.81 -1.23,-0.07 -3.14,1.91 -2.83,3.21 4.87,6.86 8.72,11.67 5.17,20.1 -1.47,3.38 -4.61,7.84 -9.12,13.85 l -7.38,9.82 c -3.07,4.09 -3.34,3.89 -8.53,0 l -27.29,-20.49 c -3.82,-2.88 -3.51,-3.29 -0.43,-7.38 l 5.94,-7.91 c 4.3,-5.73 7.75,-9.75 9.52,-10.98 1.78,-1.23 3.32,-1.57 7.24,0.31 l 6.41,3.11 c 1.33,-0.07 3.08,-2.39 2.53,-3.65 -3.27,-2.46 -9,-5.91 -14.19,-9.8 -4.91,-3.69 -9.68,-8.14 -12.69,-10.38 -1.36,-0.18 -3.1,2.14 -2.8,3.44 l 4.4,5.22 c 2.05,2.39 3.38,4.88 2.01,8.13 -0.89,2.32 -3.21,5.69 -7.21,11.02 l -5.94,7.91 c -3.07,4.09 -3.52,4.4 -7.07,1.73 l -19.23,-14.45 c -7.23,-5.43 -11.57,-9.32 -12.24,-13.24 -0.41,-2.87 0.24,-6.86 9.25,-18.87 7.89,-10.5 11.41,-14.05 15.17,-15.92 3.21,-1.44 10.75,-1.53 20.5,0.25 1.4,-0.45 2.43,-2.66 1.61,-4.13 -5.49,-2.63 -18.56,-7.11 -23.57,-8.1 -8.95,12.48 -17.93,24.73 -27.06,36.87 l -9.22,12.28 c -4.4,5.87 -8.02,10.4 -14.34,18.25 -0.21,1.12 1.77,3.03 3.21,2.83 l 3.79,-4.19 c 6.52,-7.27 9.08,-6.41 23.4,4.34 z m -67.58,97.49 c -4.49,-1.66 -4.75,-1.93 -1.42,-9.98 6.64,-16.1 14.69,-23.13 29.73,-17.6 15.7,5.77 17.32,19.64 12.85,31.8 -1.3,3.53 -2.5,5.81 -3.67,7.02 -1.07,1.42 -2.11,1.77 -4.99,0.71 z m -37.15,-13.66 c -5.76,-2.12 -13.81,-5.45 -16.21,-9.78 -2.57,-4.4 -1.6,-9.5 0.16,-14.3 5.25,-14.25 15.65,-22.79 31.67,-16.9 12.64,4.66 25.02,16.48 15.66,41.94 -3.18,8.64 -4.38,8.93 -7.58,7.75 z m 53.62,34.61 c 11.84,4.36 14.65,6.12 12.64,13.56 l -1.4,5.3 c 0.49,1.64 2.95,2.36 4.06,1.31 3.98,-8.35 8.46,-19.06 13.94,-33.95 3.71,-10.08 6.44,-19.99 5.41,-28.55 -0.83,-8.12 -5.3,-15.75 -15.54,-19.52 -11.53,-4.24 -19.93,0.3 -27.94,8.26 -1.6,-0.59 -1.61,-2.04 -1.29,-3.92 1.58,-9.24 -1.71,-24.99 -18.85,-31.29 -18.57,-6.83 -36.12,2.35 -46.72,31.17 -1.71,4.64 -4.11,12.67 -6.58,19.39 -2.59,7.04 -4.92,12.37 -7.26,18.23 0.13,1.14 2.57,2.4 3.89,1.79 l 1.54,-2.7 c 4.56,-7.96 6.44,-7.63 23.25,-1.45 z m 824.55,185.58 c -2.07,14.19 1.02,23.78 2.41,27.26 3.42,2.57 15.09,6.51 22.98,8 1.3,-0.67 2.01,-3.15 1.1,-3.98 -8.25,-3.78 -23.79,-13.12 -20.94,-32.71 2.07,-14.18 12.37,-19.76 22.5,-18.28 7.43,1.08 15.48,3.81 21.62,17.29 l 8.14,17.57 c 4.34,9.25 12.54,20.45 26.39,22.47 16.04,2.34 30.87,-8.27 34.06,-30.22 0.77,-5.24 0.64,-11.46 0.09,-16.02 -0.35,-2.3 -0.35,-4.71 -0.15,-6.06 -3.83,-2.11 -13.06,-5.01 -20.16,-6.04 -1.11,0.52 -2.01,3.15 -1.12,4.14 7.79,3.38 18.1,9.54 15.74,25.75 -2.41,16.55 -13.9,18.5 -21.67,17.37 -9.8,-1.43 -15.71,-10.57 -18.68,-17.38 l -6.48,-14.74 c -5.04,-11.6 -13.31,-23.5 -29.35,-25.84 -18.58,-2.7 -33.28,9.47 -36.48,31.42 z m 7.83,156.79 c -4.13,-0.49 -4.21,-0.72 -2.12,-5.02 l 9.17,-18.87 c 2.17,-4.44 2.93,-4.46 6.4,-1.06 l 20.98,20.44 c 3.09,3.02 6.56,6.41 7.95,8.22 l -0.15,0.31 c -0.99,0.09 -5.42,-0.17 -10.84,-0.72 z m 1.11,-37.02 c 2.85,2.71 3.01,3.55 0.78,8.15 l -11.26,23.17 c -1.87,3.83 -2.77,4.53 -6.52,4.04 l -18.72,-2.46 c -8.02,-1.05 -12.69,-1.99 -14.37,-2.81 -1.84,-0.9 -2.39,-2.11 -0.91,-5.94 l 2,-5.29 c -0.24,-1.44 -2.7,-2.64 -3.98,-1.56 -1.63,4.14 -3.95,8.9 -7.3,16.18 -2.46,5.06 -5.45,10.44 -7.61,14.51 0.16,1.22 2.47,2.72 3.68,2.17 l 2.92,-4.83 c 2.1,-3.54 5.43,-6.09 11.99,-5.56 8.4,0.67 20.46,1.22 40.78,3.13 l 49.03,4.48 c 6.57,0.53 9.93,1.03 12.16,2.68 2.86,-3.16 6.89,-4.42 9.71,-5.14 0.44,-0.92 0.66,-2.14 -0.27,-2.98 -5.78,-5.27 -11.64,-11.15 -17.28,-16.74 l -51.45,-50.98 c -11.04,-10.87 -12.37,-13.98 -9.93,-20.95 l 1.55,-4.37 c -0.24,-1.45 -2.85,-2.33 -3.83,-1.88 -2.75,6.44 -5.21,11.88 -8.57,18.79 -3.58,7.37 -6.71,13.05 -9.03,17.44 0.02,1.52 2.4,2.87 3.69,2.17 l 2.62,-4.23 c 1.87,-3.07 3.83,-4.77 5.37,-4.03 1.69,0.82 4.08,2.93 7.16,5.95 z m -89.3,111.56 c -13.1,-12.23 -14.73,-14.23 -8.6,-22.04 l 3.35,-4.34 c 0.2,-1.21 -2.28,-3.06 -3.35,-2.66 -6.39,7.33 -10.22,11.69 -14.88,16.68 -4.66,4.99 -8.86,9.24 -16.56,16.99 -0.32,1.09 1.56,3.32 3.12,2.9 l 4.56,-4.14 c 7.26,-6.52 9.72,-5.4 22.81,6.83 l 55.73,52.05 c 3.86,3.62 3.99,3.73 0.49,7.47 l -6.4,6.86 c -5.01,5.36 -11.66,11.98 -17.44,12.42 -5.54,0.43 -9.45,-0.88 -13.85,-2.43 -1.68,0.3 -2.68,2.63 -2.15,4.07 7.47,3.24 17.2,8.82 23,12.61 0.6,-0.14 2.24,-1.64 2.21,-2.37 -3.29,-4.47 0.68,-8.47 6.04,-14.21 l 47.16,-50.49 c 6.29,-6.73 7.59,-7.62 12.57,-6.47 0.84,-0.39 1.99,-1.87 1.73,-2.59 -6.4,-3.41 -17.31,-11.96 -20.7,-15.83 -1.46,-0.43 -3.44,1.69 -3.28,3.01 2.77,3.29 6.57,8.47 6.19,11.61 -0.56,4.86 -3.98,10.52 -10.39,17.38 l -8.27,8.85 c -3.49,3.74 -3.5,3.5 -7.61,-0.34 z m -67.53,133.79 c 9.55,15.36 10.79,18 2.69,24.04 l -3.44,2.54 c -0.51,1.12 1.4,3.55 2.54,3.43 7.06,-4.8 11.9,-8 17.99,-11.79 5.79,-3.6 10.81,-6.52 18.23,-10.72 0.6,-0.97 -0.73,-3.76 -1.96,-3.8 l -3.8,1.96 c -9,4.59 -10.82,2.31 -20.37,-13.05 l -32.07,-51.58 c -9.55,-15.36 -10.52,-17.57 -2.61,-23.9 l 3.36,-2.69 c 0.51,-1.11 -1.41,-3.54 -2.54,-3.43 -7.07,4.79 -11.91,7.99 -17.7,11.6 -6.09,3.78 -11.1,6.7 -18.53,10.92 -0.6,0.97 0.56,3.47 1.96,3.8 l 3.9,-1.82 c 9.18,-4.3 10.73,-2.45 20.28,12.91 z m -137.22,-35.96 c -13.67,4.31 -20.96,11.26 -23.49,14.03 -0.82,4.2 0.71,16.41 2.8,24.16 1.17,0.89 3.71,0.44 4.06,-0.74 -0.18,-9.07 1.46,-27.12 20.33,-33.08 13.67,-4.31 23.17,2.53 26.25,12.3 2.26,7.16 3.31,15.59 -6.16,26.99 l -12.27,14.97 c -6.44,7.93 -12.96,20.18 -8.74,33.53 4.87,15.46 20.87,24.19 42.02,17.51 5.05,-1.59 10.6,-4.41 14.47,-6.89 1.91,-1.32 4.09,-2.36 5.39,-2.77 0.23,-4.37 -1.18,-13.94 -3.34,-20.78 -0.96,-0.77 -3.72,-0.43 -4.22,0.8 0.35,8.48 -0.71,20.44 -16.33,25.37 -15.95,5.03 -22.7,-4.47 -25.06,-11.95 -2.98,-9.44 2.67,-18.74 7.51,-24.39 l 10.45,-12.24 c 8.25,-9.58 15.36,-22.2 10.49,-37.66 -5.65,-17.9 -23.01,-25.84 -44.16,-19.16 z m -134.98,83.33 c -0.04,-3.08 -0.08,-4.95 0.43,-5.64 0.5,-0.52 3.05,-0.91 11.75,-1.04 6.14,-0.11 12.63,0.47 17.64,4.15 4.66,3.5 8.68,9.41 8.87,21 0.22,13.48 -7.93,26.41 -26.86,26.72 -10.58,0.17 -11.1,-0.51 -11.18,-5.28 z m -13.59,24.61 c 0.27,16.21 -0.2,19.12 -7.18,20.08 l -5.44,0.77 c -1.18,0.87 -1.14,3.6 0.24,4.26 9.56,0.7 21.34,1.02 38.05,0.75 10.58,-0.17 20.63,-1.18 28.4,-5.58 8.12,-4.4 13.97,-12.17 13.77,-24.11 -0.26,-16.2 -13.2,-24.86 -21.78,-28.14 -0.87,-1.01 -0.04,-2.73 0.79,-4.1 13.29,-22.23 22.11,-36.02 33.55,-45.93 2.85,-2.61 7.09,-4.55 11.69,-4.96 0.84,-0.36 0.99,-1.73 0.13,-2.4 -1.54,-0.48 -4.28,-0.78 -7.52,-0.73 -14.5,0.23 -23.13,4.64 -34.96,22.06 -4.33,6.39 -11.13,18.27 -16.3,26.03 -2.49,3.8 -5.2,5.55 -12.02,5.65 -7.67,0.13 -8.02,-0.04 -8.07,-3.61 l -0.35,-21.5 c -0.29,-17.91 0.01,-19.96 9.88,-21.48 l 3.58,-0.57 c 1.01,-0.87 0.62,-3.77 -0.41,-4.26 -7.67,0.47 -13.47,0.73 -20.29,0.84 -7.16,0.12 -13.31,0.04 -21.33,-0.17 -1.02,0.53 -1.31,3.1 -0.27,4.27 l 4.27,0.44 c 9.91,1.04 10.29,3.25 10.58,21.16 z m -141.76,-29.18 c -5.08,17 -6.14,19.36 -16.13,17.62 l -2.71,-0.46 c -1.18,0.36 -1.73,3.41 -0.89,4.19 7.12,1.77 12.73,3.27 19.43,5.27 l 30.74,9.18 c 10.46,3.12 20.11,6 21.93,7.08 1.81,-2.49 6.3,-13.97 9.11,-20.97 -0.37,-1.17 -2.89,-2.28 -3.99,-1.55 -4.75,6.96 -7.93,12.24 -17.07,11.82 -3.67,-0.2 -8.96,-1.6 -16.15,-3.75 l -11.77,-3.51 c -4.9,-1.47 -4.81,-1.79 -2.95,-8.01 l 9.76,-32.69 c 1.37,-4.58 1.86,-4.44 6.76,-2.97 l 9.48,2.83 c 6.87,2.05 11.84,3.89 13.61,5.13 1.77,1.24 2.62,2.56 2.21,6.89 l -0.69,7.1 c 0.52,1.22 3.3,2.05 4.3,1.09 1.17,-3.92 2.42,-10.5 4.28,-16.7 1.75,-5.89 4.26,-11.91 5.33,-15.5 -0.31,-1.34 -3.09,-2.16 -4.2,-1.43 l -3.37,5.94 c -1.53,2.74 -3.41,4.86 -6.93,4.7 -2.48,-0.03 -6.45,-1.04 -12.83,-2.94 l -9.48,-2.83 c -4.91,-1.47 -5.35,-1.78 -4.08,-6.03 l 6.88,-23.05 c 2.59,-8.67 4.74,-14.08 8.19,-16.08 2.55,-1.37 6.52,-2.15 20.9,2.15 12.59,3.76 17.14,5.83 20.2,8.7 2.45,2.51 5.16,9.55 6.87,19.32 0.9,1.16 3.34,1.35 4.43,0.08 0.56,-6.07 0.23,-19.87 -0.57,-24.92 -14.81,-4.07 -29.42,-8.25 -43.97,-12.59 l -14.71,-4.39 c -7.03,-2.11 -12.54,-3.93 -22.09,-7.13 -1.13,0.19 -2.23,2.71 -1.55,3.98 l 5.25,2.11 c 9.08,3.6 9.16,6.29 4.04,23.46 z m -134.54,-63.19 c -8.42,5.99 -12.49,7.66 -19.16,4.46 l -2.78,-1.34 c -1.55,0.23 -2.68,2.34 -1.98,3.81 4.36,2.35 9.07,5.12 15.28,9.03 6.35,4 11.31,7.34 17.2,11.43 1.37,0.05 3.02,-1.93 2.56,-3.43 l -1.98,-1.66 c -5.03,-4.18 -5.64,-5.77 -5.06,-7.02 1.2,-1.26 8.57,-7.5 19.96,-15.66 17.2,-12.55 34.3,-24.97 51.89,-36.87 -1.53,12.35 -4.84,31.03 -6.34,40.78 -2,12.45 -5.5,33.04 -6.96,40.8 -0.76,3.76 -1.61,5.44 -2.25,6.45 -0.64,1.01 -2.81,1.25 -8.23,-1.36 l -2.78,-1.34 c -1.55,0.23 -2.63,2.57 -1.98,3.81 4.22,2.26 9.8,5.57 15.28,9.03 4.77,3 9.15,5.97 13.73,9.24 1.38,0.06 2.83,-2.25 2.56,-3.43 l -4.14,-3.02 c -3.29,-2.47 -4.36,-5.57 -4.32,-9.78 0.23,-9.33 1.97,-24.58 4.76,-43.4 l 3.4,-22.66 c 2.6,-16.93 6.37,-37.95 8.74,-47.15 -0.25,-0.56 -0.74,-1.07 -1.31,-1.43 -0.73,-0.46 -1.54,-0.77 -2.44,-0.93 -5.41,5.06 -12.47,10.49 -18.75,15.01 z m -57.69,-63.87 c -12.94,12.63 -15.25,14.42 -22.9,7.81 l -3.22,-2.81 c -1.2,-0.25 -3.16,2.14 -2.81,3.22 6.2,5.87 10.37,9.9 15.38,15.03 4.77,4.88 8.7,9.15 14.42,15.49 1.08,0.38 3.52,-1.53 3.29,-2.73 l -2.73,-3.29 c -6.43,-7.8 -4.59,-10.07 8.35,-22.71 l 43.45,-42.44 c 12.94,-12.64 14.89,-14.06 22.77,-7.7 l 3.35,2.7 c 1.2,0.25 3.16,-2.14 2.82,-3.23 -6.21,-5.87 -10.39,-9.9 -15.15,-14.78 -5.01,-5.12 -8.94,-9.39 -14.66,-15.73 -1.08,-0.38 -3.27,1.28 -3.29,2.73 l 2.61,3.41 c 6.18,8.04 4.71,9.95 -8.23,22.59 z m -1.6,-88.9 c 4.48,-2.49 22.23,-12.34 26.36,-14.04 0.73,-0.8 0.98,-2.11 0.07,-3.75 -3.53,-0.38 -11.15,-1.81 -33.13,-6.6 l -58.59,-12.75 c -6.86,-1.46 -24.72,-4.82 -29.74,-6.13 l -0.17,-0.3 c 1.46,-1.59 4.81,-3.65 9.28,-6.13 l 32.53,-18.05 c 7.01,-3.89 26.49,-14.5 32.37,-14.45 2.14,-0.01 4.69,2.48 7.06,6.04 l 3.01,4.37 c 1.69,0.24 3.4,-0.9 3.57,-2.37 -4.03,-6.55 -7.07,-11.68 -10.14,-17.2 -3.47,-6.27 -5.56,-10.38 -8.16,-15.77 -1.32,-0.62 -3.49,0.38 -3.89,1.78 l 1.78,4.28 c 1.46,3.67 1.89,6.56 0.66,8.22 -4.21,5.06 -22.49,15.01 -29.66,18.99 l -43.11,23.92 c -4.18,2.32 -7.4,3.91 -12.57,2.68 -3.24,-0.93 -6.28,-3.93 -8.71,-7.26 l -1.7,-2.37 c -1.4,-0.4 -3.64,0.84 -3.57,2.36 3.92,6.02 8.31,13.92 9.8,16.61 1.33,2.39 2.59,5.01 3.36,7.11 9.27,-1.23 38.73,5.45 46.98,7.31 l 24.3,5.44 c 17.2,3.93 29.61,6.6 40.66,9.64 l 0.16,0.3 c -0.41,1.01 -2.8,2.33 -5.93,4.07 l -31.93,17.72 c -7.01,3.89 -26.49,14.5 -32.54,14.15 -1.84,-0.15 -4.06,-2.04 -8.11,-7.6 l -1.71,-2.37 c -1.47,-0.54 -3.78,0.93 -3.57,2.35 4.11,6.7 7.08,11.69 10.22,17.36 3.56,6.42 5.56,10.38 8.08,15.63 1.41,0.79 3.5,-0.37 3.9,-1.77 l -0.87,-2.25 c -1.9,-5.19 -2.36,-8.83 -1.5,-10.1 3.97,-5.51 22.63,-15.48 29.5,-19.29 z m -105.14,-134.09 c -10.43,1.79 -29.83,4.75 -35.36,2.76 -2.22,-0.83 -3.92,-3.66 -4.97,-7.81 l -1.06,-4.14 c -1.35,-0.81 -3.48,-0.1 -3.98,1.02 1.43,6.33 2.66,12.52 3.78,19.09 1.21,7.06 1.82,11.63 2.52,17.74 1.07,1.21 3.23,0.67 4.09,-0.35 l -0.35,-4.1 c -0.38,-4.26 0.58,-7.71 2.6,-9.09 5.15,-3.31 24.49,-6.61 33.91,-8.22 l 19,-3.25 c 14.63,-2.5 29.7,-7.5 38.18,-18.64 6.67,-8.59 8.92,-21.78 6.79,-34.23 -1.98,-11.6 -6.15,-22.83 -14.63,-29.86 -8.92,-7.65 -21.92,-9.76 -41.93,-6.34 l -39.69,6.78 c -17.49,2.99 -20.41,3.15 -22.92,-6.47 l -1.05,-4.14 c -0.85,-0.89 -3.65,-0.07 -3.98,1.03 1.77,8.35 2.92,14.04 4.07,20.77 1.18,6.89 1.96,12.47 3.03,20.77 0.68,0.92 3.59,0.77 4.09,-0.35 l -0.35,-4.1 c -0.83,-9.9 1.97,-10.72 19.47,-13.71 l 36.32,-6.21 c 27.08,-4.63 46.35,0.73 50.74,26.46 4.17,24.39 -13.42,36.92 -38.98,41.28 l -19.34,3.31" style="fill:#231f20;fill-opacity:1;fill-rule:nonzero;stroke:none" transform="matrix(0.13333333,0,0,-0.13333333,0,373.73333)" />
			<path id="path3" d="m 521.32,914.77 c 0,20.898 -0.675,59.66 -6.406,69.769 -2.355,4.051 -8.43,6.41 -16.855,7.082 l -8.43,0.668 c -2.02,2.359 -1.348,6.75 0.684,8.101 12.804,-0.679 25.273,-1.019 38.417,-1.019 14.161,0 23.262,0.34 35.391,1.019 2.707,-1.691 2.363,-6.07 0.676,-8.101 l -8.086,-0.668 c -8.43,-0.672 -14.836,-3.711 -16.856,-8.09 -4.718,-11.121 -4.718,-49.883 -4.718,-68.761 v -38.09 c 0,-29.321 -4.715,-60.328 -23.594,-80.559 -14.492,-15.84 -39.434,-24.609 -64.375,-24.609 -23.262,0 -46.523,4.386 -63.035,18.539 -17.863,14.84 -26.289,39.437 -26.289,79.551 v 79.546 c 0,35.051 -0.676,40.793 -20.227,42.473 l -8.426,0.668 c -2.023,1.352 -1.347,7.082 0.672,8.101 16.856,-0.679 28.313,-1.019 41.797,-1.019 13.82,0 24.942,0.34 41.457,1.019 2.031,-1.019 2.703,-6.749 0.676,-8.101 l -8.09,-0.668 c -19.551,-1.68 -20.223,-7.422 -20.223,-42.473 V 876.34 c 0,-54.27 16.856,-89.988 68.426,-89.988 48.879,0 67.414,38.418 67.414,89.66 v 38.758" style="fill:#231f20;fill-opacity:1;fill-rule:nonzero;stroke:none" transform="matrix(0.13333333,0,0,-0.13333333,0,373.73333)" />
			<path id="path4" d="m 847.188,834.211 c 0,-10.109 0,-50.223 1.015,-58.992 -0.672,-2.02 -2.695,-3.707 -6.406,-3.707 -4.043,5.738 -13.817,17.527 -43.145,50.898 l -78.191,88.988 c -9.102,10.454 -32.023,38.09 -39.102,45.5 h -0.675 c -1.348,-4.039 -1.688,-11.789 -1.688,-21.91 v -73.476 c 0,-15.844 0.34,-59.66 6.063,-69.774 2.023,-3.707 8.769,-5.726 17.199,-6.398 l 10.449,-1.012 c 2.02,-2.699 1.68,-6.75 -0.676,-8.43 -15.176,0.672 -26.972,1.012 -39.441,1.012 -14.152,0 -23.254,-0.34 -35.047,-1.012 -2.367,1.68 -2.699,6.403 -0.676,8.43 l 9.102,1.012 c 7.742,1.012 13.144,3.031 14.824,6.73 4.715,12.141 4.383,53.258 4.383,69.442 v 97.418 c 0,9.429 -0.34,16.511 -7.41,24.261 -4.727,4.719 -12.813,7.079 -20.899,8.09 l -5.734,0.68 c -2.02,2.019 -2.02,7.078 0.676,8.429 14.16,-1.019 32.019,-1.019 38.086,-1.019 5.39,0 11.121,0.34 15.507,1.019 6.739,-17.199 46.512,-61.691 57.637,-74.16 l 32.695,-36.742 c 23.262,-25.957 39.774,-44.828 55.614,-61.008 h 0.675 c 1.348,1.688 1.348,7.079 1.348,14.161 v 72.129 c 0,15.839 -0.332,59.66 -6.738,69.769 -2.024,3.039 -7.414,5.063 -20.899,6.742 l -5.73,0.68 c -2.356,2.019 -2.024,7.41 0.672,8.429 15.508,-0.679 26.961,-1.019 39.773,-1.019 14.492,0 23.262,0.34 34.719,1.019 2.695,-1.691 2.695,-6.41 0.672,-8.429 l -4.715,-0.68 c -10.781,-1.679 -17.531,-4.383 -18.879,-7.082 -5.73,-12.129 -5.058,-53.929 -5.058,-69.429 v -80.559" style="fill:#231f20;fill-opacity:1;fill-rule:nonzero;stroke:none" transform="matrix(0.13333333,0,0,-0.13333333,0,373.73333)" />
			<path id="path5" d="m 976.906,948.141 c 0,35.73 -0.676,41.461 -20.558,43.14 l -8.426,0.68 c -2.024,1.348 -1.348,7.41 0.672,8.429 16.847,-0.679 28.312,-1.019 42.472,-1.019 13.474,0 24.944,0.34 41.794,1.019 2.02,-1.019 2.7,-7.081 0.68,-8.429 l -8.43,-0.68 c -19.89,-1.679 -20.57,-7.41 -20.57,-43.14 v -120 c 0,-35.731 0.68,-40.45 20.57,-42.801 l 8.43,-1.012 c 2.02,-1.348 1.34,-7.418 -0.68,-8.43 -16.85,0.672 -28.32,1.012 -41.794,1.012 -14.16,0 -25.625,-0.34 -42.472,-1.012 -2.02,1.012 -2.696,6.403 -0.672,8.43 l 8.426,1.012 c 19.882,2.351 20.558,7.07 20.558,42.801 v 120" style="fill:#231f20;fill-opacity:1;fill-rule:nonzero;stroke:none" transform="matrix(0.13333333,0,0,-0.13333333,0,373.73333)" />
			<path id="path6" d="m 1135.29,963.641 c -7.75,18.879 -12.81,25.961 -27.3,27.64 l -6.06,0.68 c -2.37,2.019 -2.04,6.738 0.67,8.429 9.76,-0.679 20.56,-1.019 35.05,-1.019 14.83,0 26.63,0.34 40.79,1.019 2.35,-1.351 3.03,-6.41 0.67,-8.429 l -5.06,-0.68 c -12.81,-1.679 -15.5,-3.703 -15.84,-6.402 0.68,-3.367 6.4,-21.57 16.85,-47.188 15.51,-39.101 31.02,-77.863 47.87,-116.293 10.45,22.25 24.6,56.961 32.35,74.832 9.78,22.918 25.62,61.008 31.35,75.5 2.7,7.079 3.04,10.79 3.04,13.149 0,2.359 -3.37,5.062 -15.17,6.402 l -6.07,0.68 c -2.35,2.019 -1.68,7.078 0.67,8.429 9.45,-0.679 22.25,-1.019 35.06,-1.019 11.12,0 21.57,0.34 32.7,1.019 2.36,-1.351 2.36,-6.749 0.67,-8.429 l -10.12,-0.68 c -8.08,-0.672 -13.14,-4.722 -17.52,-11.793 -9.44,-15.847 -22.58,-43.148 -37.75,-77.527 l -18.2,-41.461 c -13.49,-31.012 -29.33,-70.109 -35.06,-87.969 -1.01,-0.672 -2.36,-1.019 -3.7,-1.019 -1.69,0 -3.37,0.347 -5.06,1.019 -3.71,14.149 -9.78,30.668 -15.51,44.828 l -59.32,146.282" style="fill:#231f20;fill-opacity:1;fill-rule:nonzero;stroke:none" transform="matrix(0.13333333,0,0,-0.13333333,0,373.73333)" />
			<path id="path7" d="m 1433.2,948.809 c 0,35.062 -0.67,40.121 -20.55,42.472 l -5.4,0.68 c -2.02,1.348 -1.35,7.41 0.67,8.429 14.5,-0.679 25.96,-1.019 39.78,-1.019 h 63.37 c 21.57,0 41.46,0 45.5,1.019 2.03,-5.742 4.05,-29.999 5.39,-44.831 -1.34,-2.028 -6.73,-2.7 -8.42,-0.68 -5.06,15.84 -8.09,27.641 -25.62,32.019 -7.08,1.692 -17.86,2.032 -32.69,2.032 h -24.27 c -10.12,0 -10.12,-0.68 -10.12,-13.489 v -67.41 c 0,-9.441 1.02,-9.441 11.12,-9.441 h 19.56 c 14.16,0 24.6,0.672 28.65,2.019 4.04,1.352 6.4,3.371 8.08,11.801 l 2.71,13.82 c 1.68,2.02 7.41,2.02 8.76,-0.339 0,-8.09 -1.35,-21.231 -1.35,-34.039 0,-12.133 1.35,-24.954 1.35,-32.364 -1.35,-2.359 -7.08,-2.359 -8.76,-0.34 l -3.04,13.153 c -1.35,6.058 -3.71,11.117 -10.45,12.808 -4.71,1.34 -12.81,1.68 -25.95,1.68 h -19.56 c -10.1,0 -11.12,-0.34 -11.12,-9.098 v -47.523 c 0,-17.867 1.02,-29.328 6.41,-35.059 4.04,-4.05 11.12,-7.75 40.78,-7.75 25.96,0 35.73,1.352 43.14,5.051 6.08,3.379 15.18,15.168 23.94,32.699 2.36,1.692 7.08,0.68 8.43,-2.359 -2.37,-11.801 -10.79,-37.75 -15.17,-46.852 -30.34,0.672 -60.34,1.012 -90.33,1.012 h -30.34 c -14.5,0 -25.96,-0.34 -45.84,-1.012 -2.02,1.012 -2.7,6.403 -0.68,8.43 l 11.13,1.012 c 19.21,1.68 20.89,6.73 20.89,42.129 v 121.34" style="fill:#231f20;fill-opacity:1;fill-rule:nonzero;stroke:none" transform="matrix(0.13333333,0,0,-0.13333333,0,373.73333)" />
			<path id="path8" d="m 1704.83,900.27 c 0,-6.059 0,-9.77 1.01,-11.122 1.01,-1.007 6.07,-1.679 23.25,-1.679 12.14,0 24.95,1.34 34.73,8.761 9.09,7.079 16.85,18.879 16.85,41.801 0,26.617 -16.52,51.91 -53.93,51.91 -20.9,0 -21.91,-1.351 -21.91,-10.793 z m -27.64,48.21 c 0,32.02 -1.02,37.75 -14.83,39.43 l -10.79,1.352 c -2.36,1.687 -2.36,7.078 0.34,8.429 18.87,1.68 42.13,2.699 75.16,2.699 20.9,0 40.79,-1.691 56.29,-10.12 16.18,-8.418 27.98,-23.59 27.98,-47.192 0,-32.019 -25.27,-49.547 -42.13,-56.289 -1.69,-2.019 0,-5.391 1.68,-8.09 26.97,-43.48 44.83,-70.437 67.75,-89.66 5.74,-5.051 14.16,-8.758 23.27,-9.437 1.68,-0.672 2.02,-3.364 0.33,-4.711 -3.04,-1.012 -8.43,-1.692 -14.84,-1.692 -28.64,0 -45.84,8.43 -69.76,42.469 -8.77,12.473 -22.59,35.73 -33.04,50.902 -5.06,7.41 -10.45,10.782 -23.92,10.782 -15.18,0 -15.85,-0.332 -15.85,-7.411 v -42.472 c 0,-35.399 0.67,-39.438 20.22,-42.129 l 7.08,-1.012 c 2.02,-1.687 1.35,-7.418 -0.67,-8.43 -15.17,0.672 -26.63,1.012 -40.11,1.012 -14.16,0 -26.3,-0.34 -42.14,-1.012 -2.02,1.012 -2.69,6.063 -0.67,8.43 l 8.42,1.012 c 19.56,2.351 20.23,6.73 20.23,42.129 V 948.48" style="fill:#231f20;fill-opacity:1;fill-rule:nonzero;stroke:none" transform="matrix(0.13333333,0,0,-0.13333333,0,373.73333)" />
			<path id="path9" d="m 1980.82,771.512 c -28.31,0 -46.17,8.769 -52.58,12.476 -4.04,7.41 -8.42,31.352 -9.1,47.192 1.69,2.351 6.74,3.031 8.1,1.011 5.05,-17.191 18.87,-50.23 57.97,-50.23 28.32,0 42.14,18.539 42.14,38.769 0,14.829 -3.04,31.34 -27.65,47.18 l -32.02,20.899 c -16.85,11.132 -36.4,30.339 -36.4,57.98 0,32.02 24.94,57.981 68.76,57.981 10.45,0 22.58,-2.03 31.35,-4.38 4.38,-1.351 9.1,-2.031 11.8,-2.031 3.03,-8.089 6.06,-26.961 6.06,-41.121 -1.35,-2.019 -6.74,-3.039 -8.43,-1.008 -4.37,16.18 -13.47,38.09 -45.84,38.09 -33.03,0 -40.11,-21.91 -40.11,-37.422 0,-19.546 16.19,-33.699 28.66,-41.457 l 26.96,-16.851 c 21.23,-13.149 42.13,-32.699 42.13,-64.719 0,-37.07 -27.97,-62.359 -71.8,-62.359" style="fill:#231f20;fill-opacity:1;fill-rule:nonzero;stroke:none" transform="matrix(0.13333333,0,0,-0.13333333,0,373.73333)" />
			<path id="path10" d="m 2153.7,948.141 c 0,35.73 -0.67,41.461 -20.55,43.14 l -8.43,0.68 c -2.02,1.348 -1.35,7.41 0.67,8.429 16.85,-0.679 28.31,-1.019 42.47,-1.019 13.48,0 24.94,0.34 41.8,1.019 2.02,-1.019 2.7,-7.081 0.67,-8.429 l -8.42,-0.68 c -19.9,-1.679 -20.57,-7.41 -20.57,-43.14 v -120 c 0,-35.731 0.67,-40.45 20.57,-42.801 l 8.42,-1.012 c 2.03,-1.348 1.35,-7.418 -0.67,-8.43 -16.86,0.672 -28.32,1.012 -41.8,1.012 -14.16,0 -25.62,-0.34 -42.47,-1.012 -2.02,1.012 -2.69,6.403 -0.67,8.43 l 8.43,1.012 c 19.88,2.351 20.55,7.07 20.55,42.801 v 120" style="fill:#231f20;fill-opacity:1;fill-rule:nonzero;stroke:none" transform="matrix(0.13333333,0,0,-0.13333333,0,373.73333)" />
			<path id="path11" d="m 2395.69,827.469 c 0,-35.399 0.68,-40.449 20.23,-42.129 l 10.78,-1.012 c 2.02,-1.348 1.35,-7.418 -0.67,-8.43 -19.21,0.672 -30.68,1.012 -44.15,1.012 -13.49,0 -25.29,-0.34 -46.86,-1.012 -2.02,1.012 -2.69,6.743 0,8.43 l 12.13,1.012 c 19.22,1.68 20.9,6.73 20.9,42.129 v 150.672 c 0,10.449 0,10.789 -10.11,10.789 h -18.53 c -14.51,0 -33.04,-0.68 -41.47,-8.43 -8.08,-7.422 -11.45,-14.84 -15.17,-23.262 -2.69,-2.019 -7.41,-0.34 -8.75,2.364 5.39,15.168 10.44,36.738 12.8,50.218 1.01,0.68 5.39,1.01 6.4,0 2.03,-10.781 13.15,-10.449 28.66,-10.449 h 136.51 c 18.19,0 21.23,0.679 26.29,9.439 1.68,0.68 5.39,0.34 6.06,-1.01 -3.71,-13.82 -6.06,-41.12 -5.05,-51.23 -1.35,-2.699 -7.08,-2.699 -8.76,-0.679 -1.02,8.429 -3.37,20.898 -8.43,24.609 -7.76,5.73 -20.56,8.43 -39.1,8.43 h -23.93 c -10.12,0 -9.78,-0.34 -9.78,-11.461 v -150" style="fill:#231f20;fill-opacity:1;fill-rule:nonzero;stroke:none" transform="matrix(0.13333333,0,0,-0.13333333,0,373.73333)" />
			<path id="path12" d="m 2591.12,948.809 c 0,35.062 -0.67,40.121 -20.55,42.472 l -5.4,0.68 c -2.02,1.348 -1.35,7.41 0.67,8.429 14.49,-0.679 25.96,-1.019 39.78,-1.019 h 63.37 c 21.57,0 41.46,0 45.5,1.019 2.03,-5.742 4.05,-29.999 5.39,-44.831 -1.34,-2.028 -6.73,-2.7 -8.42,-0.68 -5.06,15.84 -8.09,27.641 -25.62,32.019 -7.08,1.692 -17.86,2.032 -32.69,2.032 h -24.27 c -10.12,0 -10.12,-0.68 -10.12,-13.489 v -67.41 c 0,-9.441 1.02,-9.441 11.12,-9.441 h 19.56 c 14.16,0 24.6,0.672 28.65,2.019 4.04,1.352 6.4,3.371 8.08,11.801 l 2.71,13.82 c 1.68,2.02 7.41,2.02 8.76,-0.339 0,-8.09 -1.35,-21.231 -1.35,-34.039 0,-12.133 1.35,-24.954 1.35,-32.364 -1.35,-2.359 -7.08,-2.359 -8.76,-0.34 l -3.04,13.153 c -1.35,6.058 -3.71,11.117 -10.45,12.808 -4.71,1.34 -12.81,1.68 -25.95,1.68 h -19.56 c -10.1,0 -11.12,-0.34 -11.12,-9.098 v -47.523 c 0,-17.867 1.02,-29.328 6.41,-35.059 4.04,-4.05 11.12,-7.75 40.78,-7.75 25.96,0 35.73,1.352 43.14,5.051 6.08,3.379 15.18,15.168 23.94,32.699 2.36,1.692 7.08,0.68 8.43,-2.359 -2.37,-11.801 -10.79,-37.75 -15.17,-46.852 -30.34,0.672 -60.34,1.012 -90.33,1.012 h -30.34 c -14.5,0 -25.96,-0.34 -45.84,-1.012 -2.02,1.012 -2.7,6.403 -0.68,8.43 l 11.13,1.012 c 19.21,1.68 20.89,6.73 20.89,42.129 v 121.34" style="fill:#231f20;fill-opacity:1;fill-rule:nonzero;stroke:none" transform="matrix(0.13333333,0,0,-0.13333333,0,373.73333)" />
			<path id="path13" d="m 2916.01,827.469 c 0,-35.399 0.67,-40.449 20.22,-42.129 l 10.78,-1.012 c 2.02,-1.348 1.35,-7.418 -0.67,-8.43 -19.21,0.672 -30.67,1.012 -44.15,1.012 -13.49,0 -25.28,-0.34 -46.86,-1.012 -2.02,1.012 -2.69,6.743 0,8.43 l 12.13,1.012 c 19.22,1.68 20.9,6.73 20.9,42.129 v 150.672 c 0,10.449 0,10.789 -10.11,10.789 h -18.53 c -14.5,0 -33.04,-0.68 -41.47,-8.43 -8.08,-7.422 -11.45,-14.84 -15.16,-23.262 -2.7,-2.019 -7.41,-0.34 -8.76,2.364 5.39,15.168 10.45,36.738 12.8,50.218 1.02,0.68 5.39,1.01 6.41,0 2.02,-10.781 13.14,-10.449 28.65,-10.449 h 136.51 c 18.2,0 21.23,0.679 26.29,9.439 1.68,0.68 5.39,0.34 6.07,-1.01 -3.71,-13.82 -6.07,-41.12 -5.06,-51.23 -1.35,-2.699 -7.07,-2.699 -8.76,-0.679 -1.02,8.429 -3.37,20.898 -8.43,24.609 -7.75,5.73 -20.56,8.43 -39.1,8.43 h -23.93 c -10.11,0 -9.77,-0.34 -9.77,-11.461 v -150" style="fill:#231f20;fill-opacity:1;fill-rule:nonzero;stroke:none" transform="matrix(0.13333333,0,0,-0.13333333,0,373.73333)" />
			<path id="path14" d="m 3133.01,771.512 c -28.31,0 -46.17,8.769 -52.58,12.476 -4.04,7.41 -8.43,31.352 -9.1,47.192 1.69,2.351 6.74,3.031 8.1,1.011 5.04,-17.191 18.86,-50.23 57.96,-50.23 28.32,0 42.14,18.539 42.14,38.769 0,14.829 -3.03,31.34 -27.64,47.18 l -32.03,20.899 c -16.84,11.132 -36.39,30.339 -36.39,57.98 0,32.02 24.94,57.981 68.76,57.981 10.45,0 22.58,-2.03 31.35,-4.38 4.38,-1.351 9.1,-2.031 11.79,-2.031 3.04,-8.089 6.07,-26.961 6.07,-41.121 -1.35,-2.019 -6.74,-3.039 -8.43,-1.008 -4.38,16.18 -13.48,38.09 -45.84,38.09 -33.03,0 -40.11,-21.91 -40.11,-37.422 0,-19.546 16.18,-33.699 28.65,-41.457 l 26.97,-16.851 c 21.23,-13.149 42.13,-32.699 42.13,-64.719 0,-37.07 -27.97,-62.359 -71.8,-62.359" style="fill:#231f20;fill-opacity:1;fill-rule:nonzero;stroke:none" transform="matrix(0.13333333,0,0,-0.13333333,0,373.73333)" />
			<path id="path15" d="m 3400.62,866.898 c 7.74,-15.839 15.16,-31.339 23.25,-46.168 h 0.67 c 9.1,15.84 17.53,33.372 25.96,50.559 l 31.68,64.379 c 15.18,30.672 24.95,49.211 25.62,64.722 11.46,-1.019 18.54,-1.019 25.28,-1.019 8.43,0 19.55,0.34 30,1.019 2.02,-1.351 2.02,-7.081 0.34,-8.429 l -7.08,-0.68 c -21.24,-2.019 -23.94,-8.422 -23.59,-32.019 0.67,-35.731 1,-98.082 3.7,-146.621 1.01,-16.852 0.67,-25.961 16.52,-27.301 l 10.78,-1.012 c 2.02,-2.027 1.69,-7.078 -0.67,-8.43 -13.82,0.672 -27.64,1.012 -39.78,1.012 -11.79,0 -26.96,-0.34 -40.78,-1.012 -2.36,1.68 -2.69,6.403 -0.67,8.43 l 9.77,1.012 c 16.52,1.68 16.52,7.07 16.52,28.64 l -1.01,140.559 h -0.68 c -2.36,-3.711 -15.17,-30.668 -21.91,-43.82 l -30,-58.981 c -15.16,-29.668 -30.33,-61.347 -36.4,-76.847 -0.68,-1.012 -2.03,-1.352 -3.37,-1.352 -0.68,0 -2.36,0.34 -3.03,1.352 -5.73,17.859 -21.91,50.898 -29.67,67.41 l -30.33,65.051 c -7.08,15.507 -14.16,33.039 -21.57,48.539 h -0.68 c -1.34,-20.903 -2.36,-40.45 -3.37,-60 -1.01,-20.563 -2.36,-50.563 -2.36,-79.211 0,-24.942 2.02,-30.328 15.17,-31.34 l 12.81,-1.012 c 2.35,-2.027 2.02,-7.418 -0.34,-8.43 -11.46,0.672 -24.6,1.012 -37.41,1.012 -10.79,0 -22.92,-0.34 -34.39,-1.012 -2.02,1.68 -2.69,6.743 -0.67,8.43 l 7.42,1.012 c 14.15,2.019 18.88,4.039 20.9,27.629 2.02,22.25 3.7,40.793 5.73,74.16 1.68,27.98 3.03,56.621 3.7,75.16 0.68,21.242 -2.02,26.301 -22.58,28.992 l -5.4,0.68 c -1.68,2.019 -1.34,7.078 1.35,8.429 10.12,-0.679 18.2,-1.019 26.63,-1.019 7.76,0 16.86,0 27.98,1.019 -1.35,-13.152 7.08,-34.05 17.53,-55.62 l 38.43,-77.872" style="fill:#231f20;fill-opacity:1;fill-rule:nonzero;stroke:none" transform="matrix(0.13333333,0,0,-0.13333333,0,373.73333)" />
			<path id="path16" d="m 3827.94,914.77 c 0,20.898 -0.67,59.66 -6.41,69.769 -2.35,4.051 -8.42,6.41 -16.85,7.082 l -8.43,0.668 c -2.02,2.359 -1.35,6.75 0.69,8.101 12.8,-0.679 25.27,-1.019 38.41,-1.019 14.16,0 23.26,0.34 35.39,1.019 2.71,-1.691 2.37,-6.07 0.68,-8.101 l -8.09,-0.668 c -8.43,-0.672 -14.83,-3.711 -16.85,-8.09 -4.72,-11.121 -4.72,-49.883 -4.72,-68.761 v -38.09 c 0,-29.321 -4.72,-60.328 -23.59,-80.559 -14.5,-15.84 -39.44,-24.609 -64.38,-24.609 -23.26,0 -46.52,4.386 -63.04,18.539 -17.86,14.84 -26.29,39.437 -26.29,79.551 v 79.546 c 0,35.051 -0.67,40.793 -20.22,42.473 l -8.43,0.668 c -2.02,1.352 -1.35,7.082 0.68,8.101 16.85,-0.679 28.31,-1.019 41.79,-1.019 13.82,0 24.94,0.34 41.46,1.019 2.03,-1.019 2.7,-6.749 0.67,-8.101 l -8.08,-0.668 c -19.56,-1.68 -20.23,-7.422 -20.23,-42.473 V 876.34 c 0,-54.27 16.86,-89.988 68.43,-89.988 48.88,0 67.41,38.418 67.41,89.66 v 38.758" style="fill:#231f20;fill-opacity:1;fill-rule:nonzero;stroke:none" transform="matrix(0.13333333,0,0,-0.13333333,0,373.73333)" />
			<path id="path17" d="m 3998.09,771.512 c -28.31,0 -46.17,8.769 -52.58,12.476 -4.04,7.41 -8.43,31.352 -9.1,47.192 1.69,2.351 6.74,3.031 8.09,1.011 5.05,-17.191 18.87,-50.23 57.97,-50.23 28.32,0 42.14,18.539 42.14,38.769 0,14.829 -3.04,31.34 -27.65,47.18 l -32.02,20.899 c -16.84,11.132 -36.39,30.339 -36.39,57.98 0,32.02 24.94,57.981 68.76,57.981 10.45,0 22.57,-2.03 31.34,-4.38 4.39,-1.351 9.11,-2.031 11.8,-2.031 3.04,-8.089 6.07,-26.961 6.07,-41.121 -1.35,-2.019 -6.74,-3.039 -8.43,-1.008 -4.38,16.18 -13.48,38.09 -45.84,38.09 -33.03,0 -40.11,-21.91 -40.11,-37.422 0,-19.546 16.18,-33.699 28.65,-41.457 l 26.97,-16.851 c 21.23,-13.149 42.12,-32.699 42.12,-64.719 0,-37.07 -27.96,-62.359 -71.79,-62.359" style="fill:#231f20;fill-opacity:1;fill-rule:nonzero;stroke:none" transform="matrix(0.13333333,0,0,-0.13333333,0,373.73333)" />
			<path id="path18" d="m 4177.71,948.809 c 0,35.062 -0.68,40.121 -20.56,42.472 l -5.4,0.68 c -2.02,1.348 -1.35,7.41 0.67,8.429 14.5,-0.679 25.96,-1.019 39.78,-1.019 h 63.37 c 21.57,0 41.46,0 45.51,1.019 2.02,-5.742 4.04,-29.999 5.39,-44.831 -1.35,-2.028 -6.74,-2.7 -8.43,-0.68 -5.06,15.84 -8.09,27.641 -25.62,32.019 -7.08,1.692 -17.86,2.032 -32.69,2.032 h -24.27 c -10.12,0 -10.12,-0.68 -10.12,-13.489 v -67.41 c 0,-9.441 1.02,-9.441 11.13,-9.441 h 19.55 c 14.16,0 24.61,0.672 28.65,2.019 4.04,1.352 6.41,3.371 8.09,11.801 l 2.7,13.82 c 1.68,2.02 7.41,2.02 8.76,-0.339 0,-8.09 -1.35,-21.231 -1.35,-34.039 0,-12.133 1.35,-24.954 1.35,-32.364 -1.35,-2.359 -7.08,-2.359 -8.76,-0.34 l -3.04,13.153 c -1.34,6.058 -3.71,11.117 -10.45,12.808 -4.71,1.34 -12.81,1.68 -25.95,1.68 h -19.55 c -10.11,0 -11.13,-0.34 -11.13,-9.098 v -47.523 c 0,-17.867 1.02,-29.328 6.41,-35.059 4.04,-4.05 11.12,-7.75 40.78,-7.75 25.96,0 35.73,1.352 43.15,5.051 6.07,3.379 15.17,15.168 23.93,32.699 2.36,1.692 7.08,0.68 8.43,-2.359 -2.36,-11.801 -10.79,-37.75 -15.17,-46.852 -30.34,0.672 -60.34,1.012 -90.33,1.012 h -30.34 c -14.49,0 -25.96,-0.34 -45.84,-1.012 -2.02,1.012 -2.7,6.403 -0.67,8.43 l 11.12,1.012 c 19.21,1.68 20.9,6.73 20.9,42.129 v 121.34" style="fill:#231f20;fill-opacity:1;fill-rule:nonzero;stroke:none" transform="matrix(0.13333333,0,0,-0.13333333,0,373.73333)" />
			<path id="path19" d="m 4421.7,948.809 c 0,35.062 -0.67,40.121 -20.56,42.472 l -5.4,0.68 c -2.02,1.348 -1.34,7.41 0.68,8.429 14.5,-0.679 25.95,-1.019 39.77,-1.019 h 63.37 c 21.57,0 41.47,0 45.51,1.019 2.02,-5.742 4.04,-29.999 5.39,-44.831 -1.35,-2.028 -6.74,-2.7 -8.43,-0.68 -5.06,15.84 -8.08,27.641 -25.61,32.019 -7.08,1.692 -17.86,2.032 -32.7,2.032 h -24.27 c -10.11,0 -10.11,-0.68 -10.11,-13.489 v -67.41 c 0,-9.441 1.01,-9.441 11.12,-9.441 h 19.55 c 14.16,0 24.61,0.672 28.65,2.019 4.05,1.352 6.41,3.371 8.09,11.801 l 2.7,13.82 c 1.68,2.02 7.42,2.02 8.76,-0.339 0,-8.09 -1.34,-21.231 -1.34,-34.039 0,-12.133 1.34,-24.954 1.34,-32.364 -1.34,-2.359 -7.08,-2.359 -8.76,-0.34 l -3.03,13.153 c -1.35,6.058 -3.71,11.117 -10.45,12.808 -4.72,1.34 -12.81,1.68 -25.96,1.68 h -19.55 c -10.11,0 -11.12,-0.34 -11.12,-9.098 v -47.523 c 0,-17.867 1.01,-29.328 6.4,-35.059 4.05,-4.05 11.13,-7.75 40.78,-7.75 25.96,0 35.74,1.352 43.15,5.051 6.07,3.379 15.18,15.168 23.94,32.699 2.36,1.692 7.08,0.68 8.42,-2.359 -2.36,-11.801 -10.79,-37.75 -15.16,-46.852 -30.35,0.672 -60.35,1.012 -90.34,1.012 h -30.34 c -14.49,0 -25.95,-0.34 -45.84,-1.012 -2.02,1.012 -2.69,6.403 -0.67,8.43 l 11.12,1.012 c 19.21,1.68 20.9,6.73 20.9,42.129 v 121.34" style="fill:#231f20;fill-opacity:1;fill-rule:nonzero;stroke:none" transform="matrix(0.13333333,0,0,-0.13333333,0,373.73333)" />
			<path id="path20" d="m 4746.58,827.469 c 0,-35.399 0.68,-40.449 20.23,-42.129 l 10.78,-1.012 c 2.02,-1.348 1.35,-7.418 -0.67,-8.43 -19.21,0.672 -30.68,1.012 -44.15,1.012 -13.49,0 -25.29,-0.34 -46.86,-1.012 -2.02,1.012 -2.7,6.743 0,8.43 l 12.14,1.012 c 19.21,1.68 20.89,6.73 20.89,42.129 v 150.672 c 0,10.449 0,10.789 -10.11,10.789 h -18.54 c -14.5,0 -33.03,-0.68 -41.46,-8.43 -8.09,-7.422 -11.46,-14.84 -15.17,-23.262 -2.69,-2.019 -7.41,-0.34 -8.76,2.364 5.39,15.168 10.45,36.738 12.81,50.218 1.01,0.68 5.39,1.01 6.4,0 2.02,-10.781 13.15,-10.449 28.66,-10.449 h 136.51 c 18.2,0 21.23,0.679 26.29,9.439 1.68,0.68 5.39,0.34 6.06,-1.01 -3.71,-13.82 -6.06,-41.12 -5.06,-51.23 -1.34,-2.699 -7.07,-2.699 -8.76,-0.679 -1.01,8.429 -3.37,20.898 -8.42,24.609 -7.76,5.73 -20.56,8.43 -39.11,8.43 h -23.92 c -10.12,0 -9.78,-0.34 -9.78,-11.461 v -150" style="fill:#231f20;fill-opacity:1;fill-rule:nonzero;stroke:none" transform="matrix(0.13333333,0,0,-0.13333333,0,373.73333)" />
		</g>
	</g>
</svg>
