<?xml version="1.0" encoding="utf-8"?>
<!-- Generator: Adobe Illustrator 22.0.1, SVG Export Plug-In . SVG Version: 6.00 Build 0)  -->
<svg version="1.1" id="Layer_2" xmlns="http://www.w3.org/2000/svg" xmlns:xlink="http://www.w3.org/1999/xlink" x="0px" y="0px"
	 viewBox="0 0 411 99.2" style="enable-background:new 0 0 411 99.2;" xml:space="preserve">
<g>
	<path d="M21.6,41.9c-0.6-0.1-1.8-0.3-2.2-0.2c-0.1,0.1-0.2,0.2-0.3,0.5L19,42.4c-0.1,0.1-0.2,0-0.2-0.1c0.1-0.4,0.2-0.8,0.2-1.2
		c0.1-0.4,0.1-0.7,0.2-1.1c0.1-0.1,0.2,0,0.3,0l0,0.3c0,0.3,0,0.5,0.2,0.6c0.3,0.2,1.5,0.4,2.1,0.5l1.2,0.2c0.9,0.2,1.8,0.5,2.3,1.2
		c0.4,0.5,0.5,1.3,0.4,2.1c-0.1,0.7-0.4,1.4-0.9,1.8c-0.5,0.5-1.3,0.6-2.6,0.4l-2.4-0.4c-1.1-0.2-1.3-0.2-1.4,0.4l-0.1,0.3
		c-0.1,0.1-0.2,0-0.2-0.1c0.1-0.5,0.2-0.9,0.3-1.3c0.1-0.4,0.1-0.8,0.2-1.3c0-0.1,0.2,0,0.3,0l0,0.3c-0.1,0.6,0.1,0.7,1.2,0.8
		l2.2,0.4c1.7,0.3,2.8,0,3.1-1.6c0.3-1.5-0.8-2.3-2.4-2.5L21.6,41.9z"/>
	<path d="M28.1,33.5c0.3,0.2,1.4,0.8,1.6,0.9c0,0,0.1,0.1,0,0.2c-0.2,0-0.7,0.1-2,0.4l-3.6,0.8c-0.4,0.1-1.5,0.3-1.8,0.4l0,0
		c0.1,0.1,0.3,0.2,0.6,0.4l2,1.1c0.4,0.2,1.6,0.9,2,0.9c0.1,0,0.3-0.1,0.4-0.4l0.2-0.3c0.1,0,0.2,0.1,0.2,0.1
		c-0.2,0.4-0.4,0.7-0.6,1.1c-0.2,0.4-0.3,0.6-0.5,1c-0.1,0-0.2,0-0.2-0.1l0.1-0.3c0.1-0.2,0.1-0.4,0-0.5c-0.3-0.3-1.4-0.9-1.8-1.2
		L22,36.6c-0.3-0.1-0.5-0.2-0.8-0.2c-0.2,0.1-0.4,0.2-0.5,0.4L20.6,37c-0.1,0-0.2-0.1-0.2-0.1c0.2-0.4,0.5-0.9,0.6-1
		c0.1-0.1,0.2-0.3,0.2-0.4c0.6,0.1,2.4-0.3,2.9-0.4l1.5-0.3c1.1-0.2,1.8-0.4,2.5-0.6l0,0c0-0.1-0.2-0.1-0.4-0.3l-2-1.1
		c-0.4-0.2-1.6-0.9-2-0.9c-0.1,0-0.2,0.1-0.5,0.5l-0.1,0.1c-0.1,0-0.2-0.1-0.2-0.1c0.3-0.4,0.4-0.7,0.6-1.1c0.2-0.4,0.3-0.6,0.5-1
		c0.1,0,0.2,0,0.2,0.1l-0.1,0.1c-0.1,0.3-0.1,0.5-0.1,0.6c0.2,0.3,1.4,1,1.8,1.2L28.1,33.5z"/>
	<path d="M28.1,28.2c-0.8-0.8-0.9-0.9-1.4-0.5l-0.2,0.2c-0.1,0-0.2-0.1-0.2-0.2c0.4-0.4,0.6-0.6,0.9-0.9c0.3-0.3,0.5-0.6,0.9-1
		c0.1,0,0.2,0.1,0.2,0.2l-0.2,0.2c-0.4,0.5-0.3,0.6,0.5,1.4l2.7,2.6c0.8,0.8,0.9,0.9,1.4,0.5l0.2-0.2c0.1,0,0.2,0.1,0.2,0.2
		c-0.4,0.4-0.6,0.6-0.9,0.9c-0.3,0.3-0.5,0.6-0.9,1c-0.1,0-0.2-0.1-0.2-0.2l0.2-0.2c0.4-0.5,0.3-0.6-0.5-1.4L28.1,28.2z"/>
	<path d="M31.8,24.1c-0.5-0.4-0.8-0.5-1.2-0.3l-0.2,0.1c-0.1,0-0.2-0.1-0.1-0.2c0.3-0.1,0.6-0.3,0.9-0.6c0.4-0.2,0.7-0.5,1.1-0.7
		c0.1,0,0.2,0.1,0.2,0.2l-0.1,0.1c-0.3,0.3-0.3,0.4-0.3,0.4c0.1,0.1,0.5,0.5,1.2,1c1.1,0.8,2.1,1.5,3.2,2.3
		c-0.1-0.8-0.3-1.9-0.4-2.5c-0.1-0.8-0.3-2-0.4-2.5c0-0.2-0.1-0.3-0.1-0.4c0-0.1-0.2-0.1-0.5,0.1l-0.2,0.1c-0.1,0-0.2-0.2-0.1-0.2
		c0.3-0.1,0.6-0.3,0.9-0.6c0.3-0.2,0.6-0.4,0.8-0.6c0.1,0,0.2,0.1,0.2,0.2l-0.3,0.2c-0.2,0.2-0.3,0.3-0.3,0.6c0,0.6,0.1,1.5,0.3,2.7
		l0.2,1.4c0.2,1,0.4,2.3,0.5,2.9c0,0,0,0.1-0.1,0.1c0,0-0.1,0-0.1,0.1c-0.3-0.3-0.8-0.6-1.2-0.9L31.8,24.1z"/>
	<path d="M40.6,20.1c-0.3-1.1-0.4-1.2-1-1.1l-0.2,0c-0.1,0-0.1-0.2-0.1-0.3c0.4-0.1,0.8-0.2,1.2-0.3l1.9-0.5
		c0.6-0.2,1.2-0.4,1.4-0.4c0.1,0.2,0.4,0.9,0.5,1.3c0,0.1-0.2,0.1-0.2,0.1c-0.3-0.4-0.5-0.8-1-0.7c-0.2,0-0.6,0.1-1,0.2l-0.7,0.2
		c-0.3,0.1-0.3,0.1-0.2,0.5l0.6,2c0.1,0.3,0.1,0.3,0.4,0.2l0.6-0.2c0.4-0.1,0.7-0.2,0.8-0.3c0.1-0.1,0.2-0.2,0.1-0.4l0-0.4
		c0-0.1,0.2-0.1,0.3-0.1c0.1,0.2,0.1,0.6,0.2,1c0.1,0.4,0.3,0.7,0.3,1c0,0.1-0.2,0.1-0.3,0.1l-0.2-0.4c-0.1-0.2-0.2-0.3-0.4-0.3
		c-0.2,0-0.4,0.1-0.8,0.2l-0.6,0.2C42,21.7,41.9,21.7,42,22l0.4,1.4c0.2,0.5,0.3,0.9,0.5,1c0.2,0.1,0.4,0.1,1.3-0.1
		c0.8-0.2,1.1-0.3,1.2-0.5c0.2-0.2,0.3-0.6,0.4-1.2c0.1-0.1,0.2-0.1,0.3,0c0,0.4,0,1.2-0.1,1.5c-0.9,0.2-1.8,0.5-2.7,0.7l-0.9,0.3
		c-0.4,0.1-0.8,0.2-1.4,0.4c-0.1,0-0.1-0.2-0.1-0.2l0.3-0.1c0.6-0.2,0.6-0.4,0.3-1.4L40.6,20.1z"/>
	<path d="M49.7,19.9c0,0.2,0,0.3,0,0.3c0,0,0.2,0.1,0.7,0.1c0.4,0,0.8,0,1.1-0.3c0.3-0.2,0.5-0.6,0.5-1.3c0-0.8-0.5-1.6-1.7-1.6
		c-0.7,0-0.7,0-0.7,0.3L49.7,19.9z M48.8,18.4c0-1,0-1.2-0.5-1.2l-0.3,0c-0.1-0.1-0.1-0.2,0-0.3c0.6,0,1.3-0.1,2.3-0.1
		c0.7,0,1.3,0.1,1.8,0.3c0.5,0.3,0.9,0.7,0.9,1.5c0,1-0.8,1.5-1.3,1.7c-0.1,0.1,0,0.2,0.1,0.3c0.8,1.4,1.4,2.2,2.1,2.8
		c0.2,0.2,0.4,0.3,0.7,0.3c0.1,0,0.1,0.1,0,0.1c-0.1,0-0.3,0.1-0.5,0c-0.9,0-1.4-0.3-2.2-1.3c-0.3-0.4-0.7-1.1-1-1.6
		c-0.2-0.2-0.3-0.3-0.7-0.3c-0.5,0-0.5,0-0.5,0.2l0,1.3c0,1.1,0,1.2,0.6,1.3l0.2,0c0.1,0.1,0,0.2,0,0.3c-0.5,0-0.8,0-1.2,0
		c-0.4,0-0.8,0-1.3,0c-0.1,0-0.1-0.2,0-0.3l0.3,0c0.6-0.1,0.6-0.2,0.6-1.3L48.8,18.4z"/>
	<path d="M58.2,25.1c-0.8-0.3-1.3-0.7-1.4-0.9c0-0.3,0-1,0.2-1.5c0.1-0.1,0.2,0,0.2,0c0,0.6,0.1,1.7,1.2,2c0.8,0.3,1.4-0.2,1.6-0.8
		c0.1-0.4,0.2-1-0.4-1.7l-0.8-0.9c-0.4-0.5-0.8-1.2-0.5-2.1c0.3-1,1.3-1.5,2.6-1.1c0.3,0.1,0.7,0.3,0.9,0.4c0.1,0.1,0.3,0.1,0.3,0.2
		c0,0.3-0.1,0.9-0.2,1.3c-0.1,0-0.2,0-0.3,0c0-0.5,0-1.3-1-1.6c-1-0.3-1.4,0.3-1.5,0.7c-0.2,0.6,0.2,1.2,0.5,1.5l0.6,0.8
		c0.5,0.6,0.9,1.4,0.6,2.3C60.5,25,59.5,25.5,58.2,25.1"/>
	<path d="M66.5,22.8c0.6-0.9,0.7-1.1,0.2-1.5l-0.2-0.2c0-0.1,0.1-0.2,0.2-0.2c0.4,0.3,0.7,0.5,1.1,0.7c0.4,0.2,0.7,0.4,1.1,0.7
		c0,0.1,0,0.2-0.1,0.2l-0.2-0.1c-0.6-0.3-0.7-0.1-1.2,0.8l-2,3.2c-0.6,0.9-0.6,1.1-0.1,1.5l0.2,0.2c0,0.1-0.1,0.2-0.2,0.2
		c-0.4-0.3-0.7-0.5-1.1-0.7c-0.4-0.2-0.7-0.4-1.1-0.7c0-0.1,0-0.2,0.1-0.2l0.2,0.1c0.6,0.3,0.7,0.1,1.2-0.8L66.5,22.8z"/>
	<path d="M70.9,31.2c-0.8,0.7-0.9,0.9-0.5,1.4l0.2,0.3c0,0.1-0.1,0.2-0.2,0.2c-0.4-0.5-0.6-0.7-0.9-1c-0.3-0.3-0.5-0.6-1-1.1
		c0-0.1,0.1-0.2,0.2-0.2L69,31c0.4,0.4,0.6,0.3,1.4-0.4l3.4-3.2c0.2-0.2,0.2-0.2,0-0.5l-0.4-0.4c-0.3-0.3-0.7-0.7-1.1-0.8
		c-0.3,0-0.6,0.1-0.9,0.1c-0.1,0-0.2-0.2-0.1-0.2c0.5-0.2,1.1-0.5,1.4-0.8c0,0,0.1,0.1,0.1,0.1c-0.2,0.3,0,0.5,0.4,0.9l2.9,3.1
		c0.4,0.4,0.5,0.5,0.8,0.4c0,0,0.1,0.1,0.1,0.2c-0.4,0.2-1.1,0.7-1.3,1c-0.1,0-0.2-0.1-0.2-0.2c0.2-0.2,0.4-0.5,0.4-0.7
		c0-0.3-0.2-0.6-0.6-1.1l-0.5-0.5c-0.2-0.2-0.2-0.2-0.5,0L70.9,31.2z"/>
	<path d="M76.4,36c-0.3,0-0.3,0-0.1,0.3l0.6,1.2c0.1,0.3,0.2,0.3,0.4,0.1l1.3-1.2c0.2-0.2,0.4-0.4,0.5-0.5l0,0c-0.1,0-0.3,0-0.7,0
		L76.4,36z M76.5,38.3c0.2-0.2,0.2-0.2,0.1-0.5l-0.7-1.4c-0.1-0.2-0.2-0.3-0.4-0.3l-1.2,0.1c-0.5,0.1-0.8,0.1-0.9,0.2
		c-0.1,0.1-0.1,0.1-0.1,0.4l0.1,0.3c0,0.1-0.2,0.2-0.2,0.1c-0.1-0.3-0.2-0.5-0.4-1c-0.1-0.3-0.3-0.6-0.5-0.9c0-0.1,0.2-0.2,0.2-0.1
		l0.2,0.3c0.1,0.2,0.3,0.4,0.7,0.3c0.5,0,1.3-0.1,2.5-0.2l3-0.2c0.4,0,0.6-0.1,0.7-0.2c0.2,0.2,0.4,0.3,0.6,0.3c0,0.1,0,0.1,0,0.2
		c-0.4,0.3-0.7,0.7-1.1,1l-3.2,3.1c-0.7,0.7-0.8,0.9-0.6,1.3l0.1,0.3c0,0.1-0.2,0.1-0.2,0.1c-0.2-0.4-0.3-0.7-0.5-1.2
		c-0.2-0.5-0.4-0.8-0.5-1.1c0-0.1,0.1-0.2,0.2-0.1l0.2,0.3c0.1,0.2,0.2,0.3,0.3,0.3c0.1,0,0.3-0.2,0.4-0.4L76.5,38.3z"/>
	<path d="M75.8,45.4c-0.1-0.9,0.1-1.5,0.1-1.7c0.2-0.2,0.9-0.4,1.4-0.5c0.1,0,0.1,0.2,0.1,0.2c-0.5,0.2-1.5,0.8-1.3,2
		c0.1,0.9,0.8,1.2,1.4,1.1c0.5-0.1,1-0.2,1.3-1.1l0.5-1.1c0.3-0.6,0.8-1.3,1.6-1.4c1-0.1,1.9,0.5,2.1,1.9c0,0.3,0,0.7,0,1
		c0,0.1,0,0.3,0,0.4c-0.2,0.1-0.8,0.3-1.2,0.4c-0.1,0-0.1-0.2-0.1-0.3c0.5-0.2,1.1-0.6,1-1.6c-0.2-1-0.9-1.1-1.3-1.1
		c-0.6,0.1-1,0.7-1.1,1.1l-0.4,0.9c-0.3,0.7-0.8,1.4-1.8,1.6C77,47.5,76,46.8,75.8,45.4"/>
	<path d="M23.7,58.4c-0.3,0.1-0.3,0.1-0.1,0.6c0.4,1,0.9,1.4,1.8,1.1c1-0.4,1.1-1.2,0.8-2c-0.1-0.2-0.2-0.4-0.2-0.4
		c-0.1-0.1-0.1-0.1-0.3,0L23.7,58.4z M21.4,59.2c-0.4,0.1-0.8,0.3-1,0.6c-0.2,0.3-0.1,0.6,0,0.9c0.3,0.9,1,1.4,1.9,1
		c0.8-0.3,1.5-1,1-2.6c-0.2-0.5-0.3-0.5-0.5-0.5L21.4,59.2z M24.7,57.1c0.7-0.3,0.9-0.4,0.8-0.8l-0.1-0.3c0-0.1,0.2-0.1,0.2-0.1
		c0.2,0.5,0.5,1.2,0.9,2.1c0.2,0.6,0.4,1.2,0.3,1.8c-0.1,0.5-0.3,1-1,1.2c-0.7,0.3-1.2,0-1.7-0.5c-0.1,0-0.1,0.1-0.1,0.2
		c0.1,0.6-0.1,1.5-1.2,1.9c-1.1,0.4-2.2-0.1-2.9-1.9c-0.1-0.3-0.3-0.8-0.4-1.2c-0.2-0.4-0.3-0.8-0.4-1.1c0-0.1,0.2-0.1,0.2-0.1
		l0.1,0.2c0.3,0.5,0.4,0.5,1.4,0.1L24.7,57.1z"/>
	<path d="M27.9,64.4c0.9-0.7,1-0.8,0.7-1.3l-0.1-0.1c0-0.1,0.2-0.2,0.2-0.1c0.3,0.4,0.5,0.7,0.7,1l1.2,1.6c0.4,0.5,0.8,1,0.9,1.1
		c-0.1,0.2-0.7,0.7-1,1c-0.1,0-0.2-0.1-0.2-0.2c0.3-0.4,0.5-0.7,0.3-1.2c-0.1-0.2-0.3-0.5-0.6-0.9l-0.5-0.6c-0.2-0.3-0.2-0.2-0.5,0
		l-1.7,1.3c-0.2,0.2-0.2,0.2,0,0.5l0.4,0.5c0.3,0.4,0.5,0.6,0.6,0.7c0.1,0.1,0.2,0.1,0.4,0l0.4-0.2c0.1,0,0.2,0.1,0.2,0.2
		c-0.2,0.2-0.6,0.4-0.9,0.6c-0.3,0.2-0.6,0.5-0.8,0.6c-0.1,0-0.2-0.1-0.2-0.2l0.3-0.3c0.1-0.1,0.2-0.3,0.1-0.5
		c-0.1-0.1-0.2-0.4-0.4-0.7L27,66.5c-0.2-0.3-0.2-0.3-0.4-0.1l-1.2,0.9c-0.4,0.3-0.7,0.6-0.8,0.8c0,0.2,0,0.4,0.6,1.2
		c0.5,0.6,0.7,0.9,0.9,1c0.2,0.1,0.7,0.1,1.3,0c0.1,0,0.1,0.2,0.1,0.3c-0.3,0.2-1.1,0.4-1.4,0.5c-0.5-0.8-1.1-1.5-1.7-2.3l-0.6-0.8
		c-0.3-0.4-0.5-0.6-0.9-1.1c0-0.1,0.1-0.2,0.2-0.2l0.2,0.3c0.4,0.4,0.6,0.4,1.4-0.3L27.9,64.4z"/>
	<path d="M32.8,71.9c-0.1,0.2-0.2,0.2-0.2,0.3c0,0,0.1,0.2,0.6,0.5c0.3,0.2,0.7,0.4,1,0.4c0.4,0,0.8-0.2,1.2-0.7
		c0.5-0.7,0.5-1.6-0.4-2.3c-0.5-0.4-0.6-0.4-0.7-0.1L32.8,71.9z M33,70.2c0.6-0.8,0.7-1,0.4-1.3l-0.2-0.2c0-0.1,0.1-0.2,0.2-0.2
		c0.5,0.3,1.1,0.7,1.9,1.3c0.5,0.4,1,0.8,1.2,1.3c0.3,0.5,0.3,1.1-0.2,1.7c-0.6,0.8-1.5,0.8-2.1,0.6c-0.1,0-0.1,0.1-0.1,0.2
		c-0.1,1.6-0.2,2.6,0.1,3.5c0.1,0.2,0.2,0.5,0.4,0.7c0,0,0,0.1-0.1,0.1c-0.1,0-0.2-0.1-0.4-0.2c-0.7-0.5-1-1.1-1-2.3
		c0-0.5,0.1-1.3,0.1-1.9c0-0.3-0.1-0.5-0.4-0.7c-0.4-0.3-0.4-0.3-0.5-0.1l-0.8,1.1c-0.7,0.9-0.7,1-0.3,1.4l0.2,0.2
		c0,0.1-0.1,0.2-0.2,0.2c-0.4-0.3-0.7-0.5-1-0.8c-0.4-0.3-0.7-0.5-1.1-0.7c0-0.1,0-0.2,0.1-0.2l0.2,0.1c0.5,0.3,0.6,0.2,1.3-0.7
		L33,70.2z"/>
	<path d="M43.6,80.2c-0.1,0.4-0.1,0.7,0,0.8c0,0,0,0.1,0,0.1c-0.1,0-0.3-0.1-0.5-0.1c-0.6,0-1.3-0.1-1.9-0.3
		c-1.2-0.4-2.2-1.1-2.7-2.1c-0.4-0.8-0.5-1.7-0.2-2.6c0.3-0.8,0.8-1.6,1.7-2.1c0.9-0.5,2-0.6,3.5-0.1c0.6,0.2,1.1,0.5,1.2,0.6
		c0.2,0.1,0.5,0.3,0.6,0.3c-0.1,0.3-0.2,0.9-0.3,1.5c-0.1,0.1-0.2,0-0.3-0.1c0.1-1.2-0.6-1.8-1.6-2.1c-1.9-0.6-3.2,0.5-3.7,2
		c-0.6,1.9-0.1,3.7,1.9,4.4c0.6,0.2,1,0.2,1.2,0.1c0.1-0.1,0.2-0.2,0.3-0.5l0.1-0.4c0.3-0.8,0.3-0.9-0.3-1.2l-0.4-0.2
		c-0.1-0.1,0-0.2,0.1-0.2c0.3,0.1,0.8,0.3,1.4,0.5c0.4,0.1,0.7,0.2,1.1,0.3c0.1,0.1,0,0.2-0.1,0.3l-0.2,0c-0.4-0.1-0.5,0.2-0.7,0.7
		L43.6,80.2z"/>
	<path d="M48.9,76.6c0-1.1,0-1.2-0.6-1.3l-0.2,0c-0.1,0,0-0.2,0-0.3c0.5,0,0.8,0,1.2,0l2,0c0.7,0,1.3,0,1.4,0
		c0.1,0.2,0.1,0.9,0.2,1.4c0,0.1-0.2,0.1-0.3,0c-0.2-0.5-0.2-0.9-0.8-1c-0.2-0.1-0.6-0.1-1-0.1l-0.8,0c-0.3,0-0.3,0-0.3,0.4l0,2.1
		c0,0.3,0,0.3,0.3,0.3h0.6c0.4,0,0.8,0,0.9-0.1c0.1,0,0.2-0.1,0.3-0.4l0.1-0.4c0.1-0.1,0.2-0.1,0.3,0c0,0.3,0,0.7,0,1.1
		c0,0.4,0,0.8,0,1c0,0.1-0.2,0.1-0.3,0L51.8,79c0-0.2-0.1-0.3-0.3-0.4c-0.1,0-0.4-0.1-0.8-0.1l-0.6,0c-0.3,0-0.3,0-0.3,0.3l0,1.5
		c0,0.6,0,0.9,0.2,1.1c0.1,0.1,0.3,0.2,1.3,0.2c0.8,0,1.1,0,1.3-0.2c0.2-0.1,0.5-0.5,0.7-1c0.1-0.1,0.2,0,0.3,0.1
		c-0.1,0.4-0.3,1.2-0.5,1.5c-0.9,0-1.9,0-2.8,0l-0.9,0c-0.5,0-0.8,0-1.4,0c-0.1,0-0.1-0.2,0-0.3l0.3,0c0.6-0.1,0.7-0.2,0.7-1.3
		L48.9,76.6z"/>
	<path d="M63.2,74.9c-0.2-0.5-0.6-1.7-0.6-2.1c0-0.1,0.2-0.2,0.5-0.4l0.1-0.1c0-0.1,0-0.2-0.1-0.2c-0.3,0.1-0.6,0.2-1,0.4
		c-0.4,0.1-0.7,0.3-1.2,0.4c-0.1,0.1,0,0.2,0.1,0.3l0.2,0c0.4-0.1,0.6-0.1,0.7,0c0.3,0.2,0.8,1.5,1,2l0.8,2.1
		c0.1,0.2,0.1,0.4,0.1,0.4l0,0c-0.6-0.3-1.3-0.7-2.3-1.2l-1.4-0.7c-0.5-0.2-2.1-1.1-2.5-1.5c-0.1,0.1-0.3,0.1-0.4,0.2
		c-0.2,0.1-0.7,0.3-1.1,0.4C56,74.8,56,75,56.1,75l0.2,0c0.2-0.1,0.5-0.1,0.7,0c0.3,0.1,0.4,0.4,0.5,0.6l1.1,2.8
		c0.2,0.5,0.6,1.7,0.6,2.1c0,0.1-0.1,0.2-0.4,0.4L58.5,81c0,0.1,0,0.2,0.1,0.2c0.3-0.1,0.6-0.3,1-0.4c0.4-0.1,0.7-0.3,1.2-0.4
		c0.1-0.1,0-0.2-0.1-0.3l-0.3,0.1c-0.3,0.1-0.5,0.1-0.6,0c-0.3-0.2-0.8-1.5-0.9-2l-0.8-2.1c-0.1-0.3-0.2-0.5-0.2-0.7l0,0
		c0.3,0.1,1.3,0.7,1.6,0.9l3.2,1.7c1.2,0.7,1.6,0.9,1.8,1c0.1,0,0.1-0.1,0.1-0.2c-0.1-0.2-0.6-1.4-0.7-1.7L63.2,74.9z"/>
	<path d="M71.5,74.7c-0.7,0.6-1.3,0.7-1.5,0.8c-0.2-0.1-0.8-0.6-1.2-0.9c0-0.1,0.1-0.2,0.2-0.2c0.5,0.3,1.5,0.8,2.4,0
		c0.7-0.6,0.6-1.3,0.2-1.8c-0.3-0.4-0.7-0.7-1.6-0.6l-1.2,0.1c-0.6,0.1-1.5,0-2-0.7c-0.6-0.8-0.6-1.9,0.5-2.8
		c0.2-0.2,0.6-0.4,0.8-0.5c0.1-0.1,0.3-0.1,0.3-0.2c0.2,0.1,0.7,0.5,1,0.9c0,0.1-0.1,0.2-0.2,0.2c-0.4-0.3-1.1-0.6-1.9,0
		c-0.8,0.7-0.5,1.3-0.2,1.7c0.4,0.5,1.1,0.5,1.5,0.4l1-0.1c0.8-0.1,1.7-0.1,2.3,0.7C72.7,72.6,72.5,73.8,71.5,74.7"/>
	<path d="M72.6,65.5c-0.9-0.6-1.1-0.7-1.5-0.3L71,65.5c-0.1,0-0.2-0.1-0.2-0.2c0.3-0.4,0.5-0.7,0.8-1.1c0.2-0.3,0.4-0.6,0.7-1.1
		c0.1,0,0.2,0.1,0.2,0.1l-0.1,0.2c-0.3,0.5-0.2,0.7,0.7,1.3l3,2.2c0.9,0.6,1,0.7,1.5,0.2l0.2-0.2c0.1,0,0.2,0.1,0.2,0.2
		c-0.3,0.4-0.5,0.7-0.8,1c-0.3,0.4-0.5,0.7-0.7,1.1c-0.1,0-0.2,0-0.2-0.1l0.1-0.2c0.3-0.5,0.2-0.6-0.7-1.3L72.6,65.5z"/>
	<path d="M81.3,61.1c-0.3,0.8-0.8,1.2-0.9,1.4c-0.3,0-1-0.1-1.5-0.2c0-0.1,0-0.2,0.1-0.2c0.6,0,1.7,0,2.1-1.1
		c0.3-0.8-0.1-1.4-0.7-1.7c-0.4-0.2-0.9-0.3-1.7,0.3l-1,0.7c-0.5,0.4-1.3,0.7-2.1,0.4c-0.9-0.4-1.4-1.4-0.9-2.6
		c0.1-0.3,0.3-0.6,0.5-0.9c0.1-0.1,0.2-0.2,0.2-0.3c0.3,0,0.9,0.1,1.3,0.3c0,0.1,0,0.2-0.1,0.3c-0.5,0-1.3,0-1.6,0.9
		c-0.4,1,0.2,1.4,0.7,1.6c0.6,0.2,1.2-0.1,1.5-0.4l0.8-0.6c0.6-0.5,1.4-0.9,2.3-0.5C81.3,58.8,81.7,59.8,81.3,61.1"/>
	<path d="M50.7,83.8c-19,0-34.4-15.4-34.4-34.4s15.4-34.4,34.4-34.4c19,0,34.4,15.4,34.4,34.4S69.7,83.8,50.7,83.8 M50.7,14
		c-19.6,0-35.4,15.9-35.4,35.4s15.9,35.4,35.4,35.4c19.6,0,35.4-15.9,35.4-35.4S70.2,14,50.7,14"/>
	<path d="M59,66.6c-0.7,0.5-1.2,1.3-1.5,2c0.7,0.5,2.2,1.2,4.7,1.6c1.1-0.6,2-1.2,3-2c-0.9-0.2-1.8-0.7-2.4-1
		C61.8,66.6,60.4,65.6,59,66.6"/>
	<path d="M42.5,61.9c-0.9-0.2-1.3-0.2-2.6,0.2c-2.2,0.7-5.7,4.6-5.7,4.6c1,1,2.2,1.9,3.4,2.7c1-1.2,3.5-4.1,5.9-4.1
		c1.3,0,2,0.5,3,1.2c0.1-0.1,0.2-0.3,0.3-0.4C44.8,65,42.5,61.9,42.5,61.9"/>
	<path d="M50,65.3c-1.1,0.1-1.8,1-2.3,1.9c2,1.4,3.8,3,6.4,3.7c2,0.6,2.8,0.8,4.9,0.9c0.9-0.3,1.8-0.7,2.7-1.2
		c-1.3-0.2-3-0.8-4.4-1.4C54.9,68.1,52.2,65,50,65.3"/>
	<path d="M43.9,66.5c-3,0-4.2,2.5-5.1,3.6c3.5,2,7.6,3.2,11.9,3.2c2.3,0,4.5-0.3,6.6-0.9c-1.3-0.1-3-0.4-4.4-1
		C49.5,70.1,46,66.5,43.9,66.5"/>
	<path d="M65.1,64.5c-2-2.5-3.5-3-4.3-2.8c-0.8,0.2-0.6,0.8-1.5,1.8c-0.8,1-2.7,2.1-3.1,2.3c0.3,0.3,0.7,0.8,0.8,0.9
		c0.9-0.9,2.2-1.7,3.3-1.7c2.1,0,2.7,1.7,5.5,2.7c0.6-0.5,1.2-1,1.7-1.5C67.6,66.2,66.3,66,65.1,64.5"/>
	<path d="M60.3,45.2c-0.4-0.4-1-0.7-1.3-1.2c-0.1-0.1-0.2-0.3-0.2-0.5c0.1-0.1,0.1-0.2,0.2-0.1c0.2,0,0.3,0.3,0.6,0.3
		c0.1,0.1,0.1,0.2,0.1,0.3c0.2,0.2,0.5,0.5,0.7,0.7c0.1,0.1,0.2,0.2,0.1,0.4C60.6,45.1,60.5,45.3,60.3,45.2 M59.7,45.7
		c-0.1,0.6,0,1.1-0.1,1.7c0,0.5-0.2,1-0.2,1.5c0,0.8-0.3,1.5-0.3,2.3c-0.1,0.8-0.3,1.5-0.5,2.3c-0.2,0.9-0.5,1.8-0.8,2.6
		c0,0-0.1,0-0.1,0c0.1-0.8,0.3-1.7,0.4-2.5c0.2-1,0.4-2.1,0.6-3.1c0.1-0.8,0.1-1.6,0.2-2.4c0.1-1,0.2-2,0.3-2.9
		c0.1-0.1,0.3,0.1,0.4,0.1C59.7,45.4,59.8,45.5,59.7,45.7 M57.6,55.2c-0.2,0.9-0.3,1.8-0.6,2.7c0,0.3-0.1,0.6-0.2,0.8
		c0,0-0.1,0-0.1,0c0-0.7,0.3-1.2,0.3-1.8c0.1-0.5,0.1-1,0.2-1.5c0.1-0.7,0.1-1.3,0.1-2c0.1-0.2,0.1-0.5,0.1-0.7
		c-0.1-0.5,0.1-1,0.1-1.5c0.1-0.5,0.2-1.1,0.2-1.6c0.1-1,0.2-1.9,0.2-2.9c0.1-0.3,0-0.7,0.1-0.9c0-0.3,0-0.5,0-0.8
		c0.1-0.2-0.2-0.7,0.2-0.8c0.1,0.1,0.3,0.2,0.4,0.3c0,0.3-0.1,0.6-0.1,0.9c0,0.5-0.1,1-0.1,1.6c0,0.8,0,1.5-0.1,2.2
		c-0.1,0.9-0.2,1.8-0.3,2.6C58,52.9,57.7,54,57.6,55.2 M43.5,54.8c-0.1-0.6-0.1-1.3-0.2-1.9c-0.2-1.2-0.2-2.5-0.3-3.7
		c-0.1-0.3-0.1-0.7-0.1-1.1c-0.1-0.8-0.1-1.6-0.2-2.3c-0.1-0.5,0.1-0.9,0.2-1.2c0.1-0.1,0.3-0.3,0.4-0.2c0.1,0.8,0,1.6,0.1,2.4
		c0.1,0.3,0.1,0.7,0.1,1c0.1,1.3,0.1,2.5,0.3,3.7c0.2,1.7,0.4,3.4,0.6,5.2c0.1,0.6,0.2,1.2,0.3,1.9c0,0-0.1,0.1-0.1,0
		C44,57.4,43.7,56.1,43.5,54.8 M43.1,55.8c-0.4-1.3-0.8-2.6-1-4c-0.2-1.2-0.3-2.4-0.5-3.6c0.1-0.5,0-1.1,0-1.6
		c0.1-0.2,0.3-0.3,0.5-0.4c0,0,0.1,0,0.1,0c0,0.9,0.2,1.7,0.2,2.6c0.1,0.7,0.2,1.4,0.2,2c0,0.7,0.1,1.4,0.1,2.1
		c0.1,0.8,0.2,1.5,0.3,2.2C43.1,55.4,43.2,55.6,43.1,55.8L43.1,55.8z M41.4,46.4c-0.1,0-0.2-0.1-0.3-0.1C41,46.2,40.9,46,41,45.8
		c0.1-0.2,0.4-0.3,0.5-0.5c0.3-0.2,0.5-0.5,0.8-0.8c0.1,0,0.3-0.1,0.4,0C42.4,45.2,42,45.8,41.4,46.4 M41.1,42.5
		c0-0.3,0.1-0.5,0.4-0.7c0.1-0.1,0.3-0.2,0.5-0.2l0.2,0.3c0,0.4-0.4,0.5-0.7,0.8c-0.1,0-0.1,0.1-0.2,0.1
		C41.2,42.7,41.2,42.6,41.1,42.5 M43.2,42.9c0.3-0.4,0.7-0.7,0.9-1.2c0,0,0.1-0.1,0.1-0.1c-0.1,0.8-0.4,1.6-0.9,2.2
		c-0.2,0.3-0.6,0.4-0.9,0.5c-0.1,0-0.2-0.1-0.2-0.2c0-0.1-0.1-0.2-0.1-0.3C42.5,43.6,42.9,43.3,43.2,42.9 M42.9,43
		c-0.1,0.1-0.2,0.2-0.4,0.1c0-0.2-0.1-0.6,0.1-0.7c0.1-0.1,0.3-0.3,0.4-0.1C43.1,42.6,43.1,42.9,42.9,43 M44,39.3
		c0-0.1,0.2-0.1,0.2,0c0,0.3-0.1,0.6-0.2,0.9c-0.3,0.4-0.4,0.9-0.7,1.3c-0.2,0.1-0.4,0.4-0.7,0.4c-0.1-0.2-0.3-0.4-0.3-0.7
		C43,40.6,43.7,40,44,39.3 M42.4,39.9c0.1-0.4,0-0.8,0.3-1.1c0.2,0,0.1,0.3,0.1,0.4c0.1,0.3,0.1,0.7,0.2,1c-0.1,0.2-0.3,0.3-0.5,0.3
		C42.3,40.3,42.4,40.1,42.4,39.9 M42.5,28.7c0-0.3,0-0.5,0-0.8c0,0,0.1-0.1,0.1-0.1c0.3-0.1,0.2,0.3,0.4,0.4
		c0.1,0.3,0.4,0.6,0.7,0.6c0.6,0,1.2-0.1,1.7,0.1c0.4,0.1,0.8,0.4,1.1,0.8c0.1,0,0.1-0.1,0.2-0.1c0.1,0.1,0.4,0.2,0.3,0.4
		c0.3,0,0.4,0.4,0.7,0.6c-0.2,0.2,0.5,0.5-0.1,0.5c-0.4-0.2-0.8,0.1-1.2,0.1c-0.1,0-0.2,0-0.3-0.1l0-0.1c0.2-0.2,0.5-0.3,0.8-0.3
		c0.1,0,0-0.2,0.2-0.2c0.1,0.1,0.1,0.2,0.2,0.2c0,0,0-0.1,0-0.1c-0.2,0-0.2-0.3-0.4-0.3c-0.2,0-0.3,0-0.4-0.2
		c-0.1-0.3-0.4-0.4-0.6-0.5c-0.1-0.1-0.2-0.1-0.3-0.1c-0.1,0.1-0.1,0.1-0.1,0.2c0.2,0.3,0.4,0.6,0.7,0.8v0c-0.3,0-0.5-0.4-0.7-0.3
		c0,0-0.1,0.1,0,0.2c0.1,0.2,0.4,0.4,0.2,0.6c-0.2,0-0.3-0.2-0.4-0.3c0-0.3-0.3-0.3-0.5-0.4c-0.2-0.1-0.4,0-0.7,0
		c-0.2-0.1-0.4,0.1-0.6-0.1C43,30,42.6,29.4,42.5,28.7 M47.6,28.6c0.2,0,0.4,0,0.6,0.2c0.1,0.1,0.2,0.3,0.3,0.3
		c0.1,0,0.1,0.1,0.1,0.2c-0.1,0.1-0.2,0-0.3,0c-0.2,0-0.5-0.3-0.7,0.1c-0.1,0.1-0.1,0.3-0.2,0.3c-0.1-0.1-0.2-0.3-0.2-0.5
		C47.4,29,47.4,28.8,47.6,28.6 M49,29.8c0,0.1,0.1,0.3,0,0.4c-0.2,0-0.5,0-0.6,0.3c-0.1,0.1-0.1,0.3-0.3,0.4
		c-0.1-0.1-0.2-0.2-0.3-0.4c0.1-0.2,0.2-0.5,0.3-0.7c0,0,0.1-0.1,0.1-0.1C48.6,29.7,48.8,29.9,49,29.8 M49.8,28.3
		c0.2,0,0.3,0,0.4,0.1c0.1,0.1,0.1,0.3,0.3,0.5c0,0.1,0,0.2-0.1,0.2c-0.4,0.1-0.4-0.4-0.8-0.3c-0.1,0.1-0.3,0.3-0.4,0.5
		c-0.1,0-0.1,0.1-0.2,0.1c-0.1-0.1-0.2-0.2-0.2-0.3C49,28.6,49.3,28.3,49.8,28.3 M49.7,29.9c0,0.1-0.1,0.2-0.2,0.3
		c-0.1,0-0.2-0.1-0.2-0.1c-0.1-0.1,0-0.2,0-0.3c0.1-0.2,0.2-0.5,0.4-0.6c0.2,0,0.4,0.3,0.6,0.3c0.1,0.1,0.1,0.2,0.1,0.3
		C50.2,29.9,49.9,29.6,49.7,29.9 M50.5,31.1c-0.1,0-0.1-0.1-0.1-0.2c0-0.1-0.1-0.2-0.2-0.1c-0.1,0.1-0.1,0.3-0.1,0.4l0,0
		c-0.2-0.2-0.3-0.4-0.2-0.7c0-0.2,0.2-0.3,0.3-0.4c0.1,0,0.2,0.1,0.3,0.2C50.6,30.6,50.6,30.9,50.5,31.1 M50.7,33.1
		c0.2-0.1,0.4,0.1,0.5-0.1l0,0c0,0.2,0.2,0.5,0.1,0.7c0,0.1,0.1,0.2,0.1,0.4c-0.1,0-0.1-0.2-0.2-0.3c0-0.1-0.1-0.2-0.2-0.2
		c-0.2,0-0.1,0.5-0.3,0.2c-0.1-0.2,0.1-0.4-0.1-0.5c-0.1,0.2-0.2,0.3-0.3,0.5c-0.1,0-0.2-0.1-0.2-0.2c0.3-0.1-0.1-0.5,0.3-0.6
		C50.5,33,50.6,33.1,50.7,33.1 M51.2,29.2c0.2-0.1,0.3,0.2,0.4,0.4c0,0.1,0.3,0.2,0.2,0.4c-0.1,0.1-0.1,0.2-0.2,0.2
		c-0.2-0.1-0.3-0.4-0.5-0.3c-0.1,0.1-0.2,0.2-0.3,0.2c-0.1-0.1-0.1-0.3-0.1-0.4C50.9,29.5,51,29.3,51.2,29.2 M50.8,28.7
		c0.2-0.4,0.6-0.4,1-0.4c0.2,0.2,0.2,0.4,0.4,0.5c0,0.1,0,0.3-0.1,0.4c-0.1,0-0.2-0.2-0.3-0.2c-0.2-0.1-0.4-0.2-0.6-0.1
		c-0.1,0-0.2,0.2-0.3,0.1C50.7,28.9,50.7,28.8,50.8,28.7 M52.9,29.3c0.1,0,0.1,0,0.2,0.1c0,0.4,0.5,0.7,0.1,1
		c-0.3,0-0.2-0.3-0.3-0.5c-0.2-0.2-0.4,0.2-0.6,0.1c-0.1,0-0.2-0.1-0.1-0.2C52.2,29.5,52.6,29.4,52.9,29.3 M52.6,28.7
		c0-0.3,0.3-0.2,0.5-0.3c0.3,0,0.7,0,0.9,0.3c0.1,0.1,0.1,0.2,0.1,0.4c-0.2,0.1-0.1,0.4-0.3,0.5c-0.3-0.1-0.2-0.4-0.4-0.6
		c-0.3-0.2-0.5,0.1-0.8,0.2C52.4,29,52.5,28.9,52.6,28.7 M52.3,31c-0.1-0.1-0.2,0.1-0.3,0.1c-0.1,0.1-0.2,0.3-0.3,0.4
		c-0.1,0-0.1,0-0.1-0.1c0-0.3,0.1-0.5,0.2-0.8c0.1-0.2,0.4-0.2,0.5-0.4c0.1-0.1,0.4-0.2,0.4,0.1c0,0.2,0.1,0.4,0.2,0.6
		c0,0.2-0.2,0.4-0.2,0.6c0,0-0.1,0.1-0.2,0.1C52.5,31.4,52.4,31.2,52.3,31 M51.3,31.4c-0.1-0.1-0.1-0.3-0.1-0.5c0,0-0.1,0-0.1,0
		c-0.1,0.1-0.2,0.3-0.2,0.4c0,0-0.1,0-0.1,0c-0.1-0.3,0-0.6,0.1-0.8c0.1-0.1,0.2-0.2,0.3-0.2c0.1,0.1,0.2,0.2,0.3,0.3
		C51.5,30.9,51.5,31.2,51.3,31.4 M54.6,29.6c0.2-0.3,0.6-0.2,0.8-0.4c0.7-0.2,1.4,0.1,2-0.4l0.7-0.5c0.3,0,0.4-0.3,0.6-0.4
		c0.1,0,0.2,0,0.2,0.1c-0.1,0.3-0.2,0.6-0.3,1c-0.1,0.5-0.6,0.6-1,0.9c-0.2,0.2-0.5,0.2-0.8,0.2c-0.6,0-1.1,0.3-1.4,0.8
		c0.1,0.2-0.1,0.3-0.2,0.3c-0.1,0.1-0.3,0.1-0.4,0.2c0.1,0.1,0.2,0,0.2,0.2c-0.3,0.3-0.8,0-1.1,0.3c0,0-0.1,0.1-0.1,0.1
		c0.1,0.1,0.3,0,0.3,0.1c-0.2,0.2-0.6,0.1-0.8,0.3c0,0.1,0,0.1,0.1,0.1c0.1,0,0.2-0.1,0.3,0c0,0.1-0.1,0.1-0.2,0.2
		c-0.3,0.1-0.6,0-0.8,0.2C52.8,33,53,33,53,33.1c-0.3,0.2-0.7,0.2-0.9,0.4c-0.2,0.1,0.1,0.7-0.3,0.5c-0.2-0.2-0.3-0.4-0.4-0.7
		c0.1-0.1,0-0.4,0.1-0.3c0.2,0.1,0.2,0.3,0.3,0.4c0.1,0,0.2-0.1,0.3-0.2c-0.2-0.3,0.3-0.3,0.4-0.5c0-0.3,0.3-0.2,0.4-0.3
		c0.3-0.1,0.5-0.1,0.8-0.2c0,0-0.1,0-0.1-0.1c0,0-0.1,0-0.1,0c0,0,0,0,0-0.1c0.3-0.4,0.8-0.3,1.2-0.4c0-0.1-0.2-0.1-0.1-0.2
		c0.3-0.2,0.8-0.1,0.9-0.5c0-0.1,0.1-0.2,0-0.3c-0.2,0.1-0.3,0.3-0.5,0.4c-0.2,0.2-0.4,0.3-0.6,0.4c0-0.1,0.1-0.2,0.2-0.3
		c0.3-0.3,0.5-0.7,0.7-1.2c0-0.1-0.1,0-0.2,0c-0.3,0.3-0.7,0.5-1,0.8c-0.1,0-0.2,0.1-0.2,0c-0.1-0.2,0.2-0.2,0.2-0.4
		C54.2,30.1,54.4,29.8,54.6,29.6 M58.1,32.6c0,0.1-0.1,0.3,0,0.4c0.1,0.1,0.3,0.1,0.3,0.3c0,0.1,0,0.2-0.1,0.2
		c-0.3,0-0.6,0.1-0.8,0.4c0,0.1,0,0.1,0.1,0.1c0.2,0,0.2-0.3,0.5-0.3c0.2,0,0.3-0.1,0.5,0c0,0.2,0.2,0.3,0.2,0.4
		c-0.1,0.3,0,0.7-0.1,1c-0.4,0-0.7-0.4-1.1-0.1c-0.2,0-0.5-0.2-0.7-0.1c-0.2-0.1-0.3-0.4-0.2-0.6c0.1-0.2,0.3-0.1,0.4-0.3
		c0.1,0,0.3,0.1,0.3,0c0-0.2-0.3-0.1-0.4-0.1c-0.1,0-0.2,0.1-0.4,0.1c-0.1-0.1-0.1-0.2-0.1-0.4c0.2-0.4,0.7-0.5,1-0.6
		c0,0,0.1-0.1,0-0.1c-0.4-0.3-0.9,0.1-1.2,0.3c-0.1,0-0.1,0-0.1-0.1c0.1-0.3,0.2-0.6,0.5-0.7c0,0,0.1-0.1,0.1-0.1
		c-0.1-0.1-0.2,0-0.3,0c-0.1,0.1-0.3,0.3-0.5,0.4c0-0.2,0.3-0.4,0.4-0.7c0,0,0-0.1-0.1-0.1c-0.3,0.2-0.5,0.5-0.9,0.7
		c-0.1,0-0.2,0-0.3,0c-0.1,0,0-0.1,0-0.2c0.2-0.3,0.5-0.6,0.6-0.9c0.2-0.6,0.9-0.5,1.3-0.9c0.2,0.1,0.4-0.1,0.5,0.1
		c-0.1,0.1-0.2,0.1-0.3,0.1c-0.2,0.2-0.6,0.3-0.7,0.6c0.2,0.1,0.2-0.1,0.4-0.2c0.1-0.1,0.2-0.2,0.3-0.1c0.2,0.2,0.3-0.3,0.4,0.1
		c-0.1,0.2-0.3,0.2-0.4,0.3c-0.1,0.1-0.3,0.3-0.3,0.5c0,0.1,0.1,0,0.2,0c0.2-0.2,0.4-0.4,0.7-0.4C58,31.9,58.1,32.2,58.1,32.6
		 M58.6,36.2c0,0.1-0.1,0-0.2,0C58.3,36.1,58,36,58,35.7c0-0.1-0.2-0.1-0.2,0c0,0-0.1,0.1,0,0.1c0.3,0.4,0.4,0.8,0.7,1.2
		c0,0.2-0.2,0.4-0.3,0.6c0,0-0.1,0-0.1,0c-0.2-0.1-0.2-0.3-0.3-0.5c0-0.1-0.1-0.3-0.1-0.4c0.1-0.4-0.3-0.6-0.4-0.9
		c-0.2-0.2-0.5-0.2-0.6-0.4c0-0.1,0-0.2,0.1-0.2c0.3-0.3,0.6,0.1,0.9-0.1c0.1,0.1,0.3,0,0.4,0c0.2,0.1,0.4,0.3,0.6,0.3
		c0.2,0.1,0.2,0.3,0.2,0.5C58.6,36,58.6,36.1,58.6,36.2 M59,40.1c-0.1,0.1-0.3,0-0.4-0.1c-0.4-0.2-0.2-0.6-0.3-1
		c0-0.3-0.1-0.6,0.1-0.8c0.1,0,0.1,0.1,0.1,0.1C58.7,38.9,59,39.4,59,40.1 M56.7,41c0-0.1,0.1,0,0.1,0c0.2,0.2,0.3,0.4,0.5,0.6
		c0.4,0.3,0.7,0.7,1.2,0.8c0.1,0.2,0.4,0.2,0.5,0.3c0,0.2-0.1,0.4-0.3,0.4c-0.6,0-0.9-0.4-1.3-0.8C57,42,56.9,41.5,56.7,41
		 M56.3,50.8c-0.6,0.1-1.2-0.2-1.6-0.6c-0.2-0.3-0.4-0.6-0.4-1c0-0.1,0.1-0.1,0.2-0.1c0.3,0.3,0.7,0.6,1.1,0.7l0.1-0.1
		c0.1,0,0.1,0.2,0.2,0.1c0,0,0.1-0.1,0-0.1c-0.5-0.4-0.8-0.9-0.9-1.4c0-0.1,0.1-0.1,0.2-0.1c0.5,0.3,1,0.7,1.5,1.1
		c0.2,0.3,0.4,0.6,0.3,0.9C56.8,50.5,56.6,50.7,56.3,50.8 M57.5,60.9C57.4,61,57.3,61,57.2,61c-0.3-0.1-0.5,0.1-0.8,0.1
		c-0.1-0.2-0.2-0.5-0.2-0.7c0.2-0.2,0.4-0.3,0.5-0.5c0-0.1,0-0.1-0.1-0.1c-0.2,0-0.4,0.4-0.6,0.1c-0.1-0.2-0.2-0.5-0.3-0.8
		c0.2-0.1,0.4,0,0.5,0.1l0.3,0.1c0.5,0.1,0.5,0.7,0.8,1C57.5,60.4,57.8,60.7,57.5,60.9 M56.5,61.6c-0.1,0,0-0.1,0-0.2
		c0.2-0.3,0.5-0.1,0.8-0.2l0,0c0.1,0.3-0.3,0.5-0.4,0.8c-0.1,0.1-0.1,0.2-0.1,0.2c-0.2,0.2-0.3,0.4-0.5,0.6l-0.1,0
		C56.4,62.5,56.7,62.1,56.5,61.6 M47.1,61.8c0.2,0,0.4,0,0.6,0.2c0,0.2-0.1,0.4-0.1,0.7c0,0.3,0,0.6,0.2,0.8l0,0.1
		c-0.2,0-0.4-0.2-0.5-0.3c-0.3-0.3-0.6-0.6-0.6-1C46.7,62,46.9,61.9,47.1,61.8 M45.1,61.6c0.2-0.1,0.4-0.1,0.6,0
		c0,0.2-0.1,0.5-0.1,0.7c0,0.3,0.2,0.6,0.5,0.7v0c-0.2,0-0.4-0.1-0.6-0.2c-0.3-0.2-0.3-0.5-0.4-0.7C45.1,62,44.9,61.8,45.1,61.6
		 M44.6,60.6c0-0.4,0.1-0.8,0.3-1.1c0-0.2,0.2-0.2,0.4-0.3c0.2,0,0.4-0.2,0.6,0c0,0.1,0.2,0.2,0.1,0.4c-0.1,0.2-0.2,0.4-0.5,0.6
		c-0.1,0-0.3-0.1-0.3,0.1c0,0.3,0.4,0.1,0.5,0.3c0,0.2,0.1,0.5,0,0.7c-0.2,0-0.5,0-0.7,0.1c-0.1,0.1-0.2,0.1-0.3,0.1
		C44.5,61.3,44.6,60.9,44.6,60.6 M44.9,52.1l0.3-0.1c0,0,0.1,0,0.1,0.1c0.1,0.9,0.1,1.8,0.2,2.7c0,0.7,0.1,1.2,0.2,1.9
		c0.1,0.4,0,0.9,0.2,1.3c0.2,0.4-0.1,0.6-0.2,0.9c-0.3,0,0-0.4-0.2-0.6c-0.3-1.2-0.6-2.3-0.7-3.6c-0.1-0.6-0.1-1.2-0.2-1.8
		c-0.1-0.3,0-0.6-0.1-0.9C44.7,51.9,44.8,52.1,44.9,52.1 M45.3,49.7L45.3,49.7c0.3-0.3,0.6-0.6,0.8-0.8c0,0,0.1,0,0.1,0
		c-0.1,0.5-0.2,1-0.6,1.5c0,0.1,0,0.1,0.1,0.1c0.2-0.3,0.4-0.5,0.7-0.8c0.2-0.2,0.3-0.4,0.5-0.6c0.1,0.2,0,0.4,0,0.5
		c-0.1,0.8-0.4,1.5-1.2,1.9c-0.2,0-0.4,0.2-0.7,0.1c-0.2,0-0.4-0.2-0.5-0.4C44.4,50.7,44.9,50.2,45.3,49.7 M44.8,42.7
		C44.8,42.7,44.8,42.7,44.8,42.7c0,1.2,0.1,2.3,0.2,3.6c0.1,1.1,0.1,2.2,0.2,3.2c0,0.2-0.2,0.3-0.3,0.5c-0.1,0.1-0.2,0.3-0.4,0.4
		c-0.2-0.3-0.1-0.7-0.2-1.1c-0.1-1.7-0.3-3.6-0.3-5.4c0.1-0.2,0.2-0.4,0.3-0.7C44.5,43,44.7,42.9,44.8,42.7 M46.7,32.9
		c0.6-0.2,1.2,0,1.6,0.3c0.4,0.5,0.5,1.3,0.2,1.9c-0.2,0.4-0.5,0.9-1,0.9c-0.6,0.3-1.2,0-1.7-0.4c-0.3-0.4-0.6-0.9-0.4-1.4
		C45.5,33.7,46,33.1,46.7,32.9 M48,31.5c-0.5,0-0.9,0.3-1.5,0.2c0,0-0.1,0-0.1-0.1c0-0.1,0.1-0.1,0.1-0.1c0.1-0.2,0.4-0.1,0.5-0.2
		c0.1,0,0.3,0,0.4-0.1c0.3,0,0.7,0,0.9,0.3l0,0.1C48.2,31.6,48.1,31.5,48,31.5 M48.7,32.1c-0.1,0.3,0.3,0.2,0.4,0.3l0,0.1
		c0,0.1-0.2,0.1-0.3,0.1c-0.3-0.1-0.6,0-0.8,0.1c-0.1,0-0.2,0-0.3-0.1c0-0.2,0.3-0.1,0.4-0.1c0.1-0.1,0.2-0.1,0.3-0.2
		c-0.3-0.2-0.7,0-1,0c-0.2,0.1-0.5,0.1-0.7,0c0,0,0-0.1,0.1-0.1c0.3,0.1,0.5-0.2,0.8-0.2c0.2-0.1,0.5,0,0.8,0
		C48.5,32,48.7,32,48.7,32.1 M49.6,31.4c-0.1,0-0.1-0.2-0.2-0.2c-0.1-0.1-0.1-0.1-0.2-0.1c-0.1,0.1-0.2,0.3-0.3,0.5l0,0.1
		c-0.2,0-0.2-0.2-0.4-0.3c-0.1-0.3,0.2-0.5,0.3-0.7c0.2,0,0.5,0.1,0.6,0.3C49.5,31,49.7,31.2,49.6,31.4 M48.9,33
		c-0.2,0-0.4,0.1-0.6-0.1c0.1-0.2,0.3-0.1,0.4-0.2c0.3-0.1,0.5,0.2,0.7,0.2c0,0,0,0,0,0.1C49.3,33,49.1,32.9,48.9,33 M49.7,33.9
		c0-0.1,0.1-0.3-0.1-0.3c-0.1,0-0.3,0.1-0.4,0.1c0,0-0.1-0.1-0.1-0.1c0,0,0,0,0-0.1c0.2-0.2,0.5-0.3,0.7-0.4
		c0.1-0.1,0.2-0.2,0.3-0.1C50.1,33.3,49.9,33.6,49.7,33.9C49.7,34,49.7,33.9,49.7,33.9 M52,45.2c-0.3,0.4-0.9,0.8-1.5,0.8
		c-0.3-0.1-0.6-0.1-0.8-0.4c0-0.3-0.3-0.3-0.2-0.6c-0.2-0.5-0.4-1-0.3-1.6c-0.1-0.6,0.1-1.3,0.2-1.9c0.1-0.1,0.2-0.4,0.3-0.2
		c0,0.6-0.2,1.1,0.1,1.6c0.1,0,0.1,0.1,0.2,0.1c0.2-0.1,0-0.4,0.1-0.6c0.1-0.1,0.1,0,0.2,0.1c0.1,0.6,0,1.3,0.3,1.8
		c0.1,0.1,0.2,0.2,0.3,0.1c0.1-0.1,0.1-0.1,0.1-0.2c-0.3-0.8-0.3-1.8,0-2.6c0.1,0,0.1,0,0.1,0.1c0.1,0.5-0.1,1.1,0.1,1.5
		c0.2-0.1,0.2-0.3,0.3-0.5c0.1-0.5,0-1.1,0.1-1.6c0.1,0,0,0.1,0.1,0.1C52.1,42.5,52.9,44,52,45.2 M55.2,41.4
		c-0.3-0.5-0.6-0.9-0.6-1.5c0,0,0.1,0,0.1,0c0.2,0.3,0.5,0.8,1,0.8c0.1-0.1-0.1-0.3-0.1-0.4c0-0.2-0.1-0.3-0.1-0.5
		c0.1,0,0.1,0.1,0.2,0.2c0.3,0.2,0.6,0.4,0.7,0.8c0,0.3,0,0.7-0.3,1C55.8,41.7,55.5,41.6,55.2,41.4 M55,41.6
		c0.1,0.1,0.2,0.2,0.3,0.2c0.2,0.2,0.4,0.5,0.3,0.8c-0.1,0.1-0.1,0.3-0.2,0.4c-0.3,0-0.5-0.3-0.7-0.5c-0.2-0.2-0.3-0.4-0.2-0.7
		c0-0.1,0.1,0,0.2,0c0.2,0.1,0.3,0.4,0.5,0.2C55,41.9,54.9,41.8,55,41.6 M53.8,44.6c-0.4-0.3-0.5-0.7-0.6-1.2c0-0.1-0.1-0.3,0-0.4
		c0.1,0,0.1,0.1,0.1,0.1c0.2,0.2,0.4,0.6,0.7,0.7C54,43.9,54,44,54.1,44c0.1,0,0.2,0,0.2-0.1c0-0.1-0.1-0.3-0.2-0.4
		c-0.1-0.3-0.4-0.5-0.3-0.9c0.1-0.1,0.2,0.1,0.4,0.2c0.4,0.1,1,0.4,1.1,0.9c0,0.3,0,0.7-0.2,0.9C54.6,44.8,54.1,44.8,53.8,44.6
		 M54.9,53.3c-0.1,0.1-0.2,0.2-0.4,0.1c-0.6-0.2-0.8-0.8-0.9-1.3c0.1,0,0.2,0.2,0.3,0.2c0.2,0.1,0.3,0.5,0.6,0.3
		c0-0.3-0.3-0.4-0.4-0.7c0-0.1-0.1-0.2-0.1-0.3c0.1,0,0.1,0.2,0.3,0.3c0.3,0.1,0.6,0.4,0.7,0.7C55.1,52.8,55,53.1,54.9,53.3
		 M54,56.7c0-0.6,0.2-1.1,0.2-1.7c0-0.1,0.1-0.2,0.1-0.1c0.1,0.6,0,1.2,0.2,1.7c0,0.4,0.1,0.9-0.3,1.1c-0.1,0.1-0.3-0.1-0.3-0.2
		C53.9,57.3,54.1,57.1,54,56.7 M51.7,58.8c0.1-0.5,0.4-0.8,0.6-1.3c0.4-0.5,0.6-1,0.8-1.5c0-0.1-0.1-0.2,0-0.3
		c0.2,0.3,0.3,0.7,0.2,1.1c0,1-1.1,1.6-1.2,2.5c-0.1,0.1-0.2,0.3-0.3,0.4C51.6,59.4,51.7,59,51.7,58.8 M51.4,56.8
		c0-0.2,0.2-0.3,0.3-0.5c0.2-0.5,0.4-0.9,0.7-1.3c0.2-0.2,0.1-0.5,0.2-0.8c0.1,0,0.1,0.2,0.2,0.3c0.1,0.5,0.1,1.1-0.1,1.5
		c-0.3,0.6-0.8,1.1-1,1.6c-0.1,0.1-0.1,0.3-0.2,0.4C51.2,57.7,51.2,57.2,51.4,56.8 M50.3,55.9c-0.4-0.4-0.7-0.9-0.5-1.5
		c0-0.4,0.2-0.8,0.5-1c0.1-0.1,0-0.3,0.1-0.3c0.1,0.1,0,0.2-0.1,0.2c0.1,0.4,0.3,1-0.1,1.3c0,0.1,0,0.2,0.1,0.2
		c0.4,0.1,0.3-0.4,0.5-0.5c0,0.3-0.2,0.6-0.4,0.8c0,0.1,0.2,0.1,0.2,0.2c0.2,0,0.3-0.3,0.4-0.4c0.1-0.5,0.1-0.9-0.2-1.3
		c0-0.1-0.1-0.3,0.1-0.5c0.3,0,0.4,0.3,0.5,0.5c0.2,0.4,0.3,1,0.1,1.4c0.1,0.5-0.4,0.6-0.6,0.9C50.8,55.9,50.6,56,50.3,55.9
		 M48.8,56.8c-0.2-0.3-0.3-0.7-0.5-1c0-0.4-0.1-0.7,0-1.1c0-0.1,0-0.2,0.1-0.3l0,0c0,0.8,0.5,1.3,0.9,1.9c0.3,0.3,1,0.4,0.9,1
		c0,0.3,0.2,0.5,0,0.8c-0.1,0-0.1-0.1-0.1-0.1C49.9,57.5,49.3,57.2,48.8,56.8 M46.3,59.4c0.1-0.2,0.2-0.5,0.4-0.7
		c0.1-0.2,0.4-0.1,0.6-0.2c0.2,0.1,0.6-0.1,0.5,0.2c-0.2,0.4-0.4,0.9-0.2,1.3c-0.1,0.2-0.6-0.1-0.5,0.3c0.2,0.3,0.5,0.1,0.6,0.4
		c0.1,0.3,0.1,0.7,0.2,1c0,0.1-0.1,0-0.1,0c-0.3-0.2-0.6-0.4-0.9-0.2c-0.2,0.1-0.3,0.3-0.5,0.5c-0.1,0.1-0.1-0.1-0.1-0.1
		C46,61.1,46.1,60.2,46.3,59.4 M47.1,56.4c0,0.4,0.1,0.9-0.1,1.2c-0.1,0.1-0.2,0.2-0.3,0.1c-0.2-0.1-0.2-0.2-0.2-0.4
		c0-0.4-0.1-0.8,0.1-1.2c0.1-0.3,0.1-0.5,0.2-0.8c0-0.2,0.1-0.4,0.1-0.6c0.1,0.1,0,0.3,0.1,0.4C47,55.6,46.9,56,47.1,56.4
		 M47.1,52.6c0.1-0.1,0.1-0.2,0.2-0.2c0,0.2-0.2,0.3-0.2,0.5c-0.1,0.2-0.2,0.4-0.2,0.6c0.1,0.1,0.2,0,0.3,0c0.2-0.2,0.4-0.4,0.6-0.6
		c0,0,0,0.1,0,0.1c0,0,0,0.1,0,0.1c-0.2,0.4-0.4,1-1,1.1c-0.2,0-0.4,0-0.5-0.1c-0.1-0.3,0-0.7,0.2-1C46.7,52.9,46.9,52.6,47.1,52.6
		 M45.4,46.5L46,46c0.1,0,0.1,0,0.1,0.1c0.1,0.3-0.1,0.7-0.2,0.9c0,0.1-0.1,0.3,0,0.4c0.2,0,0.3-0.2,0.4-0.3
		c0.2-0.3,0.4-0.6,0.7-0.8c0,0,0.1,0,0.1,0c0,0.5-0.3,0.9-0.5,1.3c-0.2,0.4-0.6,0.7-1.1,0.6l-0.1-0.1C45.3,47.6,45.1,47,45.4,46.5
		 M46.6,42.8c-0.2,0.2-0.5,0.4-0.8,0.4c-0.1,0-0.2-0.1-0.2-0.2c-0.1-0.6,0.4-0.9,0.5-1.4c0.1-0.1,0.2-0.3,0.3-0.3
		c0.1,0.3-0.1,0.6-0.1,1c0.1,0.1,0.2-0.1,0.3-0.2c0.2-0.4,0.4-0.9,0.5-1.3c0-0.1,0.1,0,0.1,0C47.1,41.6,46.9,42.3,46.6,42.8
		 M49.6,45.9c0,0.3-0.1,0.5-0.2,0.8l-0.1,0.1c0.1,0.1,0,0.2,0,0.3c-0.1,0.6-0.6,1-1.2,1.1c-0.2,0-0.4-0.1-0.6-0.2
		c-0.3-0.2-0.2-0.6-0.2-1c0.2-0.6,0.6-1.2,1-1.8c0,0,0.1-0.1,0.1,0c0.1,0.6,0,1.1-0.2,1.6c0,0.1,0,0.2,0.1,0.3
		c0.2-0.1,0.2-0.3,0.4-0.4l0-0.1c0.2-0.4,0.5-0.8,0.6-1.3c0-0.1,0.1-0.1,0.1-0.1C49.7,45.5,49.6,45.8,49.6,45.9 M48.7,51.7
		c0.1-0.3,0.4-0.4,0.6-0.7c0.1,0,0.2,0,0.2,0.1c0,0.5-0.3,0.9-0.5,1.3c0.1,0.1,0.2-0.1,0.4-0.1c0.3-0.2,0.3-0.6,0.5-0.9
		c0.1,0,0.2,0.1,0.2,0.1c0.3,0.7-0.1,1.3-0.4,1.8c-0.2,0.4-0.6,0.2-0.9,0.3c-0.2,0-0.4-0.1-0.4-0.3C48.2,52.7,48.6,52.2,48.7,51.7
		 M48.2,50.5c0.3-0.3,0.5-0.6,0.7-0.9c0.1,0,0.1,0,0.1,0.1c0.1,0.8-0.3,1.4-0.9,1.8c-0.2,0.1-0.4,0.1-0.5,0.1
		c-0.1-0.1-0.2-0.3-0.3-0.4c-0.1-0.6,0.1-1.1,0.5-1.5c0.2-0.2,0.2-0.4,0.4-0.5c0.2,0.1,0.1,0.5,0.1,0.7c0,0.3-0.2,0.4-0.3,0.7
		C48,50.7,48.1,50.5,48.2,50.5 M53.3,51.1c-0.3-0.4-0.6-0.8-0.6-1.4c0,0,0.1-0.1,0.1,0c0.1,0.1,0.1,0.2,0.1,0.3
		c0.1,0.2,0.2,0.5,0.5,0.5c0.1,0,0-0.2,0-0.2c0-0.3-0.2-0.5-0.1-0.8h0c0.4,0.4,0.9,0.8,0.7,1.4c0,0.2-0.2,0.3-0.3,0.3
		C53.6,51.2,53.4,51.2,53.3,51.1 M52.4,52.2C52.3,52,52,51.9,52,51.6c0-0.1-0.1-0.2,0.1-0.3c0.5,0.2,0.9,0.5,1.2,0.9
		c0.1,0.3,0.1,0.7,0,0.9c0,0.1-0.1,0.3-0.2,0.3c-0.1,0.1-0.3,0.1-0.5,0.1c-0.5-0.3-0.8-0.9-0.9-1.5h0.1c0.2,0.2,0.3,0.7,0.7,0.5
		C52.4,52.5,52.4,52.4,52.4,52.2 M52.9,46.4c-0.1-0.2-0.1-0.6-0.2-0.8c0-0.2,0.2,0,0.2,0.1c0.2,0.6,1.1,0.7,1.1,1.4
		c0.1,0.2,0.1,0.4,0,0.6c-0.2,0.2-0.5,0.3-0.9,0.3c-0.5-0.2-0.8-0.7-1.2-1.1c0-0.3-0.3-0.5-0.1-0.8c0.1,0,0.2,0.1,0.2,0.1
		c0.3,0.3,0.6,0.6,0.9,0.8c0.1,0,0.1,0,0.2-0.1C53.2,46.7,53,46.6,52.9,46.4 M50,48.5C50,48.5,50,48.6,50,48.5
		c0.2-0.1,0.1-0.3,0.2-0.4c0-0.1,0.1,0,0.2,0c0.3,0.2,0.1,0.6,0.2,0.9c0,0.3-0.1,0.7-0.2,1c0.1,0.1,0.2,0,0.2,0
		c0.3-0.4,0.2-0.8,0.3-1.3c0-0.1,0-0.2,0.1-0.3c0.1,0,0.1,0.1,0.1,0.1c0,0.3-0.1,0.6,0,0.9l0.1,0c0.3-0.4,0.1-0.9,0.3-1.4
		c0.1-0.2,0-0.5,0.1-0.8c0.2,0,0.2,0.2,0.2,0.4c0,0.2,0.1,0.3,0.2,0.4c0.1,1,0.4,2.4-0.6,3c-0.3,0.2-0.8,0.1-1.1,0
		c-0.3-0.1-0.4-0.5-0.5-0.7c-0.2-0.6-0.4-1.2-0.3-1.9c0.1-0.6,0.2-1.3,0.5-1.8c0.1,0,0,0.2,0,0.3C50,47.5,49.8,48,50,48.5
		 M48.1,41.6c0.4-0.1,0.6-0.4,0.8-0.7c0-0.2,0.2-0.3,0.3-0.5c0,0,0,0,0.1,0c0,0.7-0.3,1.4-0.9,1.9c-0.1,0.1-0.3,0.1-0.4,0.1
		c-0.2-0.1-0.5-0.2-0.5-0.4c0-0.5,0.1-0.9,0.5-1.1c0.1-0.1,0.2-0.3,0.4-0.4c0,0.3-0.1,0.6-0.2,0.8C48.2,41.4,48,41.5,48.1,41.6
		 M47,44.3c0.4-0.3,0.7-0.8,1-1.1c0,0,0.1,0,0.1,0c0,0.7-0.4,1.3-0.9,1.9c-0.3,0.3-0.8,0.5-1.2,0.4c-0.3-0.1-0.4-0.4-0.5-0.6
		c0-0.3,0.1-0.5,0.2-0.7c0.4-0.3,0.9-0.6,1.1-1c0-0.1,0.1-0.1,0.2,0c0,0.5-0.3,0.9-0.5,1.3C46.8,44.5,46.9,44.4,47,44.3 M45.5,40.6
		c0.2-0.1,0.3-0.3,0.5-0.4c0.2-0.2,0.3-0.4,0.5-0.6c0.1,0,0.2,0,0.2,0.1c0,0.3-0.1,0.5-0.2,0.8c-0.3,0.6-0.7,1.2-1.4,1.3
		c-0.2,0-0.4-0.1-0.5-0.2c0-0.3-0.1-0.5-0.1-0.7c0-0.5,0.4-0.9,0.7-1.4c0.1-0.1,0.3-0.2,0.3,0c-0.1,0.3-0.1,0.7-0.1,1
		C45.4,40.5,45.5,40.6,45.5,40.6 M48.4,58c-0.6-0.3-0.7-1-0.6-1.6c0-0.1,0-0.3,0.2-0.3c0.1,0.1,0.1,0.2,0.2,0.3c0.3,0.6,1,1,1.4,1.5
		c0.4,0.2,0.6,0.7,0.6,1.2c0.1,0.1,0,0.3,0,0.4c0,0-0.1,0-0.1-0.1C49.7,58.8,49.1,58.2,48.4,58 M49.5,61.8c-0.2,0-0.4-0.1-0.5-0.2
		c-0.2,0-0.2,0.2-0.4,0.3c-0.1,0-0.1,0.1-0.2,0.1c-0.1-0.2-0.1-0.4-0.1-0.6c-0.1-0.2,0-0.5,0.1-0.7c0.2-0.1,0.3-0.3,0.5-0.3
		c0.1-0.1,0.1-0.1,0.1-0.2c-0.1-0.1-0.3-0.1-0.4-0.1c-0.2,0.1-0.3,0.2-0.5,0.4c-0.2-0.3-0.2-0.6-0.2-1c0-0.3,0.1-0.7,0.4-0.8
		c0.2,0.1,0.6,0.1,0.7,0.4c0.4,0.5,0.8,1,0.9,1.7c0,0.4,0.1,0.8-0.1,1.2C49.7,62,49.7,61.9,49.5,61.8 M48.8,62.2
		c0.2-0.1,0.4-0.3,0.7-0.1c0.2,0.2,0.2,0.4,0.2,0.6c-0.2,0.4-0.6,0.8-1,0.9c0,0-0.1,0-0.1-0.1c0-0.3,0.2-0.5,0.1-0.9
		C48.5,62.5,48.7,62.4,48.8,62.2 M53.3,61.3c-0.3,0-0.4,0.2-0.6,0.2c-0.1-0.2-0.1-0.4-0.2-0.6c-0.1-0.7,0-1.4,0.6-1.8
		c0.1-0.1,0.2,0,0.3,0c0.2,0.2,0.3,0.5,0.4,0.7c0.1,0.2,0.2,0.3,0.3,0.6c0.1,0.3,0,0.6,0,0.9C53.9,61.3,53.6,61.1,53.3,61.3
		 M54,62.9c-0.4-0.1-0.9-0.4-0.9-0.9c0-0.1-0.1-0.2-0.1-0.3c0.2-0.2,0.5-0.2,0.8-0.2l0.1,0.1C53.8,62,53.6,62.6,54,62.9 M54.9,61.9
		c0.1-0.3,0.4-0.3,0.6-0.4c0.1,0,0.2,0,0.2,0.1c-0.1,0.6-0.2,1.2-0.6,1.7c0,0.1-0.1,0.1-0.2,0.1c-0.1,0,0-0.1,0-0.2
		C55.2,62.8,55.1,62.3,54.9,61.9 M55.7,59.6c0.2,0.4,0.3,0.8,0.3,1.1c0,0.2,0.1,0.4-0.1,0.5c-0.5-0.1-0.9,0.1-1.3,0.4
		c-0.1,0-0.2,0-0.3-0.1c-0.1-0.2,0-0.4,0-0.6c0.1-0.2,0-0.5,0.2-0.7c0.1-0.1,0.3-0.1,0.3-0.3c-0.2-0.1-0.5,0-0.6-0.2
		c-0.2-0.3-0.4-0.6-0.4-1c0.3-0.3,0.8-0.4,1.2-0.3c0.1,0.1,0.3,0.1,0.3,0.2C55.5,59,55.6,59.3,55.7,59.6 M55.9,53.7
		c0-0.8,0.2-1.7,0.2-2.5c0.1-0.1,0.3-0.2,0.5-0.2c0,0.1,0,0.3,0,0.5c0,0.8-0.1,1.6-0.1,2.5c0,0.3-0.1,0.7-0.1,1
		c-0.1,0.2-0.1,0.4-0.1,0.7c0,0.7-0.2,1.3-0.3,1.9C55.9,57.7,56,58,55.8,58c-0.2-0.2-0.1-0.5-0.1-0.7c0.1-0.2,0-0.5,0.1-0.7
		C55.7,55.6,56,54.7,55.9,53.7 M56,47.2c-0.3,0.1-0.5-0.3-0.8-0.4c-0.3-0.4-0.6-0.8-0.6-1.3c0,0,0.1-0.1,0.1-0.1
		c0.2,0.3,0.4,0.7,0.8,0.8c0.1,0,0.1,0,0.1-0.1c-0.1-0.3-0.3-0.6-0.2-0.9c0.2,0,0.3,0.3,0.6,0.3c0.1,0.1,0.1,0.4,0.1,0.5
		C56,46.5,56.1,46.9,56,47.2 M58.4,41c-0.3-0.1-0.6-0.4-0.8-0.7c-0.1-0.3-0.3-0.5-0.3-0.8c0-0.2-0.1-0.4,0-0.6h0
		c0.2,0.5,0.6,0.8,1,1.3c0.1,0.1,0.3,0.1,0.4,0.3C58.6,40.8,58.6,41,58.4,41 M58.2,41.4c0,0,0.1-0.1,0.2-0.1c0.2,0,0.3,0.1,0.5,0.1
		c0.1,0.2,0.2,0.5,0.1,0.7c-0.3,0.1-0.5,0-0.7-0.2C58.1,41.7,58.2,41.5,58.2,41.4 M53,33.4c0.3-0.4,0.8-0.5,1.3-0.6
		c0.5,0,1.1,0.1,1.4,0.5c0.4,0.5,0.5,1.2,0.3,1.8c-0.3,0.6-0.9,1.1-1.6,1.1c-0.3,0.1-0.5-0.1-0.8-0.2c-0.4-0.2-0.5-0.6-0.7-0.9
		C52.6,34.6,52.7,33.9,53,33.4 M53,36.7c-0.1,0.1-0.2,0.2-0.3,0.3c-0.1-0.2,0.1-0.4,0.1-0.5c0,0,0-0.1,0-0.1c-0.1-0.1-0.2,0-0.2-0.2
		c0-0.1,0-0.1,0-0.2l0.2,0c0.2,0.2,0.5,0.5,0.8,0.7c0,0.2,0,0.4-0.1,0.6c0,0.2-0.2,0.4-0.2,0.6c0,0.1,0.1,0.1,0.1,0
		c0.2-0.3,0.3-0.6,0.6-0.9c0.3-0.1,0.6,0,0.9,0c0.2,0.1,0.1,0.4,0.2,0.6c0,0.1,0,0.3,0.1,0.4c0.2,0,0.2-0.3,0.2-0.4
		c0.1-0.3,0-0.5,0-0.8c0,0,0-0.1,0-0.2c0.1-0.1,0.2-0.1,0.3,0c0.2,0.1,0.3,0.4,0.5,0.5c0.1,0,0-0.1,0-0.2c0-0.2-0.3-0.4-0.3-0.6
		c0-0.1,0.1-0.1,0.2-0.1c0.2,0.1,0.1,0.4,0.3,0.5c0.1,0,0-0.1,0-0.2c-0.1-0.2-0.2-0.4-0.2-0.6c0.1-0.1,0.2,0,0.2,0
		c0.3,0.1,0.5,0.2,0.8,0.4c0.3,0.2,0.3,0.6,0.4,0.9c-0.1,0.3,0.2,0.7-0.1,0.9c-0.2,0.1-0.4,0.3-0.6,0.4c-0.1-0.1-0.1-0.2-0.2-0.3
		c-0.2-0.2-0.3-0.7-0.6-0.6c-0.1,0.1,0.1,0.3,0.1,0.5c0,0.3,0.3,0.6,0.1,0.9c-0.3-0.1-0.4,0.3-0.7,0.2c-0.3-0.1-0.6,0.5-0.9,0
		c0-0.4,0-0.8-0.1-1.3c0-0.1-0.1-0.3-0.2-0.4c-0.1,0.1,0,0.3-0.1,0.5c0,0.4-0.1,0.8-0.3,1.1c-0.1,0.1-0.2,0.2-0.3,0.1
		c0,0-0.1,0-0.1-0.1c0-0.2,0.1-0.4,0.1-0.6c0-0.1-0.1,0-0.1,0c-0.2,0.3-0.5,0.7-0.9,0.6c-0.1-0.1-0.1-0.1-0.2-0.1
		c0.1-0.2,0.4-0.4,0.4-0.6c-0.2,0-0.3,0.2-0.5,0.3c-0.1-0.7,0.6-1.1,0.7-1.8C53,36.7,53,36.7,53,36.7 M53.2,41.4
		c-0.5-0.2-1-0.7-1-1.3c0-0.1,0.1-0.1,0.1,0l0.5,0.5c0.4,0.2,0.8,0.5,1,0.9c0,0.1,0.1,0.3-0.1,0.4c-0.2,0.2-0.4,0.3-0.7,0.3
		c-0.5-0.1-1-0.5-1.2-0.9c-0.1-0.3-0.1-0.7,0-1c0.2,0,0.1,0.2,0.2,0.3c0.2,0.4,0.6,1,1.1,1.1C53.2,41.5,53.2,41.4,53.2,41.4
		 M50.6,38.5c0,0,0.1,0,0.1,0c0.1-0.2,0.1-0.6,0.1-0.8c0-0.7,0.1-1.4,0.2-2c0.1-0.1,0-0.3,0.2-0.3c0.2,0,0.5,0.1,0.6,0.3
		c0.1,0.9,0,1.9-0.3,2.7c-0.1,0.4-0.4,0.7-0.6,1.1c-0.1,0.1-0.1,0.4-0.4,0.4c-0.6-0.8-1-1.8-1-2.9c0-0.4-0.2-1,0.1-1.3
		c0.3-0.1,0.5-0.4,0.8-0.3l0,0.1C50.5,36.4,50.3,37.5,50.6,38.5 M43.6,37.4c-0.3,0-0.3-0.3-0.4-0.5c-0.1-0.1-0.1-0.3-0.1-0.4
		c0.1-0.1,0.1-0.2,0.1-0.3c-0.1-0.1-0.3,0-0.3-0.2c0-0.2-0.1-0.5,0.2-0.6c0.2-0.1,0.5,0,0.8-0.2c0,0,0-0.1-0.1-0.1
		c-0.3,0-0.5,0.1-0.7,0.2C43,35.2,43,35.1,43,35c0-0.7-0.1-1.3,0.1-1.8c0-0.1-0.1-0.3,0-0.4c0.3-0.1,0.4,0.4,0.7,0.3l0,0
		c-0.2-0.2-0.4-0.4-0.6-0.4c-0.1-0.2,0-0.5,0-0.7c0.1-0.1,0.1-0.2,0.2-0.1c0.2,0.1,0.3,0.3,0.5,0.4c0.1,0,0.1-0.1,0.1-0.2
		c-0.2-0.3-0.8-0.3-0.5-0.8c0-0.2,0.1-0.4,0.3-0.4c0.2,0.1,0.3,0.3,0.5,0.4l0.1,0c-0.2-0.2-0.3-0.4-0.2-0.6c0.1-0.1,0.3,0.1,0.4,0.1
		l0.2,0.1c0.2,0.1,0.5,0.2,0.5,0.5c0.2,0.3,0.2,0.6,0.5,0.8c0.1,0.2,0.2,0.3,0.3,0.4c-0.1,0.1-0.2,0.1-0.2,0
		c-0.2-0.1-0.3-0.4-0.5-0.6c-0.1,0-0.1,0-0.1,0.1c0.1,0.2,0.1,0.5,0.3,0.6l0,0.2c-0.3,0-0.7-0.3-0.9-0.5c0,0-0.1-0.1-0.2,0
		c-0.1,0.1,0,0.2,0,0.2c0.2,0.3,0.3,0.6,0.6,0.7c0.1,0,0.1,0.2,0,0.2c0,0.2-0.2,0.1-0.3,0.1c-0.2-0.2-0.4-0.4-0.6-0.5l-0.1,0
		c0,0.2,0.2,0.3,0.2,0.4c0.2,0.3,0.6,0.3,0.5,0.7c0,0.1,0,0.2-0.1,0.2c-0.5-0.1-1.2-0.3-1.6,0.2c0,0.1,0,0.1,0.1,0.1
		c0.5,0,0.9,0,1.3,0.3c0.1,0.1,0.2,0.2,0.1,0.3c-0.1,0-0.2,0-0.3,0.1c-0.1,0.1-0.3,0.2-0.5,0.3c0,0,0,0.1,0,0.1
		c0.2-0.1,0.5-0.2,0.7-0.3c0.1,0,0.2,0,0.2,0.1c0,0.1-0.1,0.1-0.2,0.2c-0.2,0.2-0.5,0.3-0.5,0.6l0.1,0c0.3,0,0.5-0.5,0.8-0.4
		c0.1,0.1,0.1,0.1,0.1,0.2c-0.4,0.3-1,0.5-1.1,1.1c0,0,0,0.1,0,0.1c0.1,0,0.1-0.1,0.2-0.2c0.4-0.3,0.7-0.6,1.2-0.7
		c0,0,0.1,0,0.1,0.1c0,0.2-0.4,0.4-0.4,0.6c-0.1,0.2-0.1,0.4-0.2,0.6c0,0,0.1,0.1,0.1,0c0.2-0.3,0.4-0.8,0.8-1c0,0.1,0.1,0,0.2,0.1
		c0.2,0,0.5,0.1,0.6,0.3c0,0.5-0.2,1.1,0,1.5c0.1-0.1,0-0.2,0.1-0.3c0-0.4,0.2-0.6,0.3-1c0-0.1,0.2-0.1,0.2-0.1
		c0.2,0.1,0.2,0.3,0.4,0.4c0.1-0.1,0-0.4,0-0.5c0.1-0.1,0.2-0.1,0.3-0.1c0,0,0.1,0,0.2,0c0.1-0.1,0-0.2,0-0.2
		c0.2-0.2,0.3-0.6,0.7-0.5l0.1,0.1c0,0.2,0,0.5-0.1,0.7c-0.1,0-0.1-0.2-0.3-0.1c-0.1,0.1,0,0.2,0,0.3c0.1,0.2,0.2,0.4,0.3,0.6
		c0,0.1,0.1,0.1,0,0.2c-0.3,0-0.4-0.3-0.5-0.4c-0.1-0.1-0.2,0-0.2,0.1c-0.1,0.3,0.2,0.6,0.4,0.8c0.1,0,0.2,0.1,0.2,0.1
		c0,0.1-0.1,0.2,0,0.3l0.1,0.2c-0.1,0.1-0.3,0-0.5-0.1c-0.3-0.2-0.6-0.6-0.7-1c0,0-0.1-0.1-0.1,0c-0.1,0.3,0,0.5,0.2,0.7
		c0.2,0.1,0.3,0.3,0.3,0.5c-0.1,0.1-0.2,0.1-0.3,0.1c-0.3-0.2-0.3-0.6-0.3-0.9c0,0-0.1-0.1-0.1,0c-0.1,0.2-0.1,0.4-0.1,0.5
		c0,0.1,0.1,0.4-0.1,0.5c-0.2,0.1-0.4,0-0.6,0.1c-0.2-0.1-0.2-0.4-0.2-0.6c0-0.1-0.1,0-0.1,0c-0.2,0.1-0.2,0.6-0.5,0.5
		c-0.2-0.1-0.5-0.2-0.7-0.5c-0.1-0.3,0.2-0.4,0.2-0.7c0.1-0.2,0.3-0.4,0.4-0.6c-0.1-0.1-0.3,0.1-0.4,0.2c-0.2,0.3-0.4,0.6-0.5,0.9
		c0,0.1-0.1,0.1-0.2,0.1c-0.3-0.3-1-0.5-0.9-1c0.1-0.1,0.1-0.2,0.2-0.3C43.7,37.2,43.7,37.4,43.6,37.4 M57.2,45.3
		c0,0.6,0,1.3-0.1,1.8c-0.1,0.1,0,0.2,0,0.3c-0.1,0.6,0,1.3-0.1,1.9l-0.1,0c-0.2-0.3-0.7-0.4-0.7-0.8c0.3-1,0.2-2.2,0.3-3.3
		c0.1-0.9,0.1-1.9,0-2.8c0,0,0-0.1,0.1-0.1c0.3,0.1,0.4,0.4,0.7,0.5C57.3,43.7,57.2,44.5,57.2,45.3 M59.3,40.4
		c0.2,0.1,0.4,0.1,0.5,0.3c0.2,0.1,0.2,0.3,0.3,0.5c0,0.1,0,0.3-0.1,0.3c-0.4,0-0.7-0.2-0.9-0.4C59,40.8,59.2,40.6,59.3,40.4
		 M60.5,43.9c-0.1-0.1,0-0.3-0.1-0.4c-0.1-0.4-0.3-0.8-0.3-1.3c-0.1-0.3,0.2-0.4,0.4-0.5c0.1-0.3,0.1-0.6,0-0.8
		c-0.1-0.4-0.7-0.5-0.7-0.9c0-0.3-0.2-0.6-0.2-1c-0.2-0.5-0.2-1.1-0.2-1.6c-0.1-0.6-0.1-1.2-0.2-1.8c-0.1-0.7-0.2-1.4-0.4-2.1
		c-0.1-0.6-0.3-1.2-0.6-1.7c0-0.4-0.4-0.7-0.2-1.1c0.3-0.5,0.6-1,0.8-1.5c0.2-0.3,0.1-0.7,0.2-1.1c0-0.3,0.1-0.6,0-0.9
		c-0.1,0-0.1,0-0.1,0c-0.1,0.5-0.7,0.7-1.1,1c-0.5,0.2-1.2,0.1-1.9,0.2c-0.4,0-0.7,0.4-1.2,0.1c-0.2-0.2-0.4-0.2-0.7-0.3
		c-0.5,0-1,0-1.4,0c-0.7,0-1.2-0.4-1.9-0.3c-0.9,0-1.6,0.4-2.5,0.3c-0.8-0.2-1.6,0.1-2.2,0.4c-0.2,0-0.5-0.2-0.8-0.2
		c-0.7-0.3-1.6,0.2-2.1-0.3c-0.3-0.3-0.5-0.6-0.5-1c-0.1,0.1-0.2,0.2-0.2,0.3c-0.2,0.3-0.3,0.6-0.3,0.9c-0.1,0.4,0,0.9,0.1,1.3
		c0.1,0.7,0.6,1.3,0.5,2c-0.1,0.3-0.3,0.7-0.4,1c-0.3,0.4-0.2,0.8-0.3,1.3c-0.3,0.8-0.1,1.6,0,2.5c-0.3,1-0.4,2-0.5,3
		c-0.1,0.7,0,1.4-0.3,2c-0.4,0.4-0.7,0.7-0.6,1.3c0,0.3,0.2,0.5,0.3,0.7c0.1,0.5,0.1,1.1,0,1.6c0,0.4-0.4,0.6-0.5,0.9
		c-0.1,0.4,0.2,0.6,0.4,0.8c0.1,0.2,0.1,0.6,0.2,0.8c0.1,0.7,0.2,1.3,0.3,2c0.2,1,0.3,2,0.5,2.9c0.2,1.2,0.5,2.3,0.8,3.4
		c0.3,0.8,0.5,1.7,0.8,2.5c0.2,0.7,0.6,1.3,0.6,2c0,0.1,0,0.2,0.1,0.2c0,0.5-0.4,0.8-0.3,1.3c0,0,1.5,2.6,3.2,3.7
		c0.7-0.8,1.7-1.5,3-1.5c2.1,0,4,2.1,6,3.7c0.1-0.2,0.3-0.3,0.5-0.5c-0.7-0.9-3.6-4.3-6-4.7c0,0,0.2-0.5,0-0.7
		c-0.2-0.3-0.2-0.5-0.2-0.8c0-0.1-0.1-0.4,0-0.5c0.4,0.1,0.5,0.5,0.7,0.8c0,0,0.1,0,0.1,0c0,0,0.1,0,0.1-0.1c0-0.4,0.5-0.6,0.7-0.8
		c0.1,0,0.1,0,0.2,0.1c0.1,0.4,0,0.9,0.3,1.2c0.1,0.1,0,0.2-0.1,0.3c0,0.3-0.2,0.2-0.2,0.2c1.8,0.9,2.8,1.9,3.8,3.1
		c0.7-0.5,3.2-2.1,3.1-3.7c0-0.5-0.3-0.5-0.4-0.8c-0.2-0.2-0.4-0.4-0.5-0.7c-0.3-0.5-0.5-1.1-0.4-1.8c0.2-0.5,0.2-1,0.4-1.5
		c0.3-0.9,0.5-1.8,0.7-2.7c0.3-1.2,0.7-2.5,0.8-3.8c0.2-0.4,0.2-0.9,0.3-1.4c0.2-0.4,0.1-1,0.2-1.5c0.1-0.4,0-0.8,0.2-1.1
		c0.1-0.2,0-0.4,0.1-0.6c0-0.3,0.3-0.2,0.3-0.5c0.2-0.1,0.3-0.4,0.4-0.5C61.1,44.5,60.8,44.2,60.5,43.9"/>
	<path d="M43.2,28.9c0.2,0.2,0.5,0.2,0.8,0.2c0.3,0.1,0.6,0,0.8,0.2c0.1,0.1,0.3,0.2,0.3,0.5l-0.1,0c-0.6-0.3-1.3,0-1.8-0.5
		c-0.2,0-0.3-0.2-0.3-0.4c0-0.1,0-0.1,0-0.2C43,28.8,43.1,28.9,43.2,28.9"/>
	<path d="M58.4,28.8c0,0.2-0.1,0.3-0.3,0.4c-0.5,0.3-1.2,0.5-1.9,0.4c0,0,0-0.1,0-0.1c0.4-0.1,0.9-0.2,1.3-0.4
		C57.8,29,58.1,28.9,58.4,28.8L58.4,28.8z"/>
	<path d="M46.3,33.7c-0.1,0-0.8,1.1-0.1,1.7c0.9,0.8,2-0.6,1.8-0.9c-0.1-0.1-0.4,0.8-1.2,0.6C45.9,34.9,46.4,33.8,46.3,33.7"/>
	<path d="M53.5,35.2c0,0.3,1.1,0.8,1.7,0.1c0.7-1.1-0.3-1.7-0.6-1.4c-0.1,0.1,0.6,0.4,0.3,1.1C54.5,35.7,53.5,35,53.5,35.2"/>
	<path d="M396.1,41.1c0-1,0-3.5,0.3-4.3c0.1-0.2,0.5-0.3,1.2-0.4l0.3,0c0.1-0.1,0.1-0.4,0-0.5c-0.7,0-1.2,0.1-2.1,0.1
		c-0.8,0-1.5,0-2.4-0.1c-0.2,0.1-0.2,0.4,0,0.5l0.4,0c0.8,0.1,1.2,0.2,1.3,0.4c0.4,0.6,0.4,3.3,0.4,4.3v4.4c0,0.4,0,0.8-0.1,0.9h0
		c-1-1-2-2.2-3.4-3.8l-2-2.3c-0.7-0.8-3.1-3.5-3.5-4.6c-0.3,0-0.6,0.1-1,0.1c-0.4,0-1.5,0-2.3-0.1c-0.2,0.1-0.2,0.4,0,0.5l0.4,0
		c0.5,0.1,1,0.2,1.3,0.5c0.4,0.5,0.5,0.9,0.5,1.5v6c0,1,0,3.5-0.3,4.3c-0.1,0.2-0.4,0.4-0.9,0.4l-0.6,0.1c-0.1,0.1-0.1,0.4,0,0.5
		c0.7,0,1.3-0.1,2.2-0.1c0.8,0,1.5,0,2.4,0.1c0.1-0.1,0.2-0.4,0-0.5l-0.6-0.1c-0.5,0-0.9-0.2-1.1-0.4c-0.4-0.6-0.4-3.3-0.4-4.3v-4.5
		c0-0.6,0-1.1,0.1-1.3h0c0.4,0.5,1.8,2.2,2.4,2.8l4.8,5.5c1.8,2.1,2.4,2.8,2.7,3.1c0.2,0,0.4-0.1,0.4-0.2c-0.1-0.5-0.1-3-0.1-3.6
		V41.1z M369.7,46.5c0,2.2-0.1,2.5-1.3,2.6l-0.7,0.1c-0.1,0.1-0.1,0.5,0,0.5c1.2,0,1.9-0.1,2.8-0.1h1.9c1.8,0,3.7,0,5.6,0.1
		c0.3-0.6,0.8-2.2,0.9-2.9c-0.1-0.2-0.4-0.2-0.5-0.1c-0.5,1.1-1.1,1.8-1.5,2c-0.5,0.2-1.1,0.3-2.7,0.3c-1.8,0-2.3-0.2-2.5-0.5
		c-0.3-0.4-0.4-1.1-0.4-2.2v-2.9c0-0.5,0.1-0.6,0.7-0.6h1.2c0.8,0,1.3,0,1.6,0.1c0.4,0.1,0.6,0.4,0.6,0.8l0.2,0.8
		c0.1,0.1,0.5,0.1,0.5,0c0-0.5-0.1-1.2-0.1-2c0-0.8,0.1-1.6,0.1-2.1c-0.1-0.1-0.4-0.1-0.5,0l-0.2,0.8c-0.1,0.5-0.2,0.6-0.5,0.7
		c-0.2,0.1-0.9,0.1-1.8,0.1h-1.2c-0.6,0-0.7,0-0.7-0.6v-4.1c0-0.8,0-0.8,0.6-0.8h1.5c0.9,0,1.6,0,2,0.1c1.1,0.3,1.3,1,1.6,2
		c0.1,0.1,0.4,0.1,0.5,0c-0.1-0.9-0.2-2.4-0.3-2.8c-0.2,0.1-1.5,0.1-2.8,0.1h-3.9c-0.8,0-1.6,0-2.4-0.1c-0.1,0.1-0.2,0.4,0,0.5
		l0.3,0c1.2,0.1,1.3,0.5,1.3,2.6V46.5z M361.9,46.3c0-1.1,0-1.6,0.9-1.7l0.3,0c0.1-0.1,0.1-0.4,0-0.5c-0.7,0-1.4,0.1-2.2,0.1
		c-1.2,0-2.4,0-3-0.1c-0.1,0.1-0.2,0.4,0,0.5l0.9,0.1c1.3,0.1,1.3,0.3,1.3,2v0.8c0,0.7-0.1,1-0.2,1.2c-0.2,0.4-1,0.6-2.3,0.6
		c-4.2,0-6.2-3.1-6.2-7.1c0-3.1,1.8-6,5.8-6c2.1,0,3.7,0.7,4.2,2.9c0.1,0.1,0.5,0.1,0.6-0.1c-0.2-1.2-0.3-2.3-0.3-3
		c-0.2,0-0.9-0.1-1.3-0.2c-0.4-0.1-1.5-0.3-2.6-0.3c-3.1,0-5.2,1-6.6,2.4c-1.3,1.4-1.9,3.2-1.9,4.9c0,1.8,0.7,3.5,1.9,4.7
		c1.6,1.6,3.9,2.3,6.3,2.3c1.1,0,2.6-0.2,3.7-0.5c0.4-0.1,0.8-0.2,1-0.2c0.1-0.1,0.1-0.2,0-0.2c-0.4-0.1-0.5-0.6-0.5-1.5V46.3z
		 M337.1,37.1c0-0.6,0.1-0.7,1.3-0.7c2.3,0,3.3,1.6,3.3,3.2c0,1.4-0.5,2.1-1,2.6c-0.6,0.5-1.4,0.5-2.1,0.5c-1.1,0-1.4,0-1.4-0.1
		c-0.1-0.1-0.1-0.3-0.1-0.7V37.1z M335.4,46.5c0,2.2,0,2.4-1.2,2.6l-0.5,0.1c-0.1,0.1-0.1,0.5,0,0.5c1,0,1.7-0.1,2.6-0.1
		c0.8,0,1.5,0,2.5,0.1c0.1-0.1,0.2-0.4,0-0.5l-0.4-0.1c-1.2-0.2-1.2-0.4-1.2-2.6v-2.6c0-0.4,0-0.5,1-0.5c0.8,0,1.2,0.2,1.5,0.7
		c0.6,0.9,1.5,2.4,2,3.1c1.5,2.1,2.5,2.6,4.3,2.6c0.4,0,0.7,0,0.9-0.1c0.1-0.1,0.1-0.2,0-0.3c-0.6,0-1.1-0.3-1.4-0.6
		c-1.4-1.2-2.5-2.8-4.2-5.5c-0.1-0.2-0.2-0.4-0.1-0.5c1-0.4,2.6-1.5,2.6-3.5c0-1.5-0.7-2.4-1.7-2.9c-1-0.5-2.2-0.6-3.5-0.6
		c-2,0-3.5,0.1-4.6,0.2c-0.2,0.1-0.2,0.4,0,0.5l0.7,0.1c0.9,0.1,0.9,0.5,0.9,2.4V46.5z M320.2,46.5c0,2.2-0.1,2.5-1.3,2.6l-0.7,0.1
		c-0.1,0.1-0.1,0.5,0,0.5c1.2,0,1.9-0.1,2.8-0.1h1.9c1.8,0,3.7,0,5.6,0.1c0.3-0.6,0.8-2.2,0.9-2.9c-0.1-0.2-0.4-0.2-0.5-0.1
		c-0.5,1.1-1.1,1.8-1.5,2c-0.5,0.2-1.1,0.3-2.7,0.3c-1.8,0-2.3-0.2-2.5-0.5c-0.3-0.4-0.4-1.1-0.4-2.2v-2.9c0-0.5,0.1-0.6,0.7-0.6
		h1.2c0.8,0,1.3,0,1.6,0.1c0.4,0.1,0.6,0.4,0.6,0.8l0.2,0.8c0.1,0.1,0.5,0.1,0.5,0c0-0.5-0.1-1.2-0.1-2c0-0.8,0.1-1.6,0.1-2.1
		c-0.1-0.1-0.4-0.1-0.5,0l-0.2,0.8c-0.1,0.5-0.2,0.6-0.5,0.7c-0.2,0.1-0.9,0.1-1.8,0.1h-1.2c-0.6,0-0.7,0-0.7-0.6v-4.1
		c0-0.8,0-0.8,0.6-0.8h1.5c0.9,0,1.6,0,2,0.1c1.1,0.3,1.3,1,1.6,2c0.1,0.1,0.4,0.1,0.5,0c-0.1-0.9-0.2-2.4-0.3-2.8
		c-0.2,0.1-1.5,0.1-2.8,0.1h-3.9c-0.8,0-1.6,0-2.4-0.1c-0.1,0.1-0.2,0.4,0,0.5l0.3,0c1.2,0.1,1.3,0.5,1.3,2.6V46.5z M306.2,37.1
		c0-0.4,0.1-0.5,0.3-0.5c0.2-0.1,0.5-0.1,1-0.1c1.6,0,3.1,0.8,3.1,2.8c0,1.9-1.1,2.6-3.3,2.7c-1.1,0-1.1,0-1.1-0.6V37.1z
		 M306.2,43.1c0-0.4,0.1-0.5,1.2-0.5c3.3,0,4.1,1.9,4.1,3.5c0,2.1-1.4,2.9-3.3,2.9c-0.6,0-1.2-0.1-1.6-0.6c-0.4-0.5-0.4-1.5-0.4-2.3
		V43.1z M304.5,46.5c0,2.2,0,2.4-1.1,2.6l-0.4,0.1c-0.1,0.1-0.1,0.5,0,0.5c0.8,0,1.5-0.1,2.4-0.1c0.9,0,1.9,0.1,2.5,0.1
		c3.7,0,5.5-1.6,5.5-4c0-2.2-1.7-3.3-2.8-3.5c-0.2,0-0.4-0.1-0.4-0.3c1.2-0.6,2.1-1.3,2.1-2.8c0-1.3-0.7-2.2-1.6-2.6
		c-0.9-0.5-2.2-0.6-3.5-0.6c-1.9,0-3.3,0.1-4.5,0.2c-0.2,0.1-0.2,0.4,0,0.5l0.7,0.1c0.9,0.1,1,0.5,1,2V46.5z M283.7,37.4
		c0-0.8,0-0.8,0.6-0.8h1.3c0.9,0,1.6,0,2,0.1c1,0.3,1.3,1,1.5,2c0.1,0.1,0.4,0.1,0.5-0.1c0-0.8-0.1-1.8-0.1-2.7
		c-0.3,0.1-1.5,0.1-2.8,0.1h-3.8c-0.8,0-1.5,0-2.4-0.1c-0.1,0.1-0.2,0.4,0,0.5l0.3,0c1.2,0.1,1.2,0.4,1.2,2.6v7.5
		c0,2.2,0,2.4-1.2,2.6l-0.5,0.1c-0.1,0.1-0.1,0.5,0,0.5c1,0,1.7-0.1,2.6-0.1c0.8,0,1.5,0,2.8,0.1c0.1-0.1,0.2-0.4,0-0.5l-0.7-0.1
		c-1.2-0.1-1.3-0.4-1.3-2.6v-2.9c0-0.5,0.1-0.6,0.7-0.6h1.4c0.8,0,1.3,0,1.6,0.1c0.4,0.1,0.6,0.4,0.7,0.8l0.2,0.8
		c0.1,0.1,0.5,0.1,0.5,0c0-0.5-0.1-1.3-0.1-2c0-0.8,0.1-1.6,0.1-2.1c-0.1-0.1-0.4-0.1-0.5,0l-0.2,0.8c-0.1,0.5-0.3,0.6-0.5,0.7
		c-0.2,0.1-0.9,0.1-1.8,0.1h-1.4c-0.6,0-0.7,0-0.7-0.6V37.4z M268.3,49.3c-4.1,0-5.6-4-5.6-7c0-4.5,2.8-6,5-6c4,0,5.5,3.7,5.5,7.1
		C273.2,47.4,270.8,49.3,268.3,49.3 M268,49.9c4,0,7.2-3,7.2-7.2c0-3.6-2.4-7.1-7.2-7.1c-4.3,0-7.4,3.2-7.4,7.3
		C260.7,46.6,263.4,49.9,268,49.9 M243.4,45.3c0-1.6,0.1-1.8,1-3.4l1.3-2.3c1-1.8,1.7-3.1,2.7-3.3l0.6-0.1c0.1-0.1,0.1-0.4,0-0.5
		c-0.7,0-1.3,0.1-1.9,0.1c-0.6,0-1.2,0-2-0.1c-0.2,0.1-0.2,0.4,0,0.5l0.4,0c0.5,0.1,0.9,0.2,0.9,0.3c0,0.2-0.8,1.7-1.3,2.7
		c-0.6,1.2-1.3,2.4-1.9,3.5c-0.8-1.4-1.6-3.1-2.3-4.6c-0.1-0.2-0.6-1.4-0.6-1.6c0-0.2,0.1-0.3,0.9-0.4l0.3,0
		c0.1-0.1,0.1-0.5-0.1-0.5c-0.5,0-1.3,0.1-2.2,0.1c-1,0-1.7,0-2.4-0.1c-0.1,0.1-0.2,0.4,0,0.5l0.6,0.1c0.6,0.1,0.9,0.2,1.6,1.6
		l2.4,4.8c0.6,1.2,0.7,1.4,0.7,2.6v1.1c0,2.2,0,2.5-1.2,2.6l-0.6,0.1c-0.1,0.1-0.1,0.5,0,0.5c1.1,0,1.8-0.1,2.7-0.1
		c0.8,0,1.5,0,2.8,0.1c0.1-0.1,0.2-0.4,0-0.5l-0.8-0.1c-1.1-0.1-1.2-0.4-1.2-2.6V45.3z M227,37.2c0-0.7,0-0.7,0.6-0.7h1.5
		c1.1,0,1.9,0.2,2.4,0.5c0.3,0.2,0.5,1,0.5,1.5c0.1,0.1,0.5,0.1,0.5,0c-0.1-0.6,0.1-2.3,0.3-3.2c0-0.1-0.3-0.1-0.4-0.1
		c-0.3,0.5-0.5,0.6-1.6,0.6h-8.4c-1,0-1.6,0-1.8-0.6c-0.1-0.1-0.3,0-0.4,0c-0.1,0.8-0.5,2.2-0.8,3.1c0.1,0.2,0.4,0.3,0.5,0.1
		c0.2-0.5,0.4-1,0.9-1.4c0.5-0.5,1.7-0.5,2.5-0.5h1.1c0.6,0,0.6,0,0.6,0.7v9.3c0,2.2-0.1,2.5-1.3,2.6l-0.7,0.1
		c-0.2,0.1-0.1,0.5,0,0.5c1.3,0,2.1-0.1,2.9-0.1s1.5,0,2.7,0.1c0.1-0.1,0.2-0.4,0-0.5l-0.7-0.1c-1.2-0.1-1.2-0.4-1.2-2.6V37.2z
		 M211.9,46.4c0,2.2,0,2.5-1.3,2.6l-0.5,0.1c-0.1,0.1-0.1,0.5,0,0.5c1,0,1.7-0.1,2.6-0.1c0.8,0,1.5,0,2.6,0.1c0.1-0.1,0.2-0.4,0-0.5
		l-0.5-0.1c-1.2-0.1-1.3-0.4-1.3-2.6V39c0-2.2,0-2.5,1.3-2.7l0.5,0c0.1-0.1,0.1-0.5,0-0.5c-1,0-1.7,0.1-2.6,0.1
		c-0.9,0-1.6,0-2.6-0.1c-0.1,0.1-0.2,0.4,0,0.5l0.5,0c1.2,0.1,1.3,0.5,1.3,2.7V46.4z M205.1,46.1c0-2-1.3-3.2-2.6-4l-1.7-1
		c-0.8-0.5-1.8-1.3-1.8-2.6c0-1,0.4-2.3,2.5-2.3c2,0,2.5,1.3,2.8,2.3c0.1,0.1,0.4,0.1,0.5-0.1c0-0.9-0.2-2-0.4-2.5
		c-0.2,0-0.5,0-0.7-0.1c-0.5-0.1-1.3-0.3-1.9-0.3c-2.7,0-4.2,1.6-4.2,3.6c0,1.7,1.2,2.9,2.2,3.6l2,1.3c1.5,1,1.7,2,1.7,2.9
		c0,1.2-0.8,2.4-2.6,2.4c-2.4,0-3.3-2-3.6-3.1c-0.1-0.1-0.4-0.1-0.5,0.1c0,1,0.3,2.4,0.6,2.9c0.4,0.2,1.5,0.8,3.2,0.8
		C203.3,49.9,205.1,48.3,205.1,46.1 M183.9,37.1c0-0.6,0.1-0.7,1.3-0.7c2.3,0,3.3,1.6,3.3,3.2c0,1.4-0.5,2.1-1,2.6
		c-0.6,0.5-1.4,0.5-2.1,0.5c-1.1,0-1.4,0-1.4-0.1c-0.1-0.1-0.1-0.3-0.1-0.7V37.1z M182.2,46.5c0,2.2,0,2.4-1.2,2.6l-0.5,0.1
		c-0.1,0.1-0.1,0.5,0,0.5c1,0,1.7-0.1,2.6-0.1c0.8,0,1.5,0,2.5,0.1c0.1-0.1,0.2-0.4,0-0.5l-0.4-0.1c-1.2-0.2-1.2-0.4-1.2-2.6v-2.6
		c0-0.4,0-0.5,1-0.5c0.8,0,1.2,0.2,1.5,0.7c0.6,0.9,1.5,2.4,2,3.1c1.5,2.1,2.5,2.6,4.3,2.6c0.4,0,0.7,0,0.9-0.1
		c0.1-0.1,0.1-0.2,0-0.3c-0.6,0-1.1-0.3-1.4-0.6c-1.4-1.2-2.5-2.8-4.2-5.5c-0.1-0.2-0.2-0.4-0.1-0.5c1-0.4,2.6-1.5,2.6-3.5
		c0-1.5-0.7-2.4-1.7-2.9c-1-0.5-2.2-0.6-3.5-0.6c-2,0-3.5,0.1-4.6,0.2c-0.2,0.1-0.2,0.4,0,0.5l0.7,0.1c0.8,0.1,0.9,0.5,0.9,2.4V46.5
		z M167,46.5c0,2.2-0.1,2.5-1.3,2.6l-0.7,0.1c-0.1,0.1-0.1,0.5,0,0.5c1.2,0,1.9-0.1,2.8-0.1h1.9c1.8,0,3.7,0,5.6,0.1
		c0.3-0.6,0.8-2.2,0.9-2.9c-0.1-0.2-0.4-0.2-0.5-0.1c-0.5,1.1-1.1,1.8-1.5,2c-0.5,0.2-1.1,0.3-2.7,0.3c-1.8,0-2.3-0.2-2.5-0.5
		c-0.3-0.4-0.4-1.1-0.4-2.2v-2.9c0-0.5,0.1-0.6,0.7-0.6h1.2c0.8,0,1.3,0,1.6,0.1c0.4,0.1,0.6,0.4,0.6,0.8l0.2,0.8
		c0.1,0.1,0.5,0.1,0.5,0c0-0.5-0.1-1.2-0.1-2c0-0.8,0.1-1.6,0.1-2.1c-0.1-0.1-0.4-0.1-0.5,0l-0.2,0.8c-0.1,0.5-0.2,0.6-0.5,0.7
		c-0.2,0.1-0.9,0.1-1.8,0.1h-1.2c-0.6,0-0.7,0-0.7-0.6v-4.1c0-0.8,0-0.8,0.6-0.8h1.5c0.9,0,1.6,0,2,0.1c1.1,0.3,1.3,1,1.6,2
		c0.1,0.1,0.4,0.1,0.5,0c-0.1-0.9-0.2-2.4-0.3-2.8c-0.2,0.1-1.5,0.1-2.8,0.1h-3.9c-0.8,0-1.6,0-2.4-0.1c-0.1,0.1-0.2,0.4,0,0.5
		l0.3,0c1.2,0.1,1.3,0.5,1.3,2.6V46.5z M152.9,47.1c0.4,0.9,0.7,1.9,1,2.8c0.1,0,0.2,0.1,0.3,0.1c0.1,0,0.2,0,0.2-0.1
		c0.4-1.1,1.3-3.5,2.2-5.4l1.1-2.5c0.9-2.1,1.7-3.8,2.3-4.8c0.3-0.4,0.6-0.7,1.1-0.7l0.6,0c0.1-0.1,0.1-0.4,0-0.5
		c-0.7,0-1.3,0.1-2,0.1c-0.8,0-1.6,0-2.2-0.1c-0.1,0.1-0.2,0.4,0,0.5l0.4,0c0.7,0.1,0.9,0.2,0.9,0.4c0,0.1,0,0.4-0.2,0.8
		c-0.4,0.9-1.3,3.2-1.9,4.6c-0.5,1.1-1.3,3.2-2,4.6c-1-2.4-2-4.7-2.9-7.2c-0.6-1.6-1-2.7-1-2.9c0-0.2,0.2-0.3,1-0.4l0.3,0
		c0.1-0.1,0.1-0.4,0-0.5c-0.9,0-1.6,0.1-2.5,0.1c-0.9,0-1.6,0-2.2-0.1c-0.2,0.1-0.2,0.4,0,0.5l0.4,0c0.9,0.1,1.2,0.5,1.7,1.7
		L152.9,47.1z M139.7,46.4c0,2.2,0,2.5-1.3,2.6l-0.5,0.1c-0.1,0.1-0.1,0.5,0,0.5c1,0,1.7-0.1,2.6-0.1c0.8,0,1.5,0,2.6,0.1
		c0.1-0.1,0.2-0.4,0-0.5l-0.5-0.1c-1.2-0.1-1.3-0.4-1.3-2.6V39c0-2.2,0-2.5,1.3-2.7l0.5,0c0.1-0.1,0.1-0.5,0-0.5
		c-1,0-1.7,0.1-2.6,0.1c-0.9,0-1.6,0-2.6-0.1c-0.1,0.1-0.2,0.4,0,0.5l0.5,0c1.2,0.1,1.3,0.5,1.3,2.7V46.4z M131.5,41.1
		c0-1,0-3.5,0.3-4.3c0.1-0.2,0.5-0.3,1.2-0.4l0.3,0c0.1-0.1,0.1-0.4,0-0.5c-0.7,0-1.2,0.1-2.1,0.1c-0.8,0-1.5,0-2.4-0.1
		c-0.2,0.1-0.2,0.4,0,0.5l0.4,0c0.8,0.1,1.2,0.2,1.3,0.4c0.4,0.6,0.4,3.3,0.4,4.3v4.4c0,0.4,0,0.8-0.1,0.9h0c-1-1-2-2.2-3.4-3.8
		l-2-2.3c-0.7-0.8-3.1-3.5-3.5-4.6c-0.3,0-0.6,0.1-1,0.1c-0.4,0-1.5,0-2.3-0.1c-0.2,0.1-0.2,0.4,0,0.5l0.4,0c0.5,0.1,1,0.2,1.3,0.5
		c0.4,0.5,0.5,0.9,0.5,1.5v6c0,1,0,3.5-0.3,4.3c-0.1,0.2-0.4,0.4-0.9,0.4l-0.6,0.1c-0.1,0.1-0.1,0.4,0,0.5c0.7,0,1.3-0.1,2.2-0.1
		c0.8,0,1.5,0,2.4,0.1c0.1-0.1,0.2-0.4,0-0.5l-0.6-0.1c-0.5,0-0.9-0.2-1.1-0.4c-0.4-0.6-0.4-3.3-0.4-4.3v-4.5c0-0.6,0-1.1,0.1-1.3h0
		c0.4,0.5,1.8,2.2,2.4,2.8l4.8,5.5c1.8,2.1,2.4,2.8,2.7,3.1c0.2,0,0.4-0.1,0.4-0.2c-0.1-0.5-0.1-3-0.1-3.6V41.1z M111.7,43.5
		c0,3.2-1.1,5.5-4.1,5.5c-3.2,0-4.2-2.2-4.2-5.5V39c0-2.2,0-2.5,1.2-2.6l0.5,0c0.1-0.1,0.1-0.4,0-0.5c-1,0-1.7,0.1-2.5,0.1
		c-0.8,0-1.5,0-2.6-0.1c-0.1,0.1-0.2,0.4,0,0.5l0.5,0c1.2,0.1,1.2,0.5,1.2,2.6v4.9c0,2.5,0.5,4,1.6,4.9c1,0.9,2.4,1.1,3.9,1.1
		c1.5,0,3.1-0.5,4-1.5c1.2-1.2,1.5-3.2,1.5-5v-2.3c0-1.2,0-3.5,0.3-4.2c0.1-0.3,0.5-0.5,1-0.5l0.5,0c0.1-0.1,0.1-0.4,0-0.5
		c-0.7,0-1.3,0.1-2.2,0.1c-0.8,0-1.6,0-2.4-0.1c-0.1,0.1-0.2,0.4,0,0.5l0.5,0c0.5,0,0.9,0.2,1,0.4c0.4,0.6,0.4,3,0.4,4.3V43.5z"/>
</g>
<g>
	<path d="M301.2,59.7c-0.8,0-1.6,1.1-1.9,2.2c0,0.2,0.1,0.3,0.3,0.2c0.4-0.7,0.6-1.3,1-1.3c0.3,0,0.6,0.7,0.7,2.6
		c0,1.5-0.1,3-0.3,3.9c-0.3,1.1-1.1,2.2-1.5,2.6c-0.4,0.3-0.7,0.5-0.9,0.5c-0.3,0-0.4-0.2-0.5-0.3c-0.1-0.2-0.3-0.3-0.5-0.3
		c-0.4,0-0.7,0.3-0.7,0.7c0,0.4,0.3,0.8,0.9,0.8c0.5,0,1.4-0.3,2.7-1.7c1.4-1.6,2-2.7,2.8-4.1c1.5-2.6,2-4.8,2-5.2
		c0-0.2-0.1-0.3-0.2-0.3c-0.1-0.1-0.4-0.2-0.5-0.2c-0.1,0-0.4,0-0.4,0.5c0,0.4-0.3,2.2-0.6,3.2c-0.4,1-0.9,2.1-1.4,2.9H302
		c0.2-1.4,0.3-2.7,0.3-3.8C302.2,61.4,302.1,59.7,301.2,59.7 M294.6,59.7c-0.8,0-1.5,0.7-2,1.6c0,0.2,0.1,0.3,0.3,0.3
		c0.3-0.4,0.8-0.9,1.2-0.9c0.2,0,0.2,0.2,0.1,0.4c-0.5,1.7-1.5,4.7-1.8,5.4c-0.1,0.4,0.4,0.4,0.6,0.4c0.1,0,0.2-0.1,0.3-0.2
		c0.9-2,1.9-4,2.9-5.4c0.3-0.3,0.4-0.5,0.6-0.5c0.2,0,0.3,0.2,0.4,0.7c0.1,0.4,0.3,0.3,0.5,0.1c0.2-0.3,0.4-0.8,0.4-1
		c0-0.3-0.1-0.8-0.7-0.8c-0.4,0-0.9,0.4-1.2,0.9c-0.4,0.6-1.3,1.9-1.8,2.9h-0.1l0.7-2.2C295.1,60.8,295.4,59.7,294.6,59.7
		 M287.8,60.6c0.4,0,0.7,0.3,0.9,0.6c-0.3,1-1,2.5-2.3,3.7c-1,0.9-1.5,1.1-1.7,1.1c-0.2,0-0.3-0.1-0.3-0.3c0-1.2,1-3.5,2.1-4.4
		C287.1,60.7,287.4,60.6,287.8,60.6 M289.1,60.4c-0.1-0.2-0.3-0.3-0.3-0.4c-0.1,0-0.2-0.1-0.4-0.1c-0.4,0-0.9,0.1-1.5,0.5
		c-0.7,0.4-1.4,1.1-2.3,2.2c-1.1,1.6-1.5,2.9-1.5,3.3c0,0.5,0.3,1,0.8,1c0.8,0,2.5-1.2,3.8-2.7l0.1,0l-0.6,1.5
		c-0.1,0.4-0.2,0.5-0.2,0.7c0,0.1,0.1,0.5,0.5,0.5c0.9,0,2.2-1,2.9-1.9c0-0.1-0.1-0.2-0.2-0.2c-1,0.9-1.5,1.1-1.8,1.1
		c-0.1,0-0.2-0.1-0.1-0.4c0.5-1.6,2-5.3,2.3-6c-0.1-0.2-0.5-0.4-0.8-0.3L289.1,60.4z M279.5,59.7c-0.8,0-1.5,0.7-2,1.6
		c0,0.2,0.1,0.3,0.3,0.3c0.3-0.4,0.8-0.9,1.2-0.9c0.2,0,0.2,0.2,0.1,0.4c-0.5,1.7-1.5,4.7-1.8,5.4c-0.1,0.4,0.4,0.4,0.6,0.4
		c0.1,0,0.2-0.1,0.3-0.2c0.9-2,1.9-4,2.9-5.4c0.3-0.3,0.4-0.5,0.6-0.5c0.2,0,0.3,0.2,0.4,0.7c0.1,0.4,0.3,0.3,0.5,0.1
		c0.2-0.3,0.4-0.8,0.4-1c0-0.3-0.1-0.8-0.7-0.8c-0.4,0-0.9,0.4-1.2,0.9c-0.4,0.6-1.3,1.9-1.8,2.9h-0.1l0.7-2.2
		C280.1,60.8,280.4,59.7,279.5,59.7 M273.6,60.3c0.3,0,0.6,0.2,0.6,0.6c0,1-1.3,3.1-2.3,4.3c-0.7,0.8-1.4,1.1-1.6,1.1
		c-0.3,0-0.6-0.2-0.6-0.9c0-0.8,0.5-2.2,1.6-3.4C272.3,60.8,273.1,60.3,273.6,60.3 M272.4,56.8c0.3-0.7,0.5-1.3,0.9-2.3l-0.1-0.1
		c-0.8,0-1.7,0.2-2,0.3c-0.1,0.1-0.1,0.2-0.1,0.2l0.4,0.3c0.2,0.2,0.2,0.5-0.2,1.4l-2,5.3c-0.5,1.3-0.9,2.6-0.9,3.4
		c0,1,0.4,1.6,1.4,1.6c0.6,0,1.9-0.3,3.3-1.7c1.4-1.3,2.2-2.8,2.2-4c0-0.9-0.5-1.5-1.5-1.5c-1.3,0-2.4,1.2-3.6,3h0L272.4,56.8z
		 M266,56.2c-0.7,0-0.9,0.7-0.9,1.1c0,0.3,0.2,0.6,0.6,0.6c0.5,0,0.9-0.5,0.9-1.1C266.5,56.4,266.4,56.2,266,56.2 M262.3,66.3
		c-0.1,0.2,0,0.3,0.1,0.5c0.1,0.1,0.2,0.2,0.3,0.2c1.2,0,2.9-1.5,3.2-2c0-0.2-0.1-0.3-0.3-0.3c-0.6,0.7-1.5,1.3-1.8,1.3
		c-0.1,0-0.1-0.2-0.1-0.4l2-4.8c0.2-0.5,0.2-0.6,0.1-0.8c-0.1-0.1-0.2-0.2-0.3-0.2c-0.6,0-1.9,0.6-2.8,1.7c0,0.1,0.1,0.3,0.2,0.3
		c0.9-0.7,1.3-0.9,1.4-0.9c0.1,0,0.1,0.1,0,0.3L262.3,66.3z M256.8,57.8c0.5-1.7,0.6-1.9,1.6-2l0.5-0.1c0.2-0.1,0.1-0.4,0-0.4
		c-0.9,0-1.4,0-2.2,0c-0.7,0-1.3,0-1.9,0c-0.2,0.1-0.2,0.3-0.1,0.4l0.4,0.1c0.9,0.2,0.9,0.4,0.4,2l-2,6.4c-0.5,1.7-0.7,1.9-1.5,2
		l-0.4,0.1c-0.1,0.1-0.1,0.3,0,0.4c0.5,0,1.1,0,1.8,0h2c0.6,0,1.3,0,1.9,0c0.7,0,1.4,0,2,0c0.3-0.5,0.9-1.7,1.1-2.2
		c0-0.1-0.2-0.2-0.4-0.1c-1,1.7-1.8,1.8-3.7,1.8c-2.1,0-2-0.4-1.4-2.2L256.8,57.8z M240.5,60.4c0.2-0.4,0-0.7-0.4-0.7
		c-0.9,0-1.9,0.7-2.5,1.6c0,0.1,0.1,0.3,0.2,0.3c0.6-0.5,1.2-0.9,1.6-0.9c0.1,0,0.1,0.2,0.1,0.4c-0.1,0.2-1.9,5.2-2,5.4
		c-0.2,0.4,0.3,0.4,0.5,0.4c0.2,0,0.2-0.1,0.3-0.2c1-1.9,1.7-3.2,2.6-4.3c0.9-1.2,1.9-2,2.4-2c0.3,0,0.3,0.2,0.3,0.4
		c0,0.3-0.2,0.9-0.4,1.2c-0.4,0.9-1,2.5-1.4,3.4c-0.4,0.9-0.4,1-0.4,1.1c0,0.2,0.3,0.4,0.4,0.4c0.9,0,2.3-0.8,2.9-1.9
		c0-0.1,0-0.3-0.3-0.2c-0.5,0.6-1.3,1.2-1.6,1.2c-0.1,0-0.1-0.2,0-0.3c0.1-0.1,1.3-2.9,1.6-3.8c0.1-0.4,0.3-0.9,0.3-1.2
		c0-0.6-0.3-0.9-1-0.9c-1.3,0-3,1.9-4.2,3.7l0,0L240.5,60.4z M234.3,60.2c0.3,0,0.4,0.2,0.4,0.4c0,0.2-0.1,0.7-0.7,1.2
		c-0.6,0.6-1.2,0.9-2.3,1.3c0.2-0.5,0.6-1.3,1.3-2C233.6,60.4,234.1,60.2,234.3,60.2 M234.7,59.7c-0.5,0-1.2,0.1-2.1,0.8
		c-1.9,1.4-2.5,3.5-2.5,4.6c0,0.8,0.4,1.8,1.4,1.8c0.7,0,1.7-0.3,2.7-1.6c0-0.2-0.1-0.3-0.2-0.3c-0.8,0.7-1.2,1-1.8,1
		c-0.5,0-0.8-0.4-0.8-1c0-0.7,0.1-1.2,0.2-1.5c2.5-0.7,4.1-1.5,4.1-2.8C235.7,60.3,235.3,59.7,234.7,59.7 M226.4,60.2
		c0.3,0,0.5,0.2,0.5,0.6c0,0.5-0.6,2.1-1.6,3.2c-0.5,0.6-0.9,0.7-1.1,0.7c-0.3,0-0.5-0.2-0.5-0.6c0-0.9,0.9-2.4,1.5-3.1
		C225.8,60.3,226.1,60.2,226.4,60.2 M224.3,70.7c-1.2,0-2.3-0.5-2.3-1.3c0-0.4,0.2-0.8,0.7-1.1c0.5-0.4,1.2-0.7,1.6-0.6
		c0.3,0,0.9,0.4,1.6,0.9c0.5,0.4,0.7,0.8,0.7,1C226.5,70.3,225.1,70.7,224.3,70.7 M226.6,59.7c-0.9,0-1.7,0.3-2.5,1
		c-0.9,0.8-1.4,1.9-1.4,2.9c0,1.1,0.9,1.4,1.2,1.5c-0.2,0.3-0.8,1-0.8,1.3c0,0.2,0.1,0.5,0.5,0.8c-0.9,0.3-2.9,1.1-2.9,2.4
		c0,1.2,1.4,1.6,2.7,1.6c2.8,0,4.2-1.1,4.2-2c0-0.5-0.3-1.1-1.3-1.7c-0.6-0.4-1.3-0.8-1.7-1c-0.4-0.3-0.6-0.6-0.6-0.8
		c0-0.3,0.2-0.5,0.4-0.6c0.4-0.1,1-0.3,1.2-0.4c1.2-0.7,2.2-2,2.2-3.4c0-0.2-0.1-0.5-0.1-0.6c0-0.1,0.1-0.1,0.2-0.1
		c0.1,0,0.5,0.1,0.6,0.1c0.2,0,0.4,0.1,0.6,0.1c0.2,0,0.4-0.1,0.4-0.5c0-0.3-0.1-0.4-0.4-0.4c-0.1,0-0.4,0.1-0.8,0.1
		c-0.3,0.1-0.7,0.1-0.8,0.1c-0.1,0-0.2-0.1-0.4-0.2C227,59.8,226.8,59.7,226.6,59.7 M218,59.7c-0.8,0-1.5,0.7-2,1.6
		c0,0.2,0.1,0.3,0.3,0.3c0.3-0.4,0.8-0.9,1.2-0.9c0.2,0,0.2,0.2,0.1,0.4c-0.5,1.7-1.5,4.7-1.8,5.4c-0.1,0.4,0.4,0.4,0.6,0.4
		c0.1,0,0.2-0.1,0.3-0.2c0.9-2,1.9-4,2.9-5.4c0.3-0.3,0.4-0.5,0.6-0.5c0.2,0,0.3,0.2,0.4,0.7c0.1,0.4,0.3,0.3,0.5,0.1
		c0.2-0.3,0.4-0.8,0.4-1c0-0.3-0.1-0.8-0.7-0.8c-0.4,0-0.9,0.4-1.2,0.9c-0.4,0.6-1.3,1.9-1.8,2.9h-0.1l0.7-2.2
		C218.6,60.8,218.9,59.7,218,59.7 M212.8,60.2c0.3,0,0.4,0.2,0.4,0.4c0,0.2-0.1,0.7-0.7,1.2c-0.6,0.6-1.2,0.9-2.3,1.3
		c0.2-0.5,0.6-1.3,1.3-2C212.1,60.4,212.6,60.2,212.8,60.2 M213.2,59.7c-0.5,0-1.2,0.1-2.1,0.8c-1.9,1.4-2.5,3.5-2.5,4.6
		c0,0.8,0.4,1.8,1.4,1.8c0.7,0,1.7-0.3,2.7-1.6c0-0.2-0.1-0.3-0.2-0.3c-0.8,0.7-1.2,1-1.8,1c-0.5,0-0.8-0.4-0.8-1
		c0-0.7,0.1-1.2,0.2-1.5c2.5-0.7,4.1-1.5,4.1-2.8C214.2,60.3,213.9,59.7,213.2,59.7 M202.9,56.4c0.2-0.6,0.2-0.5,0.8-0.5
		c1.4,0,2.2,0.7,2.2,1.7c0,2.2-2.2,2.8-3.4,2.8c-0.7,0-0.8-0.1-0.6-0.5L202.9,56.4z M201.4,61.4c0.2-0.6,0.2-0.6,1.1-0.6
		c1.3,0,2.5,0.7,2.5,2.2c0,2.3-1.8,3.2-3.2,3.2c-1.2,0-1.7-0.4-1.4-1.5L201.4,61.4z M199.2,64.2c-0.5,1.7-0.7,1.9-1.5,2l-0.3,0.1
		c-0.1,0.1-0.1,0.3,0,0.4c0.5,0,1.1,0,1.8,0c0.7,0,1.3,0,2.3,0c2.1,0,3.4-0.6,4.1-1.3c0.7-0.7,0.9-1.6,0.9-2.2
		c0-1.2-0.8-2.2-1.8-2.5c-0.2,0-0.3-0.2,0-0.2c0.9-0.1,2.7-0.9,2.7-2.6c0-1.1-0.6-1.8-1.4-2.2c-0.8-0.3-1.9-0.4-2.8-0.4
		c-1.3,0-2.3,0.1-2.9,0.2c-0.1,0.1-0.1,0.3,0,0.4l0.6,0c0.8,0,0.9,0.2,0.5,1.5L199.2,64.2z M192.1,60.5c0.3-0.2,0.3-0.4,0.2-0.6
		h-2.1c0.5-1.6,0.8-2.8,1.6-4c0.4-0.6,0.9-0.9,1.2-0.9c0.4,0,0.9,0.3,1,1.2c0,0.1,0.1,0.3,0.2,0.3c0.3,0,0.7-0.5,0.7-1
		c0-0.7-0.7-1.1-1.3-1.1c-1,0-1.9,0.4-2.7,1.4c-1,1.2-1.5,2.5-1.9,4.1h-1.5c-0.2,0.2-0.3,0.5-0.1,0.6h1.4c-0.8,2.8-1.4,5.7-2.2,8.4
		c-0.4,1.3-0.8,1.4-1.1,1.4c-0.4,0-0.9-0.3-1.3-0.7c-0.1-0.1-0.3-0.2-0.4-0.1c-0.2,0.1-0.4,0.4-0.4,0.8c0,0.3,0.3,0.8,1.2,0.8
		c1,0,1.8-0.7,2-0.9c0.3-0.3,0.9-1.2,1.3-2.8c0.5-1.9,1-3.5,1.5-5.4c0.2-0.8,0.3-1.3,0.4-1.6H192.1z M183,60.2
		c0.6,0,0.7,0.6,0.7,1.1c0,0.9-0.8,3.2-1.6,4.2c-0.5,0.7-1,0.9-1.4,0.9c-0.5,0-0.7-0.5-0.7-1.1c0.1-0.9,0.7-2.9,1.7-4.3
		C182.2,60.3,182.6,60.2,183,60.2 M183.1,59.7c-0.7,0-1.5,0.3-2.4,1.1c-1.2,1.1-1.8,2.8-1.9,3.8c-0.1,1.5,0.6,2.3,1.7,2.3
		c0.5,0,1.4-0.1,2.4-1.2c1.3-1.3,1.8-2.9,1.8-3.9C184.9,60.6,184.3,59.7,183.1,59.7 M168.1,59.7c-0.8,0-1.6,1.1-1.9,2.2
		c0,0.2,0.1,0.3,0.3,0.2c0.4-0.7,0.6-1.3,1-1.3c0.3,0,0.6,0.7,0.6,2.6c0,1.5-0.1,3-0.3,3.9c-0.3,1.1-1.1,2.2-1.5,2.6
		c-0.4,0.3-0.7,0.5-0.9,0.5c-0.3,0-0.4-0.2-0.5-0.3c-0.1-0.2-0.3-0.3-0.5-0.3c-0.4,0-0.7,0.3-0.7,0.7c0,0.4,0.3,0.8,0.9,0.8
		c0.5,0,1.4-0.3,2.7-1.7c1.4-1.6,2-2.7,2.8-4.1c1.5-2.6,2-4.8,2-5.2c0-0.2-0.1-0.3-0.2-0.3c-0.1-0.1-0.4-0.2-0.5-0.2
		c-0.1,0-0.4,0-0.4,0.5c0,0.4-0.3,2.2-0.6,3.2c-0.4,1-0.9,2.1-1.4,2.9h-0.1c0.2-1.4,0.3-2.7,0.3-3.8
		C169.1,61.4,168.9,59.7,168.1,59.7 M165.2,60.7c0.2-0.1,0.3-0.5,0.2-0.6h-1.9l0.5-1.7c-0.1-0.2-0.5-0.2-0.6-0.1l-1,1.7l-1.4,0.2
		c-0.2,0.1-0.2,0.3-0.2,0.5h1.3l-1.6,4.7c-0.2,0.5-0.2,0.8-0.2,1c0,0.2,0.2,0.5,0.5,0.5c0.7,0,2.3-1,3.3-2.5c0-0.2-0.1-0.3-0.2-0.3
		c-0.6,0.6-1.7,1.5-1.9,1.5c-0.1,0-0.2-0.1-0.1-0.4l1.5-4.5H165.2z M158.1,56.2c-0.7,0-0.9,0.7-0.9,1.1c0,0.3,0.2,0.6,0.6,0.6
		c0.5,0,0.9-0.5,0.9-1.1C158.7,56.4,158.5,56.2,158.1,56.2 M154.5,66.3c-0.1,0.2,0,0.3,0.1,0.5c0.1,0.1,0.2,0.2,0.3,0.2
		c1.2,0,2.9-1.5,3.2-2c0-0.2-0.1-0.3-0.3-0.3c-0.6,0.7-1.5,1.3-1.8,1.3c-0.1,0-0.1-0.2-0.1-0.4l2-4.8c0.2-0.5,0.2-0.6,0.1-0.8
		c-0.1-0.1-0.2-0.2-0.3-0.2c-0.6,0-1.9,0.6-2.8,1.7c0,0.1,0.1,0.3,0.2,0.3c0.9-0.7,1.3-0.9,1.4-0.9c0.1,0,0.1,0.1,0,0.3L154.5,66.3z
		 M151.9,59.7c-0.2,0-0.8,0.1-1.3,0.6c-0.7,0.6-1,1.1-1,1.8c0,0.3,0.2,0.9,0.6,1.6c0.4,0.7,0.6,1.2,0.6,1.5c0,0.5-0.4,1-0.8,1
		c-0.4,0-1-0.4-1.2-0.7c-0.1-0.1-0.3-0.1-0.5,0c-0.2,0.2-0.3,0.4-0.3,0.6c0,0.4,0.4,0.9,1,0.9c0.6,0,1.3-0.2,1.7-0.6
		c0.6-0.5,0.9-1.2,0.9-1.6c0-0.8-0.2-1.2-0.6-1.9c-0.5-0.8-0.6-1.2-0.6-1.6c0-0.3,0.2-0.7,0.7-0.7c0.5,0,0.8,0.3,1,0.5
		c0.1,0.1,0.2,0.2,0.3,0.1c0.1-0.1,0.3-0.3,0.3-0.5C153,60.2,152.6,59.7,151.9,59.7 M144.4,59.7c-0.8,0-1.5,0.7-2,1.6
		c0,0.2,0.1,0.3,0.3,0.3c0.3-0.4,0.8-0.9,1.2-0.9c0.2,0,0.2,0.2,0.1,0.4c-0.5,1.7-1.5,4.7-1.8,5.4c-0.1,0.4,0.4,0.4,0.6,0.4
		c0.1,0,0.2-0.1,0.3-0.2c0.9-2,1.9-4,2.9-5.4c0.3-0.3,0.4-0.5,0.6-0.5c0.2,0,0.3,0.2,0.4,0.7c0.1,0.4,0.3,0.3,0.5,0.1
		c0.2-0.3,0.4-0.8,0.4-1c0-0.3-0.1-0.8-0.7-0.8c-0.4,0-0.9,0.4-1.2,0.9c-0.4,0.6-1.3,1.9-1.8,2.9h-0.1l0.7-2.2
		C145,60.8,145.3,59.7,144.4,59.7 M139.2,60.2c0.3,0,0.4,0.2,0.4,0.4c0,0.2-0.1,0.7-0.7,1.2c-0.6,0.6-1.2,0.9-2.3,1.3
		c0.2-0.5,0.6-1.3,1.3-2C138.5,60.4,139,60.2,139.2,60.2 M139.6,59.7c-0.5,0-1.2,0.1-2.1,0.8c-1.9,1.4-2.5,3.5-2.5,4.6
		c0,0.8,0.4,1.8,1.4,1.8c0.7,0,1.7-0.3,2.7-1.6c0-0.2-0.1-0.3-0.2-0.3c-0.8,0.7-1.2,1-1.8,1c-0.5,0-0.8-0.4-0.8-1
		c0-0.7,0.1-1.2,0.2-1.5c2.5-0.7,4.1-1.5,4.1-2.8C140.6,60.3,140.2,59.7,139.6,59.7 M127.8,64.2c-0.3,0.7-0.4,1.3-0.4,1.6
		c0,0.5,0.3,1,0.8,1c0.4,0,1.4-0.2,2.7-1.2c1.5-1.2,2.7-3.7,2.7-4.9c0-0.4-0.1-1.1-0.7-1.1c-0.3,0-0.6,0.3-0.6,0.6
		c0.1,0.4,0.2,0.8,0.2,1.2c0,0.8-0.5,2.1-1.5,3.3c-0.8,0.9-1.5,1.3-1.9,1.3c-0.4,0-0.5-0.3-0.5-0.6c0-0.2,0.1-0.6,0.2-0.8l1.5-3.8
		c0.2-0.6-0.1-1.1-0.5-1.1c-1,0-2.2,1.1-2.7,1.9c0,0.1,0.1,0.3,0.3,0.3c0.5-0.6,1.3-1.2,1.6-1.2c0.2,0,0.2,0.2,0.1,0.5L127.8,64.2z
		 M124.6,56.2c-0.7,0-0.9,0.7-0.9,1.1c0,0.3,0.2,0.6,0.6,0.6c0.5,0,0.9-0.5,0.9-1.1C125.2,56.4,125,56.2,124.6,56.2 M121,66.3
		c-0.1,0.2,0,0.3,0.1,0.5c0.1,0.1,0.2,0.2,0.3,0.2c1.2,0,2.9-1.5,3.2-2c0-0.2-0.1-0.3-0.3-0.3c-0.6,0.7-1.5,1.3-1.8,1.3
		c-0.1,0-0.1-0.2-0.1-0.4l2-4.8c0.2-0.5,0.2-0.6,0.1-0.8c-0.1-0.1-0.2-0.2-0.3-0.2c-0.6,0-1.9,0.6-2.8,1.7c0,0.1,0.1,0.3,0.2,0.3
		c0.9-0.7,1.3-0.9,1.4-0.9c0.1,0,0.1,0.1,0,0.3L121,66.3z M114.7,60.4c0.2-0.4,0-0.7-0.4-0.7c-0.9,0-1.9,0.7-2.5,1.6
		c0,0.1,0.1,0.3,0.2,0.3c0.6-0.5,1.2-0.9,1.6-0.9c0.1,0,0.1,0.2,0.1,0.4c-0.1,0.2-1.9,5.2-2,5.4c-0.2,0.4,0.3,0.4,0.5,0.4
		c0.2,0,0.2-0.1,0.3-0.2c1-1.9,1.7-3.2,2.6-4.3c0.9-1.2,1.9-2,2.4-2c0.3,0,0.3,0.2,0.3,0.4c0,0.3-0.2,0.9-0.4,1.2
		c-0.4,0.9-1,2.5-1.4,3.4c-0.4,0.9-0.4,1-0.4,1.1c0,0.2,0.3,0.4,0.4,0.4c0.9,0,2.3-0.8,2.9-1.9c0-0.1,0-0.3-0.3-0.2
		c-0.5,0.6-1.3,1.2-1.6,1.2c-0.1,0-0.1-0.2,0-0.3c0.1-0.1,1.3-2.9,1.6-3.8c0.1-0.4,0.3-0.9,0.3-1.2c0-0.6-0.3-0.9-1-0.9
		c-1.3,0-3,1.9-4.2,3.7l-0.1,0L114.7,60.4z M100.1,62.1c-1,3.1,0.2,4.8,3.3,4.8c1.1,0,2.3-0.4,3.2-1.2c1.1-0.9,1.6-2.4,2-3.6
		l0.8-2.5c0.3-1.1,0.7-2.2,0.8-2.6c0.3-0.9,0.5-1.1,1.3-1.3l0.4-0.1c0.1-0.1,0.1-0.3,0-0.4c-0.7,0-1.3,0-1.8,0c-0.6,0-1,0-1.8,0
		c-0.1,0.1-0.2,0.3-0.1,0.4l0.5,0.1c0.9,0.1,0.8,0.5,0.6,1.2c-0.1,0.4-0.3,1.5-0.7,2.6l-0.8,2.4c-0.7,2.1-1.8,4.2-4.2,4.2
		c-2.8,0-3-2-2.2-4.5l1.2-3.9c0.5-1.7,0.6-1.9,1.6-2l0.5-0.1c0.2-0.1,0.1-0.3,0-0.4c-0.8,0-1.4,0-2.1,0c-0.7,0-1.3,0-2,0
		c-0.2,0.1-0.2,0.3-0.1,0.4l0.4,0.1c0.9,0.2,0.9,0.4,0.4,2L100.1,62.1z"/>
</g>
</svg>
