<?xml version="1.0" encoding="utf-8"?>
<!-- Generator: Adobe Illustrator 22.0.1, SVG Export Plug-In . SVG Version: 6.00 Build 0)  -->
<svg version="1.1" id="Layer_3" xmlns="http://www.w3.org/2000/svg" xmlns:xlink="http://www.w3.org/1999/xlink" x="0px" y="0px"
	 viewBox="0 0 331.7 150.2" style="enable-background:new 0 0 331.7 150.2;" xml:space="preserve">
<g>
	<path d="M136.7,43.2c-0.6-0.1-1.8-0.3-2.2-0.2c-0.1,0.1-0.2,0.2-0.3,0.5l-0.1,0.3c-0.1,0-0.2,0-0.2-0.1c0.1-0.4,0.2-0.8,0.2-1.2
		c0.1-0.4,0.1-0.7,0.2-1.1c0.1-0.1,0.2,0,0.3,0l0,0.3c0,0.3,0,0.5,0.2,0.6c0.3,0.2,1.5,0.4,2.1,0.5l1.2,0.2c0.9,0.2,1.8,0.5,2.3,1.1
		c0.4,0.5,0.5,1.3,0.4,2.1c-0.1,0.7-0.4,1.4-0.9,1.8c-0.5,0.5-1.3,0.6-2.6,0.4l-2.4-0.4c-1.1-0.2-1.3-0.2-1.4,0.4l-0.1,0.3
		c-0.1,0.1-0.2,0-0.2-0.1c0.1-0.5,0.2-0.9,0.3-1.3c0.1-0.4,0.1-0.8,0.2-1.3c0-0.1,0.2,0,0.3,0l0,0.3c-0.1,0.6,0.1,0.7,1.2,0.8
		l2.2,0.4c1.7,0.3,2.8,0,3.1-1.6c0.3-1.5-0.8-2.3-2.4-2.5L136.7,43.2z"/>
	<path d="M143.2,34.9c0.3,0.2,1.4,0.8,1.6,0.9c0,0,0.1,0.1,0,0.2c-0.2,0-0.7,0.1-2,0.4l-3.6,0.8c-0.4,0.1-1.5,0.3-1.8,0.4l0,0
		c0.1,0.1,0.3,0.2,0.6,0.4l2,1.1c0.4,0.2,1.6,0.9,2,0.9c0.1,0,0.3-0.1,0.4-0.4l0.2-0.3c0.1,0,0.2,0.1,0.2,0.1
		c-0.2,0.4-0.4,0.7-0.6,1.1c-0.2,0.4-0.3,0.6-0.5,1c-0.1,0-0.2,0-0.2-0.1l0.1-0.3c0.1-0.2,0.1-0.4,0-0.5c-0.3-0.3-1.4-0.9-1.8-1.2
		l-2.6-1.5c-0.3-0.1-0.5-0.2-0.8-0.2c-0.2,0.1-0.4,0.2-0.5,0.4l-0.1,0.1c-0.1,0-0.2-0.1-0.2-0.1c0.2-0.4,0.5-0.9,0.6-1
		c0.1-0.1,0.2-0.3,0.2-0.4c0.6,0.1,2.4-0.3,2.9-0.4l1.5-0.3c1.1-0.2,1.8-0.4,2.5-0.6l0,0c0-0.1-0.2-0.1-0.4-0.3l-2-1.1
		c-0.4-0.2-1.6-0.9-2-0.9c-0.1,0-0.2,0.1-0.5,0.5l-0.1,0.1c-0.1,0-0.2-0.1-0.2-0.1c0.3-0.4,0.4-0.7,0.6-1.1c0.2-0.4,0.3-0.6,0.5-1
		c0.1,0,0.2,0,0.2,0.1l-0.1,0.1c-0.1,0.3-0.1,0.5-0.1,0.6c0.2,0.3,1.4,1,1.8,1.2L143.2,34.9z"/>
	<path d="M143.2,29.6c-0.8-0.8-0.9-0.9-1.4-0.5l-0.2,0.2c-0.1,0-0.2-0.1-0.2-0.2c0.4-0.4,0.6-0.6,0.9-0.9c0.3-0.3,0.5-0.6,0.9-1
		c0.1,0,0.2,0.1,0.2,0.2l-0.2,0.2c-0.4,0.5-0.3,0.6,0.5,1.4l2.7,2.6c0.8,0.8,0.9,0.9,1.4,0.5l0.2-0.2c0.1,0,0.2,0.1,0.2,0.2
		c-0.4,0.4-0.6,0.6-0.9,0.9c-0.3,0.3-0.5,0.6-0.9,1c-0.1,0-0.2-0.1-0.2-0.2l0.2-0.2c0.4-0.5,0.3-0.6-0.5-1.4L143.2,29.6z"/>
	<path d="M146.9,25.5c-0.5-0.4-0.8-0.5-1.2-0.3l-0.2,0.1c-0.1,0-0.2-0.1-0.1-0.2c0.3-0.1,0.6-0.3,0.9-0.6c0.4-0.2,0.7-0.4,1.1-0.7
		c0.1,0,0.2,0.1,0.2,0.2l-0.1,0.1c-0.3,0.3-0.3,0.4-0.3,0.4c0.1,0.1,0.5,0.5,1.2,1c1.1,0.8,2.1,1.5,3.2,2.3
		c-0.1-0.8-0.3-1.9-0.4-2.5c-0.1-0.8-0.3-2-0.4-2.5c0-0.2-0.1-0.3-0.1-0.4c0-0.1-0.2-0.1-0.5,0.1l-0.2,0.1c-0.1,0-0.2-0.2-0.1-0.2
		c0.3-0.1,0.6-0.3,0.9-0.6c0.3-0.2,0.6-0.4,0.8-0.6c0.1,0,0.2,0.1,0.2,0.2l-0.3,0.2c-0.2,0.2-0.3,0.3-0.3,0.6c0,0.6,0.1,1.5,0.3,2.7
		l0.2,1.4c0.2,1,0.4,2.3,0.5,2.9c0,0,0,0.1-0.1,0.1c0,0-0.1,0-0.1,0.1c-0.3-0.3-0.8-0.6-1.2-0.9L146.9,25.5z"/>
	<path d="M155.6,21.4c-0.3-1-0.4-1.2-1-1.1l-0.2,0c-0.1,0-0.1-0.2-0.1-0.3c0.4-0.1,0.8-0.2,1.2-0.3l1.9-0.5c0.6-0.2,1.2-0.4,1.4-0.4
		c0.1,0.2,0.4,0.9,0.5,1.3c0,0.1-0.2,0.1-0.2,0.1c-0.3-0.4-0.5-0.8-1-0.7c-0.2,0-0.5,0.1-1,0.2l-0.7,0.2c-0.3,0.1-0.3,0.1-0.2,0.5
		l0.6,2c0.1,0.3,0.1,0.3,0.4,0.2l0.6-0.2c0.4-0.1,0.7-0.2,0.8-0.3c0.1-0.1,0.2-0.2,0.1-0.4l0-0.4c0-0.1,0.2-0.1,0.3-0.1
		c0.1,0.2,0.1,0.6,0.2,1c0.1,0.4,0.3,0.7,0.3,1c0,0.1-0.2,0.1-0.3,0.1l-0.2-0.4c-0.1-0.2-0.2-0.3-0.4-0.3c-0.2,0-0.4,0.1-0.8,0.2
		l-0.6,0.2c-0.3,0.1-0.3,0.1-0.3,0.4l0.4,1.4c0.2,0.5,0.3,0.9,0.5,1c0.2,0.1,0.4,0.1,1.3-0.1c0.8-0.2,1.1-0.3,1.2-0.5
		c0.2-0.2,0.3-0.6,0.4-1.2c0.1-0.1,0.2-0.1,0.3,0c0,0.4,0,1.2-0.1,1.5c-0.9,0.2-1.8,0.5-2.7,0.7l-0.9,0.3c-0.4,0.1-0.8,0.2-1.4,0.4
		c-0.1,0-0.1-0.2-0.1-0.2l0.3-0.1c0.6-0.2,0.6-0.4,0.3-1.4L155.6,21.4z"/>
	<path d="M164.7,21.3c0,0.2,0,0.3,0,0.3c0,0,0.2,0.1,0.7,0.1c0.4,0,0.8,0,1.1-0.3c0.3-0.2,0.5-0.6,0.5-1.3c0-0.8-0.5-1.6-1.7-1.6
		c-0.6,0-0.7,0-0.7,0.3L164.7,21.3z M163.9,19.8c0-1,0-1.2-0.5-1.2l-0.3,0c-0.1-0.1-0.1-0.2,0-0.3c0.6,0,1.3-0.1,2.3-0.1
		c0.6,0,1.3,0.1,1.7,0.3c0.5,0.3,0.9,0.7,0.9,1.5c0,1-0.8,1.5-1.3,1.7c-0.1,0.1,0,0.2,0.1,0.3c0.8,1.4,1.4,2.2,2.1,2.8
		c0.2,0.2,0.4,0.3,0.7,0.3c0.1,0,0.1,0.1,0,0.1c-0.1,0-0.3,0.1-0.5,0.1c-0.9,0-1.4-0.3-2.2-1.3c-0.3-0.4-0.7-1.1-1-1.6
		c-0.2-0.2-0.3-0.3-0.7-0.3c-0.5,0-0.5,0-0.5,0.2l0,1.3c0,1.1,0,1.2,0.6,1.3l0.2,0c0.1,0.1,0,0.2,0,0.3c-0.5,0-0.8,0-1.2,0
		c-0.4,0-0.8,0-1.3,0c-0.1,0-0.1-0.2,0-0.3l0.3,0c0.6-0.1,0.6-0.2,0.6-1.3L163.9,19.8z"/>
	<path d="M173.2,26.4c-0.8-0.3-1.3-0.7-1.4-0.9c-0.1-0.3,0-1,0.2-1.5c0.1-0.1,0.2,0,0.2,0c0,0.6,0.1,1.7,1.2,2
		c0.8,0.3,1.4-0.2,1.6-0.8c0.1-0.4,0.2-1-0.4-1.7l-0.8-0.9c-0.4-0.5-0.8-1.2-0.5-2.1c0.3-0.9,1.3-1.5,2.6-1.1
		c0.3,0.1,0.6,0.3,0.9,0.4c0.1,0.1,0.2,0.1,0.3,0.2c0,0.3-0.1,0.9-0.2,1.3c-0.1,0-0.2,0-0.3,0c0-0.5,0-1.3-1-1.6
		c-1-0.3-1.4,0.3-1.5,0.7c-0.2,0.6,0.2,1.1,0.5,1.5l0.6,0.8c0.5,0.6,0.9,1.4,0.6,2.3C175.5,26.3,174.5,26.8,173.2,26.4"/>
	<path d="M181.5,24.1c0.6-0.9,0.7-1.1,0.2-1.5l-0.2-0.2c0-0.1,0.1-0.2,0.2-0.2c0.4,0.3,0.7,0.5,1.1,0.7c0.4,0.2,0.7,0.4,1.1,0.7
		c0,0.1,0,0.2-0.1,0.2l-0.2-0.1c-0.6-0.3-0.7-0.1-1.2,0.8l-1.9,3.2c-0.6,0.9-0.6,1.1-0.1,1.5l0.2,0.2c0,0.1-0.1,0.2-0.2,0.2
		c-0.4-0.3-0.7-0.5-1.1-0.7c-0.4-0.2-0.7-0.4-1.1-0.7c0-0.1,0-0.2,0.1-0.2l0.2,0.1c0.6,0.3,0.7,0.1,1.2-0.8L181.5,24.1z"/>
	<path d="M185.9,32.6c-0.8,0.7-0.9,0.9-0.5,1.3l0.2,0.3c0,0.1-0.1,0.2-0.2,0.2c-0.4-0.5-0.6-0.7-0.9-1c-0.3-0.3-0.5-0.6-1-1
		c0-0.1,0.1-0.2,0.2-0.2l0.3,0.3c0.4,0.4,0.6,0.3,1.4-0.4l3.4-3.2c0.2-0.2,0.2-0.2,0-0.5l-0.4-0.4c-0.3-0.3-0.7-0.7-1.1-0.8
		c-0.3,0-0.6,0.1-0.9,0.1c-0.1,0-0.2-0.2-0.1-0.2c0.5-0.2,1.1-0.5,1.4-0.8c0,0,0.1,0.1,0.1,0.1c-0.2,0.3,0,0.5,0.4,0.9l2.9,3.1
		c0.4,0.4,0.5,0.5,0.8,0.4c0,0,0.1,0.1,0.1,0.2c-0.4,0.2-1.1,0.7-1.3,1c-0.1,0-0.2-0.1-0.2-0.2c0.2-0.2,0.4-0.5,0.4-0.7
		c0-0.3-0.2-0.6-0.6-1.1l-0.5-0.5c-0.2-0.2-0.2-0.2-0.5,0L185.9,32.6z"/>
	<path d="M191.4,37.4c-0.3,0-0.3,0-0.1,0.3l0.6,1.2c0.1,0.3,0.2,0.3,0.4,0.1l1.3-1.2c0.2-0.2,0.4-0.4,0.5-0.5l0,0
		c-0.1,0-0.3,0-0.7,0L191.4,37.4z M191.5,39.6c0.2-0.2,0.2-0.2,0.1-0.5l-0.7-1.4c-0.1-0.2-0.2-0.3-0.4-0.3l-1.2,0.1
		c-0.5,0.1-0.8,0.1-0.9,0.2c-0.1,0.1-0.1,0.1-0.1,0.4l0.1,0.3c0,0.1-0.2,0.2-0.2,0.1c-0.1-0.3-0.2-0.5-0.4-1
		c-0.1-0.3-0.3-0.6-0.5-0.9c0-0.1,0.2-0.2,0.2-0.1l0.2,0.3c0.1,0.2,0.3,0.4,0.7,0.3c0.5,0,1.3-0.1,2.5-0.2l3-0.2
		c0.4,0,0.6-0.1,0.7-0.2c0.2,0.2,0.4,0.3,0.6,0.3c0,0.1,0,0.1,0,0.2c-0.4,0.3-0.7,0.7-1.1,1l-3.2,3.1c-0.7,0.7-0.8,0.8-0.6,1.3
		l0.1,0.3c0,0.1-0.2,0.1-0.2,0.1c-0.2-0.4-0.3-0.7-0.5-1.2c-0.2-0.5-0.4-0.8-0.5-1.1c0-0.1,0.1-0.2,0.2-0.1l0.2,0.3
		c0.1,0.2,0.2,0.3,0.3,0.3c0.1-0.1,0.3-0.2,0.4-0.4L191.5,39.6z"/>
	<path d="M190.8,46.8c-0.1-0.9,0.1-1.5,0.1-1.7c0.2-0.2,0.9-0.4,1.4-0.5c0.1,0,0.1,0.2,0.1,0.2c-0.5,0.2-1.5,0.8-1.3,2
		c0.1,0.9,0.8,1.2,1.4,1.1c0.5-0.1,1-0.2,1.3-1.1l0.5-1.1c0.3-0.6,0.8-1.3,1.6-1.4c1-0.1,1.9,0.5,2.1,1.9c0,0.3,0,0.7,0,1
		c0,0.1,0,0.3,0,0.4c-0.2,0.1-0.8,0.3-1.2,0.4c-0.1,0-0.1-0.2-0.1-0.3c0.5-0.2,1.1-0.6,1-1.6c-0.2-1-0.9-1.1-1.3-1.1
		c-0.6,0.1-1,0.6-1.1,1.1l-0.4,0.9c-0.3,0.7-0.8,1.4-1.8,1.6C191.9,48.9,191,48.1,190.8,46.8"/>
	<path d="M138.8,59.7c-0.3,0.1-0.3,0.1-0.1,0.6c0.4,1,0.9,1.4,1.8,1.1c1-0.4,1.1-1.2,0.8-2c-0.1-0.2-0.2-0.4-0.2-0.4
		c-0.1-0.1-0.1-0.1-0.3,0L138.8,59.7z M136.5,60.5c-0.4,0.1-0.8,0.3-1,0.6c-0.2,0.3-0.1,0.6,0,0.9c0.3,0.9,1,1.4,1.9,1
		c0.8-0.3,1.5-1,1-2.6c-0.2-0.5-0.3-0.5-0.5-0.5L136.5,60.5z M139.8,58.4c0.7-0.3,0.9-0.4,0.8-0.8l-0.1-0.3c0-0.1,0.2-0.1,0.2-0.1
		c0.2,0.5,0.5,1.2,0.9,2.1c0.2,0.6,0.4,1.2,0.3,1.8c0,0.5-0.3,1-1,1.2c-0.7,0.3-1.2,0-1.7-0.5c-0.1,0-0.1,0.1-0.1,0.2
		c0.1,0.6-0.1,1.5-1.2,1.9c-1.1,0.4-2.2-0.1-2.9-1.9c-0.1-0.3-0.3-0.8-0.4-1.2c-0.2-0.4-0.3-0.8-0.4-1.1c0-0.1,0.2-0.1,0.2-0.1
		l0.1,0.2c0.3,0.5,0.4,0.5,1.4,0.1L139.8,58.4z"/>
	<path d="M142.9,65.7c0.9-0.7,1-0.8,0.7-1.3l-0.1-0.1c0-0.1,0.2-0.2,0.2-0.1c0.3,0.4,0.5,0.7,0.7,1l1.2,1.6c0.4,0.5,0.8,1,0.9,1.1
		c-0.1,0.2-0.7,0.7-1,1c-0.1,0-0.2-0.1-0.2-0.2c0.3-0.4,0.5-0.7,0.3-1.2c-0.1-0.2-0.3-0.5-0.6-0.9l-0.5-0.6c-0.2-0.3-0.2-0.2-0.5,0
		l-1.7,1.3c-0.2,0.2-0.2,0.2,0,0.5l0.4,0.5c0.3,0.4,0.5,0.6,0.6,0.7c0.1,0.1,0.2,0.1,0.4,0l0.4-0.2c0.1,0,0.2,0.1,0.2,0.2
		c-0.2,0.1-0.6,0.4-0.9,0.6c-0.3,0.2-0.6,0.5-0.8,0.6c-0.1,0-0.2-0.1-0.2-0.2l0.3-0.3c0.1-0.1,0.2-0.3,0.1-0.5
		c-0.1-0.1-0.2-0.4-0.4-0.7l-0.4-0.5c-0.2-0.3-0.2-0.3-0.4-0.1l-1.2,0.9c-0.4,0.3-0.7,0.6-0.8,0.8c0,0.2,0,0.4,0.6,1.2
		c0.5,0.6,0.7,0.9,0.9,1c0.2,0.1,0.7,0.1,1.3,0c0.1,0,0.1,0.2,0.1,0.3c-0.3,0.2-1.1,0.4-1.4,0.5c-0.5-0.8-1.1-1.5-1.7-2.3l-0.6-0.8
		c-0.3-0.4-0.5-0.6-0.9-1.1c0-0.1,0.1-0.2,0.2-0.2l0.2,0.3c0.4,0.4,0.6,0.4,1.4-0.3L142.9,65.7z"/>
	<path d="M147.8,73.2c-0.1,0.2-0.2,0.2-0.2,0.3c0,0,0.1,0.2,0.6,0.5c0.3,0.2,0.7,0.4,1,0.4c0.4,0,0.8-0.2,1.2-0.7
		c0.5-0.7,0.5-1.6-0.4-2.3c-0.5-0.4-0.6-0.4-0.7-0.1L147.8,73.2z M148,71.5c0.6-0.8,0.7-1,0.4-1.3l-0.2-0.2c0-0.1,0.1-0.2,0.2-0.2
		c0.5,0.3,1.1,0.7,1.9,1.3c0.5,0.4,1,0.8,1.2,1.3c0.3,0.5,0.3,1.1-0.2,1.7c-0.6,0.8-1.5,0.8-2.1,0.6c-0.1,0-0.1,0.1-0.1,0.2
		c-0.1,1.6-0.2,2.6,0.1,3.5c0.1,0.2,0.2,0.5,0.4,0.7c0,0,0,0.1-0.1,0.1c-0.1,0-0.2-0.1-0.4-0.2c-0.7-0.5-1-1.1-1-2.3
		c0-0.5,0.1-1.3,0.1-1.9c0-0.3-0.1-0.5-0.4-0.7c-0.4-0.3-0.4-0.3-0.5-0.1l-0.8,1.1c-0.7,0.9-0.7,1-0.3,1.4l0.2,0.2
		c0,0.1-0.1,0.2-0.2,0.2c-0.4-0.3-0.7-0.5-1-0.8c-0.4-0.3-0.7-0.5-1.1-0.7c0-0.1,0-0.2,0.1-0.2l0.2,0.1c0.5,0.3,0.6,0.2,1.3-0.7
		L148,71.5z"/>
	<path d="M158.6,81.5c-0.1,0.4-0.1,0.7,0,0.8c0,0,0,0.1,0,0.1c-0.1,0-0.3-0.1-0.5-0.1c-0.6,0-1.3-0.1-1.9-0.3
		c-1.2-0.4-2.2-1.1-2.7-2.1c-0.4-0.8-0.5-1.7-0.2-2.6c0.3-0.8,0.8-1.6,1.7-2.1c0.9-0.5,2-0.6,3.5-0.1c0.6,0.2,1.1,0.5,1.2,0.6
		c0.2,0.1,0.5,0.3,0.6,0.3c-0.1,0.3-0.2,0.9-0.3,1.5c-0.1,0.1-0.2,0-0.3-0.1c0.1-1.2-0.6-1.7-1.6-2.1c-1.9-0.6-3.2,0.5-3.7,2
		c-0.6,1.9-0.1,3.7,1.9,4.4c0.6,0.2,1,0.2,1.2,0.1c0.1-0.1,0.2-0.2,0.3-0.5l0.1-0.4c0.3-0.8,0.3-0.9-0.3-1.2l-0.4-0.2
		c-0.1-0.1,0-0.2,0.1-0.2c0.3,0.1,0.8,0.3,1.4,0.5c0.4,0.1,0.7,0.2,1.1,0.3c0.1,0.1,0,0.2-0.1,0.3l-0.2,0c-0.4-0.1-0.5,0.2-0.7,0.7
		L158.6,81.5z"/>
	<path d="M163.9,77.9c0-1.1,0-1.2-0.6-1.3l-0.2,0c-0.1,0,0-0.2,0-0.3c0.4,0,0.8,0,1.2,0l2,0c0.7,0,1.3,0,1.4,0
		c0.1,0.2,0.1,0.9,0.2,1.4c0,0.1-0.2,0.1-0.3,0c-0.2-0.5-0.2-0.9-0.8-1c-0.2-0.1-0.6-0.1-1-0.1l-0.8,0c-0.3,0-0.3,0-0.3,0.4l0,2.1
		c0,0.3,0,0.3,0.3,0.3l0.6,0c0.4,0,0.8,0,0.9-0.1c0.1,0,0.2-0.1,0.3-0.4l0.1-0.4c0.1-0.1,0.2-0.1,0.3,0c0,0.3,0,0.7,0,1.1
		c0,0.4,0,0.8,0,1c0,0.1-0.2,0.1-0.3,0l-0.1-0.4c0-0.2-0.1-0.3-0.3-0.4c-0.1,0-0.4-0.1-0.8-0.1l-0.6,0c-0.3,0-0.3,0-0.3,0.3l0,1.5
		c0,0.6,0,0.9,0.2,1.1c0.1,0.1,0.3,0.2,1.3,0.2c0.8,0,1.1,0,1.3-0.2c0.2-0.1,0.5-0.5,0.7-1c0.1-0.1,0.2,0,0.3,0.1
		c-0.1,0.4-0.3,1.2-0.5,1.5c-0.9,0-1.9,0-2.8,0l-0.9,0c-0.5,0-0.8,0-1.4,0c-0.1,0-0.1-0.2,0-0.3l0.3,0c0.6-0.1,0.7-0.2,0.7-1.3
		L163.9,77.9z"/>
	<path d="M178.3,76.2c-0.2-0.5-0.6-1.7-0.6-2.1c0-0.1,0.2-0.2,0.5-0.4l0.1-0.1c0-0.1,0-0.2-0.1-0.2c-0.3,0.1-0.6,0.3-1,0.4
		c-0.4,0.1-0.7,0.3-1.2,0.4c-0.1,0.1,0,0.2,0.1,0.3l0.2,0c0.4-0.1,0.6-0.1,0.7,0c0.3,0.2,0.8,1.5,1,2l0.8,2.1
		c0.1,0.2,0.1,0.4,0.1,0.4l0,0c-0.6-0.3-1.3-0.7-2.3-1.2l-1.3-0.7c-0.5-0.2-2.1-1.1-2.5-1.5c-0.1,0.1-0.3,0.1-0.4,0.2
		c-0.2,0.1-0.7,0.3-1.1,0.4c-0.1,0.1,0,0.2,0.1,0.3l0.2,0c0.2-0.1,0.5-0.1,0.7,0c0.3,0.1,0.4,0.4,0.5,0.6l1.1,2.8
		c0.2,0.5,0.6,1.7,0.6,2.1c0,0.1-0.1,0.2-0.4,0.4l-0.3,0.1c0,0.1,0,0.2,0.1,0.2c0.3-0.1,0.6-0.3,1-0.4c0.4-0.1,0.7-0.3,1.2-0.4
		c0-0.1,0-0.2-0.1-0.3l-0.3,0.1c-0.3,0.1-0.5,0.1-0.6,0c-0.3-0.2-0.8-1.5-0.9-2l-0.8-2.1c-0.1-0.3-0.2-0.5-0.2-0.7l0,0
		c0.3,0.1,1.3,0.7,1.6,0.9l3.2,1.7c1.2,0.7,1.6,0.9,1.8,1c0.1,0,0.1-0.1,0.1-0.2c-0.1-0.2-0.6-1.4-0.7-1.7L178.3,76.2z"/>
	<path d="M186.5,76c-0.7,0.6-1.3,0.7-1.5,0.7c-0.2-0.1-0.8-0.6-1.2-0.9c0-0.1,0.1-0.2,0.2-0.2c0.5,0.3,1.5,0.8,2.4,0
		c0.7-0.6,0.6-1.3,0.2-1.8c-0.3-0.4-0.7-0.7-1.6-0.6l-1.2,0.1c-0.6,0.1-1.5,0-2-0.7c-0.6-0.8-0.6-1.9,0.5-2.8
		c0.2-0.2,0.6-0.4,0.8-0.5c0.1-0.1,0.3-0.1,0.3-0.2c0.2,0.1,0.7,0.5,1,0.9c0,0.1-0.1,0.2-0.2,0.2c-0.4-0.3-1.1-0.6-1.9,0
		c-0.8,0.7-0.5,1.3-0.2,1.7c0.4,0.5,1.1,0.5,1.5,0.4l1-0.1c0.8-0.1,1.7-0.1,2.3,0.7C187.7,73.9,187.5,75.1,186.5,76"/>
	<path d="M187.6,66.8c-0.9-0.6-1.1-0.7-1.5-0.3l-0.2,0.2c-0.1,0-0.2-0.1-0.2-0.2c0.3-0.4,0.5-0.7,0.8-1.1c0.2-0.3,0.4-0.6,0.7-1.1
		c0.1,0,0.2,0.1,0.2,0.1l-0.1,0.2c-0.3,0.5-0.2,0.7,0.7,1.3l3,2.2c0.9,0.6,1,0.7,1.5,0.2l0.2-0.2c0.1,0,0.2,0.1,0.2,0.2
		c-0.3,0.4-0.5,0.7-0.8,1c-0.3,0.4-0.5,0.7-0.7,1.1c-0.1,0-0.2,0-0.2-0.1l0.1-0.2c0.3-0.5,0.2-0.6-0.7-1.3L187.6,66.8z"/>
	<path d="M196.2,62.4c-0.3,0.8-0.8,1.2-0.9,1.4c-0.3,0-1-0.1-1.5-0.2c0-0.1,0-0.2,0.1-0.2c0.6,0,1.7,0,2.1-1.1
		c0.3-0.8-0.1-1.4-0.7-1.6c-0.4-0.2-0.9-0.3-1.7,0.3l-1,0.7c-0.5,0.4-1.3,0.7-2.1,0.4c-0.9-0.3-1.4-1.4-0.9-2.6
		c0.1-0.3,0.3-0.6,0.5-0.9c0.1-0.1,0.2-0.2,0.2-0.3c0.3,0,0.8,0.1,1.3,0.3c0,0.1,0,0.2-0.1,0.3c-0.5,0-1.3,0-1.6,0.9
		c-0.4,1,0.2,1.4,0.7,1.6c0.6,0.2,1.2-0.1,1.5-0.4l0.8-0.6c0.6-0.5,1.4-0.9,2.3-0.5C196.3,60.1,196.7,61.1,196.2,62.4"/>
	<path d="M165.7,85.1c-18.9,0-34.3-15.4-34.3-34.3c0-18.9,15.4-34.3,34.3-34.3c18.9,0,34.3,15.4,34.3,34.3
		C200,69.7,184.7,85.1,165.7,85.1 M165.7,15.4c-19.5,0-35.4,15.8-35.4,35.4c0,19.5,15.8,35.4,35.4,35.4c19.5,0,35.4-15.8,35.4-35.4
		C201.1,31.2,185.2,15.4,165.7,15.4"/>
	<path d="M174,67.9c-0.7,0.5-1.2,1.3-1.5,2c0.7,0.5,2.2,1.2,4.7,1.6c1.1-0.6,2-1.2,3-2c-0.9-0.2-1.8-0.7-2.4-1
		C176.8,67.9,175.4,66.9,174,67.9"/>
	<path d="M157.5,63.2c-0.9-0.2-1.3-0.2-2.6,0.2c-2.2,0.7-5.7,4.6-5.7,4.6c1,1,2.2,1.9,3.4,2.7c1-1.2,3.5-4.1,5.9-4.1
		c1.3,0,2,0.5,3,1.2c0.1-0.1,0.2-0.3,0.3-0.4C159.9,66.3,157.5,63.2,157.5,63.2"/>
	<path d="M165.1,66.6c-1,0.1-1.8,1-2.3,1.9c2,1.4,3.8,2.9,6.4,3.7c2,0.6,2.8,0.8,4.9,0.9c0.9-0.3,1.8-0.7,2.7-1.2
		c-1.3-0.2-3-0.8-4.4-1.4C169.9,69.4,167.2,66.3,165.1,66.6"/>
	<path d="M159,67.8c-3,0-4.1,2.5-5.1,3.6c3.5,2,7.5,3.2,11.9,3.2c2.3,0,4.5-0.3,6.6-0.9c-1.3-0.1-3-0.4-4.4-1
		C164.6,71.4,161.1,67.8,159,67.8"/>
	<path d="M180.1,65.8c-2-2.5-3.5-3-4.3-2.8c-0.8,0.2-0.6,0.8-1.5,1.8c-0.8,1-2.7,2.1-3.1,2.3c0.3,0.3,0.7,0.8,0.8,0.9
		c0.9-0.9,2.2-1.7,3.3-1.7c2.1,0,2.7,1.7,5.5,2.7c0.6-0.5,1.2-1,1.7-1.5C182.6,67.5,181.3,67.2,180.1,65.8"/>
	<path d="M175.3,46.6c-0.4-0.4-1-0.7-1.3-1.2c-0.1-0.1-0.2-0.3-0.2-0.5c0.1-0.1,0.1-0.2,0.2-0.1c0.2,0,0.3,0.3,0.5,0.3
		c0.1,0.1,0.1,0.2,0.1,0.3c0.2,0.2,0.5,0.5,0.7,0.7c0.1,0.1,0.2,0.2,0.1,0.4C175.6,46.4,175.5,46.6,175.3,46.6 M174.8,47
		c-0.1,0.6,0,1.1-0.1,1.7c0,0.5-0.2,1-0.2,1.5c0,0.8-0.3,1.5-0.3,2.3c-0.1,0.8-0.3,1.5-0.5,2.3c-0.2,0.9-0.5,1.8-0.8,2.6
		c0,0-0.1,0-0.1,0c0.1-0.8,0.3-1.7,0.4-2.5c0.2-1,0.4-2.1,0.6-3.1c0.1-0.8,0.1-1.6,0.2-2.4c0.1-1,0.2-2,0.3-2.9
		c0.1-0.1,0.3,0.1,0.4,0.1C174.8,46.8,174.8,46.9,174.8,47 M172.6,56.5c-0.2,0.9-0.3,1.8-0.6,2.6c0,0.3-0.1,0.6-0.2,0.8
		c0,0-0.1,0-0.1,0c0-0.7,0.3-1.2,0.3-1.8c0.1-0.5,0.1-1,0.2-1.5c0.1-0.7,0.1-1.3,0.1-2c0.1-0.2,0.1-0.5,0.1-0.7
		c-0.1-0.5,0.1-1,0.1-1.5c0.1-0.5,0.2-1.1,0.2-1.6c0.1-1,0.2-1.9,0.2-2.9c0.1-0.3,0-0.7,0.1-0.9c0-0.3,0-0.5,0-0.8
		c0.1-0.2-0.2-0.7,0.2-0.8c0.1,0.1,0.3,0.2,0.4,0.3c0,0.3-0.1,0.6-0.1,0.9c0,0.5-0.1,1-0.1,1.5c0,0.8,0,1.5-0.1,2.2
		c-0.1,0.9-0.2,1.7-0.3,2.6C173,54.2,172.7,55.3,172.6,56.5 M158.5,56.1c-0.1-0.6-0.1-1.3-0.2-1.9c-0.2-1.2-0.2-2.5-0.3-3.7
		c-0.1-0.3-0.1-0.7-0.1-1.1c-0.1-0.8-0.1-1.6-0.2-2.3c-0.1-0.5,0.1-0.9,0.2-1.2c0.1-0.1,0.3-0.3,0.4-0.2c0.1,0.8,0,1.6,0.1,2.4
		c0.1,0.3,0.1,0.7,0.1,1c0.1,1.3,0.1,2.5,0.3,3.7c0.2,1.7,0.4,3.4,0.6,5.2c0.1,0.6,0.2,1.2,0.3,1.9c0,0-0.1,0.1-0.1,0
		C159,58.7,158.7,57.5,158.5,56.1 M158.2,57.1c-0.4-1.3-0.7-2.6-0.9-4c-0.2-1.2-0.3-2.4-0.5-3.6c0.1-0.5,0-1.1,0-1.6
		c0.1-0.2,0.3-0.3,0.5-0.4c0,0,0.1,0,0.1,0.1c0,0.9,0.2,1.7,0.2,2.6c0.1,0.7,0.2,1.4,0.2,2c0,0.7,0.1,1.4,0.1,2.1
		c0.1,0.8,0.2,1.5,0.3,2.2C158.2,56.7,158.2,56.9,158.2,57.1L158.2,57.1z M156.5,47.7c-0.1,0-0.2-0.1-0.3-0.1
		c-0.1-0.1-0.2-0.3-0.2-0.5c0.1-0.2,0.4-0.3,0.5-0.5c0.3-0.2,0.5-0.5,0.8-0.8c0.1,0,0.3-0.1,0.4,0C157.4,46.6,157,47.2,156.5,47.7
		 M156.2,43.9c0-0.3,0.1-0.5,0.4-0.7c0.1-0.1,0.3-0.2,0.5-0.2l0.2,0.3c0,0.4-0.4,0.5-0.6,0.8c-0.1,0-0.1,0.1-0.2,0.1
		C156.2,44.1,156.2,44,156.2,43.9 M158.3,44.2c0.3-0.4,0.7-0.7,0.9-1.2c0,0,0.1-0.1,0.1-0.1c-0.1,0.8-0.4,1.6-0.9,2.2
		c-0.2,0.3-0.6,0.4-0.9,0.5c-0.1,0-0.2-0.1-0.2-0.2c0-0.1-0.1-0.2-0.1-0.3C157.6,44.9,158,44.6,158.3,44.2 M157.9,44.4
		c-0.1,0.1-0.2,0.2-0.4,0.1c0-0.2-0.1-0.6,0.1-0.7c0.1-0.1,0.3-0.3,0.4-0.1C158.1,43.9,158.1,44.2,157.9,44.4 M159.1,40.6
		c0-0.1,0.2-0.1,0.2,0c0,0.3-0.1,0.6-0.2,0.9c-0.3,0.4-0.3,0.9-0.7,1.3c-0.2,0.1-0.4,0.4-0.7,0.4c-0.1-0.2-0.3-0.4-0.3-0.7
		C158,42,158.7,41.3,159.1,40.6 M157.4,41.2c0.1-0.4,0-0.8,0.3-1.1c0.2,0,0.1,0.3,0.1,0.4c0.1,0.3,0.1,0.7,0.2,1
		c-0.1,0.2-0.3,0.3-0.5,0.3C157.3,41.7,157.4,41.4,157.4,41.2 M157.6,30.1c0-0.3,0-0.5,0-0.8c0,0,0.1-0.1,0.1-0.1
		c0.3-0.1,0.2,0.3,0.4,0.4c0.1,0.3,0.4,0.6,0.7,0.6c0.6,0,1.2-0.1,1.7,0.1c0.4,0.1,0.8,0.4,1.1,0.8c0.1,0,0.1-0.1,0.2-0.1
		c0.1,0.1,0.4,0.2,0.3,0.4c0.3,0,0.4,0.4,0.7,0.6c-0.2,0.2,0.5,0.5-0.1,0.5c-0.4-0.2-0.8,0.1-1.2,0.1c-0.1,0-0.2,0-0.3-0.1l0-0.1
		c0.2-0.2,0.5-0.3,0.8-0.3c0.1,0,0-0.2,0.2-0.1c0.1,0.1,0.1,0.2,0.2,0.2c0,0,0-0.1,0-0.1c-0.2,0-0.2-0.3-0.4-0.3
		c-0.2,0-0.3,0-0.4-0.2c-0.1-0.3-0.4-0.4-0.6-0.5c-0.1-0.1-0.2-0.1-0.3-0.1c-0.1,0.1-0.1,0.1-0.1,0.2c0.2,0.3,0.4,0.6,0.7,0.8v0
		c-0.3,0-0.5-0.4-0.7-0.3c0,0-0.1,0.1,0,0.2c0.1,0.2,0.4,0.4,0.2,0.6c-0.2,0-0.3-0.2-0.4-0.3c0-0.3-0.3-0.3-0.5-0.4
		c-0.2-0.1-0.4,0-0.7,0c-0.2-0.1-0.4,0.1-0.6-0.1C158.1,31.4,157.6,30.7,157.6,30.1 M162.7,30c0.2,0,0.4,0,0.6,0.2
		c0.1,0.1,0.2,0.3,0.3,0.3c0.1,0,0.1,0.1,0.1,0.2c-0.1,0.1-0.2,0-0.3,0c-0.2,0-0.5-0.3-0.7,0.1c-0.1,0.1-0.1,0.3-0.2,0.3
		c-0.1-0.1-0.2-0.3-0.2-0.5C162.4,30.3,162.5,30.1,162.7,30 M164,31.2c0,0.1,0.1,0.3,0,0.4c-0.2,0-0.5,0-0.6,0.3
		c-0.1,0.1-0.1,0.3-0.3,0.4c-0.1-0.1-0.2-0.2-0.3-0.4c0.1-0.2,0.2-0.5,0.3-0.7c0,0,0.1-0.1,0.1-0.1C163.6,31.1,163.8,31.3,164,31.2
		 M164.8,29.6c0.1,0,0.3,0,0.4,0.1c0.1,0.1,0.1,0.3,0.3,0.5c0,0.1,0,0.2-0.1,0.2c-0.4,0.1-0.4-0.4-0.8-0.3c-0.1,0.1-0.3,0.3-0.4,0.5
		c-0.1,0-0.1,0.1-0.2,0.1c-0.1-0.1-0.1-0.2-0.2-0.3C164,30,164.3,29.6,164.8,29.6 M164.8,31.3c0,0.1-0.1,0.2-0.2,0.3
		c-0.1,0-0.2-0.1-0.2-0.1c-0.1-0.1,0-0.2,0-0.3c0.1-0.2,0.2-0.5,0.4-0.6c0.2,0,0.4,0.3,0.6,0.3c0.1,0.1,0.1,0.2,0.1,0.3
		C165.2,31.3,164.9,30.9,164.8,31.3 M165.5,32.5c-0.1,0-0.1-0.1-0.1-0.2c0-0.1-0.1-0.2-0.2-0.1c-0.1,0.1-0.1,0.3-0.1,0.4l0,0
		c-0.2-0.2-0.3-0.4-0.2-0.7c0-0.2,0.2-0.3,0.3-0.4c0.1,0,0.2,0.1,0.3,0.2C165.6,31.9,165.6,32.2,165.5,32.5 M165.7,34.5
		c0.2-0.1,0.4,0.1,0.5-0.1l0,0c0,0.2,0.2,0.5,0.1,0.7c0,0.1,0.1,0.2,0.1,0.4c-0.1,0-0.1-0.2-0.2-0.3c0-0.1-0.1-0.2-0.2-0.2
		c-0.2,0-0.1,0.5-0.3,0.2c-0.1-0.2,0.1-0.4-0.1-0.5c-0.1,0.2-0.2,0.3-0.3,0.5c-0.1,0-0.2-0.1-0.2-0.2c0.3-0.1-0.1-0.5,0.3-0.6
		C165.6,34.3,165.6,34.4,165.7,34.5 M166.2,30.5c0.2-0.1,0.3,0.2,0.4,0.4c0,0.1,0.3,0.2,0.2,0.4c-0.1,0.1-0.1,0.2-0.2,0.2
		c-0.2-0.1-0.3-0.4-0.5-0.3c-0.1,0.1-0.2,0.2-0.3,0.2c-0.1-0.1-0.1-0.3-0.1-0.4C165.9,30.8,166,30.7,166.2,30.5 M165.8,30.1
		c0.2-0.4,0.6-0.4,1-0.4c0.2,0.2,0.2,0.4,0.4,0.5c0,0.1,0,0.3-0.1,0.4c-0.1,0-0.2-0.2-0.3-0.2c-0.2-0.1-0.4-0.2-0.6-0.1
		c-0.1,0-0.2,0.2-0.3,0.1C165.8,30.3,165.8,30.1,165.8,30.1 M167.9,30.7c0.1,0,0.1,0,0.2,0.1c0,0.4,0.5,0.7,0.1,1
		c-0.3,0-0.2-0.3-0.3-0.5c-0.2-0.2-0.4,0.2-0.6,0.1c-0.1,0-0.2-0.1-0.1-0.2C167.2,30.8,167.6,30.8,167.9,30.7 M167.6,30.1
		c0-0.3,0.3-0.2,0.5-0.3c0.3,0,0.7,0,0.9,0.3c0.1,0.1,0.1,0.2,0.1,0.3c-0.2,0.1-0.1,0.4-0.3,0.5c-0.3-0.1-0.2-0.4-0.4-0.6
		c-0.3-0.2-0.5,0.1-0.8,0.2C167.4,30.4,167.6,30.2,167.6,30.1 M167.3,32.4c-0.1-0.1-0.2,0.1-0.3,0.1c-0.1,0.1-0.2,0.3-0.3,0.4
		c-0.1,0-0.1,0-0.1-0.1c0-0.3,0.1-0.5,0.2-0.8c0.1-0.2,0.4-0.2,0.5-0.4c0.1-0.1,0.4-0.2,0.4,0.1c0,0.2,0.1,0.4,0.2,0.6
		c0,0.2-0.2,0.4-0.2,0.6c0,0-0.1,0.1-0.2,0.1C167.5,32.8,167.4,32.6,167.3,32.4 M166.3,32.7c-0.1-0.1-0.1-0.3-0.1-0.5
		c0,0-0.1,0-0.1,0c-0.1,0.1-0.2,0.3-0.2,0.4c0,0-0.1,0-0.1,0c-0.1-0.3,0-0.6,0.1-0.8c0.1-0.1,0.2-0.2,0.3-0.2
		c0.1,0.1,0.2,0.2,0.3,0.3C166.5,32.3,166.5,32.6,166.3,32.7 M169.6,31c0.2-0.3,0.6-0.2,0.8-0.4c0.7-0.2,1.4,0.1,2-0.4l0.7-0.5
		c0.3,0,0.4-0.3,0.6-0.4c0.1,0,0.2,0,0.2,0.1c-0.1,0.3-0.2,0.6-0.3,1c-0.1,0.5-0.6,0.6-1,0.9c-0.2,0.2-0.5,0.2-0.8,0.2
		c-0.6,0-1.1,0.3-1.4,0.8c0.1,0.2-0.1,0.3-0.2,0.3c-0.1,0.1-0.3,0.1-0.4,0.2c0.1,0.1,0.2,0,0.2,0.2c-0.3,0.3-0.8,0-1.1,0.3
		c0,0-0.1,0.1-0.1,0.1c0.1,0.1,0.3,0,0.3,0.1c-0.2,0.2-0.6,0.1-0.8,0.3c0,0.1,0,0.1,0.1,0.1c0.1,0,0.2-0.1,0.3,0
		c0,0.1-0.1,0.1-0.2,0.2c-0.3,0.1-0.6,0-0.8,0.2c0.1,0.1,0.3,0.1,0.4,0.2c-0.3,0.2-0.7,0.2-0.9,0.4c-0.2,0.1,0.1,0.7-0.3,0.5
		c-0.2-0.2-0.3-0.4-0.4-0.7c0.1-0.1,0-0.4,0.1-0.3c0.2,0.1,0.2,0.3,0.3,0.4c0.1,0,0.2-0.1,0.3-0.2c-0.2-0.3,0.3-0.3,0.4-0.5
		c0-0.3,0.3-0.2,0.4-0.3c0.3-0.1,0.5-0.1,0.8-0.2c0,0-0.1,0-0.1-0.1c0,0-0.1,0-0.1,0c0,0,0,0,0-0.1c0.3-0.4,0.8-0.3,1.2-0.4
		c0-0.1-0.2-0.1-0.1-0.2c0.3-0.2,0.8-0.1,0.9-0.5c0-0.1,0.1-0.2,0-0.3c-0.2,0.1-0.3,0.3-0.5,0.4c-0.2,0.2-0.4,0.3-0.6,0.4
		c0-0.1,0.1-0.2,0.2-0.3c0.3-0.3,0.5-0.7,0.7-1.1c0-0.1-0.1,0-0.2,0c-0.3,0.3-0.7,0.5-1,0.8c-0.1,0-0.2,0.1-0.2,0
		c-0.1-0.2,0.2-0.2,0.2-0.4C169.2,31.4,169.4,31.2,169.6,31 M173.1,33.9c0,0.1-0.1,0.3,0,0.4c0.1,0.1,0.3,0.1,0.3,0.3
		c0,0.1,0,0.2-0.1,0.2c-0.3,0-0.6,0.1-0.8,0.4c0,0.1,0,0.1,0.1,0.1c0.2,0,0.2-0.3,0.4-0.3c0.2,0,0.3-0.1,0.5,0
		c0,0.2,0.2,0.3,0.2,0.4c-0.1,0.3,0.1,0.7-0.1,1c-0.4,0-0.7-0.4-1.1-0.1c-0.2,0-0.5-0.2-0.7-0.1c-0.2-0.1-0.3-0.4-0.2-0.6
		c0.1-0.2,0.3-0.1,0.4-0.3c0.1,0,0.2,0.1,0.3,0c0-0.2-0.3-0.1-0.4-0.1c-0.1,0.1-0.2,0.1-0.4,0.1c-0.1-0.1-0.1-0.2-0.1-0.4
		c0.2-0.4,0.7-0.5,1-0.6c0,0,0.1-0.1,0-0.1c-0.4-0.3-0.9,0.1-1.2,0.3c-0.1,0-0.1,0-0.1-0.1c0.1-0.3,0.2-0.6,0.5-0.7
		c0,0,0.1-0.1,0.1-0.1c-0.1-0.1-0.2,0-0.3,0c-0.1,0.1-0.3,0.3-0.5,0.4c0-0.2,0.3-0.4,0.3-0.7c0,0,0-0.1-0.1-0.1
		c-0.3,0.2-0.5,0.5-0.9,0.7c-0.1,0-0.2,0-0.3,0c-0.1,0,0-0.1,0-0.2c0.2-0.3,0.5-0.6,0.6-0.9c0.2-0.6,0.9-0.5,1.3-0.9
		c0.2,0.1,0.4-0.1,0.5,0.1c-0.1,0.1-0.2,0.1-0.3,0.1c-0.2,0.2-0.6,0.3-0.7,0.6c0.2,0.1,0.2-0.1,0.3-0.2c0.1-0.1,0.2-0.2,0.3-0.1
		c0.2,0.2,0.3-0.3,0.4,0.1c-0.1,0.2-0.3,0.2-0.4,0.3c-0.1,0.1-0.3,0.3-0.3,0.5c0,0.1,0.1,0,0.2,0c0.2-0.2,0.4-0.4,0.7-0.4
		C173,33.2,173.1,33.6,173.1,33.9 M173.6,37.6c0,0.1-0.1,0-0.2,0c-0.1-0.2-0.4-0.3-0.5-0.6c0-0.1-0.2-0.1-0.2,0c0,0-0.1,0.1,0,0.1
		c0.3,0.4,0.4,0.8,0.7,1.2c0,0.2-0.2,0.4-0.3,0.6c0,0-0.1,0-0.1,0c-0.2-0.1-0.2-0.3-0.3-0.5c0-0.1-0.1-0.3-0.1-0.4
		c0.1-0.4-0.3-0.6-0.4-0.9c-0.2-0.2-0.5-0.2-0.6-0.4c0-0.1,0-0.2,0.1-0.2c0.3-0.3,0.6,0.1,0.9-0.1c0.1,0.1,0.3,0,0.4,0
		c0.2,0.1,0.4,0.3,0.6,0.3c0.2,0.1,0.2,0.3,0.2,0.5C173.7,37.3,173.6,37.4,173.6,37.6 M174,41.4c-0.1,0-0.3,0-0.4-0.1
		c-0.4-0.2-0.2-0.6-0.3-1c0-0.3-0.1-0.6,0.1-0.8c0.1,0,0.1,0.1,0.1,0.1C173.7,40.3,174,40.8,174,41.4 M171.7,42.3c0-0.1,0.1,0,0.1,0
		c0.2,0.2,0.3,0.4,0.5,0.6c0.4,0.3,0.7,0.7,1.2,0.8c0.1,0.2,0.4,0.2,0.5,0.3c0,0.2-0.1,0.4-0.3,0.4c-0.6,0-0.9-0.4-1.3-0.8
		C172.1,43.3,171.9,42.8,171.7,42.3 M171.4,52.1c-0.6,0.1-1.2-0.2-1.6-0.6c-0.2-0.3-0.4-0.6-0.4-1c0-0.1,0.1-0.1,0.2-0.1
		c0.3,0.3,0.7,0.6,1.1,0.7l0.1-0.1c0.1,0,0.1,0.2,0.2,0.1c0,0,0.1-0.1,0-0.1c-0.5-0.4-0.8-0.9-0.9-1.4c0-0.1,0.1-0.1,0.2-0.1
		c0.5,0.3,1,0.7,1.5,1.1c0.2,0.3,0.4,0.6,0.3,0.9C171.8,51.8,171.6,52.1,171.4,52.1 M172.5,62.2c-0.1,0.1-0.1,0.1-0.2,0.1
		c-0.3-0.1-0.5,0.1-0.8,0.1c-0.1-0.2-0.2-0.5-0.2-0.7c0.2-0.2,0.4-0.3,0.5-0.5c0-0.1,0-0.1-0.1-0.1c-0.2,0-0.4,0.4-0.6,0.1
		c-0.1-0.2-0.2-0.5-0.3-0.8c0.2-0.1,0.4,0,0.5,0.1l0.3,0.1c0.5,0.1,0.5,0.7,0.8,1C172.5,61.7,172.8,62,172.5,62.2 M171.5,62.9
		c-0.1,0,0-0.1,0-0.2c0.2-0.3,0.5-0.1,0.8-0.2l0,0c0.1,0.3-0.3,0.5-0.4,0.8c-0.1,0.1-0.1,0.2-0.1,0.2c-0.2,0.2-0.3,0.4-0.5,0.6
		l-0.1,0C171.4,63.8,171.7,63.4,171.5,62.9 M162.2,63.1c0.2,0,0.4,0,0.6,0.2c0,0.2-0.1,0.4-0.1,0.7c0,0.3,0,0.6,0.2,0.8l0,0.1
		c-0.2,0-0.4-0.2-0.5-0.3c-0.3-0.3-0.6-0.6-0.6-1C161.8,63.3,162,63.2,162.2,63.1 M160.2,62.9c0.2-0.1,0.4-0.1,0.6,0
		c0,0.2-0.1,0.5-0.1,0.7c0,0.3,0.2,0.6,0.5,0.7v0c-0.2,0-0.4-0.1-0.6-0.2c-0.3-0.2-0.3-0.5-0.4-0.7C160.2,63.3,160,63.1,160.2,62.9
		 M159.7,61.9c0-0.4,0.1-0.8,0.3-1.1c0-0.2,0.2-0.2,0.4-0.3c0.2,0,0.4-0.2,0.6,0c0,0.1,0.2,0.2,0.1,0.4c-0.1,0.2-0.2,0.4-0.4,0.6
		c-0.1,0-0.3-0.1-0.3,0.1c0,0.3,0.4,0.1,0.5,0.3c0,0.2,0.1,0.5,0,0.7c-0.2,0-0.5,0-0.7,0.1c-0.1,0.1-0.2,0.1-0.3,0.1
		C159.5,62.6,159.6,62.2,159.7,61.9 M160,53.4l0.3-0.1c0,0,0.1,0,0.1,0.1c0.1,0.9,0.1,1.8,0.2,2.7c0,0.7,0.1,1.2,0.2,1.9
		c0.1,0.4,0,0.9,0.2,1.3c0.2,0.4-0.1,0.6-0.2,0.9c-0.3,0,0-0.4-0.2-0.6c-0.3-1.2-0.6-2.3-0.7-3.6c-0.1-0.6-0.1-1.2-0.2-1.8
		c-0.1-0.3,0-0.6-0.1-0.9C159.7,53.2,159.8,53.4,160,53.4 M160.3,51.1L160.3,51.1c0.3-0.3,0.6-0.6,0.8-0.8c0,0,0.1,0,0.1,0
		c-0.1,0.5-0.2,1-0.6,1.5c0,0.1,0,0.1,0.1,0.1c0.2-0.3,0.4-0.5,0.7-0.8c0.2-0.2,0.3-0.4,0.5-0.6c0.1,0.2,0,0.4,0,0.5
		c-0.1,0.8-0.4,1.5-1.2,1.9c-0.2,0-0.4,0.2-0.7,0.1c-0.2,0-0.4-0.2-0.5-0.4C159.5,52,159.9,51.5,160.3,51.1 M159.8,44
		C159.8,44,159.9,44,159.8,44c0,1.2,0.1,2.3,0.1,3.5c0.1,1.1,0.1,2.2,0.2,3.2c0,0.2-0.2,0.3-0.3,0.5c-0.1,0.1-0.2,0.3-0.4,0.3
		c-0.2-0.3-0.1-0.7-0.2-1.1c-0.1-1.7-0.3-3.5-0.3-5.4c0.1-0.2,0.2-0.4,0.3-0.7C159.5,44.4,159.7,44.2,159.8,44 M161.7,34.3
		c0.6-0.2,1.2,0,1.6,0.3c0.4,0.5,0.5,1.3,0.2,1.9c-0.2,0.4-0.5,0.9-1,0.9c-0.6,0.3-1.2,0-1.7-0.4c-0.3-0.4-0.6-0.9-0.4-1.4
		C160.5,35,161.1,34.5,161.7,34.3 M163,32.9c-0.5,0-0.9,0.3-1.4,0.2c0,0-0.1,0-0.1-0.1c0-0.1,0.1-0.1,0.1-0.1
		c0.1-0.2,0.4-0.1,0.5-0.2c0.1,0,0.3,0,0.4-0.1c0.3,0,0.6,0,0.9,0.3l0,0.1C163.3,33,163.2,32.9,163,32.9 M163.8,33.4
		c-0.1,0.3,0.3,0.2,0.4,0.3l0,0.1c0,0.1-0.2,0.1-0.3,0.1c-0.3-0.1-0.6-0.1-0.8,0.1c-0.1,0-0.2,0-0.3-0.1c0-0.2,0.3-0.1,0.4-0.1
		c0.1-0.1,0.2-0.1,0.3-0.2c-0.3-0.3-0.6,0-1,0c-0.2,0.1-0.5,0.1-0.7,0c0,0,0-0.1,0.1-0.1c0.3,0.1,0.5-0.2,0.8-0.2
		c0.2-0.1,0.5,0,0.8,0C163.6,33.3,163.7,33.3,163.8,33.4 M164.6,32.7c-0.1,0-0.1-0.2-0.2-0.2c-0.1-0.1-0.1-0.1-0.2-0.1
		c-0.1,0.1-0.2,0.3-0.3,0.5l0,0.1c-0.2,0-0.2-0.2-0.4-0.3c-0.1-0.3,0.2-0.5,0.3-0.7c0.2,0,0.5,0.1,0.6,0.3
		C164.5,32.4,164.7,32.5,164.6,32.7 M164,34.3c-0.2,0-0.4,0.1-0.6-0.1c0.1-0.2,0.3-0.1,0.4-0.2c0.3-0.1,0.4,0.2,0.7,0.2
		c0,0,0,0,0,0.1C164.4,34.4,164.2,34.3,164,34.3 M164.7,35.2c0-0.1,0.1-0.3-0.1-0.3c-0.1,0-0.3,0.1-0.4,0.1c0,0-0.1-0.1-0.1-0.1
		c0,0,0,0,0-0.1c0.2-0.1,0.5-0.3,0.7-0.4c0.1-0.1,0.2-0.2,0.3-0.1C165.2,34.7,164.9,35,164.7,35.2C164.7,35.3,164.7,35.2,164.7,35.2
		 M167.1,46.5c-0.3,0.4-0.9,0.8-1.4,0.8c-0.3-0.1-0.6-0.1-0.8-0.4c0-0.2-0.3-0.3-0.2-0.6c-0.2-0.5-0.4-1-0.3-1.6
		c-0.1-0.6,0.1-1.3,0.2-1.9c0.1-0.1,0.2-0.4,0.3-0.2c0,0.6-0.2,1.1,0.1,1.6c0.1,0,0.1,0.1,0.2,0.1c0.2-0.1,0-0.4,0.1-0.6
		c0.1-0.1,0.1,0,0.2,0.1c0.1,0.6,0,1.3,0.3,1.8c0.1,0.1,0.2,0.2,0.3,0.1c0.1-0.1,0-0.1,0.1-0.2c-0.3-0.8-0.3-1.8,0-2.6
		c0.1,0,0.1,0,0.1,0.1c0.1,0.5-0.1,1.1,0.1,1.5c0.2-0.1,0.2-0.3,0.3-0.5c0.1-0.5,0-1.1,0.1-1.6c0.1,0,0,0.1,0.1,0.1
		C167.1,43.9,167.9,45.3,167.1,46.5 M170.3,42.7c-0.3-0.5-0.6-0.9-0.6-1.5c0,0,0.1,0,0.1,0c0.2,0.3,0.5,0.8,1,0.8
		c0.1-0.1-0.1-0.3-0.1-0.4c0-0.2-0.1-0.3-0.1-0.5c0.1,0,0.1,0.1,0.2,0.2c0.3,0.2,0.6,0.4,0.7,0.8c0,0.3,0,0.7-0.3,1
		C170.8,43,170.5,42.9,170.3,42.7 M170,42.9c0.1,0.1,0.2,0.2,0.3,0.2c0.2,0.2,0.4,0.5,0.3,0.8c-0.1,0.1-0.1,0.3-0.2,0.4
		c-0.3,0-0.5-0.3-0.7-0.5c-0.2-0.2-0.3-0.4-0.2-0.7c0-0.1,0.1,0,0.2,0c0.2,0.1,0.3,0.4,0.5,0.2C170.1,43.2,169.9,43.1,170,42.9
		 M168.8,45.9c-0.4-0.3-0.5-0.7-0.6-1.2c0-0.1-0.1-0.3,0-0.4c0.1,0,0.1,0.1,0.1,0.1c0.2,0.2,0.4,0.6,0.7,0.7
		c0.1,0.1,0.1,0.1,0.1,0.2c0.1,0,0.2,0,0.2-0.1c0-0.1-0.1-0.3-0.2-0.4c-0.1-0.3-0.4-0.5-0.3-0.9c0.1-0.1,0.2,0.1,0.4,0.2
		c0.4,0.1,1,0.4,1.1,0.9c0,0.3,0,0.7-0.2,0.9C169.6,46.1,169.1,46.1,168.8,45.9 M169.9,54.6c-0.1,0.1-0.2,0.2-0.4,0.1
		c-0.6-0.2-0.8-0.8-0.9-1.3c0.1,0,0.2,0.2,0.3,0.2c0.2,0.1,0.3,0.5,0.6,0.3c0-0.3-0.3-0.4-0.4-0.7c0-0.1-0.1-0.2-0.1-0.3
		c0.1,0,0.1,0.2,0.3,0.3c0.3,0.1,0.6,0.4,0.7,0.7C170.1,54.2,170.1,54.4,169.9,54.6 M169.1,58.1c0-0.6,0.2-1.1,0.2-1.7
		c0-0.1,0.1-0.2,0.1-0.1c0.1,0.6,0,1.2,0.2,1.7c0,0.4,0.1,0.9-0.3,1.1c-0.1,0.1-0.2-0.1-0.3-0.2C168.9,58.6,169.1,58.4,169.1,58.1
		 M166.7,60.1c0.1-0.5,0.4-0.8,0.5-1.3c0.4-0.5,0.6-1,0.8-1.5c0-0.1-0.1-0.2,0-0.3c0.2,0.3,0.3,0.7,0.2,1.1c0,1-1.1,1.6-1.2,2.5
		c-0.1,0.1-0.2,0.3-0.3,0.4C166.7,60.7,166.8,60.4,166.7,60.1 M166.4,58.1c0-0.2,0.2-0.3,0.3-0.5c0.2-0.5,0.4-0.9,0.7-1.3
		c0.2-0.2,0.1-0.5,0.2-0.8c0.1,0,0.1,0.2,0.2,0.3c0.1,0.5,0.1,1.1-0.1,1.5c-0.3,0.6-0.8,1.1-1,1.6c-0.1,0.1-0.1,0.3-0.2,0.4
		C166.2,59.1,166.2,58.5,166.4,58.1 M165.4,57.2c-0.4-0.4-0.7-0.9-0.5-1.5c0-0.4,0.2-0.8,0.5-1c0.1-0.1,0-0.3,0.1-0.3
		c0.1,0.1,0,0.2-0.1,0.2c0.1,0.4,0.3,1-0.1,1.3c0,0.1,0,0.2,0.1,0.2c0.4,0.1,0.3-0.4,0.5-0.5c0,0.3-0.2,0.6-0.4,0.8
		c0,0.1,0.2,0.1,0.2,0.2c0.2,0,0.3-0.3,0.4-0.4c0.1-0.5,0.1-0.9-0.2-1.3c0-0.1-0.1-0.3,0.1-0.5c0.2,0,0.4,0.3,0.5,0.5
		c0.2,0.4,0.3,1,0.1,1.4c0.1,0.5-0.4,0.6-0.6,0.9C165.9,57.2,165.6,57.3,165.4,57.2 M163.9,58.1c-0.2-0.3-0.3-0.7-0.5-1
		c0-0.4-0.1-0.7,0-1.1c0-0.1,0-0.2,0.1-0.3l0,0c0,0.8,0.5,1.3,0.9,1.9c0.3,0.3,1,0.4,0.9,1c0,0.3,0.2,0.5,0,0.8
		c-0.1,0-0.1,0-0.1-0.1C164.9,58.8,164.3,58.5,163.9,58.1 M161.4,60.7c0.1-0.2,0.2-0.5,0.4-0.7c0.1-0.2,0.4-0.1,0.6-0.2
		c0.2,0.1,0.6-0.1,0.5,0.2c-0.2,0.4-0.4,0.9-0.2,1.3c-0.1,0.2-0.6,0-0.5,0.3c0.1,0.3,0.5,0.1,0.6,0.4c0.1,0.3,0.1,0.7,0.2,1
		c0,0.1-0.1,0-0.1,0c-0.3-0.2-0.6-0.4-0.9-0.2c-0.2,0.1-0.3,0.3-0.5,0.5c-0.1,0.1-0.1-0.1-0.1-0.1C161.1,62.4,161.2,61.5,161.4,60.7
		 M162.1,57.7c0,0.4,0.1,0.9-0.1,1.2c-0.1,0.1-0.2,0.2-0.3,0.1c-0.2-0.1-0.2-0.2-0.2-0.4c0-0.4-0.1-0.8,0.1-1.2
		c0.1-0.3,0.1-0.5,0.2-0.8c0-0.2,0.1-0.4,0.1-0.6c0.1,0.1,0,0.3,0.1,0.4C162.1,56.9,161.9,57.3,162.1,57.7 M162.2,53.9
		c0.1-0.1,0.1-0.2,0.2-0.2c0,0.2-0.2,0.3-0.2,0.5c-0.1,0.2-0.2,0.4-0.2,0.6c0.1,0.1,0.2,0,0.3,0c0.2-0.2,0.4-0.4,0.6-0.6
		c0,0,0,0.1,0,0.1c0,0,0,0.1,0,0.1c-0.2,0.4-0.4,1-1,1.1c-0.2,0-0.4,0-0.5-0.1c-0.1-0.3,0-0.7,0.2-1
		C161.8,54.2,161.9,53.9,162.2,53.9 M160.5,47.8l0.5-0.5c0.1,0,0.1,0,0.1,0.1c0.1,0.3-0.1,0.7-0.2,0.9c0,0.1-0.1,0.3,0,0.4
		c0.2,0,0.3-0.2,0.4-0.3c0.2-0.3,0.4-0.6,0.7-0.8c0,0,0.1,0,0.1,0c0,0.5-0.3,0.9-0.5,1.3c-0.2,0.4-0.6,0.7-1.1,0.6l-0.1-0.1
		C160.3,48.9,160.2,48.3,160.5,47.8 M161.6,44.2c-0.2,0.2-0.5,0.4-0.8,0.4c-0.1,0-0.2-0.1-0.2-0.2c-0.1-0.6,0.4-0.9,0.5-1.4
		c0.1-0.1,0.2-0.3,0.3-0.3c0.1,0.3-0.1,0.6-0.1,0.9c0.1,0.1,0.2-0.1,0.3-0.2c0.2-0.4,0.4-0.9,0.5-1.3c0-0.1,0.1,0,0.1,0
		C162.2,42.9,162,43.6,161.6,44.2 M164.6,47.3c0,0.3-0.1,0.5-0.2,0.8l-0.1,0.1c0.1,0.1,0,0.2,0,0.3c-0.1,0.6-0.6,1-1.2,1.1
		c-0.2,0-0.4-0.1-0.5-0.2c-0.3-0.2-0.2-0.6-0.2-1c0.2-0.6,0.6-1.2,1-1.8c0,0,0.1-0.1,0.1,0c0.1,0.6,0,1.1-0.2,1.6
		c0,0.1,0,0.2,0.1,0.3c0.2-0.1,0.2-0.3,0.4-0.4l0-0.1c0.2-0.4,0.5-0.8,0.6-1.3c0-0.1,0.1,0,0.1-0.1
		C164.7,46.9,164.6,47.1,164.6,47.3 M163.7,53c0.1-0.3,0.4-0.4,0.6-0.7c0.1,0,0.2,0,0.2,0.1c0,0.5-0.3,0.9-0.5,1.3
		c0.1,0.1,0.2-0.1,0.4-0.1c0.3-0.2,0.3-0.6,0.5-0.9c0.1,0,0.2,0.1,0.2,0.1c0.3,0.7-0.1,1.3-0.4,1.8c-0.2,0.4-0.6,0.2-0.9,0.3
		c-0.2,0-0.4-0.1-0.4-0.3C163.2,54,163.6,53.6,163.7,53 M163.2,51.8c0.3-0.3,0.5-0.6,0.7-0.9c0.1,0,0.1,0,0.1,0.1
		c0.1,0.8-0.3,1.4-0.9,1.8c-0.2,0.1-0.4,0.1-0.5,0.1c-0.1-0.1-0.2-0.3-0.3-0.4c-0.1-0.6,0.1-1.1,0.5-1.5c0.2-0.2,0.2-0.4,0.4-0.5
		c0.2,0.1,0.1,0.5,0.1,0.7c0,0.3-0.2,0.4-0.3,0.7C163,52,163.1,51.9,163.2,51.8 M168.3,52.4c-0.3-0.4-0.6-0.8-0.6-1.4
		c0,0,0.1-0.1,0.1,0c0.1,0.1,0.1,0.2,0.1,0.3c0.1,0.2,0.2,0.5,0.5,0.5c0.1,0,0-0.2,0-0.2c0-0.3-0.2-0.5-0.1-0.8h0
		c0.4,0.4,0.9,0.8,0.7,1.4c0,0.2-0.2,0.3-0.3,0.3C168.6,52.5,168.5,52.5,168.3,52.4 M167.4,53.6c-0.1-0.2-0.4-0.4-0.4-0.6
		c0-0.1-0.1-0.2,0.1-0.3c0.5,0.2,0.9,0.5,1.2,0.9c0.1,0.3,0.1,0.7,0,0.9c0,0.1-0.1,0.3-0.2,0.3c-0.1,0.1-0.3,0.1-0.5,0.1
		c-0.5-0.3-0.8-0.9-0.9-1.5h0.1c0.2,0.2,0.3,0.7,0.7,0.5C167.5,53.8,167.5,53.7,167.4,53.6 M167.9,47.8c-0.1-0.2-0.1-0.5-0.2-0.8
		c0-0.2,0.2,0,0.2,0.1c0.2,0.6,1.1,0.7,1.1,1.4c0.1,0.2,0.1,0.4,0,0.6c-0.2,0.2-0.5,0.3-0.9,0.3c-0.5-0.2-0.8-0.7-1.2-1.1
		c0-0.3-0.3-0.5-0.1-0.8c0.1,0,0.2,0.1,0.2,0.1c0.3,0.3,0.6,0.6,0.9,0.8c0.1,0,0.1,0,0.2-0.1C168.3,48,168,47.9,167.9,47.8
		 M165,49.8C165.1,49.9,165.1,49.9,165,49.8c0.2-0.1,0.1-0.3,0.2-0.4c0-0.1,0.1,0,0.2,0c0.3,0.2,0.1,0.6,0.2,0.9
		c0,0.3-0.1,0.7-0.2,1c0.1,0.1,0.2,0,0.2,0c0.3-0.4,0.2-0.8,0.3-1.3c0-0.1,0-0.2,0.1-0.3c0.1,0,0.1,0,0.1,0.1c0,0.3-0.1,0.6,0,0.9
		l0.1,0c0.3-0.4,0.1-0.9,0.3-1.4c0.1-0.2,0-0.5,0.1-0.8c0.2,0,0.2,0.2,0.2,0.4c0,0.2,0.1,0.3,0.2,0.4c0.1,1,0.4,2.4-0.6,3
		c-0.3,0.2-0.8,0.1-1.1,0c-0.3-0.1-0.4-0.5-0.5-0.7c-0.2-0.6-0.4-1.2-0.3-1.9c0.1-0.6,0.2-1.3,0.5-1.8c0.1,0,0,0.2,0,0.3
		C165,48.9,164.9,49.3,165,49.8 M163.1,42.9c0.4-0.1,0.6-0.4,0.8-0.7c0-0.2,0.2-0.3,0.3-0.5c0,0,0,0,0.1,0c0,0.7-0.3,1.4-0.9,1.9
		c-0.1,0.1-0.3,0.1-0.4,0.1c-0.2-0.1-0.5-0.2-0.5-0.4c0-0.5,0.1-0.9,0.5-1.1c0.1-0.1,0.2-0.3,0.4-0.4c0,0.3-0.1,0.6-0.2,0.8
		C163.2,42.7,163,42.8,163.1,42.9 M162,45.6c0.4-0.3,0.7-0.8,1-1.1c0,0,0.1,0,0.1,0c0,0.7-0.4,1.3-0.9,1.9c-0.3,0.3-0.8,0.5-1.2,0.4
		c-0.3,0-0.4-0.4-0.5-0.6c0-0.3,0.1-0.5,0.2-0.7c0.4-0.3,0.9-0.6,1.1-1c0-0.1,0.1-0.1,0.2,0c0,0.5-0.3,0.9-0.5,1.3
		C161.8,45.9,161.9,45.7,162,45.6 M160.5,41.9c0.2-0.1,0.3-0.3,0.5-0.4c0.2-0.2,0.3-0.4,0.5-0.6c0.1,0,0.2,0,0.2,0.1
		c0,0.3-0.1,0.5-0.2,0.8c-0.3,0.6-0.7,1.2-1.4,1.3c-0.2,0-0.4-0.1-0.5-0.2c0-0.3-0.1-0.5-0.1-0.7c0-0.5,0.4-0.9,0.7-1.4
		c0.1-0.1,0.3-0.2,0.3,0c-0.1,0.3-0.1,0.7-0.1,1C160.5,41.9,160.5,41.9,160.5,41.9 M163.4,59.3c-0.6-0.3-0.7-1-0.6-1.6
		c0-0.1,0-0.3,0.1-0.3c0.1,0.1,0.1,0.2,0.2,0.3c0.3,0.6,1,1,1.4,1.5c0.4,0.2,0.6,0.7,0.6,1.2c0.1,0.1,0,0.3,0,0.4c0,0-0.1,0-0.1-0.1
		C164.7,60.1,164.1,59.5,163.4,59.3 M164.6,63.1c-0.2,0-0.4-0.1-0.5-0.2c-0.2,0-0.2,0.2-0.4,0.3c-0.1,0-0.1,0.1-0.2,0.1
		c-0.1-0.2-0.1-0.4-0.1-0.6c-0.1-0.2,0-0.5,0.1-0.7c0.2-0.1,0.3-0.3,0.5-0.3c0.1-0.1,0.1-0.1,0.1-0.2c-0.1-0.1-0.3-0.1-0.4-0.1
		c-0.2,0.1-0.3,0.2-0.5,0.4c-0.2-0.3-0.2-0.6-0.2-1c0-0.3,0.1-0.7,0.4-0.8c0.2,0.1,0.6,0.1,0.7,0.4c0.4,0.5,0.8,1,0.9,1.7
		c0,0.4,0.1,0.8-0.1,1.2C164.7,63.3,164.7,63.2,164.6,63.1 M163.8,63.5c0.2-0.1,0.4-0.3,0.7-0.1c0.2,0.2,0.2,0.4,0.2,0.6
		c-0.2,0.4-0.6,0.8-1,0.9c0,0-0.1,0-0.1-0.1c0-0.3,0.2-0.5,0.1-0.8C163.6,63.8,163.7,63.7,163.8,63.5 M168.3,62.6
		c-0.3,0-0.4,0.2-0.6,0.2c-0.1-0.2-0.1-0.4-0.2-0.6c-0.1-0.7,0-1.4,0.6-1.8c0.1-0.1,0.2,0,0.3,0c0.2,0.2,0.3,0.5,0.4,0.7
		c0.1,0.2,0.2,0.3,0.3,0.6c0.1,0.3,0,0.6,0,0.9C168.9,62.6,168.6,62.4,168.3,62.6 M169,64.2c-0.4-0.1-0.9-0.4-0.9-0.9
		c0-0.1-0.1-0.2-0.1-0.3c0.2-0.2,0.5-0.2,0.8-0.2l0.1,0.1C168.8,63.3,168.7,63.9,169,64.2 M170,63.2c0.1-0.3,0.4-0.3,0.6-0.4
		c0.1,0,0.2,0,0.2,0.1c-0.1,0.6-0.2,1.2-0.6,1.7c0,0.1-0.1,0.1-0.2,0.1c-0.1,0,0-0.1,0-0.2C170.2,64.1,170.2,63.6,170,63.2
		 M170.7,60.9c0.2,0.4,0.3,0.8,0.3,1.1c0,0.2,0.1,0.4-0.1,0.5c-0.5-0.1-0.9,0.1-1.3,0.4c-0.1,0-0.2,0-0.3-0.1c-0.1-0.2,0-0.4,0-0.6
		c0.1-0.2,0-0.6,0.2-0.7c0.1-0.1,0.3-0.1,0.3-0.3c-0.2-0.1-0.5,0-0.6-0.2c-0.2-0.3-0.4-0.6-0.4-1c0.3-0.3,0.8-0.4,1.2-0.3
		c0.1,0.1,0.3,0.1,0.3,0.2C170.6,60.3,170.6,60.6,170.7,60.9 M170.9,55c0-0.8,0.2-1.7,0.2-2.5c0.1-0.1,0.3-0.2,0.5-0.2
		c0,0.1,0,0.3,0,0.5c0,0.8-0.1,1.6-0.1,2.4c0,0.3-0.1,0.7-0.1,1c-0.1,0.2-0.1,0.4-0.1,0.7c0,0.7-0.2,1.3-0.3,1.9
		c-0.1,0.1-0.1,0.4-0.3,0.4c-0.2-0.2-0.1-0.5-0.1-0.7c0.1-0.2,0-0.5,0.1-0.7C170.7,56.9,171,56,170.9,55 M171,48.6
		c-0.3,0.1-0.5-0.3-0.8-0.4c-0.3-0.4-0.6-0.8-0.6-1.3c0,0,0.1-0.1,0.1-0.1c0.2,0.3,0.4,0.7,0.8,0.8c0.1,0,0.1,0,0.1-0.1
		c-0.1-0.3-0.3-0.6-0.2-0.9c0.2,0,0.3,0.3,0.6,0.3c0.1,0.1,0.1,0.4,0.1,0.5C171,47.8,171.1,48.2,171,48.6 M173.4,42.4
		c-0.3-0.1-0.6-0.4-0.8-0.6c-0.1-0.3-0.3-0.5-0.3-0.8c0-0.2-0.1-0.4,0-0.6h0c0.2,0.5,0.6,0.8,1,1.3c0.1,0.1,0.3,0.1,0.4,0.3
		C173.6,42.1,173.6,42.3,173.4,42.4 M173.2,42.7c0,0,0.1-0.1,0.2-0.1c0.2,0,0.3,0,0.5,0.1c0.1,0.2,0.2,0.5,0.1,0.7
		c-0.3,0.1-0.5,0-0.7-0.2C173.1,43,173.3,42.9,173.2,42.7 M168,34.8c0.3-0.4,0.8-0.5,1.3-0.6c0.5,0,1.1,0.1,1.4,0.5
		c0.4,0.5,0.5,1.2,0.3,1.8c-0.3,0.6-0.9,1.1-1.6,1.1c-0.3,0.1-0.5-0.1-0.8-0.2c-0.4-0.2-0.5-0.6-0.7-0.9
		C167.6,35.9,167.7,35.3,168,34.8 M168,38c-0.1,0.1-0.2,0.2-0.3,0.3c-0.1-0.2,0.1-0.3,0.1-0.5c0,0,0-0.1,0-0.1
		c-0.1-0.1-0.2,0-0.2-0.2c0-0.1,0-0.1,0-0.2l0.2,0c0.2,0.2,0.5,0.5,0.8,0.7c0,0.2,0,0.4-0.1,0.6c0,0.2-0.2,0.4-0.2,0.6
		c0,0.1,0.1,0.1,0.1,0c0.2-0.3,0.3-0.6,0.6-0.9c0.3-0.1,0.6,0,0.9,0c0.2,0.1,0.1,0.4,0.2,0.6c0,0.1,0,0.3,0.1,0.4
		c0.2,0,0.2-0.3,0.2-0.4c0.1-0.3,0-0.5,0-0.8c0,0,0-0.1,0-0.2c0.1-0.1,0.2-0.1,0.3,0c0.2,0.1,0.3,0.4,0.5,0.5c0.1,0,0-0.1,0-0.2
		c0-0.2-0.3-0.4-0.3-0.6c0-0.1,0.1-0.1,0.2-0.1c0.2,0.1,0.1,0.4,0.3,0.5c0.1,0,0-0.1,0-0.2c-0.1-0.2-0.2-0.4-0.2-0.6
		c0.1-0.1,0.2,0,0.2,0c0.3,0.1,0.5,0.2,0.8,0.4c0.3,0.2,0.3,0.6,0.4,0.9c-0.1,0.3,0.2,0.7-0.1,0.9c-0.2,0.1-0.4,0.3-0.6,0.4
		c-0.1-0.1-0.1-0.2-0.2-0.3c-0.2-0.2-0.3-0.7-0.6-0.6c-0.1,0.1,0.1,0.3,0.1,0.5c0,0.3,0.3,0.6,0.1,0.9c-0.3-0.1-0.4,0.3-0.7,0.2
		c-0.3-0.1-0.6,0.5-0.9,0c0-0.4,0-0.8-0.1-1.3c-0.1-0.1-0.1-0.3-0.2-0.4c-0.1,0.1,0,0.3-0.1,0.5c0,0.4-0.1,0.7-0.3,1.1
		c-0.1,0.1-0.2,0.2-0.3,0.1c0,0-0.1,0-0.1-0.1c0-0.2,0.1-0.4,0.1-0.6c0-0.1-0.1,0-0.1,0c-0.2,0.3-0.5,0.7-0.9,0.6
		c-0.1-0.1-0.1-0.1-0.2-0.1c0.1-0.2,0.4-0.4,0.4-0.6c-0.2,0-0.3,0.2-0.5,0.3c-0.1-0.7,0.6-1.1,0.7-1.8C168.1,38,168,38,168,38
		 M168.2,42.7c-0.5-0.2-1-0.7-1-1.3c0-0.1,0.1-0.1,0.1,0l0.5,0.5c0.4,0.2,0.8,0.5,1,0.9c0,0.1,0.1,0.3-0.1,0.4
		c-0.2,0.2-0.4,0.3-0.7,0.3c-0.5-0.1-1-0.5-1.2-0.9c-0.1-0.3-0.1-0.7,0-1c0.2,0,0.1,0.2,0.2,0.3c0.2,0.4,0.6,1,1.1,1.1
		C168.3,42.8,168.2,42.8,168.2,42.7 M165.6,39.8c0,0,0.1,0,0.1,0c0.1-0.2,0.1-0.6,0.1-0.8c0-0.7,0.1-1.4,0.2-2c0-0.1,0-0.2,0.2-0.3
		c0.2,0,0.5,0.1,0.6,0.3c0.1,0.9,0,1.9-0.3,2.7c-0.1,0.4-0.4,0.7-0.6,1.1c-0.1,0.1-0.1,0.4-0.4,0.4c-0.6-0.8-1-1.8-1-2.9
		c0-0.4-0.2-1,0.1-1.3c0.3-0.1,0.5-0.4,0.8-0.3l0,0.1C165.6,37.8,165.3,38.8,165.6,39.8 M158.6,38.7c-0.3,0-0.3-0.3-0.4-0.5
		c-0.1-0.1-0.1-0.3-0.1-0.4c0.1-0.1,0.1-0.2,0.1-0.3c-0.1-0.1-0.3,0-0.3-0.2c0-0.2-0.1-0.5,0.2-0.6c0.2-0.1,0.5,0,0.8-0.2
		c0,0,0-0.1-0.1-0.1c-0.3,0-0.5,0.1-0.7,0.2c-0.1,0-0.1-0.1-0.1-0.2c0-0.7-0.1-1.3,0.1-1.8c0-0.1-0.1-0.3,0-0.4
		c0.3-0.1,0.4,0.4,0.7,0.3l0,0c-0.2-0.2-0.4-0.4-0.6-0.4c-0.1-0.2,0-0.5,0-0.7c0.1-0.1,0.1-0.2,0.2-0.1c0.2,0.1,0.3,0.3,0.5,0.4
		c0.1,0,0.1-0.1,0.1-0.2c-0.2-0.3-0.7-0.3-0.5-0.8c0-0.2,0.1-0.4,0.3-0.4c0.2,0.1,0.3,0.3,0.5,0.4l0.1,0c-0.2-0.2-0.3-0.4-0.2-0.6
		c0.1-0.1,0.3,0.1,0.4,0.1l0.2,0.1c0.2,0.1,0.5,0.2,0.5,0.5c0.2,0.3,0.2,0.6,0.5,0.8c0.1,0.2,0.2,0.3,0.3,0.4
		c-0.1,0.1-0.2,0.1-0.2,0c-0.2-0.1-0.3-0.4-0.5-0.6c-0.1,0-0.1,0-0.1,0.1c0.1,0.2,0.1,0.5,0.3,0.6l0,0.2c-0.3,0-0.7-0.3-0.9-0.5
		c0,0-0.1-0.1-0.2,0c-0.1,0.1,0,0.2,0,0.2c0.2,0.3,0.3,0.6,0.6,0.7c0.1,0,0.1,0.2,0,0.2c0,0.2-0.2,0.1-0.3,0.1
		c-0.2-0.2-0.4-0.4-0.6-0.5l-0.1,0c0,0.2,0.2,0.3,0.2,0.4c0.2,0.3,0.6,0.3,0.5,0.6c0,0.1,0,0.2-0.1,0.2c-0.5-0.1-1.2-0.3-1.6,0.2
		c0,0.1,0,0.1,0.1,0.1c0.5,0,0.9,0,1.3,0.3c0.1,0.1,0.2,0.2,0.1,0.3c-0.1,0-0.2,0-0.3,0.1c-0.1,0.1-0.3,0.2-0.5,0.3c0,0,0,0.1,0,0.1
		c0.2-0.1,0.5-0.2,0.7-0.3c0.1,0,0.2,0,0.2,0.1c0,0.1-0.1,0.1-0.2,0.2c-0.2,0.2-0.5,0.3-0.5,0.6l0.1,0c0.3,0,0.5-0.5,0.8-0.4
		c0.1,0,0.1,0.1,0.1,0.2c-0.4,0.3-1,0.5-1.1,1.1c0,0,0,0.1,0,0.1c0.1,0,0.1-0.1,0.2-0.2c0.4-0.3,0.7-0.6,1.1-0.7c0,0,0.1,0,0.1,0.1
		c0,0.2-0.4,0.4-0.4,0.6c-0.1,0.2-0.1,0.4-0.2,0.6c0,0,0.1,0.1,0.1,0c0.2-0.3,0.4-0.8,0.8-1c0,0.1,0.1,0,0.2,0.1
		c0.2,0,0.5,0.1,0.6,0.3c0,0.5-0.2,1.1,0,1.5c0.1-0.1,0-0.2,0-0.3c0-0.4,0.2-0.6,0.3-1c0-0.1,0.2-0.1,0.2-0.1
		c0.2,0.1,0.2,0.3,0.4,0.4c0.1-0.1,0-0.4,0-0.5c0.1-0.1,0.2-0.1,0.3-0.1c0,0,0.1,0,0.2,0c0.1-0.1,0-0.2,0-0.2
		c0.2-0.2,0.3-0.6,0.7-0.5l0.1,0.1c0,0.2,0,0.5-0.1,0.7c-0.1,0-0.1-0.2-0.3-0.1c-0.1,0.1,0,0.2,0,0.3c0.1,0.2,0.2,0.4,0.3,0.6
		c0,0.1,0.1,0.1,0,0.2c-0.3,0-0.4-0.3-0.5-0.4c-0.1-0.1-0.2,0-0.2,0.1c0,0.3,0.2,0.6,0.4,0.8c0.1,0,0.2,0.1,0.2,0.1
		c0,0.1-0.1,0.2,0,0.3l0.1,0.2c-0.1,0.1-0.3,0-0.5-0.1c-0.3-0.2-0.6-0.6-0.7-1c0,0-0.1-0.1-0.1,0c-0.1,0.3,0,0.5,0.2,0.7
		c0.2,0.1,0.3,0.3,0.3,0.5c-0.1,0.1-0.2,0.1-0.3,0.1c-0.3-0.2-0.3-0.6-0.3-0.9c0,0-0.1-0.1-0.1,0c-0.1,0.2-0.1,0.4-0.1,0.5
		c0,0.1,0.1,0.4-0.1,0.5c-0.2,0.1-0.4,0-0.6,0.1c-0.2-0.1-0.2-0.4-0.2-0.6c0-0.1-0.1,0-0.1,0c-0.2,0.1-0.2,0.6-0.5,0.4
		c-0.2-0.1-0.5-0.2-0.7-0.5c-0.1-0.3,0.2-0.4,0.2-0.7c0.1-0.2,0.3-0.3,0.4-0.6c-0.1-0.1-0.3,0.1-0.4,0.2c-0.2,0.3-0.4,0.6-0.5,0.9
		c0,0.1-0.1,0.1-0.2,0.1c-0.3-0.3-1-0.5-0.9-1c0.1-0.1,0.1-0.2,0.2-0.3C158.8,38.5,158.7,38.7,158.6,38.7 M172.3,46.6
		c0,0.6,0,1.2-0.1,1.8c-0.1,0.1,0,0.2,0,0.3c-0.1,0.6,0,1.3-0.1,1.9l-0.1,0c-0.2-0.3-0.7-0.4-0.7-0.7c0.3-1,0.2-2.2,0.3-3.3
		c0.1-0.9,0.1-1.9,0-2.8c0,0,0-0.1,0.1-0.1c0.3,0.1,0.4,0.4,0.7,0.5C172.3,45,172.2,45.8,172.3,46.6 M174.4,41.7
		c0.2,0.1,0.4,0.1,0.5,0.3c0.2,0.1,0.2,0.3,0.3,0.5c0,0.1,0,0.3-0.1,0.3c-0.4,0-0.7-0.2-0.9-0.4C174.1,42.2,174.3,41.9,174.4,41.7
		 M175.5,45.2c-0.1-0.1,0-0.3-0.1-0.4c-0.1-0.4-0.3-0.8-0.3-1.3c-0.1-0.3,0.2-0.4,0.4-0.5c0.1-0.3,0.1-0.6,0-0.8
		c-0.1-0.4-0.7-0.5-0.7-0.9c0-0.3-0.2-0.6-0.2-1c-0.2-0.5-0.1-1.1-0.2-1.6c-0.1-0.6-0.1-1.2-0.2-1.8c-0.1-0.7-0.2-1.4-0.4-2.1
		c-0.1-0.6-0.3-1.2-0.6-1.7c0-0.4-0.4-0.7-0.2-1.1c0.3-0.5,0.6-1,0.8-1.5c0.2-0.3,0.1-0.7,0.2-1.1c0-0.3,0.1-0.6,0-0.9
		c-0.1,0-0.1,0-0.1,0c-0.1,0.5-0.7,0.7-1.1,1c-0.5,0.2-1.2,0.1-1.9,0.2c-0.4,0-0.7,0.4-1.1,0.1c-0.2-0.1-0.4-0.2-0.7-0.3
		c-0.5,0-1,0-1.4,0c-0.7,0-1.2-0.4-1.9-0.3c-0.9,0-1.6,0.4-2.5,0.3c-0.8-0.2-1.6,0.1-2.2,0.4c-0.2,0-0.5-0.2-0.8-0.2
		c-0.7-0.3-1.6,0.2-2.1-0.3c-0.3-0.3-0.5-0.6-0.5-1c-0.1,0.1-0.2,0.2-0.2,0.3c-0.2,0.3-0.3,0.6-0.3,0.9c-0.1,0.4,0,0.9,0.1,1.3
		c0.1,0.7,0.6,1.3,0.5,2c-0.1,0.3-0.3,0.7-0.4,1c-0.3,0.3-0.2,0.8-0.3,1.3c-0.3,0.8-0.1,1.6,0,2.5c-0.3,1-0.4,2-0.5,3
		c-0.1,0.7,0,1.4-0.3,2c-0.4,0.4-0.7,0.7-0.6,1.2c0,0.3,0.2,0.5,0.3,0.7c0.1,0.5,0.1,1.1,0,1.6c0,0.4-0.4,0.6-0.5,0.9
		c-0.1,0.4,0.2,0.6,0.4,0.8c0.1,0.2,0.1,0.6,0.1,0.8c0.1,0.7,0.2,1.3,0.3,2c0.2,1,0.3,2,0.5,2.9c0.2,1.1,0.5,2.3,0.8,3.4
		c0.3,0.8,0.5,1.7,0.8,2.5c0.2,0.7,0.6,1.3,0.6,2c0,0.1,0,0.2,0.1,0.2c0,0.5-0.4,0.8-0.3,1.3c0,0,1.5,2.5,3.2,3.7
		c0.7-0.8,1.7-1.5,3-1.5c2.1,0,4,2.1,6,3.6c0.1-0.2,0.3-0.3,0.5-0.5c-0.7-0.9-3.6-4.3-6-4.7c0,0,0.2-0.5,0-0.7
		c-0.2-0.3-0.2-0.5-0.2-0.8c0-0.1-0.1-0.4,0-0.5c0.4,0.1,0.5,0.5,0.7,0.7c0,0,0.1,0,0.1,0c0,0,0.1,0,0.1-0.1c0-0.4,0.4-0.6,0.7-0.8
		c0.1,0,0.1,0,0.2,0.1c0.1,0.4,0,0.9,0.3,1.2c0.1,0.1,0,0.2-0.1,0.3c0,0.3-0.2,0.2-0.2,0.2c1.8,0.9,2.8,1.9,3.8,3.1
		c0.7-0.5,3.1-2.1,3.1-3.7c0-0.5-0.3-0.5-0.4-0.8c-0.2-0.2-0.4-0.4-0.5-0.7c-0.3-0.5-0.5-1.1-0.4-1.8c0.2-0.5,0.2-1,0.4-1.5
		c0.3-0.9,0.5-1.8,0.7-2.7c0.3-1.2,0.7-2.5,0.8-3.8c0.2-0.4,0.2-0.9,0.3-1.4c0.2-0.4,0.1-1,0.2-1.5c0.1-0.4,0-0.8,0.2-1.1
		c0.1-0.2,0-0.4,0.1-0.6c0-0.3,0.3-0.2,0.3-0.5c0.2-0.1,0.3-0.4,0.4-0.5C176.1,45.9,175.8,45.6,175.5,45.2"/>
	<path d="M158.3,30.3c0.2,0.2,0.5,0.2,0.8,0.2c0.3,0.1,0.6,0,0.8,0.2c0.1,0.1,0.3,0.2,0.3,0.5l-0.1,0c-0.6-0.3-1.3,0-1.8-0.5
		c-0.2,0-0.3-0.2-0.3-0.4c0-0.1,0-0.1,0-0.2C158.1,30.1,158.1,30.2,158.3,30.3"/>
	<path d="M173.4,30.2c0,0.1-0.1,0.3-0.3,0.4c-0.5,0.3-1.2,0.5-1.9,0.4c0,0,0-0.1,0-0.1c0.4-0.1,0.9-0.2,1.3-0.4
		C172.8,30.4,173.1,30.2,173.4,30.2L173.4,30.2z"/>
	<path d="M161.3,35.1c-0.1,0-0.8,1.1-0.1,1.7c0.9,0.8,2-0.6,1.8-0.9c-0.1,0-0.4,0.8-1.2,0.6C160.9,36.3,161.4,35.1,161.3,35.1"/>
	<path d="M168.6,36.5c0,0.3,1.1,0.8,1.7,0c0.7-1.1-0.3-1.7-0.6-1.4c-0.1,0.1,0.6,0.4,0.3,1.1C169.5,37,168.6,36.4,168.6,36.5"/>
	<path d="M312.7,105.8c0-1,0-3.5,0.3-4.3c0.1-0.2,0.5-0.3,1.2-0.4l0.3,0c0.1-0.1,0.1-0.4,0-0.5c-0.7,0-1.2,0.1-2.1,0.1
		c-0.8,0-1.5,0-2.4-0.1c-0.2,0.1-0.2,0.4,0,0.5l0.4,0c0.8,0.1,1.2,0.2,1.3,0.4c0.4,0.6,0.4,3.3,0.4,4.3v4.4c0,0.4,0,0.8-0.1,0.9h0
		c-1-1-2-2.2-3.4-3.7l-2-2.3c-0.7-0.8-3.1-3.5-3.5-4.6c-0.3,0-0.6,0.1-1,0.1c-0.4,0-1.5,0-2.3-0.1c-0.2,0.1-0.2,0.4,0,0.5l0.4,0
		c0.5,0.1,1,0.2,1.3,0.5c0.4,0.5,0.5,0.9,0.5,1.5v6c0,1,0,3.5-0.3,4.3c-0.1,0.2-0.4,0.4-0.9,0.4l-0.6,0.1c-0.1,0.1-0.1,0.4,0,0.5
		c0.7,0,1.3-0.1,2.2-0.1c0.8,0,1.5,0,2.4,0.1c0.1-0.1,0.2-0.4,0-0.5l-0.6-0.1c-0.5,0-0.9-0.2-1.1-0.4c-0.4-0.6-0.4-3.3-0.4-4.3v-4.5
		c0-0.6,0-1.1,0.1-1.3h0c0.4,0.5,1.8,2.2,2.4,2.8l4.8,5.5c1.8,2,2.4,2.8,2.6,3.1c0.2,0,0.4-0.1,0.4-0.2c-0.1-0.5-0.1-3-0.1-3.6
		V105.8z M286.4,111.2c0,2.2-0.1,2.5-1.3,2.6l-0.7,0.1c-0.1,0.1-0.1,0.5,0,0.5c1.2,0,1.9-0.1,2.8-0.1h1.9c1.8,0,3.7,0,5.5,0.1
		c0.3-0.6,0.8-2.2,0.9-2.9c-0.1-0.2-0.4-0.2-0.5-0.1c-0.5,1.1-1.1,1.8-1.5,2c-0.5,0.2-1.1,0.3-2.7,0.3c-1.8,0-2.3-0.2-2.5-0.5
		c-0.3-0.4-0.4-1.1-0.4-2.2v-2.9c0-0.5,0.1-0.6,0.7-0.6h1.2c0.8,0,1.3,0,1.6,0.1c0.4,0.1,0.6,0.4,0.6,0.8l0.2,0.8
		c0.1,0.1,0.5,0.1,0.5,0c0-0.5-0.1-1.2-0.1-2c0-0.8,0.1-1.6,0.1-2.1c-0.1-0.1-0.4-0.1-0.5,0l-0.2,0.8c-0.1,0.5-0.2,0.6-0.5,0.7
		c-0.2,0.1-0.9,0.1-1.8,0.1h-1.2c-0.6,0-0.7,0-0.7-0.6v-4.1c0-0.8,0-0.8,0.6-0.8h1.5c0.9,0,1.6,0,2,0.1c1.1,0.3,1.3,1,1.6,2
		c0.1,0.1,0.4,0.1,0.5,0c-0.1-0.9-0.2-2.4-0.3-2.8c-0.2,0.1-1.5,0.1-2.8,0.1h-3.9c-0.8,0-1.6,0-2.4-0.1c-0.1,0.1-0.2,0.4,0,0.5
		l0.3,0c1.2,0.1,1.3,0.5,1.3,2.6V111.2z M278.6,111c0-1.1,0-1.6,0.9-1.7l0.3,0c0.1-0.1,0.1-0.4,0-0.5c-0.7,0-1.4,0.1-2.2,0.1
		c-1.2,0-2.4,0-3-0.1c-0.1,0.1-0.2,0.4,0,0.5l0.9,0.1c1.3,0.1,1.3,0.3,1.3,2v0.8c0,0.7-0.1,1-0.2,1.2c-0.2,0.4-1,0.6-2.3,0.6
		c-4.2,0-6.2-3.1-6.2-7.1c0-3.1,1.8-6,5.8-6c2.1,0,3.7,0.7,4.2,2.9c0.1,0.1,0.5,0.1,0.6-0.1c-0.2-1.2-0.3-2.3-0.3-3
		c-0.2,0-0.9-0.1-1.3-0.2c-0.4-0.1-1.4-0.3-2.6-0.3c-3.1,0-5.2,1-6.6,2.4c-1.3,1.4-1.9,3.1-1.9,4.9c0,1.8,0.7,3.5,1.9,4.7
		c1.6,1.6,3.8,2.3,6.3,2.3c1.1,0,2.6-0.2,3.7-0.5c0.4-0.1,0.8-0.2,1-0.2c0.1-0.1,0.1-0.2,0-0.2c-0.4-0.1-0.5-0.6-0.5-1.5V111z
		 M253.8,101.9c0-0.6,0.1-0.7,1.3-0.7c2.3,0,3.3,1.6,3.3,3.2c0,1.4-0.5,2.1-1,2.6c-0.6,0.5-1.4,0.5-2.1,0.5c-1.1,0-1.4,0-1.4-0.1
		c-0.1-0.1-0.1-0.3-0.1-0.7V101.9z M252.1,111.2c0,2.2,0,2.4-1.2,2.6l-0.5,0.1c-0.1,0.1-0.1,0.5,0,0.5c1,0,1.7-0.1,2.6-0.1
		c0.8,0,1.5,0,2.5,0.1c0.1-0.1,0.2-0.4,0-0.5l-0.4-0.1c-1.2-0.2-1.2-0.4-1.2-2.6v-2.6c0-0.4,0-0.5,1-0.5c0.8,0,1.2,0.2,1.5,0.7
		c0.6,0.9,1.5,2.4,2,3.1c1.5,2.1,2.5,2.6,4.3,2.6c0.4,0,0.7,0,0.9-0.1c0.1-0.1,0.1-0.2,0-0.3c-0.6,0-1.1-0.3-1.4-0.6
		c-1.4-1.2-2.5-2.8-4.2-5.5c-0.1-0.2-0.2-0.4-0.1-0.5c1-0.4,2.6-1.5,2.6-3.5c0-1.4-0.7-2.4-1.7-2.9c-1-0.5-2.2-0.6-3.5-0.6
		c-2,0-3.5,0.1-4.6,0.2c-0.2,0.1-0.2,0.4,0,0.5l0.7,0.1c0.8,0.1,0.9,0.5,0.9,2.4V111.2z M236.9,111.2c0,2.2-0.1,2.5-1.3,2.6
		l-0.7,0.1c-0.1,0.1-0.1,0.5,0,0.5c1.2,0,1.9-0.1,2.8-0.1h1.9c1.8,0,3.7,0,5.5,0.1c0.3-0.6,0.8-2.2,0.9-2.9
		c-0.1-0.2-0.4-0.2-0.5-0.1c-0.5,1.1-1.1,1.8-1.5,2c-0.5,0.2-1.1,0.3-2.6,0.3c-1.8,0-2.3-0.2-2.5-0.5c-0.3-0.4-0.4-1.1-0.4-2.2v-2.9
		c0-0.5,0.1-0.6,0.7-0.6h1.2c0.8,0,1.3,0,1.6,0.1c0.4,0.1,0.6,0.4,0.6,0.8l0.2,0.8c0.1,0.1,0.5,0.1,0.5,0c0-0.5-0.1-1.2-0.1-2
		c0-0.8,0.1-1.6,0.1-2.1c-0.1-0.1-0.4-0.1-0.5,0l-0.2,0.8c-0.1,0.5-0.2,0.6-0.5,0.7c-0.2,0.1-0.9,0.1-1.8,0.1h-1.2
		c-0.6,0-0.7,0-0.7-0.6v-4.1c0-0.8,0-0.8,0.6-0.8h1.5c0.9,0,1.6,0,2,0.1c1.1,0.3,1.3,1,1.6,2c0.1,0.1,0.4,0.1,0.5,0
		c-0.1-0.9-0.2-2.4-0.3-2.8c-0.2,0.1-1.5,0.1-2.8,0.1h-3.9c-0.8,0-1.6,0-2.4-0.1c-0.1,0.1-0.2,0.4,0,0.5l0.3,0
		c1.2,0.1,1.3,0.5,1.3,2.6V111.2z M223,101.9c0-0.4,0.1-0.5,0.3-0.5c0.2-0.1,0.5-0.1,1-0.1c1.6,0,3.1,0.8,3.1,2.8
		c0,1.9-1.1,2.6-3.3,2.6c-1.1,0-1.1,0-1.1-0.6V101.9z M223,107.8c0-0.4,0.1-0.5,1.2-0.5c3.3,0,4.1,1.9,4.1,3.5
		c0,2.1-1.4,2.9-3.2,2.9c-0.6,0-1.2-0.1-1.6-0.6c-0.4-0.5-0.4-1.5-0.4-2.3V107.8z M221.3,111.2c0,2.2,0,2.4-1.1,2.6l-0.4,0.1
		c-0.1,0.1-0.1,0.5,0,0.5c0.8,0,1.5-0.1,2.4-0.1c0.9,0,1.9,0.1,2.5,0.1c3.7,0,5.5-1.6,5.5-4c0-2.2-1.7-3.2-2.8-3.5
		c-0.2,0-0.4-0.1-0.4-0.3c1.2-0.6,2.1-1.3,2.1-2.8c0-1.3-0.7-2.2-1.6-2.6c-0.9-0.5-2.2-0.6-3.5-0.6c-1.9,0-3.3,0.1-4.5,0.2
		c-0.2,0.1-0.2,0.4,0,0.5l0.7,0.1c0.9,0.1,1,0.5,1,2V111.2z M200.5,102.1c0-0.8,0-0.8,0.6-0.8h1.3c0.9,0,1.6,0,2,0.1
		c1,0.3,1.3,1,1.4,2c0.1,0.1,0.4,0.1,0.5-0.1c0-0.8-0.1-1.8-0.1-2.7c-0.3,0.1-1.5,0.1-2.8,0.1h-3.8c-0.8,0-1.5,0-2.4-0.1
		c-0.1,0.1-0.2,0.4,0,0.5l0.3,0c1.2,0.1,1.2,0.4,1.2,2.6v7.4c0,2.2,0,2.4-1.2,2.6l-0.5,0.1c-0.1,0.1-0.1,0.5,0,0.5
		c1,0,1.7-0.1,2.6-0.1c0.8,0,1.5,0,2.8,0.1c0.1-0.1,0.2-0.4,0-0.5l-0.7-0.1c-1.2-0.1-1.3-0.4-1.3-2.6v-2.9c0-0.5,0.1-0.6,0.7-0.6
		h1.4c0.8,0,1.3,0,1.6,0.1c0.4,0.1,0.6,0.4,0.7,0.8l0.2,0.8c0.1,0.1,0.5,0.1,0.5,0c0-0.5-0.1-1.3-0.1-2c0-0.8,0.1-1.6,0.1-2.1
		c-0.1-0.1-0.4-0.1-0.5,0l-0.2,0.8c-0.1,0.5-0.3,0.6-0.5,0.7c-0.2,0.1-0.9,0.1-1.8,0.1h-1.4c-0.6,0-0.7,0-0.7-0.6V102.1z M185.2,114
		c-4.1,0-5.6-4-5.6-7c0-4.5,2.8-6,4.9-6c4,0,5.5,3.7,5.5,7.1C190,112.1,187.6,114,185.2,114 M184.9,114.6c4,0,7.2-3,7.2-7.2
		c0-3.6-2.4-7.1-7.2-7.1c-4.3,0-7.4,3.2-7.4,7.3C177.5,111.3,180.3,114.6,184.9,114.6 M160.3,110c0-1.6,0.1-1.8,1-3.4l1.3-2.3
		c1-1.8,1.7-3.1,2.7-3.3l0.6-0.1c0.1-0.1,0.1-0.4,0-0.5c-0.7,0-1.3,0.1-1.9,0.1c-0.6,0-1.2,0-2-0.1c-0.2,0.1-0.2,0.4,0,0.5l0.4,0
		c0.5,0.1,0.9,0.2,0.9,0.3c0,0.2-0.8,1.7-1.3,2.7c-0.6,1.2-1.3,2.4-1.9,3.5c-0.8-1.4-1.6-3.1-2.3-4.6c-0.1-0.2-0.6-1.4-0.6-1.6
		c0-0.2,0.1-0.3,0.9-0.4l0.3,0c0.1-0.1,0.1-0.5-0.1-0.5c-0.5,0-1.3,0.1-2.2,0.1c-1,0-1.7,0-2.4-0.1c-0.1,0.1-0.2,0.4,0,0.5l0.6,0.1
		c0.6,0.1,0.9,0.2,1.6,1.6l2.4,4.8c0.6,1.2,0.7,1.4,0.7,2.6v1.1c0,2.2,0,2.5-1.2,2.6l-0.6,0.1c-0.1,0.1-0.1,0.5,0,0.5
		c1.1,0,1.8-0.1,2.7-0.1c0.8,0,1.5,0,2.8,0.1c0.1-0.1,0.2-0.4,0-0.5l-0.8-0.1c-1.1-0.1-1.2-0.4-1.2-2.6V110z M143.9,102
		c0-0.7,0-0.7,0.6-0.7h1.5c1.1,0,1.9,0.2,2.4,0.5c0.3,0.2,0.5,1,0.5,1.5c0.1,0.1,0.5,0.1,0.5,0c-0.1-0.6,0.1-2.3,0.3-3.1
		c0-0.1-0.3-0.1-0.4-0.1c-0.3,0.5-0.5,0.6-1.6,0.6h-8.4c-1,0-1.6,0-1.8-0.6c-0.1-0.1-0.3,0-0.4,0c-0.1,0.8-0.5,2.2-0.8,3.1
		c0.1,0.2,0.4,0.3,0.5,0.1c0.2-0.5,0.4-1,0.9-1.4c0.5-0.5,1.7-0.5,2.5-0.5h1.1c0.6,0,0.6,0,0.6,0.7v9.2c0,2.2-0.1,2.5-1.3,2.6
		l-0.7,0.1c-0.2,0.1-0.1,0.5,0,0.5c1.3,0,2-0.1,2.9-0.1c0.8,0,1.5,0,2.7,0.1c0.1-0.1,0.2-0.4,0-0.5l-0.7-0.1
		c-1.2-0.1-1.2-0.4-1.2-2.6V102z M128.8,111.1c0,2.2,0,2.5-1.3,2.6l-0.5,0.1c-0.1,0.1-0.1,0.5,0,0.5c1,0,1.7-0.1,2.6-0.1
		c0.8,0,1.5,0,2.6,0.1c0.1-0.1,0.2-0.4,0-0.5l-0.5-0.1c-1.2-0.1-1.3-0.4-1.3-2.6v-7.4c0-2.2,0-2.5,1.3-2.6l0.5,0
		c0.1-0.1,0.1-0.5,0-0.5c-1,0-1.7,0.1-2.6,0.1c-0.9,0-1.6,0-2.6-0.1c-0.1,0.1-0.2,0.4,0,0.5l0.5,0c1.2,0.1,1.3,0.5,1.3,2.6V111.1z
		 M122,110.8c0-2-1.3-3.2-2.6-4l-1.7-1c-0.8-0.5-1.8-1.3-1.8-2.5c0-1,0.4-2.3,2.5-2.3c2,0,2.5,1.3,2.8,2.3c0.1,0.1,0.4,0.1,0.5-0.1
		c0-0.9-0.2-2-0.4-2.5c-0.2,0-0.5,0-0.7-0.1c-0.5-0.1-1.3-0.3-1.9-0.3c-2.7,0-4.2,1.6-4.2,3.6c0,1.7,1.2,2.9,2.2,3.6l2,1.3
		c1.5,1,1.7,2,1.7,2.9c0,1.2-0.8,2.4-2.6,2.4c-2.4,0-3.2-2-3.6-3.1c-0.1-0.1-0.4-0.1-0.5,0.1c0,1,0.3,2.4,0.6,2.9
		c0.4,0.2,1.5,0.8,3.2,0.8C120.3,114.6,122,113.1,122,110.8 M100.9,101.9c0-0.6,0.1-0.7,1.3-0.7c2.3,0,3.3,1.6,3.3,3.2
		c0,1.4-0.5,2.1-1,2.6c-0.6,0.5-1.4,0.5-2.1,0.5c-1.1,0-1.4,0-1.4-0.1c-0.1-0.1-0.1-0.3-0.1-0.7V101.9z M99.2,111.2
		c0,2.2,0,2.4-1.2,2.6l-0.5,0.1c-0.1,0.1-0.1,0.5,0,0.5c1,0,1.7-0.1,2.6-0.1c0.8,0,1.5,0,2.5,0.1c0.1-0.1,0.2-0.4,0-0.5l-0.4-0.1
		c-1.2-0.2-1.2-0.4-1.2-2.6v-2.6c0-0.4,0-0.5,1-0.5c0.8,0,1.2,0.2,1.5,0.7c0.6,0.9,1.5,2.4,2,3.1c1.5,2.1,2.5,2.6,4.3,2.6
		c0.4,0,0.7,0,0.9-0.1c0.1-0.1,0.1-0.2,0-0.3c-0.6,0-1.1-0.3-1.4-0.6c-1.4-1.2-2.5-2.8-4.2-5.5c-0.1-0.2-0.2-0.4-0.1-0.5
		c1-0.4,2.6-1.5,2.6-3.5c0-1.4-0.7-2.4-1.7-2.9c-1-0.5-2.2-0.6-3.5-0.6c-2,0-3.5,0.1-4.6,0.2c-0.2,0.1-0.2,0.4,0,0.5l0.7,0.1
		c0.8,0.1,0.9,0.5,0.9,2.4V111.2z M84,111.2c0,2.2-0.1,2.5-1.3,2.6l-0.7,0.1c-0.1,0.1-0.1,0.5,0,0.5c1.2,0,1.9-0.1,2.8-0.1h1.9
		c1.8,0,3.7,0,5.5,0.1c0.3-0.6,0.8-2.2,0.9-2.9c-0.1-0.2-0.4-0.2-0.5-0.1c-0.5,1.1-1.1,1.8-1.5,2c-0.5,0.2-1.1,0.3-2.6,0.3
		c-1.8,0-2.3-0.2-2.5-0.5c-0.3-0.4-0.4-1.1-0.4-2.2v-2.9c0-0.5,0.1-0.6,0.7-0.6h1.2c0.8,0,1.3,0,1.6,0.1c0.4,0.1,0.6,0.4,0.6,0.8
		l0.2,0.8c0.1,0.1,0.5,0.1,0.5,0c0-0.5-0.1-1.2-0.1-2c0-0.8,0.1-1.6,0.1-2.1c-0.1-0.1-0.4-0.1-0.5,0l-0.2,0.8
		c-0.1,0.5-0.2,0.6-0.5,0.7c-0.2,0.1-0.9,0.1-1.8,0.1h-1.2c-0.6,0-0.7,0-0.7-0.6v-4.1c0-0.8,0-0.8,0.6-0.8h1.5c0.9,0,1.6,0,2,0.1
		c1.1,0.3,1.3,1,1.6,2c0.1,0.1,0.4,0.1,0.5,0c-0.1-0.9-0.2-2.4-0.3-2.8c-0.2,0.1-1.5,0.1-2.8,0.1h-3.9c-0.8,0-1.6,0-2.4-0.1
		c-0.1,0.1-0.2,0.4,0,0.5l0.3,0c1.2,0.1,1.3,0.5,1.3,2.6V111.2z M69.9,111.8c0.4,0.9,0.7,1.9,1,2.8c0.1,0,0.2,0.1,0.3,0.1
		c0.1,0,0.2,0,0.2-0.1c0.4-1.1,1.3-3.5,2.2-5.4l1.1-2.5c0.9-2.1,1.7-3.8,2.3-4.8c0.3-0.4,0.6-0.7,1.1-0.7l0.6,0
		c0.1-0.1,0.1-0.4,0-0.5c-0.7,0-1.3,0.1-2,0.1c-0.8,0-1.6,0-2.2-0.1c-0.1,0.1-0.2,0.4,0,0.5l0.4,0c0.7,0.1,0.9,0.2,0.9,0.4
		c0,0.1,0,0.4-0.2,0.8c-0.4,0.9-1.3,3.2-1.9,4.6c-0.5,1.1-1.3,3.2-2,4.6c-1-2.4-2-4.7-2.9-7.1c-0.6-1.6-1-2.7-1-2.9
		c0-0.2,0.2-0.3,1-0.4l0.3,0c0.1-0.1,0.1-0.4,0-0.5c-0.9,0-1.6,0.1-2.5,0.1c-0.9,0-1.6,0-2.2-0.1c-0.2,0.1-0.2,0.4,0,0.5l0.4,0
		c0.9,0.1,1.2,0.5,1.7,1.7L69.9,111.8z M56.8,111.1c0,2.2,0,2.5-1.3,2.6l-0.5,0.1c-0.1,0.1-0.1,0.5,0,0.5c1,0,1.7-0.1,2.6-0.1
		c0.8,0,1.5,0,2.6,0.1c0.1-0.1,0.2-0.4,0-0.5l-0.5-0.1c-1.2-0.1-1.3-0.4-1.3-2.6v-7.4c0-2.2,0-2.5,1.3-2.6l0.5,0
		c0.1-0.1,0.1-0.5,0-0.5c-1,0-1.7,0.1-2.6,0.1c-0.9,0-1.6,0-2.6-0.1c-0.1,0.1-0.2,0.4,0,0.5l0.5,0c1.2,0.1,1.3,0.5,1.3,2.6V111.1z
		 M48.6,105.8c0-1,0-3.5,0.3-4.3c0.1-0.2,0.5-0.3,1.2-0.4l0.3,0c0.1-0.1,0.1-0.4,0-0.5c-0.7,0-1.2,0.1-2.1,0.1c-0.8,0-1.5,0-2.4-0.1
		c-0.2,0.1-0.2,0.4,0,0.5l0.4,0c0.8,0.1,1.2,0.2,1.3,0.4c0.4,0.6,0.4,3.3,0.4,4.3v4.4c0,0.4,0,0.8-0.1,0.9h0c-1-1-2-2.2-3.4-3.7
		l-2-2.3c-0.7-0.8-3.1-3.5-3.5-4.6c-0.3,0-0.6,0.1-1,0.1c-0.4,0-1.5,0-2.3-0.1c-0.2,0.1-0.2,0.4,0,0.5l0.4,0c0.5,0.1,1,0.2,1.3,0.5
		c0.4,0.5,0.5,0.9,0.5,1.5v6c0,1,0,3.5-0.3,4.3c-0.1,0.2-0.4,0.4-0.9,0.4l-0.6,0.1c-0.1,0.1-0.1,0.4,0,0.5c0.7,0,1.3-0.1,2.2-0.1
		c0.8,0,1.5,0,2.4,0.1c0.1-0.1,0.2-0.4,0-0.5l-0.6-0.1c-0.5,0-0.9-0.2-1.1-0.4c-0.4-0.6-0.4-3.3-0.4-4.3v-4.5c0-0.6,0-1.1,0.1-1.3h0
		c0.4,0.5,1.8,2.2,2.4,2.8l4.8,5.5c1.8,2,2.4,2.8,2.6,3.1c0.2,0,0.4-0.1,0.4-0.2c-0.1-0.5-0.1-3-0.1-3.6V105.8z M28.8,108.2
		c0,3.1-1.1,5.5-4.1,5.5c-3.2,0-4.2-2.2-4.2-5.5v-4.5c0-2.2,0-2.5,1.2-2.6l0.5,0c0.1-0.1,0.1-0.4,0-0.5c-1,0-1.7,0.1-2.5,0.1
		c-0.8,0-1.5,0-2.6-0.1c-0.1,0.1-0.2,0.4,0,0.5l0.5,0c1.2,0.1,1.2,0.5,1.2,2.6v4.9c0,2.5,0.5,4,1.6,4.9c1,0.9,2.4,1.1,3.9,1.1
		c1.5,0,3.1-0.5,4-1.5c1.2-1.2,1.4-3.1,1.4-4.9v-2.3c0-1.2,0-3.5,0.3-4.2c0.1-0.3,0.5-0.5,1-0.5l0.5,0c0.1-0.1,0.1-0.4,0-0.5
		c-0.7,0-1.3,0.1-2.2,0.1c-0.8,0-1.6,0-2.4-0.1c-0.1,0.1-0.2,0.4,0,0.5l0.5,0c0.5,0,0.9,0.2,1,0.4c0.4,0.6,0.4,3,0.4,4.3V108.2z"/>
</g>
<g>
	<path d="M265.6,124.3c-0.8,0-1.6,1.1-1.9,2.2c0,0.2,0.1,0.3,0.3,0.2c0.4-0.7,0.6-1.3,1-1.3c0.3,0,0.6,0.7,0.6,2.6
		c0,1.4-0.1,3-0.3,3.9c-0.3,1.1-1.1,2.2-1.5,2.6c-0.4,0.3-0.7,0.5-0.9,0.5c-0.3,0-0.4-0.2-0.5-0.3c-0.1-0.2-0.3-0.3-0.5-0.3
		c-0.4,0-0.7,0.3-0.7,0.7c0,0.4,0.3,0.8,0.9,0.8c0.5,0,1.4-0.3,2.7-1.7c1.4-1.6,2-2.7,2.8-4.1c1.5-2.6,2-4.8,2-5.2
		c0-0.2-0.1-0.3-0.2-0.3c-0.1-0.1-0.4-0.2-0.5-0.2c-0.1,0-0.4,0-0.4,0.5c0,0.4-0.3,2.2-0.6,3.2c-0.4,1-0.9,2.1-1.4,2.9h-0.1
		c0.2-1.4,0.3-2.7,0.3-3.7C266.6,126,266.5,124.3,265.6,124.3 M259,124.3c-0.8,0-1.5,0.7-2,1.6c0,0.2,0.1,0.3,0.3,0.3
		c0.3-0.4,0.8-0.9,1.2-0.9c0.2,0,0.2,0.2,0.1,0.4c-0.5,1.7-1.5,4.7-1.8,5.4c-0.1,0.4,0.4,0.4,0.6,0.4c0.1,0,0.2-0.1,0.3-0.2
		c0.9-2,1.9-4,2.9-5.4c0.3-0.3,0.4-0.5,0.6-0.5c0.2,0,0.3,0.2,0.4,0.7c0.1,0.4,0.3,0.3,0.5,0.1c0.2-0.3,0.4-0.8,0.4-1
		c0-0.3-0.1-0.8-0.7-0.8c-0.4,0-0.9,0.4-1.2,0.9c-0.4,0.6-1.3,1.9-1.8,2.9h-0.1l0.7-2.1C259.5,125.5,259.8,124.3,259,124.3
		 M252.2,125.2c0.4,0,0.7,0.3,0.9,0.6c-0.3,1-1,2.5-2.3,3.7c-1,0.9-1.5,1.1-1.7,1.1c-0.2,0-0.3-0.1-0.3-0.3c0-1.2,1-3.4,2.1-4.4
		C251.5,125.4,251.8,125.2,252.2,125.2 M253.5,125c-0.1-0.2-0.3-0.3-0.3-0.4c-0.1-0.1-0.2-0.1-0.4-0.1c-0.4,0-0.9,0.1-1.5,0.5
		c-0.7,0.4-1.4,1.1-2.3,2.2c-1.1,1.6-1.5,2.9-1.5,3.3c0,0.5,0.3,1,0.7,1c0.8,0,2.5-1.2,3.8-2.7l0,0l-0.6,1.5
		c-0.1,0.4-0.2,0.5-0.2,0.7c0,0.1,0.1,0.5,0.5,0.5c0.9,0,2.1-1,2.9-1.9c0-0.1-0.1-0.2-0.2-0.2c-1,0.9-1.5,1.1-1.8,1.1
		c-0.1,0-0.2-0.1-0.1-0.4c0.5-1.6,2-5.3,2.3-5.9c-0.1-0.2-0.5-0.4-0.8-0.3L253.5,125z M244,124.3c-0.8,0-1.5,0.7-2,1.6
		c0,0.2,0.1,0.3,0.3,0.3c0.3-0.4,0.8-0.9,1.2-0.9c0.2,0,0.2,0.2,0.1,0.4c-0.5,1.7-1.5,4.7-1.8,5.4c-0.1,0.4,0.4,0.4,0.6,0.4
		c0.1,0,0.2-0.1,0.3-0.2c0.9-2,1.9-4,2.9-5.4c0.3-0.3,0.4-0.5,0.6-0.5c0.2,0,0.3,0.2,0.4,0.7c0.1,0.4,0.3,0.3,0.5,0.1
		c0.2-0.3,0.4-0.8,0.4-1c0-0.3-0.1-0.8-0.7-0.8c-0.4,0-0.9,0.4-1.2,0.9c-0.4,0.6-1.3,1.9-1.8,2.9h-0.1l0.7-2.1
		C244.5,125.5,244.8,124.3,244,124.3 M238,124.9c0.3,0,0.6,0.2,0.6,0.6c0,1-1.3,3.1-2.3,4.3c-0.7,0.8-1.4,1.1-1.6,1.1
		c-0.3,0-0.6-0.2-0.6-0.9c0-0.8,0.5-2.2,1.6-3.4C236.7,125.5,237.5,124.9,238,124.9 M236.8,121.5c0.3-0.7,0.5-1.3,0.9-2.3l-0.1-0.1
		c-0.8,0-1.7,0.2-2,0.3c-0.1,0.1-0.1,0.2-0.1,0.2l0.4,0.3c0.2,0.2,0.2,0.5-0.2,1.4l-2,5.2c-0.5,1.3-0.9,2.6-0.9,3.4
		c0,1,0.4,1.6,1.4,1.6c0.6,0,1.9-0.3,3.3-1.7c1.4-1.3,2.2-2.8,2.2-4c0-0.9-0.5-1.5-1.5-1.5c-1.3,0-2.4,1.2-3.6,3h0L236.8,121.5z
		 M230.4,120.8c-0.7,0-0.9,0.7-0.9,1.1c0,0.3,0.2,0.6,0.6,0.6c0.5,0,0.9-0.5,0.9-1.1C231,121.1,230.8,120.8,230.4,120.8
		 M226.8,130.9c-0.1,0.2,0,0.3,0.1,0.5c0.1,0.1,0.2,0.2,0.3,0.2c1.2,0,2.9-1.5,3.2-2c0-0.2-0.1-0.3-0.3-0.3
		c-0.6,0.7-1.5,1.3-1.8,1.3c-0.1,0-0.1-0.2-0.1-0.4l2-4.8c0.2-0.5,0.2-0.6,0.1-0.8c-0.1-0.1-0.2-0.2-0.3-0.2c-0.6,0-1.9,0.6-2.8,1.7
		c0,0.1,0.1,0.3,0.2,0.3c0.9-0.7,1.3-0.9,1.4-0.9c0.1,0,0.1,0.1,0,0.3L226.8,130.9z M221.3,122.5c0.5-1.7,0.6-1.9,1.6-2l0.5-0.1
		c0.2-0.1,0.1-0.4,0-0.4c-0.9,0-1.4,0-2.1,0c-0.7,0-1.3,0-1.9,0c-0.2,0.1-0.2,0.3-0.1,0.4l0.4,0.1c0.9,0.2,0.9,0.4,0.4,2l-2,6.3
		c-0.5,1.7-0.7,1.9-1.5,2l-0.4,0.1c-0.1,0.1-0.1,0.3,0,0.4c0.5,0,1.1,0,1.8,0h2c0.6,0,1.3,0,1.9,0c0.7,0,1.4,0,2,0
		c0.3-0.5,0.9-1.7,1.1-2.2c0-0.1-0.2-0.2-0.4-0.1c-1,1.7-1.8,1.8-3.7,1.8c-2.1,0-2-0.4-1.4-2.2L221.3,122.5z M205,125
		c0.2-0.4,0-0.7-0.4-0.7c-0.8,0-1.9,0.7-2.5,1.6c0,0.1,0.1,0.3,0.2,0.3c0.6-0.5,1.2-0.9,1.6-0.9c0.1,0,0.1,0.2,0.1,0.4
		c-0.1,0.2-1.9,5.1-2,5.4c-0.2,0.4,0.3,0.4,0.5,0.4c0.2,0,0.2-0.1,0.3-0.2c1-1.9,1.7-3.2,2.6-4.3c0.9-1.2,1.9-2,2.4-2
		c0.3,0,0.3,0.2,0.3,0.4c0,0.3-0.2,0.9-0.4,1.2c-0.4,0.8-1,2.5-1.4,3.4c-0.4,0.9-0.4,1-0.4,1.1c0,0.2,0.3,0.4,0.4,0.4
		c0.9,0,2.3-0.8,2.9-1.9c0-0.1,0-0.3-0.3-0.2c-0.5,0.6-1.3,1.2-1.6,1.2c-0.1,0-0.1-0.2,0-0.3c0-0.1,1.3-2.9,1.6-3.8
		c0.1-0.4,0.3-0.9,0.3-1.2c0-0.6-0.3-0.9-1-0.9c-1.3,0-3,1.9-4.2,3.7l0,0L205,125z M198.8,124.8c0.3,0,0.4,0.2,0.4,0.4
		c0,0.2-0.1,0.7-0.7,1.2c-0.6,0.6-1.2,0.9-2.3,1.3c0.2-0.5,0.6-1.3,1.3-2C198.2,125,198.6,124.8,198.8,124.8 M199.2,124.3
		c-0.5,0-1.2,0.1-2,0.8c-1.9,1.4-2.5,3.5-2.5,4.6c0,0.8,0.4,1.8,1.4,1.8c0.7,0,1.7-0.3,2.7-1.5c0-0.2-0.1-0.3-0.2-0.3
		c-0.7,0.6-1.2,1-1.8,1c-0.5,0-0.8-0.4-0.8-1c0-0.7,0.1-1.2,0.2-1.5c2.5-0.7,4.1-1.5,4.1-2.8C200.3,124.9,199.9,124.3,199.2,124.3
		 M191,124.8c0.3,0,0.5,0.2,0.5,0.6c0,0.5-0.6,2.1-1.6,3.2c-0.5,0.6-0.9,0.7-1.1,0.7c-0.3,0-0.5-0.2-0.5-0.6c0-0.9,0.9-2.4,1.5-3.1
		C190.3,124.9,190.7,124.8,191,124.8 M188.8,135.3c-1.2,0-2.3-0.5-2.3-1.3c0-0.4,0.2-0.8,0.6-1.1c0.5-0.4,1.2-0.7,1.6-0.6
		c0.3,0,0.9,0.4,1.6,0.9c0.5,0.4,0.7,0.8,0.7,1C191.1,134.9,189.6,135.3,188.8,135.3 M191.2,124.3c-0.9,0-1.7,0.3-2.5,1
		c-0.9,0.7-1.4,1.9-1.4,2.9c0,1.1,0.9,1.4,1.2,1.5c-0.2,0.3-0.8,1-0.8,1.3c0,0.2,0.1,0.5,0.5,0.8c-0.9,0.3-2.9,1.1-2.9,2.4
		c0,1.1,1.4,1.6,2.7,1.6c2.8,0,4.2-1.1,4.2-2c0-0.5-0.3-1.1-1.3-1.7c-0.6-0.4-1.3-0.7-1.7-1c-0.4-0.3-0.6-0.6-0.6-0.8
		c0-0.3,0.2-0.5,0.4-0.6c0.4-0.1,1-0.3,1.2-0.4c1.2-0.7,2.2-2,2.2-3.4c0-0.2-0.1-0.5-0.1-0.6c0-0.1,0.1-0.1,0.2-0.1
		c0.1,0,0.5,0.1,0.6,0.1c0.2,0,0.4,0.1,0.6,0.1c0.2,0,0.4-0.1,0.4-0.5c0-0.3-0.1-0.4-0.4-0.4c-0.1,0-0.4,0-0.8,0.1
		c-0.3,0.1-0.7,0.1-0.8,0.1c-0.1,0-0.2-0.1-0.4-0.2C191.5,124.4,191.3,124.3,191.2,124.3 M182.6,124.3c-0.8,0-1.5,0.7-2,1.6
		c0,0.2,0.1,0.3,0.3,0.3c0.3-0.4,0.8-0.9,1.2-0.9c0.2,0,0.2,0.2,0.1,0.4c-0.5,1.7-1.5,4.7-1.8,5.4c-0.1,0.4,0.4,0.4,0.6,0.4
		c0.1,0,0.2-0.1,0.3-0.2c0.9-2,1.9-4,2.9-5.4c0.3-0.3,0.4-0.5,0.6-0.5c0.2,0,0.3,0.2,0.4,0.7c0.1,0.4,0.3,0.3,0.5,0.1
		c0.2-0.3,0.4-0.8,0.4-1c0-0.3-0.1-0.8-0.7-0.8c-0.4,0-0.9,0.4-1.2,0.9c-0.4,0.6-1.3,1.9-1.8,2.9h-0.1l0.7-2.1
		C183.2,125.5,183.5,124.3,182.6,124.3 M177.4,124.8c0.3,0,0.4,0.2,0.4,0.4c0,0.2-0.1,0.7-0.7,1.2c-0.6,0.6-1.2,0.9-2.3,1.3
		c0.2-0.5,0.6-1.3,1.3-2C176.7,125,177.2,124.8,177.4,124.8 M177.8,124.3c-0.5,0-1.2,0.1-2,0.8c-1.9,1.4-2.5,3.5-2.5,4.6
		c0,0.8,0.4,1.8,1.4,1.8c0.7,0,1.7-0.3,2.7-1.5c0-0.2-0.1-0.3-0.2-0.3c-0.8,0.6-1.2,1-1.8,1c-0.5,0-0.8-0.4-0.8-1
		c0-0.7,0.1-1.2,0.2-1.5c2.5-0.7,4.1-1.5,4.1-2.8C178.8,124.9,178.4,124.3,177.8,124.3 M167.5,121c0.2-0.6,0.2-0.5,0.8-0.5
		c1.4,0,2.1,0.7,2.1,1.7c0,2.1-2.2,2.7-3.4,2.7c-0.7,0-0.8-0.1-0.6-0.5L167.5,121z M166,126c0.2-0.6,0.2-0.6,1.1-0.6
		c1.3,0,2.5,0.7,2.5,2.1c0,2.3-1.8,3.2-3.2,3.2c-1.2,0-1.7-0.4-1.4-1.5L166,126z M163.8,128.8c-0.5,1.7-0.7,1.9-1.5,2l-0.3,0.1
		c-0.1,0.1-0.1,0.3,0,0.4c0.5,0,1.1,0,1.8,0c0.7,0,1.3,0,2.3,0c2.1,0,3.4-0.6,4.1-1.3c0.7-0.7,0.9-1.6,0.9-2.2
		c0-1.2-0.8-2.2-1.8-2.5c-0.2-0.1-0.3-0.2,0-0.2c0.9-0.1,2.7-0.9,2.7-2.6c0-1.1-0.6-1.8-1.4-2.1c-0.8-0.3-1.9-0.4-2.8-0.4
		c-1.3,0-2.2,0.1-2.9,0.2c-0.1,0.1-0.1,0.3,0,0.4l0.6,0c0.8,0,0.9,0.2,0.5,1.5L163.8,128.8z M156.7,125.2c0.3-0.2,0.3-0.4,0.2-0.6
		h-2.1c0.5-1.6,0.8-2.8,1.6-4c0.4-0.6,0.9-0.9,1.2-0.9c0.4,0,0.9,0.3,1,1.2c0,0.1,0.1,0.3,0.2,0.3c0.3,0,0.7-0.5,0.7-1
		c0-0.7-0.7-1.1-1.3-1.1c-1,0-1.9,0.4-2.7,1.4c-1,1.2-1.5,2.5-1.9,4.1h-1.5c-0.2,0.2-0.3,0.5-0.1,0.6h1.4c-0.8,2.8-1.4,5.7-2.2,8.4
		c-0.4,1.3-0.8,1.4-1.1,1.4c-0.4,0-0.9-0.3-1.3-0.7c-0.1-0.1-0.3-0.2-0.4-0.1c-0.2,0.1-0.4,0.4-0.4,0.8c0,0.3,0.3,0.8,1.2,0.8
		c1,0,1.8-0.7,2-0.9c0.3-0.3,0.9-1.2,1.3-2.7c0.5-1.9,1-3.5,1.5-5.4c0.2-0.8,0.3-1.3,0.4-1.6H156.7z M147.6,124.8
		c0.6,0,0.7,0.6,0.7,1.1c0,0.9-0.8,3.2-1.6,4.2c-0.5,0.7-1,0.9-1.3,0.9c-0.5,0-0.7-0.5-0.7-1.1c0.1-0.9,0.7-2.9,1.7-4.3
		C146.8,125,147.3,124.8,147.6,124.8 M147.7,124.3c-0.7,0-1.5,0.3-2.4,1.1c-1.2,1.1-1.8,2.8-1.9,3.8c-0.1,1.5,0.6,2.3,1.7,2.3
		c0.5,0,1.4-0.1,2.4-1.2c1.3-1.3,1.8-2.9,1.8-3.9C149.5,125.2,148.9,124.3,147.7,124.3 M132.7,124.3c-0.8,0-1.6,1.1-1.9,2.2
		c0,0.2,0.1,0.3,0.3,0.2c0.4-0.7,0.6-1.3,1-1.3c0.3,0,0.6,0.7,0.6,2.6c0,1.4-0.1,3-0.3,3.9c-0.3,1.1-1.1,2.2-1.5,2.6
		c-0.4,0.3-0.7,0.5-0.9,0.5c-0.3,0-0.4-0.2-0.5-0.3c-0.1-0.2-0.3-0.3-0.5-0.3c-0.4,0-0.7,0.3-0.7,0.7c0,0.4,0.3,0.8,0.9,0.8
		c0.5,0,1.4-0.3,2.7-1.7c1.4-1.6,2-2.7,2.8-4.1c1.5-2.6,2-4.8,2-5.2c0-0.2-0.1-0.3-0.2-0.3c-0.1-0.1-0.4-0.2-0.5-0.2
		c-0.1,0-0.4,0-0.4,0.5c0,0.4-0.3,2.2-0.6,3.2c-0.4,1-0.9,2.1-1.4,2.9h-0.1c0.2-1.4,0.3-2.7,0.3-3.7
		C133.7,126,133.6,124.3,132.7,124.3 M129.9,125.4c0.2-0.1,0.3-0.5,0.2-0.6h-1.9l0.5-1.7c-0.1-0.2-0.5-0.2-0.6-0.1l-1,1.7l-1.4,0.2
		c-0.2,0.1-0.2,0.3-0.2,0.5h1.3l-1.6,4.7c-0.2,0.5-0.2,0.8-0.2,1c0,0.2,0.2,0.5,0.5,0.5c0.7,0,2.3-1,3.3-2.5c0-0.2-0.1-0.3-0.2-0.3
		c-0.6,0.6-1.7,1.5-1.9,1.5c-0.1,0-0.2-0.1-0.1-0.4l1.5-4.5H129.9z M122.8,120.8c-0.7,0-0.9,0.7-0.9,1.1c0,0.3,0.2,0.6,0.6,0.6
		c0.5,0,0.9-0.5,0.9-1.1C123.4,121.1,123.2,120.8,122.8,120.8 M119.2,130.9c-0.1,0.2,0,0.3,0.1,0.5c0.1,0.1,0.2,0.2,0.3,0.2
		c1.2,0,2.9-1.5,3.2-2c0-0.2-0.1-0.3-0.3-0.3c-0.6,0.7-1.5,1.3-1.8,1.3c-0.1,0-0.1-0.2-0.1-0.4l2-4.8c0.2-0.5,0.2-0.6,0.1-0.8
		c-0.1-0.1-0.2-0.2-0.3-0.2c-0.6,0-1.9,0.6-2.8,1.7c0,0.1,0.1,0.3,0.2,0.3c0.9-0.7,1.3-0.9,1.4-0.9c0.1,0,0.1,0.1,0,0.3L119.2,130.9
		z M116.6,124.3c-0.2,0-0.8,0.1-1.3,0.6c-0.7,0.6-1,1.1-1,1.8c0,0.3,0.2,0.9,0.6,1.6c0.4,0.7,0.6,1.2,0.6,1.5c0,0.5-0.4,1-0.8,1
		c-0.4,0-1-0.4-1.2-0.7c-0.1-0.1-0.3-0.1-0.5,0c-0.2,0.2-0.3,0.4-0.3,0.6c0,0.4,0.4,0.9,1,0.9c0.6,0,1.3-0.2,1.7-0.6
		c0.6-0.5,0.9-1.2,0.9-1.6c0-0.8-0.2-1.2-0.6-1.9c-0.5-0.8-0.6-1.2-0.6-1.6c0-0.3,0.2-0.7,0.7-0.7c0.5,0,0.7,0.3,1,0.5
		c0.1,0.1,0.2,0.2,0.3,0.1c0.1-0.1,0.3-0.3,0.3-0.5C117.7,124.9,117.3,124.3,116.6,124.3 M109.1,124.3c-0.8,0-1.5,0.7-2,1.6
		c0,0.2,0.1,0.3,0.3,0.3c0.3-0.4,0.8-0.9,1.2-0.9c0.2,0,0.2,0.2,0.1,0.4c-0.5,1.7-1.5,4.7-1.8,5.4c-0.1,0.4,0.4,0.4,0.6,0.4
		c0.1,0,0.2-0.1,0.3-0.2c0.9-2,1.9-4,2.9-5.4c0.3-0.3,0.4-0.5,0.6-0.5c0.2,0,0.3,0.2,0.4,0.7c0.1,0.4,0.3,0.3,0.5,0.1
		c0.2-0.3,0.4-0.8,0.4-1c0-0.3-0.1-0.8-0.7-0.8c-0.4,0-0.9,0.4-1.2,0.9c-0.4,0.6-1.3,1.9-1.8,2.9h-0.1l0.7-2.1
		C109.7,125.5,110,124.3,109.1,124.3 M103.9,124.8c0.3,0,0.4,0.2,0.4,0.4c0,0.2-0.1,0.7-0.7,1.2c-0.6,0.6-1.2,0.9-2.3,1.3
		c0.2-0.5,0.6-1.3,1.3-2C103.3,125,103.7,124.8,103.9,124.8 M104.3,124.3c-0.5,0-1.2,0.1-2,0.8c-1.9,1.4-2.5,3.5-2.5,4.6
		c0,0.8,0.4,1.8,1.4,1.8c0.7,0,1.7-0.3,2.7-1.5c0-0.2-0.1-0.3-0.2-0.3c-0.8,0.6-1.2,1-1.8,1c-0.5,0-0.8-0.4-0.8-1
		c0-0.7,0.1-1.2,0.2-1.5c2.5-0.7,4.1-1.5,4.1-2.8C105.4,124.9,105,124.3,104.3,124.3 M92.5,128.8c-0.3,0.7-0.4,1.3-0.4,1.6
		c0,0.5,0.3,1,0.8,1c0.4,0,1.4-0.2,2.7-1.2c1.5-1.2,2.7-3.6,2.7-4.9c0-0.4-0.1-1.1-0.7-1.1c-0.3,0-0.6,0.3-0.6,0.6
		c0.1,0.4,0.2,0.8,0.2,1.2c0,0.8-0.5,2.1-1.5,3.3c-0.8,0.9-1.5,1.3-1.9,1.3c-0.4,0-0.5-0.3-0.5-0.6c0-0.2,0.1-0.6,0.2-0.8l1.5-3.8
		c0.2-0.6-0.1-1.1-0.5-1.1c-1,0-2.1,1.1-2.7,1.9c0,0.1,0.1,0.3,0.3,0.3c0.5-0.6,1.3-1.2,1.6-1.2c0.2,0,0.2,0.2,0.1,0.5L92.5,128.8z
		 M89.4,120.8c-0.7,0-0.9,0.7-0.9,1.1c0,0.3,0.2,0.6,0.6,0.6c0.5,0,0.9-0.5,0.9-1.1C90,121.1,89.8,120.8,89.4,120.8 M85.8,130.9
		c-0.1,0.2,0,0.3,0.1,0.5c0.1,0.1,0.2,0.2,0.3,0.2c1.2,0,2.9-1.5,3.2-2c0-0.2-0.1-0.3-0.3-0.3c-0.6,0.7-1.5,1.3-1.8,1.3
		c-0.1,0-0.1-0.2-0.1-0.4l2-4.8c0.2-0.5,0.2-0.6,0.1-0.8c-0.1-0.1-0.2-0.2-0.3-0.2c-0.6,0-1.9,0.6-2.8,1.7c0,0.1,0.1,0.3,0.2,0.3
		c0.9-0.7,1.3-0.9,1.4-0.9c0.1,0,0.1,0.1,0,0.3L85.8,130.9z M79.5,125c0.2-0.4,0-0.7-0.4-0.7c-0.9,0-1.9,0.7-2.5,1.6
		c0,0.1,0.1,0.3,0.2,0.3c0.6-0.5,1.2-0.9,1.6-0.9c0.1,0,0.1,0.2,0.1,0.4c-0.1,0.2-1.9,5.1-2,5.4c-0.2,0.4,0.3,0.4,0.5,0.4
		c0.2,0,0.2-0.1,0.3-0.2c1-1.9,1.7-3.2,2.6-4.3c0.9-1.2,1.9-2,2.4-2c0.3,0,0.3,0.2,0.3,0.4c0,0.3-0.2,0.9-0.4,1.2
		c-0.4,0.8-1,2.5-1.4,3.4c-0.4,0.9-0.4,1-0.4,1.1c0,0.2,0.3,0.4,0.4,0.4c0.9,0,2.3-0.8,2.9-1.9c0-0.1,0-0.3-0.3-0.2
		c-0.5,0.6-1.3,1.2-1.6,1.2c-0.1,0-0.1-0.2,0-0.3c0.1-0.1,1.3-2.9,1.6-3.8c0.1-0.4,0.3-0.9,0.3-1.2c0-0.6-0.3-0.9-1-0.9
		c-1.3,0-3,1.9-4.2,3.7l-0.1,0L79.5,125z M64.9,126.7c-1,3.1,0.2,4.8,3.3,4.8c1.1,0,2.3-0.4,3.2-1.2c1.1-0.9,1.6-2.4,2-3.6l0.8-2.5
		c0.3-1.1,0.7-2.2,0.8-2.6c0.3-0.9,0.5-1.1,1.3-1.3l0.4-0.1c0.1-0.1,0.1-0.3,0-0.4c-0.7,0-1.3,0-1.8,0c-0.6,0-1,0-1.8,0
		c-0.1,0.1-0.2,0.3-0.1,0.4l0.5,0.1c0.9,0.1,0.8,0.5,0.6,1.2c-0.1,0.4-0.3,1.5-0.7,2.6l-0.8,2.4c-0.7,2.1-1.8,4.2-4.2,4.2
		c-2.8,0-3-2-2.2-4.5l1.2-3.9c0.5-1.7,0.6-1.9,1.6-2l0.5-0.1c0.2-0.1,0.1-0.3,0-0.4c-0.8,0-1.4,0-2.1,0c-0.7,0-1.3,0-2,0
		c-0.2,0.1-0.2,0.3-0.1,0.4l0.4,0.1c0.9,0.2,0.9,0.4,0.4,2L64.9,126.7z"/>
</g>
</svg>
