<?xml version="1.0" encoding="UTF-8" standalone="no"?>
<svg version="1.1" id="svg1" width="525.06665" height="373.73334" viewBox="0 0 525.06665 373.73334" sodipodi:docname="UiB_PositivMidtstilt.eps" xmlns:inkscape="http://www.inkscape.org/namespaces/inkscape" xmlns:sodipodi="http://sodipodi.sourceforge.net/DTD/sodipodi-0.dtd" xmlns="http://www.w3.org/2000/svg" xmlns:svg="http://www.w3.org/2000/svg">
	<defs id="defs1" />
	<namedview id="namedview1" pagecolor="#ffffff" bordercolor="#000000" borderopacity="0.25" inkscape:showpageshadow="2" inkscape:pageopacity="0.0" inkscape:pagecheckerboard="0" inkscape:deskcolor="#d1d1d1">
		<page x="0" y="0" inkscape:label="1" id="page1" width="525.06665" height="373.73334" margin="0" bleed="0" />
	</namedview>
	<g id="g1" inkscape:groupmode="layer" inkscape:label="1">
		<g id="group-R5">
			<path id="path2" d="m 2857.43,619.012 -0.4,-0.024 c -10.83,-0.648 -19.45,-1 -33.91,-1 -11.71,0 -22.61,0.282 -38.89,1 l -0.26,0.012 -0.24,-0.09 c -1.48,-0.558 -2.54,-2.031 -2.9,-4.031 -0.36,-2.051 0.08,-4.809 1.87,-6.34 l 0.28,-0.25 5.98,-0.711 c 11.88,-1.476 17.74,-3.289 19.57,-6.027 4.13,-6.52 6.4,-30.551 6.4,-67.653 V 463.27 c 0,-5.122 0,-10 -0.63,-12.168 -12.18,12.488 -24.87,26.699 -40.84,44.589 -4.04,4.508 -8.28,9.27 -12.78,14.289 l -32.02,35.969 -0.39,0.442 c -32.76,36.738 -51.54,60.898 -55.82,71.8 l -0.36,0.93 -1,-0.152 c -4,-0.617 -9.46,-0.981 -14.98,-0.981 -5.78,0 -23.39,0 -37.2,0.992 l -0.35,0.032 -0.3,-0.16 c -1.41,-0.704 -2.36,-2.141 -2.66,-4.051 -0.39,-2.332 0.29,-4.821 1.68,-6.199 l 0.3,-0.313 6.02,-0.711 c 9.11,-1.129 15.93,-3.75 19.71,-7.519 6.46,-7.071 6.92,-13.379 6.92,-22.918 v -98.403 c 0.02,-17.379 0.06,-53.547 -4.18,-64.457 -1.3,-2.902 -5.86,-4.871 -13.51,-5.883 l -9.36,-1.039 -0.31,-0.3 c -1.2,-1.207 -1.81,-3.188 -1.63,-5.297 0.18,-2.102 1.07,-3.871 2.46,-4.852 l 0.35,-0.262 0.44,0.024 c 11.25,0.648 20.04,0.988 34.26,0.988 11.54,0 22.71,-0.289 38.55,-0.988 l 0.43,-0.024 0.36,0.262 c 1.28,0.899 2.12,2.371 2.4,4.121 0.32,2.078 -0.22,4.231 -1.47,5.899 l -0.32,0.429 -10.81,1.051 c -8.48,0.68 -14.26,2.731 -15.85,5.641 -3.72,6.578 -5.77,30.617 -5.77,67.699 v 71.949 c 0,7.18 0.15,14.942 1.17,19.52 4.86,-5.289 14.77,-16.989 23.59,-27.41 5.4,-6.391 10.42,-12.321 13.65,-16.028 l 76.57,-87.14 c 25.48,-28.993 37.7,-43.403 42.16,-49.731 l 0.38,-0.531 h 0.64 c 3.74,0 6.54,1.68 7.46,4.492 l 0.08,0.258 -0.03,0.269 c -0.45,3.891 -0.97,17.043 -0.97,57.622 v 78.878 l -0.01,4.442 c -0.06,17.012 -0.18,52.41 4.83,62.988 0.87,1.762 6,4.453 17.53,6.262 l 5.03,0.719 0.29,0.293 c 1.32,1.308 1.99,3.488 1.74,5.679 -0.22,1.969 -1.17,3.617 -2.61,4.52 z M 2552.29,447.859 c -2.07,0.582 -4.21,0.309 -5.66,-0.73 l -0.4,-0.457 c -7.87,-15.774 -16.86,-28.121 -22.86,-31.461 -7.31,-3.652 -17.44,-4.82 -41.69,-4.82 -29.37,0 -35.56,3.73 -39.03,7.199 -4.96,5.281 -5.93,16.269 -5.93,33.469 v 46.543 c 0,7.589 0.09,7.66 9.65,7.66 h 19.14 c 12.01,0 20.39,-0.274 25.11,-1.614 6.26,-1.57 8.18,-6.5 9.31,-11.617 l 2.97,-12.871 0.26,-0.519 c 1.36,-1.641 4.11,-2.039 6.05,-1.86 2.16,0.188 3.83,1.059 4.58,2.367 l 0.16,0.293 v 0.329 c 0,3.23 -0.25,7.378 -0.53,12.191 -0.37,6.027 -0.78,12.867 -0.78,19.5 0,6.949 0.41,14.027 0.77,20.277 0.29,5.114 0.54,9.512 0.54,13.051 v 0.332 l -0.16,0.289 c -0.75,1.32 -2.42,2.18 -4.58,2.371 -1.94,0.18 -4.69,-0.211 -6.05,-1.863 l -2.91,-14.078 c -1.64,-8.231 -3.86,-9.539 -7.08,-10.61 -3.72,-1.242 -13.54,-1.921 -27.66,-1.921 h -19.14 c -9.65,0 -9.65,0 -9.65,7.992 v 66.008 c 0,11.953 0,11.953 8.65,11.953 h 23.77 c 14.54,0 24.92,-0.332 31.71,-1.942 15.77,-3.941 19.05,-14.289 23.58,-28.621 l 0.61,-1.91 0.23,-0.418 c 0.96,-1.152 2.83,-1.723 4.91,-1.633 1.79,0.102 4.27,0.793 5.35,2.41 l 0.24,0.364 -0.43,4.687 c -1.31,14.653 -3.11,34.711 -4.95,39.949 l -0.38,1.082 -1.1,-0.281 c -3.82,-0.961 -23.46,-0.961 -44.26,-0.961 h -62.05 c -12.76,0 -23.65,0.282 -38.89,1 l -0.32,0.012 -0.29,-0.148 c -1.67,-0.832 -2.41,-3.301 -2.53,-5.332 -0.07,-1.129 -0.04,-3.891 1.73,-5.079 l 5.82,-0.863 c 18.42,-2.187 19.04,-6.027 19.04,-40.34 v -118.82 c 0,-34.727 -1.81,-38.469 -19.33,-40.008 l -11.35,-1.031 -0.32,-0.32 c -1.53,-1.547 -1.75,-4.18 -1.42,-6.129 0.33,-2.02 1.21,-3.52 2.42,-4.129 l 0.28,-0.141 0.31,0.012 c 19.9,0.68 30.8,0.988 44.85,0.988 h 29.7 c 29.05,0 58.8,-0.332 88.43,-0.988 l 0.81,-0.024 0.34,0.731 c 4.4,9.133 12.64,34.59 14.96,46.18 l 0.06,0.39 -0.15,0.36 c -0.75,1.691 -2.38,2.992 -4.46,3.55 z m -246.4,41.11 -0.38,-0.02 c -11.15,-0.679 -22.25,-0.988 -34.91,-0.988 -20.52,0 -38.13,0.367 -47.11,0.98 l -0.31,0.028 -0.28,-0.129 c -1.84,-0.789 -2.55,-3.141 -2.61,-5.07 -0.05,-1.989 0.59,-4.461 2.55,-5.442 l 14.94,-1.777 c 19.58,-2.211 20.34,-3.36 20.34,-30.77 v -13.203 c 0,-10.168 -1.58,-16.008 -3.09,-18.129 -2.93,-4.519 -13.72,-9.34 -35.26,-9.34 -60.31,0 -97.77,42.903 -97.77,111.961 0,69.239 48.94,93.809 90.84,93.809 37.73,0 58.21,-14.168 66.45,-45.938 l 0.08,-0.332 0.25,-0.238 c 1.65,-1.66 4.81,-1.902 7,-1.422 2.03,0.442 3.44,1.461 3.97,2.86 l 0.11,0.3 -0.05,0.321 c -3.28,21.781 -4.94,37.82 -4.94,47.672 v 1.476 l -1.45,-0.238 c -3.39,-0.602 -12.4,1.34 -18.35,2.609 l -1.63,0.34 c -3.53,0.832 -22.13,4.981 -42.2,4.981 -45.89,0 -80.4,-12.758 -105.54,-39.008 -19.37,-20.621 -30.04,-48.703 -30.04,-79.071 0,-29.492 10.63,-55.711 30.73,-75.8 23.89,-24.211 59.01,-37.012 101.55,-37.012 19.74,0 44.34,4.652 59.4,8.621 4.77,1.262 11.61,2.93 15.85,2.93 h 0.42 l 0.34,0.25 c 0.88,0.672 1.44,1.718 1.52,2.859 0.08,1.129 -0.32,2.25 -1.08,2.992 l -0.43,0.278 c -4.99,1.941 -7.11,8.601 -7.11,22.269 v 18.481 c 0,17.293 0.52,24.992 13.1,26.492 l 5.65,0.699 0.28,0.238 c 1.43,1.231 2.2,3.442 1.98,5.75 -0.19,2.063 -1.12,3.75 -2.49,4.543 z m -412.64,107.972 c 0,8.071 0,9.309 20.21,9.309 38.05,0 51.56,-26.699 51.56,-49.57 0,-18.481 -5.24,-31.551 -16.01,-39.942 -9.72,-7.367 -22.87,-8.32 -33.24,-8.32 -16.77,0 -21.16,0.703 -21.78,1.152 -0.74,0.989 -0.74,5.032 -0.74,10.141 z m 153.02,-194.222 -0.37,0.082 c -8.27,0.609 -16.3,3.871 -22.06,8.949 -22.92,19.211 -41.05,47.121 -66.08,87.5 -1.92,3.07 -2.55,5.121 -1.91,6.238 10.24,4.16 41.7,19.934 41.7,56.141 0,27.019 -15.26,40.641 -28.05,47.301 -16.3,8.859 -37.31,10.058 -55.71,10.058 -30.07,0 -53.49,-0.84 -73.71,-2.648 l -0.45,-0.129 c -1.51,-0.75 -2.52,-2.492 -2.69,-4.652 -0.19,-2.387 0.67,-4.649 2.18,-5.731 l 11.15,-1.547 c 12.04,-1.472 13.42,-5.312 13.42,-37.371 V 448.418 c 0,-34.559 -0.52,-37.816 -18.7,-40.02 l -8.74,-1.039 -0.31,-0.371 c -1.57,-1.82 -1.69,-4.617 -1.32,-6.449 0.36,-1.801 1.23,-3.168 2.37,-3.738 l 0.29,-0.141 0.32,0.012 c 16.77,0.707 28.32,0.988 41.2,0.988 14.03,0 25.83,-0.39 39.22,-0.988 l 0.33,-0.012 0.28,0.141 c 1.29,0.648 2.22,2.398 2.48,4.679 0.3,2.481 -0.3,4.59 -1.57,5.661 l -0.27,0.218 -7.29,1.039 c -18.21,2.512 -18.73,5.762 -18.73,40.02 v 41.594 c 0,5.886 0,6.008 14.27,6.008 13.15,0 17.86,-3.379 22.4,-10.02 5.09,-7.391 11,-16.75 16.72,-25.801 5.82,-9.211 11.31,-17.898 15.63,-24.051 22.42,-31.886 39.26,-42.117 69.34,-42.117 6.11,0 11.69,0.637 14.91,1.707 l 0.39,0.211 c 1.16,0.93 1.73,2.422 1.52,3.903 -0.21,1.339 -1.01,2.41 -2.16,2.867 z m -281.03,45.14 c -2.05,0.582 -4.2,0.309 -5.65,-0.73 l -0.4,-0.457 c -7.87,-15.774 -16.87,-28.121 -22.86,-31.461 -7.31,-3.652 -17.44,-4.82 -41.69,-4.82 -29.37,0 -35.56,3.73 -39.03,7.199 -4.97,5.281 -5.93,16.269 -5.93,33.469 v 46.543 c 0,7.589 0.09,7.66 9.65,7.66 h 19.14 c 12.01,0 20.39,-0.274 25.1,-1.614 6.27,-1.57 8.19,-6.5 9.32,-11.617 l 2.97,-12.871 0.26,-0.519 c 1.37,-1.641 4.08,-2.039 6.05,-1.86 2.16,0.188 3.83,1.059 4.58,2.367 l 0.16,0.293 v 0.329 c 0,3.23 -0.25,7.378 -0.53,12.191 -0.37,6.027 -0.78,12.867 -0.78,19.5 0,6.949 0.41,14.027 0.77,20.277 0.29,5.114 0.54,9.512 0.54,13.051 v 0.332 l -0.16,0.289 c -0.75,1.32 -2.42,2.18 -4.58,2.371 -1.96,0.18 -4.68,-0.211 -6.05,-1.863 l -2.91,-14.078 c -1.64,-8.231 -3.86,-9.539 -7.08,-10.61 -3.72,-1.242 -13.54,-1.921 -27.66,-1.921 h -19.14 c -9.65,0 -9.65,0 -9.65,7.992 v 66.008 c 0,11.953 0,11.953 8.65,11.953 h 23.77 c 14.54,0 24.92,-0.332 31.71,-1.942 15.77,-3.941 19.05,-14.289 23.58,-28.621 l 0.61,-1.91 0.23,-0.418 c 0.96,-1.152 2.74,-1.723 4.9,-1.633 1.8,0.102 4.28,0.793 5.36,2.41 l 0.24,0.364 -0.43,4.687 c -1.31,14.653 -3.11,34.711 -4.95,39.949 l -0.38,1.082 -1.1,-0.281 c -3.82,-0.961 -23.46,-0.961 -44.26,-0.961 h -62.05 c -12.77,0 -23.67,0.282 -38.89,1 l -0.32,0.012 -0.3,-0.148 c -1.67,-0.832 -2.4,-3.301 -2.52,-5.332 -0.07,-1.129 -0.04,-3.891 1.73,-5.079 l 5.82,-0.863 c 18.42,-2.187 19.04,-6.027 19.04,-40.34 v -118.82 c 0,-34.727 -1.81,-38.469 -19.33,-40.008 l -11.35,-1.031 -0.32,-0.32 c -1.53,-1.547 -1.75,-4.18 -1.42,-6.129 0.33,-2.02 1.21,-3.52 2.42,-4.129 l 0.28,-0.141 0.31,0.012 c 19.9,0.68 30.8,0.988 44.85,0.988 h 29.7 c 29.05,0 58.8,-0.332 88.43,-0.988 l 0.81,-0.024 0.34,0.731 c 4.4,9.133 12.64,34.59 14.95,46.18 l 0.07,0.39 -0.15,0.36 c -0.76,1.691 -2.38,2.992 -4.47,3.55 z m -355.82,75.219 c -1.05,1.024 -1.1,3.274 -1.1,6.863 v 67 c 0,5.637 1.2,6.629 3.89,7.438 2.79,1.242 7.72,1.871 14.66,1.871 11.25,0 47.93,-3.121 47.93,-43.301 0,-28.078 -14.18,-39.57 -50.61,-41 -8.14,-0.308 -13.15,-0.398 -14.77,1.129 z m 30.66,-113.668 c -12.35,0 -20.09,2.711 -25.13,8.801 -5.95,6.879 -6.63,23.359 -6.63,35.16 v 48.848 c 0,5.332 0,7.332 17.9,7.332 56.06,0 64.42,-34.582 64.42,-55.192 0,-39.109 -31.68,-44.949 -50.56,-44.949 z m 37.85,108.891 c -3.45,0.629 -4.86,1.39 -5.18,2.961 16.75,7.929 33.6,19.687 33.6,45.976 0,19.211 -9.16,34.262 -25.77,42.371 -16.25,8.313 -38.47,9.379 -56.01,9.379 -28.59,0 -51.85,-0.867 -71.08,-2.648 l -0.44,-0.129 c -1.58,-0.781 -2.63,-2.512 -2.82,-4.633 -0.21,-2.316 0.67,-4.519 2.29,-5.738 l 0.28,-0.211 10.93,-1.02 c 13.73,-1.218 15.03,-6.539 15.03,-30.769 V 448.418 c 0,-35.027 -0.96,-37.277 -17.11,-40.02 l -6.34,-1.058 -0.28,-0.281 c -1.53,-1.539 -1.75,-4.168 -1.44,-6.11 0.34,-2.031 1.21,-3.539 2.43,-4.148 l 0.27,-0.141 0.31,0.012 c 3.9,0.109 7.68,0.246 11.51,0.387 8.13,0.3 16.54,0.601 26.42,0.601 7.55,0 15.92,-0.301 23.29,-0.558 6.14,-0.223 11.96,-0.43 16.32,-0.43 56.59,0 89.04,23.797 89.04,65.277 0,37.942 -29.6,53.449 -45.25,56.352 z m -323.87,89.277 8.58,0.684 0.27,0.179 c 1.78,1.18 1.81,3.938 1.73,5.071 -0.12,2.027 -0.85,4.508 -2.53,5.34 l -0.28,0.148 -0.33,-0.012 c -15.58,-0.629 -27.27,-1 -40.88,-1 -14.22,0 -25.57,0.352 -41.53,1 l -0.32,0.012 -0.28,-0.148 c -1.67,-0.832 -2.41,-3.301 -2.53,-5.321 -0.07,-1.14 -0.05,-3.902 1.73,-5.09 l 0.27,-0.179 8.56,-0.684 c 18.29,-1.547 19,-6.066 19,-41 v -117.5 c 0,-34.617 -0.62,-38.488 -19.04,-40.68 l -8.68,-1.039 -0.31,-0.3 c -1.53,-1.547 -1.75,-4.18 -1.43,-6.129 0.34,-2.02 1.22,-3.52 2.43,-4.129 l 0.28,-0.141 0.32,0.012 c 16.09,0.648 27.46,0.988 41.53,0.988 13.53,0 24.8,-0.34 40.88,-0.988 l 0.33,-0.012 0.28,0.141 c 1.68,0.84 2.41,3.308 2.53,5.347 0.08,1.133 0.05,3.891 -1.73,5.063 l -8.8,1.187 c -18.42,2.192 -19.03,6.063 -19.03,40.68 v 117.5 c 0,34.934 0.7,39.453 18.98,41 z m 2413.44,399.562 -0.21,0.42 c -1.11,2.21 -5.62,2.35 -7.51,1.59 l -0.41,-0.16 -0.22,-0.38 c -4.55,-7.89 -6.63,-8.61 -24.67,-8.61 h -135.01 c -0.17,0 -0.34,0 -0.51,0 -15.28,0 -23.33,0.49 -24.97,9.21 l -0.06,0.38 -0.28,0.27 c -1.52,1.51 -6.51,1.04 -7.85,0.16 l -0.45,-0.3 -0.09,-0.53 c -2.3,-13.131 -7.19,-34.069 -12.49,-48.971 l -0.17,-0.5 0.23,-0.481 c 0.87,-1.718 2.8,-3.129 5.05,-3.66 2.02,-0.457 4,-0.148 5.4,0.91 l 0.26,0.203 0.13,0.297 c 3.42,7.774 6.65,15.114 14.56,22.364 7.59,6.968 24.35,7.91 39.75,7.91 h 18.15 c 8.66,0 8.66,0 8.66,-9.313 V 830.422 c 0,-34.731 -1.81,-38.473 -19.33,-40.012 l -11.88,-0.992 -0.55,-0.18 c -1.57,-0.976 -2.43,-3.027 -2.33,-5.488 0.09,-1.762 0.77,-4.109 2.43,-4.941 l 0.29,-0.149 0.31,0.008 c 20.27,0.641 32.4,0.992 45.84,0.992 12.77,0 23.64,-0.301 43.19,-0.992 l 0.32,-0.008 0.28,0.149 c 1.67,0.832 2.4,3.3 2.53,5.32 0.07,1.141 0.05,3.902 -1.73,5.09 l -11.15,1.191 c -18.06,1.559 -18.66,5.41 -18.66,40.012 V 978.32 c -0.01,4.418 -0.01,7.09 0.9,8.008 0.89,0.891 3.4,0.934 7.42,0.934 h 23.43 c 17.98,0 30.26,-2.614 37.54,-8 3.47,-2.543 6.29,-11.024 7.76,-23.242 l 0.04,-0.372 0.24,-0.277 c 1.32,-1.582 4.02,-2.031 6.07,-1.801 2.19,0.25 3.86,1.239 4.58,2.7 l 0.17,0.32 -0.04,0.359 c -0.97,9.789 1.28,36.172 4.92,49.731 z M 3294.48,829.859 c -2.06,0.59 -4.21,0.301 -5.65,-0.73 l -0.4,-0.461 c -7.87,-15.758 -16.87,-28.117 -22.86,-31.457 -7.31,-3.641 -17.44,-4.82 -41.69,-4.82 -29.37,0 -35.56,3.73 -39.04,7.199 -4.96,5.281 -5.92,16.269 -5.92,33.469 v 46.543 c 0,7.589 0.08,7.66 9.64,7.66 h 19.15 c 12.01,0 20.39,-0.274 25.1,-1.614 6.27,-1.57 8.19,-6.5 9.32,-11.617 l 2.97,-12.871 0.26,-0.512 c 1.37,-1.636 4.05,-2.039 6.05,-1.859 2.15,0.191 3.82,1.051 4.58,2.359 l 0.16,0.293 v 0.329 c 0,3.23 -0.25,7.378 -0.53,12.191 -0.38,6.027 -0.79,12.867 -0.79,19.5 0,6.949 0.41,14.039 0.78,20.289 0.29,5.102 0.54,9.5 0.54,13.039 v 0.34 l -0.16,0.281 c -0.76,1.32 -2.43,2.18 -4.58,2.379 -1.95,0.172 -4.68,-0.23 -6.05,-1.859 l -2.91,-14.09 c -1.64,-8.219 -3.87,-9.539 -7.08,-10.61 -3.72,-1.242 -13.54,-1.921 -27.66,-1.921 h -19.15 c -9.64,0 -9.64,0 -9.64,7.992 v 66.008 c 0,11.953 0,11.953 8.65,11.953 h 23.77 c 14.54,0 24.92,-0.321 31.71,-1.942 15.77,-3.941 19.05,-14.289 23.58,-28.621 l 0.61,-1.898 0.23,-0.422 c 0.96,-1.149 2.83,-1.719 4.9,-1.629 1.8,0.09 4.28,0.781 5.35,2.398 l 0.25,0.364 -0.43,4.699 c -1.31,14.648 -3.12,34.699 -4.95,39.939 l -0.38,1.08 -1.11,-0.28 c -3.81,-0.95 -23.45,-0.95 -44.25,-0.95 h -62.06 c -12.76,0 -23.66,0.28 -38.88,0.99 l -0.32,0.01 -0.3,-0.14 c -1.67,-0.84 -2.4,-3.301 -2.53,-5.34 -0.06,-1.129 -0.04,-3.891 1.74,-5.071 l 5.82,-0.859 c 18.42,-2.199 19.04,-6.031 19.04,-40.352 V 830.422 c 0,-34.731 -1.81,-38.473 -19.33,-40.012 l -11.35,-1.031 -0.32,-0.32 c -1.53,-1.547 -1.75,-4.18 -1.43,-6.129 0.34,-2.02 1.21,-3.52 2.43,-4.121 l 0.28,-0.149 0.31,0.008 c 19.89,0.684 30.8,0.992 44.84,0.992 h 29.71 c 29.04,0 58.8,-0.332 88.43,-0.992 l 0.81,-0.02 0.34,0.731 c 4.4,9.133 12.64,34.59 14.95,46.18 l 0.07,0.39 -0.15,0.36 c -0.76,1.691 -2.38,2.992 -4.47,3.55 z m -249.9,179.291 -0.41,-0.16 -0.21,-0.38 c -4.56,-7.89 -6.64,-8.61 -24.67,-8.61 h -135.01 c -0.18,0 -0.34,0 -0.52,0 -15.27,0 -23.33,0.49 -24.96,9.21 l -0.07,0.38 -0.27,0.27 c -1.53,1.51 -6.52,1.04 -7.85,0.16 l -0.45,-0.3 -0.09,-0.53 c -2.31,-13.131 -7.2,-34.069 -12.49,-48.971 l -0.18,-0.5 0.24,-0.481 c 0.87,-1.718 2.8,-3.129 5.05,-3.66 2.04,-0.457 3.98,-0.148 5.4,0.91 l 0.26,0.203 0.13,0.297 c 3.41,7.774 6.65,15.114 14.56,22.364 7.59,6.968 24.34,7.91 39.74,7.91 h 18.16 c 8.65,0 8.65,0 8.65,-9.313 V 830.422 c 0,-34.731 -1.81,-38.473 -19.33,-40.012 l -11.87,-0.992 -0.56,-0.18 c -1.57,-0.976 -2.43,-3.027 -2.32,-5.488 0.09,-1.762 0.77,-4.109 2.43,-4.941 l 0.28,-0.149 0.32,0.008 c 20.27,0.641 32.4,0.992 45.84,0.992 12.77,0 23.64,-0.301 43.19,-0.992 l 0.31,-0.008 0.28,0.149 c 1.67,0.832 2.41,3.3 2.53,5.32 0.07,1.141 0.05,3.902 -1.73,5.09 l -11.15,1.191 c -18.05,1.559 -18.66,5.41 -18.66,40.012 V 978.32 c -0.01,4.418 -0.01,7.09 0.91,8.008 0.89,0.891 3.4,0.934 7.41,0.934 h 23.44 c 17.98,0 30.25,-2.614 37.54,-8 3.46,-2.543 6.29,-11.024 7.75,-23.242 l 0.04,-0.372 0.24,-0.277 c 1.31,-1.582 4.07,-2.031 6.08,-1.801 2.19,0.25 3.86,1.239 4.58,2.7 l 0.16,0.32 -0.03,0.359 c -0.97,9.789 1.27,36.172 4.92,49.731 l 0.11,0.46 -0.21,0.42 c -1.1,2.21 -5.62,2.35 -7.51,1.59 z M 2679.32,779.66 c 29.04,0 58.8,-0.332 88.42,-0.992 l 0.81,-0.02 0.35,0.731 c 4.39,9.133 12.63,34.59 14.95,46.18 l 0.07,0.39 -0.16,0.36 c -0.75,1.691 -2.37,2.992 -4.46,3.55 -2.05,0.59 -4.2,0.301 -5.66,-0.73 l -0.4,-0.461 c -7.87,-15.758 -16.86,-28.117 -22.86,-31.457 -7.3,-3.641 -17.44,-4.82 -41.69,-4.82 -29.36,0 -35.56,3.73 -39.03,7.199 -4.96,5.281 -5.93,16.269 -5.93,33.469 v 46.543 c 0,7.589 0.09,7.66 9.65,7.66 h 19.14 c 12.01,0 20.39,-0.274 25.11,-1.614 6.27,-1.57 8.18,-6.5 9.31,-11.617 l 2.97,-12.871 0.27,-0.512 c 1.36,-1.636 4.06,-2.039 6.04,-1.859 2.16,0.191 3.83,1.051 4.58,2.359 l 0.17,0.293 v 0.329 c 0,3.23 -0.26,7.378 -0.54,12.191 -0.37,6.027 -0.78,12.867 -0.78,19.5 0,6.949 0.41,14.039 0.77,20.289 0.29,5.102 0.55,9.5 0.55,13.039 v 0.34 l -0.17,0.281 c -0.75,1.32 -2.42,2.18 -4.58,2.379 -1.99,0.172 -4.69,-0.23 -6.04,-1.859 l -2.91,-14.09 c -1.64,-8.219 -3.87,-9.539 -7.08,-10.61 -3.73,-1.242 -13.55,-1.921 -27.67,-1.921 h -19.14 c -9.65,0 -9.65,0 -9.65,7.992 v 66.008 c 0,11.953 0,11.953 8.65,11.953 h 23.77 c 14.54,0 24.92,-0.321 31.71,-1.942 15.77,-3.941 19.05,-14.289 23.59,-28.621 l 0.6,-1.898 0.24,-0.422 c 0.95,-1.149 2.79,-1.719 4.9,-1.629 1.79,0.09 4.27,0.781 5.35,2.398 l 0.24,0.364 -0.43,4.699 c -1.31,14.648 -3.11,34.699 -4.95,39.939 l -0.38,1.08 -1.1,-0.28 c -3.82,-0.95 -23.46,-0.95 -44.26,-0.95 h -62.05 c -12.75,0 -23.65,0.28 -38.89,0.99 l -0.32,0.01 -0.29,-0.14 c -1.67,-0.84 -2.4,-3.301 -2.53,-5.34 -0.07,-1.129 -0.04,-3.891 1.74,-5.071 l 5.82,-0.859 c 18.41,-2.199 19.03,-6.031 19.03,-40.352 V 830.422 c 0,-34.731 -1.81,-38.473 -19.33,-40.012 l -11.34,-1.031 -0.33,-0.32 c -1.53,-1.547 -1.74,-4.18 -1.42,-6.129 0.33,-2.02 1.21,-3.52 2.42,-4.121 l 0.28,-0.149 0.32,0.008 c 19.89,0.684 30.8,0.992 44.84,0.992 z m -273.58,207.602 c 8.65,0 8.65,0 8.65,-9.313 V 830.422 c 0,-34.731 -1.8,-38.473 -19.32,-40.012 l -11.88,-0.992 -0.55,-0.18 c -1.58,-0.976 -2.44,-3.027 -2.33,-5.488 0.09,-1.762 0.77,-4.109 2.43,-4.941 l 0.29,-0.149 0.31,0.008 c 20.27,0.641 32.4,0.992 45.84,0.992 12.77,0 23.64,-0.301 43.19,-0.992 l 0.32,-0.008 0.28,0.149 c 1.67,0.832 2.4,3.3 2.53,5.32 0.07,1.141 0.05,3.902 -1.73,5.09 l -11.15,1.191 c -18.06,1.559 -18.67,5.41 -18.67,40.012 V 978.32 c 0,4.418 0,7.09 0.91,8.008 0.89,0.891 3.4,0.934 7.42,0.934 h 23.43 c 17.98,0 30.26,-2.614 37.54,-8 3.47,-2.543 6.29,-11.024 7.76,-23.242 l 0.03,-0.372 0.25,-0.277 c 1.32,-1.582 4.04,-2.031 6.07,-1.801 2.19,0.25 3.86,1.239 4.58,2.7 l 0.17,0.32 -0.04,0.359 c -0.97,9.789 1.28,36.172 4.92,49.731 l 0.12,0.46 -0.22,0.42 c -1.1,2.21 -5.61,2.35 -7.51,1.59 l -0.41,-0.16 -0.21,-0.38 c -4.55,-7.89 -6.63,-8.61 -24.67,-8.61 h -135.01 c -0.17,0 -0.34,0 -0.52,0 -15.27,0 -23.33,0.49 -24.96,9.21 l -0.06,0.38 -0.28,0.27 c -1.52,1.51 -6.5,1.04 -7.85,0.16 l -0.45,-0.3 -0.09,-0.53 c -2.3,-13.131 -7.19,-34.069 -12.49,-48.971 l -0.17,-0.5 0.23,-0.481 c 0.87,-1.718 2.8,-3.129 5.05,-3.66 2.05,-0.457 3.98,-0.148 5.4,0.91 l 0.26,0.203 0.13,0.297 c 3.42,7.774 6.65,15.114 14.56,22.364 7.59,6.968 24.35,7.91 39.75,7.91 z m -234.83,3.008 8.56,-0.692 c 18.29,-1.547 19,-6.066 19,-41 v -117.5 c 0,-34.609 -0.62,-38.488 -19.04,-40.668 l -8.68,-1.039 -0.31,-0.312 c -1.53,-1.547 -1.75,-4.18 -1.43,-6.129 0.34,-2.02 1.21,-3.52 2.43,-4.121 l 0.28,-0.149 0.32,0.008 c 16.08,0.652 27.46,0.992 41.53,0.992 13.53,0 24.8,-0.34 40.88,-0.992 l 0.33,-0.008 0.28,0.149 c 1.68,0.832 2.41,3.312 2.53,5.339 0.08,1.133 0.05,3.891 -1.73,5.071 l -8.8,1.191 c -18.42,2.18 -19.03,6.059 -19.03,40.668 v 117.5 c 0,34.934 0.7,39.453 18.98,41 l 8.58,0.692 0.27,0.179 c 1.78,1.172 1.81,3.93 1.73,5.063 -0.12,2.039 -0.85,4.508 -2.53,5.348 l -0.28,0.14 -0.33,-0.01 c -15.58,-0.63 -27.27,-0.99 -40.88,-0.99 -14.22,0 -25.57,0.34 -41.53,0.99 l -0.32,0.01 -0.28,-0.14 c -1.67,-0.84 -2.41,-3.301 -2.53,-5.329 -0.07,-1.133 -0.05,-3.902 1.72,-5.082 z m -116.73,-89.149 -26.41,16.5 c -10.26,6.379 -27.47,19.988 -27.47,39.539 0,10.641 3.7,35.391 38.03,35.391 29.99,0 39.09,-19.442 43.67,-36.383 l 0.26,-0.469 c 0.89,-1.09 2.6,-1.597 4.5,-1.519 2.07,0.109 4.65,0.968 5.75,2.621 l 0.2,0.32 v 0.367 c 0,14.532 -3.17,33.114 -6.01,40.711 l -0.3,0.813 h -0.87 c -2.39,0 -6.9,0.597 -11.23,1.928 -7.78,2.1 -20.01,4.34 -31.02,4.34 -41.02,0 -68.58,-23.319 -68.58,-58.018 0,-28.024 19.68,-46.91 36.21,-57.813 l 31.37,-20.469 c 23.27,-14.992 26.48,-30.57 26.48,-45.16 0,-18.269 -12.37,-36.699 -40,-36.699 -34.19,0 -49.09,26.25 -55.57,48.27 l -0.15,0.339 c -0.73,1.09 -2.09,1.7 -3.86,1.731 -0.04,0 -0.08,0.008 -0.13,0.008 -2.05,0 -4.67,-0.828 -5.99,-2.688 l -0.26,-0.351 0.02,-0.43 c 0.63,-14.781 4.81,-38.941 9.06,-46.75 l 0.17,-0.309 0.3,-0.179 c 6.43,-3.723 24.38,-12.371 52.12,-12.371 42.8,0 71.55,25.039 71.55,62.3 0,25.93 -13.7,47 -41.84,64.43 z m -304.68,77.82 c 0,8.071 0,9.309 20.21,9.309 38.05,0 51.56,-26.699 51.56,-49.57 0,-18.481 -5.24,-31.551 -16.01,-39.93 -9.72,-7.379 -22.87,-8.328 -33.24,-8.328 -16.77,0 -21.16,0.699 -21.78,1.148 -0.74,0.989 -0.74,5.032 -0.74,10.141 z m 138.36,-202.91 c 6.11,0 11.69,0.641 14.91,1.719 l 0.39,0.211 c 1.16,0.918 1.73,2.41 1.52,3.891 -0.21,1.339 -1.01,2.41 -2.16,2.867 l -0.37,0.082 c -8.27,0.621 -16.3,3.867 -22.06,8.949 -22.92,19.219 -41.05,47.121 -66.08,87.5 -1.92,3.07 -2.55,5.121 -1.91,6.238 10.24,4.16 41.7,19.93 41.7,56.141 0,27.019 -15.26,40.641 -28.05,47.301 -16.3,8.859 -37.31,10.06 -55.71,10.06 -30.07,0 -53.49,-0.84 -73.71,-2.65 l -0.45,-0.129 c -1.51,-0.75 -2.52,-2.492 -2.69,-4.641 -0.19,-2.402 0.67,-4.66 2.18,-5.742 l 11.15,-1.539 c 12.04,-1.469 13.42,-5.32 13.42,-37.379 V 830.422 c 0,-34.563 -0.52,-37.82 -18.7,-40.012 l -8.74,-1.051 -0.31,-0.371 c -1.57,-1.82 -1.69,-4.609 -1.32,-6.437 0.36,-1.813 1.23,-3.172 2.37,-3.742 l 0.29,-0.149 0.32,0.008 c 16.77,0.723 28.32,0.992 41.2,0.992 14.03,0 25.83,-0.39 39.22,-0.992 l 0.33,-0.008 0.28,0.149 c 1.29,0.64 2.22,2.39 2.48,4.671 0.3,2.481 -0.3,4.59 -1.57,5.661 l -0.27,0.218 -7.29,1.051 c -18.21,2.512 -18.73,5.75 -18.73,40.012 v 41.59 c 0,5.898 0,6.008 14.27,6.008 13.15,0 17.86,-3.372 22.4,-10.02 5.09,-7.391 11,-16.75 16.72,-25.801 5.82,-9.211 11.31,-17.898 15.63,-24.051 22.42,-31.878 39.26,-42.117 69.34,-42.117 z m -441.49,2.778 0.28,-0.149 0.31,0.008 c 19.9,0.684 30.8,0.992 44.85,0.992 h 29.7 c 29.05,0 58.8,-0.332 88.43,-0.992 l 0.81,-0.02 0.34,0.731 c 4.4,9.133 12.64,34.59 14.95,46.18 l 0.07,0.39 -0.15,0.36 c -0.76,1.691 -2.38,2.992 -4.47,3.55 -2.06,0.59 -4.2,0.301 -5.65,-0.73 l -0.4,-0.461 c -7.87,-15.758 -16.87,-28.117 -22.86,-31.457 -7.31,-3.641 -17.44,-4.82 -41.69,-4.82 -29.37,0 -35.56,3.73 -39.03,7.199 -4.97,5.281 -5.93,16.269 -5.93,33.469 v 46.543 c 0,7.589 0.09,7.66 9.65,7.66 h 19.14 c 12.01,0 20.39,-0.274 25.1,-1.614 6.27,-1.57 8.19,-6.5 9.32,-11.617 l 2.97,-12.871 0.26,-0.512 c 1.36,-1.636 4.1,-2.039 6.05,-1.859 2.16,0.191 3.83,1.051 4.58,2.359 l 0.16,0.293 v 0.329 c 0,3.23 -0.25,7.378 -0.53,12.191 -0.37,6.027 -0.78,12.867 -0.78,19.5 0,6.949 0.41,14.039 0.77,20.289 0.29,5.102 0.54,9.5 0.54,13.039 v 0.34 l -0.16,0.281 c -0.75,1.32 -2.42,2.18 -4.58,2.379 -1.96,0.172 -4.68,-0.23 -6.05,-1.859 l -2.91,-14.09 c -1.64,-8.219 -3.86,-9.539 -7.08,-10.61 -3.72,-1.242 -13.54,-1.921 -27.66,-1.921 h -19.14 c -9.65,0 -9.65,0 -9.65,7.992 v 66.008 c 0,11.953 0,11.953 8.65,11.953 h 23.77 c 14.54,0 24.92,-0.321 31.71,-1.942 15.77,-3.941 19.05,-14.289 23.58,-28.621 l 0.61,-1.898 0.23,-0.422 c 0.96,-1.149 2.79,-1.719 4.9,-1.629 1.8,0.09 4.28,0.781 5.36,2.398 l 0.24,0.364 -0.43,4.699 c -1.31,14.648 -3.11,34.699 -4.95,39.939 l -0.38,1.08 -1.1,-0.28 c -3.82,-0.95 -23.46,-0.95 -44.26,-0.95 h -62.05 c -12.77,0 -23.67,0.28 -38.89,0.99 l -0.32,0.01 -0.3,-0.14 c -1.67,-0.84 -2.4,-3.301 -2.52,-5.34 -0.07,-1.129 -0.04,-3.891 1.73,-5.071 l 5.82,-0.859 c 18.42,-2.199 19.04,-6.031 19.04,-40.352 V 830.422 c 0,-34.731 -1.81,-38.473 -19.33,-40.012 l -11.35,-1.031 -0.32,-0.32 c -1.53,-1.547 -1.75,-4.18 -1.42,-6.129 0.33,-2.02 1.21,-3.52 2.42,-4.121 z m -74.13,210.769 10.36,0.692 0.34,0.332 c 1.37,1.367 1.71,4 1.44,6 -0.27,2 -1.11,3.498 -2.37,4.218 l -0.33,0.19 -0.37,-0.02 c -11.07,-0.68 -21.21,-0.99 -31.94,-0.99 -13.21,0 -25.37,0.35 -34.23,0.98 l -0.38,0.03 -0.34,-0.19 c -1.44,-0.832 -2.48,-2.699 -2.68,-4.879 -0.22,-2.222 0.47,-4.23 1.83,-5.402 l 0.3,-0.258 6.32,-0.691 c 13.08,-1.5 13.75,-4.461 13.75,-5.039 0,-2.25 -0.34,-5.699 -2.9,-12.41 -5.78,-14.641 -21.51,-52.403 -30.67,-73.891 -2.36,-5.449 -5.34,-12.5 -8.61,-20.27 -6.75,-16.011 -15.05,-35.699 -21.89,-50.46 -16.15,36.96 -30.86,73.742 -45.74,111.3 -9.94,24.36 -15.57,42 -16.4,45.758 0.34,1.613 2.52,3.442 14.41,5.012 l 5.31,0.699 0.28,0.242 c 1.36,1.168 2.06,3.18 1.85,5.387 -0.21,2.191 -1.23,4.07 -2.69,4.902 l -0.32,0.18 -0.36,-0.01 c -14.68,-0.71 -26.24,-0.99 -39.88,-0.99 -13.82,0 -24.39,0.3 -34.24,0.98 l -0.41,0.03 -0.34,-0.21 c -1.57,-0.991 -2.61,-2.851 -2.77,-4.991 -0.15,-2.118 0.58,-4.09 1.97,-5.278 l 0.29,-0.25 6.31,-0.691 c 13.4,-1.559 18.17,-7.942 25.73,-26.301 l 58.08,-143.238 c 4.76,-11.77 11.25,-28.91 15.13,-43.742 l 0.17,-0.61 0.59,-0.238 c 1.77,-0.711 3.6,-1.07 5.41,-1.07 1.63,0 3.16,0.418 4.31,1.187 l 0.36,0.25 0.14,0.41 c 5.78,18.032 21.62,56.922 34.28,86.024 l 17.82,40.597 c 15.63,35.403 28.04,60.903 36.88,75.75 4.41,7.11 9.25,10.391 16.2,10.969 z m -293.68,-210.918 0.29,0.149 c 1.68,0.832 2.41,3.312 2.53,5.339 0.07,1.133 0.05,3.891 -1.73,5.071 l -8.8,1.191 c -18.42,2.18 -19.03,6.059 -19.03,40.668 v 117.5 c 0,34.934 0.7,39.453 18.98,41 l 8.57,0.692 0.28,0.179 c 1.78,1.172 1.8,3.93 1.73,5.063 -0.12,2.039 -0.85,4.508 -2.53,5.348 l -0.29,0.14 -0.32,-0.01 c -15.58,-0.63 -27.27,-0.99 -40.88,-0.99 -14.23,0 -25.57,0.34 -41.532,0.99 l -0.32,0.01 -0.285,-0.14 c -1.668,-0.84 -2.403,-3.301 -2.528,-5.329 -0.066,-1.133 -0.05,-3.902 1.731,-5.082 l 0.269,-0.179 8.565,-0.692 c 18.29,-1.547 19,-6.066 19,-41 v -117.5 c 0,-34.609 -0.62,-38.488 -19.04,-40.668 l -8.677,-1.039 -0.316,-0.312 c -1.532,-1.547 -1.747,-4.18 -1.422,-6.129 0.332,-2.02 1.211,-3.52 2.418,-4.121 l 0.285,-0.149 0.32,0.008 c 16.082,0.652 27.462,0.992 41.532,0.992 13.53,0 24.8,-0.34 40.88,-0.992 z m -161.58,222.35 -0.398,-0.02 c -10.828,-0.65 -19.453,-0.99 -33.914,-0.99 -11.711,0 -22.609,0.28 -38.891,0.99 l -0.254,0.01 -0.242,-0.09 c -1.484,-0.56 -2.539,-2.031 -2.898,-4.031 -0.363,-2.051 0.078,-4.809 1.863,-6.34 l 0.281,-0.25 5.989,-0.699 c 11.875,-1.488 17.734,-3.301 19.558,-6.031 4.133,-6.528 6.406,-30.559 6.406,-67.661 v -70.617 c 0,-5.133 0,-10 -0.632,-12.179 -12.176,12.488 -24.864,26.699 -40.84,44.589 -4.035,4.508 -8.281,9.27 -12.774,14.289 l -32.019,35.981 -0.395,0.43 c -32.761,36.738 -51.543,60.898 -55.816,71.799 l -0.363,0.93 -0.996,-0.15 c -4.004,-0.62 -9.465,-0.97 -14.981,-0.97 -5.781,0 -23.391,0 -37.207,0.98 l -0.344,0.03 -0.3,-0.15 c -1.418,-0.71 -2.364,-2.149 -2.668,-4.059 -0.379,-2.332 0.293,-4.821 1.679,-6.199 l 0.305,-0.313 6.023,-0.699 c 9.106,-1.141 15.93,-3.762 19.707,-7.531 6.457,-7.071 6.926,-13.379 6.926,-22.918 v -98.403 c 0.02,-17.379 0.059,-53.547 -4.18,-64.449 -1.308,-2.898 -5.871,-4.879 -13.515,-5.879 l -9.356,-1.039 -0.312,-0.312 c -1.199,-1.207 -1.809,-3.18 -1.629,-5.289 0.176,-2.11 1.07,-3.879 2.461,-4.86 l 0.348,-0.262 0.441,0.02 c 11.25,0.652 20.039,0.992 34.258,0.992 11.543,0 22.715,-0.281 38.554,-0.992 l 0.43,-0.02 0.352,0.262 c 1.281,0.91 2.129,2.371 2.402,4.121 0.32,2.078 -0.215,4.231 -1.465,5.899 l -0.32,0.441 -10.813,1.039 c -8.476,0.68 -14.257,2.731 -15.847,5.641 -3.723,6.578 -5.774,30.629 -5.774,67.711 v 71.937 c 0,7.18 0.149,14.942 1.172,19.52 4.863,-5.289 14.766,-16.989 23.582,-27.41 5.403,-6.391 10.422,-12.321 13.653,-16.028 l 76.574,-87.133 c 25.476,-29 37.695,-43.41 42.16,-49.738 l 0.379,-0.519 h 0.644 c 3.739,0 6.532,1.668 7.461,4.48 l 0.078,0.258 -0.031,0.281 c -0.445,3.879 -0.976,17.031 -0.976,57.61 v 78.878 l -0.008,4.442 c -0.059,17.019 -0.176,52.41 4.836,63 0.867,1.75 5.996,4.441 17.527,6.25 l 5.027,0.719 0.293,0.293 c 1.321,1.308 1.985,3.488 1.739,5.687 -0.223,1.961 -1.168,3.609 -2.606,4.511 z m -311.687,0 -0.391,-0.02 C 593.43,1000.34 584.52,1000 570.32,1000 c -12.703,0 -24.988,0.32 -37.554,0.99 l -0.422,0.02 -0.34,-0.23 c -1.211,-0.811 -2.082,-2.401 -2.348,-4.26 -0.281,-2.11 0.235,-4.129 1.43,-5.52 l 0.332,-0.391 8.766,-0.699 c 8.007,-0.64 13.515,-2.879 15.519,-6.301 3.938,-6.949 6.106,-30.988 6.106,-67.711 v -37.949 c 0,-71.531 -35.215,-86.539 -64.758,-86.539 -44.863,0 -65.75,27.602 -65.75,86.871 v 71.289 c 0,34.34 0.691,38.789 18.66,40.34 l 8.242,0.68 0.266,0.18 c 1.238,0.832 1.875,2.621 1.734,4.898 -0.113,1.871 -0.855,4.352 -2.535,5.192 l -0.285,0.14 -0.324,-0.01 c -15.641,-0.65 -26.739,-0.99 -40.543,-0.99 -13.606,0 -25.293,0.36 -40.879,0.99 l -0.324,0.01 -0.286,-0.14 c -1.679,-0.85 -2.41,-3.321 -2.527,-5.192 -0.137,-2.277 0.496,-4.066 1.738,-4.898 l 0.274,-0.18 8.562,-0.68 c 17.973,-1.551 18.664,-6 18.664,-40.34 v -77.89 c 0,-39.5 8.075,-63.821 26.184,-78.84 14.273,-12.25 35.32,-18.449 62.527,-18.449 25.625,0 50.137,9.379 63.953,24.48 15.774,16.899 23.442,42.981 23.442,79.738 v 37.289 c 0,18.243 0,56.192 4.5,66.813 1.765,3.82 7.695,6.578 15.476,7.199 l 8.442,0.699 0.332,0.403 c 1.219,1.457 1.812,3.84 1.48,5.898 -0.269,1.699 -1.14,3.078 -2.437,3.89 z m 1466.587,723.76 c -5.5,6.32 -13.49,4.54 -13.49,4.54 0.38,4.55 -0.16,5.49 -0.19,8.92 1.38,0 4.27,0.09 4.57,3.26 0.35,3.62 -5.21,2.73 -5.21,2.73 -1.01,6.11 -2.07,9.6 -3.96,14.85 8.45,-0.49 13.81,-2.32 17.07,-8.75 3.4,-6.68 3.95,-18.29 1.21,-25.55 z m -10.9,-25.88 c -4.86,-3.71 -9.7,-3.83 -11.64,-3.29 l -0.09,0.27 c 0.53,0.16 5.14,3.5 7.38,8.7 2.98,6.9 1.42,16.58 1.42,16.58 0,0 8.48,0.42 10.04,-4.93 1.19,-6.29 -2.51,-13.81 -7.11,-17.33 z m -38.34,21.64 c 1.25,9.47 2.64,12.55 2.64,12.55 0,0 1.41,2.55 4.5,2.71 3.1,0.17 5.93,1.95 5.82,4.51 -0.15,3.56 -8.35,2.36 -8.35,2.36 0,0 2.33,10.88 -3.86,23.64 2.97,2.35 8.78,2.48 14.83,0.48 9.85,-5.67 13.28,-35.47 9.6,-49.62 -8.53,11.58 -20.94,7.73 -25.18,3.37 z m -5.84,18.3 c 0,0 -3.6,2.72 -8.51,3.58 -6.62,1.15 -7.13,-4.46 -2.94,-5.63 4.62,-1.29 7.37,-2.52 9.7,-5.83 -0.19,-6.13 -2.14,-15.32 -2.14,-15.32 -5.89,7.8 -16.01,7.59 -22.27,0.92 -4.26,18.13 0.25,23.95 7.93,35.79 6.87,10.6 6.75,10.23 8.5,10.75 1.88,0.56 5.61,1.2 5.61,1.2 0,0 5.29,-3.32 5.38,-12.43 0.09,-9.11 -1.26,-13.03 -1.26,-13.03 z m -67.46,-22.28 c -6.26,6.67 -16.38,6.88 -22.27,-0.92 0,0 -1.95,9.19 -2.14,15.32 2.33,3.31 5.08,4.54 9.7,5.83 4.19,1.17 3.68,6.78 -2.94,5.63 -4.91,-0.86 -8.51,-3.58 -8.51,-3.58 0,0 -1.35,3.92 -1.26,13.03 0.09,9.11 5.38,12.43 5.38,12.43 0,0 3.74,-0.64 5.61,-1.2 1.75,-0.52 1.63,-0.15 8.51,-10.75 7.68,-11.84 12.18,-17.66 7.92,-35.79 z m -57.19,0.61 c -3.67,14.15 -0.24,43.95 9.61,49.62 6.04,2 11.86,1.87 14.83,-0.48 -6.19,-12.76 -3.87,-23.64 -3.87,-23.64 0,0 -8.19,1.2 -8.34,-2.36 -0.11,-2.56 2.72,-4.34 5.81,-4.51 3.1,-0.16 4.51,-2.71 4.51,-2.71 0,0 1.4,-3.08 2.64,-12.55 -4.24,4.36 -16.64,8.21 -25.19,-3.37 z m -1.51,-21.56 c -1.94,-0.54 -6.77,-0.42 -11.64,3.29 -4.6,3.52 -8.31,11.04 -7.11,17.33 1.56,5.35 10.04,4.93 10.04,4.93 0,0 -1.56,-9.68 1.42,-16.58 2.24,-5.2 6.85,-8.54 7.38,-8.7 z m -21.33,54.72 c 3.26,6.43 8.61,8.26 17.07,8.75 -1.89,-5.25 -2.95,-8.74 -3.96,-14.85 0,0 -5.56,0.89 -5.21,-2.73 0.3,-3.17 3.19,-3.26 4.57,-3.26 -0.04,-3.43 -0.56,-4.37 -0.19,-8.92 0,0 -7.99,1.78 -13.49,-4.54 -2.74,7.26 -2.19,18.87 1.21,25.55 z m 154.44,-63.4 0.07,0.81 c 0,0 4.42,4.3 4.23,12.35 -0.19,7.66 -3.26,12.01 -3.26,12.01 0,0 3.28,5.11 9.84,2.97 6.57,-2.14 6.37,-7.41 6.36,-9.27 -0.04,-13.13 -14.38,-18.5 -17.24,-18.87 z m -13.46,-0.44 c -6.57,1.88 -13.9,8.83 -16.14,13.57 -1.88,3.96 -0.73,9.9 3.43,11.67 6.17,2.63 10.15,-2.59 9.77,-6.34 -1.47,-14.61 3.46,-18.57 3.46,-18.57 z m -64.46,13.57 c -2.24,-4.74 -9.58,-11.69 -16.14,-13.57 l -0.52,0.33 c 0,0 4.93,3.96 3.46,18.57 -0.38,3.75 3.6,8.97 9.76,6.34 4.17,-1.77 5.32,-7.71 3.44,-11.67 z m -46.84,5.74 c -0.01,1.86 -0.21,7.13 6.35,9.27 6.57,2.14 9.85,-2.97 9.85,-2.97 0,0 -3.07,-4.35 -3.26,-12.01 -0.19,-8.05 4.23,-12.35 4.23,-12.35 l 0.08,-0.81 c -2.87,0.37 -17.21,5.74 -17.25,18.87 z m -79.67,272.1 c 2.97,2.15 7.25,6.04 9.34,8.32 2.1,2.29 3.92,3.98 3.92,3.98 0,0 3.26,1.12 4.14,0.88 0.87,-0.25 1.16,-0.93 1.16,-0.93 0,0 -3.38,-7.09 -7.8,-13.71 -4.43,-6.62 -8.18,-9.73 -8.18,-9.73 -0.44,-0.34 -3.36,-0.25 -5.07,3.16 -1.7,3.41 -0.48,5.89 2.49,8.03 z m 1.27,58.68 c 0,0 19.04,10.36 26.54,19.95 7.49,9.59 13.48,23.27 14.72,24.98 1.22,1.71 4.45,3.04 3.98,-0.76 -0.48,-3.79 -9.44,-29.66 -15.8,-38.29 -6.35,-8.64 -21.76,-16.98 -24.5,-17.74 -4.56,2.94 -5.89,9.68 -4.94,11.86 z m 12.88,35.74 c 0.38,3.82 0.79,12.47 2.86,16.53 0.52,0.55 2.13,1.35 2.74,1.73 0.49,-0.78 0.7,-2.43 0.8,-3.63 0.2,-2.34 2.95,-20.41 2.95,-20.41 0,0 0.2,-1.63 -3.15,-3.25 -3.35,-1.63 -5.18,-1.53 -5.59,-1.22 0,0 -1.01,6.19 -0.61,10.25 z m 12.28,108.64 c 1.24,0.69 5.8,-1.99 8.97,-2.25 1.75,-0.15 3.21,2.45 3.21,3.69 0,1.86 0.63,0.85 -8.41,6.08 -2.85,1.65 -2.06,6.73 -0.33,9.51 1.35,2.17 4.18,-0.8 6,-2.24 1.82,-1.44 4.86,-3.67 5.82,-3.3 0.96,0.38 2.22,4.96 1.75,6.03 -0.98,2.26 -7.06,3.98 -8.72,7.74 -1.27,2.85 0.34,4.94 1.64,7.74 0.64,1.38 5.75,3.37 8.28,4.22 2.22,0.74 14.06,-2.64 16.02,-4.45 2.4,-2.19 2.76,-5.52 5.43,-10.86 2.67,-5.33 6.22,-9.35 7.23,-10.78 1.82,-2.56 -5.78,-5.71 -8.46,-4.26 -4.09,2.23 -7.42,5.18 -10.52,7.96 -3.09,2.78 -4.73,-2.26 -3.92,-4.45 0.8,-2.19 2.83,-5.15 7.38,-8.58 3.33,-2.51 2.99,-3.38 2.12,-5.51 -1,-2.45 -2.62,-7.23 -3.28,-10.7 -0.49,-2.63 -1.74,-3.71 -3.57,-3.31 -16.51,3.62 -23.73,-1.06 -23.97,-3.36 -0.27,-2.62 6.32,-1.33 12.91,-2.3 9.02,-1.33 8.35,-2.15 9.83,-3.69 4.3,-4.52 4.37,-14.62 3.87,-15.64 -0.9,-1.81 -3.08,-2.76 -8.06,-6.47 -4.93,-3.67 -4.69,-4.86 -4.9,-9.22 -0.2,-4.17 2.41,-5 4.93,-0.77 2.24,3.78 9.06,9.29 12.63,10.03 3.58,0.75 6.61,-3.38 6.61,-3.38 0,0 0.97,-1.1 -1.89,-3.96 -6.14,-6.12 -7.77,-13.85 -5.91,-14.68 1.35,-0.6 1.87,2.02 5.81,7.49 4.17,5.78 7.73,6.66 7.73,6.66 0,0 3.26,-0.48 7.1,-1.66 3.84,-1.17 6.74,-3.25 6.74,-3.25 0,0 -3.29,-23.52 0.68,-24.19 2.97,-0.5 4.81,22.53 8.23,22.8 3.41,0.27 4.91,-6.78 6.99,-6.41 2.08,0.38 0.04,9.27 2.08,9.93 6.2,2.02 9.36,5.23 12.56,8.75 3.27,3.6 6.28,1.02 6.28,1.02 0,0 0.27,-11.85 -1.43,-11.27 -1.71,0.59 -1.34,3.74 -4.06,1.98 -2.73,-1.76 2.51,-10.84 4.27,-13.45 1.76,-2.62 1.71,-5.55 -2.46,-3.42 -4.16,2.14 -5.07,10.36 -7.1,5.66 -2.03,-4.7 1.23,-10.41 4.43,-13.34 3.21,-2.94 6.89,-3.52 6.89,-3.52 0,0 1.82,-5.3 -1.28,-7.94 -4.66,-3.97 -8.87,-4.31 -8.87,-4.31 0,0 -8.69,9.38 -9.23,19.62 -1.6,0.91 -2.47,-0.6 -2.87,-3.16 -0.92,-5.91 1.07,-18.31 -1.93,-19.33 -1.63,-0.55 -7.25,-0.73 -11.59,-0.48 -3.62,0.21 -4.63,1.8 -5.49,4.58 -0.85,2.78 0.22,6.74 -0.92,6.95 -1.99,0.38 -3.73,-1.97 -4.64,-5.02 -0.91,-3.04 -2.09,-3.48 -5.28,-3.29 -2,0.11 -4.34,1.04 -8.47,3.52 -5.41,3.25 3.12,18.83 4.99,21.72 1.87,2.88 -0.21,4.11 -3.79,0.53 -3.58,-3.58 -7.31,-11.58 -8.75,-14.52 -1.45,-2.94 -3.21,-2.89 -6.52,-0.16 -3.31,2.72 -8.01,3.58 -10.14,8.27 -2.14,4.7 -0.96,6.57 0.53,9.08 1.5,2.51 1.07,3.36 -0.31,3.36 -1.39,0 -3.21,-2.78 -3.21,-2.78 0,0 -2.2,-0.41 -3.51,1.4 -4.71,6.51 -5.49,17.79 -5.29,20.24 0.28,3.49 6.46,4.93 10.2,5.67 3.73,0.75 3.89,6.26 0.74,6.1 -3.15,-0.16 -5.31,-0.39 -9.2,-1.02 -4.45,-0.72 -5.35,10.97 -5.68,20.7 -0.31,9.45 1.39,16.71 3.08,17.65 z m -7.63,71.35 c -0.22,5.37 1.63,11.54 2.69,13.13 1.33,1.99 1.11,0.46 4.21,-5.86 2.44,-4.96 8.01,-8.14 12.25,-9.19 6.86,-1.69 12.01,0.19 24.7,-1.38 12.68,-1.56 18.26,-7.96 23.13,-12.48 6.08,-5.63 14.49,-10.94 13.37,-11.94 -1.77,-1.57 -8.27,-0.81 -16.25,6.8 -5.47,5.23 -10.01,6.69 -11.79,4.13 -2.33,-3.36 12.06,-14.56 10.65,-16.21 -1.42,-1.64 -9.69,7.02 -11.77,5.31 -0.99,-0.81 -0.72,-2.15 -0.12,-3.49 0.59,-1.35 4.55,-6.57 2.44,-8.37 -1.92,-1.64 -4.86,3.58 -7.09,6.86 -2.46,3.62 -6.59,4.52 -10.37,4.52 -2.84,0 -14.63,0.16 -24.26,7.17 -9.62,7.01 -11.56,15.63 -11.79,21 z m 91.22,1.73 c 9.81,2.83 17.56,-4.02 18.53,-8.07 -1.2,-2.76 -2.95,-2.96 -5.95,-1.55 -5.69,2.68 -13.56,1.79 -17.25,-7.57 -0.8,-2.02 -2.64,-1.99 -5.12,-1.05 -1.88,3.71 -0.2,15.36 9.79,18.24 z m 21.52,-23.39 c -0.36,-2.98 -2.8,-3.86 -4.66,-2.83 -4.49,2.49 -9.29,0.71 -10.6,-4.6 -0.66,-2.73 -2.47,-3.46 -5.57,-1.99 -2.17,3.68 -1.31,12.9 5.89,15.56 6.9,2.56 13.51,-2.32 14.94,-6.14 z m 19.21,28.03 c 6.05,0 14.19,-3.5 15.43,-12.14 -0.7,-3.7 -3.43,-3.19 -4.8,-1.46 -2.36,2.98 -5.82,4.97 -10.63,4.97 -4.8,0 -8.27,-1.99 -10.63,-4.97 -1.37,-1.73 -4.1,-2.24 -4.8,1.46 1.23,8.64 9.39,12.14 15.43,12.14 z m 34.14,-21.89 c 7.21,-2.66 8.48,-12.28 5.89,-15.56 -3.1,-1.47 -4.9,-0.74 -5.57,1.99 -1.3,5.31 -6.1,7.09 -10.59,4.6 -1.86,-1.03 -4.3,-0.15 -4.67,2.83 1.43,3.82 8.04,8.7 14.94,6.14 z m 6.59,17.25 c 9.98,-2.88 11.66,-14.53 9.78,-18.24 -2.47,-0.94 -4.32,-0.97 -5.12,1.05 -3.68,9.36 -11.56,10.25 -17.25,7.57 -2.99,-1.41 -4.74,-1.21 -5.94,1.55 0.96,4.05 8.72,10.9 18.53,8.07 z m 24.21,-17.51 c 4.87,4.52 10.45,10.92 23.14,12.48 12.68,1.57 17.84,-0.31 24.69,1.38 4.24,1.05 9.81,4.23 12.25,9.19 3.11,6.32 2.89,7.85 4.21,5.86 1.06,-1.59 2.91,-7.76 2.69,-13.13 -0.22,-5.37 -2.16,-13.99 -11.79,-21 -9.63,-7.01 -21.41,-7.17 -24.25,-7.17 -3.78,0 -7.91,-0.9 -10.38,-4.52 -2.23,-3.28 -5.16,-8.5 -7.08,-6.86 -2.11,1.8 1.84,7.02 2.44,8.37 0.59,1.34 0.87,2.68 -0.13,3.49 -2.08,1.71 -10.34,-6.95 -11.76,-5.31 -1.42,1.65 12.98,12.85 10.64,16.21 -1.78,2.56 -6.32,1.1 -11.79,-4.13 -7.97,-7.61 -14.48,-8.37 -16.25,-6.8 -1.12,1 7.3,6.31 13.37,11.94 z m 62.44,-73.22 c -0.33,-9.73 -1.23,-21.42 -5.68,-20.7 -3.88,0.63 -6.04,0.86 -9.19,1.02 -3.15,0.16 -3,-5.35 0.74,-6.1 3.74,-0.74 9.91,-2.18 10.2,-5.67 0.19,-2.45 -0.59,-13.74 -5.29,-20.24 -1.31,-1.81 -3.51,-1.4 -3.51,-1.4 0,0 -1.82,2.78 -3.21,2.78 -1.39,0 -1.81,-0.85 -0.32,-3.36 1.49,-2.51 2.67,-4.38 0.53,-9.08 -2.13,-4.69 -6.83,-5.55 -10.14,-8.27 -3.31,-2.73 -5.07,-2.78 -6.51,0.16 -1.45,2.94 -5.18,10.94 -8.76,14.52 -3.57,3.58 -5.66,2.35 -3.79,-0.53 1.87,-2.89 10.4,-18.47 4.99,-21.72 -4.12,-2.48 -6.46,-3.41 -8.47,-3.52 -3.18,-0.19 -4.37,0.25 -5.28,3.29 -0.9,3.05 -2.64,5.4 -4.64,5.02 -1.13,-0.21 -0.06,-4.17 -0.92,-6.95 -0.85,-2.78 -1.86,-4.37 -5.49,-4.58 -4.33,-0.25 -9.95,-0.07 -11.59,0.48 -3,1.02 -1.01,13.42 -1.93,19.33 -0.39,2.56 -1.27,4.07 -2.87,3.16 -0.54,-10.24 -9.23,-19.62 -9.23,-19.62 0,0 -4.21,0.34 -8.87,4.31 -3.1,2.64 -1.27,7.94 -1.27,7.94 0,0 3.68,0.58 6.88,3.52 3.21,2.93 6.46,8.64 4.43,13.34 -2.02,4.7 -2.93,-3.52 -7.1,-5.66 -4.16,-2.13 -4.21,0.8 -2.45,3.42 1.76,2.61 6.99,11.69 4.27,13.45 -2.73,1.76 -2.35,-1.39 -4.06,-1.98 -1.71,-0.58 -1.44,11.27 -1.44,11.27 0,0 3.02,2.58 6.28,-1.02 3.2,-3.52 6.37,-6.73 12.57,-8.75 2.04,-0.66 0,-9.55 2.08,-9.93 2.08,-0.37 3.57,6.68 6.99,6.41 3.42,-0.27 5.25,-23.3 8.22,-22.8 3.98,0.67 0.68,24.19 0.68,24.19 0,0 2.9,2.08 6.74,3.25 3.85,1.18 7.1,1.66 7.1,1.66 0,0 3.57,-0.88 7.73,-6.66 3.94,-5.47 4.47,-8.09 5.82,-7.49 1.85,0.83 0.22,8.56 -5.91,14.68 -2.87,2.86 -1.9,3.96 -1.9,3.96 0,0 3.03,4.13 6.61,3.38 3.57,-0.74 10.39,-6.25 12.64,-10.03 2.51,-4.23 5.12,-3.4 4.92,0.77 -0.21,4.36 0.04,5.55 -4.89,9.22 -4.99,3.71 -7.16,4.66 -8.06,6.47 -0.51,1.02 -0.44,11.12 3.87,15.64 1.47,1.54 0.81,2.36 9.82,3.69 6.59,0.97 13.19,-0.32 12.92,2.3 -0.24,2.3 -7.46,6.98 -23.97,3.36 -1.83,-0.4 -3.08,0.68 -3.58,3.31 -0.66,3.47 -2.28,8.25 -3.28,10.7 -0.87,2.13 -1.21,3 2.12,5.51 4.55,3.43 6.59,6.39 7.39,8.58 0.8,2.19 -0.83,7.23 -3.93,4.45 -3.09,-2.78 -6.42,-5.73 -10.52,-7.96 -2.68,-1.45 -10.27,1.7 -8.46,4.25 1.01,1.44 4.56,5.46 7.23,10.79 2.67,5.34 3.04,8.67 5.43,10.86 1.96,1.81 13.8,5.19 16.02,4.45 2.53,-0.85 7.65,-2.84 8.29,-4.22 1.29,-2.8 2.9,-4.89 1.64,-7.74 -1.67,-3.76 -7.74,-5.48 -8.72,-7.74 -0.47,-1.07 0.79,-5.65 1.74,-6.03 0.96,-0.37 4.01,1.86 5.82,3.3 1.82,1.44 4.65,4.41 6.01,2.24 1.73,-2.78 2.51,-7.86 -0.34,-9.51 -9.04,-5.23 -8.41,-4.22 -8.41,-6.08 0,-1.24 1.47,-3.84 3.22,-3.7 3.17,0.27 7.72,2.95 8.97,2.26 1.68,-0.94 3.38,-8.2 3.07,-17.65 z m 3.61,-72.73 c 0.6,-0.38 2.22,-1.18 2.74,-1.73 2.06,-4.06 2.47,-12.71 2.85,-16.53 0.41,-4.06 -0.61,-10.25 -0.61,-10.25 -0.4,-0.31 -2.23,-0.41 -5.58,1.22 -3.36,1.62 -3.15,3.25 -3.15,3.25 0,0 2.74,18.07 2.94,20.41 0.11,1.2 0.32,2.85 0.81,3.63 z m 18.48,-54 c 0.94,-2.18 -0.39,-8.92 -4.94,-11.86 -2.75,0.76 -18.15,9.1 -24.51,17.74 -6.36,8.63 -15.32,34.5 -15.79,38.29 -0.48,3.8 2.75,2.47 3.98,0.76 1.24,-1.71 7.22,-15.39 14.72,-24.98 7.49,-9.59 26.54,-19.95 26.54,-19.95 z m 1.27,-58.68 c 2.96,-2.14 4.18,-4.62 2.48,-8.03 -1.7,-3.41 -4.62,-3.5 -5.06,-3.16 0,0 -3.75,3.11 -8.18,9.73 -4.43,6.62 -7.81,13.71 -7.81,13.71 0,0 0.29,0.68 1.17,0.93 0.87,0.24 4.14,-0.88 4.14,-0.88 0,0 1.82,-1.69 3.91,-3.98 2.09,-2.28 6.38,-6.17 9.35,-8.32 z m -50.2,-209.22 c -1.7,-1.33 -4.27,-3.01 -6.43,-1.42 26.39,76.79 36.17,190.81 37.25,202.57 0,0 -0.4,1.41 1.29,0.95 1.68,-0.47 6.08,-7.93 9.09,-11.09 3.01,-3.16 -14.32,-135.27 -41.2,-191.01 z m -56.27,12.32 c -7.73,-7.23 -8.5,-4.09 -19.31,-12.41 -10.24,-7.88 -9.65,-15.21 -13.1,-16.11 0,0 -2.18,11.45 3.51,20.53 5.69,9.07 17.52,15.66 21.93,20.65 4.41,4.98 7.55,8.37 8.44,12.53 0.9,4.15 3.52,1.34 3.65,-0.2 0.12,-1.53 3.61,-16.84 -5.12,-24.99 z m -36.9,-6.12 c -1.01,1.83 -1.01,4.49 -0.36,12.01 0.64,7.51 3.48,10.14 6.6,11.79 3.11,1.65 10.8,5.89 16.78,15.13 8.09,12.52 6.87,20.56 6.87,20.56 l 0.82,0.65 c 0,0 4.02,-3.72 3.51,-14.23 -0.55,-11.45 -3.89,-20.45 -15.7,-28.86 -13.6,-9.68 -17.23,-16.78 -17.23,-16.78 0,0 -0.28,-2.11 -1.29,-0.27 z m -7.38,36.83 c -7.91,0 -14.67,6.16 -15.67,13.42 -0.8,5.81 1.03,12.41 3.66,18.4 2.63,5.98 7.32,10.55 7.32,10.55 0,0 0.86,-2.86 0.97,-7.5 0.2,-7.73 -2.98,-14.64 -4.54,-16.93 0.29,-1.96 1.81,-2.84 3.01,-2.78 3.79,0.18 2.71,8.99 5.94,8.99 2.12,-9.38 -1.8,-11.53 -2.68,-13.31 1.35,-1.04 2.12,-1.78 3.55,-1.32 5.7,1.82 7.8,8.29 7.05,13.01 -0.98,6.15 -4.86,8.77 -6.1,12.18 0.04,4.65 2.19,7.66 2.19,7.66 0,0 4.99,-3.55 7.62,-9.53 2.63,-5.99 4.15,-13.61 3.36,-19.42 -1,-7.26 -7.77,-13.42 -15.68,-13.42 z m -7.37,-36.83 c -1.01,-1.84 -1.28,0.27 -1.28,0.27 0,0 -3.64,7.1 -17.24,16.78 -11.81,8.41 -15.14,17.41 -15.7,28.86 -0.51,10.51 3.51,14.23 3.51,14.23 l 0.82,-0.65 c 0,0 -1.22,-8.04 6.87,-20.56 5.98,-9.24 13.67,-13.48 16.79,-15.13 3.11,-1.65 5.95,-4.28 6.6,-11.79 0.64,-7.52 0.64,-10.18 -0.37,-12.01 z m -4.49,-22.4 c -3.45,0.9 -2.86,8.23 -13.11,16.11 -10.81,8.32 -11.57,5.18 -19.31,12.41 -8.73,8.15 -5.24,23.46 -5.11,24.99 0.13,1.54 2.75,4.35 3.64,0.2 0.9,-4.16 4.03,-7.55 8.44,-12.53 4.42,-4.99 16.24,-11.58 21.93,-20.65 5.69,-9.08 3.52,-20.53 3.52,-20.53 z m -108.22,257.44 c -6.93,-6.64 -20.09,-10.97 -20.09,-10.97 0,0 -2.69,-1.34 -4.12,1.6 -1.42,2.95 -0.92,11.76 -0.92,11.76 0,0 18.46,7.34 26.81,17.59 5.9,7.24 7.67,12.89 8.33,15.26 0.67,2.37 2.85,4.17 2.95,1.71 0.09,-2.47 -0.64,-25.13 -12.96,-36.95 z m 19.88,12.76 c 0.09,0.22 2.55,2.19 2.5,1.52 -6.4,-93.65 20.02,-237.54 20.47,-239.9 1.27,-6.52 -5.41,-15.35 -6.19,-13.49 -20.27,48.49 -34.83,193.36 -35.14,212.1 -0.12,7.58 9.14,17.13 18.36,39.77 z m 61.95,160.39 c -1.38,3.61 5.3,6.17 8.96,6.93 5,1.04 9.29,-0.28 12.44,-1.56 1.45,-0.6 3.38,-3.09 0.07,-3.47 -3.31,-0.39 -5.12,-0.26 -8.29,-0.93 -5.27,-1.11 -11.74,-4.71 -13.18,-0.97 z m -11.3,-0.61 c 14.09,-4.77 19.33,-20.97 14.53,-35.19 -4.81,-14.22 -19.32,-21.52 -33.4,-16.75 -14.08,4.76 -20.14,20.59 -15.33,34.81 4.81,14.22 20.12,21.89 34.2,17.13 z m 10.68,23.47 c -1.13,0.17 -8.81,3.35 -21.87,-1.97 -5.88,-2.4 -10.16,-1.55 -10.94,-0.23 -3.46,5.85 13.91,9.25 18.32,9.44 10.68,0.45 14.4,-3.96 15.33,-5.26 0.85,-1.19 0.29,-2.15 -0.84,-1.98 z m 11.09,-7.37 c 1.97,-1.09 1.46,-3.75 -1.98,-3.41 -5.15,0.52 -6.56,0.68 -15.3,-2.18 -9.92,-3.24 -13.77,-0.46 -14.75,0.16 -0.99,0.61 -3.29,4.76 0.31,4.76 7.96,0.01 12.77,2.66 18.44,3.23 5.67,0.56 11.06,-1.32 13.28,-2.56 z m 14.53,15.5 c 0.38,-2.41 -1.16,-4.06 -2.62,-3.29 -2.14,4.46 -10.41,1.3 -7.67,-4.53 -0.11,-1.33 -2.24,-2.93 -4.57,-1.13 -3.31,2.54 -5.49,10.2 1.47,14.28 5.48,3.2 12.53,0.09 13.39,-5.33 z m 21.89,15.86 c -1.94,1.45 -4.26,3.84 -8.63,3.84 -4.36,0 -6.69,-2.39 -8.64,-3.84 -2.61,-1.95 -3.98,0 -5.03,1.48 0.49,4.66 6.65,10.69 13.67,10.69 7.03,0 13.18,-6.03 13.67,-10.69 -1.05,-1.48 -2.42,-3.43 -5.04,-1.48 z m 19.52,-24.78 c -2.32,-1.81 -4.46,-0.22 -4.58,1.11 2.72,5.83 -5.56,8.96 -7.69,4.49 -1.45,-0.77 -3,0.87 -2.63,3.29 0.84,5.41 7.87,8.56 13.37,5.37 6.97,-4.04 4.82,-11.7 1.53,-14.26 z m 12.9,-4.02 c 5.67,-0.57 10.48,-3.22 18.44,-3.23 3.6,0 1.29,-4.15 0.31,-4.76 -0.99,-0.62 -4.84,-3.4 -14.76,-0.16 -8.73,2.86 -10.15,2.7 -15.29,2.18 -3.44,-0.34 -3.95,2.32 -1.99,3.41 2.23,1.24 7.62,3.12 13.29,2.56 z m 30.62,2.61 c -0.78,-1.32 -5.07,-2.17 -10.94,0.23 -13.06,5.32 -20.74,2.14 -21.87,1.97 -1.13,-0.17 -1.69,0.79 -0.85,1.98 0.93,1.3 4.66,5.71 15.33,5.26 4.42,-0.19 21.79,-3.59 18.33,-9.44 z m -22.13,-21.27 c 14.08,4.76 29.4,-2.91 34.21,-17.13 4.81,-14.22 -1.25,-30.05 -15.34,-34.81 -14.08,-4.77 -28.58,2.53 -33.39,16.75 -4.81,14.22 0.44,30.42 14.52,35.19 z m -24.48,1.58 c -3.17,0.67 -4.98,0.54 -8.29,0.93 -3.32,0.38 -1.39,2.87 0.06,3.47 3.15,1.28 7.45,2.6 12.44,1.56 3.67,-0.76 10.35,-3.32 8.97,-6.93 -1.44,-3.74 -7.92,-0.14 -13.18,0.97 z m 49.51,-225.73 c -0.33,2.79 -0.76,7.4 1.62,8.13 3.06,-1.62 6.5,-6.3 8.95,-11.73 3.82,-8.47 5.43,-19.25 -1.28,-22.22 -12.05,-5.35 -21.68,10.38 -23.71,20.28 -1.73,8.4 3.57,10.39 3.57,10.39 0,0 2.76,-6.41 5.03,-10.29 2.72,-4.64 6.52,-9.54 9.06,-8.72 2.54,0.82 -2.37,6.81 -3.24,14.16 z m -56.19,17.84 c 0.51,3.81 3.86,4.4 3.86,4.4 0,0 2.05,-10.83 4.81,-17.19 2.77,-6.37 9.45,-13.72 12.53,-12.24 3.09,1.47 -0.71,5.1 -3.09,12.86 -2.86,9.33 -1.03,17.68 -1.03,17.68 0,0 2.36,0.75 3.64,-2.82 6.42,-17.96 8.78,-16.78 13.1,-25.42 4.21,-8.43 1.76,-17.39 -8.18,-19.21 -24.52,-4.48 -26.43,35.89 -25.64,41.94 z m -5.77,-92.24 c 0,0 8.33,-19.3 13.36,-17.18 2.93,1.23 -6.76,10.5 -6.92,21.24 1.12,2.07 3.7,1.55 3.7,1.55 0,0 2.6,-3.88 6.27,-6.68 5.25,-4.02 18.5,-28.06 4.08,-33.97 -15.52,-6.37 -25.63,17.5 -25.19,26.29 0.44,8.79 4.7,8.75 4.7,8.75 z m -33.15,39.93 c 1.07,24.01 8.85,31.6 8.85,31.6 0,0 1.75,-2.26 1.55,-4.66 -0.14,-1.75 -2.97,-12.68 -3.03,-18.54 -0.07,-5.85 1.81,-7.62 3.89,-6.77 2.09,0.84 -1.68,8.2 3.26,8.63 3.33,0.29 4.77,-8.37 4.89,-16.89 0.14,-9.17 -2,-12.71 -2,-12.71 3.38,-2.75 7.42,2.62 8.25,11.76 0.76,8.32 -0.42,13.55 1.7,13.55 1.95,0 1.87,-3.41 1.79,-7.53 -0.06,-3.23 -0.26,-6.98 0.85,-7.72 1.88,-1.24 4.79,7.02 4.79,14.34 0,5.86 -2.01,11.98 -2.15,13.73 -0.2,2.4 0.75,4.44 0.75,4.44 0,0 6.6,0.78 7.67,-23.23 0.69,-15.31 -6.7,-34.17 -20.53,-34.17 -13.82,0 -21.21,18.86 -20.53,34.17 z m -8.5,-41 c 3.66,2.8 6.27,6.68 6.27,6.68 0,0 2.58,0.52 3.7,-1.55 -0.16,-10.74 -9.85,-20.01 -6.93,-21.24 5.04,-2.12 13.37,17.18 13.37,17.18 0,0 4.26,0.04 4.69,-8.75 0.44,-8.79 -9.66,-32.66 -25.18,-26.29 -14.42,5.91 -1.17,29.95 4.08,33.97 z m 9.61,163.07 c 1.8,3.67 4.42,1.35 4.42,1.35 0,0 -2.38,-8.65 -1.35,-18.1 0.68,-6.27 2.39,-10.2 4.67,-10.06 2.57,0.15 2.4,4.89 2.48,9.67 0.03,1.83 2.58,2.72 2.96,0.94 1.39,-6.38 -1.72,-17.67 1.47,-29.19 1.25,-4.48 6.28,-9.55 8.1,-7.27 0.8,0.99 0.68,2.6 0.27,4.43 -0.38,1.71 -1.01,3.63 -1.42,5.42 -2.95,12.73 1.29,30.32 3.91,37.43 0.63,1.71 3.15,-2.1 2.99,-5.72 -0.17,-3.89 -0.93,-12.6 1.02,-22.15 0.87,-4.29 4.32,-1.76 6.12,5.53 2.69,10.89 -1.21,29.07 -1.21,29.07 0,0 2.62,2.32 4.42,-1.35 1.8,-3.67 7.2,-30.22 3,-47.31 -2.76,-11.23 -8.07,-22.18 -22.43,-22.18 v 0 c -14.35,0 -19.67,10.95 -22.42,22.18 -4.2,17.09 1.2,43.64 3,47.31 z m 11.27,137.74 c 1.11,-0.59 0.82,-1.6 0.1,-2.62 -3.93,-5.47 -9.31,-11.87 -14.25,-8.39 -1.64,1.15 -0.47,4.76 5.15,8.12 1.82,1.09 6.79,4.09 9,2.89 z m 17.44,32.39 c -0.76,-4.58 -1.93,-5.83 -2.84,-6.95 -0.57,-0.7 -2.22,0.05 -1.9,1.07 0.32,1.02 1.04,7.46 -4.55,7.46 -5.59,0 -4.86,-6.44 -4.55,-7.46 0.32,-1.02 -1.33,-1.77 -1.9,-1.07 -0.91,1.12 -2.08,2.37 -2.84,6.95 -0.76,4.58 3.05,10.39 9.29,10.39 6.24,0 10.06,-5.81 9.29,-10.39 z m -1.24,-35.01 c -0.73,1.02 -1.01,2.03 0.09,2.62 2.22,1.2 7.18,-1.8 9,-2.89 5.63,-3.36 6.8,-6.97 5.16,-8.12 -4.94,-3.48 -10.32,2.92 -14.25,8.39 z M 1962.25,2170 c 0.07,1.07 1.76,11.59 7.81,11.59 6.05,0 7.74,-10.52 7.81,-11.59 0.14,-2.18 -1.52,-3.87 -3.52,-3.06 -3.13,1.26 -0.94,8.02 -4.29,8.02 -3.35,0 -1.16,-6.76 -4.29,-8.02 -2,-0.81 -3.66,0.88 -3.52,3.06 z m 2.59,-26.79 c 1.27,-5.36 1.32,-14.73 1.32,-31.28 0,-10.52 2.54,-19.13 3.9,-19.13 1.36,0 3.9,8.61 3.9,19.13 0,16.55 0.04,25.92 1.32,31.28 0.26,1.09 5.66,0.42 11.41,-4.32 5.76,-4.72 2.57,-25.07 0.52,-34.63 -1.77,-8.21 -7.73,-25.86 -17.15,-32.42 -9.42,6.56 -15.39,24.21 -17.15,32.42 -2.06,9.56 -5.24,29.91 0.51,34.63 5.76,4.74 11.16,5.41 11.42,4.32 z m -38.81,-209.01 c -9.94,1.82 -12.39,10.78 -8.17,19.21 4.31,8.64 6.67,7.46 13.1,25.42 1.27,3.57 3.64,2.82 3.64,2.82 0,0 1.82,-8.35 -1.03,-17.68 -2.39,-7.76 -6.19,-11.39 -3.1,-12.86 3.08,-1.48 9.76,5.87 12.53,12.24 2.76,6.36 4.81,17.19 4.81,17.19 0,0 3.35,-0.59 3.86,-4.4 0.79,-6.05 -1.12,-46.42 -25.64,-41.94 z m -33.79,9.94 c 2.54,-0.82 6.34,4.08 9.06,8.72 2.27,3.88 5.03,10.29 5.03,10.29 0,0 5.29,-1.99 3.57,-10.39 -2.04,-9.9 -11.66,-25.63 -23.71,-20.28 -6.71,2.97 -5.11,13.75 -1.28,22.22 2.45,5.43 5.88,10.11 8.95,11.73 2.38,-0.73 1.95,-5.34 1.62,-8.13 -0.87,-7.35 -5.78,-13.34 -3.24,-14.16 z m 27.47,-51.76 c -9.1,-9.67 -18.3,-12.27 -23.57,-8.71 -9.4,6.36 -6.41,16.58 7.47,31.66 7.95,8.64 12.65,13.41 12.65,13.41 0,0 1.59,0.63 2.07,-0.62 0,0 -3.77,-13.36 -5.5,-16.06 -1.73,-2.69 -4.8,-8.37 -4.56,-9.04 0.24,-0.67 1.85,-2.14 3.45,-0.63 1.58,1.52 5.09,8.1 7.51,10.38 2.27,2.14 6.78,8.96 9.28,10.32 0,0 0.82,-0.01 1.05,-0.14 1.62,-2.63 0.46,-19.61 -9.85,-30.57 z m -7.94,-97.69 c 0,-6.89 -1.93,-11.15 -4.97,-11.15 -3.03,0 -4.96,4.37 -4.96,11.09 0,7.7 2.55,29.78 3.48,35.01 h 1.48 c 0,0 4.97,-28.06 4.97,-34.95 z m -11.88,50.02 c -4.72,4.72 -2.86,12.52 1.8,18.65 4.27,5.61 10.96,9.92 12.22,10.76 2.64,1.76 3.24,0.75 3.75,0.2 0,0 -11.41,-16.9 -7.92,-19.5 3.48,-2.61 13.46,12.93 13.46,12.93 1.21,-1.36 1.36,-2.21 0.48,-4.77 -0.26,-0.74 -2.71,-7.3 -7.2,-12.79 -4.85,-5.94 -11.9,-10.17 -16.59,-5.48 z m 120.52,47.67 c -10.31,10.96 -11.47,27.94 -9.85,30.57 0.23,0.13 1.05,0.14 1.05,0.14 2.49,-1.36 7.01,-8.18 9.28,-10.32 2.42,-2.28 5.93,-8.86 7.51,-10.38 1.6,-1.51 3.21,-0.04 3.45,0.63 0.24,0.67 -2.83,6.35 -4.56,9.04 -1.73,2.7 -5.5,16.06 -5.5,16.06 0.48,1.25 2.07,0.62 2.07,0.62 0,0 4.7,-4.77 12.65,-13.41 13.88,-15.08 16.87,-25.3 7.47,-31.66 -5.28,-3.56 -14.48,-0.96 -23.57,8.71 z m 17.87,-97.75 c 0,-6.72 -1.93,-11.09 -4.97,-11.09 -3.03,0 -4.96,4.26 -4.96,11.15 0,6.89 4.96,34.95 4.96,34.95 h 1.49 c 0.93,-5.23 3.48,-27.31 3.48,-35.01 z m -14.64,55.56 c -4.49,5.49 -6.95,12.05 -7.2,12.79 -0.88,2.56 -0.73,3.41 0.48,4.77 0,0 9.98,-15.54 13.46,-12.93 3.49,2.6 -7.92,19.5 -7.92,19.5 0.51,0.55 1.1,1.56 3.75,-0.2 1.26,-0.84 7.94,-5.15 12.22,-10.76 4.66,-6.13 6.51,-13.93 1.79,-18.65 -4.69,-4.69 -11.73,-0.46 -16.58,5.48 z m 53.55,196.67 c 0.09,2.46 2.28,0.66 2.94,-1.71 0.66,-2.37 2.43,-8.02 8.33,-15.26 8.35,-10.25 26.82,-17.59 26.82,-17.59 0,0 0.5,-8.81 -0.93,-11.76 -1.42,-2.94 -4.11,-1.6 -4.11,-1.6 0,0 -13.16,4.33 -20.09,10.97 -12.32,11.82 -13.06,34.48 -12.96,36.95 z m 11.44,-63.96 c -0.31,-18.74 -14.88,-163.61 -35.15,-212.1 -0.77,-1.86 -7.46,6.97 -6.19,13.49 0.45,2.36 26.88,146.25 20.47,239.9 -0.04,0.67 2.42,-1.3 2.51,-1.52 9.22,-22.64 18.48,-32.19 18.36,-39.77 z m -31.26,89.99 c 0.99,1.86 3.49,0.27 4.6,-0.81 2.44,-2.39 15.59,-24.39 4.36,-29.47 -11.58,-5.23 -21.46,17.43 -22.62,24 -0.94,5.29 2.73,4.07 2.73,4.07 0,0 8.55,-13.78 11.8,-12.27 3.19,1.48 -0.87,14.48 -0.87,14.48 z M 2043,2037.13 c -1.35,4.35 -0.53,8.55 -0.53,8.55 1.28,1.12 5.48,-4.5 5.48,-4.5 0,0 0.52,-4.28 2.55,-7.65 2.02,-3.38 8.32,-13.12 3.22,-16.27 -5.1,-3.15 -11.48,-1.56 -17.47,8.92 -6.22,10.87 -6.15,26.92 -5.55,28.57 0.6,1.65 2.25,1.05 2.55,-0.83 0.3,-1.87 1.65,-8.69 5.55,-16.87 3.9,-8.17 6.07,-6.6 6.07,-6.6 0,0 -0.52,2.33 -1.87,6.68 z m -12.5,-29.54 c -2.17,6.07 -2.02,9.44 -2.02,9.44 0,0 2.02,1.58 4.05,-2.1 2.02,-3.67 7.57,-8.7 15.37,-14.25 6.19,-4.4 8.4,-15.52 0.75,-21.59 -4.85,-3.84 -14.4,-3.07 -23.77,6.82 -9.38,9.9 -12.68,25.65 -12.75,28.35 -0.07,2.7 1.5,2.47 1.5,2.47 0,0 5.92,-8.25 10.87,-13.57 4.95,-5.32 7.65,-7.87 11.25,-7.8 3.6,0.08 -3.07,6.15 -5.25,12.23 z m -21.99,55.22 c 0,0 1.32,0.21 3.29,-1.15 2.99,-2.09 7.33,-6.77 9.55,-13.11 3.38,-9.59 -0.04,-13.91 -3.9,-15.74 -5.84,-2.77 -22.29,5.66 -24.21,28.8 -0.23,2.69 2.69,2.67 2.69,2.67 0,0 7.78,-20.32 15.3,-17.66 3.6,1.27 -2.72,16.19 -2.72,16.19 z m -79.62,-16.19 c 7.52,-2.66 15.31,17.67 15.31,17.67 0,0 2.91,0.01 2.69,-2.68 -1.93,-23.14 -18.37,-31.57 -24.22,-28.8 -3.86,1.83 -7.27,6.15 -3.9,15.74 2.22,6.34 6.56,11.02 9.56,13.11 1.96,1.36 3.28,1.15 3.28,1.15 0,0 -6.32,-14.92 -2.72,-16.19 z m -24.52,-51.26 c 3.6,-0.07 6.3,2.48 11.25,7.8 4.95,5.32 10.87,13.57 10.87,13.57 0,0 1.58,0.23 1.5,-2.47 -0.07,-2.7 -3.37,-18.45 -12.74,-28.35 -9.38,-9.89 -18.93,-10.66 -23.77,-6.82 -7.65,6.07 -5.45,17.19 0.75,21.59 7.79,5.55 13.34,10.58 15.37,14.25 2.02,3.68 4.05,2.1 4.05,2.1 0,0 0.15,-3.37 -2.03,-9.44 -2.17,-6.08 -8.85,-12.15 -5.25,-12.23 z m -3.04,41.69 c 3.9,8.18 5.25,15 5.55,16.87 0.29,1.88 1.94,2.48 2.54,0.83 0.6,-1.65 0.68,-17.7 -5.54,-28.57 -6,-10.48 -12.38,-12.07 -17.47,-8.92 -5.1,3.15 1.19,12.89 3.22,16.27 2.02,3.37 2.55,7.65 2.55,7.65 0,0 4.2,5.62 5.47,4.5 0,0 0.83,-4.2 -0.52,-8.55 -1.35,-4.35 -1.88,-6.68 -1.88,-6.68 0,0 2.18,-1.57 6.08,6.6 z m -19.45,21.36 c 3.26,-1.51 11.8,12.27 11.8,12.27 0,0 3.67,1.22 2.74,-4.07 -1.17,-6.57 -11.05,-29.23 -22.62,-24 -11.24,5.08 1.92,27.08 4.36,29.47 1.11,1.08 3.61,2.67 4.59,0.81 0,0 -4.06,-13 -0.87,-14.48 z m -53.57,-98.73 c 3.02,3.16 7.41,10.62 9.1,11.09 1.69,0.46 1.29,-0.95 1.29,-0.95 1.08,-11.76 10.85,-125.78 37.25,-202.57 -2.17,-1.59 -4.51,-1.16 -6.21,0.17 -27.29,61.97 -44.44,189.1 -41.43,192.26 z m -14.33,23.28 c -1.97,-3 -6.48,-6.58 -6.59,-12.25 -0.12,-5.67 7.92,-10.33 9.45,-12.92 4.04,-43 26.32,-161.01 47.05,-198.72 -7.64,-10.98 -8.63,-20.52 -5.98,-37.33 -3.39,-1.7 -6.68,-3.68 -9.81,-5.98 l -17.19,-12.66 c 10.04,-3.06 19.57,-7.78 28.23,-14.15 l 73.52,-54.11 c 11.32,6.86 24.18,12.93 37.57,12.93 15.61,0 25.72,-6.86 39.88,-16.42 35.74,-24.11 35.74,-24.11 35.74,-24.11 0,0 17.29,11.41 17.31,11.43 l -105.07,75.36 c 1.36,2.92 3.53,8.45 3.65,14.23 -4.59,9.83 -5.78,24.81 -4.21,27.09 0.89,1.3 5.33,-2.31 8.87,-7.87 2.83,-4.45 3.66,-4.28 3.66,-4.28 0,0 0.83,-0.17 3.66,4.28 3.54,5.56 7.98,9.17 8.87,7.87 1.58,-2.28 0.38,-17.26 -4.21,-27.09 0.12,-5.78 2.39,-12.34 3.76,-14.72 l 43.54,-32.05 10.34,-7.68 c 0,0 33.6,26.52 44.97,35.15 8.56,6.49 18.18,11.08 28.23,14.14 l -17.2,12.66 c -3.13,2.3 -6.42,4.28 -9.81,5.98 2.65,16.81 1.66,26.35 -5.98,37.33 20.73,37.71 43.01,155.72 47.05,198.72 1.53,2.59 9.58,7.25 9.46,12.92 -0.12,5.67 -4.63,9.25 -6.59,12.25 -1.97,3.01 -1.39,4.74 -1.97,13.42 -0.58,8.67 0.46,17.92 0.46,17.92 0,0 6.71,8.44 5.55,17.58 -1.15,9.14 -9.59,15.49 -9.59,15.49 0,0 -2.78,17.93 -5.78,40.83 -3.01,22.89 -7.76,40.23 -7.76,40.23 0,0 2.56,14.98 1.28,31.69 -1.66,21.57 -13.57,41.46 -12.69,49.36 1.52,13.65 7.2,12.46 10.38,35.98 2.67,19.79 -8.91,33.31 -8.91,33.31 0,0 -3.47,-16.77 -11.68,-20.01 -8.21,-3.24 -11.56,-0.35 -20.81,-0.93 -4.51,-0.28 -11.79,-0.81 -21.39,-5.66 -15.85,9.25 -20.7,8.44 -34.47,7.74 -13.76,-0.69 -14.68,0.23 -26.59,3.13 -1.45,0.35 -7.2,1.75 -12.12,1.6 -4.92,0.15 -10.66,-1.25 -12.12,-1.6 -11.91,-2.9 -12.83,-3.82 -26.59,-3.13 -13.76,0.7 -18.62,1.51 -34.46,-7.74 -9.6,4.85 -16.89,5.38 -21.39,5.66 -9.26,0.58 -12.61,-2.31 -20.82,0.93 -8.21,3.24 -11.68,20.01 -11.68,20.01 0,0 -11.58,-13.52 -8.91,-33.31 3.18,-23.52 8.86,-22.33 10.38,-35.98 0.88,-7.9 -11.03,-27.79 -12.68,-49.36 -1.29,-16.71 1.27,-31.69 1.27,-31.69 0,0 -4.74,-17.34 -7.75,-40.23 -3.01,-22.9 -5.78,-40.83 -5.78,-40.83 0,0 -8.45,-6.35 -9.6,-15.49 -1.16,-9.14 5.55,-17.58 5.55,-17.58 0,0 1.04,-9.25 0.46,-17.92 -0.58,-8.68 0,-10.41 -1.96,-13.42 z m 49.51,251.79 c 13.13,0.08 16.27,-2.39 19.53,-5.36 0.53,-0.49 2.3,1.82 0.78,3.95 -1.94,2.71 -4.32,6.46 -5.78,7.18 -3.16,1.56 -7.39,1.89 -10.8,1.89 -6.15,0 -9.83,0.66 -14.22,2.29 -2.82,1.05 -4.49,2.2 -6.65,4.16 -1.18,-0.17 -1.16,-1.88 -0.65,-2.86 0.37,-0.7 4.83,-11.33 17.79,-11.25 z m 174.6,-95.18 c 8.8,3.92 11.59,14.86 7.45,24.16 -1.68,3.77 -5.22,5.39 -4.38,3.5 3.41,-7.64 1.11,-16.64 -6.12,-19.86 -7.23,-3.22 -15.4,0.19 -18.81,7.84 -1.54,3.45 -3.53,-0.5 -1.03,-6.11 4.15,-9.3 14.09,-13.46 22.89,-9.53 z m 19.02,89.82 c 3.26,2.97 6.39,5.44 19.52,5.36 12.96,-0.08 17.43,10.55 17.79,11.25 0.51,0.98 0.54,2.69 -0.65,2.86 -2.16,-1.96 -3.82,-3.11 -6.65,-4.16 -4.39,-1.63 -8.07,-2.29 -14.22,-2.29 -3.4,0 -7.64,-0.33 -10.8,-1.89 -1.45,-0.72 -3.84,-4.47 -5.77,-7.18 -1.53,-2.13 0.25,-4.44 0.78,-3.95 z m -354.52,-593.42 c 16.98,-16.51 35.52,-31.38 55.23,-44.5 0.17,0.13 2.55,1.88 35.85,26.39 12.58,9.25 27.48,14.14 43.09,14.14 15.61,0 30.51,-4.89 43.09,-14.14 l 14.59,-10.74 25.87,19.04 c 0,0 0,0 -71.43,48.56 -28.78,19.57 -66.22,20.63 -94.25,0 l -53.14,-37.71 c 0.37,-0.35 0.74,-0.69 1.1,-1.04 z m 199.44,503.6 c 8.81,-3.93 18.75,0.23 22.89,9.53 2.5,5.61 0.51,9.56 -1.03,6.11 -3.41,-7.65 -11.58,-11.06 -18.81,-7.84 -7.23,3.22 -9.53,12.22 -6.12,19.86 0.84,1.89 -2.7,0.27 -4.37,-3.5 -4.15,-9.3 -1.36,-20.24 7.44,-24.16 z m 79.72,-611.7 c -7.32,5.05 -31.36,21.65 -110.38,76.21 -21.04,14.52 -47.93,14.15 -69.21,0 -29.05,-19.3 -31.26,-20.77 -31.43,-20.88 63.03,-38.3 137.22,-57.99 211.02,-55.33 z m -46.13,91.78 -29.1,-21.42 c 18.86,-13.89 76.57,-56.48 94.74,-69.29 34.74,2.77 68.79,10.27 101.48,22.15 -7.54,5.15 -30.37,20.77 -99.7,68.19 -21.1,14.43 -46.84,15.52 -67.42,0.37 z m 111.03,26.03 27.19,-20.2 c 9.23,4.12 19.21,6.29 29.52,6.29 15.62,0 26.57,-6.38 40.74,-15.62 31.81,-20.74 37.13,-24.21 38.02,-24.79 20.22,13.39 39.07,28.65 56.37,45.51 l -56.55,37.63 c -28.03,20.62 -65.76,19.99 -94.24,0 -41.05,-28.82 -41.05,-28.82 -41.05,-28.82 z m 22.11,-41.6 -9.06,-7.04 c 4.93,-3.62 52.31,-38.5 55.67,-40.97 19.47,7.77 38.17,17.47 55.9,28.33 -3.77,2.25 -13.64,8.14 -39.56,23.61 -21.94,13.1 -42.37,11.22 -62.95,-3.93 z m -98.77,863.64 c -306.35,0 -555.59,-249.24 -555.59,-555.59 0,-306.36 249.24,-555.6 555.59,-555.6 306.36,0 555.6,249.24 555.6,555.6 0,306.35 -249.24,555.59 -555.6,555.59 z m 0,-1122.52 c -312.6,0 -566.93,254.32 -566.93,566.93 0,312.6 254.33,566.92 566.93,566.92 312.61,0 566.93,-254.32 566.93,-566.92 0,-312.61 -254.32,-566.93 -566.93,-566.93 z m 501.66,399.42 c -4.45,-13.62 -11.47,-20.84 -14.26,-23.34 -4.21,-0.78 -16.41,0.87 -24.14,3.03 -0.87,1.19 -0.4,3.72 0.79,4.05 9.06,-0.26 27.13,1.19 33.27,20.01 4.45,13.62 -2.3,23.19 -12.03,26.36 -7.14,2.34 -15.56,3.47 -27.05,-5.88 l -15.09,-12.13 c -8,-6.36 -20.31,-12.75 -33.61,-8.4 -15.41,5.03 -23.98,21.11 -17.09,42.2 1.64,5.02 4.52,10.54 7.03,14.39 1.34,1.89 2.4,4.06 2.82,5.36 4.38,0.18 13.93,-1.32 20.74,-3.54 0.77,-0.97 0.41,-3.72 -0.83,-4.22 -8.48,0.44 -20.45,-0.5 -25.53,-16.07 -5.19,-15.9 4.24,-22.75 11.7,-25.18 9.41,-3.07 18.76,2.49 24.45,7.27 l 12.34,10.33 c 9.67,8.15 22.36,15.13 37.77,10.1 17.84,-5.82 25.6,-23.26 18.72,-44.34 z m -138.17,-79.39 c -15.11,9.94 -17.73,11.24 -23.97,3.3 l -2.63,-3.38 c -1.13,-0.48 -3.51,1.49 -3.38,2.64 4.97,6.94 8.31,11.69 12.25,17.68 3.75,5.71 6.79,10.65 11.19,17.96 1,0.57 3.75,-0.83 3.76,-2.06 l -2.06,-3.75 c -4.82,-8.88 -2.59,-10.76 12.53,-20.7 l 50.76,-33.39 c 15.11,-9.94 17.3,-10.97 23.83,-3.21 l 2.77,3.29 c 1.13,0.47 3.51,-1.5 3.38,-2.63 -4.98,-6.94 -8.31,-11.69 -12.06,-17.4 -3.94,-5.99 -6.98,-10.93 -11.39,-18.25 -0.99,-0.58 -3.46,0.64 -3.75,2.06 l 1.92,3.84 c 4.53,9.07 2.72,10.67 -12.39,20.61 z m -14.84,-150.63 c -10.71,-9.53 -20.42,-12.22 -24.09,-12.98 -4.03,1.45 -13.73,9.03 -19.32,14.8 -0.15,1.46 1.53,3.41 2.72,3.1 7.7,-4.8 24.04,-12.65 38.83,0.5 10.71,9.53 9.7,21.18 2.9,28.84 -4.99,5.61 -11.69,10.84 -26.33,8.55 l -19.14,-2.86 c -10.12,-1.46 -23.98,-0.77 -33.27,9.69 -10.78,12.11 -10.07,30.32 6.51,45.06 3.95,3.52 9.22,6.83 13.33,8.88 2.11,0.97 4.13,2.3 5.15,3.21 3.86,-2.04 11.36,-8.16 16.12,-13.52 0.17,-1.22 -1.53,-3.41 -2.85,-3.21 -7.09,4.64 -17.91,9.87 -30.15,-1.01 -12.5,-11.12 -7.8,-21.79 -2.59,-27.65 6.58,-7.4 17.46,-7.31 24.78,-6.05 l 15.87,2.69 c 12.46,2.17 26.94,1.81 37.71,-10.31 12.48,-14.02 10.39,-33 -6.18,-47.73 z m -120.12,-46.41 c 1.91,-4.76 9.48,-23.6 11.6,-27.52 0.07,-1.08 -0.56,-2.26 -2.31,-2.96 -2.98,1.93 -9.79,5.63 -29.86,15.78 l -53.52,27.05 c -6.25,3.2 -22.23,11.86 -26.95,14 l -0.32,-0.12 c 0.13,-2.15 1.44,-5.86 3.34,-10.61 l 13.86,-34.52 c 2.99,-7.44 11.41,-27.96 16.01,-31.63 1.65,-1.36 5.2,-1.04 9.28,0.23 l 5.1,1.5 c 1.46,-0.89 2.07,-2.85 1.28,-4.09 -7.26,-2.55 -12.86,-4.61 -18.72,-6.96 -6.65,-2.68 -10.86,-4.55 -16.28,-7.09 -1.43,0.35 -2.47,2.5 -1.9,3.83 l 4.08,2.19 c 3.45,1.94 5.6,3.91 5.7,5.97 -0.08,6.59 -7.99,25.84 -11.04,33.44 l -18.37,45.76 c -1.78,4.44 -3.27,7.7 -8.06,10 -3.11,1.33 -7.35,0.91 -11.35,-0.13 l -2.81,-0.77 c -1.33,0.57 -2.29,2.95 -1.28,4.09 6.84,2.19 15.24,5.56 18.09,6.71 2.53,1.01 5.16,2.25 7.09,3.4 6.41,-6.81 33.49,-20.21 41.06,-23.97 l 22.29,-11.09 c 15.82,-7.81 27.14,-13.56 37.63,-18.18 l 0.32,0.13 c 0.31,1.05 -0.7,3.58 -2.04,6.9 l -13.6,33.89 c -2.99,7.44 -11.41,27.97 -16.33,31.51 -1.52,1.04 -4.43,0.98 -11.08,-0.78 l -2.82,-0.76 c -1.49,0.5 -2.35,3.1 -1.28,4.09 7.42,2.6 12.86,4.61 18.88,7.02 6.81,2.74 10.86,4.55 16.12,7.03 1.58,-0.29 2.47,-2.51 1.9,-3.84 l -2.09,-1.21 c -4.75,-2.82 -7.4,-5.36 -7.53,-6.88 -0.4,-6.78 7.8,-26.29 10.72,-33.57 z m -251.03,4.52 c -0.28,17.74 -0.67,20.29 -10.75,21.32 l -2.73,0.3 c -1.04,0.66 -0.75,3.74 0.27,4.27 7.34,-0.23 13.14,-0.3 20.13,-0.19 l 32.07,0.52 c 10.92,0.18 20.98,0.34 23.02,0.89 1.07,-2.89 2.29,-15.15 3.09,-22.65 -0.66,-1.03 -3.39,-1.41 -4.25,-0.4 -2.69,7.97 -4.33,13.91 -13.23,15.99 -3.6,0.79 -9.06,0.87 -16.56,0.75 l -12.28,-0.2 c -5.12,-0.08 -5.11,-0.42 -5.01,-6.9 l 0.56,-34.11 c 0.07,-4.78 0.58,-4.77 5.7,-4.69 l 9.89,0.16 c 7.17,0.12 12.45,0.55 14.49,1.26 2.03,0.71 3.21,1.76 3.99,6.04 l 1.25,7.01 c 0.84,1.04 3.74,1.08 4.44,-0.11 0.07,-4.1 -0.51,-10.76 -0.4,-17.24 0.1,-6.13 0.88,-12.6 0.95,-16.35 -0.67,-1.2 -3.57,-1.25 -4.44,-0.24 l -1.64,6.62 c -0.73,3.06 -1.97,5.6 -5.39,6.4 -2.4,0.64 -6.5,0.75 -13.15,0.64 l -9.89,-0.16 c -5.12,-0.08 -5.63,-0.26 -5.56,-4.7 l 0.39,-24.04 c 0.15,-9.05 0.76,-14.84 3.53,-17.69 2.08,-2.02 5.69,-3.84 20.7,-3.59 13.14,0.21 18.07,0.97 21.8,2.91 3.04,1.76 7.55,7.8 11.84,16.74 1.18,0.87 3.57,0.4 4.28,-1.12 -1.1,-5.99 -5.15,-19.19 -7.29,-23.83 -15.36,0.09 -30.54,0.01 -45.72,-0.23 l -15.35,-0.26 c -7.34,-0.11 -13.13,-0.38 -23.19,-0.88 -1.03,0.5 -1.42,3.22 -0.41,4.26 l 5.62,0.6 c 9.71,1.01 10.52,3.58 10.23,21.49 z m -84.97,-60 c -2.04,-6.51 -2.29,-10.72 0.29,-12.78 0.33,-0.65 0.02,-1.62 -0.78,-1.91 -1.95,0.61 -5.09,0.88 -8.43,1.04 -9.35,0.42 -21.68,2.13 -30.47,4.89 -19.37,6.06 -35.44,16.99 -44,33.61 -6.71,12.83 -7.89,27.32 -3.41,41.65 4.33,13.83 13.27,26.41 26.73,33.99 14.48,7.98 32.99,10.59 57.57,2.9 9.28,-2.91 17.35,-7.4 19.91,-8.92 2.89,-1.62 7.58,-4.34 9.64,-4.62 -1.68,-5.37 -3.36,-14.15 -4.95,-24.37 -0.89,-1.15 -3.88,-0.4 -4.55,0.88 0.95,19.01 -9.53,28.37 -26.13,33.57 -31.59,9.89 -52.46,-8.25 -60.1,-32.67 -9.79,-31.26 -1.37,-60.89 31.36,-71.13 10.09,-3.16 16.78,-2.93 19.44,-0.72 1.17,0.89 2.9,3.56 4.53,8.77 l 2.04,6.51 c 4.28,13.68 4.09,14.81 -5.64,19.11 l -6.91,3.05 c -1.1,1.06 -0.02,3.94 1.27,4.06 4.62,-1.8 13.52,-4.77 23.13,-7.77 6.35,-1.99 11.94,-3.56 17.41,-4.91 0.94,-1.01 0.34,-3.5 -1.11,-4.12 l -2.71,0.49 c -7.09,1.33 -8.68,-3.18 -11.28,-11.48 z m -177.6,133.35 c -1.79,-2.49 -2.88,-4.02 -2.87,-4.87 0.12,-0.71 2.01,-2.48 9.08,-7.55 5,-3.57 10.67,-6.79 16.87,-6.62 5.84,0.23 12.5,2.81 19.26,12.24 7.84,10.96 8.49,26.23 -6.91,37.26 -8.6,6.16 -9.41,5.89 -12.2,2.01 z m 2.82,27.99 c 9.43,13.18 10.71,15.84 5.52,20.6 l -4.05,3.73 c -0.47,1.4 1.12,3.61 2.62,3.37 8.27,-4.86 18.14,-11.3 31.74,-21.03 8.6,-6.16 16.29,-12.71 20.19,-20.75 4.17,-8.23 4.56,-17.95 -2.39,-27.66 -9.43,-13.19 -25,-12.95 -33.93,-10.76 -1.29,-0.34 -1.59,-2.22 -1.69,-3.83 -1.71,-25.84 -2.3,-42.2 1.47,-56.86 0.87,-3.77 3.25,-7.78 6.8,-10.74 0.49,-0.78 -0.16,-1.99 -1.25,-2.04 -1.55,0.47 -3.97,1.79 -6.61,3.67 -11.79,8.44 -16.38,16.98 -16.2,38.04 0.07,7.72 1.23,21.36 1.4,30.68 0.1,4.54 -1.13,7.52 -6.68,11.5 -6.24,4.46 -6.62,4.52 -8.7,1.61 l -12.51,-17.48 c -10.43,-14.57 -11.35,-16.44 -4.09,-23.3 l 2.61,-2.51 c 0.34,-1.29 -1.63,-3.45 -2.76,-3.27 -6.04,4.75 -10.66,8.27 -16.21,12.24 -5.83,4.17 -10.92,7.61 -17.64,12 -0.54,1.01 0.68,3.29 2.2,3.66 l 3.77,-2.06 c 8.74,-4.79 10.31,-3.19 20.74,11.38 z m -85.84,97.17 c 14.19,10.66 16.03,12.47 10.94,21.23 l -1.36,2.39 c -0.07,1.23 2.59,2.8 3.61,2.29 4.14,-6.07 7.48,-10.81 11.68,-16.41 l 19.27,-25.65 c 6.55,-8.73 12.6,-16.78 14.24,-18.11 -1.71,-2.56 -10.92,-10.75 -16.51,-15.81 -1.23,-0.07 -3.14,1.91 -2.83,3.21 4.87,6.86 8.72,11.67 5.17,20.1 -1.47,3.38 -4.61,7.84 -9.12,13.85 l -7.38,9.82 c -3.07,4.09 -3.34,3.89 -8.53,0 l -27.29,-20.49 c -3.82,-2.88 -3.51,-3.29 -0.43,-7.38 l 5.94,-7.91 c 4.3,-5.73 7.75,-9.75 9.53,-10.98 1.77,-1.23 3.31,-1.57 7.23,0.31 l 6.41,3.11 c 1.34,-0.07 3.08,-2.39 2.53,-3.65 -3.27,-2.46 -9,-5.91 -14.19,-9.8 -4.91,-3.69 -9.68,-8.14 -12.69,-10.38 -1.36,-0.18 -3.1,2.14 -2.8,3.44 l 4.4,5.22 c 2.05,2.39 3.38,4.88 2.01,8.13 -0.89,2.32 -3.21,5.69 -7.21,11.02 l -5.94,7.91 c -3.07,4.09 -3.52,4.4 -7.06,1.73 l -19.24,-14.45 c -7.23,-5.43 -11.56,-9.32 -12.24,-13.24 -0.41,-2.87 0.24,-6.86 9.25,-18.87 7.9,-10.5 11.41,-14.05 15.17,-15.92 3.21,-1.44 10.75,-1.53 20.51,0.25 1.4,-0.45 2.42,-2.66 1.6,-4.13 -5.49,-2.63 -18.56,-7.11 -23.57,-8.1 -8.95,12.48 -17.93,24.73 -27.05,36.87 l -9.23,12.28 c -4.4,5.87 -8.02,10.4 -14.34,18.25 -0.2,1.12 1.77,3.03 3.21,2.83 l 3.79,-4.19 c 6.52,-7.27 9.08,-6.41 23.4,4.34 z m -67.58,97.49 c -4.49,-1.66 -4.75,-1.93 -1.42,-9.98 6.64,-16.1 14.69,-23.13 29.74,-17.6 15.69,5.77 17.31,19.64 12.84,31.8 -1.3,3.53 -2.5,5.81 -3.67,7.02 -1.07,1.42 -2.11,1.77 -4.99,0.71 z m -37.15,-13.66 c -5.76,-2.12 -13.81,-5.45 -16.21,-9.78 -2.57,-4.4 -1.6,-9.5 0.17,-14.3 5.24,-14.25 15.64,-22.79 31.66,-16.9 12.64,4.66 25.02,16.48 15.66,41.94 -3.18,8.64 -4.38,8.93 -7.58,7.75 z m 53.62,34.61 c 11.85,4.36 14.65,6.12 12.64,13.56 l -1.4,5.3 c 0.49,1.64 2.95,2.36 4.06,1.31 3.98,-8.35 8.46,-19.06 13.94,-33.95 3.71,-10.08 6.44,-19.99 5.41,-28.55 -0.83,-8.12 -5.29,-15.75 -15.54,-19.52 -11.53,-4.24 -19.93,0.3 -27.94,8.26 -1.6,-0.59 -1.61,-2.04 -1.29,-3.92 1.58,-9.24 -1.71,-24.99 -18.84,-31.29 -18.58,-6.83 -36.13,2.35 -46.73,31.17 -1.71,4.64 -4.11,12.67 -6.58,19.39 -2.59,7.04 -4.92,12.37 -7.25,18.23 0.12,1.14 2.57,2.4 3.88,1.79 l 1.54,-2.7 c 4.56,-7.96 6.44,-7.63 23.25,-1.45 z m 824.55,185.58 c -2.07,14.19 1.02,23.78 2.41,27.26 3.42,2.57 15.09,6.51 22.98,8 1.3,-0.67 2.01,-3.15 1.1,-3.98 -8.25,-3.78 -23.79,-13.12 -20.93,-32.71 2.06,-14.18 12.36,-19.76 22.49,-18.28 7.43,1.08 15.48,3.81 21.63,17.29 l 8.13,17.57 c 4.34,9.25 12.54,20.45 26.39,22.47 16.04,2.34 30.87,-8.27 34.06,-30.22 0.77,-5.24 0.64,-11.46 0.1,-16.02 -0.36,-2.3 -0.35,-4.71 -0.16,-6.06 -3.83,-2.11 -13.06,-5.01 -20.16,-6.04 -1.11,0.52 -2.01,3.15 -1.12,4.14 7.79,3.38 18.1,9.54 15.74,25.75 -2.41,16.55 -13.9,18.5 -21.67,17.37 -9.8,-1.43 -15.71,-10.57 -18.68,-17.38 l -6.48,-14.74 c -5.04,-11.6 -13.31,-23.5 -29.35,-25.84 -18.57,-2.7 -33.28,9.47 -36.48,31.42 z m 7.83,156.79 c -4.12,-0.49 -4.21,-0.72 -2.12,-5.02 l 9.18,-18.87 c 2.16,-4.44 2.92,-4.46 6.39,-1.06 l 20.98,20.44 c 3.09,3.02 6.56,6.41 7.95,8.22 l -0.15,0.31 c -0.99,0.09 -5.41,-0.17 -10.84,-0.72 z m 1.11,-37.02 c 2.85,2.71 3.01,3.55 0.78,8.15 l -11.26,23.17 c -1.86,3.83 -2.77,4.53 -6.52,4.04 l -18.72,-2.46 c -8.02,-1.05 -12.68,-1.99 -14.37,-2.81 -1.84,-0.9 -2.39,-2.11 -0.91,-5.94 l 2,-5.29 c -0.24,-1.44 -2.7,-2.64 -3.98,-1.56 -1.63,4.14 -3.94,8.9 -7.29,16.18 -2.47,5.06 -5.46,10.44 -7.62,14.51 0.16,1.22 2.47,2.72 3.68,2.17 l 2.92,-4.83 c 2.1,-3.54 5.43,-6.09 12,-5.56 8.4,0.67 20.46,1.22 40.77,3.13 l 49.03,4.48 c 6.57,0.53 9.93,1.03 12.16,2.68 2.86,-3.16 6.89,-4.42 9.71,-5.14 0.44,-0.92 0.66,-2.14 -0.26,-2.98 -5.79,-5.27 -11.65,-11.15 -17.28,-16.74 l -51.46,-50.98 c -11.04,-10.87 -12.37,-13.98 -9.93,-20.95 l 1.55,-4.37 c -0.24,-1.45 -2.85,-2.33 -3.83,-1.88 -2.75,6.44 -5.21,11.88 -8.57,18.79 -3.57,7.37 -6.71,13.05 -9.03,17.44 0.02,1.52 2.4,2.87 3.69,2.17 l 2.62,-4.23 c 1.87,-3.07 3.84,-4.77 5.37,-4.03 1.69,0.82 4.08,2.93 7.16,5.95 z m -89.3,111.56 c -13.09,-12.23 -14.73,-14.23 -8.6,-22.04 l 3.35,-4.34 c 0.2,-1.21 -2.28,-3.06 -3.35,-2.66 -6.39,7.33 -10.22,11.69 -14.88,16.68 -4.66,4.99 -8.86,9.24 -16.56,16.99 -0.32,1.09 1.56,3.32 3.12,2.9 l 4.56,-4.14 c 7.26,-6.52 9.72,-5.4 22.81,6.83 l 55.73,52.05 c 3.86,3.62 3.99,3.73 0.49,7.47 l -6.4,6.86 c -5.01,5.36 -11.66,11.98 -17.44,12.42 -5.54,0.43 -9.45,-0.88 -13.84,-2.43 -1.68,0.3 -2.69,2.63 -2.16,4.07 7.47,3.24 17.2,8.82 23,12.61 0.6,-0.14 2.24,-1.64 2.22,-2.37 -3.3,-4.47 0.67,-8.47 6.03,-14.21 l 47.16,-50.49 c 6.29,-6.73 7.59,-7.62 12.58,-6.47 0.83,-0.39 1.98,-1.87 1.72,-2.59 -6.4,-3.41 -17.31,-11.96 -20.7,-15.83 -1.46,-0.43 -3.44,1.69 -3.28,3.01 2.77,3.29 6.57,8.47 6.19,11.61 -0.55,4.86 -3.98,10.52 -10.39,17.38 l -8.27,8.85 c -3.49,3.74 -3.5,3.5 -7.61,-0.34 z m -67.53,133.79 c 9.55,15.36 10.79,18 2.69,24.04 l -3.44,2.54 c -0.51,1.12 1.4,3.55 2.54,3.43 7.06,-4.8 11.9,-8 17.99,-11.79 5.79,-3.6 10.81,-6.52 18.23,-10.72 0.6,-0.97 -0.73,-3.76 -1.96,-3.8 l -3.8,1.96 c -9,4.59 -10.82,2.31 -20.37,-13.05 l -32.07,-51.58 c -9.55,-15.36 -10.52,-17.57 -2.6,-23.9 l 3.35,-2.69 c 0.51,-1.11 -1.4,-3.54 -2.54,-3.43 -7.07,4.79 -11.91,7.99 -17.7,11.6 -6.09,3.78 -11.1,6.7 -18.53,10.92 -0.6,0.97 0.56,3.47 1.97,3.8 l 3.89,-1.82 c 9.18,-4.3 10.73,-2.45 20.28,12.91 z m -137.22,-35.96 c -13.67,4.31 -20.96,11.26 -23.49,14.03 -0.82,4.2 0.71,16.41 2.8,24.16 1.17,0.89 3.71,0.44 4.06,-0.74 -0.18,-9.07 1.46,-27.12 20.33,-33.08 13.67,-4.31 23.17,2.53 26.25,12.3 2.26,7.16 3.31,15.59 -6.16,26.99 l -12.27,14.97 c -6.44,7.93 -12.95,20.18 -8.74,33.53 4.87,15.46 20.87,24.19 42.02,17.51 5.05,-1.59 10.6,-4.41 14.47,-6.89 1.91,-1.32 4.09,-2.36 5.39,-2.77 0.23,-4.37 -1.18,-13.94 -3.34,-20.78 -0.96,-0.77 -3.71,-0.43 -4.22,0.8 0.35,8.48 -0.71,20.44 -16.33,25.37 -15.94,5.03 -22.7,-4.47 -25.06,-11.95 -2.98,-9.44 2.67,-18.74 7.51,-24.39 l 10.46,-12.24 c 8.24,-9.58 15.35,-22.2 10.48,-37.66 -5.65,-17.9 -23.01,-25.84 -44.16,-19.16 z m -134.97,83.33 c -0.05,-3.08 -0.09,-4.95 0.42,-5.64 0.5,-0.52 3.05,-0.91 11.75,-1.04 6.14,-0.11 12.63,0.47 17.64,4.15 4.67,3.5 8.69,9.41 8.87,21 0.22,13.48 -7.93,26.41 -26.86,26.72 -10.58,0.17 -11.1,-0.51 -11.18,-5.28 z m -13.59,24.61 c 0.26,16.21 -0.21,19.12 -7.19,20.08 l -5.44,0.77 c -1.18,0.87 -1.14,3.6 0.24,4.26 9.56,0.7 21.34,1.02 38.06,0.75 10.57,-0.17 20.62,-1.18 28.4,-5.58 8.11,-4.4 13.96,-12.17 13.76,-24.11 -0.26,-16.2 -13.19,-24.86 -21.78,-28.14 -0.87,-1.01 -0.04,-2.73 0.79,-4.1 13.29,-22.23 22.11,-36.02 33.55,-45.93 2.85,-2.61 7.09,-4.55 11.69,-4.96 0.85,-0.36 0.99,-1.73 0.13,-2.4 -1.54,-0.48 -4.28,-0.78 -7.52,-0.73 -14.5,0.23 -23.13,4.64 -34.96,22.06 -4.33,6.39 -11.13,18.27 -16.29,26.03 -2.5,3.8 -5.2,5.55 -12.02,5.65 -7.68,0.13 -8.03,-0.04 -8.08,-3.61 l -0.35,-21.5 c -0.29,-17.91 0.02,-19.96 9.89,-21.48 l 3.57,-0.57 c 1.01,-0.87 0.62,-3.77 -0.41,-4.26 -7.67,0.47 -13.47,0.73 -20.29,0.84 -7.16,0.12 -13.31,0.04 -21.33,-0.17 -1.01,0.53 -1.31,3.1 -0.27,4.27 l 4.27,0.44 c 9.91,1.04 10.29,3.25 10.58,21.16 z m -141.77,-29.18 c -5.08,17 -6.14,19.36 -16.12,17.62 l -2.72,-0.46 c -1.18,0.36 -1.73,3.41 -0.89,4.19 7.12,1.77 12.73,3.27 19.44,5.27 l 30.73,9.18 c 10.47,3.12 20.11,6 21.93,7.08 1.81,-2.49 6.3,-13.97 9.11,-20.97 -0.37,-1.17 -2.88,-2.28 -3.99,-1.55 -4.75,6.96 -7.93,12.24 -17.07,11.82 -3.67,-0.2 -8.95,-1.6 -16.15,-3.75 l -11.77,-3.51 c -4.9,-1.47 -4.81,-1.79 -2.95,-8.01 l 9.76,-32.69 c 1.37,-4.58 1.86,-4.44 6.76,-2.97 l 9.48,2.83 c 6.87,2.05 11.84,3.89 13.61,5.13 1.77,1.24 2.62,2.56 2.21,6.89 l -0.69,7.1 c 0.52,1.22 3.3,2.05 4.3,1.09 1.17,-3.92 2.42,-10.5 4.28,-16.7 1.75,-5.89 4.26,-11.91 5.34,-15.5 -0.32,-1.34 -3.1,-2.16 -4.21,-1.43 l -3.37,5.94 c -1.53,2.74 -3.41,4.86 -6.92,4.7 -2.49,-0.03 -6.46,-1.04 -12.84,-2.94 l -9.48,-2.83 c -4.9,-1.47 -5.35,-1.78 -4.08,-6.03 l 6.88,-23.05 c 2.59,-8.67 4.74,-14.08 8.19,-16.08 2.55,-1.37 6.52,-2.15 20.9,2.15 12.59,3.76 17.14,5.83 20.2,8.7 2.45,2.51 5.16,9.55 6.87,19.32 0.9,1.16 3.34,1.35 4.43,0.08 0.57,-6.07 0.24,-19.87 -0.57,-24.92 -14.81,-4.07 -29.41,-8.25 -43.97,-12.59 l -14.71,-4.39 c -7.03,-2.11 -12.54,-3.93 -22.09,-7.13 -1.12,0.19 -2.23,2.71 -1.54,3.98 l 5.24,2.11 c 9.08,3.6 9.16,6.29 4.04,23.46 z m -134.54,-63.19 c -8.42,5.99 -12.49,7.66 -19.16,4.46 l -2.78,-1.34 c -1.55,0.23 -2.68,2.34 -1.98,3.81 4.37,2.35 9.08,5.12 15.28,9.03 6.35,4 11.32,7.34 17.2,11.43 1.37,0.05 3.03,-1.93 2.56,-3.43 l -1.98,-1.66 c -5.03,-4.18 -5.64,-5.77 -5.06,-7.02 1.2,-1.26 8.57,-7.5 19.96,-15.66 17.2,-12.55 34.3,-24.97 51.9,-36.87 -1.53,12.35 -4.84,31.03 -6.35,40.78 -2,12.45 -5.5,33.04 -6.96,40.8 -0.76,3.76 -1.61,5.44 -2.25,6.45 -0.64,1.01 -2.81,1.25 -8.22,-1.36 l -2.79,-1.34 c -1.55,0.23 -2.63,2.57 -1.98,3.81 4.22,2.26 9.8,5.57 15.28,9.03 4.77,3 9.15,5.97 13.73,9.24 1.38,0.06 2.83,-2.25 2.57,-3.43 l -4.15,-3.02 c -3.28,-2.47 -4.36,-5.57 -4.32,-9.78 0.23,-9.33 1.98,-24.58 4.76,-43.4 l 3.4,-22.66 c 2.6,-16.93 6.37,-37.95 8.74,-47.15 -0.25,-0.56 -0.73,-1.07 -1.31,-1.43 -0.73,-0.46 -1.54,-0.77 -2.44,-0.93 -5.41,5.06 -12.47,10.49 -18.75,15.01 z m -57.69,-63.87 c -12.94,12.63 -15.25,14.42 -22.9,7.81 l -3.22,-2.81 c -1.2,-0.25 -3.16,2.14 -2.81,3.22 6.2,5.87 10.38,9.9 15.38,15.03 4.77,4.88 8.7,9.15 14.42,15.49 1.08,0.38 3.52,-1.53 3.29,-2.73 l -2.73,-3.29 c -6.43,-7.8 -4.59,-10.07 8.35,-22.71 l 43.45,-42.44 c 12.94,-12.64 14.89,-14.06 22.77,-7.7 l 3.35,2.7 c 1.21,0.25 3.17,-2.14 2.82,-3.23 -6.21,-5.87 -10.39,-9.9 -15.15,-14.78 -5.01,-5.12 -8.94,-9.39 -14.66,-15.73 -1.08,-0.38 -3.27,1.28 -3.29,2.73 l 2.62,3.41 c 6.17,8.04 4.7,9.95 -8.23,22.59 z m -1.59,-88.9 c 4.47,-2.49 22.22,-12.34 26.35,-14.04 0.73,-0.8 0.98,-2.11 0.07,-3.75 -3.53,-0.38 -11.15,-1.81 -33.12,-6.6 l -58.6,-12.75 c -6.86,-1.46 -24.72,-4.82 -29.74,-6.13 l -0.17,-0.3 c 1.46,-1.59 4.81,-3.65 9.29,-6.13 l 32.52,-18.05 c 7.01,-3.89 26.49,-14.5 32.38,-14.45 2.13,-0.01 4.68,2.48 7.05,6.04 l 3.02,4.37 c 1.69,0.24 3.39,-0.9 3.56,-2.37 -4.02,-6.55 -7.07,-11.68 -10.13,-17.2 -3.48,-6.27 -5.57,-10.38 -8.17,-15.77 -1.32,-0.62 -3.49,0.38 -3.89,1.78 l 1.79,4.28 c 1.45,3.67 1.88,6.56 0.66,8.22 -4.22,5.06 -22.5,15.01 -29.66,18.99 l -43.12,23.92 c -4.18,2.32 -7.4,3.91 -12.56,2.68 -3.25,-0.93 -6.28,-3.93 -8.72,-7.26 l -1.7,-2.37 c -1.4,-0.4 -3.63,0.84 -3.57,2.36 3.93,6.02 8.31,13.92 9.8,16.61 1.33,2.39 2.59,5.01 3.36,7.11 9.27,-1.23 38.73,5.45 46.98,7.31 l 24.3,5.44 c 17.2,3.93 29.61,6.6 40.66,9.64 l 0.17,0.3 c -0.42,1.01 -2.81,2.33 -5.94,4.07 l -31.93,17.72 c -7.01,3.89 -26.49,14.5 -32.54,14.15 -1.84,-0.15 -4.05,-2.04 -8.11,-7.6 l -1.71,-2.37 c -1.47,-0.54 -3.78,0.93 -3.56,2.35 4.1,6.7 7.07,11.69 10.21,17.36 3.56,6.42 5.56,10.38 8.08,15.63 1.41,0.79 3.5,-0.37 3.9,-1.77 l -0.86,-2.25 c -1.91,-5.19 -2.37,-8.83 -1.51,-10.1 3.97,-5.51 22.63,-15.48 29.5,-19.29 z m -105.15,-134.09 c -10.43,1.79 -29.83,4.75 -35.36,2.76 -2.22,-0.83 -3.92,-3.66 -4.97,-7.81 l -1.06,-4.14 c -1.35,-0.81 -3.48,-0.1 -3.98,1.02 1.43,6.33 2.66,12.52 3.78,19.09 1.21,7.06 1.82,11.63 2.52,17.74 1.07,1.21 3.23,0.67 4.09,-0.35 l -0.35,-4.1 c -0.38,-4.26 0.58,-7.71 2.6,-9.09 5.15,-3.31 24.49,-6.61 33.91,-8.22 l 19,-3.25 c 14.63,-2.5 29.7,-7.5 38.18,-18.64 6.67,-8.59 8.92,-21.78 6.79,-34.23 -1.98,-11.6 -6.15,-22.83 -14.62,-29.86 -8.93,-7.65 -21.93,-9.76 -41.94,-6.34 l -39.69,6.78 c -17.49,2.99 -20.41,3.15 -22.92,-6.47 l -1.05,-4.14 c -0.85,-0.89 -3.65,-0.07 -3.98,1.03 1.77,8.35 2.92,14.04 4.07,20.77 1.18,6.89 1.96,12.47 3.03,20.77 0.68,0.92 3.6,0.77 4.09,-0.35 l -0.35,-4.1 c -0.83,-9.9 1.98,-10.72 19.47,-13.71 l 36.32,-6.21 c 27.08,-4.63 46.35,0.73 50.75,26.46 4.16,24.39 -13.43,36.92 -38.99,41.28 l -19.34,3.31" style="fill:#231f20;fill-opacity:1;fill-rule:nonzero;stroke:none" transform="matrix(0.13333333,0,0,-0.13333333,0,373.73333)" />
		</g>
	</g>
</svg>
