<?xml version="1.0" encoding="UTF-8"?>
<svg width="233px" height="233px" viewBox="0 0 233 233" version="1.1" xmlns="http://www.w3.org/2000/svg" xmlns:xlink="http://www.w3.org/1999/xlink">
    <title>04_UiO_segl_pos</title>
    <g id="Page-1" stroke="none" stroke-width="1" fill="none" fill-rule="evenodd">
        <g id="04_UiO_segl_pos" fill="#000000" fill-rule="nonzero">
            <path d="M0.89,116.44 C0.89,88.46 10.81,62.79 27.33,42.77 L27.33,42.77 C48.57,17.03 80.72,0.62 116.69,0.62 L116.69,0.62 C180.66,0.62 232.5,52.48 232.51,116.44 L232.51,116.44 C232.51,180.39 180.66,232.25 116.69,232.25 L116.69,232.25 C52.74,232.25 0.89,180.39 0.89,116.44 L0.89,116.44 Z M2.61,116.44 C2.61,147.95 15.38,176.46 36.03,197.11 L36.03,197.11 C56.68,217.76 85.19,230.53 116.69,230.53 L116.69,230.53 C148.2,230.53 176.72,217.76 197.37,197.11 L197.37,197.11 C218.02,176.46 230.79,147.95 230.79,116.44 L230.79,116.44 C230.79,84.94 218.02,56.42 197.37,35.77 L197.37,35.77 C176.72,15.12 148.2,2.35 116.69,2.35 L116.69,2.35 C81.25,2.35 49.59,18.51 28.66,43.87 L28.66,43.87 L28.66,43.87 C12.39,63.6 2.61,88.87 2.61,116.44 L2.61,116.44 Z" id="Shape"></path>
            <g id="Group" transform="translate(26.000000, 160.000000)">
                <path d="M0.34,3.42 C0.36,1.91 1.6,0.7 3.11,0.72 C4.62,0.74 5.84,1.98 5.82,3.49 C5.8,5.01 4.56,6.22 3.05,6.2 C1.53,6.17 0.32,4.93 0.34,3.42 Z" id="Path"></path>
                <path d="M174.64,5.05 C174.66,3.54 175.9,2.33 177.41,2.35 C178.92,2.37 180.14,3.61 180.12,5.12 C180.1,6.63 178.86,7.85 177.35,7.83 C175.83,7.81 174.62,6.57 174.64,5.05 Z" id="Path"></path>
            </g>
            <path d="M195.92,83.16 C191.59,72.94 185.41,63.77 177.53,55.89 C169.66,48.03 160.49,41.84 150.28,37.51 C139.71,33.05 128.47,30.79 116.91,30.79 C105.33,30.79 94.1,33.05 83.52,37.51 C73.31,41.83 64.15,48.03 56.26,55.89 C48.39,63.77 42.21,72.93 37.9,83.16 C33.42,93.72 31.15,104.96 31.15,116.52 C31.15,128.11 33.42,139.35 37.9,149.91 C42.21,160.11 48.39,169.29 56.26,177.16 C64.14,185.03 73.3,191.22 83.52,195.54 C86.72,196.9 89.98,198.04 93.29,198.99 C93.32,199 93.35,199.01 93.38,199.02 C95.04,199.54 96.73,199.95 98.43,200.29 C104.46,201.61 110.63,202.28 116.91,202.28 C120.73,202.28 124.52,202.03 128.26,201.54 C128.27,201.54 128.28,201.54 128.29,201.54 C130.47,201.41 132.01,201.08 133.02,200.77 C138.92,199.65 144.7,197.91 150.28,195.55 C160.49,191.23 169.66,185.04 177.53,177.17 L176.92,176.56 L177.53,177.17 C185.41,169.3 191.58,160.12 195.91,149.92 C200.37,139.36 202.64,128.12 202.64,116.53 C202.64,104.96 200.38,93.73 195.92,83.16 Z M63.71,181.57 C63.58,181.46 63.36,181.1 63.47,180.82 C63.52,180.71 63.58,180.58 63.65,180.46 C64.02,179.77 64.62,178.97 65.13,178.36 C66.02,180.28 68.17,183.99 72.71,188 C69.57,186.06 66.57,183.92 63.71,181.57 Z M62.99,130.73 C64.75,132.45 65.06,133.94 65.07,134.95 C65.07,135.36 65.01,135.68 64.96,135.9 C64.93,136.01 64.91,136.09 64.89,136.14 C64.89,136.15 64.88,136.16 64.88,136.17 C64.8,136.29 64.11,137.59 62.14,137.59 C61.84,137.59 61.49,137.56 61.11,137.48 C57.78,136.83 54.48,135.54 51.76,135.2 C51.72,135.19 51.66,135.2 51.61,135.19 L58.15,126.22 C60.29,128.19 62.14,129.91 62.99,130.73 Z M49.3,115.78 L91.92,72.68 L66.37,132.67 C65.99,131.67 65.32,130.57 64.2,129.49 C61.8,127.18 51.95,118.2 49.3,115.78 Z M60.78,139.17 C61.26,139.26 61.72,139.31 62.14,139.31 C63.66,139.32 64.76,138.74 65.44,138.15 C66.12,137.56 66.4,136.98 66.43,136.91 L66.43,136.9 C66.43,136.9 66.43,136.89 66.43,136.89 C66.43,136.88 66.44,136.87 66.45,136.84 L66.5,136.73 L92.71,75.43 C92.77,75.84 92.89,76.63 93,77.01 C93.41,83.89 94.99,88.72 96.65,92.42 C97.61,94.56 98.59,96.2 99.35,97.35 C99.73,97.93 100.06,98.39 100.31,98.72 C100.39,98.83 100.47,98.93 100.53,99.01 L94.42,120.12 C94.32,120.45 94.44,120.82 94.71,121.03 L96.17,122.19 C96.17,122.19 96.35,122.36 96.27,122.68 C96.18,123 89.47,147.78 89.47,147.78 L68.15,172.26 C66.57,170.95 61.95,166.67 55.83,157.16 C50.5,148.89 48.91,143.67 48.9199532,140.7 C48.9199532,139.22 49.29,138.32 49.73,137.76 C49.74,137.75 49.74,137.75 49.75,137.74 L49.77,137.71 C49.8,137.68 49.82,137.64 49.85,137.61 C50.34,137.07 50.94,136.88 51.39,136.88 C51.45,136.88 51.5,136.88 51.55,136.89 C53.92,137.19 57.27,138.48 60.78,139.17 Z M105.99,48.96 C105.84,48.52 105.37,48.28 104.93,48.42 C105.31,48.08 105.68,47.76 106.04,47.45 L109.74,46.97 C110.21,46.91 110.54,46.47 110.48,46 C110.42,45.53 109.99,45.2 109.51,45.26 L108.95,45.34 C110.11,44.66 111.29,44.11 112.27,43.71 C112.93,43.44 113.49,43.23 113.89,43.09 C114.29,42.96 114.5,42.89 114.51,42.89 C114.97,42.76 115.23,42.28 115.09,41.82 C114.95,41.37 114.47,41.11 114.02,41.24 C113.99,41.25 112.55,41.67 110.69,42.52 C110.96,42.13 110.87,41.6 110.48,41.32 C110.09,41.05 109.55,41.14 109.28,41.53 L107.3,44.34 C107.12,44.46 106.94,44.57 106.77,44.69 C106.52,44.87 106.24,45.08 105.94,45.32 L106.14,44.93 C106.36,44.51 106.19,43.99 105.77,43.77 C105.35,43.55 104.83,43.72 104.61,44.14 L102.44,48.36 C101.9,48.86 101.4,49.33 100.97,49.74 C101.04,47.49 101.64,43.52 104.17,41.63 C106.65,39.73 108.71,39.32 110.43,39.32 C111.44,39.32 112.33,39.47 113.12,39.59 C113.49,39.64 114.82,39.96 115.97,40.25 C117.13,40.55 118.18,40.82 118.18,40.83 L118.4,40.86 C119.67,40.87 120.3,41.19 120.64,41.53 C120.98,41.87 121.11,42.33 121.12,42.84 C121.13,43.27 120.94,43.76 120.73,44.13 C120.65,44.27 120.58,44.37 120.52,44.47 L114.09,45.18 C113.86,45.21 113.64,45.33 113.5,45.51 L109.45,50.85 L107.47,50.86 L107.29,50.88 C107.21,50.9 106.85,50.98 106.45,51.31 C106.04,51.63 105.64,52.28 105.66,53.11 C105.65,54.72 106.21,55.82 106.82,56.46 C106.88,56.53 106.95,56.59 107.01,56.65 L104.37,59.29 C103.96,59.18 103.29,58.95 102.67,58.51 C101.87,57.95 101.14,57.12 100.9,55.67 C100.77,54.83 100.72,54.14 100.72,53.59 C100.72,53.01 100.77,52.59 100.83,52.29 C100.84,52.28 100.85,52.28 100.86,52.27 C100.86,52.27 101.25,51.89 101.85,51.31 L105.49,50.07 C105.9,49.89 106.14,49.4 105.99,48.96 Z M119.16,55.54 C119.16,55.54 119.17,55.81 118.95,55.94 C118.72,56.07 118.57,56.29 118.52,56.55 C118.48,56.81 118.59,57.05 118.73,57.26 C118.76,57.31 118.77,57.42 118.71,57.53 C118.65,57.63 118.54,57.83 118.54,57.83 C118.42,58.04 118.39,58.29 118.47,58.52 C118.47,58.52 118.47,58.52 118.48,58.55 C118.51,58.65 118.57,58.93 118.57,59.23 C118.57,59.4 118.44,59.88 118.1,60.02 C117.78,60.16 117.24,60.27 116.52,60.29 L114.7,60.25 C114.28,60.24 113.91,60.54 113.84,60.95 C113.83,60.99 113.79,61.22 113.79,61.58 C113.79,62.05 113.86,62.76 114.24,63.48 C114.38,63.76 114.59,64.03 114.84,64.28 C114.84,64.28 114.84,64.29 114.85,64.29 L114.85,64.29 L117.91,67.72 L109.97,68.26 L104.56,64.03 C104.83,63.9 104.98,63.82 104.98,63.82 C105.27,63.68 105.46,63.38 105.46,63.05 L105.46,60.55 L108.93,57.07 C109.14,56.86 109.23,56.54 109.16,56.25 C109.08,55.95 108.86,55.72 108.57,55.64 L108.57,55.64 C108.41,55.53 107.37,55.2 107.34,53.07 C107.35,52.72 107.44,52.68 107.51,52.59 C107.54,52.57 107.57,52.55 107.59,52.53 L109.85,52.51 C110.12,52.51 110.37,52.38 110.53,52.17 C110.53,52.17 114.14,47.39 114.39,47.09 C114.64,46.78 115.02,46.75 115.02,46.75 L119.91,46.2199609 C119.91,46.2199609 120.16,46.21 120.2,46.51 C120.24,46.96 120.29,47.51 120.35,48.11 C120.36,48.36 120.2,48.45 120.1,48.46 C119.48,48.48 118.83,48.5 118.14,48.52 C117.42,48.55 116.63,48.88 116.11,49.32 C115.72,49.64 115.71,50.25 116.07,50.6 C116.27,50.79 116.7,50.86 117.17,51 C117.76,51.18 118.42,51.4 118.75,51.3 C119.17,51.16 119.33,50.79 119.36,50.38 C119.39,49.93 119.66,49.61 120.12,49.61 C120.31,49.61 120.43,49.77 120.45,49.93 C120.54,50.79 120.69,51.87 120.75,52.49 C120.78,52.79 120.8,53.07 120.82,53.31 C120.83,53.62 120.56,53.64 120.42,53.66 C120.13,53.7 119.91,53.7 119.91,53.71 C119.68,53.72 119.46,53.82 119.31,54 C119.15,54.17 119.08,54.4 119.09,54.63 L119.16,55.54 Z M109.17,69.83 C109.32,69.95 109.51,70.01 109.7,70.01 C109.72,70.01 109.74,70.01 109.76,70.01 L119.78,69.33 C120.11,69.31 120.4,69.1 120.52,68.79 C120.65,68.49 120.58,68.14 120.37,67.89 L118.57,65.87 C119.62,66.19 120.52,66.47 121.22,66.68 C121.76,66.82 122.74,67.68 123.57,68.81 C124.36,69.84 125.08,71.06 125.56,72.05 C125.21,73.83 124.7,75.58 124.16,77.34 L119.72,80.71 L110.05,74.2 C109.56,73.48 107.31,70.2 105.15,68.03 C104,66.9 102.38,66.45 100.76,66.45 C100.46,66.45 100.16,66.47 99.86,66.5 C100.28,66.27 100.71,66.04 101.12,65.82 C101.75,65.49 102.36,65.17 102.89,64.89 L109.17,69.83 Z M100.75,68.18 C102.07,68.18 103.24,68.56 103.93,69.25 C105.05,70.37 106.26,71.89 107.17,73.13 C108.09,74.37 108.71,75.3 108.71,75.31 C108.77,75.41 108.85,75.49 108.95,75.55 L119.27,82.5 C119.58,82.71 119.98,82.7 120.27,82.47 L133.41,72.48 L133.47,72.43 C133.47,72.43 133.76,72.17 134.14,71.85 C134.52,71.53 135,71.15 135.29,70.97 C135.97,70.52 138.87,68.8 140.72,68.75 C140.88,68.74 141.04,68.74 141.19,68.74 C142.08,68.73 142.73,68.89 143.06,69.11 C143.37,69.33 143.51,69.51 143.54,70.16 C143.54,71.21 143.56,72.76 143.56,72.76 C143.56,73.18 143.86,73.46 144.27,73.53 C144.59,73.53 145.03,73.62 145.03,74.12 C145.03,74.69 144.64,74.77 144.46,74.8 C144.15,74.84 143.85,74.88 143.73,74.89 L142.92,74.89 L142.7,74.92 C142.7,74.92 141.59,75.21 140.4,75.49 C139.81,75.63 139.19,75.78 138.69,75.88 C138.44,75.93 138.22,75.98 138.05,76.01 C137.97,76.02 137.9,76.03 137.85,76.04 C137.8,76.05 137.79,76.04 137.79,76.05 C137.03,76.05 135.85,76.18 135.83,76.18 C135.59,76.21 135.36,76.34 135.22,76.54 C135.22,76.55 133.76,78.61 131.94,81.04 C130.12,83.47 127.91,86.29 126.5,87.7 C125.03,89.17 123.82,90.28 122.97,91.02 C122.71,91.25 122.48,91.44 122.29,91.6 C122.19,91.68 121.96,91.79 121.71,91.69 C120.45,91.17 117.76,90.09 114.52,88.71 C110,86.78 104.4,84.27 100.16,82 C99.32,81.57 97.82,80.65 96.58,79.34 C96.45,79.2 96.32,79.05 96.19,78.9 C96.15,78.85 96.11,78.8 96.07,78.76 C95.97,78.64 95.88,78.52 95.79,78.41 C95.72,78.32 95.66,78.22 95.59,78.13 C95.53,78.05 95.48,77.97 95.43,77.88 C95.37,77.79 95.31,77.69 95.25,77.59 C95.23,77.55 95.21,77.51 95.18,77.47 C95.06,77.26 94.96,77.05 94.87,76.83 C94.86,76.8 94.84,76.77 94.83,76.74 C94.78,76.61 94.73,76.48 94.69,76.35 C94.69,76.35 94.69,76.35 94.69,76.35 C94.69,76.35 94.69,76.35 94.69,76.34 C94.61,76.11 94.55,75.87 94.5,75.63 C94.48,75.53 94.46,75.42 94.44,75.32 C94.43,75.24 94.42,75.16 94.41,75.08 C94.39,74.88 94.37,74.68 94.37,74.47 C94.37,74.33 94.38,74.2 94.39,74.06 C94.4,73.95 94.41,73.83 94.43,73.71 C94.43,73.69 94.43,73.67 94.43,73.65 C94.47,73.37 94.53,73.09 94.61,72.8 C94.61,72.8 94.61,72.8 94.61,72.8 L94.61,72.8 C94.66,72.63 94.71,72.45 94.78,72.27 C94.78,72.26 94.79,72.25 94.79,72.24 C94.85,72.08 94.92,71.9 94.99,71.73 C95,71.71 95.01,71.68 95.02,71.66 C95.09,71.5 95.17,71.34 95.26,71.18 C95.28,71.15 95.3,71.11 95.32,71.07 C95.43,70.88 95.54,70.68 95.66,70.48 L95.66,70.48 C96.44,69.15 98.68,68.16 100.75,68.18 Z M127.73,55.05 C127.73,54.67 127.86,54.61 127.93,54.62 C129.24,54.83 129.96,55.4 130.42,55.94 C130.7,56.28 130.87,56.63 130.97,56.88 C131.02,57.01 131.05,57.11 131.07,57.18 C131.08,57.21 131.08,57.24 131.09,57.25 L131.09,57.25 C131.16,57.66 131.52,57.97 131.94,57.97 L148.74,57.97 C149.17,57.97 149.53,57.66 149.59,57.24 C149.61,57.16 149.74,56.61 150.28,56.1 C150.73,55.68 151.47,55.22 152.81,55.05 C152.99,55.01 153.02,55.19 153.02,55.35 C153.02,57.13 152.96,60.84 152.96,66.22 C152.96,70.6 154.09,74.14 155.17,77.64 C156.26,81.15 157.3,84.62 157.3,89.06 C157.3,91.43 156.85,93.7 155.97,95.76 C155.2,95.33 154.55,95.07 154.19,94.97 C154.07,94.94 153.95,94.92 153.83,94.92 C153.15,94.95 152.71,95.25 152.28,95.55 C151.86,95.89 151.53,96.13 151.29,96.67 C151.22,96.85 151.19,97.03 151.19,97.2 C151.2,97.67 151.36,97.99 151.48,98.24 C151.3,98.39 151.09,98.56 150.88,98.75 C150.6,99 150.31,99.27 150.06,99.56 C149.81,99.85 149.58,100.12 149.44,100.54 C149.36,100.8 149.31,101.07 149.31,101.35 C149.31,101.88 149.46,102.36 149.7,102.85 C147.09,104.36 143.82,105.25 139.88,105.26 C134.13,105.26 130.02,103.28 127.28,100.42 C125.25,98.28 123.99,95.62 123.48,92.86 C124.33,92.14 125.82,90.83 127.71,88.94 C128.03,88.62 128.38,88.24 128.75,87.82 C129.36,89.98 130.57,91.78 132.15,93.12 C134.36,95 137.25,96.01 140.24,96.1 C140.29,96.11 140.35,96.12 140.4,96.12 C140.42,96.12 140.45,96.12 140.47,96.11 C140.54,96.11 140.61,96.12 140.68,96.12 C147.15,96.1 152,90.37 152.01,84.03 C152.01,81.18 151.34,79.19 150.72,76.12 C150.09,73.04 149.47,68.76 149.47,61.23 C149.47,61 149.38,60.78 149.22,60.62 C149.06,60.46 148.84,60.37 148.61,60.37 L132.02,60.37 C131.79,60.37 131.57,60.46 131.41,60.62 C131.25,60.78 131.16,61 131.16,61.23 C131.16,66.62 130.81,70.09 130.37,72.67 L126.47,75.63 C126.78,74.51 127.06,73.37 127.28,72.21 C127.3,72.16 127.3,72.11 127.31,72.06 C127.59,70.56 127.76,69.02 127.77,67.43 C127.77,61.73 127.74,57.21 127.73,55.05 Z M151.65,102.73 C151.18,102.07 151.03,101.63 151.04,101.34 C151.04,101.24 151.05,101.15 151.09,101.04 L151.09,101.04 C151.16,100.88 151.67,100.33 152.13,99.94 C152.59,99.53 153.01,99.22 153.01,99.22 C153.25,99.07 153.41,98.68 153.39,98.45 C153.38,98.11 153.29,97.99 153.23,97.85 C153.17,97.73 153.11,97.62 153.06,97.53 C153,97.4 152.96,97.11 153.22,96.86 C153.51,96.56 153.93,96.68 154.01,96.72 C154.33,96.85 154.85,97.09 155.36,97.39 C156.11,97.83 156.87,98.44 157.14,98.96 C157.42,99.44 157.65,100.08 157.64,100.51 C157.64,100.8 157.52,101.01 157.38,101.17 C157.1,101.49 154.57,103.61 154.31,103.77 C154.04,103.96 152.96,104.42 152.04,104.76 C151.77,104.86 151.51,104.95 151.28,105.04 C150.96,105.17 150.91,104.96 150.91,104.96 C150.91,104.96 150.85,104.77 150.97,104.65 C151.12,104.53 151.26,104.4 151.4,104.25 C151.55,104.05 151.78,103.86 151.81,103.32 C151.84,103.13 151.78,102.91 151.65,102.73 Z M154.18,162.51 C154.18,162.51 154.21,162.76 154.01,162.88 C153.81,162.99 147.75,166.39 147.75,166.39 L147.05,105.89 C147.74,105.67 148.4,105.41 149.03,105.12 L154.18,162.51 Z M126.45,190.49 C126.45,190.49 128.68,193.38 128.77,193.51 C128.86,193.64 128.79,193.79 128.73,193.84 C125.35,196.6 119.87,198.53 113.6,199.22 C114.59,194.67 118.39,176.74 121.22,158.48 C124.13,139.66 125.42,121.79 125.67,118.07 C125.67,118.07 127.93,117.92 128.33,117.88 C128.72,117.84 128.77,118.07 128.77,118.31 C128.76,118.55 126.29,189.91 126.29,189.91 C126.26,190.13 126.33,190.33 126.45,190.49 Z M96.41,119.46 C96.41,119.46 102.01,100.1 102.09,99.84 C102.16,99.58 102.42,99.51 102.42,99.51 C102.42,99.51 106.52,98.36 107.17,98.15 C107.82,97.94 108.9,97.86 108.9,97.86 L122.99,97 C123.73,98.65 124.74,100.21 126.04,101.58 C127.18,102.79 128.55,103.84 130.13,104.69 C130.13,104.69 130.1,115.41 130.1,115.61 C130.1,115.81 130,116.04 129.55,116.08 C129.1,116.12 115.38,117.07 111.96,117.32 C111.47,117.35 110.89,117.44 110.37,117.58 C109.85,117.73 97.9,121 97.9,121 C97.9,121 97.49,121.06 97.29,120.91 C97.09,120.75 96.98,120.66 96.61,120.37 C96.23,120.07 96.41,119.46 96.41,119.46 Z M101.7,97.72 C100.34,95.85 96.38,90.31 95.04,80.2 C95.13,80.31 95.23,80.41 95.32,80.51 C96.75,82.01 98.38,83.01 99.35,83.51 C107.98,88.13 121.83,93.59 121.85,93.6 C121.86,93.6 121.87,93.6 121.88,93.61 C122,94.19 122.16,94.75 122.35,95.32 L109.35,96.11 C109.35,96.11 107.82,96.18 106.72,96.49 C105.39,96.86 102.35,97.73 102.15,97.8 C101.89,97.88 101.75,97.78 101.7,97.72 Z M130.5,117.64 L131.13,117.51 C131.53,117.43 131.82,117.07 131.82,116.67 L131.85,105.5 C134.15,106.43 136.82,106.96 139.86,106.96 C139.87,106.96 139.88,106.96 139.89,106.96 C141.84,106.96 143.66,106.74 145.34,106.36 L146.14,175.57 L146.14,175.61 C146.14,175.61 146.14,175.66 146.14,175.78 C146.15,176.49 145.96,178.97 143.93,180.43 C141.41,182.27 135.77,185.2 128.15,185.4 L130.5,117.64 Z M130.16,86.12 C132.17,83.65 134.39,80.62 135.64,78.9 L135.64,93.27 C134.78,92.87 133.98,92.37 133.28,91.77 C131.65,90.39 130.51,88.51 130.16,86.12 Z M137.36,93.9 L137.36,77.77 C137.51,77.76 137.66,77.76 137.78,77.76 C138.13,77.75 138.49,77.67 139.04,77.56 C139.2,77.52 139.37,77.49 139.55,77.45 L139.55,94.31 C138.8,94.24 138.07,94.1 137.36,93.9 Z M141.27,94.34 L141.27,77.04 C142.06,76.85 142.75,76.67 143.01,76.61 L143.33,76.61 L143.33,93.96 C142.67,94.16 141.98,94.29 141.27,94.34 Z M146.61,73.13 C146.51,72.82 146.32,72.36 145.73,72.16 C145.58,72.12 145.41,72.07 145.26,72.04 C145.26,71.5 145.25,70.74 145.25,70.15 C145.26,69.74 145.19,69.34 145.05,68.98 L145.05,62.05 L147.75,62.05 C147.79,69.15 148.42,73.37 149.03,76.43 C149.68,79.62 150.29,81.45 150.28,84 C150.28,86.74 149.23,89.35 147.49,91.26 C146.78,92.05 145.95,92.71 145.04,93.22 L145.04,76.47 C145.1,76.46 145.17,76.45 145.22,76.45 C145.3,76.44 145.38,76.43 145.43,76.43 C145.48,76.43 145.5,76.43 145.5,76.43 C145.82,76.43 146.05,76.27 146.16,76.16 C146.53,75.75 146.52,75.51 146.62,75.18 C146.69,74.86 146.72,74.5 146.73,74.14 C146.74,73.78 146.72,73.46 146.61,73.13 Z M143.33,62.05 L143.33,67.34 C142.71,67.11 142.02,67.03 141.27,67.02 L141.27,62.05 L143.33,62.05 Z M139.55,62.05 L139.55,67.19 C138.8,67.35 138.05,67.61 137.36,67.91 L137.36,62.05 L139.55,62.05 Z M135.64,62.05 L135.64,68.77 C135.06,69.09 134.62,69.37 134.37,69.52 C133.59,70.01 132.54,70.95 132.34,71.13 L132.34,71.14 C132.64,68.84 132.86,65.95 132.89,62.05 L135.64,62.05 L135.64,62.05 Z M67.46,175.68 C67.68,175.43 90.89,148.78 90.89,148.78 C90.98,148.68 91.04,148.57 91.07,148.44 C91.07,148.44 97.94,123.09 97.99,122.92 C98.04,122.74 98.22,122.69 98.22,122.69 C98.22,122.69 110.4,119.36 110.86,119.22 C111.33,119.09 112,119.03 112,119.03 L118.76,118.56 C118.68,119.35 118.54,120.62 118.32,122.25 C117.17,130.82 113.66,149.3 105.1,159.37 C92.35,174.44 74.7,175.98 68.09,175.98 C67.94,175.98 67.8,175.98 67.67,175.98 C67.42,175.97 67.25,175.93 67.46,175.68 Z M67.05,177.69 C67.36,177.7 67.71,177.7 68.09,177.7 C74.93,177.7 93.14,176.13 106.41,160.49 C117.33,147.52 120.07,122.78 120.5,118.45 L123.92,118.21 C123.8,119.98 123.5,124.18 122.96,129.85 C122.25,137.46 121.13,147.7 119.5,158.23 C117.87,168.76 115.91,179.2 114.36,187 C113.21,192.77 112.29,197.09 111.89,198.95 C111.85,199.12 111.64,199.43 111.24,199.43 C110.29,199.43 109.34,199.52 108.37,199.510776 C105.23,199.510776 101.98,199.22 98.78,198.6 C97.1,198.23 95.44,197.82 93.79,197.34 C81.92,193.6 75.03,188.31 71.1,184.03 C69.13,181.88 67.9,179.97 67.17,178.61 C67.05,178.39 66.95,178.19 66.86,178 C66.77,177.8 66.88,177.68 67.05,177.69 Z M116.53,200.54 C121.45,199.69 125.8,198.08 128.98,195.79 L131.69,196.57 C131.79,196.6 131.89,196.61 131.99,196.61 C131.99,196.61 134.51,196.47 134.72,196.46 C135.44,196.42 135.76,196.84 135.76,196.99 C135.76,197.14 135.78,197.33 135.78,197.33 C135.78,197.33 135.81,197.78 135.52,198.07 C135.25,198.34 133.31,198.87 132.6,199.1 C127.46,200.07 122.22,200.57 116.9,200.57 C116.78,200.55 116.66,200.54 116.53,200.54 Z M194.33,149.24 C190.08,159.24 184.04,168.22 176.31,175.95 C168.59,183.66 159.61,189.72 149.61,193.96 C145.67,195.63 141.64,196.98 137.54,198.01 L137.44,196.34 C137.44,195.33 136.3,194.83 135.67,194.83 L132.06,194.89 C132.06,194.89 130.95,194.62 130.81,194.58 C130.67,194.54 130.71,194.4 130.73,194.37 C130.98,194.06 131,193.62 130.75,193.3 L127.99,189.7 L128.08,187.14 C136.18,186.94 142.15,183.87 144.93,181.84 C147.67,179.81 147.84,176.72 147.85,175.8 C147.85,175.67 147.85,175.58 147.84,175.54 L147.76,168.36 C147.79,168.35 147.81,168.34 147.84,168.33 L147.84,168.33 L155.52,164.02 C155.82,163.85 155.98,163.53 155.96,163.19 L150.92,107.01 C151.14,106.94 151.85,106.69 152.66,106.39 C153.64,106.01 154.68,105.61 155.29,105.21 C155.84,104.82 158.15,102.88 158.71,102.3 C159.2,101.78 159.38,101.11 159.38,100.52 C159.37,99.6 159.02,98.77 158.66,98.12 C158.34,97.57 157.91,97.12 157.43,96.73 C158.49,94.37 159.03,91.76 159.02,89.06 C159.02,84.35 157.89,80.64 156.81,77.13 C155.72,73.62 154.67,70.3 154.67,66.22 C154.67,58.65 154.75,54.15 154.75,54.14 C154.75,53.91 154.66,53.69 154.5,53.52 C154.34,53.35 154.12,53.26 153.89,53.26 C151.35,53.25 149.77,54.09 148.9,55.03 C148.49,55.47 148.25,55.9 148.09,56.26 L132.55,56.26 C132.4,55.87 132.14,55.37 131.72,54.86 C130.88,53.82 129.3,52.82 126.84,52.83 C126.61,52.83 126.39,52.92 126.23,53.09 C126.07,53.25 125.98,53.47 125.98,53.7 C125.98,53.71 126.03,59.41 126.03,67.4 C126.03,68.03 126,68.65 125.95,69.27 C125.63,68.77 125.29,68.27 124.93,67.79 C123.97,66.56 122.96,65.47 121.71,65.06 C120.59,64.72 118.92,64.2 116.96,63.6 C116.24,63.37 115.95,63.05 115.74,62.68 C115.62,62.47 115.56,62.23 115.52,62.01 L116.47,62.03 L116.52,62.03 C117.38,62 118.11,61.89 118.74,61.63 C119.36,61.38 119.92,60.92 120.13,60.23 C120.24,59.88 120.27,59.54 120.27,59.24 C120.27,58.9 120.23,58.61 120.18,58.39 L120.59,57.67 C120.72,57.44 120.74,57.16 120.64,56.92 C120.83,56.75 120.93,56.49 120.91,56.23 L120.85,55.35 C120.89,55.34 120.93,55.33 120.98,55.33 C121.24,55.28 121.51,55.22 121.8,55.09 C121.94,55.02 122.09,54.94 122.25,54.78 C122.41,54.63 122.58,54.34 122.58,54.01 C122.58,53.78 122.53,53.23 122.45,52.36 C122.26,50.24 121.93,46.64 121.82,45.52 C122.17,45.05 122.78,44.08 122.8,42.81 C122.8,42 122.57,41.04 121.82,40.29 C121.1,39.56 119.97,39.13 118.47,39.11 C117.8,38.93 114.33,38.01 113.32,37.86 C112.57,37.75 111.57,37.58 110.39,37.58 C108.38,37.57 105.84,38.11 103.08,40.25 C99.51,43.06 99.22,48.09 99.2,50.32 C99.2,50.75 99.21,51.09 99.23,51.28 C99.11,51.64 98.93,52.38 98.93,53.56 C98.93,54.21 98.98,54.99 99.13,55.91 C99.48,58.14 100.86,59.49 102.08,60.19 C102.7,60.55 103.28,60.76 103.72,60.89 L103.72,62.53 C103.04,62.87 98.75,64.76 94.62,67.6 C94.53,67.68 94.19,67.87 93.87,68.24 C93.86,68.25 93.85,68.25 93.84,68.26 L47.41,115.21 C47.25,115.37 47.16,115.6 47.16,115.84 C47.17,116.07 47.27,116.3 47.44,116.45 C47.45,116.46 50.64,119.36 54.18,122.6 C55.06,123.41 55.97,124.23 56.85,125.04 L48.34,136.71 C47.62,137.62 47.16,138.95 47.17,140.71 C47.18,144.27 48.94,149.68 54.35,158.11 C60.52,167.7 65.24,172.12 66.99,173.57 L64.74,176.15 C64.66,176.23 63.94,176.99 63.2,177.98 C62.81,178.49 62.42,179.06 62.11,179.64 C62.03,179.78 61.96,179.92 61.9,180.07 C60.38,178.75 58.9,177.38 57.46,175.94 C49.75,168.22 43.69,159.24 39.47,149.23 C35.08,138.89 32.86,127.88 32.86,116.52 C32.86,105.19 35.08,94.19 39.47,83.83 C43.7,73.81 49.75,64.83 57.46,57.11 C65.19,49.4 74.16,43.34 84.17,39.1 C94.54,34.73 105.53,32.51 116.88,32.51 C128.22,32.51 139.22,34.72 149.58,39.1 C159.59,43.34 168.57,49.4 176.28,57.11 C184,64.83 190.05,73.81 194.3,83.83 C198.67,94.19 200.8903,105.19 200.8903,116.52 C200.92,127.88 198.7,138.89 194.33,149.24 Z" id="Shape"></path>
            <g id="Group" transform="translate(9.000000, 9.000000)">
                <path d="M9.69,114.74 C10.68,114.61 11.53,114.62 12.23,114.77 C12.94,114.92 13.54,115.21 14.03,115.64 C14.52,116.07 14.91,116.65 15.2,117.37 C15.49,118.08 15.7,118.95 15.83,119.96 C15.94,120.82 15.95,121.63 15.87,122.36 C15.78,123.09 15.56,123.74 15.21,124.3 C14.86,124.86 14.38,125.32 13.76,125.69 C13.14,126.05 11.67,126.36 11.67,126.36 C11.53,126.39 11.3,126.43 11.16,126.45 L3.56,127.44 C3.42,127.46 3.3,127.59 3.29,127.73 L3.23,128.85 C3.22,128.99 3.1,129.13 2.96,129.15 L2.62,129.19 C2.48,129.21 2.35,129.11 2.33,128.97 L1.66,123.85 C1.64,123.71 1.74,123.58 1.89,123.56 L2.22,123.52 C2.36,123.5 2.51,123.6 2.56,123.73 L2.91,124.78 C2.95,124.92 3.11,125.01 3.25,124.99 L11.75,123.88 C12.79,123.74 13.57,123.33 14.09,122.62 C14.61,121.92 14.79,120.95 14.63,119.73 C14.46,118.46 14.03,117.58 13.33,117.09 C12.63,116.6 10.52,116.61 10.52,116.61 C10.38,116.61 10.14,116.63 10,116.65 L2.28,117.66 C2.14,117.68 2.01,117.81 2.01,117.95 L1.94,119.07 C1.93,119.22 1.81,119.35 1.67,119.37 L1.34,119.41 C1.2,119.43 1.07,119.33 1.05,119.18 L0.45,114.59 C0.43,114.45 0.53,114.32 0.67,114.3 L1.01,114.26 C1.15,114.24 1.3,114.34 1.35,114.47 L1.7,115.54 C1.74,115.67 1.9,115.77 2.04,115.75 L9.69,114.74 Z" id="Path"></path>
                <path d="M0.51,102.83 C0.52,102.69 0.63,102.51 0.75,102.44 L11.48,96.04 L2.5,95.38 C2.36,95.37 2.21,95.47 2.17,95.61 L1.88,96.67 C1.84,96.81 1.69,96.91 1.55,96.9 L1.21,96.88 C1.07,96.87 0.96,96.74 0.97,96.6 L1.3,92.19 C1.31,92.05 1.44,91.94 1.58,91.95 L1.92,91.98 C2.06,91.99 2.19,92.12 2.21,92.26 L2.34,93.38 C2.36,93.52 2.49,93.65 2.63,93.66 L15.35,94.62 C15.49,94.63 15.6,94.76 15.59,94.9 L15.49,96.15 C15.48,96.29 15.37,96.47 15.25,96.54 L2.85,103.81 L13.3,104.6 C13.44,104.61 13.59,104.51 13.63,104.37 L13.92,103.31 C13.96,103.17 14.1,103.07 14.25,103.08 L14.59,103.1 C14.73,103.11 14.84,103.23 14.83,103.38 L14.49,107.8 C14.48,107.94 14.35,108.05 14.21,108.04 L13.87,108.01 C13.73,108 13.6,107.87 13.58,107.73 L13.45,106.62 C13.43,106.48 13.3,106.35 13.16,106.34 L1.73,105.47 C1.59,105.46 1.44,105.56 1.4,105.7 L1.11,106.78 C1.07,106.92 0.93,107.02 0.78,107.01 L0.44,106.99 C0.3,106.98 0.19,106.85 0.2,106.71 L0.51,102.83 Z" id="Path"></path>
                <path d="M4.92,79.01 C5.06,79.05 5.17,79.19 5.16,79.33 L5.1,80.43 C5.09,80.57 5.2,80.72 5.34,80.76 L16.47,83.54 C16.61,83.58 16.77,83.5 16.83,83.37 L17.29,82.37 C17.35,82.24 17.51,82.16 17.65,82.2 L17.98,82.28 C18.12,82.32 18.21,82.46 18.17,82.6 L16.92,87.61 C16.88,87.75 16.74,87.83 16.61,87.8 L16.28,87.72 C16.14,87.69 16.03,87.54 16.04,87.4 L16.1,86.3 C16.11,86.16 16,86.01 15.86,85.98 L4.73,83.2 C4.59,83.16 4.43,83.24 4.37,83.37 L3.9,84.37 C3.84,84.5 3.68,84.58 3.54,84.54 L3.21,84.45 C3.07,84.42 2.99,84.28 3.02,84.14 L4.27,79.13 C4.31,78.99 4.45,78.91 4.59,78.94 L4.92,79.01 Z" id="Path"></path>
                <path d="M22.36,70.57 C22.46,70.67 22.5,70.86 22.44,70.99 L21.84,72.41 C21.78,72.54 21.62,72.64 21.48,72.63 L7.97,71.72 C7.83,71.71 7.64,71.8 7.56,71.91 L7.06,72.59 C6.97,72.71 6.8,72.76 6.67,72.7 L6.36,72.57 C6.23,72.52 6.17,72.36 6.22,72.23 L8.07,67.88 C8.13,67.75 8.28,67.69 8.41,67.74 L8.72,67.87 C8.85,67.92 8.94,68.09 8.91,68.23 L8.75,69.1 C8.73,69.24 8.82,69.36 8.96,69.38 L19.81,70.22 L11.84,62.6 C11.74,62.5 11.59,62.52 11.5,62.64 L10.9,63.52 C10.82,63.64 10.65,63.69 10.51,63.64 L10.2,63.51 C10.07,63.45 10.01,63.3 10.06,63.17 L11.73,59.25 C11.79,59.12 11.94,59.06 12.07,59.11 L12.38,59.24 C12.51,59.3 12.6,59.46 12.57,59.6 L12.36,60.62 C12.33,60.76 12.39,60.96 12.49,61.05 L22.36,70.57 Z" id="Path"></path>
                <path d="M49.49,33.51 C49.82,33.42 50.15,33.3 50.5,33.13 C50.85,32.97 51.14,32.8 51.36,32.64 C52.14,32.06 52.62,31.45 52.81,30.79 C53,30.13 52.86,29.49 52.4,28.86 C52.13,28.49 51.81,28.23 51.45,28.09 C51.09,27.95 50.71,27.88 50.31,27.87 C49.91,27.86 49.49,27.9 49.06,27.98 C48.63,28.06 48.2,28.13 47.77,28.2 C47.12,28.29 46.54,28.36 46.01,28.43 C45.48,28.5 45,28.51 44.57,28.45 C44.13,28.4 43.73,28.27 43.36,28.06 C42.99,27.85 42.64,27.52 42.31,27.07 C41.95,26.58 41.73,26.06 41.66,25.53 C41.59,25 41.65,24.46 41.83,23.93 C42.02,23.39 42.33,22.86 42.76,22.34 C43.2,21.82 43.74,21.32 44.38,20.84 C44.62,20.66 44.89,20.48 45.2,20.31 C45.5,20.13 45.81,19.97 46.13,19.81 C46.45,19.66 46.76,19.51 47.07,19.38 C47.38,19.25 47.67,19.16 47.67,19.16 C47.81,19.12 47.95,19.11 47.98,19.14 C48.02,19.17 48.1,19.3 48.17,19.42 L49.26,21.33 C49.33,21.46 49.29,21.63 49.18,21.71 L48.46,22.24 C48.35,22.32 48.16,22.32 48.05,22.23 L46.72,21.11 C46.49,21.11 46.21,21.18 45.89,21.3 C45.57,21.42 45.23,21.62 44.86,21.9 C44.19,22.4 43.78,22.94 43.61,23.55 C43.45,24.15 43.57,24.73 43.97,25.28 C44.23,25.63 44.51,25.87 44.81,26.01 C45.11,26.14 45.43,26.21 45.77,26.21 C46.11,26.21 46.47,26.18 46.83,26.1 C47.2,26.02 47.58,25.95 47.97,25.88 C48.51,25.81 49.07,25.72 49.66,25.61 C50.24,25.51 50.81,25.47 51.37,25.49 C51.92,25.51 52.44,25.63 52.93,25.83 C53.42,26.03 53.83,26.39 54.19,26.91 C54.64,27.58 54.89,28.22 54.95,28.83 C55.01,29.44 54.93,30.02 54.7,30.58 C54.48,31.13 54.12,31.67 53.63,32.19 C53.14,32.71 52.56,33.21 51.91,33.69 C51.32,34.13 50.7,34.5 50.05,34.82 C49.4,35.14 48.56,35.48 48.56,35.48 C48.43,35.53 48.29,35.55 48.26,35.52 C48.23,35.49 48.14,35.36 48.07,35.24 L46.97,33.34 C46.9,33.21 46.93,33.04 47.05,32.96 L47.77,32.43 C47.88,32.34 48.07,32.35 48.18,32.44 L49.49,33.51 Z" id="Path"></path>
                <path d="M59.77,12.36 C59.84,12.49 59.8,12.66 59.69,12.76 L58.83,13.45 C58.72,13.54 58.68,13.72 58.75,13.84 L64.18,23.95 C64.25,24.08 64.42,24.14 64.55,24.1 L65.6,23.77 C65.74,23.73 65.9,23.79 65.97,23.92 L66.13,24.22 C66.2,24.35 66.15,24.5 66.02,24.57 L61.47,27.01 C61.34,27.08 61.19,27.03 61.12,26.9 L60.96,26.6 C60.89,26.48 60.93,26.3 61.04,26.21 L61.89,25.51 C62,25.42 62.04,25.25 61.97,25.12 L56.54,15.02 C56.47,14.89 56.31,14.82 56.17,14.87 L55.12,15.2 C54.98,15.24 54.82,15.17 54.75,15.05 L54.59,14.75 C54.52,14.62 54.57,14.46 54.7,14.4 L59.25,11.95 C59.38,11.88 59.54,11.93 59.6,12.06 L59.77,12.36 Z" id="Path"></path>
                <path d="M65.42,9.06 C65.45,8.98 65.59,8.87 65.72,8.82 L76.33,4.96 C76.47,4.91 76.63,4.89 76.7,4.91 C76.77,4.93 76.87,5.06 76.92,5.19 L77.83,7.46 C77.88,7.59 77.82,7.74 77.68,7.79 L76.83,8.1 C76.69,8.15 76.52,8.09 76.44,7.97 L75.69,6.86 C75.61,6.74 75.43,6.68 75.3,6.72 L74.19,7.05 C74.05,7.09 73.83,7.16 73.7,7.21 L72.62,7.6 L76.6,18.57 C76.65,18.7 76.81,18.8 76.95,18.77 L78.04,18.6 C78.18,18.58 78.34,18.67 78.39,18.8 L78.51,19.12 C78.56,19.26 78.49,19.4 78.35,19.45 L73.5,21.21 C73.36,21.26 73.21,21.19 73.17,21.05 L73.05,20.73 C73,20.6 73.06,20.43 73.18,20.36 L74.13,19.79 C74.25,19.72 74.31,19.55 74.26,19.41 L70.27,8.44 L69.19,8.84 C69.05,8.89 68.84,8.98 68.7,9.03 L67.64,9.49 C67.51,9.55 67.41,9.71 67.43,9.85 L67.57,11.18 C67.59,11.32 67.49,11.48 67.35,11.53 L66.5,11.84 C66.36,11.89 66.22,11.82 66.17,11.68 L65.44,9.43 C65.4,9.33 65.39,9.15 65.42,9.06 Z" id="Path"></path>
                <path d="M91.4,10.56 L86.66,11.46 L85.93,15.8 C85.91,15.94 86,16.06 86.15,16.06 L87.13,16.08 C87.27,16.08 87.41,16.2 87.44,16.34 L87.5,16.67 C87.52,16.81 87.43,16.95 87.29,16.97 L83.14,17.75 C83,17.77 82.86,17.68 82.84,17.54 L82.78,17.21 C82.75,17.07 82.84,16.91 82.97,16.85 L83.82,16.49 C83.95,16.43 84.08,16.27 84.11,16.13 L86.73,2.49 C86.76,2.35 86.9,2.21 87.03,2.18 L88.85,1.84 C88.99,1.82 89.16,1.89 89.23,2.02 L95.98,13.88 C96.05,14 96.23,14.11 96.37,14.11 L97.27,14.14 C97.42,14.14 97.55,14.26 97.58,14.4 L97.64,14.73 C97.67,14.87 97.57,15.01 97.43,15.03 L92.68,15.93 C92.54,15.95 92.4,15.86 92.37,15.72 L92.31,15.39 C92.28,15.25 92.37,15.09 92.5,15.03 L93.35,14.67 C93.48,14.62 93.53,14.47 93.47,14.34 L91.4,10.56 Z M87.95,4.32 L86.86,10.35 L90.86,9.6 L87.95,4.32 Z" id="Shape"></path>
                <path d="M104.53,13.48 C104.84,13.6 105.19,13.7 105.57,13.77 C105.95,13.84 106.28,13.88 106.55,13.88 C107.52,13.88 108.27,13.67 108.82,13.25 C109.36,12.83 109.63,12.24 109.63,11.46 C109.63,11 109.52,10.6 109.32,10.28 C109.11,9.95 108.85,9.67 108.53,9.42 C108.21,9.17 107.85,8.96 107.45,8.77 C107.06,8.58 106.66,8.38 106.28,8.18 C105.71,7.87 105.19,7.59 104.72,7.33 C104.26,7.07 103.86,6.8 103.54,6.5 C103.22,6.2 102.97,5.86 102.8,5.47 C102.63,5.08 102.54,4.61 102.54,4.05 C102.54,3.44 102.67,2.89 102.92,2.42 C103.18,1.95 103.54,1.55 104.01,1.23 C104.48,0.91 105.04,0.66 105.7,0.5 C106.36,0.33 107.09,0.25 107.9,0.24 C108.2,0.24 108.52,0.26 108.87,0.3 C109.22,0.34 109.57,0.39 109.91,0.45 C110.26,0.51 110.6,0.58 110.92,0.66 C111.25,0.74 111.53,0.84 111.53,0.84 C111.66,0.89 111.79,0.96 111.8,1 C111.81,1.05 111.81,1.2 111.79,1.34 L111.53,3.52 C111.51,3.66 111.38,3.78 111.24,3.78 L110.35,3.78 C110.21,3.78 110.06,3.67 110.03,3.53 L109.61,1.84 C109.42,1.7 109.16,1.59 108.83,1.51 C108.5,1.42 108.11,1.38 107.64,1.38 C106.81,1.38 106.15,1.58 105.66,1.97 C105.17,2.36 104.93,2.9 104.93,3.58 C104.93,4.02 105.02,4.38 105.18,4.66 C105.34,4.94 105.56,5.19 105.84,5.39 C106.11,5.59 106.42,5.77 106.76,5.93 C107.1,6.09 107.45,6.25 107.81,6.43 C108.29,6.69 108.79,6.95 109.33,7.21 C109.86,7.47 110.34,7.78 110.77,8.12 C111.2,8.47 111.55,8.86 111.83,9.31 C112.1,9.76 112.23,10.3 112.2,10.92 C112.16,11.73 111.99,12.39 111.68,12.92 C111.37,13.45 110.96,13.87 110.45,14.18 C109.94,14.5 109.33,14.72 108.63,14.84 C107.93,14.97 107.17,15.03 106.35,15.03 C105.61,15.03 104.89,14.97 104.18,14.85 C103.47,14.72 102.59,14.5 102.59,14.5 C102.45,14.46 102.33,14.4 102.33,14.35 C102.32,14.31 102.33,14.15 102.35,14.01 L102.59,11.83 C102.61,11.69 102.74,11.57 102.88,11.57 L103.77,11.57 C103.91,11.57 104.06,11.68 104.09,11.82 L104.53,13.48 Z" id="Path"></path>
                <path d="M141.59,19.28 C140.03,20.12 138.19,20.19 136.06,19.5 C135.03,19.17 134.17,18.72 133.46,18.16 C132.75,17.6 132.22,16.94 131.85,16.18 C131.48,15.42 131.29,14.56 131.28,13.6 C131.27,12.64 131.45,11.6 131.81,10.47 C132.19,9.29 132.68,8.3 133.29,7.51 C133.89,6.72 134.58,6.12 135.35,5.7 C136.12,5.29 136.97,5.06 137.89,5.03 C138.81,4.99 139.78,5.14 140.79,5.46 C141.8,5.79 142.66,6.23 143.38,6.79 C144.09,7.35 144.64,8.02 145.01,8.79 C145.38,9.56 145.58,10.43 145.59,11.4 C145.61,12.36 145.43,13.42 145.06,14.56 C144.3,16.88 143.15,18.45 141.59,19.28 Z M142.87,8.98 C142.49,7.78 141.66,6.98 140.38,6.56 C139.08,6.14 137.93,6.29 136.92,7.01 C135.92,7.73 135.08,9.1 134.43,11.13 C133.76,13.18 133.62,14.8 133.99,16 C134.36,17.2 135.2,18 136.49,18.42 C137.79,18.84 138.94,18.69 139.95,17.97 C140.96,17.25 141.79,15.88 142.44,13.85 C143.11,11.8 143.25,10.18 142.87,8.98 Z" id="Shape"></path>
                <path d="M149.99,23.49 C150.21,23.75 150.46,24 150.76,24.25 C151.06,24.5 151.33,24.69 151.57,24.82 C152.42,25.28 153.18,25.46 153.86,25.35 C154.54,25.25 155.06,24.85 155.43,24.17 C155.65,23.76 155.75,23.37 155.73,22.98 C155.71,22.6 155.61,22.22 155.45,21.85 C155.28,21.48 155.08,21.12 154.82,20.77 C154.56,20.41 154.32,20.06 154.08,19.69 C153.73,19.14 153.41,18.64 153.13,18.19 C152.85,17.74 152.64,17.31 152.5,16.89 C152.36,16.47 152.31,16.06 152.35,15.63 C152.39,15.21 152.54,14.75 152.8,14.26 C153.09,13.72 153.47,13.3 153.92,13.02 C154.37,12.73 154.88,12.55 155.45,12.5 C156.02,12.44 156.63,12.5 157.29,12.67 C157.95,12.84 158.63,13.12 159.34,13.5 C159.6,13.64 159.88,13.81 160.16,14.02 C160.45,14.22 160.73,14.43 161,14.65 C161.28,14.87 161.54,15.1 161.79,15.32 C162.04,15.55 162.24,15.77 162.24,15.77 C162.34,15.88 162.41,16 162.39,16.04 C162.38,16.08 162.3,16.22 162.22,16.33 L160.95,18.12 C160.87,18.24 160.69,18.28 160.57,18.21 L159.79,17.78 C159.66,17.71 159.59,17.54 159.63,17.4 L160.08,15.72 C159.98,15.51 159.8,15.29 159.56,15.05 C159.31,14.82 158.99,14.59 158.58,14.37 C157.85,13.98 157.18,13.83 156.56,13.94 C155.94,14.05 155.47,14.4 155.15,15 C154.94,15.38 154.84,15.74 154.85,16.07 C154.86,16.4 154.93,16.72 155.07,17.03 C155.21,17.34 155.4,17.64 155.62,17.95 C155.85,18.25 156.07,18.56 156.3,18.89 C156.59,19.34 156.91,19.82 157.25,20.3 C157.59,20.79 157.87,21.29 158.08,21.8 C158.29,22.31 158.41,22.83 158.43,23.35 C158.45,23.88 158.3,24.41 157.98,24.95 C157.56,25.64 157.09,26.14 156.56,26.45 C156.03,26.76 155.47,26.93 154.87,26.96 C154.27,26.99 153.63,26.89 152.96,26.67 C152.29,26.44 151.59,26.14 150.87,25.75 C150.22,25.4 149.62,25 149.06,24.55 C148.5,24.1 147.83,23.48 147.83,23.48 C147.72,23.38 147.65,23.27 147.67,23.22 C147.69,23.18 147.77,23.05 147.85,22.93 L149.11,21.13 C149.19,21.02 149.36,20.98 149.49,21.04 L150.27,21.46 C150.4,21.53 150.47,21.7 150.43,21.84 L149.99,23.49 Z" id="Path"></path>
                <path d="M164.89,32.89 C164.8,33 164.82,33.17 164.93,33.26 L166.69,34.64 C166.8,34.73 166.99,34.87 167.11,34.95 L168.05,35.6 C168.17,35.68 168.36,35.67 168.47,35.58 L169.62,34.65 C169.73,34.56 169.92,34.56 170.03,34.65 L170.75,35.21 C170.86,35.3 170.88,35.46 170.79,35.57 L169.27,37.38 C169.18,37.49 169.06,37.62 169.01,37.66 C168.96,37.71 168.82,37.67 168.71,37.58 L161.08,31.6 C160.97,31.51 160.95,31.35 161.04,31.23 L161.25,30.97 C161.34,30.86 161.52,30.82 161.64,30.88 L162.62,31.38 C162.75,31.45 162.92,31.41 163.01,31.29 L170.09,22.27 C170.18,22.16 170.17,21.98 170.08,21.87 L169.36,21.04 C169.27,20.93 169.26,20.75 169.35,20.64 L169.56,20.38 C169.65,20.27 169.81,20.24 169.93,20.33 L173.98,23.5 C174.09,23.59 174.11,23.75 174.03,23.87 L173.82,24.14 C173.73,24.25 173.56,24.29 173.43,24.23 L172.45,23.73 C172.32,23.66 172.14,23.7 172.06,23.82 L164.89,32.89 Z" id="Path"></path>
                <path d="M181.83,48.96 C180.06,48.88 178.44,48.01 176.96,46.33 C176.25,45.52 175.73,44.7 175.41,43.86 C175.09,43.02 174.96,42.18 175.03,41.33 C175.1,40.48 175.38,39.65 175.85,38.82 C176.33,37.99 177.01,37.18 177.9,36.4 C178.83,35.58 179.76,34.98 180.68,34.6 C181.6,34.22 182.5,34.05 183.37,34.09 C184.24,34.13 185.08,34.37 185.9,34.81 C186.71,35.25 187.47,35.86 188.17,36.66 C188.87,37.46 189.39,38.28 189.72,39.12 C190.05,39.97 190.17,40.82 190.1,41.67 C190.03,42.53 189.75,43.37 189.27,44.21 C188.79,45.05 188.1,45.86 187.2,46.66 C185.39,48.27 183.59,49.03 181.83,48.96 Z M188.18,40.75 C188.47,39.53 188.16,38.41 187.27,37.4 C186.37,36.38 185.3,35.92 184.07,36.03 C182.84,36.14 181.42,36.9 179.83,38.3 C178.21,39.73 177.26,41.05 176.97,42.27 C176.68,43.49 176.98,44.61 177.89,45.63 C178.79,46.65 179.86,47.11 181.09,47 C182.32,46.89 183.74,46.14 185.33,44.73 C186.95,43.29 187.9,41.97 188.18,40.75 Z" id="Shape"></path>
                <path d="M194.04,57.95 C194.15,57.86 194.18,57.68 194.11,57.56 L192.56,54.92 L187.45,58 L189.12,60.81 C189.19,60.93 189.32,61.13 189.4,61.25 L190.04,62.19 C190.12,62.31 190.3,62.37 190.43,62.33 L191.83,61.87 C191.96,61.83 192.14,61.89 192.21,62.01 L192.69,62.81 C192.76,62.93 192.72,63.09 192.59,63.16 L190.52,64.3 C190.39,64.37 190.24,64.44 190.18,64.47 C190.12,64.49 190,64.41 189.93,64.29 L184.56,55.25 C184.49,55.13 184.53,54.97 184.65,54.89 L184.94,54.72 C185.06,54.65 185.24,54.67 185.34,54.78 L186.07,55.61 C186.16,55.72 186.34,55.74 186.47,55.67 L196.33,49.81 C196.45,49.74 196.51,49.57 196.47,49.43 L196.1,48.39 C196.05,48.25 196.11,48.09 196.24,48.01 L196.53,47.84 C196.65,47.77 196.81,47.81 196.89,47.93 L202.01,56.55 C202.08,56.67 202.14,56.83 202.13,56.91 C202.12,56.98 202.02,57.11 201.9,57.19 L199.84,58.51 C199.72,58.59 199.56,58.55 199.49,58.43 L199.02,57.65 C198.95,57.53 198.97,57.35 199.08,57.25 L200.2,56.2 C200.3,56.1 200.34,55.92 200.27,55.79 L199.74,54.76 C199.68,54.63 199.56,54.43 199.49,54.31 L197.98,51.76 L193.46,54.46 L195.02,57.09 C195.09,57.21 195.26,57.27 195.4,57.22 L196.43,56.83 C196.56,56.78 196.73,56.84 196.81,56.97 L197.2,57.63 C197.27,57.76 197.23,57.91 197.11,57.99 L193.78,59.97 C193.66,60.04 193.5,60 193.42,59.88 L193.03,59.22 C192.96,59.1 192.99,58.92 193.1,58.83 L194.04,57.95 Z" id="Path"></path>
                <path d="M25.08,51.84 C24.95,51.78 24.78,51.84 24.7,51.96 L23.02,54.52 L28.04,57.75 L29.83,55.01 C29.91,54.89 30.03,54.69 30.1,54.56 L30.66,53.57 C30.73,53.44 30.71,53.26 30.61,53.16 L29.58,52.11 C29.48,52.01 29.46,51.83 29.54,51.71 L30.05,50.93 C30.13,50.81 30.29,50.78 30.41,50.86 L32.35,52.22 C32.47,52.3 32.6,52.41 32.65,52.45 C32.7,52.5 32.68,52.63 32.6,52.75 L26.86,61.56 C26.78,61.68 26.62,61.71 26.5,61.63 L26.22,61.45 C26.1,61.37 26.05,61.2 26.1,61.07 L26.52,60.05 C26.57,59.92 26.52,59.75 26.4,59.67 L16.79,53.41 C16.67,53.33 16.49,53.35 16.39,53.46 L15.62,54.25 C15.52,54.35 15.34,54.37 15.22,54.29 L14.94,54.11 C14.82,54.03 14.79,53.87 14.86,53.75 L20.34,45.35 C20.42,45.23 20.54,45.11 20.61,45.08 C20.68,45.05 20.84,45.09 20.96,45.17 L23.06,46.44 C23.18,46.51 23.22,46.67 23.14,46.79 L22.64,47.55 C22.56,47.67 22.39,47.73 22.25,47.68 L20.81,47.15 C20.68,47.1 20.5,47.15 20.41,47.27 L19.72,48.2 C19.63,48.32 19.5,48.51 19.42,48.63 L17.79,51.11 L22.21,53.98 L23.88,51.42 C23.96,51.3 23.94,51.12 23.83,51.03 L23.03,50.27 C22.93,50.17 22.91,49.99 22.98,49.87 L23.4,49.23 C23.48,49.11 23.64,49.07 23.76,49.15 L27.01,51.27 C27.13,51.35 27.17,51.51 27.09,51.63 L26.67,52.28 C26.59,52.4 26.42,52.45 26.29,52.39 L25.08,51.84 Z" id="Path"></path>
                <path d="M207.79,69.22 C207.84,69.35 207.81,69.56 207.72,69.68 L200.4,79.82 L208.92,76.85 C209.05,76.8 209.15,76.65 209.13,76.51 L208.97,75.42 C208.95,75.28 209.04,75.12 209.18,75.08 L209.5,74.97 C209.64,74.92 209.79,75 209.83,75.13 L211.28,79.31 C211.33,79.45 211.25,79.6 211.12,79.64 L210.8,79.75 C210.67,79.8 210.5,79.74 210.42,79.61 L209.86,78.63 C209.79,78.51 209.62,78.44 209.48,78.49 L197.42,82.66 C197.28,82.71 197.14,82.63 197.09,82.5 L196.68,81.31 C196.63,81.17 196.66,80.97 196.75,80.85 L205.24,69.24 L195.33,72.67 C195.19,72.72 195.1,72.87 195.12,73.01 L195.28,74.1 C195.3,74.24 195.21,74.4 195.07,74.44 L194.75,74.55 C194.61,74.6 194.46,74.53 194.42,74.39 L192.97,70.21 C192.92,70.08 192.99,69.92 193.13,69.88 L193.45,69.77 C193.58,69.72 193.75,69.78 193.82,69.91 L194.38,70.88 C194.45,71 194.62,71.07 194.76,71.02 L205.6,67.27 C205.74,67.22 205.83,67.07 205.81,66.93 L205.65,65.82 C205.63,65.68 205.72,65.52 205.86,65.48 L206.18,65.37 C206.32,65.33 206.46,65.4 206.51,65.53 L207.79,69.22 Z" id="Path"></path>
                <path d="M200.27,91.15 C200.19,91.47 200.15,91.83 200.13,92.22 C200.11,92.61 200.12,92.94 200.16,93.21 C200.3,94.16 200.61,94.88 201.1,95.36 C201.59,95.84 202.22,96.03 202.99,95.92 C203.45,95.85 203.82,95.7 204.12,95.44 C204.41,95.19 204.66,94.89 204.86,94.54 C205.06,94.19 205.22,93.8 205.35,93.38 C205.48,92.96 205.62,92.55 205.77,92.14 C206,91.53 206.21,90.97 206.4,90.48 C206.59,89.98 206.81,89.56 207.06,89.19 C207.31,88.83 207.62,88.54 207.98,88.32 C208.34,88.1 208.8,87.95 209.35,87.87 C209.96,87.78 210.51,87.83 211.01,88.02 C211.51,88.21 211.96,88.51 212.34,88.93 C212.72,89.35 213.04,89.87 213.3,90.51 C213.56,91.14 213.74,91.86 213.86,92.65 C213.9,92.95 213.93,93.27 213.94,93.61 C213.95,93.96 213.95,94.31 213.94,94.66 C213.93,95.01 213.9,95.36 213.87,95.69 C213.83,96.03 213.78,96.32 213.78,96.32 C213.75,96.46 213.7,96.59 213.65,96.61 C213.61,96.63 213.45,96.65 213.31,96.65 L211.11,96.7 C210.97,96.7 210.83,96.59 210.81,96.45 L210.68,95.57 C210.66,95.43 210.75,95.27 210.89,95.21 L212.5,94.57 C212.61,94.36 212.68,94.09 212.72,93.76 C212.76,93.42 212.75,93.03 212.68,92.56 C212.56,91.74 212.28,91.11 211.82,90.68 C211.36,90.25 210.8,90.09 210.13,90.18 C209.7,90.24 209.35,90.37 209.09,90.58 C208.83,90.78 208.62,91.03 208.45,91.33 C208.29,91.63 208.15,91.96 208.04,92.32 C207.93,92.68 207.82,93.05 207.69,93.42 C207.5,93.93 207.31,94.47 207.13,95.03 C206.94,95.59 206.71,96.11 206.42,96.59 C206.14,97.06 205.79,97.47 205.39,97.8 C204.98,98.13 204.47,98.33 203.84,98.39 C203.04,98.47 202.35,98.39 201.79,98.15 C201.23,97.91 200.75,97.57 200.37,97.11 C199.99,96.65 199.68,96.08 199.46,95.4 C199.24,94.73 199.07,93.98 198.95,93.17 C198.85,92.44 198.81,91.72 198.83,91 C198.86,90.28 198.96,89.38 198.96,89.38 C198.98,89.24 199.02,89.11 199.07,89.1 C199.11,89.09 199.27,89.08 199.41,89.07 L201.61,89.01 C201.75,89 201.89,89.12 201.91,89.26 L202.04,90.14 C202.06,90.28 201.97,90.44 201.84,90.5 L200.27,91.15 Z" id="Path"></path>
                <path d="M214.03,110.47 C213.89,110.47 213.75,110.36 213.72,110.22 L213.5,109.14 C213.47,109 213.33,108.89 213.19,108.89 L201.72,108.94 C201.57,108.94 201.44,109.06 201.41,109.2 L201.21,110.28 C201.18,110.42 201.05,110.54 200.9,110.54 L200.56,110.54 C200.42,110.54 200.3,110.42 200.3,110.28 L200.28,105.12 C200.28,104.98 200.4,104.86 200.54,104.86 L200.88,104.86 C201.02,104.86 201.16,104.97 201.19,105.11 L201.4,106.19 C201.43,106.33 201.57,106.44 201.71,106.44 L213.18,106.39 C213.32,106.39 213.46,106.27 213.49,106.13 L213.69,105.05 C213.72,104.91 213.86,104.79 214,104.79 L214.34,104.79 C214.49,104.79 214.6,104.91 214.6,105.05 L214.62,110.21 C214.62,110.35 214.5,110.47 214.36,110.47 L214.03,110.47 Z" id="Path"></path>
                <path d="M200.91,119.21 C200.74,119.5 200.59,119.83 200.46,120.19 C200.33,120.55 200.24,120.87 200.2,121.14 C200.05,122.09 200.14,122.87 200.47,123.48 C200.79,124.08 201.34,124.44 202.11,124.56 C202.57,124.63 202.98,124.59 203.33,124.44 C203.68,124.29 204.01,124.07 204.3,123.8 C204.59,123.52 204.86,123.2 205.11,122.84 C205.36,122.48 205.61,122.13 205.88,121.78 C206.28,121.27 206.64,120.8 206.97,120.38 C207.3,119.96 207.63,119.62 207.98,119.35 C208.33,119.08 208.7,118.89 209.12,118.78 C209.53,118.67 210.01,118.66 210.56,118.75 C211.17,118.84 211.68,119.06 212.11,119.38 C212.54,119.71 212.87,120.13 213.11,120.65 C213.35,121.16 213.51,121.76 213.56,122.44 C213.62,123.12 213.59,123.86 213.46,124.65 C213.42,124.95 213.34,125.26 213.25,125.6 C213.16,125.94 213.05,126.27 212.94,126.6 C212.83,126.94 212.7,127.25 212.57,127.57 C212.44,127.88 212.3,128.14 212.3,128.14 C212.23,128.27 212.14,128.37 212.09,128.38 C212.04,128.38 211.89,128.35 211.75,128.32 L209.63,127.72 C209.49,127.68 209.4,127.53 209.42,127.39 L209.56,126.51 C209.58,126.37 209.72,126.25 209.86,126.23 L211.59,126.09 C211.75,125.92 211.9,125.68 212.04,125.38 C212.18,125.07 212.28,124.69 212.36,124.23 C212.49,123.41 212.4,122.73 212.09,122.18 C211.78,121.64 211.29,121.31 210.62,121.21 C210.19,121.14 209.82,121.17 209.51,121.28 C209.2,121.4 208.92,121.57 208.68,121.81 C208.44,122.05 208.21,122.32 208,122.63 C207.79,122.94 207.57,123.26 207.34,123.58 C207.01,124.01 206.67,124.47 206.33,124.95 C205.98,125.43 205.61,125.86 205.2,126.23 C204.79,126.6 204.34,126.88 203.85,127.08 C203.37,127.28 202.81,127.32 202.2,127.19 C201.41,127.02 200.78,126.75 200.31,126.36 C199.84,125.97 199.49,125.49 199.26,124.94 C199.03,124.39 198.91,123.75 198.9,123.04 C198.89,122.33 198.95,121.57 199.07,120.76 C199.18,120.03 199.36,119.33 199.6,118.65 C199.84,117.97 200.2,117.14 200.2,117.14 C200.26,117.01 200.34,116.9 200.39,116.9 C200.43,116.9 200.59,116.93 200.72,116.97 L202.84,117.55 C202.98,117.59 203.07,117.73 203.05,117.88 L202.91,118.76 C202.89,118.9 202.75,119.03 202.61,119.04 L200.91,119.21 Z" id="Path"></path>
            </g>
            <g id="Group" transform="translate(42.000000, 182.000000)">
                <path d="M13.16,20.05 C13.29,20.11 13.46,20.06 13.54,19.94 L19.44,11.46 L8.45,17.69 C8.32,17.76 8.13,17.74 8.02,17.65 L7.58,17.29 C7.47,17.2 7.41,17.01 7.44,16.87 L10.62,5 L3.95,12.27 C3.85,12.37 3.83,12.55 3.92,12.66 L4.59,13.57 C4.68,13.69 4.67,13.87 4.57,13.97 L4.34,14.21 C4.24,14.31 4.08,14.32 3.97,14.22 L0.72,11.19 C0.61,11.09 0.61,10.93 0.71,10.82 L0.94,10.57 C1.04,10.47 1.22,10.44 1.34,10.52 L2.28,11.11 C2.4,11.18 2.58,11.16 2.68,11.06 L10.23,2.68 C10.33,2.57 10.33,2.4 10.23,2.29 L9.52,1.44 C9.43,1.33 9.43,1.15 9.52,1.04 L9.73,0.78 C9.82,0.67 9.99,0.65 10.1,0.74 L13.5,3.5 C13.61,3.59 13.67,3.78 13.64,3.92 L10.93,14.37 L20.24,9.3 C20.37,9.23 20.56,9.25 20.67,9.34 L23.93,11.99 C24.04,12.08 24.06,12.24 23.97,12.35 L23.76,12.61 C23.67,12.72 23.49,12.76 23.37,12.69 L22.39,12.16 C22.26,12.09 22.09,12.13 22,12.24 L15.56,21.39 C15.48,21.51 15.49,21.69 15.59,21.8 L16.35,22.61 C16.45,22.71 16.46,22.89 16.37,23.01 L16.17,23.28 C16.08,23.4 15.92,23.42 15.81,23.34 L11.62,20.27 C11.51,20.19 11.48,20.02 11.56,19.91 L11.76,19.64 C11.84,19.52 12.02,19.48 12.15,19.54 L13.16,20.05 Z" id="Path"></path>
                <path d="M37.78,19.32 C38.79,19.83 39.67,20.41 40.43,21.06 C41.18,21.7 41.75,22.43 42.13,23.23 C42.51,24.03 42.68,24.92 42.64,25.89 C42.59,26.87 42.27,27.94 41.67,29.12 C41.11,30.22 40.45,31.1 39.69,31.75 C38.93,32.4 38.11,32.84 37.22,33.06 C36.33,33.28 35.39,33.3 34.39,33.12 C33.39,32.94 31.54,32.15 31.54,32.15 C31.41,32.09 31.2,32 31.07,31.93 L26.11,29.39 C25.98,29.33 25.93,29.17 26,29.04 L26.15,28.74 C26.21,28.61 26.38,28.54 26.52,28.58 L27.59,28.89 C27.73,28.93 27.89,28.86 27.96,28.73 L33.17,18.55 C33.24,18.42 33.2,18.25 33.08,18.16 L32.21,17.48 C32.1,17.39 32.06,17.22 32.12,17.09 L32.27,16.79 C32.34,16.66 32.49,16.61 32.62,16.68 L37.78,19.32 Z M40.11,25.36 C40.25,24.57 40.23,23.85 40.06,23.21 C39.88,22.57 39.54,21.99 39.05,21.49 C38.55,20.98 37.32,20.25 37.32,20.25 C37.2,20.17 36.99,20.06 36.86,20 L35.56,19.33 L30.03,30.14 L31.27,30.78 C31.87,31.08 32.45,31.33 33,31.52 C33.56,31.7 34.09,31.79 34.61,31.78 C35.43,31.71 36.23,31.39 37.02,30.82 C37.81,30.24 38.53,29.31 39.18,28.03 C39.66,27.04 39.97,26.15 40.11,25.36 Z" id="Shape"></path>
                <path d="M62.24,29.39 C62.21,28.91 62.22,28.83 62.21,28.49 C62.19,28.07 62.06,27.92 61.64,27.65 C61.47,27.55 61.29,27.46 61.1,27.38 C60.79,27.24 60.44,27.13 60.05,27.06 C59.34,26.93 58.67,26.94 58.04,27.08 C57.41,27.22 56.85,27.5 56.35,27.92 C55.85,28.34 55.42,28.9 55.06,29.6 C54.7,30.3 54.44,31.15 54.26,32.12 C53.88,34.2 54.03,35.81 54.7,36.97 C55.37,38.13 56.54,38.86 58.19,39.16 C58.67,39.25 59.2,39.28 59.77,39.26 C60.26,39.24 60.81,39.17 61.45,39.09 C61.78,39.05 61.81,39.29 61.81,39.29 L61.85,39.55 C61.85,39.55 61.88,39.85 61.63,39.95 C61.07,40.16 60.43,40.31 59.72,40.41 C58.89,40.52 57.99,40.49 57,40.31 C56.06,40.14 55.2,39.85 54.42,39.45 C53.64,39.04 53.01,38.51 52.5,37.83 C52,37.16 51.65,36.34 51.46,35.38 C51.27,34.42 51.3,33.3 51.53,32.01 C51.77,30.71 52.16,29.63 52.71,28.76 C53.26,27.9 53.93,27.22 54.72,26.73 C55.5,26.24 56.38,25.94 57.36,25.81 C58.34,25.68 59.37,25.72 60.46,25.92 C61.2,26.06 61.88,26.25 62.5,26.51 C62.93,26.69 63.34,26.87 63.72,27.06 C64.25,27.32 64.11,27.77 64.11,27.77 L63.54,29.65 C63.54,29.65 63.4,30.06 63.04,30 C62.72,29.94 62.52,29.91 62.52,29.91 C62.52,29.91 62.27,29.87 62.24,29.39 Z" id="Path"></path>
                <path d="M84.03,29.88 C83.89,29.42 83.88,29.34 83.79,29.01 C83.67,28.61 83.5,28.49 83.03,28.33 C82.85,28.27 82.65,28.22 82.44,28.19 C82.11,28.13 81.74,28.11 81.35,28.13 C80.62,28.17 79.98,28.34 79.4,28.62 C78.83,28.91 78.35,29.31 77.96,29.84 C77.57,30.37 77.29,31.02 77.11,31.78 C76.93,32.55 76.87,33.43 76.93,34.42 C77.05,36.52 77.58,38.06 78.51,39.03 C79.44,39.99 80.74,40.43 82.42,40.33 C82.91,40.3 83.43,40.21 83.98,40.05 C84.45,39.92 84.97,39.72 85.57,39.49 C85.88,39.37 85.97,39.6 85.97,39.6 L86.06,39.84 C86.06,39.84 86.16,40.12 85.94,40.28 C85.45,40.62 84.86,40.91 84.19,41.18 C83.41,41.48 82.53,41.67 81.53,41.73 C80.57,41.79 79.67,41.71 78.82,41.5 C77.97,41.29 77.22,40.92 76.57,40.39 C75.92,39.86 75.39,39.14 74.98,38.26 C74.57,37.37 74.33,36.27 74.25,34.97 C74.17,33.65 74.3,32.51 74.63,31.54 C74.96,30.57 75.45,29.75 76.1,29.09 C76.75,28.43 77.53,27.93 78.45,27.57 C79.37,27.22 80.38,27 81.49,26.94 C82.24,26.89 82.95,26.92 83.61,27.03 C84.07,27.1 84.51,27.18 84.93,27.27 C85.51,27.4 85.48,27.87 85.48,27.87 L85.37,29.83 C85.37,29.83 85.34,30.26 84.97,30.29 C84.64,30.31 84.45,30.32 84.45,30.32 C84.45,30.32 84.18,30.33 84.03,29.88 Z" id="Path"></path>
                <path d="M105.29,25.39 C105.05,24.97 105.03,24.89 104.87,24.59 C104.67,24.22 104.48,24.14 103.99,24.08 C103.8,24.05 103.59,24.06 103.38,24.06 C103.04,24.07 102.68,24.13 102.3,24.23 C101.6,24.42 101,24.72 100.5,25.12 C100,25.52 99.62,26.01 99.35,26.61 C99.08,27.21 98.94,27.9 98.93,28.69 C98.91,29.48 99.04,30.35 99.3,31.31 C99.86,33.34 100.7,34.73 101.81,35.48 C102.92,36.23 104.29,36.38 105.91,35.93 C106.38,35.8 106.87,35.6 107.37,35.34 C107.8,35.11 108.27,34.81 108.81,34.46 C109.09,34.28 109.23,34.48 109.23,34.48 L109.37,34.7 C109.37,34.7 109.53,34.95 109.35,35.15 C108.94,35.58 108.43,35.99 107.83,36.39 C107.13,36.86 106.31,37.22 105.34,37.49 C104.42,37.74 103.52,37.86 102.65,37.83 C101.78,37.8 100.97,37.6 100.22,37.22 C99.47,36.83 98.81,36.25 98.22,35.47 C97.63,34.69 97.16,33.66 96.82,32.41 C96.47,31.14 96.35,29.99 96.47,28.97 C96.59,27.95 96.9,27.05 97.39,26.27 C97.88,25.49 98.54,24.83 99.37,24.29 C100.19,23.76 101.14,23.34 102.21,23.04 C102.93,22.84 103.63,22.72 104.3,22.68 C104.77,22.65 105.22,22.64 105.64,22.64 C106.23,22.64 106.3,23.11 106.3,23.11 L106.61,25.05 C106.61,25.05 106.67,25.48 106.31,25.58 C105.99,25.67 105.8,25.72 105.8,25.72 C105.8,25.72 105.52,25.81 105.29,25.39 Z" id="Path"></path>
                <path d="M122.98,21.92 L116.67,19.06 C116.54,19 116.32,18.99 116.18,19.03 L115.23,19.32 C115.09,19.36 114.92,19.3 114.85,19.17 L114.68,18.88 C114.61,18.75 114.65,18.6 114.78,18.52 L119.32,15.94 C119.44,15.87 119.6,15.91 119.68,16.03 L119.85,16.33 C119.92,16.45 119.89,16.63 119.79,16.73 L119.23,17.25 C119.12,17.35 119.14,17.48 119.27,17.54 L123.77,19.68 L124.32,14.66 C124.34,14.52 124.24,14.43 124.1,14.48 L123.31,14.73 C123.17,14.77 123,14.71 122.93,14.58 L122.76,14.29 C122.69,14.16 122.73,14 122.86,13.93 L126.46,11.88 C126.58,11.81 126.74,11.85 126.81,11.98 L126.98,12.27 C127.05,12.39 127.02,12.57 126.91,12.67 L126.09,13.39 C125.98,13.48 125.88,13.68 125.87,13.82 L125.17,20.21 L132.16,23.46 C132.29,23.52 132.51,23.53 132.65,23.49 L133.62,23.19 C133.76,23.15 133.93,23.21 134,23.34 L134.17,23.63 C134.24,23.75 134.2,23.91 134.07,23.98 L129.51,26.58 C129.38,26.65 129.23,26.61 129.16,26.48 L128.99,26.19 C128.92,26.06 128.95,25.88 129.06,25.79 L129.67,25.24 C129.78,25.14 129.76,25.01 129.63,24.95 L124.38,22.43 L123.74,28.31 C123.72,28.45 123.82,28.53 123.96,28.49 L124.71,28.26 C124.85,28.22 125.02,28.28 125.09,28.41 L125.26,28.7 C125.33,28.82 125.29,28.98 125.16,29.05 L121.54,31.11 C121.42,31.18 121.26,31.14 121.19,31.01 L121.02,30.72 C120.95,30.59 120.98,30.42 121.09,30.32 L121.91,29.6 C122.02,29.51 122.12,29.31 122.14,29.17 L122.98,21.92 Z" id="Path"></path>
                <path d="M138.62,2.73 C138.71,2.84 138.72,3.02 138.63,3.13 L137.95,4.01 C137.86,4.12 137.87,4.31 137.96,4.41 L145.53,12.99 C145.62,13.1 145.8,13.13 145.93,13.05 L146.88,12.49 C147,12.42 147.18,12.44 147.28,12.55 L147.5,12.8 C147.59,12.91 147.58,13.07 147.48,13.17 L143.59,16.6 C143.48,16.69 143.32,16.69 143.22,16.58 L143,16.33 C142.9,16.22 142.9,16.04 142.99,15.93 L143.67,15.05 C143.76,14.94 143.75,14.76 143.66,14.65 L136.09,6.07 C136,5.96 135.82,5.93 135.69,6.01 L134.74,6.57 C134.61,6.64 134.44,6.61 134.34,6.51 L134.12,6.26 C134.03,6.15 134.04,5.99 134.14,5.89 L138.03,2.46 C138.14,2.36 138.3,2.38 138.4,2.48 L138.62,2.73 Z" id="Path"></path>
            </g>
            <path d="M51.62,50.32 C51.76,50.34 51.96,50.28 52.05,50.18 L54.21,47.91 C54.31,47.8 54.3,47.64 54.2,47.54 L53.96,47.31 C53.85,47.21 53.67,47.2 53.56,47.28 L52.74,47.85 C52.62,47.93 52.41,47.98 52.27,47.96 L45.81,46.91 C45.67,46.89 45.6,46.76 45.66,46.63 C45.66,46.63 46.45,44.93 46.42,44.04 C46.39,43.15 45.99,42.35 45.23,41.62 C44.69,41.1 44.14,40.8 43.59,40.72 C43.04,40.64 42.5,40.7 41.97,40.89 C41.44,41.08 40.94,41.38 40.45,41.77 C39.96,42.16 39.27,42.84 39.27,42.84 C39.17,42.94 39,43.11 38.9,43.21 L35.1,47.2 C35,47.31 35.01,47.47 35.11,47.57 L35.35,47.8 C35.45,47.9 35.63,47.91 35.75,47.83 L36.66,47.17 C36.78,47.09 36.96,47.1 37.06,47.2 L45.37,55.11 C45.47,55.21 45.49,55.39 45.42,55.51 L44.81,56.45 C44.73,56.57 44.75,56.75 44.86,56.85 L45.11,57.08 C45.21,57.18 45.38,57.17 45.48,57.07 L49.04,53.33 C49.14,53.23 49.13,53.06 49.03,52.96 L48.78,52.72 C48.68,52.62 48.5,52.61 48.38,52.69 L47.48,53.33 C47.36,53.41 47.18,53.4 47.08,53.3 L43.25,49.66 L43.82,49.06 C43.92,48.96 44.12,48.89 44.26,48.92 L51.62,50.32 Z M42.79,48.87 C42.69,48.98 42.62,49.04 42.62,49.04 L38.49,45.13 L39.23,44.36 C39.33,44.25 39.49,44.09 39.6,43.99 C39.6,43.99 40.05,43.55 40.37,43.31 C40.69,43.08 41.01,42.92 41.34,42.85 C41.67,42.78 42.01,42.8 42.36,42.92 C42.71,43.04 43.07,43.28 43.45,43.63 C44.27,44.41 44.66,45.17 44.61,45.91 C44.57,46.65 43.63,47.93 43.63,47.93 C43.55,48.05 43.39,48.23 43.3,48.33 L42.79,48.87 Z" id="Shape"></path>
        </g>
    </g>
</svg>