<?xml version="1.0" encoding="UTF-8" standalone="no"?>
<svg
    xmlns:dc="http://purl.org/dc/elements/1.1/"
    xmlns:cc="http://creativecommons.org/ns#"
    xmlns:rdf="http://www.w3.org/1999/02/22-rdf-syntax-ns#"
    xmlns:svg="http://www.w3.org/2000/svg"
    xmlns="http://www.w3.org/2000/svg"
    viewBox="20 114 300 60"
    width="400"
    height="80"
    id="svg2" version="1.1">
    <metadata id="metadata8">
        <rdf:RDF><cc:Work rdf:about=""><dc:format>image/svg+xml</dc:format>
        <dc:type rdf:resource="http://purl.org/dc/dcmitype/StillImage" />
        </cc:Work></rdf:RDF>
    </metadata>
    <defs id="defs6" />
    <g transform="matrix(1,0,0,-1,0,500)" id="g10">
        <g transform="scale(0.1)" id="g12">
            <path id="path16" style="fill:#f49e0d;fill-opacity:1;fill-rule:nonzero;stroke:none" d="m 2965.22,3670.77 c -28.09,0 -51.25,-23.18 -51.25,-51.27 0,-28.09 23.16,-51.25 51.25,-51.25 28.05,0 51.27,23.16 51.27,51.25 0,28.09 -23.22,51.27 -51.27,51.27" />
            <path id="path18" style="fill:#f49e0d;fill-opacity:1;fill-rule:nonzero;stroke:none" d="m 432.203,3726.77 c -50.168,0 -89.465,-39.3 -89.465,-89.46 0,-61.02 46.758,-92.93 92.946,-92.93 h 82.312 c 25.477,-0.51 44.699,-19.09 44.699,-43.22 0,-24.22 -20.922,-44.7 -45.691,-44.7 H 354.949 v -50.24 h 166.528 c 51.789,0 93.933,42.38 93.933,94.45 0,63.3 -48.754,96.41 -96.914,96.41 l -81.816,0.49 c -23.028,0 -39.742,16.3 -39.742,38.74 0,23.4 17.242,41.72 39.246,41.72 h 145.234 v 48.74 H 432.203" />
            <path id="path20" style="fill:#f49e0d;fill-opacity:1;fill-rule:nonzero;stroke:none" d="m 840.488,3578.23 c 0,13.11 -5.015,18.16 -16.586,18.16 H 715.438 c -11.59,0 -16.59,-5.05 -16.59,-18.16 v -107.61 c 0,-13.09 5,-18.11 16.59,-18.11 h 108.464 c 11.571,0 16.586,5.02 16.586,18.11 z M 819.375,3406.22 H 698.848 c 0,0 0,-55.27 0,-76.91 h -53.321 v 269.05 c 0,24.13 0,22.12 0,44.26 h 173.848 c 54.313,0 74.434,-30.17 74.434,-73.46 v -89.48 c 0,-43.27 -20.121,-73.46 -74.434,-73.46" />
            <path id="path22" style="fill:#f49e0d;fill-opacity:1;fill-rule:nonzero;stroke:none" d="m 1017.5,3596.39 c -13.06,0 -27.133,-12.1 -27.133,-21.16 v -114.69 c 0,-32.68 0,-29.67 0,-54.32 h -56.344 c 0,23.64 0,21.64 0,54.32 v 96.07 c 0,52.78 23.129,86.01 78.957,86.01 h 80 c 0,-11.58 0,-33.71 0,-46.23 h -75.48" />
            <path id="path24" style="fill:#f49e0d;fill-opacity:1;fill-rule:nonzero;stroke:none" d="m 1290.63,3475.64 c 0,-21.62 -3.51,-23.13 -20.11,-23.13 h -98.9 c -18.13,0 -25.16,3.01 -25.16,20.08 v 24.18 c 0,17.07 7.03,20.13 25.16,20.13 h 119.01 z m -26.17,166.98 h -119.51 v -46.23 h 125.57 c 16.6,0 20.11,-4.55 20.11,-15.1 0,-11.08 0,-11.59 0,-18.63 h -129.1 c -53.28,0 -68.4,-32.7 -68.4,-71.44 v -13.61 c 0,-49.22 15.12,-71.39 68.4,-71.39 h 182.42 c 0,17.62 0,20.16 0,44.29 v 103.08 c 0,63.84 -19.64,89.03 -79.49,89.03" />
            <path id="path26" style="fill:#f49e0d;fill-opacity:1;fill-rule:nonzero;stroke:none" d="m 1232.41,3697.59 c -11.99,0 -21.08,9.09 -21.08,21.09 0,12 9.09,21.07 21.08,21.07 11.97,0 21.11,-9.07 21.11,-21.07 0,-12 -9.14,-21.09 -21.11,-21.09 z m 0,73.38 c -28.66,0 -52.33,-23.62 -52.33,-52.29 0,-28.69 23.67,-52.3 52.33,-52.3 28.66,0 52.28,23.61 52.28,52.3 0,28.67 -23.62,52.29 -52.28,52.29" />
            <path id="path28" style="fill:#9c9a9b;fill-opacity:1;fill-rule:nonzero;stroke:none" d="m 1758.72,3596.39 c -13.05,0 -27.11,-12.1 -27.11,-21.16 v -114.69 c 0,-32.68 0,-29.67 0,-54.32 h -56.35 c 0,23.64 0,21.64 0,54.32 v 96.07 c 0,52.78 23.14,86.01 78.96,86.01 h 80.02 c 0,-11.58 0,-33.71 0,-46.23 h -75.52" />
            <path id="path30" style="fill:#9c9a9b;fill-opacity:1;fill-rule:nonzero;stroke:none" d="m 2031.86,3475.64 c 0,-21.62 -3.52,-23.13 -20.1,-23.13 h -98.9 c -18.15,0 -25.16,3.01 -25.16,20.08 v 24.18 c 0,17.07 7.01,20.13 25.16,20.13 h 119 z m -26.15,166.98 H 1886.2 v -46.23 h 125.56 c 16.58,0 20.1,-4.55 20.1,-15.1 0,-11.08 0,-11.59 0,-18.63 h -129.12 c -53.26,0 -68.34,-32.7 -68.34,-71.44 v -13.61 c 0,-49.22 15.08,-71.39 68.34,-71.39 h 182.46 c 0,17.62 0,20.16 0,44.29 v 103.08 c 0,63.84 -19.65,89.03 -79.49,89.03" />
            <path id="path32" style="fill:#9c9a9b;fill-opacity:1;fill-rule:nonzero;stroke:none" d="m 1973.64,3697.59 c -11.99,0 -21.08,9.09 -21.08,21.09 0,12 9.09,21.07 21.08,21.07 11.99,0 21.09,-9.07 21.09,-21.07 0,-12 -9.1,-21.09 -21.09,-21.09 z m 0,73.38 c -28.67,0 -52.29,-23.62 -52.29,-52.29 0,-28.69 23.62,-52.3 52.29,-52.3 28.65,0 52.32,23.61 52.32,52.3 0,28.67 -23.67,52.29 -52.32,52.29" />
            <path id="path34" style="fill:#9c9a9b;fill-opacity:1;fill-rule:nonzero;stroke:none" d="m 2335.63,3578.23 c 0,13.11 -5.04,18.16 -16.62,18.16 h -118.07 c -11.56,0 -16.58,-5.05 -16.58,-18.16 v -107.61 c 0,-13.09 5.02,-18.11 16.58,-18.11 h 118.07 c 11.58,0 16.62,5.02 16.62,18.11 z m -130.16,-172.01 c -56.32,0 -74.39,28.19 -74.39,73.46 v 89.48 c 0,47.32 18.57,73.46 74.39,73.46 h 130.16 c 0,0 0,70.89 0,85.5 h 53.3 v -277.61 c 0,-24.13 0,-27.67 0,-44.29 h -183.46" />
            <path id="path36" style="fill:#9c9a9b;fill-opacity:1;fill-rule:nonzero;stroke:none" d="m 2630.51,3577.21 c 0,13.6 -3.98,19.18 -17.11,19.18 h -109.98 c -13.08,0 -17.09,-5.58 -17.09,-19.18 v -32.14 h 144.18 z m -144.18,-78.45 v -22.13 c 0,-17.09 8.05,-24.12 27.15,-24.12 h 131.13 v -46.29 h -143.2 c -53.3,0 -68.4,21.64 -68.4,71.39 v 93.57 c 0,49.3 12.05,71.44 68.4,71.44 h 111 c 56.36,0 68.4,-19.62 68.4,-71.44 v -72.42 h -194.48" />
            <path id="path38" style="fill:#9c9a9b;fill-opacity:1;fill-rule:nonzero;stroke:none" d="m 2793.93,3406.22 c -37.71,0 -70.41,15.1 -70.41,73.93 v 213.77 h 53.36 v -51.3 h 89.45 v -46.23 h -89.45 v -124.8 c 0,-15.05 2.5,-19.08 23.61,-19.08 h 56.84 c 23.12,0 -4.02,0 15.59,0 v -46.29 h -78.99" />
            <path id="path40" style="fill:#f49e0d;fill-opacity:1;fill-rule:nonzero;stroke:none" d="m 1649.69,3406.22 -126.07,137.65 106.95,98.75 h -74.43 L 1439.08,3516.9 v 211.22 h -53.32 v -321.9 h 53.32 v 50.82 l 48.48,53.59 95.22,-104.41 h 66.91" />
            <path id="path42" style="fill:#f49e0d;fill-opacity:1;fill-rule:nonzero;stroke:none" d="m 2965.22,3819.27 c -28.09,0 -51.25,-23.17 -51.25,-51.26 0,-28.1 23.16,-51.26 51.25,-51.26 28.05,0 51.27,23.16 51.27,51.26 0,28.09 -23.22,51.26 -51.27,51.26" />
        </g>
    </g>
</svg>
