<?xml version="1.0" encoding="UTF-8"?><svg id="Layer_1" xmlns="http://www.w3.org/2000/svg" viewBox="0 0 160 40"><defs><style>.cls-1{fill:#14417b;stroke-width:0px;}</style></defs><path class="cls-1" d="m5.09,11.89H0v-3.58h14.48v3.58h-5.14v15.26h-4.25v-15.26Z"/><path class="cls-1" d="m17.61,21.68c.14,1.76,1.87,2.6,3.86,2.6,1.45,0,2.63-.2,3.77-.59l.56,2.88c-1.4.59-3.1.87-4.95.87-4.64,0-7.3-2.68-7.3-6.96,0-3.47,2.18-7.3,6.9-7.3,4.42,0,6.09,3.44,6.09,6.82,0,.73-.08,1.37-.14,1.68h-8.81Zm5-2.91c0-1.03-.45-2.77-2.38-2.77-1.82,0-2.54,1.65-2.66,2.77h5.03Z"/><path class="cls-1" d="m29.1,17.99c0-2.01-.03-3.33-.11-4.5h3.63l.17,2.54h.11c.7-2.01,2.35-2.85,3.69-2.85.39,0,.59.03.89.08v4c-.34-.06-.67-.11-1.15-.11-1.57,0-2.63.81-2.91,2.15-.06.28-.08.59-.08.95v6.9h-4.25v-9.17Z"/><path class="cls-1" d="m39.72,17.85c0-1.71-.06-3.13-.11-4.36h3.61l.17,1.87h.08c.59-.89,1.82-2.18,4.14-2.18,1.79,0,3.16.92,3.75,2.35h.06c.53-.73,1.12-1.29,1.79-1.68.75-.42,1.59-.67,2.6-.67,2.63,0,4.61,1.84,4.61,5.93v8.05h-4.14v-7.41c0-1.98-.64-3.13-2.01-3.13-1.01,0-1.68.67-1.98,1.48-.08.31-.14.73-.14,1.06v7.99h-4.14v-7.66c0-1.71-.61-2.88-1.98-2.88-1.09,0-1.73.84-1.98,1.51-.14.34-.17.73-.17,1.09v7.94h-4.14v-9.31Z"/><path class="cls-1" d="m64.1,18.04c0-1.73-.03-3.13-.11-4.42h2.21l.14,2.32h.06c.98-1.68,2.6-2.63,4.78-2.63,3.3,0,5.76,2.77,5.76,6.88,0,4.86-2.99,7.27-6.15,7.27-1.82,0-3.35-.78-4.17-2.12h-.06v7.35h-2.46v-14.65Zm2.46,3.61c0,.34.03.7.11,1.01.42,1.7,1.93,2.88,3.66,2.88,2.6,0,4.11-2.12,4.11-5.23,0-2.71-1.4-5.03-4-5.03-1.68,0-3.27,1.17-3.75,3.05-.06.31-.14.67-.14.98v2.35Z"/><path class="cls-1" d="m85.51,27.46c-3.63,0-6.49-2.68-6.49-6.96,0-4.53,2.99-7.18,6.71-7.18s6.51,2.82,6.51,6.93c0,5.03-3.49,7.21-6.71,7.21h-.03Zm.11-1.84c2.35,0,4.11-2.21,4.11-5.28,0-2.29-1.15-5.17-4.05-5.17s-4.14,2.68-4.14,5.26c0,2.96,1.68,5.2,4.05,5.2h.03Z"/><path class="cls-1" d="m95.35,17.85c0-1.59-.03-2.96-.11-4.22h2.15l.11,2.66h.08c.61-1.82,2.12-2.96,3.77-2.96.25,0,.45.03.67.06v2.32c-.25-.03-.5-.06-.84-.06-1.73,0-2.96,1.31-3.3,3.13-.06.36-.08.75-.08,1.15v7.24h-2.46v-9.31Z"/><path class="cls-1" d="m108.12,10.38v3.24h3.52v1.87h-3.52v7.27c0,1.68.48,2.63,1.84,2.63.67,0,1.06-.06,1.43-.17l.11,1.87c-.48.17-1.23.34-2.18.34-1.15,0-2.07-.39-2.66-1.03-.67-.75-.95-1.96-.95-3.55v-7.35h-2.1v-1.87h2.1v-2.49l2.4-.75Z"/><path class="cls-1" d="m123.94,23.91c0,1.17.06,2.32.2,3.24h-2.21l-.22-1.71h-.08c-.73,1.06-2.21,2.01-4.14,2.01-2.74,0-4.14-1.93-4.14-3.89,0-3.27,2.91-5.06,8.13-5.03v-.28c0-1.12-.31-3.16-3.07-3.13-1.29,0-2.6.36-3.55,1.01l-.56-1.65c1.12-.7,2.77-1.17,4.47-1.17,4.17,0,5.17,2.82,5.17,5.53v5.06Zm-2.4-3.66c-2.68-.06-5.73.42-5.73,3.05,0,1.62,1.06,2.35,2.29,2.35,1.79,0,2.94-1.12,3.33-2.26.08-.25.11-.53.11-.78v-2.35Z"/><path class="cls-1" d="m127.88,7.31h2.46v19.85h-2.46V7.31Z"/><path class="cls-1" d="m135.88,20.84c.06,3.3,2.15,4.67,4.61,4.67,1.76,0,2.85-.31,3.75-.7l.45,1.76c-.87.39-2.38.87-4.53.87-4.14,0-6.65-2.77-6.65-6.82s2.43-7.3,6.37-7.3c4.42,0,5.56,3.89,5.56,6.37,0,.5-.03.87-.08,1.15h-9.48Zm7.18-1.76c.03-1.57-.64-4-3.38-4-2.52,0-3.58,2.29-3.77,4h7.16Z"/><path class="cls-1" d="m148.48,17.29c0-1.43-.03-2.54-.11-3.66h2.18l.14,2.21h.06c.67-1.26,2.24-2.52,4.47-2.52,1.87,0,4.78,1.12,4.78,5.76v8.08h-2.46v-7.8c0-2.18-.81-4.03-3.13-4.03-1.59,0-2.85,1.15-3.3,2.52-.11.31-.17.75-.17,1.15v8.16h-2.46v-9.87Z"/></svg>