<?xml version="1.0" encoding="UTF-8" standalone="no"?>
<svg
   viewBox="0 0 13.229 21.695834"
   version="1.1"
   id="svg5"
   sodipodi:docname="currentLocation.svg"
   xml:space="preserve"
   inkscape:version="1.3 (0e150ed6c4, 2023-07-21)"
   width="13.229"
   height="21.695833"
   xmlns:inkscape="http://www.inkscape.org/namespaces/inkscape"
   xmlns:sodipodi="http://sodipodi.sourceforge.net/DTD/sodipodi-0.dtd"
   xmlns="http://www.w3.org/2000/svg"
   xmlns:svg="http://www.w3.org/2000/svg"><sodipodi:namedview
     id="namedview1"
     pagecolor="#ffffff"
     bordercolor="#666666"
     borderopacity="1.0"
     inkscape:showpageshadow="2"
     inkscape:pageopacity="0.0"
     inkscape:pagecheckerboard="0"
     inkscape:deskcolor="#d1d1d1"
     inkscape:zoom="5.6568543"
     inkscape:cx="51.088465"
     inkscape:cy="29.43332"
     inkscape:window-width="2560"
     inkscape:window-height="1369"
     inkscape:window-x="1912"
     inkscape:window-y="-8"
     inkscape:window-maximized="1"
     inkscape:current-layer="svg5" /><defs
     id="defs2" /><ellipse
     style="fill:#ffffff;stroke:#000000;stroke-width:0.985682;stroke-dasharray:none;stroke-opacity:1;fill-opacity:1"
     id="path3"
     cx="6.6268225"
     cy="18.419319"
     rx="6.1216593"
     ry="2.814409" /><g
     id="g3"
     transform="matrix(0.0625,0,0,0.0625,-1.38794,3.68166)"
     style="stroke:#000000;stroke-opacity:1;fill:#ffffff;fill-opacity:1"><circle
       cx="128"
       cy="40"
       r="24"
       fill="none"
       stroke="currentColor"
       stroke-linecap="round"
       stroke-linejoin="round"
       stroke-width="16"
       id="circle1"
       style="stroke:#000000;stroke-opacity:1;fill:#ffffff;fill-opacity:1" /><path
       d="m 149.17,80 a 24,24 0 0 1 18,8.13 l 45.32,51.38 a 12.020815,12.020815 0 0 1 -17,17 L 160,128 l 22.87,86.93 a 12,12 0 0 1 -21.75,10.14 L 128,168 94.88,225.07 A 12,12 0 0 1 73.13,214.93 L 96,128 60.49,156.49 a 12.020815,12.020815 0 0 1 -17,-17 L 88.83,88.13 a 24,24 0 0 1 18,-8.13 z"
       fill="none"
       stroke="currentColor"
       stroke-linecap="round"
       stroke-linejoin="round"
       stroke-width="16"
       id="path1"
       style="stroke:#000000;stroke-opacity:1;fill:#ffffff;fill-opacity:1" /></g></svg>
