<?xml version="1.0" encoding="UTF-8" standalone="no"?>
<svg
   viewBox="0 0 13.229166 21.695834"
   version="1.1"
   id="svg5"
   sodipodi:docname="markerPrimarAnchorl.svg"
   xml:space="preserve"
   inkscape:version="1.3 (0e150ed6c4, 2023-07-21)"
   xmlns:inkscape="http://www.inkscape.org/namespaces/inkscape"
   xmlns:sodipodi="http://sodipodi.sourceforge.net/DTD/sodipodi-0.dtd"
   xmlns="http://www.w3.org/2000/svg"
   xmlns:svg="http://www.w3.org/2000/svg"><sodipodi:namedview
     id="namedview1"
     pagecolor="#ffffff"
     bordercolor="#666666"
     borderopacity="1.0"
     inkscape:showpageshadow="2"
     inkscape:pageopacity="0.0"
     inkscape:pagecheckerboard="0"
     inkscape:deskcolor="#d1d1d1"
     inkscape:zoom="33.877473"
     inkscape:cx="6.6268225"
     inkscape:cy="10.847917"
     inkscape:window-width="1920"
     inkscape:window-height="991"
     inkscape:window-x="-9"
     inkscape:window-y="-9"
     inkscape:window-maximized="1"
     inkscape:current-layer="g1" /><defs
     id="defs2" /><g
     id="layer1"><g
       id="g35914"
       transform="matrix(0.298402,0,0,0.298402,-0.96482737,5.8697336)"><g
         id="g35909"><path
           id="path28141"
           fill="#cf3c3a"
           style="stroke-width:7.55906"
           stroke="white"
           d="M 96,0 A 79.999998,79.999998 0 0 0 16,80 79.999998,79.999998 0 0 0 79.082031,158.16211 L 96,192 112.91797,158.16211 A 79.999998,79.999998 0 0 0 176,80 79.999998,79.999998 0 0 0 96,0 Z"
           transform="scale(0.26458333)" /></g></g></g><g
     id="g1"
     transform="matrix(0.03125,0,0,0.03125,2.614583,8.84792)"><circle
       cx="128"
       cy="36.866562"
       r="24"
       fill="none"
       stroke="currentColor"
       stroke-linecap="round"
       stroke-linejoin="round"
       stroke-width="16"
       id="circle1"
       style="stroke:#ffffff;stroke-opacity:1" /><line
       x1="128"
       y1="188.86656"
       x2="128"
       y2="60.866562"
       fill="none"
       stroke="currentColor"
       stroke-linecap="round"
       stroke-linejoin="round"
       stroke-width="16"
       id="line1"
       style="fill:#f9f9f9;stroke:#ffffff;stroke-opacity:1" /><path
       d="M 56,92.86656 H 32 a 96,96 0 0 0 192,0 h -24"
       fill="none"
       stroke="currentColor"
       stroke-linecap="round"
       stroke-linejoin="round"
       stroke-width="16"
       id="path1"
       style="stroke:#ffffff;stroke-opacity:1" /></g></svg>
