<?xml version="1.0" encoding="utf-8"?>
<svg data-name="Layer 1" width="860.13137" height="571.14799" viewBox="0 0 860.13137 571.14799" xmlns="http://www.w3.org/2000/svg">
  <path d="M 433.19 161.315 C 425.52 148.631 416.433 135.088 402.2 130.946 C 385.718 126.149 368.787 135.678 354.425 145.08 C 311.476 173.2 270.115 203.675 230.532 236.363 L 230.575 236.856 C 261.392 234.73 292.209 232.605 323.026 230.48 C 345.292 228.945 368.322 227.197 387.998 216.665 C 395.465 212.668 402.743 207.329 411.204 206.957 C 421.716 206.495 430.881 213.836 438.084 221.506 C 480.691 266.877 493.021 336.26 540.822 376.122 C 510.68 301.787 474.69 229.959 433.19 161.315 Z" style="fill: rgb(178, 174, 174);"/>
  <path d="M 695.091 546.144 C 690.379 540.194 688.454 538.801 683.806 532.796 C 645.963 483.852 610.394 433.254 577.098 381.004 C 554.482 345.517 532.988 309.349 512.615 272.499 C 502.916 254.98 493.483 237.324 484.316 219.531 C 477.202 205.734 470.247 191.854 463.451 177.893 C 461.508 173.905 459.619 169.899 457.74 165.883 C 453.312 156.441 448.967 146.953 444.301 137.639 C 438.984 127.023 432.512 115.894 422.748 108.762 C 418.305 105.383 412.992 103.338 407.429 102.867 C 399.481 102.354 392.148 105.636 385.254 109.22 C 334.815 135.521 287.595 168.496 244.884 206.018 C 202.064 243.624 163.79 286.11 130.842 332.609 C 129.834 334.049 127.451 332.673 128.468 331.225 C 132.474 325.56 136.56 319.955 140.725 314.412 C 192.514 245.535 256.015 186.303 328.325 139.426 C 340.49 131.543 352.884 124.028 365.507 116.884 C 371.869 113.281 378.259 109.724 384.759 106.388 C 391.13 103.115 397.896 100.172 405.174 100.062 C 429.944 99.677 442.77 127.729 451.579 146.605 C 454.348 152.545 457.15 158.467 459.986 164.371 C 470.702 186.785 481.831 208.994 493.373 230.999 C 500.496 244.585 507.775 258.091 515.21 271.518 C 538.348 313.33 562.941 354.296 588.988 394.415 C 623.494 447.558 657.725 494.504 697.034 544.2 C 698.116 545.575 696.182 547.537 695.091 546.144 Z" style="fill: rgb(185, 182, 182);"/>
  <path d="M 242.436 192.166 C 240.997 190.562 239.567 188.958 238.118 187.353 C 226.696 174.721 214.44 162.235 198.754 154.993 C 191.275 151.43 183.111 149.538 174.827 149.446 C 166.265 149.474 157.895 151.72 149.984 154.864 C 146.244 156.359 142.586 158.055 138.983 159.86 C 134.867 161.932 130.824 164.142 126.8 166.369 C 119.246 170.55 111.79 174.913 104.432 179.46 C 89.791 188.508 75.609 198.247 61.886 208.676 C 54.772 214.085 47.805 219.671 40.984 225.434 C 34.641 230.788 28.425 236.285 22.338 241.926 C 21.036 243.127 19.093 241.184 20.395 239.983 C 21.999 238.489 23.622 237.003 25.244 235.537 C 29.828 231.393 34.485 227.329 39.215 223.344 C 47.841 216.065 56.691 209.068 65.764 202.351 C 79.872 191.9 94.467 182.158 109.547 173.126 C 117.082 168.615 124.722 164.294 132.465 160.163 C 134.803 158.916 137.168 157.697 139.561 156.542 C 144.99 153.803 150.631 151.507 156.429 149.676 C 164.642 147.019 173.331 146.165 181.905 147.173 C 190.182 148.377 198.157 151.136 205.41 155.304 C 220.811 163.912 232.755 177.223 244.38 190.213 C 245.553 191.534 243.619 193.486 242.436 192.166 Z" style="fill: rgb(185, 182, 182);"/>
  <path d="M 557.997 323.073 L 594.901 309.575 L 613.224 302.873 C 619.192 300.691 625.145 298.206 631.314 296.643 C 636.675 295.112 642.368 295.184 647.688 296.851 C 652.433 298.608 656.776 301.3 660.459 304.768 C 664.222 308.233 667.723 311.972 670.934 315.955 C 674.923 320.749 678.853 325.593 682.801 330.422 C 699.096 350.349 715.283 370.363 731.365 390.463 C 747.445 410.563 763.419 430.748 779.284 451.019 C 795.189 471.339 810.984 491.744 826.67 512.235 C 828.591 514.745 830.511 517.256 832.43 519.769 C 833.489 521.157 835.879 519.788 834.804 518.381 C 819.003 497.684 803.091 477.073 787.069 456.546 C 771.008 435.97 754.836 415.482 738.553 395.08 C 722.27 374.679 705.877 354.367 689.374 334.143 C 685.263 329.104 681.145 324.072 677.02 319.044 C 673.54 314.804 670.1 310.517 666.284 306.57 C 659.278 299.325 650.526 292.922 640.049 292.748 C 633.889 292.646 627.928 294.601 622.205 296.671 C 616.036 298.903 609.881 301.177 603.719 303.431 L 566.556 317.023 L 557.266 320.421 C 555.617 321.024 556.329 323.683 557.997 323.073 Z" style="fill: rgb(185, 182, 182);"/>
  <path d="M 193.897 170.888 C 175.143 161.25 151.126 163.137 133.892 175.179 C 166.764 180.851 199.277 188.439 231.263 197.905 C 217.98 190.121 207.59 177.926 193.897 170.888 Z" style="fill: rgb(178, 174, 174);"/>
  <path d="M 133.708 175.146 L 130.097 178.081 C 131.319 177.054 132.588 176.091 133.892 175.179 C 133.831 175.169 133.769 175.157 133.708 175.146 Z" fill="#f2f2f2"/>
  <path d="M 659.069 323.208 C 655.436 318.786 651.509 314.156 646.075 312.36 L 641.002 312.56 C 679.62 380.799 731.776 440.425 794.269 487.78 C 749.203 432.923 704.136 378.065 659.069 323.208 Z" style="fill: rgb(178, 174, 174);"/>
  <path d="M 343.604 286.729 C 345.952 295.258 351.24 302.682 358.535 307.687 C 361.355 309.607 364.692 311.449 365.657 314.722 C 366.164 316.808 365.851 319.01 364.783 320.872 C 363.716 322.71 362.419 324.405 360.922 325.913 L 360.785 326.425 C 353.787 322.278 347.129 317.032 343.263 309.874 C 339.397 302.716 338.857 293.335 343.604 286.729" style="fill: rgb(178, 174, 174);"/>
  <path d="M 576.604 489.729 C 578.952 498.258 584.24 505.682 591.535 510.687 C 594.355 512.607 597.692 514.449 598.657 517.722 C 599.164 519.808 598.851 522.01 597.783 523.872 C 596.716 525.71 595.419 527.405 593.922 528.913 L 593.785 529.425 C 586.787 525.278 580.129 520.032 576.263 512.874 C 572.397 505.716 571.857 496.335 576.604 489.729" style="fill: rgb(178, 174, 174);"/>
  <path d="M 111.604 475.729 C 113.952 484.258 119.24 491.682 126.535 496.687 C 129.355 498.607 132.692 500.449 133.657 503.722 C 134.164 505.808 133.851 508.01 132.783 509.872 C 131.716 511.71 130.419 513.405 128.922 514.913 L 128.785 515.425 C 121.787 511.278 115.129 506.032 111.263 498.874 C 107.397 491.716 106.857 482.335 111.604 475.729" style="fill: rgb(178, 174, 174);"/>
  <circle cx="646.703" cy="51.788" r="51" style="fill: rgb(86, 0, 39);"/>
  <path d="M 738.738 12.659 C 714.022 9.318 685.803 22.677 679.397 46.782 C 673.537 31.224 653.032 27.845 642.489 40.699 C 640.522 43.097 639.094 45.891 638.304 48.891 L 641.133 50.917 C 694.101 62.372 748.93 62.124 801.792 50.191 C 784.599 32.122 763.455 15.999 738.738 12.659 Z" style="fill: rgb(185, 182, 182);"/>
  <path d="M 632.738 80.659 C 608.022 77.318 579.803 90.677 573.397 114.782 C 567.537 99.224 547.032 95.845 536.489 108.699 C 534.522 111.097 533.094 113.891 532.304 116.891 L 535.133 118.917 C 588.101 130.372 642.93 130.124 695.792 118.191 C 678.599 100.122 657.455 83.999 632.738 80.659 Z" style="fill: rgb(185, 182, 182);"/>
  <path d="M 848.466 93.516 C 848.363 93.517 848.261 93.501 848.164 93.469 C 583.757 9.851 350.719 20.786 201.784 44.683 C 181.515 47.934 161.193 51.689 141.38 55.844 C 136.322 56.904 131.074 58.04 125.783 59.222 C 119.465 60.63 113.23 62.079 107.251 63.528 C 104.669 64.139 102.138 64.756 99.656 65.377 C 95.898 66.304 92.085 67.271 87.997 68.334 C 83.429 69.511 78.788 70.747 74.199 72.006 C 74.183 72.012 74.165 72.016 74.148 72.02 L 74.149 72.021 C 68.966 73.436 63.811 74.892 58.825 76.346 C 56.127 77.126 53.522 77.894 51.026 78.653 C 50.747 78.73 50.5 78.804 50.25 78.881 L 49.714 79.044 C 49.403 79.138 49.096 79.231 48.79 79.319 L 48.77 79.325 L 48.771 79.326 L 47.959 79.578 C 46.991 79.871 46.047 80.157 45.118 80.442 C 20.573 88.009 7.08 93.391 6.947 93.444 C 6.232 93.731 5.476 93.136 5.585 92.374 C 5.636 92.02 5.871 91.721 6.203 91.588 C 6.337 91.535 19.896 86.125 44.53 78.53 C 45.463 78.244 46.409 77.958 47.38 77.664 L 48.134 77.43 C 48.16 77.42 48.186 77.412 48.212 77.404 C 48.517 77.317 48.822 77.224 49.132 77.131 L 49.669 76.968 C 49.936 76.887 50.2 76.806 50.47 76.732 C 52.948 75.978 55.563 75.208 58.268 74.426 C 63.255 72.971 68.415 71.514 73.602 70.097 C 73.618 70.092 73.634 70.088 73.651 70.083 L 73.651 70.082 C 78.255 68.819 82.913 67.579 87.496 66.397 C 91.59 65.334 95.411 64.365 99.175 63.435 C 101.667 62.815 104.204 62.198 106.785 61.583 C 112.77 60.132 119.018 58.68 125.348 57.27 C 130.647 56.087 135.904 54.948 140.97 53.888 C 160.813 49.725 181.168 45.965 201.467 42.709 C 350.616 18.777 583.987 7.825 848.766 91.563 C 849.5 91.795 849.708 92.734 849.141 93.254 C 848.956 93.423 848.715 93.516 848.466 93.516 Z" style="fill: rgb(185, 182, 182);"/>
  <path d="M 260.443 420.628 C 260.097 419.616 259.514 418.7 258.743 417.958 C 258.458 417.694 258.151 417.457 257.823 417.248 C 255.213 415.508 251.313 415.118 248.833 417.248 C 248.583 417.465 248.352 417.702 248.143 417.958 C 247.403 418.868 246.643 419.758 245.863 420.628 C 244.583 422.088 243.273 423.498 241.903 424.868 C 241.513 425.248 241.123 425.638 240.723 426.018 C 240.493 426.248 240.263 426.468 240.033 426.688 C 239.153 427.528 238.253 428.338 237.343 429.138 C 236.863 429.568 236.383 429.988 235.893 430.398 C 235.163 431.008 234.433 431.618 233.693 432.208 C 233.623 432.258 233.553 432.308 233.483 432.368 C 233.463 432.378 233.453 432.398 233.433 432.408 C 233.423 432.408 233.413 432.408 233.403 432.428 C 233.376 432.439 233.352 432.456 233.333 432.478 C 233.113 432.628 232.963 432.728 232.853 432.818 C 232.893 432.798 232.933 432.768 232.973 432.748 C 232.793 432.888 232.603 433.028 232.423 433.168 C 230.673 434.458 228.883 435.698 227.053 436.858 C 222.525 439.756 217.77 442.281 212.833 444.408 C 212.503 444.538 212.163 444.678 211.823 444.808 C 198.898 450.104 184.877 452.17 170.973 450.828 C 169.553 450.718 168.133 450.568 166.713 450.378 C 165.073 450.138 163.443 449.848 161.823 449.518 C 155.656 448.288 149.621 446.466 143.803 444.078 C 136.525 440.745 129.603 436.685 123.143 431.958 C 122.143 431.248 121.133 430.538 120.123 429.848 C 121.273 427.028 122.403 424.208 123.503 421.368 C 124.053 419.998 124.583 418.628 125.103 417.248 C 129.193 406.618 133.033 395.888 136.713 385.118 C 140.433 374.208 143.943 363.235 147.243 352.198 C 147.583 351.078 147.913 349.958 148.233 348.838 C 149.963 343.008 151.623 337.165 153.213 331.308 C 153.363 330.738 153.523 330.178 153.663 329.608 C 154.123 327.928 154.573 326.248 155.013 324.568 C 156.013 320.778 153.753 316.248 149.773 315.338 C 145.79 314.317 141.714 316.634 140.553 320.578 C 140.123 322.198 139.693 323.808 139.253 325.428 C 137.143 333.258 134.923 341.061 132.593 348.838 C 132.253 349.958 131.913 351.078 131.573 352.198 C 126.433 369.138 120.79 385.908 114.643 402.508 C 113.903 404.518 113.153 406.521 112.393 408.518 C 112.023 409.498 111.653 410.478 111.273 411.458 C 110.543 413.388 109.793 415.318 109.043 417.248 C 108.613 418.378 108.173 419.508 107.733 420.628 C 107.443 421.338 107.163 422.048 106.883 422.748 C 104.032 421.724 101.078 421.014 98.073 420.628 L 97.593 420.568 C 95.263 420.288 92.908 420.308 90.583 420.628 C 83.54 421.45 77.225 425.355 73.343 431.288 C 68.573 438.798 68.633 449.538 75.323 455.918 C 82.213 462.488 92.643 462.438 100.753 458.328 C 105.051 456.003 108.675 452.606 111.273 448.468 C 112.269 446.968 113.183 445.416 114.013 443.818 C 114.223 443.958 114.433 444.098 114.643 444.248 C 115.443 444.808 116.243 445.378 117.033 445.938 C 121.636 449.273 126.487 452.252 131.543 454.848 C 142.415 460.253 154.118 463.792 166.163 465.318 C 166.433 465.348 166.693 465.388 166.963 465.418 C 168.293 465.588 169.633 465.718 170.973 465.828 C 190.195 467.277 209.441 463.343 226.553 454.468 C 228.003 453.718 229.44 452.931 230.863 452.108 C 233.073 450.828 235.233 449.468 237.343 448.028 C 238.493 447.248 239.613 446.458 240.723 445.628 C 245.574 442.056 250.095 438.056 254.233 433.678 C 255.803 432.028 257.306 430.325 258.743 428.568 C 260.102 427.131 260.885 425.245 260.943 423.268 C 260.935 422.365 260.766 421.471 260.443 420.628 Z M 94.853 444.448 C 95.063 444.298 95.273 444.138 95.473 443.978 C 95.413 444.128 95.123 444.298 94.853 444.448 Z M 98.063 441.218 C 97.833 441.478 97.623 441.738 97.393 441.998 C 96.693 442.781 95.942 443.516 95.143 444.198 C 95.033 444.298 94.913 444.398 94.793 444.488 C 94.787 444.488 94.783 444.493 94.783 444.498 C 94.639 444.563 94.498 444.636 94.363 444.718 C 93.933 444.978 93.493 445.218 93.043 445.438 C 92.162 445.763 91.256 446.013 90.333 446.188 C 89.624 446.24 88.913 446.247 88.203 446.208 L 88.183 446.208 C 87.693 446.099 87.209 445.966 86.733 445.808 C 86.493 445.688 86.263 445.548 86.033 445.408 C 85.943 445.328 85.863 445.248 85.813 445.198 C 85.715 445.109 85.625 445.012 85.543 444.908 C 85.543 444.903 85.539 444.898 85.533 444.898 C 85.423 444.698 85.303 444.498 85.193 444.298 C 85.187 444.293 85.184 444.286 85.183 444.278 C 85.103 444.028 85.033 443.768 84.973 443.508 C 84.951 443.052 84.955 442.594 84.983 442.138 C 85.117 441.499 85.298 440.871 85.523 440.258 C 85.726 439.824 85.956 439.403 86.213 438.998 C 86.233 438.958 86.333 438.798 86.443 438.618 C 86.453 438.608 86.453 438.608 86.453 438.598 C 86.603 438.428 86.753 438.248 86.913 438.088 C 87.183 437.788 87.473 437.528 87.763 437.258 C 88.327 436.889 88.911 436.552 89.513 436.248 C 90.468 435.909 91.447 435.645 92.443 435.458 C 93.911 435.341 95.387 435.355 96.853 435.498 C 98.242 435.739 99.612 436.077 100.953 436.508 C 100.14 438.086 99.214 439.603 98.183 441.048 C 98.143 441.108 98.103 441.168 98.063 441.218 Z M 86.943 437.928 C 86.855 438.07 86.751 438.2 86.633 438.318 C 86.712 438.171 86.817 438.039 86.943 437.928 Z" style=""/>
  <path d="M 230.383 318.498 C 230.293 321.638 230.203 324.778 230.113 327.918 C 229.923 334.888 229.726 341.861 229.523 348.838 C 229.313 356.688 229.093 364.535 228.863 372.378 C 228.753 376.428 228.64 380.478 228.523 384.528 C 228.213 395.438 227.906 406.345 227.603 417.248 C 227.573 418.378 227.533 419.498 227.503 420.628 C 227.353 426.038 227.203 431.448 227.053 436.858 C 226.883 442.728 226.716 448.598 226.553 454.468 C 226.433 458.868 226.31 463.271 226.183 467.678 C 225.283 499.608 224.383 531.538 223.483 563.468 C 223.404 567.577 220.092 570.889 215.983 570.968 C 211.855 570.935 208.516 567.596 208.483 563.468 C 208.983 545.508 209.49 527.548 210.003 509.588 C 210.453 493.348 210.91 477.108 211.373 460.868 C 211.523 455.518 211.673 450.165 211.823 444.808 C 212.053 436.748 212.28 428.688 212.503 420.628 C 212.533 419.498 212.573 418.378 212.603 417.248 C 212.623 416.258 212.653 415.278 212.683 414.288 C 213.123 398.638 213.563 382.985 214.003 367.328 C 214.183 361.168 214.356 355.005 214.523 348.838 C 214.723 341.808 214.923 334.781 215.123 327.758 C 215.213 324.668 215.293 321.588 215.383 318.498 C 215.462 314.389 218.774 311.077 222.883 310.998 C 227.011 311.031 230.35 314.37 230.383 318.498 Z" style=""/>
  <path d="M 641.811 320.579 C 633.947 350.359 624.547 379.712 613.65 408.521 C 610.643 416.467 607.567 424.398 604.279 432.232 L 605.035 430.441 C 603.567 434.173 601.692 437.731 599.445 441.053 C 599.292 441.267 599.137 441.479 598.978 441.689 C 599.755 440.695 599.903 440.499 599.421 441.1 C 599.167 441.401 598.916 441.702 598.653 441.996 C 597.954 442.779 597.202 443.515 596.405 444.199 C 596.204 444.371 596 444.539 595.793 444.703 L 596.73 443.974 C 596.622 444.231 595.858 444.572 595.62 444.717 C 594.849 445.182 594.046 445.589 593.215 445.935 L 595.007 445.179 C 593.646 445.728 592.226 446.117 590.775 446.34 L 592.769 446.072 C 591.344 446.269 589.9 446.285 588.471 446.118 L 590.465 446.386 C 589.296 446.225 588.152 445.917 587.06 445.469 L 588.852 446.225 C 588.269 445.971 587.708 445.672 587.173 445.329 C 586.902 445.152 586.068 444.52 587.158 445.354 C 588.291 446.22 587.304 445.428 587.07 445.198 C 586.876 445.006 586.701 444.798 586.511 444.603 C 585.629 443.698 587.507 446.159 586.908 445.101 C 586.587 444.571 586.294 444.025 586.029 443.465 L 586.785 445.256 C 586.441 444.403 586.197 443.514 586.057 442.605 L 586.325 444.599 C 586.182 443.468 586.181 442.324 586.322 441.194 L 586.054 443.187 C 586.238 441.925 586.572 440.69 587.049 439.507 L 586.293 441.299 C 586.626 440.504 587.02 439.735 587.471 439 C 587.679 438.621 587.923 438.262 588.2 437.929 C 588.249 437.945 586.931 439.442 587.63 438.686 C 587.813 438.488 587.984 438.28 588.169 438.084 C 588.465 437.77 588.783 437.483 589.095 437.186 C 590.139 436.192 587.633 438.152 588.838 437.365 C 589.712 436.791 590.631 436.289 591.587 435.866 L 589.796 436.622 C 591.397 435.964 593.076 435.514 594.791 435.282 L 592.797 435.55 C 594.945 435.303 597.116 435.329 599.258 435.627 L 597.264 435.359 C 599.976 435.77 602.627 436.516 605.156 437.579 L 603.364 436.823 C 608.754 439.136 613.527 442.572 618.292 445.941 C 622.895 449.273 627.744 452.251 632.798 454.847 C 643.671 460.253 655.375 463.793 667.421 465.321 C 702.526 469.621 737.408 455.774 760.006 428.569 C 761.363 427.13 762.145 425.243 762.203 423.266 C 762.189 421.279 761.401 419.377 760.006 417.962 C 757.255 415.436 752.057 414.723 749.4 417.962 C 746.881 421.037 744.174 423.951 741.293 426.689 C 739.948 427.965 738.567 429.202 737.151 430.399 C 736.342 431.083 735.521 431.753 734.69 432.41 C 734.296 432.721 733.071 433.548 734.953 432.213 C 734.522 432.519 734.108 432.853 733.682 433.168 C 727.384 437.81 720.56 441.692 713.35 444.732 L 715.142 443.976 C 707.406 447.221 699.281 449.448 690.971 450.599 L 692.964 450.331 C 684.416 451.455 675.756 451.442 667.211 450.293 L 669.205 450.561 C 660.661 449.387 652.306 447.112 644.348 443.79 L 646.139 444.546 C 638.459 441.148 631.171 436.927 624.403 431.955 C 620.88 429.347 617.165 427.009 613.29 424.961 C 608.775 422.655 603.886 421.169 598.852 420.573 C 589.413 419.462 579.795 423.138 574.606 431.293 C 569.83 438.798 569.892 449.537 576.579 455.918 C 583.467 462.491 593.898 462.435 602.015 458.324 C 609.832 454.364 614.528 446.139 617.83 438.382 C 625.261 420.927 631.84 403.068 637.97 385.119 C 644.034 367.361 649.534 349.423 654.468 331.306 C 655.079 329.062 655.682 326.816 656.275 324.567 C 657.276 320.778 655.014 316.247 651.037 315.341 C 647.053 314.315 642.972 316.632 641.811 320.579 Z" style=""/>
  <path d="M 716.644 318.498 L 713.944 414.291 L 711.259 509.585 L 709.74 563.469 C 709.775 567.596 713.113 570.933 717.24 570.969 C 721.349 570.889 724.661 567.577 724.74 563.469 L 727.44 467.676 L 730.125 372.381 L 731.644 318.498 C 731.609 314.37 728.271 311.033 724.144 310.998 C 720.035 311.077 716.723 314.389 716.644 318.498 Z" style=""/>
  <path d="M 457.046 536.723 L 459.374 536.723 L 459.374 430.682 L 513.703 430.682 L 513.703 428.359 L 459.374 428.359 L 459.374 383.614 L 501.33 383.614 C 500.715 382.832 500.082 382.06 499.431 381.297 L 459.374 381.297 L 459.374 351.744 C 458.604 351.416 457.828 351.1 457.046 350.801 L 457.046 381.297 L 411.394 381.297 L 411.394 343.432 C 410.611 343.468 409.841 343.522 409.065 343.587 L 409.065 381.297 L 372.645 381.297 L 372.645 353.046 C 371.862 353.393 371.092 353.757 370.328 354.139 L 370.328 381.297 L 339.712 381.297 L 339.712 383.614 L 370.328 383.614 L 370.328 428.359 L 339.712 428.359 L 339.712 430.682 L 370.328 430.682 L 370.328 536.723 L 372.645 536.723 L 372.645 430.682 C 392.761 430.678 409.069 446.986 409.065 467.102 L 409.065 536.723 L 411.394 536.723 L 411.394 430.682 L 457.046 430.682 L 457.046 536.723 Z M 372.645 428.359 L 372.645 383.614 L 409.065 383.614 L 409.065 428.359 L 372.645 428.359 Z M 411.394 428.359 L 411.394 383.614 L 412.307 383.614 C 437.017 383.616 457.047 403.649 457.046 428.359 L 411.394 428.359 Z" opacity="0.2" style="fill: rgb(185, 182, 182);"/>
  <path d="M 442.823 504.928 C 439.891 518.007 432.868 529.811 422.773 538.628 C 422.033 539.268 421.293 539.888 420.523 540.498 C 418.653 540.668 416.796 540.842 414.953 541.018 C 413.423 541.158 411.913 541.308 410.413 541.448 L 410.143 541.478 L 409.953 539.838 L 409.193 533.198 C 403.221 523.448 402.007 511.511 405.893 500.758 C 408.533 493.638 413.313 487.348 418.013 481.108 C 424.503 472.488 430.813 463.968 431.043 453.458 C 434.236 457.545 436.892 462.025 438.943 466.788 C 437.007 467.699 435.268 468.98 433.823 470.558 C 433.413 471.008 433.003 471.638 433.283 472.178 C 433.523 472.638 434.123 472.748 434.643 472.808 C 435.893 472.938 437.153 473.068 438.403 473.198 C 439.403 473.308 440.403 473.408 441.403 473.518 C 442.613 477.489 443.433 481.568 443.853 485.698 C 444.527 492.122 444.179 498.613 442.823 504.928 Z" style=""/>
  <path d="M 476.023 478.718 C 470.123 483.008 466.673 489.178 463.993 495.978 C 461.246 496.857 458.775 498.436 456.823 500.558 C 456.413 501.008 456.003 501.638 456.283 502.178 C 456.523 502.638 457.123 502.748 457.643 502.808 C 458.893 502.938 460.153 503.068 461.403 503.198 C 458.723 511.238 456.263 519.558 451.523 526.348 C 448.371 530.831 444.262 534.558 439.493 537.258 C 438.193 537.999 436.851 538.664 435.473 539.248 C 430.393 539.638 425.41 540.055 420.523 540.498 C 418.653 540.668 416.796 540.842 414.953 541.018 C 413.423 541.158 411.913 541.308 410.413 541.448 C 410.403 540.898 410.403 540.348 410.413 539.798 C 410.729 525.147 416.119 511.059 425.663 499.938 C 426.113 499.418 426.573 498.908 427.043 498.398 C 431.878 493.234 437.564 488.938 443.853 485.698 C 453.763 480.546 464.869 478.136 476.023 478.718 Z" style="fill: rgb(86, 0, 39);"/>
  <path d="M 416.683 535.888 L 415.533 539.288 L 414.953 541.018 C 413.423 541.158 411.913 541.308 410.413 541.448 L 410.143 541.478 C 408.483 541.648 406.833 541.818 405.183 541.988 C 404.753 541.488 404.323 540.978 403.903 540.458 C 382.174 514.145 385.78 475.222 411.973 453.348 C 410.653 460.258 412.193 466.878 414.723 473.448 C 414.453 473.558 414.193 473.668 413.943 473.788 C 412.007 474.699 410.268 475.98 408.823 477.558 C 408.413 478.008 408.003 478.638 408.283 479.178 C 408.523 479.638 409.123 479.748 409.643 479.808 C 410.893 479.938 412.153 480.068 413.403 480.198 C 414.403 480.308 415.403 480.408 416.403 480.518 C 416.873 480.568 417.343 480.618 417.813 480.668 C 417.883 480.818 417.943 480.958 418.013 481.108 C 420.863 487.288 423.933 493.498 425.663 499.938 C 426.097 501.554 426.437 503.193 426.683 504.848 C 428.243 516.177 424.563 527.6 416.683 535.888 Z" style="fill: rgb(86, 0, 39);"/>
  <path d="M 517.341 390.849 C 508.732 374.056 495.395 359.928 479.709 349.545 C 463.972 339.177 445.915 332.863 427.146 331.165 C 424.686 330.942 422.22 330.811 419.747 330.772 C 416.826 330.729 372.881 343.404 358.16 353.755 C 343.447 363.979 331.344 377.519 322.827 393.282 C 314.325 409.131 310.144 426.938 310.702 444.915 C 311.431 463 316.471 480.649 325.404 496.391 C 334.216 512.081 346.726 525.382 361.849 535.137 C 377.187 544.923 392.594 570.872 410.703 571.788 C 428.949 572.711 449.757 548.233 466.398 540.801 C 483.039 533.307 497.426 521.583 508.124 506.796 C 518.519 492.305 525.245 475.509 527.723 457.848 C 530.296 439.765 529.097 421.116 522.921 403.832 C 521.337 399.391 519.473 395.055 517.341 390.849 C 515.562 387.344 510.345 386.053 507.08 388.158 C 503.585 390.31 502.4 394.83 504.389 398.42 C 505.434 400.478 506.406 402.571 507.305 404.697 L 506.548 402.905 C 509.948 411.081 512.26 419.667 513.425 428.444 L 513.157 426.45 C 514.396 435.972 514.374 445.616 513.091 455.132 L 513.359 453.139 C 512.062 462.654 509.522 471.958 505.804 480.813 L 506.56 479.021 C 504.647 483.539 502.418 487.916 499.889 492.12 C 498.607 494.243 497.246 496.317 495.808 498.341 C 495.176 499.229 494.525 500.102 493.869 500.972 C 493.013 502.108 495.036 499.489 494.151 500.603 C 494.001 500.793 493.851 500.983 493.7 501.172 C 493.245 501.74 492.785 502.302 492.318 502.86 C 489.2 506.58 485.797 510.051 482.141 513.243 C 481.231 514.038 480.305 514.815 479.363 515.575 C 478.895 515.953 478.431 516.347 477.943 516.699 C 477.961 516.686 479.522 515.5 478.598 516.188 C 478.308 516.405 478.02 516.624 477.729 516.84 C 475.789 518.277 473.797 519.641 471.754 520.932 C 467.051 523.895 462.116 526.475 456.999 528.645 L 458.79 527.889 C 449.962 531.606 440.684 534.145 431.194 535.441 L 433.187 535.173 C 423.702 536.455 414.088 536.472 404.598 535.223 L 406.592 535.491 C 397.967 534.333 389.53 532.052 381.497 528.707 L 383.288 529.463 C 378.635 527.498 374.148 525.16 369.872 522.472 C 367.756 521.139 365.695 519.723 363.689 518.224 C 363.403 518.011 363.119 517.794 362.834 517.579 C 361.918 516.888 363.491 518.089 363.504 518.097 C 362.972 517.715 362.459 517.306 361.969 516.872 C 361 516.083 360.046 515.276 359.108 514.45 C 355.352 511.143 351.845 507.563 348.614 503.741 C 347.806 502.785 347.014 501.815 346.24 500.83 C 345.905 500.404 345.294 499.54 346.645 501.359 C 346.467 501.12 346.283 500.885 346.103 500.647 C 345.672 500.075 345.247 499.499 344.827 498.919 C 343.359 496.887 341.963 494.805 340.639 492.673 C 337.649 487.848 335.039 482.796 332.834 477.565 L 333.59 479.357 C 329.981 470.77 327.513 461.748 326.25 452.52 L 326.518 454.513 C 325.377 446.007 325.361 437.388 326.469 428.877 L 326.201 430.871 C 327.337 422.63 329.555 414.574 332.796 406.912 L 332.04 408.704 C 334.079 403.907 336.485 399.275 339.235 394.847 C 340.612 392.632 342.071 390.47 343.613 388.363 C 343.963 387.884 344.317 387.408 344.675 386.935 C 344.999 386.507 345.89 385.442 344.37 387.323 C 344.519 387.139 344.662 386.949 344.809 386.763 C 345.655 385.691 346.522 384.636 347.409 383.598 C 350.767 379.667 354.404 375.984 358.292 372.577 C 359.275 371.716 360.273 370.873 361.287 370.048 C 361.747 369.673 362.211 369.302 362.678 368.935 C 362.864 368.789 363.053 368.645 363.239 368.497 C 361.242 370.086 362.684 368.929 363.138 368.59 C 365.227 367.024 367.372 365.537 369.573 364.128 C 374.466 360.999 379.613 358.287 384.96 356.02 L 383.168 356.776 C 390.928 353.518 425.309 345.827 431.562 346.667 L 429.568 346.399 C 438.759 347.682 447.742 350.164 456.288 353.781 L 454.496 353.025 C 458.827 354.864 463.036 356.978 467.097 359.354 C 469.126 360.544 471.115 361.798 473.064 363.117 C 473.986 363.741 474.899 364.38 475.802 365.032 C 476.253 365.358 476.702 365.688 477.148 366.021 C 477.396 366.206 477.642 366.393 477.89 366.579 C 478.929 367.358 476.458 365.451 477.548 366.312 C 481.194 369.177 484.656 372.267 487.915 375.565 C 489.516 377.195 491.062 378.877 492.552 380.61 C 493.317 381.5 494.066 382.402 494.799 383.318 C 495.163 383.773 496.404 385.419 494.883 383.403 C 495.255 383.895 495.631 384.385 495.998 384.881 C 499.158 389.159 501.964 393.687 504.389 398.42 C 506.182 401.917 511.376 403.221 514.651 401.11 C 518.147 398.959 519.332 394.438 517.341 390.849 Z" style=""/>
  <path d="M 429.951 513.244 C 427.045 513.377 425.083 510.314 426.421 507.73 C 426.622 507.341 426.89 506.99 427.212 506.692 C 427.307 506.314 427.375 506.042 427.471 505.663 C 427.437 505.58 427.402 505.498 427.368 505.416 C 423.888 497.118 401.683 520.249 400.723 528.047 C 400.3 531.494 400.478 534.989 401.25 538.375 C 394.057 522.685 390.322 505.632 390.298 488.372 C 390.297 484.041 390.537 479.713 391.019 475.409 C 391.417 471.88 391.969 468.377 392.676 464.898 C 396.531 446.025 404.808 428.335 416.827 413.282 C 423.701 413.665 429.725 412.618 430.307 399.296 C 430.411 396.927 432.168 394.875 432.556 392.54 C 431.899 392.627 431.232 392.68 430.576 392.723 C 430.372 392.734 430.157 392.745 429.952 392.756 L 429.875 392.759 C 426.995 392.888 425.055 389.851 426.383 387.293 C 426.5 387.067 426.64 386.855 426.799 386.658 C 427.083 386.309 427.366 385.961 427.65 385.612 C 428.08 385.074 428.521 384.547 428.952 384.009 C 429.001 383.958 429.048 383.904 429.091 383.848 C 429.586 383.235 430.081 382.632 430.576 382.019 C 429.673 380.617 428.458 379.443 427.026 378.587 C 422.067 375.683 415.225 377.695 411.642 382.181 C 408.049 386.667 407.371 392.96 408.619 398.565 C 409.846 403.334 411.876 407.86 414.622 411.948 C 414.353 412.292 414.073 412.625 413.804 412.97 C 408.888 419.292 404.603 426.08 401.011 433.238 C 402.027 425.299 389.599 396.63 384.793 390.557 C 379.02 383.263 367.182 386.447 366.165 395.693 C 366.155 395.782 366.145 395.872 366.136 395.961 C 366.85 396.364 367.549 396.792 368.232 397.244 C 371.514 399.436 371.192 404.359 367.652 406.105 C 367.183 406.336 366.682 406.495 366.165 406.574 L 366.061 406.59 C 356.505 420.234 387.138 455.745 394.806 447.772 C 391.197 457.999 388.933 468.653 388.072 479.464 C 387.584 485.843 387.613 492.25 388.158 498.624 L 388.125 498.398 C 386.422 484.516 357.194 463.876 348.659 465.595 C 343.742 466.586 338.899 466.36 339.646 471.32 C 339.658 471.399 339.67 471.478 339.682 471.557 C 341.007 472.097 342.297 472.719 343.544 473.419 C 344.258 473.821 344.957 474.249 345.641 474.701 C 348.923 476.894 348.6 481.817 345.06 483.562 C 344.592 483.794 344.09 483.952 343.574 484.031 L 343.469 484.047 C 343.394 484.058 343.329 484.069 343.254 484.08 C 338.904 499.046 371.161 523.2 390.772 515.514 L 390.782 515.514 C 392.726 523.959 395.542 532.18 399.184 540.042 L 429.199 540.042 C 429.307 539.709 429.403 539.365 429.5 539.031 C 426.722 539.206 423.933 539.04 421.195 538.536 C 423.422 535.804 425.649 533.05 427.876 530.317 C 427.925 530.266 427.972 530.212 428.016 530.156 C 429.145 528.757 430.286 527.37 431.415 525.971 L 431.416 525.969 C 431.476 521.682 430.984 517.406 429.952 513.244 L 429.951 513.244 Z M 395.58 445.631 L 395.596 445.609 L 395.58 445.652 L 395.58 445.631 Z M 388.932 505.563 L 388.674 504.982 C 388.685 504.563 388.685 504.143 388.674 503.713 C 388.674 503.594 388.652 503.476 388.652 503.358 C 388.749 504.1 388.835 504.842 388.943 505.585 L 388.932 505.563 Z" style=""/>
  <circle cx="92.703" cy="439.788" r="11" style=""/>
  <circle cx="224.703" cy="559.788" r="11" style=""/>
  <circle cx="725.703" cy="559.788" r="11" style=""/>
  <circle cx="752.703" cy="419.788" r="11" style=""/>
  <circle cx="720.703" cy="317.788" r="11" style=""/>
  <path d="M 261.703 419.788 C 261.683 428.217 252.547 433.463 245.257 429.232 C 237.968 425 237.993 414.465 245.302 410.267 C 251.796 406.538 260.033 410.283 261.493 417.628 C 261.634 418.339 261.705 419.063 261.703 419.788 Z" style=""/>
  <circle cx="481.703" cy="349.788" r="11" style=""/>
  <path d="M 372.703 349.788 C 372.683 358.217 363.547 363.463 356.257 359.232 C 348.968 355 348.993 344.465 356.302 340.267 C 362.796 336.538 371.033 340.283 372.493 347.628 C 372.634 348.339 372.705 349.063 372.703 349.788 Z" style=""/>
  <path d="M 230.703 317.788 C 230.683 326.217 221.547 331.463 214.257 327.232 C 206.968 323 206.993 312.465 214.302 308.267 C 220.796 304.538 229.033 308.283 230.493 315.628 C 230.634 316.339 230.705 317.063 230.703 317.788 Z" style=""/>
  <circle cx="596.703" cy="443.788" r="11" style=""/>
  <circle cx="423.703" cy="338.788" r="16" style=""/>
  <path d="M 856.395 571.629 L -1.355 571.936 C -2.272 571.936 -2.844 570.944 -2.386 570.15 C -2.173 569.782 -1.78 569.555 -1.355 569.555 L 856.395 569.247 C 857.312 569.25 857.882 570.244 857.421 571.036 C 857.208 571.402 856.818 571.628 856.395 571.629 Z" fill="#cacaca"/>
</svg>