<?xml version="1.0" encoding="UTF-8" standalone="no"?>
<svg
   version="1.1"
   x="0px"
   y="0px"
   width="156px"
   height="28px"
   viewBox="0 0 156 28"
   id="svg15"
   sodipodi:docname="Sprakradet_logo_neg.svg"
   inkscape:version="1.1.2 (b8e25be833, 2022-02-05)"
   xmlns:inkscape="http://www.inkscape.org/namespaces/inkscape"
   xmlns:sodipodi="http://sodipodi.sourceforge.net/DTD/sodipodi-0.dtd"
   xmlns="http://www.w3.org/2000/svg"
   xmlns:svg="http://www.w3.org/2000/svg">
  <defs
     id="defs19" />
  <sodipodi:namedview
     id="namedview17"
     pagecolor="#ffffff"
     bordercolor="#666666"
     borderopacity="1.0"
     inkscape:pageshadow="2"
     inkscape:pageopacity="0.0"
     inkscape:pagecheckerboard="0"
     showgrid="false"
     inkscape:zoom="7.0641026"
     inkscape:cx="70.214156"
     inkscape:cy="14.014519"
     inkscape:window-width="2560"
     inkscape:window-height="1377"
     inkscape:window-x="-8"
     inkscape:window-y="-8"
     inkscape:window-maximized="1"
     inkscape:current-layer="svg15" />
  <g
     transform="matrix(0.51408938,0,0,-0.51408938,0,27.8)"
     id="g10">
    <g
       transform="scale(0.1)"
       id="g12">
      <path
         id="path14"
         style="fill:#ffffff;fill-opacity:1;fill-rule:nonzero;stroke:none"
         d="m 143.988,508.766 c 79.996,0 134.391,-54.399 134.391,-127.993 h -73.594 c 0,35.2 -22.398,57.594 -60.797,57.594 -38.39,0 -60.7927,-22.394 -60.7927,-44.797 0,-70.39 207.9887,-31.996 207.9887,-179.183 0,-57.602 -57.598,-115.1917 -147.196,-115.1917 C 54.3945,99.1953 0,153.59 0,230.383 h 76.7969 c 0,-35.195 25.5981,-60.793 67.1911,-60.793 44.801,0 67.2,22.398 67.2,47.992 0,73.594 -207.98487,35.199 -207.98487,175.348 0,61.437 54.39457,115.836 140.78487,115.836" />
      <path
         id="path16"
         style="fill:#ffffff;fill-opacity:1;fill-rule:nonzero;stroke:none"
         d="m 486.383,169.59 c 41.597,0 73.594,31.996 73.594,79.988 0,48 -31.997,79.996 -73.594,79.996 -41.598,0 -73.594,-31.996 -73.594,-79.996 0,-47.992 31.996,-79.988 73.594,-79.988 z m 147.191,79.988 c 0,-86.39 -64,-150.3827 -137.594,-150.3827 -47.996,0 -76.792,28.7927 -76.792,28.7927 V 0 H 345.59 v 396.773 h 54.398 l 12.801,-28.8 c 0,0 31.996,32 83.191,32 73.594,0 137.594,-63.996 137.594,-150.395" />
      <path
         id="path18"
         style="fill:#ffffff;fill-opacity:1;fill-rule:nonzero;stroke:none"
         d="m 847.973,396.773 v -76.796 c 0,0 -9.598,3.203 -25.594,3.203 -35.199,0 -60.797,-25.602 -60.797,-64 V 102.395 h -73.598 v 294.378 h 54.399 l 12.797,-31.996 c 0,0 25.601,35.196 70.394,35.196 12.801,0 22.399,-3.2 22.399,-3.2" />
      <path
         id="path20"
         style="fill:#ffffff;fill-opacity:1;fill-rule:nonzero;stroke:none"
         d="m 1014.38,505.563 c -12.8,0 -22.4,-9.602 -22.4,-22.399 0,-12.797 9.6,-22.398 22.4,-22.398 12.8,0 22.4,9.601 22.4,22.398 0,12.797 -9.6,22.399 -22.4,22.399 z m 41.6,-287.981 v 12.801 c -86.394,0 -102.394,-15.996 -102.394,-41.598 0,-15.996 16,-32 38.394,-32 38.4,0 64,25.602 64,60.797 z m -41.6,207.988 c -35.196,0 -60.794,25.598 -60.794,57.594 0,31.996 25.598,57.598 60.794,57.598 35.2,0 60.8,-25.602 60.8,-57.598 0,-31.996 -25.6,-57.594 -60.8,-57.594 z m 115.2,-140.789 V 102.395 h -54.4 l -12.8,28.796 c 0,0 -32,-31.9957 -83.196,-31.9957 -63.993,0 -99.196,35.1957 -99.196,83.1917 0,57.593 41.598,99.195 175.992,99.195 0,31.996 -19.2,51.191 -48,51.191 -38.394,0 -44.796,-31.996 -44.796,-31.996 H 889.59 c 6.402,54.399 51.195,99.196 124.79,99.196 67.2,0 115.2,-48 115.2,-115.192" />
      <path
         id="path22"
         style="fill:#ffffff;fill-opacity:1;fill-rule:nonzero;stroke:none"
         d="M 1372.77,102.395 1270.38,236.781 V 102.395 h -73.6 v 403.168 h 73.6 V 275.18 l 89.59,121.593 h 83.19 L 1337.57,255.98 1455.97,102.395 h -83.2" />
      <path
         id="path24"
         style="fill:#ffffff;fill-opacity:1;fill-rule:nonzero;stroke:none"
         d="m 1644.78,396.773 v -76.796 c 0,0 -9.6,3.203 -25.6,3.203 -35.19,0 -60.8,-25.602 -60.8,-64 V 102.395 h -73.59 v 294.378 h 54.39 l 12.81,-31.996 c 0,0 25.59,35.196 70.39,35.196 12.8,0 22.4,-3.2 22.4,-3.2" />
      <path
         id="path26"
         style="fill:#ffffff;fill-opacity:1;fill-rule:nonzero;stroke:none"
         d="m 1811.19,505.563 c -12.8,0 -22.4,-9.602 -22.4,-22.399 0,-12.797 9.6,-22.398 22.4,-22.398 12.8,0 22.4,9.601 22.4,22.398 0,12.797 -9.6,22.399 -22.4,22.399 z m 41.6,-287.981 v 12.801 c -86.4,0 -102.39,-15.996 -102.39,-41.598 0,-15.996 15.99,-32 38.39,-32 38.39,0 64,25.602 64,60.797 z m -41.6,207.988 c -35.2,0 -60.79,25.598 -60.79,57.594 0,31.996 25.59,57.598 60.79,57.598 35.19,0 60.8,-25.602 60.8,-57.598 0,-31.996 -25.61,-57.594 -60.8,-57.594 z M 1926.38,284.781 V 102.395 h -54.39 l -12.81,28.796 c 0,0 -32,-31.9957 -83.19,-31.9957 -63.99,0 -99.19,35.1957 -99.19,83.1917 0,57.593 41.59,99.195 175.99,99.195 0,31.996 -19.2,51.191 -48,51.191 -38.4,0 -44.79,-31.996 -44.79,-31.996 h -73.6 c 6.4,54.399 51.19,99.196 124.79,99.196 67.19,0 115.19,-48 115.19,-115.192" />
      <path
         id="path28"
         style="fill:#ffffff;fill-opacity:1;fill-rule:nonzero;stroke:none"
         d="m 2124.78,329.574 c -41.59,0 -73.59,-31.996 -73.59,-79.996 0,-47.992 32,-79.988 73.59,-79.988 41.6,0 73.59,31.996 73.59,79.988 0,48 -31.99,79.996 -73.59,79.996 z m -147.19,-79.996 c 0,86.399 64,150.395 137.59,150.395 48,0 76.8,-28.801 76.8,-28.801 v 134.391 h 73.59 V 102.395 h -54.39 l -12.81,28.796 c 0,0 -31.99,-31.9957 -83.19,-31.9957 -73.59,0 -137.59,63.9927 -137.59,150.3827" />
      <path
         id="path30"
         style="fill:#ffffff;fill-opacity:1;fill-rule:nonzero;stroke:none"
         d="m 2396.78,271.984 h 140.79 c -6.4,31.996 -32,57.59 -70.4,57.59 -38.4,0 -63.99,-25.594 -70.39,-57.59 z m 201.58,-79.996 c -15.99,-44.8 -63.99,-92.7927 -131.19,-92.7927 -79.99,0 -147.18,67.1917 -147.18,150.3827 0,83.195 67.19,150.395 147.18,150.395 76.8,0 140.79,-60.797 140.79,-150.395 0,-12.797 -3.2,-28.793 -3.2,-28.793 h -204.78 c 6.4,-28.797 28.79,-51.195 67.19,-51.195 38.4,0 54.4,22.398 54.4,22.398 h 76.79" />
      <path
         id="path32"
         style="fill:#ffffff;fill-opacity:1;fill-rule:nonzero;stroke:none"
         d="m 2694.38,467.168 h 63.99 v -70.395 h 64 v -67.199 h -64 v -121.59 c 0,-25.597 16,-41.597 41.6,-41.597 12.8,0 19.2,3.203 19.2,3.203 v -64 c 0,0 -16,-6.3947 -35.2,-6.3947 -57.6,0 -99.19,41.5937 -99.19,105.5897 v 124.789 h -44.79 v 60.797 h 19.19 c 22.4,0 35.2,12.797 35.2,35.199 v 41.598" />
      <path
         id="path34"
         style="fill:#f1dc4e;fill-opacity:1;fill-rule:nonzero;stroke:none"
         d="m 2973.19,540.039 c 16.36,0 30.66,-6.117 42.93,-18.398 12.27,-12.282 18.41,-26.602 18.41,-42.938 0,-16.375 -6.14,-30.68 -18.41,-42.93 -12.27,-12.281 -26.57,-18.402 -42.93,-18.402 -16.35,0 -30.67,6.121 -42.94,18.402 -12.28,12.25 -18.41,26.555 -18.41,42.93 0,16.336 6.13,30.656 18.41,42.938 12.27,12.281 26.59,18.398 42.94,18.398 z m 0,-179.945 c 16.36,0 30.66,-6.125 42.93,-18.403 12.27,-12.246 18.41,-26.558 18.41,-42.941 0,-16.34 -6.14,-30.648 -18.41,-42.93 -12.27,-12.281 -26.57,-18.398 -42.93,-18.398 -16.35,0 -30.67,6.117 -42.94,18.398 -12.28,12.282 -18.41,26.59 -18.41,42.93 0,16.383 6.13,30.695 18.41,42.941 12.27,12.278 26.59,18.403 42.94,18.403 v 0" />
    </g>
  </g>
</svg>
